%TF.GenerationSoftware,KiCad,Pcbnew,9.0.6*%
%TF.CreationDate,2026-04-29T18:15:55-07:00*%
%TF.ProjectId,MainRobotBoardTeensy,4d61696e-526f-4626-9f74-426f61726454,rev?*%
%TF.SameCoordinates,Original*%
%TF.FileFunction,Soldermask,Top*%
%TF.FilePolarity,Negative*%
%FSLAX46Y46*%
G04 Gerber Fmt 4.6, Leading zero omitted, Abs format (unit mm)*
G04 Created by KiCad (PCBNEW 9.0.6) date 2026-04-29 18:15:55*
%MOMM*%
%LPD*%
G01*
G04 APERTURE LIST*
G04 Aperture macros list*
%AMRoundRect*
0 Rectangle with rounded corners*
0 $1 Rounding radius*
0 $2 $3 $4 $5 $6 $7 $8 $9 X,Y pos of 4 corners*
0 Add a 4 corners polygon primitive as box body*
4,1,4,$2,$3,$4,$5,$6,$7,$8,$9,$2,$3,0*
0 Add four circle primitives for the rounded corners*
1,1,$1+$1,$2,$3*
1,1,$1+$1,$4,$5*
1,1,$1+$1,$6,$7*
1,1,$1+$1,$8,$9*
0 Add four rect primitives between the rounded corners*
20,1,$1+$1,$2,$3,$4,$5,0*
20,1,$1+$1,$4,$5,$6,$7,0*
20,1,$1+$1,$6,$7,$8,$9,0*
20,1,$1+$1,$8,$9,$2,$3,0*%
G04 Aperture macros list end*
%ADD10RoundRect,0.102000X-0.430000X-0.490000X0.430000X-0.490000X0.430000X0.490000X-0.430000X0.490000X0*%
%ADD11RoundRect,0.102000X-0.550000X-0.500000X0.550000X-0.500000X0.550000X0.500000X-0.550000X0.500000X0*%
%ADD12O,1.450000X0.599999*%
%ADD13RoundRect,0.102000X-0.395000X-0.465000X0.395000X-0.465000X0.395000X0.465000X-0.395000X0.465000X0*%
%ADD14RoundRect,0.102000X-0.520000X-0.510000X0.520000X-0.510000X0.520000X0.510000X-0.520000X0.510000X0*%
%ADD15R,0.762000X0.863600*%
%ADD16RoundRect,0.198500X-0.508500X-0.198500X0.508500X-0.198500X0.508500X0.198500X-0.508500X0.198500X0*%
%ADD17C,5.700000*%
%ADD18RoundRect,0.250000X0.600000X0.725000X-0.600000X0.725000X-0.600000X-0.725000X0.600000X-0.725000X0*%
%ADD19O,1.700000X1.950000*%
%ADD20R,1.981200X0.558800*%
%ADD21C,1.701600*%
%ADD22RoundRect,0.134250X-0.402750X-0.432750X0.402750X-0.432750X0.402750X0.432750X-0.402750X0.432750X0*%
%ADD23RoundRect,0.102000X0.430000X0.490000X-0.430000X0.490000X-0.430000X-0.490000X0.430000X-0.490000X0*%
%ADD24RoundRect,0.134250X0.402750X0.432750X-0.402750X0.432750X-0.402750X-0.432750X0.402750X-0.432750X0*%
%ADD25RoundRect,0.102000X0.550000X0.500000X-0.550000X0.500000X-0.550000X-0.500000X0.550000X-0.500000X0*%
%ADD26R,0.812800X0.889000*%
%ADD27R,0.653199X0.549999*%
%ADD28C,1.879600*%
%ADD29C,3.301600*%
%ADD30C,1.600000*%
%ADD31C,1.905000*%
%ADD32R,1.100000X1.300000*%
%ADD33RoundRect,0.250000X0.600000X-0.600000X0.600000X0.600000X-0.600000X0.600000X-0.600000X-0.600000X0*%
%ADD34C,1.700000*%
%ADD35C,3.101600*%
G04 APERTURE END LIST*
D10*
%TO.C,R72*%
X207450100Y-69640000D03*
X208980100Y-69640000D03*
%TD*%
D11*
%TO.C,R57*%
X176950000Y-123346000D03*
X178650000Y-123346000D03*
%TD*%
D12*
%TO.C,U8*%
X83142899Y-119002000D03*
X83142899Y-120272000D03*
X83142899Y-121542000D03*
X83142899Y-122812000D03*
X83142899Y-124082000D03*
X83142899Y-125352000D03*
X83142899Y-126622000D03*
X83142899Y-127892000D03*
X88592898Y-127892000D03*
X88592898Y-126622000D03*
X88592898Y-125352000D03*
X88592898Y-124082000D03*
X88592898Y-122812000D03*
X88592898Y-121542000D03*
X88592898Y-120272000D03*
X88592898Y-119002000D03*
%TD*%
D13*
%TO.C,R1*%
X126980400Y-122765000D03*
X128620400Y-122765000D03*
%TD*%
D14*
%TO.C,R107*%
X108115000Y-156380000D03*
X109585000Y-156380000D03*
%TD*%
%TO.C,R34*%
X153173400Y-125546000D03*
X154643400Y-125546000D03*
%TD*%
D10*
%TO.C,R41*%
X181464400Y-143654000D03*
X182994400Y-143654000D03*
%TD*%
D15*
%TO.C,C8*%
X112417700Y-133375000D03*
X113662300Y-133375000D03*
%TD*%
D16*
%TO.C,Q8*%
X213364200Y-69750000D03*
X213364200Y-71650000D03*
X215874200Y-70700000D03*
%TD*%
D11*
%TO.C,R56*%
X153058400Y-122946000D03*
X154758400Y-122946000D03*
%TD*%
D17*
%TO.C,MH1*%
X63050000Y-63500000D03*
%TD*%
D10*
%TO.C,R55*%
X220462100Y-75340000D03*
X221992100Y-75340000D03*
%TD*%
D15*
%TO.C,C7*%
X112395400Y-135975000D03*
X113640000Y-135975000D03*
%TD*%
D10*
%TO.C,R43*%
X181464400Y-130996000D03*
X182994400Y-130996000D03*
%TD*%
%TO.C,R47*%
X153014000Y-144436000D03*
X154544000Y-144436000D03*
%TD*%
D17*
%TO.C,MH4*%
X224800000Y-149650000D03*
%TD*%
D18*
%TO.C,J4*%
X122401100Y-75414200D03*
D19*
X119901100Y-75414200D03*
X117401100Y-75414200D03*
%TD*%
D10*
%TO.C,R73*%
X207450100Y-71760000D03*
X208980100Y-71760000D03*
%TD*%
D20*
%TO.C,U2*%
X131086200Y-121495000D03*
X131086200Y-122765000D03*
X131086200Y-124035000D03*
X131086200Y-125305000D03*
X136013800Y-125305000D03*
X136013800Y-124035000D03*
X136013800Y-122765000D03*
X136013800Y-121495000D03*
%TD*%
D14*
%TO.C,R35*%
X153173400Y-128196000D03*
X154643400Y-128196000D03*
%TD*%
D21*
%TO.C,U10*%
X98030000Y-133420000D03*
X98030000Y-135960000D03*
X98030000Y-138500000D03*
X98070000Y-140990000D03*
X98030000Y-143630000D03*
X98030000Y-146170000D03*
X98030000Y-148710000D03*
X98030000Y-151250000D03*
X98030000Y-153790000D03*
X98030000Y-156380000D03*
X105650000Y-133420000D03*
X105650000Y-135960000D03*
X105650000Y-138500000D03*
X105650000Y-141040000D03*
X105650000Y-143630000D03*
X105650000Y-146170000D03*
X105650000Y-148710000D03*
X105650000Y-151250000D03*
X105650000Y-153790000D03*
X105650000Y-156380000D03*
%TD*%
D22*
%TO.C,C6*%
X148549400Y-133546000D03*
X150109400Y-133546000D03*
%TD*%
D10*
%TO.C,R45*%
X148503800Y-147589400D03*
X150033800Y-147589400D03*
%TD*%
D23*
%TO.C,R2*%
X139968800Y-122765000D03*
X138438800Y-122765000D03*
%TD*%
D11*
%TO.C,R33*%
X171979400Y-119846000D03*
X173679400Y-119846000D03*
%TD*%
D20*
%TO.C,U3*%
X72321200Y-119640000D03*
X72321200Y-120910000D03*
X72321200Y-122180000D03*
X72321200Y-123450000D03*
X72321200Y-124720000D03*
X72321200Y-125990000D03*
X72321200Y-127260000D03*
X77248800Y-127260000D03*
X77248800Y-125990000D03*
X77248800Y-124720000D03*
X77248800Y-123450000D03*
X77248800Y-122180000D03*
X77248800Y-120910000D03*
X77248800Y-119640000D03*
%TD*%
D14*
%TO.C,R106*%
X108115000Y-153790000D03*
X109585000Y-153790000D03*
%TD*%
%TO.C,R104*%
X108115000Y-148710000D03*
X109585000Y-148710000D03*
%TD*%
D24*
%TO.C,C3*%
X150109400Y-125546000D03*
X148549400Y-125546000D03*
%TD*%
D10*
%TO.C,R10*%
X220462100Y-71760000D03*
X221992100Y-71760000D03*
%TD*%
D25*
%TO.C,R24*%
X178650000Y-148646000D03*
X176950000Y-148646000D03*
%TD*%
%TO.C,R26*%
X178650000Y-143654000D03*
X176950000Y-143654000D03*
%TD*%
%TO.C,R28*%
X178650000Y-130996000D03*
X176950000Y-130996000D03*
%TD*%
D26*
%TO.C,C1*%
X127258400Y-125457400D03*
X128553800Y-125457400D03*
%TD*%
D27*
%TO.C,C2*%
X138290001Y-125728500D03*
X139093199Y-125728500D03*
%TD*%
D18*
%TO.C,J3*%
X100403100Y-75414200D03*
D19*
X97903100Y-75414200D03*
X95403100Y-75414200D03*
%TD*%
D10*
%TO.C,R71*%
X207450100Y-77460000D03*
X208980100Y-77460000D03*
%TD*%
D15*
%TO.C,D7*%
X192752700Y-80077700D03*
X193997300Y-80077700D03*
%TD*%
D14*
%TO.C,R98*%
X108115000Y-133420000D03*
X109585000Y-133420000D03*
%TD*%
D15*
%TO.C,D8*%
X165777700Y-80077700D03*
X167022300Y-80077700D03*
%TD*%
D10*
%TO.C,R53*%
X168629400Y-119846000D03*
X170159400Y-119846000D03*
%TD*%
%TO.C,R51*%
X164999400Y-119846000D03*
X166529400Y-119846000D03*
%TD*%
D14*
%TO.C,R101*%
X108115000Y-141040000D03*
X109585000Y-141040000D03*
%TD*%
D10*
%TO.C,R49*%
X177035000Y-135996000D03*
X178565000Y-135996000D03*
%TD*%
%TO.C,R50*%
X157379400Y-119846000D03*
X158909400Y-119846000D03*
%TD*%
D11*
%TO.C,R32*%
X152929000Y-141696000D03*
X154629000Y-141696000D03*
%TD*%
D25*
%TO.C,R27*%
X178650000Y-128446000D03*
X176950000Y-128446000D03*
%TD*%
D18*
%TO.C,J2*%
X78425000Y-75425400D03*
D19*
X75925000Y-75425400D03*
X73425000Y-75425400D03*
%TD*%
D14*
%TO.C,R37*%
X153173400Y-133546000D03*
X154643400Y-133546000D03*
%TD*%
D10*
%TO.C,R48*%
X177035000Y-138605300D03*
X178565000Y-138605300D03*
%TD*%
%TO.C,R39*%
X181464400Y-148646000D03*
X182994400Y-148646000D03*
%TD*%
D20*
%TO.C,U6*%
X116297300Y-119640000D03*
X116297300Y-120910000D03*
X116297300Y-122180000D03*
X116297300Y-123450000D03*
X116297300Y-124720000D03*
X116297300Y-125990000D03*
X116297300Y-127260000D03*
X121224900Y-127260000D03*
X121224900Y-125990000D03*
X121224900Y-124720000D03*
X121224900Y-123450000D03*
X121224900Y-122180000D03*
X121224900Y-120910000D03*
X121224900Y-119640000D03*
%TD*%
D10*
%TO.C,R44*%
X148503800Y-149839400D03*
X150033800Y-149839400D03*
%TD*%
D11*
%TO.C,R31*%
X161179400Y-119846000D03*
X162879400Y-119846000D03*
%TD*%
D16*
%TO.C,Q7*%
X213653600Y-75450000D03*
X213653600Y-77350000D03*
X216163600Y-76400000D03*
%TD*%
D24*
%TO.C,C4*%
X150109400Y-128196000D03*
X148549400Y-128196000D03*
%TD*%
D10*
%TO.C,R70*%
X207450100Y-75340000D03*
X208980100Y-75340000D03*
%TD*%
%TO.C,R38*%
X181464400Y-146150000D03*
X182994400Y-146150000D03*
%TD*%
D20*
%TO.C,U4*%
X94309200Y-119640000D03*
X94309200Y-120910000D03*
X94309200Y-122180000D03*
X94309200Y-123450000D03*
X94309200Y-124720000D03*
X94309200Y-125990000D03*
X94309200Y-127260000D03*
X99236800Y-127260000D03*
X99236800Y-125990000D03*
X99236800Y-124720000D03*
X99236800Y-123450000D03*
X99236800Y-122180000D03*
X99236800Y-120910000D03*
X99236800Y-119640000D03*
%TD*%
D10*
%TO.C,R9*%
X220462100Y-77460000D03*
X221992100Y-77460000D03*
%TD*%
D12*
%TO.C,U9*%
X105130999Y-119002000D03*
X105130999Y-120272000D03*
X105130999Y-121542000D03*
X105130999Y-122812000D03*
X105130999Y-124082000D03*
X105130999Y-125352000D03*
X105130999Y-126622000D03*
X105130999Y-127892000D03*
X110580998Y-127892000D03*
X110580998Y-126622000D03*
X110580998Y-125352000D03*
X110580998Y-124082000D03*
X110580998Y-122812000D03*
X110580998Y-121542000D03*
X110580998Y-120272000D03*
X110580998Y-119002000D03*
%TD*%
D10*
%TO.C,R54*%
X220462100Y-69640000D03*
X221992100Y-69640000D03*
%TD*%
D11*
%TO.C,R30*%
X152889400Y-147646000D03*
X154589400Y-147646000D03*
%TD*%
D10*
%TO.C,R42*%
X181464400Y-128446000D03*
X182994400Y-128446000D03*
%TD*%
D14*
%TO.C,R103*%
X108115000Y-146170000D03*
X109585000Y-146170000D03*
%TD*%
%TO.C,R105*%
X108115000Y-151250000D03*
X109585000Y-151250000D03*
%TD*%
D11*
%TO.C,R29*%
X152889400Y-149896000D03*
X154589400Y-149896000D03*
%TD*%
D14*
%TO.C,R102*%
X108115000Y-143630000D03*
X109585000Y-143630000D03*
%TD*%
D17*
%TO.C,MH2*%
X224800000Y-63500000D03*
%TD*%
D22*
%TO.C,C5*%
X148549400Y-130846000D03*
X150109400Y-130846000D03*
%TD*%
D25*
%TO.C,R25*%
X178650000Y-141157900D03*
X176950000Y-141157900D03*
%TD*%
D10*
%TO.C,R40*%
X181464400Y-141146000D03*
X182994400Y-141146000D03*
%TD*%
D14*
%TO.C,R100*%
X108115000Y-138500000D03*
X109585000Y-138500000D03*
%TD*%
D17*
%TO.C,MH3*%
X63050000Y-149650000D03*
%TD*%
D25*
%TO.C,R23*%
X178650000Y-146150000D03*
X176950000Y-146150000D03*
%TD*%
D28*
%TO.C,U5*%
X73030000Y-155150000D03*
X75570000Y-155150000D03*
X78110000Y-155150000D03*
X80650000Y-155150000D03*
D29*
X73030000Y-137370000D03*
X90810000Y-137370000D03*
%TD*%
D14*
%TO.C,R36*%
X153173400Y-130846000D03*
X154643400Y-130846000D03*
%TD*%
D18*
%TO.C,J14*%
X198375000Y-75416500D03*
D19*
X195875000Y-75416500D03*
X193375000Y-75416500D03*
X190875000Y-75416500D03*
X188375000Y-75416500D03*
%TD*%
D30*
%TO.C,U1*%
X173379400Y-156346000D03*
X173379400Y-153806000D03*
X173379400Y-151266000D03*
X173379400Y-148726000D03*
X173379400Y-146186000D03*
X173379400Y-143646000D03*
X173379400Y-141106000D03*
X173379400Y-138566000D03*
X173379400Y-136026000D03*
X173379400Y-133486000D03*
X173379400Y-130946000D03*
X173379400Y-128406000D03*
X173379400Y-125866000D03*
X173379400Y-123326000D03*
X170839400Y-123326000D03*
X168299400Y-123326000D03*
X165759400Y-123326000D03*
X163219400Y-123326000D03*
X160679400Y-123326000D03*
X158139400Y-123326000D03*
X158139400Y-125866000D03*
X158139400Y-128406000D03*
X158139400Y-130946000D03*
X158139400Y-133486000D03*
X158139400Y-136026000D03*
X158139400Y-138566000D03*
X158139400Y-141106000D03*
X158139400Y-143646000D03*
X158139400Y-146186000D03*
X158139400Y-148726000D03*
X158139400Y-151266000D03*
X158139400Y-153806000D03*
X158139400Y-156346000D03*
X160679400Y-153806000D03*
X160679400Y-128406000D03*
X160679400Y-130946000D03*
X163219400Y-128406000D03*
X163219400Y-130946000D03*
X165759400Y-128406000D03*
X165759400Y-130946000D03*
X168299400Y-128406000D03*
X168299400Y-130946000D03*
X170839400Y-128406000D03*
X170839400Y-130946000D03*
%TD*%
D31*
%TO.C,U7*%
X202290000Y-156170300D03*
X194670000Y-156170300D03*
X199750000Y-156170300D03*
X204830000Y-156170300D03*
D29*
X188310000Y-153880300D03*
X216310000Y-153880300D03*
%TD*%
D14*
%TO.C,R99*%
X108115000Y-135960000D03*
X109585000Y-135960000D03*
%TD*%
D10*
%TO.C,R52*%
X153143400Y-136186000D03*
X154673400Y-136186000D03*
%TD*%
D18*
%TO.C,J13*%
X171400000Y-75414200D03*
D19*
X168900000Y-75414200D03*
X166400000Y-75414200D03*
X163900000Y-75414200D03*
X161400000Y-75414200D03*
%TD*%
D18*
%TO.C,J8*%
X144451100Y-96307700D03*
D19*
X141951100Y-96307700D03*
X139451100Y-96307700D03*
%TD*%
D32*
%TO.C,D18*%
X218876100Y-104350000D03*
X220976100Y-104350000D03*
%TD*%
%TO.C,D12*%
X93554300Y-100950000D03*
X95654300Y-100950000D03*
%TD*%
D15*
%TO.C,D5*%
X215905000Y-104370000D03*
X217149600Y-104370000D03*
%TD*%
D18*
%TO.C,J7*%
X122501100Y-96307700D03*
D19*
X120001100Y-96307700D03*
X117501100Y-96307700D03*
%TD*%
D32*
%TO.C,D14*%
X115278500Y-100950000D03*
X117378500Y-100950000D03*
%TD*%
D18*
%TO.C,J5*%
X78525000Y-96307700D03*
D19*
X76025000Y-96307700D03*
X73525000Y-96307700D03*
%TD*%
D32*
%TO.C,D19*%
X182878500Y-100950000D03*
X184978500Y-100950000D03*
%TD*%
D33*
%TO.C,J11*%
X212581100Y-98627700D03*
D34*
X212581100Y-96087700D03*
X215121100Y-98627700D03*
X215121100Y-96087700D03*
X217661100Y-98627700D03*
X217661100Y-96087700D03*
X220201100Y-98627700D03*
X220201100Y-96087700D03*
%TD*%
D10*
%TO.C,R87*%
X149951100Y-115850000D03*
X151481100Y-115850000D03*
%TD*%
D16*
%TO.C,Q16*%
X137358600Y-108400000D03*
X137358600Y-110300000D03*
X139868600Y-109350000D03*
%TD*%
%TO.C,Q15*%
X149648600Y-108400000D03*
X149648600Y-110300000D03*
X152158600Y-109350000D03*
%TD*%
D10*
%TO.C,R86*%
X149951100Y-113134600D03*
X151481100Y-113134600D03*
%TD*%
%TO.C,R64*%
X143608600Y-113150000D03*
X145138600Y-113150000D03*
%TD*%
D14*
%TO.C,R18*%
X137691100Y-105650000D03*
X139161100Y-105650000D03*
%TD*%
D10*
%TO.C,R88*%
X137661100Y-113150000D03*
X139191100Y-113150000D03*
%TD*%
%TO.C,R89*%
X137661100Y-115850000D03*
X139191100Y-115850000D03*
%TD*%
D16*
%TO.C,Q4*%
X143306100Y-108400000D03*
X143306100Y-110300000D03*
X145816100Y-109350000D03*
%TD*%
D10*
%TO.C,R6*%
X143608600Y-105671000D03*
X145138600Y-105671000D03*
%TD*%
D14*
%TO.C,R17*%
X149981100Y-105650000D03*
X151451100Y-105650000D03*
%TD*%
D10*
%TO.C,R66*%
X187728100Y-113320000D03*
X189258100Y-113320000D03*
%TD*%
%TO.C,R91*%
X181583100Y-115850000D03*
X183113100Y-115850000D03*
%TD*%
%TO.C,R92*%
X193873100Y-113320000D03*
X195403100Y-113320000D03*
%TD*%
%TO.C,R93*%
X193873100Y-115850000D03*
X195403100Y-115850000D03*
%TD*%
D16*
%TO.C,Q5*%
X187425600Y-108820000D03*
X187425600Y-110720000D03*
X189935600Y-109770000D03*
%TD*%
D10*
%TO.C,R90*%
X181583100Y-113320000D03*
X183113100Y-113320000D03*
%TD*%
%TO.C,R7*%
X187728100Y-106091000D03*
X189258100Y-106091000D03*
%TD*%
D14*
%TO.C,R20*%
X193903100Y-106070000D03*
X195373100Y-106070000D03*
%TD*%
D16*
%TO.C,Q18*%
X193570600Y-108820000D03*
X193570600Y-110720000D03*
X196080600Y-109770000D03*
%TD*%
D14*
%TO.C,R19*%
X181613100Y-106070000D03*
X183083100Y-106070000D03*
%TD*%
D16*
%TO.C,Q17*%
X181280600Y-108820000D03*
X181280600Y-110720000D03*
X183790600Y-109770000D03*
%TD*%
D10*
%TO.C,R78*%
X105647100Y-113150000D03*
X107177100Y-113150000D03*
%TD*%
%TO.C,R4*%
X99657000Y-105629000D03*
X101187000Y-105629000D03*
%TD*%
%TO.C,R81*%
X93713100Y-115850000D03*
X95243100Y-115850000D03*
%TD*%
D14*
%TO.C,R14*%
X93743100Y-105650000D03*
X95213100Y-105650000D03*
%TD*%
D16*
%TO.C,Q11*%
X105344600Y-108400000D03*
X105344600Y-110300000D03*
X107854600Y-109350000D03*
%TD*%
%TO.C,Q12*%
X93410600Y-108400000D03*
X93410600Y-110300000D03*
X95920600Y-109350000D03*
%TD*%
%TO.C,Q2*%
X99354500Y-108400000D03*
X99354500Y-110300000D03*
X101864500Y-109350000D03*
%TD*%
D10*
%TO.C,R80*%
X93713100Y-113150000D03*
X95243100Y-113150000D03*
%TD*%
%TO.C,R60*%
X99657000Y-113150000D03*
X101187000Y-113150000D03*
%TD*%
D14*
%TO.C,R13*%
X105677100Y-105650000D03*
X107147100Y-105650000D03*
%TD*%
D10*
%TO.C,R79*%
X105647100Y-115850000D03*
X107177100Y-115850000D03*
%TD*%
D16*
%TO.C,Q9*%
X83355000Y-108400000D03*
X83355000Y-110300000D03*
X85865000Y-109350000D03*
%TD*%
D10*
%TO.C,R74*%
X83657500Y-113150000D03*
X85187500Y-113150000D03*
%TD*%
%TO.C,R77*%
X71735000Y-115850000D03*
X73265000Y-115850000D03*
%TD*%
D14*
%TO.C,R12*%
X83687500Y-105650000D03*
X85157500Y-105650000D03*
%TD*%
D23*
%TO.C,R3*%
X79161300Y-105600000D03*
X77631300Y-105600000D03*
%TD*%
D10*
%TO.C,R76*%
X71735000Y-113150000D03*
X73265000Y-113150000D03*
%TD*%
D16*
%TO.C,Q1*%
X77328800Y-108379000D03*
X77328800Y-110279000D03*
X79838800Y-109329000D03*
%TD*%
D10*
%TO.C,R58*%
X77631300Y-113150000D03*
X79161300Y-113150000D03*
%TD*%
D16*
%TO.C,Q10*%
X71432500Y-108379000D03*
X71432500Y-110279000D03*
X73942500Y-109329000D03*
%TD*%
D10*
%TO.C,R75*%
X83657500Y-115850000D03*
X85187500Y-115850000D03*
%TD*%
D14*
%TO.C,R11*%
X71765000Y-105650000D03*
X73235000Y-105650000D03*
%TD*%
D10*
%TO.C,R94*%
X159611100Y-113134600D03*
X161141100Y-113134600D03*
%TD*%
%TO.C,R96*%
X171901100Y-113134600D03*
X173431100Y-113134600D03*
%TD*%
%TO.C,R8*%
X165756100Y-105784600D03*
X167286100Y-105784600D03*
%TD*%
D16*
%TO.C,Q19*%
X159308600Y-108400000D03*
X159308600Y-110300000D03*
X161818600Y-109350000D03*
%TD*%
D14*
%TO.C,R21*%
X159641100Y-105650000D03*
X161111100Y-105650000D03*
%TD*%
D16*
%TO.C,Q20*%
X171598600Y-108400000D03*
X171598600Y-110300000D03*
X174108600Y-109350000D03*
%TD*%
D10*
%TO.C,R95*%
X159611100Y-115850000D03*
X161141100Y-115850000D03*
%TD*%
D16*
%TO.C,Q6*%
X165453600Y-108400000D03*
X165453600Y-110300000D03*
X167963600Y-109350000D03*
%TD*%
D10*
%TO.C,R97*%
X171901100Y-115850000D03*
X173431100Y-115850000D03*
%TD*%
%TO.C,R68*%
X165756100Y-113134600D03*
X167286100Y-113134600D03*
%TD*%
D14*
%TO.C,R22*%
X171931100Y-105650000D03*
X173401100Y-105650000D03*
%TD*%
D16*
%TO.C,Q14*%
X115408600Y-108400000D03*
X115408600Y-110300000D03*
X117918600Y-109350000D03*
%TD*%
D10*
%TO.C,R62*%
X121866100Y-113150000D03*
X123396100Y-113150000D03*
%TD*%
D23*
%TO.C,R46*%
X134371100Y-115850000D03*
X132841100Y-115850000D03*
%TD*%
D10*
%TO.C,R83*%
X128021100Y-115850000D03*
X129551100Y-115850000D03*
%TD*%
D16*
%TO.C,Q3*%
X121563600Y-108400000D03*
X121563600Y-110300000D03*
X124073600Y-109350000D03*
%TD*%
D10*
%TO.C,R82*%
X128021100Y-113150000D03*
X129551100Y-113150000D03*
%TD*%
D16*
%TO.C,Q13*%
X127718600Y-108400000D03*
X127718600Y-110300000D03*
X130228600Y-109350000D03*
%TD*%
D10*
%TO.C,R5*%
X121866100Y-105671000D03*
X123396100Y-105671000D03*
%TD*%
D14*
%TO.C,R16*%
X115741100Y-105650000D03*
X117211100Y-105650000D03*
%TD*%
%TO.C,R15*%
X128051100Y-105650000D03*
X129521100Y-105650000D03*
%TD*%
D10*
%TO.C,R84*%
X115711100Y-113150000D03*
X117241100Y-113150000D03*
%TD*%
%TO.C,R85*%
X115711100Y-115850000D03*
X117241100Y-115850000D03*
%TD*%
D32*
%TO.C,D15*%
X144076100Y-100950000D03*
X146176100Y-100950000D03*
%TD*%
D15*
%TO.C,D4*%
X141105000Y-100950000D03*
X142349600Y-100950000D03*
%TD*%
D32*
%TO.C,D9*%
X78373800Y-100950000D03*
X80473800Y-100950000D03*
%TD*%
D15*
%TO.C,D2*%
X97380800Y-100950000D03*
X98625400Y-100950000D03*
%TD*%
D32*
%TO.C,D10*%
X71576200Y-100950000D03*
X73676200Y-100950000D03*
%TD*%
D18*
%TO.C,J6*%
X100503100Y-96307700D03*
D19*
X98003100Y-96307700D03*
X95503100Y-96307700D03*
%TD*%
D32*
%TO.C,D17*%
X212078500Y-104350000D03*
X214178500Y-104350000D03*
%TD*%
%TO.C,D13*%
X122076100Y-100950000D03*
X124176100Y-100950000D03*
%TD*%
%TO.C,D16*%
X137278500Y-100950000D03*
X139378500Y-100950000D03*
%TD*%
D15*
%TO.C,D6*%
X186705000Y-100950000D03*
X187949600Y-100950000D03*
%TD*%
D32*
%TO.C,D11*%
X100351900Y-100950000D03*
X102451900Y-100950000D03*
%TD*%
D15*
%TO.C,D3*%
X119105000Y-100950000D03*
X120349600Y-100950000D03*
%TD*%
%TO.C,D1*%
X75402700Y-100950000D03*
X76647300Y-100950000D03*
%TD*%
D32*
%TO.C,D20*%
X189676100Y-100950000D03*
X191776100Y-100950000D03*
%TD*%
D18*
%TO.C,J10*%
X190873100Y-96307700D03*
D19*
X188373100Y-96307700D03*
X185873100Y-96307700D03*
X183373100Y-96307700D03*
%TD*%
D18*
%TO.C,J9*%
X166401100Y-96307700D03*
D19*
X163901100Y-96307700D03*
X161401100Y-96307700D03*
%TD*%
D21*
%TO.C,U11*%
X127154233Y-132440279D03*
X129694233Y-132440279D03*
X132234233Y-132440279D03*
X134774233Y-132440279D03*
D35*
X120654233Y-132415279D03*
X141354233Y-132415279D03*
X120654233Y-155615279D03*
X141354233Y-155615279D03*
%TD*%
M02*
