M48
; DRILL file {KiCad 9.0.6} date 2026-04-19T00:43:21-0700
; FORMAT={-:-/ absolute / inch / decimal}
; #@! TF.CreationDate,2026-04-19T00:43:21-07:00
; #@! TF.GenerationSoftware,Kicad,Pcbnew,9.0.6
; #@! TF.FileFunction,Plated,1,2,PTH
FMAT,2
INCH
; #@! TA.AperFunction,Plated,PTH,ViaDrill
T1C0.0118
; #@! TA.AperFunction,Plated,PTH,ComponentDrill
T2C0.0315
; #@! TA.AperFunction,Plated,PTH,ComponentDrill
T3C0.0374
; #@! TA.AperFunction,Plated,PTH,ComponentDrill
T4C0.0394
; #@! TA.AperFunction,Plated,PTH,ComponentDrill
T5C0.0402
; #@! TA.AperFunction,Plated,PTH,ComponentDrill
T6C0.0433
; #@! TA.AperFunction,Plated,PTH,ComponentDrill
T7C0.0866
; #@! TA.AperFunction,Plated,PTH,ComponentDrill
T8C0.0984
; #@! TA.AperFunction,Plated,PTH,ComponentDrill
T9C0.1260
%
G90
G05
T1
X2.7539Y-3.937
X2.9081Y-4.8321
X2.9381Y-4.7844
X2.9464Y-4.6109
X2.9685Y-4.4173
X2.9866Y-4.5256
X3.0827Y-5.061
X3.1221Y-5.2107
X3.1305Y-4.2346
X3.1358Y-4.5079
X3.1594Y-4.3937
X3.1758Y-4.7586
X3.176Y-4.0228
X3.1787Y-4.913
X3.185Y-4.5031
X3.1881Y-4.881
X3.1922Y-5.2895
X3.1927Y-4.9725
X3.2056Y-5.0166
X3.2216Y-4.5127
X3.2245Y-4.6076
X3.2303Y-5.9291
X3.2304Y-3.9819
X3.2733Y-5.0579
X3.2815Y-5.2736
X3.3329Y-4.7901
X3.3331Y-4.9661
X3.3504Y-4.7517
X3.3535Y-4.7201
X3.3756Y-4.8487
X3.4073Y-5.1067
X3.4114Y-4.5591
X3.4879Y-4.8579
X3.5709Y-4.7933
X3.5732Y-4.8816
X3.5982Y-5.7169
X3.6142Y-5.0417
X3.6407Y-4.9404
X3.6527Y-4.7562
X3.6798Y-4.0576
X3.6897Y-4.6409
X3.695Y-5.177
X3.7001Y-4.3081
X3.7264Y-3.9134
X3.7309Y-4.2182
X3.7524Y-4.0597
X3.7657Y-5.0098
X3.7703Y-4.7248
X3.7945Y-4.7854
X3.8021Y-5.0956
X3.8021Y-5.1513
X3.8036Y-4.9048
X3.8087Y-4.6409
X3.821Y-4.7391
X3.8213Y-4.9552
X3.8563Y-3.8812
X3.881Y-4.0597
X3.9288Y-4.3052
X3.9566Y-4.3529
X3.9701Y-4.0561
X3.9946Y-4.9635
X4.0312Y-4.8667
X4.0471Y-5.0057
X4.063Y-4.5217
X4.0642Y-4.2652
X4.0678Y-4.6241
X4.0709Y-5.0531
X4.1088Y-4.596
X4.139Y-5.0579
X4.2462Y-4.7586
X4.2527Y-4.9806
X4.2815Y-4.5531
X4.2992Y-6.1174
X4.3039Y-4.7082
X4.3209Y-3.9449
X4.332Y-5.8047
X4.3536Y-4.8579
X4.3567Y-5.1126
X4.3589Y-5.8625
X4.3611Y-5.1805
X4.3902Y-5.1183
X4.3902Y-5.7326
X4.3993Y-4.7413
X4.4138Y-4.8623
X4.4176Y-4.9052
X4.425Y-5.3533
X4.4259Y-5.251
X4.4401Y-4.7206
X4.4517Y-5.0515
X4.492Y-4.5256
X4.5036Y-4.0597
X4.5059Y-4.935
X4.5059Y-5.0138
X4.6002Y-5.4616
X4.6127Y-5.2402
X4.6199Y-5.6904
X4.6406Y-5.2245
X4.6478Y-4.7498
X4.6535Y-4.0597
X4.6535Y-4.2639
X4.6576Y-5.447
X4.6654Y-4.3996
X4.6898Y-5.4983
X4.6999Y-5.4424
X4.7361Y-3.1278
X4.7421Y-4.5059
X4.7707Y-4.6668
X4.7895Y-4.3051
X4.8071Y-4.0597
X4.8226Y-4.3181
X4.8394Y-5.3272
X4.8431Y-5.0779
X4.8524Y-5.5076
X4.8635Y-4.8621
X4.9488Y-4.3051
X4.9687Y-5.4653
X4.9705Y-4.8858
X4.9737Y-5.346
X4.9744Y-3.9862
X4.9862Y-4.5098
X5.0563Y-5.2266
X5.073Y-5.0295
X5.0954Y-4.8907
X5.1408Y-5.0118
X5.1594Y-4.4429
X5.1654Y-4.563
X5.1673Y-4.1752
X5.1693Y-4.0669
X5.1693Y-5.3484
X5.1749Y-5.1213
X5.1756Y-5.0003
X5.2012Y-6.0398
X5.227Y-5.1097
X5.2362Y-5.0717
X5.2492Y-3.8744
X5.2756Y-5.331
X5.2808Y-5.0609
X5.3543Y-3.9311
X5.4003Y-4.3067
X5.4014Y-4.0262
X5.4035Y-4.3957
X5.417Y-4.207
X5.4338Y-4.0576
X5.4338Y-5.9234
X5.4587Y-4.2441
X5.5468Y-3.8367
X5.5501Y-5.7936
X5.5709Y-5.3169
X5.5709Y-5.4173
X5.6358Y-4.3948
X5.6358Y-5.4258
X5.653Y-4.0291
X5.6551Y-4.2129
X5.6664Y-5.9234
X5.6703Y-3.907
X5.6963Y-4.2076
X5.7047Y-4.9469
X5.7119Y-4.0597
X5.7402Y-4.5079
X5.7429Y-4.2639
X5.7826Y-3.6796
X5.8132Y-4.5995
X5.8287Y-4.374
X5.8484Y-4.9428
X5.8484Y-5.0471
X5.8989Y-3.3608
X5.8989Y-3.8267
X5.9029Y-4.7823
X5.9068Y-5.8106
X5.9068Y-5.8992
X5.9098Y-5.1514
X5.9098Y-5.2577
X5.9113Y-4.9951
X5.9357Y-3.8546
X5.9409Y-5.0155
X5.9646Y-5.315
X5.985Y-4.9365
X5.9856Y-3.9728
X6.0152Y-3.7102
X6.0304Y-4.9428
X6.0413Y-4.2126
X6.0551Y-5.3031
X6.0591Y-4.5256
X6.0594Y-4.8914
X6.0774Y-4.618
X6.0787Y-3.9705
X6.0844Y-5.6865
X6.0957Y-4.0597
X6.1108Y-4.8853
X6.1296Y-5.7959
X6.1476Y-5.3484
X6.1572Y-4.5103
X6.1717Y-5.476
X6.1752Y-3.939
X6.1811Y-4.624
X6.2282Y-4.5257
X6.2477Y-4.0597
X6.2559Y-4.626
X6.2563Y-4.7183
X6.2755Y-4.3084
X6.2817Y-5.3525
X6.2867Y-4.6435
X6.3071Y-3.7047
X6.3248Y-4.2559
X6.3529Y-4.6494
X6.3641Y-4.7951
X6.4272Y-4.5039
X6.4272Y-4.6043
X6.4508Y-4.6893
X6.4567Y-4.7271
X6.4803Y-6.0398
X6.4862Y-4.4094
X6.5563Y-4.7183
X6.5861Y-4.561
X6.5965Y-4.6496
X6.5976Y-4.7303
X6.6142Y-4.3937
X6.6169Y-4.7722
X6.6216Y-4.9644
X6.6288Y-4.5588
X6.6861Y-4.3284
X6.7019Y-4.7679
X6.7092Y-4.2659
X6.7128Y-3.8267
X6.7137Y-4.3119
X6.7185Y-4.5059
X6.7283Y-4.6654
X6.7334Y-4.0325
X6.7408Y-4.0649
X6.7901Y-5.4943
X6.8295Y-3.8156
X6.8543Y-4.252
X6.8799Y-4.5197
X7.0301Y-5.3542
X7.0301Y-5.4569
X7.0389Y-4.6421
X7.0771Y-4.9054
X7.0999Y-4.5256
X7.1132Y-5.1028
X7.1161Y-4.2185
X7.1779Y-4.6115
X7.2292Y-4.2463
X7.2942Y-4.6421
X7.3012Y-4.3209
X7.4213Y-4.3209
X7.5394Y-4.5453
X7.5492Y-4.313
X7.6161Y-4.6457
X7.643Y-2.8556
X7.7579Y-4.0118
X7.7579Y-4.5315
X7.7756Y-3.248
X7.7894Y-4.3287
X7.8674Y-5.6986
X7.8756Y-4.2619
X7.8767Y-4.1773
X7.9595Y-4.4443
X7.9655Y-4.2798
X7.9919Y-4.4147
X8.0728Y-4.4232
X8.3051Y-2.6693
X8.3071Y-2.7854
X8.457Y-4.4091
X8.5177Y-3.9803
X8.5217Y-4.2657
X8.5512Y-2.6732
X8.5512Y-2.752
T2
X3.8594Y-5.2528
X3.8594Y-5.3528
X3.8594Y-5.4528
X3.8594Y-5.6547
X3.8594Y-5.7547
X3.8594Y-5.8547
X3.8594Y-5.9547
X3.8594Y-6.0547
X3.8594Y-6.1567
X3.861Y-5.5508
X4.1594Y-5.2528
X4.1594Y-5.3528
X4.1594Y-5.4528
X4.1594Y-5.5528
X4.1594Y-5.6547
X4.1594Y-5.7547
X4.1594Y-5.8547
X4.1594Y-5.9547
X4.1594Y-6.0547
X4.1594Y-6.1567
X5.0063Y-5.2136
X5.1063Y-5.2136
X5.2063Y-5.2136
X5.3063Y-5.2136
T3
X2.8907Y-2.9695
X2.8947Y-3.7916
X2.9892Y-2.9695
X2.9931Y-3.7916
X3.0876Y-2.9695
X3.0915Y-3.7916
X3.756Y-2.9691
X3.76Y-3.7916
X3.8545Y-2.9691
X3.8584Y-3.7916
X3.9529Y-2.9691
X3.9568Y-3.7916
X4.6221Y-2.9691
X4.626Y-3.7916
X4.7205Y-2.9691
X4.7245Y-3.7916
X4.8189Y-2.9691
X4.8229Y-3.7916
X5.4902Y-3.7916
X5.5886Y-3.7916
X5.6871Y-3.7916
X6.3543Y-2.9691
X6.3544Y-3.7916
X6.4528Y-2.9691
X6.4528Y-3.7916
X6.5512Y-2.9691
X6.5512Y-3.7916
X6.6496Y-2.9691
X6.748Y-2.9691
X7.2194Y-3.7916
X7.3178Y-3.7916
X7.4163Y-3.7916
X7.4163Y-2.9692
X7.5147Y-3.7916
X7.5148Y-2.9692
X7.6132Y-2.9692
X7.7116Y-2.9692
X7.81Y-2.9692
T4
X2.8752Y-6.1083
X2.9752Y-6.1083
X3.0752Y-6.1083
X3.1752Y-6.1083
X8.3693Y-3.783
X8.3693Y-3.883
X8.4693Y-3.783
X8.4693Y-3.883
X8.5693Y-3.783
X8.5693Y-3.883
X8.6693Y-3.783
X8.6693Y-3.883
T5
X7.6642Y-6.1484
X7.8642Y-6.1484
X7.9642Y-6.1484
X8.0642Y-6.1484
T6
X6.226Y-4.8554
X6.226Y-4.9554
X6.226Y-5.0554
X6.226Y-5.1554
X6.226Y-5.2554
X6.226Y-5.3554
X6.226Y-5.4554
X6.226Y-5.5554
X6.226Y-5.6554
X6.226Y-5.7554
X6.226Y-5.8554
X6.226Y-5.9554
X6.226Y-6.0554
X6.226Y-6.1554
X6.326Y-4.8554
X6.326Y-5.0554
X6.326Y-5.1554
X6.326Y-6.0554
X6.426Y-4.8554
X6.426Y-5.0554
X6.426Y-5.1554
X6.526Y-4.8554
X6.526Y-5.0554
X6.526Y-5.1554
X6.626Y-4.8554
X6.626Y-5.0554
X6.626Y-5.1554
X6.726Y-4.8554
X6.726Y-5.0554
X6.726Y-5.1554
X6.826Y-4.8554
X6.826Y-4.9554
X6.826Y-5.0554
X6.826Y-5.1554
X6.826Y-5.2554
X6.826Y-5.3554
X6.826Y-5.4554
X6.826Y-5.5554
X6.826Y-5.6554
X6.826Y-5.7554
X6.826Y-5.8554
X6.826Y-5.9554
X6.826Y-6.0554
X6.826Y-6.1554
T7
X4.7504Y-5.2126
X4.7504Y-6.126
X5.5654Y-5.2126
X5.5654Y-6.126
T8
X2.8752Y-5.4083
X3.5752Y-5.4083
X7.4138Y-6.0583
X8.5161Y-6.0583
T9
X2.4823Y-2.5
X2.4823Y-5.8917
X8.8504Y-2.5
X8.8504Y-5.8917
M30
