%TF.GenerationSoftware,KiCad,Pcbnew,9.0.6*%
%TF.CreationDate,2026-06-19T19:01:57-07:00*%
%TF.ProjectId,MainRobotBoardTeensy,4d61696e-526f-4626-9f74-426f61726454,rev?*%
%TF.SameCoordinates,Original*%
%TF.FileFunction,Legend,Bot*%
%TF.FilePolarity,Positive*%
%FSLAX46Y46*%
G04 Gerber Fmt 4.6, Leading zero omitted, Abs format (unit mm)*
G04 Created by KiCad (PCBNEW 9.0.6) date 2026-06-19 19:01:57*
%MOMM*%
%LPD*%
G01*
G04 APERTURE LIST*
G04 Aperture macros list*
%AMRoundRect*
0 Rectangle with rounded corners*
0 $1 Rounding radius*
0 $2 $3 $4 $5 $6 $7 $8 $9 X,Y pos of 4 corners*
0 Add a 4 corners polygon primitive as box body*
4,1,4,$2,$3,$4,$5,$6,$7,$8,$9,$2,$3,0*
0 Add four circle primitives for the rounded corners*
1,1,$1+$1,$2,$3*
1,1,$1+$1,$4,$5*
1,1,$1+$1,$6,$7*
1,1,$1+$1,$8,$9*
0 Add four rect primitives between the rounded corners*
20,1,$1+$1,$2,$3,$4,$5,0*
20,1,$1+$1,$4,$5,$6,$7,0*
20,1,$1+$1,$6,$7,$8,$9,0*
20,1,$1+$1,$8,$9,$2,$3,0*%
G04 Aperture macros list end*
%ADD10C,1.700000*%
%ADD11RoundRect,0.250000X0.600000X-0.600000X0.600000X0.600000X-0.600000X0.600000X-0.600000X-0.600000X0*%
%ADD12C,1.701600*%
%ADD13C,3.101600*%
%ADD14C,5.700000*%
%ADD15RoundRect,0.250000X0.600000X0.725000X-0.600000X0.725000X-0.600000X-0.725000X0.600000X-0.725000X0*%
%ADD16O,1.700000X1.950000*%
%ADD17RoundRect,0.250000X0.600000X0.550000X-0.600000X0.550000X-0.600000X-0.550000X0.600000X-0.550000X0*%
%ADD18C,1.600000*%
%ADD19R,1.600000X1.600000*%
%ADD20R,1.300000X1.300000*%
%ADD21C,1.300000*%
%ADD22RoundRect,0.250000X-1.050000X-1.050000X1.050000X-1.050000X1.050000X1.050000X-1.050000X1.050000X0*%
%ADD23C,2.600000*%
%ADD24C,1.905000*%
%ADD25C,3.301600*%
G04 APERTURE END LIST*
%LPC*%
D10*
%TO.C,J11*%
X83450000Y-110460000D03*
X83450000Y-113000000D03*
X80910000Y-110460000D03*
X80910000Y-113000000D03*
X78370000Y-110460000D03*
X78370000Y-113000000D03*
X75830000Y-110460000D03*
D11*
X75830000Y-113000000D03*
%TD*%
D12*
%TO.C,U11*%
X81200000Y-131950000D03*
X83740000Y-131950000D03*
X86280000Y-131950000D03*
X88820000Y-131950000D03*
D13*
X74700000Y-131925000D03*
X95400000Y-131925000D03*
X74700000Y-155125000D03*
X95400000Y-155125000D03*
%TD*%
D14*
%TO.C,MH1*%
X63050000Y-63500000D03*
%TD*%
%TO.C,MH4*%
X224800000Y-149650000D03*
%TD*%
D15*
%TO.C,J8*%
X188398000Y-74475000D03*
D16*
X185898000Y-74475000D03*
X183398000Y-74475000D03*
%TD*%
D12*
%TO.C,U10*%
X216160000Y-155905000D03*
X216160000Y-153365000D03*
X216160000Y-150825000D03*
X216120000Y-148335000D03*
X216160000Y-145695000D03*
X216160000Y-143155000D03*
X216160000Y-140615000D03*
X216160000Y-138075000D03*
X216160000Y-135535000D03*
X216160000Y-132945000D03*
X208540000Y-155905000D03*
X208540000Y-153365000D03*
X208540000Y-150825000D03*
X208540000Y-148285000D03*
X208540000Y-145695000D03*
X208540000Y-143155000D03*
X208540000Y-140615000D03*
X208540000Y-138075000D03*
X208540000Y-135535000D03*
X208540000Y-132945000D03*
%TD*%
D15*
%TO.C,J6*%
X144450000Y-74475000D03*
D16*
X141950000Y-74475000D03*
X139450000Y-74475000D03*
%TD*%
D12*
%TO.C,U8*%
X111287500Y-131950000D03*
X113827500Y-131950000D03*
X116367500Y-131950000D03*
X118907500Y-131950000D03*
D13*
X104787500Y-131925000D03*
X125487500Y-131925000D03*
X104787500Y-155125000D03*
X125487500Y-155125000D03*
%TD*%
D15*
%TO.C,J7*%
X166448000Y-74475000D03*
D16*
X163948000Y-74475000D03*
X161448000Y-74475000D03*
%TD*%
D15*
%TO.C,J3*%
X101190700Y-75425400D03*
D16*
X98690700Y-75425400D03*
X96190700Y-75425400D03*
%TD*%
D15*
%TO.C,J5*%
X122471900Y-74475000D03*
D16*
X119971900Y-74475000D03*
X117471900Y-74475000D03*
%TD*%
D15*
%TO.C,J2*%
X78425000Y-75425400D03*
D16*
X75925000Y-75425400D03*
X73425000Y-75425400D03*
%TD*%
D17*
%TO.C,U1*%
X229625000Y-105730000D03*
D10*
X227085000Y-105730000D03*
X224545000Y-105730000D03*
X222005000Y-105730000D03*
X219465000Y-105730000D03*
X216925000Y-105730000D03*
X214385000Y-105730000D03*
X211845000Y-105730000D03*
X209305000Y-105730000D03*
X206765000Y-105730000D03*
X204225000Y-105730000D03*
X201685000Y-105730000D03*
X199145000Y-105730000D03*
X196605000Y-105730000D03*
X194065000Y-105730000D03*
X191525000Y-105730000D03*
X188985000Y-105730000D03*
X186445000Y-105730000D03*
X183905000Y-105730000D03*
X181365000Y-105730000D03*
X178825000Y-105730000D03*
X176285000Y-105730000D03*
X173745000Y-105730000D03*
X171205000Y-105730000D03*
X171205000Y-120970000D03*
X173745000Y-120970000D03*
X176285000Y-120970000D03*
X178825000Y-120970000D03*
X181365000Y-120970000D03*
X183905000Y-120970000D03*
X186445000Y-120970000D03*
X188985000Y-120970000D03*
X191525000Y-120970000D03*
X194065000Y-120970000D03*
X196605000Y-120970000D03*
X199145000Y-120970000D03*
X201685000Y-120970000D03*
X204225000Y-120970000D03*
X206765000Y-120970000D03*
X209305000Y-120970000D03*
X211845000Y-120970000D03*
X214385000Y-120970000D03*
X216925000Y-120970000D03*
X219465000Y-120970000D03*
X222005000Y-120970000D03*
X224545000Y-120970000D03*
X227085000Y-120970000D03*
X229625000Y-120970000D03*
D18*
X227085000Y-118430000D03*
D10*
X183905000Y-108270000D03*
X183905000Y-110810000D03*
X183905000Y-113350000D03*
X183905000Y-115890000D03*
X183905000Y-118430000D03*
D19*
X223325800Y-108780800D03*
D18*
X220785800Y-108780800D03*
X218245800Y-108780800D03*
X215705800Y-108780800D03*
X213165800Y-108780800D03*
D20*
X216655000Y-118531600D03*
D21*
X216655000Y-116531600D03*
X216655000Y-114531600D03*
X214655000Y-114531600D03*
X214655000Y-116531600D03*
X214655000Y-118531600D03*
X228895000Y-114620000D03*
X228895000Y-112080000D03*
%TD*%
D15*
%TO.C,J10*%
X103690700Y-94857700D03*
D16*
X101190700Y-94857700D03*
X98690700Y-94857700D03*
X96190700Y-94857700D03*
%TD*%
D15*
%TO.C,J9*%
X78425000Y-94857700D03*
D16*
X75925000Y-94857700D03*
X73425000Y-94857700D03*
%TD*%
D14*
%TO.C,MH2*%
X224800000Y-63500000D03*
%TD*%
D22*
%TO.C,J1*%
X182770000Y-149900000D03*
D23*
X187850000Y-149900000D03*
%TD*%
D14*
%TO.C,MH3*%
X63050000Y-149650000D03*
%TD*%
D24*
%TO.C,U7*%
X149580000Y-155680000D03*
X141960000Y-155680000D03*
X147040000Y-155680000D03*
X152120000Y-155680000D03*
D25*
X135600000Y-153390000D03*
X163600000Y-153390000D03*
%TD*%
%LPD*%
M02*
