%TF.GenerationSoftware,KiCad,Pcbnew,9.0.6*%
%TF.CreationDate,2026-04-29T18:15:55-07:00*%
%TF.ProjectId,MainRobotBoardTeensy,4d61696e-526f-4626-9f74-426f61726454,rev?*%
%TF.SameCoordinates,Original*%
%TF.FileFunction,Soldermask,Bot*%
%TF.FilePolarity,Negative*%
%FSLAX46Y46*%
G04 Gerber Fmt 4.6, Leading zero omitted, Abs format (unit mm)*
G04 Created by KiCad (PCBNEW 9.0.6) date 2026-04-29 18:15:55*
%MOMM*%
%LPD*%
G01*
G04 APERTURE LIST*
G04 Aperture macros list*
%AMRoundRect*
0 Rectangle with rounded corners*
0 $1 Rounding radius*
0 $2 $3 $4 $5 $6 $7 $8 $9 X,Y pos of 4 corners*
0 Add a 4 corners polygon primitive as box body*
4,1,4,$2,$3,$4,$5,$6,$7,$8,$9,$2,$3,0*
0 Add four circle primitives for the rounded corners*
1,1,$1+$1,$2,$3*
1,1,$1+$1,$4,$5*
1,1,$1+$1,$6,$7*
1,1,$1+$1,$8,$9*
0 Add four rect primitives between the rounded corners*
20,1,$1+$1,$2,$3,$4,$5,0*
20,1,$1+$1,$4,$5,$6,$7,0*
20,1,$1+$1,$6,$7,$8,$9,0*
20,1,$1+$1,$8,$9,$2,$3,0*%
G04 Aperture macros list end*
%ADD10C,5.700000*%
%ADD11RoundRect,0.250000X0.600000X0.725000X-0.600000X0.725000X-0.600000X-0.725000X0.600000X-0.725000X0*%
%ADD12O,1.700000X1.950000*%
%ADD13C,1.701600*%
%ADD14C,1.879600*%
%ADD15C,3.301600*%
%ADD16C,1.600000*%
%ADD17C,1.905000*%
%ADD18RoundRect,0.250000X0.600000X-0.600000X0.600000X0.600000X-0.600000X0.600000X-0.600000X-0.600000X0*%
%ADD19C,1.700000*%
%ADD20C,3.101600*%
G04 APERTURE END LIST*
D10*
%TO.C,MH1*%
X63050000Y-63500000D03*
%TD*%
%TO.C,MH4*%
X224800000Y-149650000D03*
%TD*%
D11*
%TO.C,J4*%
X122401100Y-75414200D03*
D12*
X119901100Y-75414200D03*
X117401100Y-75414200D03*
%TD*%
D13*
%TO.C,U10*%
X98030000Y-133420000D03*
X98030000Y-135960000D03*
X98030000Y-138500000D03*
X98070000Y-140990000D03*
X98030000Y-143630000D03*
X98030000Y-146170000D03*
X98030000Y-148710000D03*
X98030000Y-151250000D03*
X98030000Y-153790000D03*
X98030000Y-156380000D03*
X105650000Y-133420000D03*
X105650000Y-135960000D03*
X105650000Y-138500000D03*
X105650000Y-141040000D03*
X105650000Y-143630000D03*
X105650000Y-146170000D03*
X105650000Y-148710000D03*
X105650000Y-151250000D03*
X105650000Y-153790000D03*
X105650000Y-156380000D03*
%TD*%
D11*
%TO.C,J3*%
X100403100Y-75414200D03*
D12*
X97903100Y-75414200D03*
X95403100Y-75414200D03*
%TD*%
D11*
%TO.C,J2*%
X78425000Y-75425400D03*
D12*
X75925000Y-75425400D03*
X73425000Y-75425400D03*
%TD*%
D10*
%TO.C,MH2*%
X224800000Y-63500000D03*
%TD*%
%TO.C,MH3*%
X63050000Y-149650000D03*
%TD*%
D14*
%TO.C,U5*%
X73030000Y-155150000D03*
X75570000Y-155150000D03*
X78110000Y-155150000D03*
X80650000Y-155150000D03*
D15*
X73030000Y-137370000D03*
X90810000Y-137370000D03*
%TD*%
D11*
%TO.C,J14*%
X198375000Y-75416500D03*
D12*
X195875000Y-75416500D03*
X193375000Y-75416500D03*
X190875000Y-75416500D03*
X188375000Y-75416500D03*
%TD*%
D16*
%TO.C,U1*%
X173379400Y-156346000D03*
X173379400Y-153806000D03*
X173379400Y-151266000D03*
X173379400Y-148726000D03*
X173379400Y-146186000D03*
X173379400Y-143646000D03*
X173379400Y-141106000D03*
X173379400Y-138566000D03*
X173379400Y-136026000D03*
X173379400Y-133486000D03*
X173379400Y-130946000D03*
X173379400Y-128406000D03*
X173379400Y-125866000D03*
X173379400Y-123326000D03*
X170839400Y-123326000D03*
X168299400Y-123326000D03*
X165759400Y-123326000D03*
X163219400Y-123326000D03*
X160679400Y-123326000D03*
X158139400Y-123326000D03*
X158139400Y-125866000D03*
X158139400Y-128406000D03*
X158139400Y-130946000D03*
X158139400Y-133486000D03*
X158139400Y-136026000D03*
X158139400Y-138566000D03*
X158139400Y-141106000D03*
X158139400Y-143646000D03*
X158139400Y-146186000D03*
X158139400Y-148726000D03*
X158139400Y-151266000D03*
X158139400Y-153806000D03*
X158139400Y-156346000D03*
X160679400Y-153806000D03*
X160679400Y-128406000D03*
X160679400Y-130946000D03*
X163219400Y-128406000D03*
X163219400Y-130946000D03*
X165759400Y-128406000D03*
X165759400Y-130946000D03*
X168299400Y-128406000D03*
X168299400Y-130946000D03*
X170839400Y-128406000D03*
X170839400Y-130946000D03*
%TD*%
D17*
%TO.C,U7*%
X202290000Y-156170300D03*
X194670000Y-156170300D03*
X199750000Y-156170300D03*
X204830000Y-156170300D03*
D15*
X188310000Y-153880300D03*
X216310000Y-153880300D03*
%TD*%
D11*
%TO.C,J13*%
X171400000Y-75414200D03*
D12*
X168900000Y-75414200D03*
X166400000Y-75414200D03*
X163900000Y-75414200D03*
X161400000Y-75414200D03*
%TD*%
D11*
%TO.C,J8*%
X144451100Y-96307700D03*
D12*
X141951100Y-96307700D03*
X139451100Y-96307700D03*
%TD*%
D11*
%TO.C,J7*%
X122501100Y-96307700D03*
D12*
X120001100Y-96307700D03*
X117501100Y-96307700D03*
%TD*%
D11*
%TO.C,J5*%
X78525000Y-96307700D03*
D12*
X76025000Y-96307700D03*
X73525000Y-96307700D03*
%TD*%
D18*
%TO.C,J11*%
X212581100Y-98627700D03*
D19*
X212581100Y-96087700D03*
X215121100Y-98627700D03*
X215121100Y-96087700D03*
X217661100Y-98627700D03*
X217661100Y-96087700D03*
X220201100Y-98627700D03*
X220201100Y-96087700D03*
%TD*%
D11*
%TO.C,J6*%
X100503100Y-96307700D03*
D12*
X98003100Y-96307700D03*
X95503100Y-96307700D03*
%TD*%
D11*
%TO.C,J10*%
X190873100Y-96307700D03*
D12*
X188373100Y-96307700D03*
X185873100Y-96307700D03*
X183373100Y-96307700D03*
%TD*%
D11*
%TO.C,J9*%
X166401100Y-96307700D03*
D12*
X163901100Y-96307700D03*
X161401100Y-96307700D03*
%TD*%
D13*
%TO.C,U11*%
X127154233Y-132440279D03*
X129694233Y-132440279D03*
X132234233Y-132440279D03*
X134774233Y-132440279D03*
D20*
X120654233Y-132415279D03*
X141354233Y-132415279D03*
X120654233Y-155615279D03*
X141354233Y-155615279D03*
%TD*%
M02*
