M48
; DRILL file {KiCad 9.0.6} date 2026-06-19T19:01:58-0700
; FORMAT={-:-/ absolute / inch / decimal}
; #@! TF.CreationDate,2026-06-19T19:01:58-07:00
; #@! TF.GenerationSoftware,Kicad,Pcbnew,9.0.6
; #@! TF.FileFunction,Plated,1,2,PTH
FMAT,2
INCH
; #@! TA.AperFunction,Plated,PTH,ViaDrill
T1C0.0118
; #@! TA.AperFunction,Plated,PTH,ComponentDrill
T2C0.0315
; #@! TA.AperFunction,Plated,PTH,ComponentDrill
T3C0.0374
; #@! TA.AperFunction,Plated,PTH,ComponentDrill
T4C0.0394
; #@! TA.AperFunction,Plated,PTH,ComponentDrill
T5C0.0402
; #@! TA.AperFunction,Plated,PTH,ComponentDrill
T6C0.0433
; #@! TA.AperFunction,Plated,PTH,ComponentDrill
T7C0.0512
; #@! TA.AperFunction,Plated,PTH,ComponentDrill
T8C0.0866
; #@! TA.AperFunction,Plated,PTH,ComponentDrill
T9C0.0984
; #@! TA.AperFunction,Plated,PTH,ComponentDrill
T10C0.1260
%
G90
G05
T1
X3.1658Y-5.2455
X3.2638Y-4.6024
X3.3408Y-5.3722
X3.5471Y-4.7915
X3.5709Y-4.7606
X3.6559Y-4.5919
X3.73Y-4.405
X3.7423Y-4.3557
X3.8248Y-4.6516
X3.8268Y-4.5512
X3.8346Y-5.3031
X3.8644Y-4.3347
X3.9034Y-3.8741
X3.9222Y-3.6244
X3.9222Y-4.518
X3.9222Y-5.3722
X3.968Y-4.3578
X4.0023Y-3.9641
X4.0886Y-4.185
X4.1024Y-4.6201
X4.1722Y-3.8997
X4.1856Y-3.6793
X4.1916Y-4.3368
X4.194Y-3.9585
X4.2461Y-4.0472
X4.2697Y-4.1929
X4.271Y-3.9731
X4.271Y-2.8462
X4.2921Y-4.2794
X4.3051Y-4.6535
X4.306Y-3.9478
X4.3661Y-4.4705
X4.3687Y-3.7454
X4.374Y-4.1831
X4.3751Y-3.8417
X4.3971Y-3.6997
X4.4018Y-4.6778
X4.4076Y-4.3351
X4.4271Y-4.0541
X4.4409Y-3.9547
X4.4606Y-4.0925
X4.4685Y-4.189
X4.4784Y-4.3589
X4.4821Y-4.5218
X4.49Y-4.0597
X4.4969Y-3.4572
X4.5036Y-5.2738
X4.5113Y-4.6881
X4.5233Y-2.9393
X4.5242Y-4.091
X4.538Y-4.5146
X4.5709Y-4.2244
X4.5709Y-4.3937
X4.5728Y-4.6161
X4.5984Y-3.2126
X4.6004Y-3.6614
X4.6189Y-4.6166
X4.6417Y-4.2008
X4.6733Y-2.8736
X4.6752Y-4.1457
X4.6909Y-3.872
X4.6909Y-4.0
X4.6999Y-3.3689
X4.7007Y-4.091
X4.7071Y-3.5626
X4.7139Y-3.2262
X4.7164Y-3.9021
X4.7165Y-4.685
X4.7215Y-3.3898
X4.7264Y-4.4651
X4.7361Y-3.8511
X4.7388Y-3.0301
X4.7622Y-3.1607
X4.8036Y-3.9665
X4.8099Y-3.9071
X4.8256Y-3.3133
X4.8371Y-4.2907
X4.8465Y-4.5472
X4.8524Y-2.84
X4.8524Y-4.6778
X4.8589Y-3.4926
X4.859Y-3.9858
X4.86Y-3.1692
X4.8868Y-3.3211
X4.8912Y-3.1619
X4.9602Y-3.674
X4.9695Y-4.4767
X4.9744Y-4.0256
X4.9746Y-3.817
X4.9783Y-3.5
X4.9909Y-3.9156
X4.9963Y-4.0685
X5.0091Y-4.3781
X5.0624Y-4.2556
X5.0788Y-4.4239
X5.126Y-4.6831
X5.1299Y-3.9508
X5.2361Y-4.6736
X5.2841Y-3.7102
X5.3028Y-4.4485
X5.311Y-3.5492
X5.3128Y-3.8225
X5.4016Y-3.6614
X5.4238Y-3.0135
X5.4314Y-3.3823
X5.4604Y-4.2796
X5.4632Y-3.1633
X5.4804Y-4.4986
X5.4899Y-4.4175
X5.5022Y-3.3196
X5.5154Y-3.1727
X5.5407Y-4.4813
X5.5472Y-3.3715
X5.5474Y-4.1145
X5.5498Y-4.642
X5.5501Y-2.7667
X5.5651Y-4.4208
X5.581Y-4.3767
X5.6226Y-3.5626
X5.6309Y-4.2912
X5.6471Y-3.9585
X5.6471Y-4.0585
X5.6566Y-4.2555
X5.6738Y-3.7027
X5.6758Y-3.3298
X5.6975Y-3.468
X5.7006Y-3.8493
X5.7049Y-3.2297
X5.7117Y-3.1633
X5.7323Y-4.0945
X5.7441Y-4.6122
X5.772Y-3.8097
X5.7738Y-3.227
X5.8283Y-3.4428
X5.8558Y-3.7153
X5.937Y-4.0709
X5.9488Y-4.5571
X6.1203Y-3.7102
X6.1428Y-4.6421
X6.1455Y-3.3262
X6.1639Y-4.6109
X6.1675Y-4.4884
X6.1745Y-4.4313
X6.2129Y-4.0566
X6.2183Y-3.1347
X6.24Y-5.4574
X6.2414Y-5.3423
X6.2445Y-5.3766
X6.2477Y-3.2182
X6.2477Y-4.0566
X6.2534Y-3.3707
X6.2641Y-5.0119
X6.2649Y-5.1864
X6.2703Y-5.3124
X6.2799Y-3.7041
X6.3115Y-4.227
X6.3243Y-3.7299
X6.3269Y-4.4208
X6.333Y-5.2063
X6.3386Y-3.3622
X6.343Y-4.4775
X6.3517Y-3.7622
X6.3557Y-4.8646
X6.3574Y-5.1488
X6.3581Y-5.2318
X6.3663Y-5.108
X6.3665Y-4.5986
X6.3907Y-3.2276
X6.3917Y-4.8248
X6.3946Y-4.495
X6.3946Y-4.6728
X6.3949Y-3.7809
X6.4514Y-3.4724
X6.4697Y-3.2276
X6.4718Y-4.2026
X6.4739Y-5.1576
X6.4828Y-3.1607
X6.4854Y-4.8801
X6.4885Y-3.3766
X6.5008Y-4.7749
X6.5026Y-4.1961
X6.5059Y-4.5374
X6.5059Y-4.8327
X6.5168Y-3.3521
X6.5266Y-3.1633
X6.566Y-4.4274
X6.6271Y-4.7323
X6.6522Y-3.372
X6.6614Y-4.3268
X6.696Y-4.4451
X6.6988Y-5.1535
X6.7128Y-3.872
X6.7128Y-3.1278
X6.7128Y-4.0182
X6.7245Y-3.3723
X6.805Y-4.2016
X6.8291Y-5.341
X6.8598Y-4.8504
X6.8602Y-3.3642
X6.8602Y-3.6516
X6.8644Y-4.9619
X6.9063Y-5.4773
X6.9154Y-3.8217
X6.9345Y-5.2261
X6.9454Y-5.5849
X6.9484Y-4.5256
X6.9609Y-3.909
X6.9648Y-5.5257
X6.9654Y-4.0303
X7.002Y-5.0315
X7.0157Y-3.8217
X7.0457Y-3.372
X7.0463Y-4.6579
X7.0524Y-3.1584
X7.0584Y-3.108
X7.0591Y-3.9213
X7.0617Y-5.2325
X7.0767Y-3.3944
X7.0769Y-4.9523
X7.1008Y-4.8614
X7.1319Y-4.9094
X7.1633Y-4.3303
X7.1752Y-3.3701
X7.2545Y-3.1633
X7.2545Y-3.3723
X7.2706Y-5.1406
X7.2759Y-3.5626
X7.276Y-3.8354
X7.2942Y-4.1075
X7.2942Y-5.3548
X7.296Y-4.8988
X7.2974Y-2.9938
X7.3353Y-4.0732
X7.337Y-3.1608
X7.3371Y-3.3766
X7.3863Y-3.1633
X7.4105Y-3.0201
X7.4105Y-5.793
X7.4134Y-3.7146
X7.4154Y-3.8217
X7.4337Y-3.4383
X7.4665Y-3.7874
X7.4799Y-4.2258
X7.4812Y-4.888
X7.4911Y-3.3186
X7.5004Y-3.1633
X7.501Y-3.9221
X7.5169Y-3.674
X7.5242Y-6.0393
X7.5268Y-2.92
X7.5268Y-5.8012
X7.5579Y-6.072
X7.558Y-4.042
X7.5592Y-3.8246
X7.5887Y-4.0893
X7.6063Y-3.7697
X7.6161Y-4.9213
X7.6299Y-5.0374
X7.6319Y-4.4626
X7.643Y-2.8949
X7.7106Y-3.8217
X7.7158Y-3.9221
X7.7207Y-4.9757
X7.7362Y-5.0413
X7.7826Y-4.051
X7.8425Y-5.8661
X7.9919Y-4.4199
X8.0429Y-5.8918
X8.1875Y-4.7281
X8.1889Y-5.1844
X8.3407Y-4.34
X8.457Y-4.227
T2
X3.1969Y-5.1949
X3.2969Y-5.1949
X3.3969Y-5.1949
X3.4969Y-5.1949
X4.3814Y-5.1949
X4.4814Y-5.1949
X4.5814Y-5.1949
X4.6814Y-5.1949
X8.2102Y-5.2341
X8.2102Y-5.336
X8.2102Y-5.436
X8.2102Y-5.536
X8.2102Y-5.636
X8.2102Y-5.736
X8.2102Y-5.838
X8.2102Y-5.938
X8.2102Y-6.038
X8.2102Y-6.138
X8.451Y-4.5091
X8.451Y-4.5879
X8.451Y-4.6666
X8.5087Y-5.84
X8.5102Y-5.2341
X8.5102Y-5.336
X8.5102Y-5.436
X8.5102Y-5.536
X8.5102Y-5.636
X8.5102Y-5.736
X8.5102Y-5.938
X8.5102Y-6.038
X8.5102Y-6.138
X8.5297Y-4.5091
X8.5297Y-4.5879
X8.5297Y-4.6666
X9.0116Y-4.4126
X9.0116Y-4.5126
T3
X2.8907Y-2.9695
X2.8907Y-3.7346
X2.9892Y-2.9695
X2.9892Y-3.7346
X3.0876Y-2.9695
X3.0876Y-3.7346
X3.787Y-2.9695
X3.787Y-3.7346
X3.8855Y-2.9695
X3.8855Y-3.7346
X3.9839Y-2.9695
X3.9839Y-3.7346
X4.0823Y-3.7346
X4.6249Y-2.9321
X4.7233Y-2.9321
X4.8217Y-2.9321
X5.4902Y-2.9321
X5.5886Y-2.9321
X5.687Y-2.9321
X6.3562Y-2.9321
X6.4546Y-2.9321
X6.5531Y-2.9321
X7.2204Y-2.9321
X7.3188Y-2.9321
X7.4172Y-2.9321
T4
X2.9854Y-4.3488
X2.9854Y-4.4488
X3.0854Y-4.3488
X3.0854Y-4.4488
X3.1854Y-4.3488
X3.1854Y-4.4488
X3.2854Y-4.3488
X3.2854Y-4.4488
X6.7404Y-4.1626
X6.7404Y-4.7626
X6.8404Y-4.1626
X6.8404Y-4.7626
X6.9404Y-4.1626
X6.9404Y-4.7626
X7.0404Y-4.1626
X7.0404Y-4.7626
X7.1404Y-4.1626
X7.1404Y-4.7626
X7.2404Y-4.1626
X7.2404Y-4.2626
X7.2404Y-4.3626
X7.2404Y-4.4626
X7.2404Y-4.5626
X7.2404Y-4.6626
X7.2404Y-4.7626
X7.3404Y-4.1626
X7.3404Y-4.7626
X7.4404Y-4.1626
X7.4404Y-4.7626
X7.5404Y-4.1626
X7.5404Y-4.7626
X7.6404Y-4.1626
X7.6404Y-4.7626
X7.7404Y-4.1626
X7.7404Y-4.7626
X7.8404Y-4.1626
X7.8404Y-4.7626
X7.9404Y-4.1626
X7.9404Y-4.7626
X8.0404Y-4.1626
X8.0404Y-4.7626
X8.1404Y-4.1626
X8.1404Y-4.7626
X8.2404Y-4.1626
X8.2404Y-4.7626
X8.3404Y-4.1626
X8.3404Y-4.7626
X8.4404Y-4.1626
X8.4404Y-4.7626
X8.5404Y-4.1626
X8.5404Y-4.7626
X8.6404Y-4.1626
X8.6404Y-4.7626
X8.7404Y-4.1626
X8.7404Y-4.7626
X8.8404Y-4.1626
X8.8404Y-4.7626
X8.9404Y-4.1626
X8.9404Y-4.7626
X9.0404Y-4.1626
X9.0404Y-4.7626
T5
X5.589Y-6.1291
X5.789Y-6.1291
X5.889Y-6.1291
X5.989Y-6.1291
T6
X8.3924Y-4.2827
X8.4924Y-4.2827
X8.5924Y-4.2827
X8.6924Y-4.2827
X8.7924Y-4.2827
X8.9404Y-4.6626
T7
X7.1957Y-5.9016
X7.3957Y-5.9016
T8
X2.9409Y-5.1939
X2.9409Y-6.1073
X3.7559Y-5.1939
X3.7559Y-6.1073
X4.1255Y-5.1939
X4.1255Y-6.1073
X4.9405Y-5.1939
X4.9405Y-6.1073
T9
X5.3386Y-6.039
X6.4409Y-6.039
T10
X2.4823Y-2.5
X2.4823Y-5.8917
X8.8504Y-2.5
X8.8504Y-5.8917
M30
