M48
; DRILL file {KiCad 9.0.6} date 2026-04-29T18:15:55-0700
; FORMAT={-:-/ absolute / inch / decimal}
; #@! TF.CreationDate,2026-04-29T18:15:55-07:00
; #@! TF.GenerationSoftware,Kicad,Pcbnew,9.0.6
; #@! TF.FileFunction,Plated,1,2,PTH
FMAT,2
INCH
; #@! TA.AperFunction,Plated,PTH,ViaDrill
T1C0.0118
; #@! TA.AperFunction,Plated,PTH,ComponentDrill
T2C0.0315
; #@! TA.AperFunction,Plated,PTH,ComponentDrill
T3C0.0374
; #@! TA.AperFunction,Plated,PTH,ComponentDrill
T4C0.0394
; #@! TA.AperFunction,Plated,PTH,ComponentDrill
T5C0.0402
; #@! TA.AperFunction,Plated,PTH,ComponentDrill
T6C0.0433
; #@! TA.AperFunction,Plated,PTH,ComponentDrill
T7C0.0866
; #@! TA.AperFunction,Plated,PTH,ComponentDrill
T8C0.0984
; #@! TA.AperFunction,Plated,PTH,ComponentDrill
T9C0.1260
%
G90
G05
T1
X2.8757Y-5.2245
X2.9049Y-4.7465
X2.9567Y-5.0689
X3.0226Y-4.3944
X3.1094Y-4.6169
X3.1161Y-4.9095
X3.1202Y-5.0137
X3.1997Y-4.7774
X3.2355Y-5.7013
X3.3051Y-6.0335
X3.313Y-4.9126
X3.3268Y-5.4803
X3.3359Y-4.2943
X3.3408Y-3.9432
X3.3462Y-4.8495
X3.3497Y-4.7593
X3.3504Y-4.9566
X3.3514Y-5.5853
X3.3538Y-4.561
X3.3583Y-5.0354
X3.3583Y-5.1575
X3.3634Y-4.717
X3.3779Y-4.3923
X3.3856Y-5.5966
X3.4043Y-4.896
X3.4061Y-5.5093
X3.4125Y-4.7156
X3.4161Y-4.9829
X3.4173Y-4.1752
X3.4469Y-4.0512
X3.4587Y-4.4055
X3.5275Y-4.758
X3.5734Y-3.9602
X3.574Y-4.7774
X3.6161Y-4.5689
X3.624Y-4.7953
X3.6417Y-5.0118
X3.6496Y-4.1555
X3.6527Y-4.1918
X3.6527Y-4.7247
X3.6897Y-4.0576
X3.7483Y-4.2686
X3.7497Y-4.561
X3.7806Y-4.912
X3.7808Y-4.2613
X3.788Y-3.9116
X3.7925Y-4.8027
X3.8003Y-5.1952
X3.8381Y-4.0247
X3.8495Y-4.765
X3.9206Y-4.3079
X3.9222Y-2.7784
X3.9231Y-4.3948
X3.9423Y-4.6337
X3.9443Y-5.0678
X3.9632Y-4.7393
X3.9756Y-4.9788
X4.0131Y-5.0019
X4.0162Y-5.1792
X4.0458Y-4.7793
X4.055Y-4.7491
X4.0772Y-4.9683
X4.0809Y-4.9161
X4.092Y-4.6113
X4.1358Y-4.3976
X4.1547Y-3.9432
X4.1804Y-5.0075
X4.1911Y-4.8382
X4.1973Y-4.2765
X4.2035Y-4.5012
X4.2197Y-4.6177
X4.2219Y-5.2188
X4.2534Y-5.6025
X4.2541Y-4.7711
X4.2553Y-4.8648
X4.2553Y-4.8976
X4.2776Y-5.0335
X4.2811Y-6.0081
X4.282Y-6.1174
X4.2854Y-5.7047
X4.2972Y-4.4035
X4.3682Y-5.2279
X4.3687Y-5.8912
X4.3813Y-5.4494
X4.3832Y-5.3648
X4.3871Y-5.6904
X4.3939Y-4.8627
X4.3996Y-5.1791
X4.4125Y-5.418
X4.4138Y-4.7202
X4.4191Y-5.6925
X4.4211Y-5.5416
X4.4232Y-4.5689
X4.4528Y-4.939
X4.4556Y-5.4605
X4.4594Y-4.6287
X4.4594Y-4.7586
X4.4685Y-3.813
X4.4685Y-5.1732
X4.4803Y-4.8346
X4.5037Y-4.0576
X4.5037Y-5.0678
X4.5059Y-4.7697
X4.5079Y-4.6024
X4.5436Y-4.3425
X4.5453Y-5.3839
X4.5499Y-4.3064
X4.5669Y-5.2953
X4.5683Y-3.9223
X4.5683Y-4.5079
X4.5786Y-5.0102
X4.5938Y-5.488
X4.5987Y-4.208
X4.6158Y-4.561
X4.6192Y-5.0803
X4.6192Y-5.9234
X4.6381Y-4.0592
X4.6513Y-2.885
X4.7299Y-2.6896
X4.7827Y-5.9946
X4.7876Y-4.3948
X4.8071Y-4.0597
X4.8306Y-4.6797
X4.8524Y-5.3421
X4.8682Y-4.2639
X4.8705Y-4.0518
X4.883Y-5.0803
X4.8848Y-5.3102
X4.8882Y-3.7522
X4.8909Y-4.2065
X4.8937Y-4.8878
X4.8957Y-4.5591
X4.8976Y-5.0236
X4.9012Y-4.0207
X4.9368Y-5.1138
X4.9575Y-4.3005
X4.9616Y-3.2514
X4.9687Y-4.7675
X4.9693Y-5.9228
X4.9968Y-4.7901
X5.0059Y-3.8918
X5.0118Y-4.3976
X5.0177Y-5.0295
X5.0335Y-3.9882
X5.0481Y-4.5193
X5.0612Y-4.9393
X5.0828Y-5.5168
X5.085Y-5.4151
X5.0857Y-3.826
X5.1004Y-4.752
X5.1004Y-4.561
X5.1012Y-6.1713
X5.1102Y-5.0236
X5.122Y-4.3976
X5.1555Y-4.9921
X5.2073Y-5.0605
X5.2104Y-5.0909
X5.23Y-4.561
X5.2579Y-4.4705
X5.2638Y-4.065
X5.2638Y-4.3287
X5.2795Y-4.7736
X5.2819Y-5.9655
X5.2992Y-4.4764
X5.4075Y-5.4574
X5.4088Y-5.2546
X5.4331Y-4.8898
X5.5146Y-4.096
X5.5178Y-4.0407
X5.5253Y-4.2654
X5.5412Y-4.1816
X5.565Y-4.437
X5.565Y-4.5394
X5.5677Y-4.0417
X5.5693Y-4.2941
X5.5787Y-4.9075
X5.5894Y-4.2198
X5.6065Y-4.1682
X5.6286Y-4.0884
X5.6477Y-4.039
X5.6516Y-5.2717
X5.6527Y-4.3948
X5.6664Y-5.8069
X5.6664Y-5.9234
X5.6745Y-5.2245
X5.7028Y-4.5413
X5.7244Y-4.9449
X5.748Y-4.0571
X5.7539Y-5.2717
X5.7779Y-4.9915
X5.7826Y-5.3721
X5.8406Y-4.5039
X5.8484Y-5.0471
X5.8637Y-4.5628
X5.8917Y-4.3425
X5.9068Y-5.8106
X5.9068Y-5.8992
X5.9098Y-5.1514
X5.9098Y-5.2577
X5.9291Y-4.874
X5.9606Y-5.0236
X5.9638Y-4.561
X5.9807Y-4.8384
X5.9835Y-4.9639
X5.9946Y-4.6573
X6.0026Y-4.2513
X6.0315Y-4.563
X6.0354Y-3.9432
X6.0844Y-5.6865
X6.0895Y-5.3617
X6.1262Y-4.7317
X6.1315Y-5.4342
X6.1315Y-6.1627
X6.1449Y-5.3492
X6.1544Y-5.0839
X6.1634Y-4.9055
X6.2143Y-5.8054
X6.2298Y-4.4011
X6.2434Y-4.6153
X6.2563Y-4.7183
X6.272Y-4.3425
X6.3441Y-4.561
X6.428Y-4.6445
X6.4291Y-4.5394
X6.4331Y-4.3504
X6.439Y-4.935
X6.4537Y-4.7407
X6.4716Y-4.6298
X6.4882Y-4.7742
X6.499Y-4.3945
X6.5039Y-4.6004
X6.5177Y-4.9547
X6.5217Y-6.0453
X6.5276Y-6.1535
X6.5472Y-4.0433
X6.5563Y-4.7183
X6.5595Y-4.7701
X6.5811Y-4.2688
X6.5966Y-5.5739
X6.5984Y-4.9547
X6.6172Y-5.4055
X6.6191Y-4.0363
X6.621Y-4.2042
X6.6228Y-4.3929
X6.6295Y-4.6414
X6.6309Y-4.7557
X6.6393Y-4.7942
X6.6496Y-4.5886
X6.6567Y-5.9972
X6.6665Y-4.7564
X6.6728Y-5.9256
X6.6761Y-5.896
X6.6933Y-4.5449
X6.6988Y-4.3976
X6.7034Y-5.672
X6.7037Y-4.0088
X6.7166Y-3.7102
X6.7174Y-6.0996
X6.7198Y-6.0398
X6.7205Y-4.6004
X6.7205Y-5.229
X6.7213Y-5.5776
X6.7217Y-5.7987
X6.7225Y-3.1212
X6.7242Y-5.7057
X6.7323Y-4.6732
X6.7336Y-4.7881
X6.7455Y-3.0355
X6.7476Y-5.8518
X6.7516Y-5.6422
X6.7539Y-3.9885
X6.7579Y-4.1119
X6.7761Y-4.3051
X6.7896Y-5.0123
X6.8145Y-4.0755
X6.828Y-4.561
X6.8337Y-4.3933
X6.8339Y-2.6254
X6.862Y-2.6716
X6.9409Y-4.4724
X6.9429Y-4.5748
X7.0374Y-4.5807
X7.0617Y-4.5256
X7.0617Y-4.9853
X7.1004Y-5.4055
X7.1043Y-4.6417
X7.1842Y-4.5112
X7.2677Y-4.5571
X7.2717Y-4.4646
X7.3248Y-4.6421
X7.3642Y-4.7303
X7.3681Y-4.5295
X7.4105Y-4.875
X7.4142Y-4.6457
X7.4406Y-3.9137
X7.4961Y-4.4114
X7.6004Y-4.4094
X7.6122Y-4.624
X7.6535Y-3.9921
X7.8051Y-4.4035
X7.8169Y-5.3071
X7.8742Y-5.9495
X8.1063Y-3.9921
X8.1081Y-2.6562
X8.1583Y-3.0079
X8.1988Y-5.1102
X8.2276Y-2.8252
X8.2276Y-3.0496
X8.2441Y-3.7343
X8.2986Y-4.0957
X8.3407Y-4.0361
X8.457Y-4.4091
X8.5732Y-5.108
T2
X3.8594Y-5.2528
X3.8594Y-5.3528
X3.8594Y-5.4528
X3.8594Y-5.6547
X3.8594Y-5.7547
X3.8594Y-5.8547
X3.8594Y-5.9547
X3.8594Y-6.0547
X3.8594Y-6.1567
X3.861Y-5.5508
X4.1594Y-5.2528
X4.1594Y-5.3528
X4.1594Y-5.4528
X4.1594Y-5.5528
X4.1594Y-5.6547
X4.1594Y-5.7547
X4.1594Y-5.8547
X4.1594Y-5.9547
X4.1594Y-6.0547
X4.1594Y-6.1567
X5.0061Y-5.2142
X5.1061Y-5.2142
X5.2061Y-5.2142
X5.3061Y-5.2142
T3
X2.8907Y-2.9695
X2.8947Y-3.7916
X2.9892Y-2.9695
X2.9931Y-3.7916
X3.0876Y-2.9695
X3.0915Y-3.7916
X3.756Y-2.9691
X3.76Y-3.7916
X3.8545Y-2.9691
X3.8584Y-3.7916
X3.9529Y-2.9691
X3.9568Y-3.7916
X4.6221Y-2.9691
X4.626Y-3.7916
X4.7205Y-2.9691
X4.7245Y-3.7916
X4.8189Y-2.9691
X4.8229Y-3.7916
X5.4902Y-3.7916
X5.5886Y-3.7916
X5.6871Y-3.7916
X6.3543Y-2.9691
X6.3544Y-3.7916
X6.4528Y-2.9691
X6.4528Y-3.7916
X6.5512Y-2.9691
X6.5512Y-3.7916
X6.6496Y-2.9691
X6.748Y-2.9691
X7.2194Y-3.7916
X7.3178Y-3.7916
X7.4163Y-3.7916
X7.4163Y-2.9692
X7.5147Y-3.7916
X7.5148Y-2.9692
X7.6132Y-2.9692
X7.7116Y-2.9692
X7.81Y-2.9692
T4
X2.8752Y-6.1083
X2.9752Y-6.1083
X3.0752Y-6.1083
X3.1752Y-6.1083
X8.3693Y-3.783
X8.3693Y-3.883
X8.4693Y-3.783
X8.4693Y-3.883
X8.5693Y-3.783
X8.5693Y-3.883
X8.6693Y-3.783
X8.6693Y-3.883
T5
X7.6642Y-6.1484
X7.8642Y-6.1484
X7.9642Y-6.1484
X8.0642Y-6.1484
T6
X6.226Y-4.8554
X6.226Y-4.9554
X6.226Y-5.0554
X6.226Y-5.1554
X6.226Y-5.2554
X6.226Y-5.3554
X6.226Y-5.4554
X6.226Y-5.5554
X6.226Y-5.6554
X6.226Y-5.7554
X6.226Y-5.8554
X6.226Y-5.9554
X6.226Y-6.0554
X6.226Y-6.1554
X6.326Y-4.8554
X6.326Y-5.0554
X6.326Y-5.1554
X6.326Y-6.0554
X6.426Y-4.8554
X6.426Y-5.0554
X6.426Y-5.1554
X6.526Y-4.8554
X6.526Y-5.0554
X6.526Y-5.1554
X6.626Y-4.8554
X6.626Y-5.0554
X6.626Y-5.1554
X6.726Y-4.8554
X6.726Y-5.0554
X6.726Y-5.1554
X6.826Y-4.8554
X6.826Y-4.9554
X6.826Y-5.0554
X6.826Y-5.1554
X6.826Y-5.2554
X6.826Y-5.3554
X6.826Y-5.4554
X6.826Y-5.5554
X6.826Y-5.6554
X6.826Y-5.7554
X6.826Y-5.8554
X6.826Y-5.9554
X6.826Y-6.0554
X6.826Y-6.1554
T7
X4.7502Y-5.2132
X4.7502Y-6.1266
X5.5651Y-5.2132
X5.5651Y-6.1266
T8
X2.8752Y-5.4083
X3.5752Y-5.4083
X7.4138Y-6.0583
X8.5161Y-6.0583
T9
X2.4823Y-2.5
X2.4823Y-5.8917
X8.8504Y-2.5
X8.8504Y-5.8917
M30
