%TF.GenerationSoftware,KiCad,Pcbnew,9.0.6*%
%TF.CreationDate,2026-07-06T13:50:09-07:00*%
%TF.ProjectId,MainRobotBoardTeensy,4d61696e-526f-4626-9f74-426f61726454,rev?*%
%TF.SameCoordinates,Original*%
%TF.FileFunction,Soldermask,Top*%
%TF.FilePolarity,Negative*%
%FSLAX46Y46*%
G04 Gerber Fmt 4.6, Leading zero omitted, Abs format (unit mm)*
G04 Created by KiCad (PCBNEW 9.0.6) date 2026-07-06 13:50:09*
%MOMM*%
%LPD*%
G01*
G04 APERTURE LIST*
G04 Aperture macros list*
%AMRoundRect*
0 Rectangle with rounded corners*
0 $1 Rounding radius*
0 $2 $3 $4 $5 $6 $7 $8 $9 X,Y pos of 4 corners*
0 Add a 4 corners polygon primitive as box body*
4,1,4,$2,$3,$4,$5,$6,$7,$8,$9,$2,$3,0*
0 Add four circle primitives for the rounded corners*
1,1,$1+$1,$2,$3*
1,1,$1+$1,$4,$5*
1,1,$1+$1,$6,$7*
1,1,$1+$1,$8,$9*
0 Add four rect primitives between the rounded corners*
20,1,$1+$1,$2,$3,$4,$5,0*
20,1,$1+$1,$4,$5,$6,$7,0*
20,1,$1+$1,$6,$7,$8,$9,0*
20,1,$1+$1,$8,$9,$2,$3,0*%
G04 Aperture macros list end*
%ADD10O,1.700000X1.950000*%
%ADD11RoundRect,0.250000X0.600000X0.725000X-0.600000X0.725000X-0.600000X-0.725000X0.600000X-0.725000X0*%
%ADD12RoundRect,0.102000X0.430000X0.490000X-0.430000X0.490000X-0.430000X-0.490000X0.430000X-0.490000X0*%
%ADD13RoundRect,0.102000X-0.550000X-0.500000X0.550000X-0.500000X0.550000X0.500000X-0.550000X0.500000X0*%
%ADD14C,2.600000*%
%ADD15RoundRect,0.250000X-1.050000X-1.050000X1.050000X-1.050000X1.050000X1.050000X-1.050000X1.050000X0*%
%ADD16RoundRect,0.102000X-0.430000X-0.490000X0.430000X-0.490000X0.430000X0.490000X-0.430000X0.490000X0*%
%ADD17R,0.749300X1.041400*%
%ADD18RoundRect,0.102000X-0.520000X-0.510000X0.520000X-0.510000X0.520000X0.510000X-0.520000X0.510000X0*%
%ADD19R,0.549999X0.653199*%
%ADD20RoundRect,0.102000X0.550000X0.500000X-0.550000X0.500000X-0.550000X-0.500000X0.550000X-0.500000X0*%
%ADD21RoundRect,0.198500X-0.508500X-0.198500X0.508500X-0.198500X0.508500X0.198500X-0.508500X0.198500X0*%
%ADD22RoundRect,0.102000X-0.395000X-0.465000X0.395000X-0.465000X0.395000X0.465000X-0.395000X0.465000X0*%
%ADD23RoundRect,0.102000X0.510000X-0.520000X0.510000X0.520000X-0.510000X0.520000X-0.510000X-0.520000X0*%
%ADD24RoundRect,0.102000X0.490000X-0.430000X0.490000X0.430000X-0.490000X0.430000X-0.490000X-0.430000X0*%
%ADD25C,1.701600*%
%ADD26C,3.101600*%
%ADD27R,1.100000X1.300000*%
%ADD28C,5.700000*%
%ADD29R,1.981200X0.558800*%
%ADD30RoundRect,0.134250X-0.432750X0.402750X-0.432750X-0.402750X0.432750X-0.402750X0.432750X0.402750X0*%
%ADD31RoundRect,0.102000X-0.500000X0.550000X-0.500000X-0.550000X0.500000X-0.550000X0.500000X0.550000X0*%
%ADD32R,1.701800X0.533400*%
%ADD33R,0.812800X0.889000*%
%ADD34R,0.653199X0.549999*%
%ADD35RoundRect,0.102000X-0.490000X0.430000X-0.490000X-0.430000X0.490000X-0.430000X0.490000X0.430000X0*%
%ADD36RoundRect,0.102000X0.500000X-0.550000X0.500000X0.550000X-0.500000X0.550000X-0.500000X-0.550000X0*%
%ADD37RoundRect,0.250000X0.600000X0.550000X-0.600000X0.550000X-0.600000X-0.550000X0.600000X-0.550000X0*%
%ADD38C,1.700000*%
%ADD39C,1.600000*%
%ADD40R,1.600000X1.600000*%
%ADD41R,1.300000X1.300000*%
%ADD42C,1.300000*%
%ADD43RoundRect,0.250000X0.600000X-0.600000X0.600000X0.600000X-0.600000X0.600000X-0.600000X-0.600000X0*%
%ADD44R,0.863600X0.762000*%
%ADD45RoundRect,0.134250X0.432750X-0.402750X0.432750X0.402750X-0.432750X0.402750X-0.432750X-0.402750X0*%
%ADD46RoundRect,0.102000X-0.465000X0.435000X-0.465000X-0.435000X0.465000X-0.435000X0.465000X0.435000X0*%
%ADD47C,1.905000*%
%ADD48C,3.301600*%
G04 APERTURE END LIST*
D10*
%TO.C,J9*%
X73425000Y-94857700D03*
X75925000Y-94857700D03*
D11*
X78425000Y-94857700D03*
%TD*%
D12*
%TO.C,R46*%
X75160000Y-99800000D03*
X76690000Y-99800000D03*
%TD*%
D13*
%TO.C,R31*%
X78450000Y-99800000D03*
X80150000Y-99800000D03*
%TD*%
D14*
%TO.C,J1*%
X187850000Y-149900000D03*
D15*
X182770000Y-149900000D03*
%TD*%
D14*
%TO.C,J4*%
X226435000Y-136972500D03*
D15*
X221355000Y-136972500D03*
%TD*%
D16*
%TO.C,R66*%
X100053800Y-116155400D03*
X101583800Y-116155400D03*
%TD*%
D17*
%TO.C,D2*%
X141346750Y-79117300D03*
X142553250Y-79117300D03*
%TD*%
D18*
%TO.C,R21*%
X113086200Y-108877700D03*
X114556200Y-108877700D03*
%TD*%
D19*
%TO.C,C10*%
X196900000Y-149498401D03*
X196900000Y-150301599D03*
%TD*%
D13*
%TO.C,R7*%
X99583300Y-108926400D03*
X101283300Y-108926400D03*
%TD*%
D20*
%TO.C,R100*%
X206360000Y-150825000D03*
X204660000Y-150825000D03*
%TD*%
D21*
%TO.C,Q9*%
X124921200Y-86917700D03*
X124921200Y-88817700D03*
X127431200Y-87867700D03*
%TD*%
D22*
%TO.C,R1*%
X139330400Y-101815000D03*
X140970400Y-101815000D03*
%TD*%
D23*
%TO.C,R34*%
X172751500Y-126241500D03*
X172751500Y-124771500D03*
%TD*%
D24*
%TO.C,R41*%
X190858000Y-98600000D03*
X190858000Y-97070000D03*
%TD*%
D25*
%TO.C,U11*%
X81200000Y-131950000D03*
X83740000Y-131950000D03*
X86280000Y-131950000D03*
X88820000Y-131950000D03*
D26*
X74700000Y-131925000D03*
X95400000Y-131925000D03*
X74700000Y-155125000D03*
X95400000Y-155125000D03*
%TD*%
D20*
%TO.C,R106*%
X206360000Y-135535000D03*
X204660000Y-135535000D03*
%TD*%
D16*
%TO.C,R91*%
X93908800Y-118685400D03*
X95438800Y-118685400D03*
%TD*%
%TO.C,R64*%
X184991100Y-91667700D03*
X186521100Y-91667700D03*
%TD*%
D21*
%TO.C,Q13*%
X169091100Y-86917700D03*
X169091100Y-88817700D03*
X171601100Y-87867700D03*
%TD*%
D16*
%TO.C,R62*%
X163238600Y-91667700D03*
X164768600Y-91667700D03*
%TD*%
D20*
%TO.C,R3*%
X120812500Y-84117700D03*
X119112500Y-84117700D03*
%TD*%
D18*
%TO.C,R12*%
X125253700Y-84167700D03*
X126723700Y-84167700D03*
%TD*%
D27*
%TO.C,D9*%
X122320700Y-79117300D03*
X124420700Y-79117300D03*
%TD*%
D16*
%TO.C,R87*%
X191333600Y-94367700D03*
X192863600Y-94367700D03*
%TD*%
D28*
%TO.C,MH1*%
X63050000Y-63500000D03*
%TD*%
D27*
%TO.C,D14*%
X159225400Y-79117300D03*
X161325400Y-79117300D03*
%TD*%
%TO.C,D12*%
X137501200Y-79117300D03*
X139601200Y-79117300D03*
%TD*%
D16*
%TO.C,R86*%
X191333600Y-91652300D03*
X192863600Y-91652300D03*
%TD*%
D20*
%TO.C,R98*%
X206360000Y-155905000D03*
X204660000Y-155905000D03*
%TD*%
D16*
%TO.C,R78*%
X147207600Y-91667700D03*
X148737600Y-91667700D03*
%TD*%
%TO.C,R94*%
X113056200Y-116362300D03*
X114586200Y-116362300D03*
%TD*%
D21*
%TO.C,Q15*%
X191031100Y-86917700D03*
X191031100Y-88817700D03*
X193541100Y-87867700D03*
%TD*%
D17*
%TO.C,D5*%
X79172950Y-118742300D03*
X80379450Y-118742300D03*
%TD*%
D20*
%TO.C,R102*%
X206360000Y-145695000D03*
X204660000Y-145695000D03*
%TD*%
%TO.C,R101*%
X206360000Y-148285000D03*
X204660000Y-148285000D03*
%TD*%
D24*
%TO.C,R43*%
X178200000Y-98600000D03*
X178200000Y-97070000D03*
%TD*%
D16*
%TO.C,R77*%
X113301200Y-94367700D03*
X114831200Y-94367700D03*
%TD*%
%TO.C,R96*%
X125346200Y-116362300D03*
X126876200Y-116362300D03*
%TD*%
D27*
%TO.C,D13*%
X166023000Y-79117300D03*
X168123000Y-79117300D03*
%TD*%
D18*
%TO.C,R18*%
X179073600Y-84167700D03*
X180543600Y-84167700D03*
%TD*%
D24*
%TO.C,R47*%
X191641500Y-126400900D03*
X191641500Y-124870900D03*
%TD*%
D28*
%TO.C,MH4*%
X224800000Y-149650000D03*
%TD*%
D16*
%TO.C,R93*%
X106198800Y-118685400D03*
X107728800Y-118685400D03*
%TD*%
D11*
%TO.C,J8*%
X188398000Y-74475000D03*
D10*
X185898000Y-74475000D03*
X183398000Y-74475000D03*
%TD*%
D29*
%TO.C,U2*%
X143436200Y-100545000D03*
X143436200Y-101815000D03*
X143436200Y-103085000D03*
X143436200Y-104355000D03*
X148363800Y-104355000D03*
X148363800Y-103085000D03*
X148363800Y-101815000D03*
X148363800Y-100545000D03*
%TD*%
D16*
%TO.C,R82*%
X169393600Y-91667700D03*
X170923600Y-91667700D03*
%TD*%
D27*
%TO.C,D15*%
X188023000Y-79117300D03*
X190123000Y-79117300D03*
%TD*%
D23*
%TO.C,R35*%
X175401500Y-126241500D03*
X175401500Y-124771500D03*
%TD*%
D16*
%TO.C,R90*%
X93908800Y-116155400D03*
X95438800Y-116155400D03*
%TD*%
D24*
%TO.C,R65*%
X195300000Y-150665000D03*
X195300000Y-149135000D03*
%TD*%
D17*
%TO.C,D4*%
X185070950Y-79117300D03*
X186277450Y-79117300D03*
%TD*%
D25*
%TO.C,U10*%
X216160000Y-155905000D03*
X216160000Y-153365000D03*
X216160000Y-150825000D03*
X216120000Y-148335000D03*
X216160000Y-145695000D03*
X216160000Y-143155000D03*
X216160000Y-140615000D03*
X216160000Y-138075000D03*
X216160000Y-135535000D03*
X216160000Y-132945000D03*
X208540000Y-155905000D03*
X208540000Y-153365000D03*
X208540000Y-150825000D03*
X208540000Y-148285000D03*
X208540000Y-145695000D03*
X208540000Y-143155000D03*
X208540000Y-140615000D03*
X208540000Y-138075000D03*
X208540000Y-135535000D03*
X208540000Y-132945000D03*
%TD*%
D24*
%TO.C,R45*%
X194794900Y-130911100D03*
X194794900Y-129381100D03*
%TD*%
D12*
%TO.C,R2*%
X152318800Y-101815000D03*
X150788800Y-101815000D03*
%TD*%
D21*
%TO.C,Q1*%
X118895000Y-86896700D03*
X118895000Y-88796700D03*
X121405000Y-87846700D03*
%TD*%
D13*
%TO.C,R33*%
X166201500Y-106585500D03*
X167901500Y-106585500D03*
%TD*%
D29*
%TO.C,U3*%
X132997300Y-111090000D03*
X132997300Y-112360000D03*
X132997300Y-113630000D03*
X132997300Y-114900000D03*
X132997300Y-116170000D03*
X132997300Y-117440000D03*
X132997300Y-118710000D03*
X137924900Y-118710000D03*
X137924900Y-117440000D03*
X137924900Y-116170000D03*
X137924900Y-114900000D03*
X137924900Y-113630000D03*
X137924900Y-112360000D03*
X137924900Y-111090000D03*
%TD*%
D18*
%TO.C,R16*%
X157113600Y-84167700D03*
X158583600Y-84167700D03*
%TD*%
D16*
%TO.C,R89*%
X179043600Y-94367700D03*
X180573600Y-94367700D03*
%TD*%
D30*
%TO.C,C3*%
X172751500Y-129305500D03*
X172751500Y-130865500D03*
%TD*%
D18*
%TO.C,R15*%
X169423600Y-84167700D03*
X170893600Y-84167700D03*
%TD*%
D11*
%TO.C,J6*%
X144450000Y-74475000D03*
D10*
X141950000Y-74475000D03*
X139450000Y-74475000D03*
%TD*%
D24*
%TO.C,R61*%
X176800000Y-150665000D03*
X176800000Y-149135000D03*
%TD*%
D31*
%TO.C,R24*%
X195851500Y-100764900D03*
X195851500Y-102464900D03*
%TD*%
%TO.C,R26*%
X190859500Y-100764900D03*
X190859500Y-102464900D03*
%TD*%
D25*
%TO.C,U8*%
X111287500Y-131950000D03*
X113827500Y-131950000D03*
X116367500Y-131950000D03*
X118907500Y-131950000D03*
D26*
X104787500Y-131925000D03*
X125487500Y-131925000D03*
X104787500Y-155125000D03*
X125487500Y-155125000D03*
%TD*%
D31*
%TO.C,R28*%
X178201500Y-100764900D03*
X178201500Y-102464900D03*
%TD*%
D32*
%TO.C,U5*%
X123418800Y-97430000D03*
X123418800Y-98700000D03*
X123418800Y-99970000D03*
X123418800Y-101240000D03*
X123418800Y-102510000D03*
X123418800Y-103780000D03*
X123418800Y-105050000D03*
X128625800Y-105050000D03*
X128625800Y-103780000D03*
X128625800Y-102510000D03*
X128625800Y-101240000D03*
X128625800Y-99970000D03*
X128625800Y-98700000D03*
X128625800Y-97430000D03*
%TD*%
D33*
%TO.C,C1*%
X139608400Y-104507400D03*
X140903800Y-104507400D03*
%TD*%
D27*
%TO.C,D10*%
X115523100Y-79117300D03*
X117623100Y-79117300D03*
%TD*%
D16*
%TO.C,R83*%
X169393600Y-94367700D03*
X170923600Y-94367700D03*
%TD*%
D11*
%TO.C,J7*%
X166448000Y-74475000D03*
D10*
X163948000Y-74475000D03*
X161448000Y-74475000D03*
%TD*%
D13*
%TO.C,R4*%
X141132500Y-84146700D03*
X142832500Y-84146700D03*
%TD*%
D34*
%TO.C,C2*%
X150640001Y-104778500D03*
X151443199Y-104778500D03*
%TD*%
D27*
%TO.C,D17*%
X75327400Y-118722300D03*
X77427400Y-118722300D03*
%TD*%
D11*
%TO.C,J3*%
X101190700Y-75425400D03*
D10*
X98690700Y-75425400D03*
X96190700Y-75425400D03*
%TD*%
D35*
%TO.C,R59*%
X178600000Y-149135000D03*
X178600000Y-150665000D03*
%TD*%
D16*
%TO.C,R92*%
X106198800Y-116155400D03*
X107728800Y-116155400D03*
%TD*%
D21*
%TO.C,Q19*%
X112753700Y-111627700D03*
X112753700Y-113527700D03*
X115263700Y-112577700D03*
%TD*%
D20*
%TO.C,R104*%
X206360000Y-140615000D03*
X204660000Y-140615000D03*
%TD*%
%TO.C,R105*%
X206360000Y-138075000D03*
X204660000Y-138075000D03*
%TD*%
D13*
%TO.C,R5*%
X163153600Y-84188700D03*
X164853600Y-84188700D03*
%TD*%
D21*
%TO.C,Q20*%
X125043700Y-111627700D03*
X125043700Y-113527700D03*
X127553700Y-112577700D03*
%TD*%
%TO.C,Q18*%
X105896300Y-111655400D03*
X105896300Y-113555400D03*
X108406300Y-112605400D03*
%TD*%
D16*
%TO.C,R53*%
X166286500Y-110020500D03*
X167816500Y-110020500D03*
%TD*%
%TO.C,R51*%
X166286500Y-113650500D03*
X167816500Y-113650500D03*
%TD*%
D20*
%TO.C,R99*%
X206360000Y-153365000D03*
X204660000Y-153365000D03*
%TD*%
D16*
%TO.C,R58*%
X119197500Y-91667700D03*
X120727500Y-91667700D03*
%TD*%
D27*
%TO.C,D16*%
X181225400Y-79117300D03*
X183325400Y-79117300D03*
%TD*%
D21*
%TO.C,Q5*%
X99751300Y-111655400D03*
X99751300Y-113555400D03*
X102261300Y-112605400D03*
%TD*%
D18*
%TO.C,R14*%
X135303600Y-84167700D03*
X136773600Y-84167700D03*
%TD*%
D21*
%TO.C,Q2*%
X140915000Y-86917700D03*
X140915000Y-88817700D03*
X143425000Y-87867700D03*
%TD*%
D35*
%TO.C,R49*%
X183201500Y-100849900D03*
X183201500Y-102379900D03*
%TD*%
D11*
%TO.C,J5*%
X122471900Y-74475000D03*
D10*
X119971900Y-74475000D03*
X117471900Y-74475000D03*
%TD*%
D21*
%TO.C,Q16*%
X178741100Y-86917700D03*
X178741100Y-88817700D03*
X181251100Y-87867700D03*
%TD*%
D16*
%TO.C,R50*%
X166286500Y-121270500D03*
X167816500Y-121270500D03*
%TD*%
D13*
%TO.C,R6*%
X184906100Y-84188700D03*
X186606100Y-84188700D03*
%TD*%
D36*
%TO.C,R32*%
X188901500Y-126485900D03*
X188901500Y-124785900D03*
%TD*%
D31*
%TO.C,R27*%
X175651500Y-100764900D03*
X175651500Y-102464900D03*
%TD*%
D20*
%TO.C,R103*%
X206360000Y-143155000D03*
X204660000Y-143155000D03*
%TD*%
D13*
%TO.C,R8*%
X119116200Y-109012300D03*
X120816200Y-109012300D03*
%TD*%
D11*
%TO.C,J2*%
X78425000Y-75425400D03*
D10*
X75925000Y-75425400D03*
X73425000Y-75425400D03*
%TD*%
D37*
%TO.C,U1*%
X229625000Y-105730000D03*
D38*
X227085000Y-105730000D03*
X224545000Y-105730000D03*
X222005000Y-105730000D03*
X219465000Y-105730000D03*
X216925000Y-105730000D03*
X214385000Y-105730000D03*
X211845000Y-105730000D03*
X209305000Y-105730000D03*
X206765000Y-105730000D03*
X204225000Y-105730000D03*
X201685000Y-105730000D03*
X199145000Y-105730000D03*
X196605000Y-105730000D03*
X194065000Y-105730000D03*
X191525000Y-105730000D03*
X188985000Y-105730000D03*
X186445000Y-105730000D03*
X183905000Y-105730000D03*
X181365000Y-105730000D03*
X178825000Y-105730000D03*
X176285000Y-105730000D03*
X173745000Y-105730000D03*
X171205000Y-105730000D03*
X171205000Y-120970000D03*
X173745000Y-120970000D03*
X176285000Y-120970000D03*
X178825000Y-120970000D03*
X181365000Y-120970000D03*
X183905000Y-120970000D03*
X186445000Y-120970000D03*
X188985000Y-120970000D03*
X191525000Y-120970000D03*
X194065000Y-120970000D03*
X196605000Y-120970000D03*
X199145000Y-120970000D03*
X201685000Y-120970000D03*
X204225000Y-120970000D03*
X206765000Y-120970000D03*
X209305000Y-120970000D03*
X211845000Y-120970000D03*
X214385000Y-120970000D03*
X216925000Y-120970000D03*
X219465000Y-120970000D03*
X222005000Y-120970000D03*
X224545000Y-120970000D03*
X227085000Y-120970000D03*
X229625000Y-120970000D03*
D39*
X227085000Y-118430000D03*
D38*
X183905000Y-108270000D03*
X183905000Y-110810000D03*
X183905000Y-113350000D03*
X183905000Y-115890000D03*
X183905000Y-118430000D03*
D40*
X223325800Y-108780800D03*
D39*
X220785800Y-108780800D03*
X218245800Y-108780800D03*
X215705800Y-108780800D03*
X213165800Y-108780800D03*
D41*
X216655000Y-118531600D03*
D42*
X216655000Y-116531600D03*
X216655000Y-114531600D03*
X214655000Y-114531600D03*
X214655000Y-116531600D03*
X214655000Y-118531600D03*
X228895000Y-114620000D03*
X228895000Y-112080000D03*
%TD*%
D16*
%TO.C,R95*%
X113056200Y-119077700D03*
X114586200Y-119077700D03*
%TD*%
D24*
%TO.C,R48*%
X185810800Y-102379900D03*
X185810800Y-100849900D03*
%TD*%
%TO.C,R39*%
X195850000Y-98600000D03*
X195850000Y-97070000D03*
%TD*%
D18*
%TO.C,R17*%
X191363600Y-84167700D03*
X192833600Y-84167700D03*
%TD*%
D16*
%TO.C,R76*%
X113301200Y-91667700D03*
X114831200Y-91667700D03*
%TD*%
%TO.C,R80*%
X135273600Y-91667700D03*
X136803600Y-91667700D03*
%TD*%
D29*
%TO.C,U6*%
X143422300Y-111090000D03*
X143422300Y-112360000D03*
X143422300Y-113630000D03*
X143422300Y-114900000D03*
X143422300Y-116170000D03*
X143422300Y-117440000D03*
X143422300Y-118710000D03*
X148349900Y-118710000D03*
X148349900Y-117440000D03*
X148349900Y-116170000D03*
X148349900Y-114900000D03*
X148349900Y-113630000D03*
X148349900Y-112360000D03*
X148349900Y-111090000D03*
%TD*%
D16*
%TO.C,R84*%
X157083600Y-91667700D03*
X158613600Y-91667700D03*
%TD*%
%TO.C,R60*%
X141217500Y-91667700D03*
X142747500Y-91667700D03*
%TD*%
D17*
%TO.C,D6*%
X99337450Y-99500000D03*
X100543950Y-99500000D03*
%TD*%
D27*
%TO.C,D19*%
X95491900Y-99500000D03*
X97591900Y-99500000D03*
%TD*%
D16*
%TO.C,R85*%
X157083600Y-94367700D03*
X158613600Y-94367700D03*
%TD*%
D24*
%TO.C,R44*%
X197044900Y-130911100D03*
X197044900Y-129381100D03*
%TD*%
D43*
%TO.C,J11*%
X75830000Y-113000000D03*
D38*
X75830000Y-110460000D03*
X78370000Y-113000000D03*
X78370000Y-110460000D03*
X80910000Y-113000000D03*
X80910000Y-110460000D03*
X83450000Y-113000000D03*
X83450000Y-110460000D03*
%TD*%
D30*
%TO.C,C4*%
X175401500Y-129305500D03*
X175401500Y-130865500D03*
%TD*%
D27*
%TO.C,D11*%
X144298800Y-79117300D03*
X146398800Y-79117300D03*
%TD*%
D16*
%TO.C,R88*%
X179043600Y-91667700D03*
X180573600Y-91667700D03*
%TD*%
D44*
%TO.C,C9*%
X193650000Y-150522300D03*
X193650000Y-149277700D03*
%TD*%
D24*
%TO.C,R38*%
X193354000Y-98600000D03*
X193354000Y-97070000D03*
%TD*%
D29*
%TO.C,U4*%
X153847300Y-111090000D03*
X153847300Y-112360000D03*
X153847300Y-113630000D03*
X153847300Y-114900000D03*
X153847300Y-116170000D03*
X153847300Y-117440000D03*
X153847300Y-118710000D03*
X158774900Y-118710000D03*
X158774900Y-117440000D03*
X158774900Y-116170000D03*
X158774900Y-114900000D03*
X158774900Y-113630000D03*
X158774900Y-112360000D03*
X158774900Y-111090000D03*
%TD*%
D16*
%TO.C,R79*%
X147207600Y-94367700D03*
X148737600Y-94367700D03*
%TD*%
D18*
%TO.C,R13*%
X147237600Y-84167700D03*
X148707600Y-84167700D03*
%TD*%
D21*
%TO.C,Q17*%
X93606300Y-111655400D03*
X93606300Y-113555400D03*
X96116300Y-112605400D03*
%TD*%
D16*
%TO.C,R97*%
X125346200Y-119077700D03*
X126876200Y-119077700D03*
%TD*%
%TO.C,R68*%
X119201200Y-116362300D03*
X120731200Y-116362300D03*
%TD*%
D17*
%TO.C,D3*%
X163070950Y-79117300D03*
X164277450Y-79117300D03*
%TD*%
%TO.C,D1*%
X119368650Y-79117300D03*
X120575150Y-79117300D03*
%TD*%
D21*
%TO.C,Q6*%
X118898700Y-111627700D03*
X118898700Y-113527700D03*
X121408700Y-112577700D03*
%TD*%
D18*
%TO.C,R19*%
X93938800Y-108905400D03*
X95408800Y-108905400D03*
%TD*%
D16*
%TO.C,R81*%
X135273600Y-94367700D03*
X136803600Y-94367700D03*
%TD*%
D18*
%TO.C,R20*%
X106228800Y-108905400D03*
X107698800Y-108905400D03*
%TD*%
D16*
%TO.C,R74*%
X125223700Y-91667700D03*
X126753700Y-91667700D03*
%TD*%
D18*
%TO.C,R22*%
X125376200Y-108877700D03*
X126846200Y-108877700D03*
%TD*%
D32*
%TO.C,U9*%
X111128800Y-97580000D03*
X111128800Y-98850000D03*
X111128800Y-100120000D03*
X111128800Y-101390000D03*
X111128800Y-102660000D03*
X111128800Y-103930000D03*
X111128800Y-105200000D03*
X116335800Y-105200000D03*
X116335800Y-103930000D03*
X116335800Y-102660000D03*
X116335800Y-101390000D03*
X116335800Y-100120000D03*
X116335800Y-98850000D03*
X116335800Y-97580000D03*
%TD*%
D21*
%TO.C,Q10*%
X112998700Y-86896700D03*
X112998700Y-88796700D03*
X115508700Y-87846700D03*
%TD*%
D36*
%TO.C,R30*%
X194851500Y-126525500D03*
X194851500Y-124825500D03*
%TD*%
D24*
%TO.C,R42*%
X175650000Y-98600000D03*
X175650000Y-97070000D03*
%TD*%
D11*
%TO.C,J10*%
X103690700Y-94857700D03*
D10*
X101190700Y-94857700D03*
X98690700Y-94857700D03*
X96190700Y-94857700D03*
%TD*%
D36*
%TO.C,R29*%
X197101500Y-126525500D03*
X197101500Y-124825500D03*
%TD*%
D27*
%TO.C,D18*%
X82125000Y-118722300D03*
X84225000Y-118722300D03*
%TD*%
D28*
%TO.C,MH2*%
X224800000Y-63500000D03*
%TD*%
D16*
%TO.C,R75*%
X125223700Y-94367700D03*
X126753700Y-94367700D03*
%TD*%
D20*
%TO.C,R107*%
X206360000Y-132945000D03*
X204660000Y-132945000D03*
%TD*%
D45*
%TO.C,C5*%
X178051500Y-130865500D03*
X178051500Y-129305500D03*
%TD*%
D31*
%TO.C,R25*%
X188363400Y-100764900D03*
X188363400Y-102464900D03*
%TD*%
D21*
%TO.C,Q11*%
X146905100Y-86917700D03*
X146905100Y-88817700D03*
X149415100Y-87867700D03*
%TD*%
D46*
%TO.C,R63*%
X191900000Y-149120000D03*
X191900000Y-150680000D03*
%TD*%
D21*
%TO.C,Q4*%
X184688600Y-86917700D03*
X184688600Y-88817700D03*
X187198600Y-87867700D03*
%TD*%
D24*
%TO.C,R40*%
X188350000Y-98600000D03*
X188350000Y-97070000D03*
%TD*%
D28*
%TO.C,MH3*%
X63050000Y-149650000D03*
%TD*%
D31*
%TO.C,R23*%
X193355500Y-100764900D03*
X193355500Y-102464900D03*
%TD*%
D21*
%TO.C,Q14*%
X156781100Y-86917700D03*
X156781100Y-88817700D03*
X159291100Y-87867700D03*
%TD*%
%TO.C,Q3*%
X162936100Y-86917700D03*
X162936100Y-88817700D03*
X165446100Y-87867700D03*
%TD*%
D27*
%TO.C,D20*%
X102289500Y-99500000D03*
X104389500Y-99500000D03*
%TD*%
D23*
%TO.C,R36*%
X178051500Y-126241500D03*
X178051500Y-124771500D03*
%TD*%
D47*
%TO.C,U7*%
X149580000Y-155680000D03*
X141960000Y-155680000D03*
X147040000Y-155680000D03*
X152120000Y-155680000D03*
D48*
X135600000Y-153390000D03*
X163600000Y-153390000D03*
%TD*%
D24*
%TO.C,R52*%
X183391500Y-126271500D03*
X183391500Y-124741500D03*
%TD*%
D18*
%TO.C,R11*%
X113331200Y-84167700D03*
X114801200Y-84167700D03*
%TD*%
D21*
%TO.C,Q12*%
X134971100Y-86917700D03*
X134971100Y-88817700D03*
X137481100Y-87867700D03*
%TD*%
M02*
