%TF.GenerationSoftware,KiCad,Pcbnew,9.0.6*%
%TF.CreationDate,2026-03-25T11:14:48-07:00*%
%TF.ProjectId,MainRobotBoardTeensy,4d61696e-526f-4626-9f74-426f61726454,rev?*%
%TF.SameCoordinates,Original*%
%TF.FileFunction,Soldermask,Top*%
%TF.FilePolarity,Negative*%
%FSLAX46Y46*%
G04 Gerber Fmt 4.6, Leading zero omitted, Abs format (unit mm)*
G04 Created by KiCad (PCBNEW 9.0.6) date 2026-03-25 11:14:48*
%MOMM*%
%LPD*%
G01*
G04 APERTURE LIST*
G04 Aperture macros list*
%AMRoundRect*
0 Rectangle with rounded corners*
0 $1 Rounding radius*
0 $2 $3 $4 $5 $6 $7 $8 $9 X,Y pos of 4 corners*
0 Add a 4 corners polygon primitive as box body*
4,1,4,$2,$3,$4,$5,$6,$7,$8,$9,$2,$3,0*
0 Add four circle primitives for the rounded corners*
1,1,$1+$1,$2,$3*
1,1,$1+$1,$4,$5*
1,1,$1+$1,$6,$7*
1,1,$1+$1,$8,$9*
0 Add four rect primitives between the rounded corners*
20,1,$1+$1,$2,$3,$4,$5,0*
20,1,$1+$1,$4,$5,$6,$7,0*
20,1,$1+$1,$6,$7,$8,$9,0*
20,1,$1+$1,$8,$9,$2,$3,0*%
G04 Aperture macros list end*
%ADD10R,0.762000X0.863600*%
%ADD11RoundRect,0.102000X-0.520000X-0.510000X0.520000X-0.510000X0.520000X0.510000X-0.520000X0.510000X0*%
%ADD12RoundRect,0.102000X-0.430000X-0.490000X0.430000X-0.490000X0.430000X0.490000X-0.430000X0.490000X0*%
%ADD13RoundRect,0.102000X-0.700000X-0.500000X0.700000X-0.500000X0.700000X0.500000X-0.700000X0.500000X0*%
%ADD14RoundRect,0.102000X-0.550000X-0.500000X0.550000X-0.500000X0.550000X0.500000X-0.550000X0.500000X0*%
%ADD15RoundRect,0.102000X0.430000X0.490000X-0.430000X0.490000X-0.430000X-0.490000X0.430000X-0.490000X0*%
%ADD16R,1.100000X1.300000*%
%ADD17C,5.700000*%
%ADD18R,0.653199X0.549999*%
%ADD19RoundRect,0.250000X0.600000X0.725000X-0.600000X0.725000X-0.600000X-0.725000X0.600000X-0.725000X0*%
%ADD20O,1.700000X1.950000*%
%ADD21RoundRect,0.134250X-0.402750X-0.432750X0.402750X-0.432750X0.402750X0.432750X-0.402750X0.432750X0*%
%ADD22R,1.981200X0.558800*%
%ADD23RoundRect,0.250000X0.725000X-0.600000X0.725000X0.600000X-0.725000X0.600000X-0.725000X-0.600000X0*%
%ADD24O,1.950000X1.700000*%
%ADD25RoundRect,0.102000X-0.395000X-0.465000X0.395000X-0.465000X0.395000X0.465000X-0.395000X0.465000X0*%
%ADD26RoundRect,0.250000X0.600000X0.600000X-0.600000X0.600000X-0.600000X-0.600000X0.600000X-0.600000X0*%
%ADD27C,1.700000*%
%ADD28R,0.889000X0.812800*%
%ADD29RoundRect,0.250000X-0.725000X0.600000X-0.725000X-0.600000X0.725000X-0.600000X0.725000X0.600000X0*%
%ADD30RoundRect,0.250000X-0.600000X-0.725000X0.600000X-0.725000X0.600000X0.725000X-0.600000X0.725000X0*%
%ADD31C,1.600000*%
G04 APERTURE END LIST*
D10*
%TO.C,D2*%
X162127700Y-63130200D03*
X163372300Y-63130200D03*
%TD*%
D11*
%TO.C,R21*%
X151886000Y-120050000D03*
X153356000Y-120050000D03*
%TD*%
D12*
%TO.C,R7*%
X151505000Y-140630000D03*
X153035000Y-140630000D03*
%TD*%
D13*
%TO.C,Q9*%
X145593300Y-47372200D03*
X145593300Y-49272200D03*
X147793300Y-48322200D03*
%TD*%
D14*
%TO.C,R57*%
X140281700Y-125850000D03*
X141981700Y-125850000D03*
%TD*%
D11*
%TO.C,R34*%
X114700000Y-129125000D03*
X116170000Y-129125000D03*
%TD*%
D12*
%TO.C,R41*%
X146667700Y-68106500D03*
X148197700Y-68106500D03*
%TD*%
D13*
%TO.C,Q13*%
X145593300Y-76822200D03*
X145593300Y-78722200D03*
X147793300Y-77772200D03*
%TD*%
%TO.C,Q8*%
X95039400Y-102552700D03*
X95039400Y-104452700D03*
X97239400Y-103502700D03*
%TD*%
D15*
%TO.C,R3*%
X153672700Y-49676500D03*
X152142700Y-49676500D03*
%TD*%
D11*
%TO.C,R12*%
X152172700Y-52293300D03*
X153642700Y-52293300D03*
%TD*%
D16*
%TO.C,D9*%
X164900000Y-47300000D03*
X167000000Y-47300000D03*
%TD*%
D12*
%TO.C,R46*%
X151920000Y-107650000D03*
X153450000Y-107650000D03*
%TD*%
D14*
%TO.C,R56*%
X114650400Y-126425000D03*
X116350400Y-126425000D03*
%TD*%
D17*
%TO.C,MH1*%
X79500000Y-39050000D03*
%TD*%
D16*
%TO.C,D14*%
X158716200Y-76800000D03*
X160816200Y-76800000D03*
%TD*%
%TO.C,D12*%
X158150000Y-63150000D03*
X160250000Y-63150000D03*
%TD*%
D12*
%TO.C,R55*%
X94635000Y-134125200D03*
X96165000Y-134125200D03*
%TD*%
D18*
%TO.C,C2*%
X110235201Y-157826300D03*
X111038399Y-157826300D03*
%TD*%
D13*
%TO.C,Q15*%
X145593300Y-90872200D03*
X145593300Y-92772200D03*
X147793300Y-91822200D03*
%TD*%
D10*
%TO.C,D5*%
X162542700Y-137900000D03*
X163787300Y-137900000D03*
%TD*%
D12*
%TO.C,R43*%
X146667700Y-81900000D03*
X148197700Y-81900000D03*
%TD*%
D16*
%TO.C,D13*%
X165513800Y-76800000D03*
X167613800Y-76800000D03*
%TD*%
D11*
%TO.C,R18*%
X151886000Y-96093300D03*
X153356000Y-96093300D03*
%TD*%
D12*
%TO.C,R47*%
X114606000Y-150125000D03*
X116136000Y-150125000D03*
%TD*%
D17*
%TO.C,MH4*%
X174250000Y-155750000D03*
%TD*%
D19*
%TO.C,J4*%
X93100000Y-87025000D03*
D20*
X90600000Y-87025000D03*
X88100000Y-87025000D03*
%TD*%
D19*
%TO.C,J8*%
X165665000Y-96750000D03*
D20*
X163165000Y-96750000D03*
X160665000Y-96750000D03*
%TD*%
D16*
%TO.C,D15*%
X165513800Y-90850000D03*
X167613800Y-90850000D03*
%TD*%
D11*
%TO.C,R35*%
X114700000Y-132025000D03*
X116170000Y-132025000D03*
%TD*%
D10*
%TO.C,D4*%
X162542700Y-90830200D03*
X163787300Y-90830200D03*
%TD*%
D21*
%TO.C,C6*%
X110160000Y-137475000D03*
X111720000Y-137475000D03*
%TD*%
D12*
%TO.C,R45*%
X140496100Y-96114300D03*
X142026100Y-96114300D03*
%TD*%
D13*
%TO.C,Q1*%
X139421700Y-47372200D03*
X139421700Y-49272200D03*
X141621700Y-48322200D03*
%TD*%
D14*
%TO.C,R33*%
X151705600Y-125850000D03*
X153405600Y-125850000D03*
%TD*%
D22*
%TO.C,U3*%
X122197300Y-47162800D03*
X122197300Y-48432800D03*
X122197300Y-49702800D03*
X122197300Y-50972800D03*
X122197300Y-52242800D03*
X122197300Y-53512800D03*
X122197300Y-54782800D03*
X127124900Y-54782800D03*
X127124900Y-53512800D03*
X127124900Y-52242800D03*
X127124900Y-50972800D03*
X127124900Y-49702800D03*
X127124900Y-48432800D03*
X127124900Y-47162800D03*
%TD*%
D11*
%TO.C,R16*%
X152172700Y-82303300D03*
X153642700Y-82303300D03*
%TD*%
D23*
%TO.C,J12*%
X88100000Y-155500000D03*
D24*
X88100000Y-153000000D03*
X88100000Y-150500000D03*
X88100000Y-148000000D03*
%TD*%
D21*
%TO.C,C3*%
X98890000Y-49790000D03*
X100450000Y-49790000D03*
%TD*%
D11*
%TO.C,R15*%
X152172700Y-76509800D03*
X153642700Y-76509800D03*
%TD*%
D12*
%TO.C,R10*%
X94635000Y-97000000D03*
X96165000Y-97000000D03*
%TD*%
D19*
%TO.C,J6*%
X165665000Y-68600000D03*
D20*
X163165000Y-68600000D03*
X160665000Y-68600000D03*
%TD*%
D14*
%TO.C,R24*%
X146453300Y-54853400D03*
X148153300Y-54853400D03*
%TD*%
%TO.C,R26*%
X140281700Y-70766600D03*
X141981700Y-70766600D03*
%TD*%
%TO.C,R28*%
X140281700Y-84550000D03*
X141981700Y-84550000D03*
%TD*%
D16*
%TO.C,D10*%
X158102400Y-47350000D03*
X160202400Y-47350000D03*
%TD*%
D19*
%TO.C,J7*%
X165665000Y-82550000D03*
D20*
X163165000Y-82550000D03*
X160665000Y-82550000D03*
%TD*%
D12*
%TO.C,R4*%
X152142700Y-61666600D03*
X153672700Y-61666600D03*
%TD*%
D16*
%TO.C,D17*%
X158716200Y-137880000D03*
X160816200Y-137880000D03*
%TD*%
D19*
%TO.C,J3*%
X93050000Y-74350000D03*
D20*
X90550000Y-74350000D03*
X88050000Y-74350000D03*
%TD*%
D10*
%TO.C,D7*%
X88095400Y-121425200D03*
X89340000Y-121425200D03*
%TD*%
D13*
%TO.C,Q19*%
X139421700Y-117322200D03*
X139421700Y-119222200D03*
X141621700Y-118272200D03*
%TD*%
D12*
%TO.C,R5*%
X152142700Y-79406500D03*
X153672700Y-79406500D03*
%TD*%
D13*
%TO.C,Q20*%
X145593300Y-123360000D03*
X145593300Y-125260000D03*
X147793300Y-124310000D03*
%TD*%
%TO.C,Q18*%
X139421700Y-143880000D03*
X139421700Y-145780000D03*
X141621700Y-144830000D03*
%TD*%
D10*
%TO.C,D8*%
X88270400Y-97155400D03*
X89515000Y-97155400D03*
%TD*%
D12*
%TO.C,R53*%
X146667700Y-96114300D03*
X148197700Y-96114300D03*
%TD*%
%TO.C,R51*%
X140496100Y-68106500D03*
X142026100Y-68106500D03*
%TD*%
D16*
%TO.C,D16*%
X158716200Y-90850000D03*
X160816200Y-90850000D03*
%TD*%
D13*
%TO.C,Q5*%
X146300000Y-138230000D03*
X146300000Y-140130000D03*
X148500000Y-139180000D03*
%TD*%
D11*
%TO.C,R14*%
X152172700Y-67695500D03*
X153642700Y-67695500D03*
%TD*%
D13*
%TO.C,Q2*%
X139421700Y-61900000D03*
X139421700Y-63800000D03*
X141621700Y-62850000D03*
%TD*%
D12*
%TO.C,R49*%
X145905000Y-143580000D03*
X147435000Y-143580000D03*
%TD*%
D19*
%TO.C,J5*%
X165051200Y-52800000D03*
D20*
X162551200Y-52800000D03*
X160051200Y-52800000D03*
%TD*%
D13*
%TO.C,Q16*%
X133250000Y-90872200D03*
X133250000Y-92772200D03*
X135450000Y-91822200D03*
%TD*%
D12*
%TO.C,R50*%
X140496100Y-52272300D03*
X142026100Y-52272300D03*
%TD*%
%TO.C,R6*%
X151920000Y-93326500D03*
X153450000Y-93326500D03*
%TD*%
D14*
%TO.C,R32*%
X114650400Y-147475000D03*
X116350400Y-147475000D03*
%TD*%
%TO.C,R27*%
X146453300Y-84900000D03*
X148153300Y-84900000D03*
%TD*%
D12*
%TO.C,R8*%
X151920000Y-116988800D03*
X153450000Y-116988800D03*
%TD*%
D19*
%TO.C,J2*%
X93200000Y-62250000D03*
D20*
X90700000Y-62250000D03*
X88200000Y-62250000D03*
%TD*%
D25*
%TO.C,R1*%
X110350000Y-155628500D03*
X111990000Y-155628500D03*
%TD*%
D11*
%TO.C,R37*%
X114700000Y-137475000D03*
X116170000Y-137475000D03*
%TD*%
D12*
%TO.C,R48*%
X140496100Y-122916600D03*
X142026100Y-122916600D03*
%TD*%
%TO.C,R39*%
X152142700Y-54910000D03*
X153672700Y-54910000D03*
%TD*%
D11*
%TO.C,R17*%
X151886000Y-90559800D03*
X153356000Y-90559800D03*
%TD*%
D22*
%TO.C,U6*%
X122197300Y-109100000D03*
X122197300Y-110370000D03*
X122197300Y-111640000D03*
X122197300Y-112910000D03*
X122197300Y-114180000D03*
X122197300Y-115450000D03*
X122197300Y-116720000D03*
X127124900Y-116720000D03*
X127124900Y-115450000D03*
X127124900Y-114180000D03*
X127124900Y-112910000D03*
X127124900Y-111640000D03*
X127124900Y-110370000D03*
X127124900Y-109100000D03*
%TD*%
D10*
%TO.C,D6*%
X162542700Y-117300000D03*
X163787300Y-117300000D03*
%TD*%
D16*
%TO.C,D19*%
X158716200Y-117300000D03*
X160816200Y-117300000D03*
%TD*%
D12*
%TO.C,R44*%
X151920000Y-98860000D03*
X153450000Y-98860000D03*
%TD*%
D22*
%TO.C,U2*%
X102136200Y-153592800D03*
X102136200Y-154862800D03*
X102136200Y-156132800D03*
X102136200Y-157402800D03*
X107063800Y-157402800D03*
X107063800Y-156132800D03*
X107063800Y-154862800D03*
X107063800Y-153592800D03*
%TD*%
D26*
%TO.C,J11*%
X164900000Y-152850000D03*
D27*
X162360000Y-152850000D03*
X164900000Y-150310000D03*
X162360000Y-150310000D03*
X164900000Y-147770000D03*
X162360000Y-147770000D03*
X164900000Y-145230000D03*
X162360000Y-145230000D03*
%TD*%
D14*
%TO.C,R31*%
X151705600Y-104983400D03*
X153405600Y-104983400D03*
%TD*%
D13*
%TO.C,Q7*%
X95039400Y-126825200D03*
X95039400Y-128725200D03*
X97239400Y-127775200D03*
%TD*%
D21*
%TO.C,C4*%
X98890000Y-61725000D03*
X100450000Y-61725000D03*
%TD*%
D16*
%TO.C,D11*%
X165513800Y-63200000D03*
X167613800Y-63200000D03*
%TD*%
D12*
%TO.C,R38*%
X146667700Y-52272300D03*
X148197700Y-52272300D03*
%TD*%
D22*
%TO.C,U4*%
X122197300Y-76350000D03*
X122197300Y-77620000D03*
X122197300Y-78890000D03*
X122197300Y-80160000D03*
X122197300Y-81430000D03*
X122197300Y-82700000D03*
X122197300Y-83970000D03*
X127124900Y-83970000D03*
X127124900Y-82700000D03*
X127124900Y-81430000D03*
X127124900Y-80160000D03*
X127124900Y-78890000D03*
X127124900Y-77620000D03*
X127124900Y-76350000D03*
%TD*%
D28*
%TO.C,C1*%
X98550000Y-154697700D03*
X98550000Y-153402300D03*
%TD*%
D11*
%TO.C,R13*%
X152172700Y-64681100D03*
X153642700Y-64681100D03*
%TD*%
D13*
%TO.C,Q17*%
X139421700Y-138230000D03*
X139421700Y-140130000D03*
X141621700Y-139180000D03*
%TD*%
D10*
%TO.C,D3*%
X162542700Y-76830200D03*
X163787300Y-76830200D03*
%TD*%
%TO.C,D1*%
X161928900Y-47300000D03*
X163173500Y-47300000D03*
%TD*%
D13*
%TO.C,Q6*%
X145593300Y-117322200D03*
X145593300Y-119222200D03*
X147793300Y-118272200D03*
%TD*%
D12*
%TO.C,R9*%
X94635000Y-121425200D03*
X96165000Y-121425200D03*
%TD*%
D11*
%TO.C,R19*%
X151565000Y-143680000D03*
X153035000Y-143680000D03*
%TD*%
%TO.C,R20*%
X151665000Y-137880000D03*
X153135000Y-137880000D03*
%TD*%
%TO.C,R22*%
X151886000Y-122937600D03*
X153356000Y-122937600D03*
%TD*%
D13*
%TO.C,Q10*%
X133250000Y-47372200D03*
X133250000Y-49272200D03*
X135450000Y-48322200D03*
%TD*%
D12*
%TO.C,R54*%
X94635000Y-110005400D03*
X96165000Y-110005400D03*
%TD*%
D14*
%TO.C,R30*%
X140281700Y-98916600D03*
X141981700Y-98916600D03*
%TD*%
D12*
%TO.C,R42*%
X152142700Y-85200000D03*
X153672700Y-85200000D03*
%TD*%
D29*
%TO.C,J10*%
X165765000Y-121950000D03*
D24*
X165765000Y-124450000D03*
X165765000Y-126950000D03*
X165765000Y-129450000D03*
%TD*%
D30*
%TO.C,J9*%
X160665000Y-107150000D03*
D20*
X163165000Y-107150000D03*
X165665000Y-107150000D03*
%TD*%
D14*
%TO.C,R29*%
X146453300Y-98916600D03*
X148153300Y-98916600D03*
%TD*%
D16*
%TO.C,D18*%
X165513800Y-137980000D03*
X167613800Y-137980000D03*
%TD*%
D17*
%TO.C,MH2*%
X174250000Y-39050000D03*
%TD*%
D21*
%TO.C,C5*%
X110160000Y-134775000D03*
X111720000Y-134775000D03*
%TD*%
D14*
%TO.C,R25*%
X146453300Y-70766600D03*
X148153300Y-70766600D03*
%TD*%
D13*
%TO.C,Q11*%
X145593300Y-62000000D03*
X145593300Y-63900000D03*
X147793300Y-62950000D03*
%TD*%
D12*
%TO.C,R2*%
X110384000Y-153430700D03*
X111914000Y-153430700D03*
%TD*%
D13*
%TO.C,Q4*%
X139421700Y-90872200D03*
X139421700Y-92772200D03*
X141621700Y-91822200D03*
%TD*%
D12*
%TO.C,R40*%
X152142700Y-70710000D03*
X153672700Y-70710000D03*
%TD*%
D17*
%TO.C,MH3*%
X79500000Y-155750000D03*
%TD*%
D14*
%TO.C,R23*%
X140281700Y-54853400D03*
X141981700Y-54853400D03*
%TD*%
D13*
%TO.C,Q14*%
X133250000Y-76822200D03*
X133250000Y-78722200D03*
X135450000Y-77772200D03*
%TD*%
%TO.C,Q3*%
X139421700Y-76822200D03*
X139421700Y-78722200D03*
X141621700Y-77772200D03*
%TD*%
D16*
%TO.C,D20*%
X165513800Y-117300000D03*
X167613800Y-117300000D03*
%TD*%
D11*
%TO.C,R36*%
X114700000Y-134775000D03*
X116170000Y-134775000D03*
%TD*%
D23*
%TO.C,J14*%
X88040000Y-136075200D03*
D24*
X88040000Y-133575200D03*
X88040000Y-131075200D03*
X88040000Y-128575200D03*
X88040000Y-126075200D03*
%TD*%
D31*
%TO.C,U1*%
X134970000Y-160275000D03*
X134970000Y-157735000D03*
X134970000Y-155195000D03*
X134970000Y-152655000D03*
X134970000Y-150115000D03*
X134970000Y-147575000D03*
X134970000Y-145035000D03*
X134970000Y-142495000D03*
X134970000Y-139955000D03*
X134970000Y-137415000D03*
X134970000Y-134875000D03*
X134970000Y-132335000D03*
X134970000Y-129795000D03*
X134970000Y-127255000D03*
X132430000Y-127255000D03*
X129890000Y-127255000D03*
X127350000Y-127255000D03*
X124810000Y-127255000D03*
X122270000Y-127255000D03*
X119730000Y-127255000D03*
X119730000Y-129795000D03*
X119730000Y-132335000D03*
X119730000Y-134875000D03*
X119730000Y-137415000D03*
X119730000Y-139955000D03*
X119730000Y-142495000D03*
X119730000Y-145035000D03*
X119730000Y-147575000D03*
X119730000Y-150115000D03*
X119730000Y-152655000D03*
X119730000Y-155195000D03*
X119730000Y-157735000D03*
X119730000Y-160275000D03*
X122270000Y-157735000D03*
X122270000Y-132335000D03*
X122270000Y-134875000D03*
X124810000Y-132335000D03*
X124810000Y-134875000D03*
X127350000Y-132335000D03*
X127350000Y-134875000D03*
X129890000Y-132335000D03*
X129890000Y-134875000D03*
X132430000Y-132335000D03*
X132430000Y-134875000D03*
%TD*%
D12*
%TO.C,R52*%
X140496100Y-82200000D03*
X142026100Y-82200000D03*
%TD*%
D11*
%TO.C,R11*%
X152172700Y-47059800D03*
X153642700Y-47059800D03*
%TD*%
D13*
%TO.C,Q12*%
X133250000Y-61950000D03*
X133250000Y-63850000D03*
X135450000Y-62900000D03*
%TD*%
D19*
%TO.C,J1*%
X93200000Y-50315000D03*
D20*
X90700000Y-50315000D03*
X88200000Y-50315000D03*
%TD*%
D23*
%TO.C,J13*%
X88515000Y-111305400D03*
D24*
X88515000Y-108805400D03*
X88515000Y-106305400D03*
X88515000Y-103805400D03*
X88515000Y-101305400D03*
%TD*%
M02*
