M48
; DRILL file {KiCad 9.0.6} date 2026-03-25T11:14:48-0700
; FORMAT={-:-/ absolute / inch / decimal}
; #@! TF.CreationDate,2026-03-25T11:14:48-07:00
; #@! TF.GenerationSoftware,Kicad,Pcbnew,9.0.6
; #@! TF.FileFunction,Plated,1,2,PTH
FMAT,2
INCH
; #@! TA.AperFunction,Plated,PTH,ViaDrill
T1C0.0118
; #@! TA.AperFunction,Plated,PTH,ComponentDrill
T2C0.0374
; #@! TA.AperFunction,Plated,PTH,ComponentDrill
T3C0.0394
; #@! TA.AperFunction,Plated,PTH,ComponentDrill
T4C0.0433
; #@! TA.AperFunction,Plated,PTH,ComponentDrill
T5C0.1260
%
G90
G05
T1
X3.3715Y-4.2869
X3.3909Y-5.9869
X3.3912Y-5.3894
X3.4188Y-5.1976
X3.6398Y-4.8228
X3.6479Y-5.8977
X3.8091Y-5.8051
X3.8806Y-2.5027
X3.8823Y-5.3894
X3.8976Y-5.8051
X4.1178Y-6.083
X4.1185Y-6.1839
X4.234Y-5.409
X4.2734Y-6.041
X4.3102Y-4.4645
X4.3513Y-4.3738
X4.3513Y-5.2344
X4.3576Y-6.0849
X4.3582Y-6.1741
X4.3741Y-5.3567
X4.3805Y-4.2333
X4.3863Y-4.3754
X4.4173Y-6.0843
X4.4488Y-5.2972
X4.4528Y-5.9134
X4.4554Y-4.3095
X4.466Y-4.9712
X4.4685Y-6.0157
X4.4705Y-5.8602
X4.5512Y-5.8602
X4.6168Y-5.9313
X4.6231Y-5.3203
X4.6398Y-5.3839
X4.6722Y-4.6101
X4.7023Y-2.0368
X4.7227Y-4.3524
X4.7344Y-2.0691
X4.7371Y-4.5748
X4.7375Y-4.3855
X4.7414Y-1.9359
X4.8087Y-2.189
X4.8087Y-2.7304
X4.8109Y-2.1568
X4.8228Y-4.6398
X4.868Y-3.0535
X4.8682Y-3.2298
X4.8695Y-3.1018
X4.8946Y-3.2054
X4.8957Y-3.2894
X4.8957Y-4.6732
X4.8996Y-4.9331
X4.9164Y-2.268
X4.9185Y-5.1266
X4.9718Y-4.7777
X4.9833Y-4.8175
X5.0151Y-4.8522
X5.023Y-3.5397
X5.0289Y-2.7304
X5.0299Y-2.268
X5.0315Y-5.1354
X5.0349Y-3.9026
X5.0473Y-2.8487
X5.0593Y-4.9148
X5.065Y-4.7067
X5.065Y-4.7992
X5.0679Y-3.151
X5.0803Y-3.8543
X5.1252Y-5.071
X5.1476Y-4.8287
X5.1476Y-4.8878
X5.1659Y-1.887
X5.1693Y-3.2579
X5.1693Y-3.3858
X5.1713Y-2.4016
X5.1713Y-3.1004
X5.1771Y-2.2376
X5.1771Y-2.9543
X5.1803Y-4.8206
X5.2486Y-5.0881
X5.2636Y-5.6531
X5.2892Y-1.7966
X5.2892Y-3.2139
X5.2972Y-3.4252
X5.3017Y-3.1083
X5.3265Y-2.5266
X5.4022Y-3.0557
X5.4046Y-2.5433
X5.4065Y-5.1944
X5.4094Y-1.9744
X5.4094Y-4.7047
X5.4109Y-3.6553
X5.4134Y-3.5728
X5.4331Y-4.8819
X5.4331Y-4.9469
X5.4508Y-3.2264
X5.4724Y-3.7776
X5.4831Y-3.3358
X5.489Y-3.6524
X5.4897Y-4.8041
X5.5166Y-3.8517
X5.5236Y-2.1173
X5.5236Y-2.6342
X5.5236Y-2.8548
X5.5237Y-5.2531
X5.5351Y-4.7173
X5.5392Y-1.9639
X5.5483Y-3.197
X5.563Y-3.8408
X5.5653Y-4.796
X5.5736Y-3.6739
X5.5736Y-4.7142
X5.5787Y-3.1181
X5.5916Y-2.058
X5.6084Y-3.0163
X5.6409Y-1.7949
X5.6409Y-2.268
X5.6409Y-3.5237
X5.6409Y-5.6206
X5.6514Y-1.9212
X5.6514Y-2.5183
X5.6514Y-3.0361
X5.6514Y-3.6553
X5.6514Y-4.6373
X5.6514Y-5.7361
X5.6516Y-3.2382
X5.6535Y-4.9035
X5.654Y-2.0637
X5.6594Y-4.7283
X5.6693Y-3.6102
X5.6831Y-4.7913
X5.6869Y-3.3024
X5.716Y-5.4795
X5.7229Y-5.134
X5.7284Y-3.7825
X5.732Y-4.9315
X5.7553Y-2.7335
X5.7581Y-4.7909
X5.7581Y-5.1266
X5.7581Y-5.995
X5.7927Y-2.1113
X5.8034Y-4.7143
X5.8287Y-3.1201
X5.8356Y-2.8288
X5.8476Y-4.9575
X5.8674Y-4.8126
X5.8901Y-1.9212
X5.8901Y-2.5183
X5.8901Y-3.0773
X5.8901Y-4.6963
X5.8901Y-4.927
X5.8902Y-3.9065
X5.8942Y-2.1763
X5.8942Y-3.3085
X5.9033Y-5.476
X5.9523Y-1.82
X5.9753Y-2.3672
X5.9777Y-5.4717
X5.9865Y-3.073
X5.994Y-3.6041
X5.9945Y-4.9054
X6.1177Y-2.4689
X6.1189Y-1.845
X6.1977Y-3.5684
X6.1977Y-4.6032
X6.1977Y-5.4006
X6.2174Y-5.5303
X6.2271Y-6.0014
X6.2344Y-3.0861
X6.2951Y-3.1157
X6.3123Y-3.0677
X6.3443Y-1.7843
X6.3493Y-2.507
X6.3565Y-1.9344
X6.3568Y-3.0842
X6.368Y-3.6137
X6.3729Y-4.6543
X6.4252Y-4.4094
X6.4488Y-3.6476
X6.4615Y-2.422
X6.4615Y-4.6986
X6.4615Y-5.6206
X6.4708Y-2.4992
X6.4857Y-4.5574
X6.5157Y-2.6161
X6.5394Y-2.9134
X6.5531Y-4.4094
X6.574Y-3.6577
X6.5787Y-5.5103
X6.5788Y-1.7922
X6.5788Y-2.6097
X6.5984Y-3.0906
X6.5985Y-5.3035
X6.6012Y-5.6957
X6.6528Y-5.6286
X6.6628Y-3.3085
X6.6693Y-2.5965
X6.6815Y-2.8461
X6.696Y-5.9674
X6.7051Y-4.0021
X6.7287Y-5.126
X6.7431Y-3.4241
X6.7717Y-3.0925
X6.8132Y-5.1582
T2
X3.4661Y-4.9636
X3.4661Y-5.062
X3.4661Y-5.1604
X3.4661Y-5.2589
X3.4661Y-5.3573
X3.4665Y-2.9272
X3.4685Y-3.4262
X3.4685Y-5.8268
X3.4685Y-5.9252
X3.4685Y-6.0236
X3.4685Y-6.122
X3.4724Y-1.9809
X3.4724Y-2.4508
X3.4848Y-3.9884
X3.4848Y-4.0868
X3.4848Y-4.1853
X3.4848Y-4.2837
X3.4848Y-4.3821
X3.565Y-2.9272
X3.5669Y-3.4262
X3.5709Y-1.9809
X3.5709Y-2.4508
X3.6634Y-2.9272
X3.6654Y-3.4262
X3.6693Y-1.9809
X3.6693Y-2.4508
X6.3012Y-2.0787
X6.3254Y-2.7008
X6.3254Y-3.25
X6.3254Y-3.8091
X6.3254Y-4.2185
X6.3997Y-2.0787
X6.4238Y-2.7008
X6.4238Y-3.25
X6.4238Y-3.8091
X6.4238Y-4.2185
X6.4981Y-2.0787
X6.5222Y-2.7008
X6.5222Y-3.25
X6.5222Y-3.8091
X6.5222Y-4.2185
X6.5262Y-4.8012
X6.5262Y-4.8996
X6.5262Y-4.998
X6.5262Y-5.0965
T3
X6.3921Y-5.7177
X6.3921Y-5.8177
X6.3921Y-5.9177
X6.3921Y-6.0177
X6.4921Y-5.7177
X6.4921Y-5.8177
X6.4921Y-5.9177
X6.4921Y-6.0177
T4
X4.7138Y-5.01
X4.7138Y-5.11
X4.7138Y-5.21
X4.7138Y-5.31
X4.7138Y-5.41
X4.7138Y-5.51
X4.7138Y-5.61
X4.7138Y-5.71
X4.7138Y-5.81
X4.7138Y-5.91
X4.7138Y-6.01
X4.7138Y-6.11
X4.7138Y-6.21
X4.7138Y-6.31
X4.8138Y-5.01
X4.8138Y-5.21
X4.8138Y-5.31
X4.8138Y-6.21
X4.9138Y-5.01
X4.9138Y-5.21
X4.9138Y-5.31
X5.0138Y-5.01
X5.0138Y-5.21
X5.0138Y-5.31
X5.1138Y-5.01
X5.1138Y-5.21
X5.1138Y-5.31
X5.2138Y-5.01
X5.2138Y-5.21
X5.2138Y-5.31
X5.3138Y-5.01
X5.3138Y-5.11
X5.3138Y-5.21
X5.3138Y-5.31
X5.3138Y-5.41
X5.3138Y-5.51
X5.3138Y-5.61
X5.3138Y-5.71
X5.3138Y-5.81
X5.3138Y-5.91
X5.3138Y-6.01
X5.3138Y-6.11
X5.3138Y-6.21
X5.3138Y-6.31
T5
X3.1299Y-1.5374
X3.1299Y-6.1319
X6.8602Y-1.5374
X6.8602Y-6.1319
M30
