%TF.GenerationSoftware,KiCad,Pcbnew,9.0.6*%
%TF.CreationDate,2026-03-25T11:14:48-07:00*%
%TF.ProjectId,MainRobotBoardTeensy,4d61696e-526f-4626-9f74-426f61726454,rev?*%
%TF.SameCoordinates,Original*%
%TF.FileFunction,Soldermask,Bot*%
%TF.FilePolarity,Negative*%
%FSLAX46Y46*%
G04 Gerber Fmt 4.6, Leading zero omitted, Abs format (unit mm)*
G04 Created by KiCad (PCBNEW 9.0.6) date 2026-03-25 11:14:48*
%MOMM*%
%LPD*%
G01*
G04 APERTURE LIST*
G04 Aperture macros list*
%AMRoundRect*
0 Rectangle with rounded corners*
0 $1 Rounding radius*
0 $2 $3 $4 $5 $6 $7 $8 $9 X,Y pos of 4 corners*
0 Add a 4 corners polygon primitive as box body*
4,1,4,$2,$3,$4,$5,$6,$7,$8,$9,$2,$3,0*
0 Add four circle primitives for the rounded corners*
1,1,$1+$1,$2,$3*
1,1,$1+$1,$4,$5*
1,1,$1+$1,$6,$7*
1,1,$1+$1,$8,$9*
0 Add four rect primitives between the rounded corners*
20,1,$1+$1,$2,$3,$4,$5,0*
20,1,$1+$1,$4,$5,$6,$7,0*
20,1,$1+$1,$6,$7,$8,$9,0*
20,1,$1+$1,$8,$9,$2,$3,0*%
G04 Aperture macros list end*
%ADD10C,5.700000*%
%ADD11RoundRect,0.250000X0.600000X0.725000X-0.600000X0.725000X-0.600000X-0.725000X0.600000X-0.725000X0*%
%ADD12O,1.700000X1.950000*%
%ADD13RoundRect,0.250000X0.725000X-0.600000X0.725000X0.600000X-0.725000X0.600000X-0.725000X-0.600000X0*%
%ADD14O,1.950000X1.700000*%
%ADD15RoundRect,0.250000X0.600000X0.600000X-0.600000X0.600000X-0.600000X-0.600000X0.600000X-0.600000X0*%
%ADD16C,1.700000*%
%ADD17RoundRect,0.250000X-0.725000X0.600000X-0.725000X-0.600000X0.725000X-0.600000X0.725000X0.600000X0*%
%ADD18RoundRect,0.250000X-0.600000X-0.725000X0.600000X-0.725000X0.600000X0.725000X-0.600000X0.725000X0*%
%ADD19C,1.600000*%
G04 APERTURE END LIST*
D10*
%TO.C,MH1*%
X79500000Y-39050000D03*
%TD*%
%TO.C,MH4*%
X174250000Y-155750000D03*
%TD*%
D11*
%TO.C,J4*%
X93100000Y-87025000D03*
D12*
X90600000Y-87025000D03*
X88100000Y-87025000D03*
%TD*%
D11*
%TO.C,J8*%
X165665000Y-96750000D03*
D12*
X163165000Y-96750000D03*
X160665000Y-96750000D03*
%TD*%
D13*
%TO.C,J12*%
X88100000Y-155500000D03*
D14*
X88100000Y-153000000D03*
X88100000Y-150500000D03*
X88100000Y-148000000D03*
%TD*%
D11*
%TO.C,J6*%
X165665000Y-68600000D03*
D12*
X163165000Y-68600000D03*
X160665000Y-68600000D03*
%TD*%
D11*
%TO.C,J7*%
X165665000Y-82550000D03*
D12*
X163165000Y-82550000D03*
X160665000Y-82550000D03*
%TD*%
D11*
%TO.C,J3*%
X93050000Y-74350000D03*
D12*
X90550000Y-74350000D03*
X88050000Y-74350000D03*
%TD*%
D11*
%TO.C,J5*%
X165051200Y-52800000D03*
D12*
X162551200Y-52800000D03*
X160051200Y-52800000D03*
%TD*%
D11*
%TO.C,J2*%
X93200000Y-62250000D03*
D12*
X90700000Y-62250000D03*
X88200000Y-62250000D03*
%TD*%
D15*
%TO.C,J11*%
X164900000Y-152850000D03*
D16*
X162360000Y-152850000D03*
X164900000Y-150310000D03*
X162360000Y-150310000D03*
X164900000Y-147770000D03*
X162360000Y-147770000D03*
X164900000Y-145230000D03*
X162360000Y-145230000D03*
%TD*%
D17*
%TO.C,J10*%
X165765000Y-121950000D03*
D14*
X165765000Y-124450000D03*
X165765000Y-126950000D03*
X165765000Y-129450000D03*
%TD*%
D18*
%TO.C,J9*%
X160665000Y-107150000D03*
D12*
X163165000Y-107150000D03*
X165665000Y-107150000D03*
%TD*%
D10*
%TO.C,MH2*%
X174250000Y-39050000D03*
%TD*%
%TO.C,MH3*%
X79500000Y-155750000D03*
%TD*%
D13*
%TO.C,J14*%
X88040000Y-136075200D03*
D14*
X88040000Y-133575200D03*
X88040000Y-131075200D03*
X88040000Y-128575200D03*
X88040000Y-126075200D03*
%TD*%
D19*
%TO.C,U1*%
X134970000Y-160275000D03*
X134970000Y-157735000D03*
X134970000Y-155195000D03*
X134970000Y-152655000D03*
X134970000Y-150115000D03*
X134970000Y-147575000D03*
X134970000Y-145035000D03*
X134970000Y-142495000D03*
X134970000Y-139955000D03*
X134970000Y-137415000D03*
X134970000Y-134875000D03*
X134970000Y-132335000D03*
X134970000Y-129795000D03*
X134970000Y-127255000D03*
X132430000Y-127255000D03*
X129890000Y-127255000D03*
X127350000Y-127255000D03*
X124810000Y-127255000D03*
X122270000Y-127255000D03*
X119730000Y-127255000D03*
X119730000Y-129795000D03*
X119730000Y-132335000D03*
X119730000Y-134875000D03*
X119730000Y-137415000D03*
X119730000Y-139955000D03*
X119730000Y-142495000D03*
X119730000Y-145035000D03*
X119730000Y-147575000D03*
X119730000Y-150115000D03*
X119730000Y-152655000D03*
X119730000Y-155195000D03*
X119730000Y-157735000D03*
X119730000Y-160275000D03*
X122270000Y-157735000D03*
X122270000Y-132335000D03*
X122270000Y-134875000D03*
X124810000Y-132335000D03*
X124810000Y-134875000D03*
X127350000Y-132335000D03*
X127350000Y-134875000D03*
X129890000Y-132335000D03*
X129890000Y-134875000D03*
X132430000Y-132335000D03*
X132430000Y-134875000D03*
%TD*%
D11*
%TO.C,J1*%
X93200000Y-50315000D03*
D12*
X90700000Y-50315000D03*
X88200000Y-50315000D03*
%TD*%
D13*
%TO.C,J13*%
X88515000Y-111305400D03*
D14*
X88515000Y-108805400D03*
X88515000Y-106305400D03*
X88515000Y-103805400D03*
X88515000Y-101305400D03*
%TD*%
M02*
