M48
; DRILL file {KiCad 9.0.6} date 2026-02-10T13:29:08-0800
; FORMAT={-:-/ absolute / inch / decimal}
; #@! TF.CreationDate,2026-02-10T13:29:08-08:00
; #@! TF.GenerationSoftware,Kicad,Pcbnew,9.0.6
; #@! TF.FileFunction,Plated,1,2,PTH
FMAT,2
INCH
; #@! TA.AperFunction,Plated,PTH,ViaDrill
T1C0.0157
; #@! TA.AperFunction,Plated,PTH,ComponentDrill
T2C0.0394
; #@! TA.AperFunction,Plated,PTH,ComponentDrill
T3C0.0984
%
G90
G05
T1
X5.0807Y-4.4488
X5.1642Y-4.5836
X5.168Y-4.1034
X5.1772Y-3.9707
X5.2579Y-4.4429
X5.3192Y-3.6796
X5.3479Y-4.1469
X5.3574Y-4.494
X5.4075Y-4.4724
X5.4291Y-4.6988
X5.4838Y-4.3143
X5.4843Y-3.7047
X5.53Y-4.319
X5.5342Y-4.1151
X5.5709Y-4.2343
X5.6043Y-4.4469
X5.6371Y-4.2695
X5.6969Y-4.4587
X5.7421Y-4.1043
X5.8106Y-3.591
X5.8106Y-4.444
X5.841Y-3.9743
X5.8413Y-4.1307
X5.8484Y-4.0512
X5.8839Y-4.4843
X6.0Y-4.2736
X6.0Y-4.4921
X6.0Y-4.5846
X6.1104Y-4.4549
X6.2307Y-3.689
X6.2307Y-4.4963
T2
X5.6488Y-4.9254
X5.6488Y-5.0254
X5.7488Y-4.9254
X5.7488Y-5.0254
X5.8488Y-4.9254
X5.8488Y-5.0254
X5.9488Y-4.9254
X5.9488Y-5.0254
T3
X4.9639Y-3.3015
X4.9639Y-4.955
X6.6174Y-3.3015
X6.6174Y-4.955
M30
