%TF.GenerationSoftware,KiCad,Pcbnew,9.0.6*%
%TF.CreationDate,2026-02-10T13:29:08-08:00*%
%TF.ProjectId,LegEncoderBoard,4c656745-6e63-46f6-9465-72426f617264,rev?*%
%TF.SameCoordinates,Original*%
%TF.FileFunction,Copper,L2,Bot*%
%TF.FilePolarity,Positive*%
%FSLAX46Y46*%
G04 Gerber Fmt 4.6, Leading zero omitted, Abs format (unit mm)*
G04 Created by KiCad (PCBNEW 9.0.6) date 2026-02-10 13:29:08*
%MOMM*%
%LPD*%
G01*
G04 APERTURE LIST*
G04 Aperture macros list*
%AMRoundRect*
0 Rectangle with rounded corners*
0 $1 Rounding radius*
0 $2 $3 $4 $5 $6 $7 $8 $9 X,Y pos of 4 corners*
0 Add a 4 corners polygon primitive as box body*
4,1,4,$2,$3,$4,$5,$6,$7,$8,$9,$2,$3,0*
0 Add four circle primitives for the rounded corners*
1,1,$1+$1,$2,$3*
1,1,$1+$1,$4,$5*
1,1,$1+$1,$6,$7*
1,1,$1+$1,$8,$9*
0 Add four rect primitives between the rounded corners*
20,1,$1+$1,$2,$3,$4,$5,0*
20,1,$1+$1,$4,$5,$6,$7,0*
20,1,$1+$1,$6,$7,$8,$9,0*
20,1,$1+$1,$8,$9,$2,$3,0*%
G04 Aperture macros list end*
%TA.AperFunction,ComponentPad*%
%ADD10C,5.000000*%
%TD*%
%TA.AperFunction,ComponentPad*%
%ADD11RoundRect,0.250000X-0.600000X0.600000X-0.600000X-0.600000X0.600000X-0.600000X0.600000X0.600000X0*%
%TD*%
%TA.AperFunction,ComponentPad*%
%ADD12C,1.700000*%
%TD*%
%TA.AperFunction,ViaPad*%
%ADD13C,0.800000*%
%TD*%
%TA.AperFunction,Conductor*%
%ADD14C,0.250000*%
%TD*%
G04 APERTURE END LIST*
D10*
%TO.P,H2,1*%
%TO.N,N/C*%
X168083100Y-83858200D03*
%TD*%
%TO.P,H1,1*%
%TO.N,N/C*%
X126083100Y-83858200D03*
%TD*%
D11*
%TO.P,J1,1,Pin_1*%
%TO.N,VIN*%
X151100000Y-125105700D03*
D12*
%TO.P,J1,2,Pin_2*%
%TO.N,GND*%
X151100000Y-127645700D03*
%TO.P,J1,3,Pin_3*%
%TO.N,/A_OUT*%
X148560000Y-125105700D03*
%TO.P,J1,4,Pin_4*%
%TO.N,GND*%
X148560000Y-127645700D03*
%TO.P,J1,5,Pin_5*%
%TO.N,/B_OUT*%
X146020000Y-125105700D03*
%TO.P,J1,6,Pin_6*%
%TO.N,GND*%
X146020000Y-127645700D03*
%TO.P,J1,7,Pin_7*%
%TO.N,/I_OUT*%
X143480000Y-125105700D03*
%TO.P,J1,8,Pin_8*%
%TO.N,GND*%
X143480000Y-127645700D03*
%TD*%
D10*
%TO.P,H4,1*%
%TO.N,N/C*%
X168083100Y-125858200D03*
%TD*%
%TO.P,H3,1*%
%TO.N,N/C*%
X126083100Y-125858200D03*
%TD*%
D13*
%TO.N,VIN*%
X148369400Y-104919000D03*
%TO.N,GND*%
X149450000Y-113900000D03*
X148550000Y-102900000D03*
X133550000Y-112850000D03*
X152400000Y-114100000D03*
X129050000Y-113000000D03*
X141500000Y-107550000D03*
X142350000Y-112950000D03*
X152400000Y-116450000D03*
X137900000Y-119350000D03*
X145850000Y-104250000D03*
X152400000Y-108550000D03*
X144700000Y-113250000D03*
X137350000Y-113600000D03*
%TO.N,A_BUF*%
X131170400Y-116423300D03*
X131267600Y-104227300D03*
%TO.N,B_BUF*%
X155205200Y-113155200D03*
X148361600Y-100948000D03*
%TO.N,I_BUF*%
X140569100Y-104523500D03*
X140462500Y-109703300D03*
X135835400Y-105331200D03*
%TO.N,/I_LED_ANODE*%
X147589800Y-91211300D03*
X147589800Y-112877800D03*
%TO.N,/A_LED_ANODE*%
X136079200Y-114148300D03*
X135108700Y-93462400D03*
%TO.N,/A_LED_CATHODE*%
X139289000Y-109583600D03*
X139300000Y-94100000D03*
%TO.N,/B_LED_ANODE*%
X158259200Y-93700000D03*
X158259200Y-114206900D03*
%TO.N,/B_OUT*%
X131501000Y-100854700D03*
%TO.N,/I_OUT*%
X143183000Y-108445500D03*
%TD*%
D14*
%TO.N,VIN*%
X151100000Y-125105700D02*
X151100000Y-107649600D01*
X151100000Y-107649600D02*
X148369400Y-104919000D01*
%TO.N,GND*%
X137350000Y-113600000D02*
X137350000Y-118800000D01*
X137350000Y-118800000D02*
X137900000Y-119350000D01*
X152400000Y-114100000D02*
X152400000Y-116450000D01*
%TO.N,A_BUF*%
X131170400Y-104324500D02*
X131267600Y-104227300D01*
X131170400Y-116423300D02*
X131170400Y-104324500D01*
%TO.N,B_BUF*%
X155205200Y-107791600D02*
X148361600Y-100948000D01*
X155205200Y-113155200D02*
X155205200Y-107791600D01*
%TO.N,I_BUF*%
X139855400Y-110310400D02*
X138938800Y-110310400D01*
X140462500Y-109703300D02*
X140462500Y-104630100D01*
X138938800Y-110310400D02*
X135835400Y-107207000D01*
X140462500Y-109703300D02*
X139855400Y-110310400D01*
X135835400Y-107207000D02*
X135835400Y-105331200D01*
X140462500Y-104630100D02*
X140569100Y-104523500D01*
%TO.N,/I_LED_ANODE*%
X147589800Y-91211300D02*
X147589800Y-112877800D01*
%TO.N,/A_LED_ANODE*%
X135108700Y-93462400D02*
X135108700Y-113177800D01*
X135108700Y-113177800D02*
X136079200Y-114148300D01*
%TO.N,/A_LED_CATHODE*%
X139289000Y-94079600D02*
X139289000Y-109583600D01*
%TO.N,/B_LED_ANODE*%
X158259200Y-93700000D02*
X158259200Y-114206900D01*
X158259200Y-93675900D02*
X158259200Y-93700000D01*
%TO.N,/B_OUT*%
X131501100Y-103433100D02*
X131501000Y-103433100D01*
X142940500Y-126282400D02*
X131994300Y-115336200D01*
X131501000Y-103433100D02*
X131501000Y-100854700D01*
X131994300Y-103926300D02*
X131501100Y-103433100D01*
X146020000Y-125105700D02*
X144843300Y-126282400D01*
X131994300Y-115336200D02*
X131994300Y-103926300D01*
X144843300Y-126282400D02*
X142940500Y-126282400D01*
%TO.N,/I_OUT*%
X143183000Y-108445500D02*
X143480000Y-108742500D01*
X143480000Y-108742500D02*
X143480000Y-125105700D01*
%TD*%
%TA.AperFunction,Conductor*%
%TO.N,GND*%
G36*
X147361444Y-125759699D02*
G01*
X147400486Y-125804756D01*
X147404951Y-125813520D01*
X147529890Y-125985486D01*
X147680213Y-126135809D01*
X147852179Y-126260748D01*
X147852181Y-126260749D01*
X147852184Y-126260751D01*
X147861493Y-126265494D01*
X147912290Y-126313466D01*
X147929087Y-126381287D01*
X147906552Y-126447422D01*
X147861505Y-126486460D01*
X147852446Y-126491076D01*
X147852440Y-126491080D01*
X147798282Y-126530427D01*
X147798282Y-126530428D01*
X148430591Y-127162737D01*
X148367007Y-127179775D01*
X148252993Y-127245601D01*
X148159901Y-127338693D01*
X148094075Y-127452707D01*
X148077037Y-127516291D01*
X147444728Y-126883982D01*
X147444727Y-126883982D01*
X147405380Y-126938140D01*
X147400483Y-126947751D01*
X147352506Y-126998545D01*
X147284684Y-127015338D01*
X147218550Y-126992798D01*
X147179516Y-126947748D01*
X147174626Y-126938152D01*
X147135270Y-126883982D01*
X147135269Y-126883982D01*
X146502962Y-127516290D01*
X146485925Y-127452707D01*
X146420099Y-127338693D01*
X146327007Y-127245601D01*
X146212993Y-127179775D01*
X146149408Y-127162737D01*
X146781716Y-126530428D01*
X146727547Y-126491073D01*
X146727547Y-126491072D01*
X146718500Y-126486463D01*
X146667706Y-126438488D01*
X146650912Y-126370666D01*
X146673451Y-126304532D01*
X146718508Y-126265493D01*
X146727816Y-126260751D01*
X146816515Y-126196308D01*
X146899786Y-126135809D01*
X146899788Y-126135806D01*
X146899792Y-126135804D01*
X147050104Y-125985492D01*
X147050106Y-125985488D01*
X147050109Y-125985486D01*
X147175048Y-125813520D01*
X147175047Y-125813520D01*
X147175051Y-125813516D01*
X147179514Y-125804754D01*
X147227488Y-125753959D01*
X147295308Y-125737163D01*
X147361444Y-125759699D01*
G37*
%TD.AperFunction*%
%TA.AperFunction,Conductor*%
G36*
X149780397Y-125964551D02*
G01*
X149811686Y-126014472D01*
X149815184Y-126025029D01*
X149815187Y-126025036D01*
X149850069Y-126081588D01*
X149907288Y-126174356D01*
X150031344Y-126298412D01*
X150180666Y-126390514D01*
X150252770Y-126414407D01*
X150310214Y-126454178D01*
X150337038Y-126518694D01*
X150337197Y-126529343D01*
X150970591Y-127162737D01*
X150907007Y-127179775D01*
X150792993Y-127245601D01*
X150699901Y-127338693D01*
X150634075Y-127452707D01*
X150617037Y-127516291D01*
X149984728Y-126883982D01*
X149984727Y-126883982D01*
X149945380Y-126938140D01*
X149940483Y-126947751D01*
X149892506Y-126998545D01*
X149824684Y-127015338D01*
X149758550Y-126992798D01*
X149719516Y-126947748D01*
X149714626Y-126938152D01*
X149675270Y-126883982D01*
X149675269Y-126883982D01*
X149042962Y-127516290D01*
X149025925Y-127452707D01*
X148960099Y-127338693D01*
X148867007Y-127245601D01*
X148752993Y-127179775D01*
X148689409Y-127162737D01*
X149321716Y-126530428D01*
X149267547Y-126491073D01*
X149267547Y-126491072D01*
X149258500Y-126486463D01*
X149207706Y-126438488D01*
X149190912Y-126370666D01*
X149213451Y-126304532D01*
X149258508Y-126265493D01*
X149267816Y-126260751D01*
X149356515Y-126196308D01*
X149439786Y-126135809D01*
X149439788Y-126135806D01*
X149439792Y-126135804D01*
X149590104Y-125985492D01*
X149593660Y-125980596D01*
X149648987Y-125937930D01*
X149718600Y-125931948D01*
X149780397Y-125964551D01*
G37*
%TD.AperFunction*%
%TA.AperFunction,Conductor*%
G36*
X147640509Y-71863581D02*
G01*
X148762489Y-71901909D01*
X148766615Y-71902121D01*
X149886630Y-71978732D01*
X149890812Y-71979090D01*
X151007565Y-72093896D01*
X151011678Y-72094390D01*
X152123860Y-72247256D01*
X152127988Y-72247895D01*
X153234274Y-72438638D01*
X153238433Y-72439429D01*
X153454933Y-72484418D01*
X154337543Y-72667826D01*
X154341597Y-72668741D01*
X155432323Y-72934543D01*
X155436329Y-72935592D01*
X156516720Y-73238303D01*
X156517295Y-73238467D01*
X156518233Y-73238736D01*
X156521516Y-73239727D01*
X157553939Y-73567404D01*
X157554392Y-73567549D01*
X157601489Y-73582852D01*
X157604674Y-73583936D01*
X158589175Y-73933827D01*
X158589917Y-73934094D01*
X158672108Y-73964009D01*
X158675126Y-73965154D01*
X159618593Y-74337210D01*
X159619553Y-74337593D01*
X159728788Y-74381726D01*
X159731719Y-74382954D01*
X160639230Y-74777142D01*
X160639960Y-74777463D01*
X160770396Y-74835536D01*
X160773020Y-74836745D01*
X161648167Y-75252947D01*
X161649175Y-75253431D01*
X161795384Y-75324742D01*
X161798025Y-75326070D01*
X162643737Y-75764283D01*
X162644512Y-75764690D01*
X162802782Y-75848844D01*
X162805341Y-75850243D01*
X163623315Y-76310167D01*
X163624541Y-76310866D01*
X163791412Y-76407209D01*
X163793840Y-76408648D01*
X164585811Y-76890256D01*
X164587069Y-76891031D01*
X164760021Y-76999103D01*
X164762206Y-77000502D01*
X165529664Y-77503878D01*
X165530862Y-77504675D01*
X165707392Y-77623746D01*
X165709548Y-77625234D01*
X166453089Y-78150082D01*
X166454374Y-78151003D01*
X166632494Y-78280415D01*
X166634477Y-78281886D01*
X167355021Y-78828292D01*
X167356351Y-78829316D01*
X167534179Y-78968250D01*
X167535979Y-78969685D01*
X168234055Y-79537612D01*
X168235406Y-79538729D01*
X168395570Y-79673123D01*
X168411321Y-79686339D01*
X168413108Y-79687868D01*
X169088903Y-80277131D01*
X169090382Y-80278441D01*
X169262970Y-80433840D01*
X169264581Y-80435316D01*
X169837545Y-80970427D01*
X169918619Y-81046145D01*
X169920120Y-81047571D01*
X170088086Y-81209774D01*
X170089629Y-81211291D01*
X170721907Y-81843569D01*
X170723424Y-81845112D01*
X170885627Y-82013078D01*
X170887053Y-82014579D01*
X171497858Y-82668591D01*
X171499384Y-82670256D01*
X171654757Y-82842816D01*
X171656067Y-82844295D01*
X172245330Y-83520090D01*
X172246859Y-83521877D01*
X172394428Y-83697742D01*
X172395608Y-83699171D01*
X172963493Y-84397194D01*
X172964993Y-84399076D01*
X173103848Y-84576803D01*
X173104939Y-84578220D01*
X173651291Y-85298693D01*
X173652805Y-85300733D01*
X173782163Y-85478779D01*
X173783149Y-85480156D01*
X174307955Y-86223638D01*
X174309452Y-86225806D01*
X174428479Y-86402270D01*
X174429365Y-86403602D01*
X174932660Y-87170936D01*
X174934131Y-87173234D01*
X175042152Y-87346105D01*
X175042942Y-87347387D01*
X175524550Y-88139358D01*
X175525989Y-88141786D01*
X175622332Y-88308657D01*
X175623031Y-88309883D01*
X176082955Y-89127857D01*
X176084354Y-89130416D01*
X176168403Y-89288487D01*
X176169016Y-89289654D01*
X176607115Y-90135149D01*
X176608468Y-90137839D01*
X176679748Y-90283985D01*
X176680278Y-90285087D01*
X176949309Y-90850776D01*
X176995851Y-90948641D01*
X177096407Y-91160078D01*
X177097706Y-91162899D01*
X177155671Y-91293092D01*
X177156125Y-91294125D01*
X177550235Y-92201458D01*
X177551472Y-92204410D01*
X177595605Y-92313645D01*
X177595988Y-92314605D01*
X177968044Y-93258072D01*
X177969212Y-93261152D01*
X177999082Y-93343221D01*
X177999400Y-93344106D01*
X178349262Y-94328524D01*
X178350353Y-94331730D01*
X178365586Y-94378611D01*
X178365845Y-94379418D01*
X178693457Y-95411636D01*
X178694462Y-95414965D01*
X178694731Y-95415903D01*
X178694938Y-95416631D01*
X178997595Y-96496825D01*
X178998667Y-96500921D01*
X179264448Y-97591558D01*
X179265380Y-97595689D01*
X179493770Y-98694766D01*
X179494561Y-98698925D01*
X179685299Y-99805183D01*
X179685947Y-99809367D01*
X179838803Y-100921476D01*
X179839308Y-100925680D01*
X179954107Y-102042369D01*
X179954468Y-102046588D01*
X180031075Y-103166532D01*
X180031292Y-103170761D01*
X180069618Y-104292690D01*
X180069690Y-104296923D01*
X180069690Y-105419476D01*
X180069618Y-105423709D01*
X180031292Y-106545638D01*
X180031075Y-106549867D01*
X179954468Y-107669811D01*
X179954107Y-107674030D01*
X179839308Y-108790719D01*
X179838803Y-108794923D01*
X179685947Y-109907032D01*
X179685299Y-109911216D01*
X179494561Y-111017474D01*
X179493770Y-111021633D01*
X179265380Y-112120710D01*
X179264448Y-112124841D01*
X178998667Y-113215478D01*
X178997595Y-113219574D01*
X178694938Y-114299767D01*
X178694731Y-114300495D01*
X178694462Y-114301433D01*
X178693457Y-114304762D01*
X178365845Y-115336980D01*
X178365586Y-115337787D01*
X178350353Y-115384668D01*
X178349262Y-115387874D01*
X177999400Y-116372292D01*
X177999082Y-116373177D01*
X177969212Y-116455246D01*
X177968044Y-116458326D01*
X177595988Y-117401793D01*
X177595605Y-117402753D01*
X177551472Y-117511988D01*
X177550235Y-117514940D01*
X177156125Y-118422273D01*
X177155671Y-118423306D01*
X177097706Y-118553499D01*
X177096407Y-118556320D01*
X176680278Y-119431311D01*
X176679748Y-119432413D01*
X176608468Y-119578559D01*
X176607115Y-119581249D01*
X176169016Y-120426744D01*
X176168403Y-120427911D01*
X176084354Y-120585982D01*
X176082955Y-120588541D01*
X175623031Y-121406515D01*
X175622332Y-121407741D01*
X175525989Y-121574612D01*
X175524550Y-121577040D01*
X175042942Y-122369011D01*
X175042152Y-122370293D01*
X174934131Y-122543164D01*
X174932660Y-122545462D01*
X174429365Y-123312796D01*
X174428479Y-123314128D01*
X174309452Y-123490592D01*
X174307955Y-123492760D01*
X173783149Y-124236242D01*
X173782163Y-124237619D01*
X173652805Y-124415665D01*
X173651291Y-124417705D01*
X173104939Y-125138178D01*
X173103848Y-125139595D01*
X172964993Y-125317322D01*
X172963468Y-125319235D01*
X172395627Y-126017205D01*
X172394428Y-126018656D01*
X172246859Y-126194521D01*
X172245330Y-126196308D01*
X171656067Y-126872103D01*
X171654757Y-126873582D01*
X171499384Y-127046142D01*
X171497858Y-127047807D01*
X170887053Y-127701819D01*
X170885627Y-127703320D01*
X170723424Y-127871286D01*
X170721907Y-127872829D01*
X170089629Y-128505107D01*
X170088086Y-128506624D01*
X169920120Y-128668827D01*
X169918619Y-128670253D01*
X169264607Y-129281058D01*
X169262942Y-129282584D01*
X169090382Y-129437957D01*
X169088903Y-129439267D01*
X168413108Y-130028530D01*
X168411321Y-130030059D01*
X168235456Y-130177628D01*
X168234005Y-130178827D01*
X167536035Y-130746668D01*
X167534122Y-130748193D01*
X167356395Y-130887048D01*
X167354978Y-130888139D01*
X166634505Y-131434491D01*
X166632465Y-131436005D01*
X166454419Y-131565363D01*
X166453042Y-131566349D01*
X165709560Y-132091155D01*
X165707392Y-132092652D01*
X165530928Y-132211679D01*
X165529596Y-132212565D01*
X164762262Y-132715860D01*
X164759964Y-132717331D01*
X164587093Y-132825352D01*
X164585811Y-132826142D01*
X163793840Y-133307750D01*
X163791412Y-133309189D01*
X163624541Y-133405532D01*
X163623315Y-133406231D01*
X162805341Y-133866155D01*
X162802782Y-133867554D01*
X162644711Y-133951603D01*
X162643544Y-133952216D01*
X161798049Y-134390315D01*
X161795359Y-134391668D01*
X161649213Y-134462948D01*
X161648111Y-134463478D01*
X160773120Y-134879607D01*
X160770299Y-134880906D01*
X160640106Y-134938871D01*
X160639073Y-134939325D01*
X159731740Y-135333435D01*
X159728788Y-135334672D01*
X159619553Y-135378805D01*
X159618593Y-135379188D01*
X158675126Y-135751244D01*
X158672046Y-135752412D01*
X158589977Y-135782282D01*
X158589092Y-135782600D01*
X157604674Y-136132462D01*
X157601468Y-136133553D01*
X157554587Y-136148786D01*
X157553780Y-136149045D01*
X156521562Y-136476657D01*
X156518233Y-136477662D01*
X156517295Y-136477931D01*
X156516567Y-136478138D01*
X155436374Y-136780795D01*
X155432278Y-136781867D01*
X154341641Y-137047648D01*
X154337510Y-137048580D01*
X153238433Y-137276970D01*
X153234274Y-137277761D01*
X152128016Y-137468499D01*
X152123832Y-137469147D01*
X151011723Y-137622003D01*
X151007519Y-137622508D01*
X149890830Y-137737307D01*
X149886611Y-137737668D01*
X148766667Y-137814275D01*
X148762438Y-137814492D01*
X147640510Y-137852818D01*
X147636277Y-137852890D01*
X146513723Y-137852890D01*
X146509490Y-137852818D01*
X145387561Y-137814492D01*
X145383332Y-137814275D01*
X144263388Y-137737668D01*
X144259169Y-137737307D01*
X143142480Y-137622508D01*
X143138276Y-137622003D01*
X142026167Y-137469147D01*
X142021983Y-137468499D01*
X140915725Y-137277761D01*
X140911566Y-137276970D01*
X139812489Y-137048580D01*
X139808358Y-137047648D01*
X138717721Y-136781867D01*
X138713625Y-136780795D01*
X137633431Y-136478138D01*
X137632703Y-136477931D01*
X137631765Y-136477662D01*
X137628436Y-136476657D01*
X136596218Y-136149045D01*
X136595411Y-136148786D01*
X136548530Y-136133553D01*
X136545324Y-136132462D01*
X135560906Y-135782600D01*
X135560021Y-135782282D01*
X135477952Y-135752412D01*
X135474872Y-135751244D01*
X134531405Y-135379188D01*
X134530445Y-135378805D01*
X134421210Y-135334672D01*
X134418258Y-135333435D01*
X133510925Y-134939325D01*
X133509892Y-134938871D01*
X133454493Y-134914206D01*
X133379674Y-134880894D01*
X133376906Y-134879619D01*
X133067576Y-134732509D01*
X132501887Y-134463478D01*
X132500785Y-134462948D01*
X132354639Y-134391668D01*
X132351949Y-134390315D01*
X131797340Y-134102940D01*
X131506411Y-133952193D01*
X131505339Y-133951630D01*
X131458656Y-133926808D01*
X131347216Y-133867554D01*
X131344657Y-133866155D01*
X130526683Y-133406231D01*
X130525457Y-133405532D01*
X130358586Y-133309189D01*
X130356158Y-133307750D01*
X129564187Y-132826142D01*
X129562905Y-132825352D01*
X129390034Y-132717331D01*
X129387736Y-132715860D01*
X128620402Y-132212565D01*
X128619070Y-132211679D01*
X128442606Y-132092652D01*
X128440438Y-132091155D01*
X127696956Y-131566349D01*
X127695579Y-131565363D01*
X127517533Y-131436005D01*
X127515493Y-131434491D01*
X126795020Y-130888139D01*
X126793603Y-130887048D01*
X126615846Y-130748169D01*
X126613994Y-130746693D01*
X125915971Y-130178808D01*
X125914542Y-130177628D01*
X125738677Y-130030059D01*
X125736890Y-130028530D01*
X125061095Y-129439267D01*
X125059616Y-129437957D01*
X124887056Y-129282584D01*
X124885391Y-129281058D01*
X124579847Y-128995700D01*
X124231371Y-128670246D01*
X124229878Y-128668827D01*
X124061912Y-128506624D01*
X124060369Y-128505107D01*
X123428091Y-127872829D01*
X123426574Y-127871286D01*
X123264371Y-127703320D01*
X123262945Y-127701819D01*
X122652116Y-127047781D01*
X122650614Y-127046142D01*
X122495241Y-126873582D01*
X122493931Y-126872103D01*
X121904668Y-126196308D01*
X121903139Y-126194521D01*
X121853874Y-126135809D01*
X121755529Y-126018606D01*
X121754412Y-126017255D01*
X121487919Y-125689691D01*
X123082600Y-125689691D01*
X123082600Y-126026708D01*
X123120331Y-126361581D01*
X123120333Y-126361597D01*
X123195323Y-126690153D01*
X123195327Y-126690165D01*
X123306632Y-127008254D01*
X123452852Y-127311883D01*
X123452854Y-127311886D01*
X123632154Y-127597239D01*
X123842275Y-127860723D01*
X124080577Y-128099025D01*
X124344061Y-128309146D01*
X124629414Y-128488446D01*
X124933049Y-128634669D01*
X125171948Y-128718263D01*
X125251134Y-128745972D01*
X125251146Y-128745976D01*
X125579706Y-128820967D01*
X125914592Y-128858699D01*
X125914593Y-128858700D01*
X125914596Y-128858700D01*
X126251607Y-128858700D01*
X126251607Y-128858699D01*
X126586494Y-128820967D01*
X126915054Y-128745976D01*
X127233151Y-128634669D01*
X127536786Y-128488446D01*
X127822139Y-128309146D01*
X128085623Y-128099025D01*
X128323925Y-127860723D01*
X128534046Y-127597239D01*
X128713346Y-127311886D01*
X128859569Y-127008251D01*
X128970876Y-126690154D01*
X129045867Y-126361594D01*
X129083600Y-126026704D01*
X129083600Y-125689696D01*
X129045867Y-125354806D01*
X128970876Y-125026246D01*
X128859569Y-124708149D01*
X128713346Y-124404514D01*
X128534046Y-124119161D01*
X128323925Y-123855677D01*
X128085623Y-123617375D01*
X127822139Y-123407254D01*
X127536786Y-123227954D01*
X127536783Y-123227952D01*
X127233154Y-123081732D01*
X126915065Y-122970427D01*
X126915053Y-122970423D01*
X126586497Y-122895433D01*
X126586481Y-122895431D01*
X126251608Y-122857700D01*
X126251604Y-122857700D01*
X125914596Y-122857700D01*
X125914591Y-122857700D01*
X125579718Y-122895431D01*
X125579702Y-122895433D01*
X125251146Y-122970423D01*
X125251134Y-122970427D01*
X124933045Y-123081732D01*
X124629416Y-123227952D01*
X124344062Y-123407253D01*
X124080577Y-123617374D01*
X123842274Y-123855677D01*
X123632153Y-124119162D01*
X123452852Y-124404516D01*
X123306632Y-124708145D01*
X123195327Y-125026234D01*
X123195323Y-125026246D01*
X123120333Y-125354802D01*
X123120331Y-125354818D01*
X123082600Y-125689691D01*
X121487919Y-125689691D01*
X121186485Y-125319179D01*
X121185050Y-125317379D01*
X121046116Y-125139551D01*
X121045092Y-125138221D01*
X120498686Y-124417676D01*
X120497193Y-124415665D01*
X120490640Y-124406646D01*
X120367803Y-124237574D01*
X120366849Y-124236242D01*
X120359555Y-124225909D01*
X119842034Y-123492748D01*
X119840546Y-123490592D01*
X119784333Y-123407253D01*
X119721475Y-123314062D01*
X119720678Y-123312864D01*
X119217302Y-122545406D01*
X119215903Y-122543221D01*
X119107831Y-122370269D01*
X119107056Y-122369011D01*
X118625448Y-121577040D01*
X118624009Y-121574612D01*
X118527666Y-121407741D01*
X118526967Y-121406515D01*
X118067043Y-120588541D01*
X118065644Y-120585982D01*
X117981490Y-120427712D01*
X117981083Y-120426937D01*
X117542871Y-119581225D01*
X117541530Y-119578559D01*
X117470250Y-119432413D01*
X117469720Y-119431311D01*
X117053545Y-118556220D01*
X117052336Y-118553596D01*
X116994263Y-118423160D01*
X116993942Y-118422430D01*
X116599754Y-117514919D01*
X116598526Y-117511988D01*
X116554393Y-117402753D01*
X116554010Y-117401793D01*
X116181954Y-116458326D01*
X116180809Y-116455308D01*
X116150889Y-116373103D01*
X116150683Y-116372530D01*
X116137204Y-116334604D01*
X130269900Y-116334604D01*
X130269900Y-116511995D01*
X130304503Y-116685958D01*
X130304506Y-116685967D01*
X130372383Y-116849840D01*
X130372390Y-116849853D01*
X130470935Y-116997334D01*
X130470938Y-116997338D01*
X130596361Y-117122761D01*
X130596365Y-117122764D01*
X130743846Y-117221309D01*
X130743859Y-117221316D01*
X130866763Y-117272223D01*
X130907734Y-117289194D01*
X130907736Y-117289194D01*
X130907741Y-117289196D01*
X131081704Y-117323799D01*
X131081707Y-117323800D01*
X131081709Y-117323800D01*
X131259093Y-117323800D01*
X131259094Y-117323799D01*
X131317082Y-117312264D01*
X131433058Y-117289196D01*
X131433061Y-117289194D01*
X131433066Y-117289194D01*
X131596947Y-117221313D01*
X131744435Y-117122764D01*
X131869864Y-116997335D01*
X131968413Y-116849847D01*
X132036294Y-116685966D01*
X132061246Y-116560523D01*
X132093630Y-116498613D01*
X132154346Y-116464039D01*
X132224116Y-116467778D01*
X132270544Y-116497034D01*
X142413038Y-126639529D01*
X142446523Y-126700852D01*
X142441539Y-126770544D01*
X142425676Y-126800095D01*
X142325376Y-126938146D01*
X142228904Y-127127482D01*
X142163242Y-127329569D01*
X142163242Y-127329572D01*
X142130000Y-127539453D01*
X142130000Y-127751946D01*
X142163242Y-127961827D01*
X142163242Y-127961830D01*
X142228904Y-128163917D01*
X142325375Y-128353250D01*
X142364728Y-128407416D01*
X142997036Y-127775107D01*
X143014075Y-127838693D01*
X143079901Y-127952707D01*
X143172993Y-128045799D01*
X143287007Y-128111625D01*
X143350590Y-128128662D01*
X142718282Y-128760969D01*
X142718282Y-128760970D01*
X142772449Y-128800324D01*
X142961782Y-128896795D01*
X143163870Y-128962457D01*
X143373754Y-128995700D01*
X143586246Y-128995700D01*
X143796127Y-128962457D01*
X143796130Y-128962457D01*
X143998217Y-128896795D01*
X144187554Y-128800322D01*
X144241716Y-128760970D01*
X144241717Y-128760970D01*
X143609408Y-128128662D01*
X143672993Y-128111625D01*
X143787007Y-128045799D01*
X143880099Y-127952707D01*
X143945925Y-127838693D01*
X143962962Y-127775109D01*
X144595270Y-128407417D01*
X144595270Y-128407416D01*
X144634622Y-128353254D01*
X144639514Y-128343654D01*
X144687488Y-128292857D01*
X144755308Y-128276061D01*
X144821444Y-128298597D01*
X144860486Y-128343654D01*
X144865375Y-128353250D01*
X144904728Y-128407416D01*
X145537037Y-127775108D01*
X145554075Y-127838693D01*
X145619901Y-127952707D01*
X145712993Y-128045799D01*
X145827007Y-128111625D01*
X145890590Y-128128662D01*
X145258282Y-128760969D01*
X145258282Y-128760970D01*
X145312449Y-128800324D01*
X145501782Y-128896795D01*
X145703870Y-128962457D01*
X145913754Y-128995700D01*
X146126246Y-128995700D01*
X146336127Y-128962457D01*
X146336130Y-128962457D01*
X146538217Y-128896795D01*
X146727554Y-128800322D01*
X146781716Y-128760970D01*
X146781717Y-128760970D01*
X146149408Y-128128662D01*
X146212993Y-128111625D01*
X146327007Y-128045799D01*
X146420099Y-127952707D01*
X146485925Y-127838693D01*
X146502962Y-127775108D01*
X147135270Y-128407417D01*
X147135270Y-128407416D01*
X147174622Y-128353254D01*
X147179514Y-128343654D01*
X147227488Y-128292857D01*
X147295308Y-128276061D01*
X147361444Y-128298597D01*
X147400486Y-128343654D01*
X147405375Y-128353250D01*
X147444728Y-128407416D01*
X148077036Y-127775107D01*
X148094075Y-127838693D01*
X148159901Y-127952707D01*
X148252993Y-128045799D01*
X148367007Y-128111625D01*
X148430590Y-128128662D01*
X147798282Y-128760969D01*
X147798282Y-128760970D01*
X147852449Y-128800324D01*
X148041782Y-128896795D01*
X148243870Y-128962457D01*
X148453754Y-128995700D01*
X148666246Y-128995700D01*
X148876127Y-128962457D01*
X148876130Y-128962457D01*
X149078217Y-128896795D01*
X149267554Y-128800322D01*
X149321716Y-128760970D01*
X149321717Y-128760970D01*
X148689408Y-128128662D01*
X148752993Y-128111625D01*
X148867007Y-128045799D01*
X148960099Y-127952707D01*
X149025925Y-127838693D01*
X149042962Y-127775109D01*
X149675270Y-128407417D01*
X149675270Y-128407416D01*
X149714622Y-128353254D01*
X149719514Y-128343654D01*
X149767488Y-128292857D01*
X149835308Y-128276061D01*
X149901444Y-128298597D01*
X149940486Y-128343654D01*
X149945375Y-128353250D01*
X149984728Y-128407416D01*
X150617036Y-127775107D01*
X150634075Y-127838693D01*
X150699901Y-127952707D01*
X150792993Y-128045799D01*
X150907007Y-128111625D01*
X150970590Y-128128662D01*
X150338282Y-128760969D01*
X150338282Y-128760970D01*
X150392449Y-128800324D01*
X150581782Y-128896795D01*
X150783870Y-128962457D01*
X150993754Y-128995700D01*
X151206246Y-128995700D01*
X151416127Y-128962457D01*
X151416130Y-128962457D01*
X151618217Y-128896795D01*
X151807554Y-128800322D01*
X151861716Y-128760970D01*
X151861717Y-128760970D01*
X151229408Y-128128662D01*
X151292993Y-128111625D01*
X151407007Y-128045799D01*
X151500099Y-127952707D01*
X151565925Y-127838693D01*
X151582962Y-127775108D01*
X152215270Y-128407417D01*
X152215270Y-128407416D01*
X152254622Y-128353254D01*
X152351095Y-128163917D01*
X152416757Y-127961830D01*
X152416757Y-127961827D01*
X152450000Y-127751946D01*
X152450000Y-127539453D01*
X152416757Y-127329572D01*
X152416757Y-127329569D01*
X152351095Y-127127482D01*
X152254624Y-126938149D01*
X152215270Y-126883982D01*
X152215269Y-126883982D01*
X151582962Y-127516290D01*
X151565925Y-127452707D01*
X151500099Y-127338693D01*
X151407007Y-127245601D01*
X151292993Y-127179775D01*
X151229409Y-127162737D01*
X151865889Y-126526255D01*
X151876977Y-126473468D01*
X151926027Y-126423710D01*
X151947222Y-126414409D01*
X152019334Y-126390514D01*
X152168656Y-126298412D01*
X152292712Y-126174356D01*
X152384814Y-126025034D01*
X152439999Y-125858497D01*
X152450500Y-125755709D01*
X152450500Y-125689691D01*
X165082600Y-125689691D01*
X165082600Y-126026708D01*
X165120331Y-126361581D01*
X165120333Y-126361597D01*
X165195323Y-126690153D01*
X165195327Y-126690165D01*
X165306632Y-127008254D01*
X165452852Y-127311883D01*
X165452854Y-127311886D01*
X165632154Y-127597239D01*
X165842275Y-127860723D01*
X166080577Y-128099025D01*
X166344061Y-128309146D01*
X166629414Y-128488446D01*
X166933049Y-128634669D01*
X167171948Y-128718263D01*
X167251134Y-128745972D01*
X167251146Y-128745976D01*
X167579706Y-128820967D01*
X167914592Y-128858699D01*
X167914593Y-128858700D01*
X167914596Y-128858700D01*
X168251607Y-128858700D01*
X168251607Y-128858699D01*
X168586494Y-128820967D01*
X168915054Y-128745976D01*
X169233151Y-128634669D01*
X169536786Y-128488446D01*
X169822139Y-128309146D01*
X170085623Y-128099025D01*
X170323925Y-127860723D01*
X170534046Y-127597239D01*
X170713346Y-127311886D01*
X170859569Y-127008251D01*
X170970876Y-126690154D01*
X171045867Y-126361594D01*
X171083600Y-126026704D01*
X171083600Y-125689696D01*
X171045867Y-125354806D01*
X170970876Y-125026246D01*
X170859569Y-124708149D01*
X170713346Y-124404514D01*
X170534046Y-124119161D01*
X170323925Y-123855677D01*
X170085623Y-123617375D01*
X169822139Y-123407254D01*
X169536786Y-123227954D01*
X169536783Y-123227952D01*
X169233154Y-123081732D01*
X168915065Y-122970427D01*
X168915053Y-122970423D01*
X168586497Y-122895433D01*
X168586481Y-122895431D01*
X168251608Y-122857700D01*
X168251604Y-122857700D01*
X167914596Y-122857700D01*
X167914591Y-122857700D01*
X167579718Y-122895431D01*
X167579702Y-122895433D01*
X167251146Y-122970423D01*
X167251134Y-122970427D01*
X166933045Y-123081732D01*
X166629416Y-123227952D01*
X166344062Y-123407253D01*
X166080577Y-123617374D01*
X165842274Y-123855677D01*
X165632153Y-124119162D01*
X165452852Y-124404516D01*
X165306632Y-124708145D01*
X165195327Y-125026234D01*
X165195323Y-125026246D01*
X165120333Y-125354802D01*
X165120331Y-125354818D01*
X165082600Y-125689691D01*
X152450500Y-125689691D01*
X152450499Y-124455692D01*
X152444593Y-124397880D01*
X152439999Y-124352903D01*
X152439998Y-124352900D01*
X152437669Y-124345871D01*
X152384814Y-124186366D01*
X152292712Y-124037044D01*
X152168656Y-123912988D01*
X152073253Y-123854143D01*
X152019336Y-123820887D01*
X152019331Y-123820885D01*
X152017862Y-123820398D01*
X151852797Y-123765701D01*
X151848965Y-123765309D01*
X151836894Y-123764076D01*
X151772203Y-123737678D01*
X151732053Y-123680496D01*
X151725500Y-123640718D01*
X151725500Y-107717341D01*
X151725501Y-107717320D01*
X151725501Y-107587991D01*
X151701464Y-107467155D01*
X151701463Y-107467149D01*
X151654312Y-107353315D01*
X151585858Y-107250867D01*
X151585855Y-107250863D01*
X149306219Y-104971227D01*
X149272734Y-104909904D01*
X149269900Y-104883546D01*
X149269900Y-104830306D01*
X149269899Y-104830304D01*
X149235296Y-104656341D01*
X149235293Y-104656332D01*
X149167416Y-104492459D01*
X149167409Y-104492446D01*
X149068864Y-104344965D01*
X149068861Y-104344961D01*
X148943438Y-104219538D01*
X148943434Y-104219535D01*
X148795953Y-104120990D01*
X148795940Y-104120983D01*
X148632067Y-104053106D01*
X148632058Y-104053103D01*
X148458094Y-104018500D01*
X148458091Y-104018500D01*
X148339300Y-104018500D01*
X148272261Y-103998815D01*
X148226506Y-103946011D01*
X148215300Y-103894500D01*
X148215300Y-101985652D01*
X148234985Y-101918613D01*
X148287789Y-101872858D01*
X148356947Y-101862914D01*
X148420503Y-101891939D01*
X148426981Y-101897971D01*
X154543381Y-108014371D01*
X154576866Y-108075694D01*
X154579700Y-108102052D01*
X154579700Y-112455838D01*
X154560015Y-112522877D01*
X154543381Y-112543519D01*
X154505738Y-112581161D01*
X154505735Y-112581165D01*
X154407190Y-112728646D01*
X154407183Y-112728659D01*
X154339306Y-112892532D01*
X154339303Y-112892541D01*
X154304700Y-113066504D01*
X154304700Y-113243895D01*
X154339303Y-113417858D01*
X154339306Y-113417867D01*
X154407183Y-113581740D01*
X154407190Y-113581753D01*
X154505735Y-113729234D01*
X154505738Y-113729238D01*
X154631161Y-113854661D01*
X154631165Y-113854664D01*
X154778646Y-113953209D01*
X154778659Y-113953216D01*
X154901563Y-114004123D01*
X154942534Y-114021094D01*
X154942536Y-114021094D01*
X154942541Y-114021096D01*
X155116504Y-114055699D01*
X155116507Y-114055700D01*
X155116509Y-114055700D01*
X155293893Y-114055700D01*
X155293894Y-114055699D01*
X155351882Y-114044164D01*
X155467858Y-114021096D01*
X155467861Y-114021094D01*
X155467866Y-114021094D01*
X155631747Y-113953213D01*
X155779235Y-113854664D01*
X155904664Y-113729235D01*
X156003213Y-113581747D01*
X156071094Y-113417866D01*
X156082553Y-113360261D01*
X156105699Y-113243895D01*
X156105700Y-113243893D01*
X156105700Y-113066506D01*
X156105699Y-113066504D01*
X156071096Y-112892541D01*
X156071093Y-112892532D01*
X156003216Y-112728659D01*
X156003209Y-112728646D01*
X155904664Y-112581165D01*
X155904661Y-112581161D01*
X155867019Y-112543519D01*
X155833534Y-112482196D01*
X155830700Y-112455838D01*
X155830700Y-107729994D01*
X155826963Y-107711207D01*
X155823313Y-107692858D01*
X155806663Y-107609149D01*
X155797900Y-107587994D01*
X155794464Y-107579700D01*
X155794464Y-107579697D01*
X155780092Y-107545000D01*
X155759512Y-107495315D01*
X155740696Y-107467155D01*
X155740693Y-107467150D01*
X155740691Y-107467148D01*
X155691058Y-107392867D01*
X155691056Y-107392864D01*
X155600837Y-107302645D01*
X155600806Y-107302616D01*
X149298419Y-101000229D01*
X149264934Y-100938906D01*
X149262100Y-100912548D01*
X149262100Y-100859306D01*
X149262099Y-100859304D01*
X149227496Y-100685341D01*
X149227493Y-100685332D01*
X149159616Y-100521459D01*
X149159609Y-100521446D01*
X149061064Y-100373965D01*
X149061061Y-100373961D01*
X148935638Y-100248538D01*
X148935634Y-100248535D01*
X148788153Y-100149990D01*
X148788140Y-100149983D01*
X148624267Y-100082106D01*
X148624258Y-100082103D01*
X148450294Y-100047500D01*
X148450291Y-100047500D01*
X148339300Y-100047500D01*
X148272261Y-100027815D01*
X148226506Y-99975011D01*
X148215300Y-99923500D01*
X148215300Y-93611304D01*
X157358700Y-93611304D01*
X157358700Y-93788695D01*
X157393303Y-93962658D01*
X157393306Y-93962667D01*
X157461183Y-94126540D01*
X157461190Y-94126553D01*
X157559735Y-94274034D01*
X157559738Y-94274038D01*
X157597380Y-94311679D01*
X157630866Y-94373001D01*
X157633700Y-94399361D01*
X157633700Y-113507538D01*
X157614015Y-113574577D01*
X157597381Y-113595219D01*
X157559738Y-113632861D01*
X157559735Y-113632865D01*
X157461190Y-113780346D01*
X157461183Y-113780359D01*
X157393306Y-113944232D01*
X157393303Y-113944241D01*
X157358700Y-114118204D01*
X157358700Y-114295595D01*
X157393303Y-114469558D01*
X157393306Y-114469567D01*
X157461183Y-114633440D01*
X157461190Y-114633453D01*
X157559735Y-114780934D01*
X157559738Y-114780938D01*
X157685161Y-114906361D01*
X157685165Y-114906364D01*
X157832646Y-115004909D01*
X157832659Y-115004916D01*
X157882951Y-115025747D01*
X157996534Y-115072794D01*
X157996536Y-115072794D01*
X157996541Y-115072796D01*
X158170504Y-115107399D01*
X158170507Y-115107400D01*
X158170509Y-115107400D01*
X158347893Y-115107400D01*
X158347894Y-115107399D01*
X158405882Y-115095864D01*
X158521858Y-115072796D01*
X158521861Y-115072794D01*
X158521866Y-115072794D01*
X158685747Y-115004913D01*
X158833235Y-114906364D01*
X158958664Y-114780935D01*
X159057213Y-114633447D01*
X159125094Y-114469566D01*
X159136751Y-114410966D01*
X159158538Y-114301433D01*
X159159700Y-114295591D01*
X159159700Y-114118209D01*
X159159700Y-114118206D01*
X159159699Y-114118204D01*
X159125096Y-113944241D01*
X159125093Y-113944232D01*
X159057216Y-113780359D01*
X159057209Y-113780346D01*
X158958664Y-113632865D01*
X158958661Y-113632861D01*
X158921019Y-113595219D01*
X158887534Y-113533896D01*
X158884700Y-113507538D01*
X158884700Y-94399361D01*
X158904385Y-94332322D01*
X158921020Y-94311679D01*
X158958661Y-94274038D01*
X158958664Y-94274035D01*
X159057213Y-94126547D01*
X159125094Y-93962666D01*
X159159700Y-93788691D01*
X159159700Y-93611309D01*
X159159700Y-93611306D01*
X159159699Y-93611304D01*
X159125096Y-93437341D01*
X159125093Y-93437332D01*
X159057216Y-93273459D01*
X159057209Y-93273446D01*
X158958664Y-93125965D01*
X158958661Y-93125961D01*
X158833238Y-93000538D01*
X158833234Y-93000535D01*
X158685753Y-92901990D01*
X158685740Y-92901983D01*
X158521867Y-92834106D01*
X158521858Y-92834103D01*
X158347894Y-92799500D01*
X158347891Y-92799500D01*
X158170509Y-92799500D01*
X158170506Y-92799500D01*
X157996541Y-92834103D01*
X157996532Y-92834106D01*
X157832659Y-92901983D01*
X157832646Y-92901990D01*
X157685165Y-93000535D01*
X157685161Y-93000538D01*
X157559738Y-93125961D01*
X157559735Y-93125965D01*
X157461190Y-93273446D01*
X157461183Y-93273459D01*
X157393306Y-93437332D01*
X157393303Y-93437341D01*
X157358700Y-93611304D01*
X148215300Y-93611304D01*
X148215300Y-91910661D01*
X148234985Y-91843622D01*
X148251620Y-91822979D01*
X148289261Y-91785338D01*
X148289264Y-91785335D01*
X148387813Y-91637847D01*
X148455694Y-91473966D01*
X148490300Y-91299991D01*
X148490300Y-91122609D01*
X148490300Y-91122606D01*
X148490299Y-91122604D01*
X148455696Y-90948641D01*
X148455693Y-90948632D01*
X148387816Y-90784759D01*
X148387809Y-90784746D01*
X148289264Y-90637265D01*
X148289261Y-90637261D01*
X148163838Y-90511838D01*
X148163834Y-90511835D01*
X148016353Y-90413290D01*
X148016340Y-90413283D01*
X147852467Y-90345406D01*
X147852458Y-90345403D01*
X147678494Y-90310800D01*
X147678491Y-90310800D01*
X147501109Y-90310800D01*
X147501106Y-90310800D01*
X147327141Y-90345403D01*
X147327132Y-90345406D01*
X147163259Y-90413283D01*
X147163246Y-90413290D01*
X147015765Y-90511835D01*
X147015761Y-90511838D01*
X146890338Y-90637261D01*
X146890335Y-90637265D01*
X146791790Y-90784746D01*
X146791783Y-90784759D01*
X146723906Y-90948632D01*
X146723903Y-90948641D01*
X146689300Y-91122604D01*
X146689300Y-91299995D01*
X146723903Y-91473958D01*
X146723906Y-91473967D01*
X146791783Y-91637840D01*
X146791790Y-91637853D01*
X146890335Y-91785334D01*
X146890338Y-91785338D01*
X146927980Y-91822979D01*
X146961466Y-91884301D01*
X146964300Y-91910661D01*
X146964300Y-112178438D01*
X146944615Y-112245477D01*
X146927981Y-112266119D01*
X146890338Y-112303761D01*
X146890335Y-112303765D01*
X146791790Y-112451246D01*
X146791783Y-112451259D01*
X146723906Y-112615132D01*
X146723903Y-112615141D01*
X146689300Y-112789104D01*
X146689300Y-112966495D01*
X146723903Y-113140458D01*
X146723906Y-113140467D01*
X146791783Y-113304340D01*
X146791790Y-113304353D01*
X146890335Y-113451834D01*
X146890338Y-113451838D01*
X147015761Y-113577261D01*
X147015765Y-113577264D01*
X147163246Y-113675809D01*
X147163259Y-113675816D01*
X147274146Y-113721746D01*
X147327134Y-113743694D01*
X147327136Y-113743694D01*
X147327141Y-113743696D01*
X147501104Y-113778299D01*
X147501107Y-113778300D01*
X147501109Y-113778300D01*
X147678493Y-113778300D01*
X147678494Y-113778299D01*
X147736482Y-113766764D01*
X147852458Y-113743696D01*
X147852461Y-113743694D01*
X147852466Y-113743694D01*
X148016347Y-113675813D01*
X148163835Y-113577264D01*
X148289264Y-113451835D01*
X148387813Y-113304347D01*
X148455694Y-113140466D01*
X148460523Y-113116193D01*
X148490299Y-112966495D01*
X148490300Y-112966493D01*
X148490300Y-112789106D01*
X148490299Y-112789104D01*
X148455696Y-112615141D01*
X148455693Y-112615132D01*
X148387816Y-112451259D01*
X148387809Y-112451246D01*
X148289264Y-112303765D01*
X148289261Y-112303761D01*
X148251619Y-112266119D01*
X148218134Y-112204796D01*
X148215300Y-112178438D01*
X148215300Y-105948852D01*
X148234985Y-105881813D01*
X148287789Y-105836058D01*
X148356947Y-105826114D01*
X148420503Y-105855139D01*
X148426981Y-105861171D01*
X150438181Y-107872371D01*
X150471666Y-107933694D01*
X150474500Y-107960052D01*
X150474500Y-123640718D01*
X150454815Y-123707757D01*
X150402011Y-123753512D01*
X150363107Y-123764076D01*
X150347200Y-123765701D01*
X150180668Y-123820885D01*
X150180663Y-123820887D01*
X150031342Y-123912989D01*
X149907289Y-124037042D01*
X149815187Y-124186363D01*
X149815183Y-124186373D01*
X149811685Y-124196929D01*
X149771910Y-124254372D01*
X149707393Y-124281193D01*
X149638618Y-124268874D01*
X149593663Y-124230806D01*
X149590105Y-124225909D01*
X149439786Y-124075590D01*
X149267820Y-123950651D01*
X149078414Y-123854144D01*
X149078413Y-123854143D01*
X149078412Y-123854143D01*
X148876243Y-123788454D01*
X148876241Y-123788453D01*
X148876240Y-123788453D01*
X148714957Y-123762908D01*
X148666287Y-123755200D01*
X148453713Y-123755200D01*
X148405042Y-123762908D01*
X148243760Y-123788453D01*
X148041585Y-123854144D01*
X147852179Y-123950651D01*
X147680213Y-124075590D01*
X147529890Y-124225913D01*
X147404949Y-124397882D01*
X147400484Y-124406646D01*
X147352509Y-124457442D01*
X147284688Y-124474236D01*
X147218553Y-124451698D01*
X147179516Y-124406646D01*
X147175050Y-124397882D01*
X147050109Y-124225913D01*
X146899786Y-124075590D01*
X146727820Y-123950651D01*
X146538414Y-123854144D01*
X146538413Y-123854143D01*
X146538412Y-123854143D01*
X146336243Y-123788454D01*
X146336241Y-123788453D01*
X146336240Y-123788453D01*
X146174957Y-123762908D01*
X146126287Y-123755200D01*
X145913713Y-123755200D01*
X145865042Y-123762908D01*
X145703760Y-123788453D01*
X145501585Y-123854144D01*
X145312179Y-123950651D01*
X145140213Y-124075590D01*
X144989890Y-124225913D01*
X144864949Y-124397882D01*
X144860484Y-124406646D01*
X144812509Y-124457442D01*
X144744688Y-124474236D01*
X144678553Y-124451698D01*
X144639516Y-124406646D01*
X144635050Y-124397882D01*
X144510109Y-124225913D01*
X144359786Y-124075590D01*
X144187819Y-123950650D01*
X144173203Y-123943203D01*
X144122408Y-123895227D01*
X144105500Y-123832719D01*
X144105500Y-108680893D01*
X144105499Y-108680889D01*
X144084710Y-108576372D01*
X144082925Y-108540014D01*
X144083499Y-108534195D01*
X144083500Y-108534191D01*
X144083500Y-108356809D01*
X144083500Y-108356806D01*
X144083499Y-108356804D01*
X144048896Y-108182841D01*
X144048893Y-108182832D01*
X143981016Y-108018959D01*
X143981009Y-108018946D01*
X143882464Y-107871465D01*
X143882461Y-107871461D01*
X143757038Y-107746038D01*
X143757034Y-107746035D01*
X143609553Y-107647490D01*
X143609540Y-107647483D01*
X143445667Y-107579606D01*
X143445658Y-107579603D01*
X143271694Y-107545000D01*
X143271691Y-107545000D01*
X143094309Y-107545000D01*
X143094306Y-107545000D01*
X142920341Y-107579603D01*
X142920332Y-107579606D01*
X142756459Y-107647483D01*
X142756446Y-107647490D01*
X142608965Y-107746035D01*
X142608961Y-107746038D01*
X142483538Y-107871461D01*
X142483535Y-107871465D01*
X142384990Y-108018946D01*
X142384983Y-108018959D01*
X142317106Y-108182832D01*
X142317103Y-108182841D01*
X142282500Y-108356804D01*
X142282500Y-108534195D01*
X142317103Y-108708158D01*
X142317106Y-108708167D01*
X142384983Y-108872040D01*
X142384990Y-108872053D01*
X142483535Y-109019534D01*
X142483538Y-109019538D01*
X142608961Y-109144961D01*
X142608965Y-109144964D01*
X142756448Y-109243510D01*
X142756449Y-109243510D01*
X142756453Y-109243513D01*
X142777952Y-109252417D01*
X142832355Y-109296258D01*
X142854421Y-109362552D01*
X142854500Y-109366979D01*
X142854500Y-123832719D01*
X142834815Y-123899758D01*
X142786797Y-123943203D01*
X142772180Y-123950650D01*
X142600213Y-124075590D01*
X142449890Y-124225913D01*
X142324951Y-124397880D01*
X142272690Y-124500447D01*
X142224715Y-124551243D01*
X142156894Y-124568038D01*
X142090759Y-124545500D01*
X142074524Y-124531833D01*
X132656119Y-115113428D01*
X132622634Y-115052105D01*
X132619800Y-115025747D01*
X132619800Y-103864695D01*
X132619800Y-103864694D01*
X132616861Y-103849920D01*
X132595763Y-103743849D01*
X132589772Y-103729386D01*
X132585977Y-103720223D01*
X132566412Y-103672987D01*
X132566412Y-103672986D01*
X132548612Y-103630015D01*
X132548612Y-103630014D01*
X132514384Y-103578790D01*
X132480158Y-103527567D01*
X132480156Y-103527564D01*
X132389937Y-103437345D01*
X132389906Y-103437316D01*
X132162819Y-103210229D01*
X132129334Y-103148906D01*
X132126500Y-103122548D01*
X132126500Y-101554061D01*
X132146185Y-101487022D01*
X132162820Y-101466379D01*
X132200461Y-101428738D01*
X132200464Y-101428735D01*
X132299013Y-101281247D01*
X132366894Y-101117366D01*
X132401500Y-100943391D01*
X132401500Y-100766009D01*
X132401500Y-100766006D01*
X132401499Y-100766004D01*
X132366896Y-100592041D01*
X132366893Y-100592032D01*
X132299016Y-100428159D01*
X132299009Y-100428146D01*
X132200464Y-100280665D01*
X132200461Y-100280661D01*
X132075038Y-100155238D01*
X132075034Y-100155235D01*
X131927553Y-100056690D01*
X131927540Y-100056683D01*
X131763667Y-99988806D01*
X131763658Y-99988803D01*
X131589694Y-99954200D01*
X131589691Y-99954200D01*
X131412309Y-99954200D01*
X131412306Y-99954200D01*
X131238341Y-99988803D01*
X131238332Y-99988806D01*
X131074459Y-100056683D01*
X131074446Y-100056690D01*
X130926965Y-100155235D01*
X130926961Y-100155238D01*
X130801538Y-100280661D01*
X130801535Y-100280665D01*
X130702990Y-100428146D01*
X130702983Y-100428159D01*
X130635106Y-100592032D01*
X130635103Y-100592041D01*
X130600500Y-100766004D01*
X130600500Y-100943395D01*
X130635103Y-101117358D01*
X130635106Y-101117367D01*
X130702983Y-101281240D01*
X130702990Y-101281253D01*
X130801535Y-101428734D01*
X130801538Y-101428738D01*
X130839180Y-101466379D01*
X130872666Y-101527701D01*
X130875500Y-101554061D01*
X130875500Y-103339991D01*
X130855815Y-103407030D01*
X130820391Y-103443093D01*
X130693565Y-103527835D01*
X130693561Y-103527838D01*
X130568138Y-103653261D01*
X130568135Y-103653265D01*
X130469590Y-103800746D01*
X130469583Y-103800759D01*
X130401706Y-103964632D01*
X130401703Y-103964641D01*
X130367100Y-104138604D01*
X130367100Y-104315995D01*
X130401703Y-104489958D01*
X130401706Y-104489967D01*
X130469583Y-104653840D01*
X130469587Y-104653847D01*
X130524002Y-104735285D01*
X130544880Y-104801961D01*
X130544900Y-104804175D01*
X130544900Y-115723938D01*
X130525215Y-115790977D01*
X130508581Y-115811619D01*
X130470938Y-115849261D01*
X130470935Y-115849265D01*
X130372390Y-115996746D01*
X130372383Y-115996759D01*
X130304506Y-116160632D01*
X130304503Y-116160641D01*
X130269900Y-116334604D01*
X116137204Y-116334604D01*
X115800736Y-115387874D01*
X115799645Y-115384668D01*
X115784349Y-115337592D01*
X115784153Y-115336980D01*
X115713201Y-115113428D01*
X115456527Y-114304716D01*
X115455536Y-114301433D01*
X115455267Y-114300495D01*
X115455103Y-114299920D01*
X115152392Y-113219529D01*
X115151343Y-113215523D01*
X114885541Y-112124797D01*
X114884626Y-112120743D01*
X114656229Y-111021633D01*
X114655438Y-111017474D01*
X114637229Y-110911862D01*
X114464695Y-109911188D01*
X114464052Y-109907032D01*
X114448241Y-109791995D01*
X114311190Y-108794878D01*
X114310696Y-108790765D01*
X114195890Y-107674012D01*
X114195531Y-107669811D01*
X114118921Y-106549815D01*
X114118709Y-106545689D01*
X114080382Y-105423709D01*
X114080310Y-105419476D01*
X114080310Y-104296923D01*
X114080382Y-104292690D01*
X114082881Y-104219535D01*
X114118709Y-103170707D01*
X114118921Y-103166587D01*
X114195532Y-102046564D01*
X114195892Y-102042369D01*
X114201723Y-101985652D01*
X114310697Y-100925627D01*
X114311189Y-100921528D01*
X114464057Y-99809330D01*
X114464694Y-99805220D01*
X114655440Y-98698911D01*
X114656229Y-98694766D01*
X114884629Y-97595643D01*
X114885538Y-97591615D01*
X115151347Y-96500861D01*
X115152388Y-96496884D01*
X115455199Y-95416138D01*
X115455548Y-95414922D01*
X115456514Y-95411724D01*
X115784297Y-94378968D01*
X115799666Y-94331666D01*
X115800720Y-94328568D01*
X116140079Y-93373704D01*
X134208200Y-93373704D01*
X134208200Y-93551095D01*
X134242803Y-93725058D01*
X134242806Y-93725067D01*
X134310683Y-93888940D01*
X134310690Y-93888953D01*
X134409235Y-94036434D01*
X134409238Y-94036438D01*
X134446880Y-94074079D01*
X134480366Y-94135401D01*
X134483200Y-94161761D01*
X134483200Y-113239411D01*
X134507235Y-113360244D01*
X134507240Y-113360261D01*
X134554385Y-113474080D01*
X134554387Y-113474083D01*
X134554388Y-113474086D01*
X134588615Y-113525309D01*
X134622842Y-113576533D01*
X134709967Y-113663658D01*
X134709970Y-113663660D01*
X134717254Y-113670944D01*
X135142381Y-114096071D01*
X135175866Y-114157394D01*
X135178700Y-114183752D01*
X135178700Y-114236995D01*
X135213303Y-114410958D01*
X135213306Y-114410967D01*
X135281183Y-114574840D01*
X135281190Y-114574853D01*
X135379735Y-114722334D01*
X135379738Y-114722338D01*
X135505161Y-114847761D01*
X135505165Y-114847764D01*
X135652646Y-114946309D01*
X135652659Y-114946316D01*
X135775563Y-114997223D01*
X135816534Y-115014194D01*
X135816536Y-115014194D01*
X135816541Y-115014196D01*
X135990504Y-115048799D01*
X135990507Y-115048800D01*
X135990509Y-115048800D01*
X136167893Y-115048800D01*
X136167894Y-115048799D01*
X136225882Y-115037264D01*
X136341858Y-115014196D01*
X136341861Y-115014194D01*
X136341866Y-115014194D01*
X136505747Y-114946313D01*
X136653235Y-114847764D01*
X136778664Y-114722335D01*
X136877213Y-114574847D01*
X136945094Y-114410966D01*
X136979700Y-114236991D01*
X136979700Y-114059609D01*
X136979700Y-114059606D01*
X136979699Y-114059604D01*
X136945096Y-113885641D01*
X136945093Y-113885632D01*
X136877216Y-113721759D01*
X136877209Y-113721746D01*
X136778664Y-113574265D01*
X136778661Y-113574261D01*
X136653238Y-113448838D01*
X136653234Y-113448835D01*
X136505753Y-113350290D01*
X136505740Y-113350283D01*
X136341867Y-113282406D01*
X136341858Y-113282403D01*
X136167894Y-113247800D01*
X136167891Y-113247800D01*
X136114652Y-113247800D01*
X136047613Y-113228115D01*
X136026971Y-113211481D01*
X135770519Y-112955029D01*
X135737034Y-112893706D01*
X135734200Y-112867348D01*
X135734200Y-108289752D01*
X135753885Y-108222713D01*
X135806689Y-108176958D01*
X135875847Y-108167014D01*
X135939403Y-108196039D01*
X135945879Y-108202069D01*
X138452941Y-110709132D01*
X138452942Y-110709133D01*
X138540066Y-110796257D01*
X138540068Y-110796259D01*
X138642507Y-110864707D01*
X138642511Y-110864709D01*
X138642514Y-110864711D01*
X138756348Y-110911863D01*
X138816771Y-110923881D01*
X138877193Y-110935900D01*
X139917007Y-110935900D01*
X139977429Y-110923881D01*
X140037852Y-110911863D01*
X140071192Y-110898052D01*
X140151686Y-110864712D01*
X140202909Y-110830484D01*
X140254133Y-110796258D01*
X140341258Y-110709133D01*
X140341259Y-110709131D01*
X140348325Y-110702065D01*
X140348326Y-110702062D01*
X140410273Y-110640117D01*
X140471597Y-110606633D01*
X140497953Y-110603800D01*
X140551193Y-110603800D01*
X140551194Y-110603799D01*
X140609182Y-110592264D01*
X140725158Y-110569196D01*
X140725161Y-110569194D01*
X140725166Y-110569194D01*
X140889047Y-110501313D01*
X141036535Y-110402764D01*
X141161964Y-110277335D01*
X141260513Y-110129847D01*
X141328394Y-109965966D01*
X141339523Y-109910020D01*
X141362999Y-109791995D01*
X141363000Y-109791993D01*
X141363000Y-109614606D01*
X141362999Y-109614604D01*
X141328396Y-109440641D01*
X141328393Y-109440632D01*
X141260516Y-109276759D01*
X141260509Y-109276746D01*
X141161964Y-109129265D01*
X141161961Y-109129261D01*
X141124319Y-109091619D01*
X141090834Y-109030296D01*
X141088000Y-109003938D01*
X141088000Y-105326083D01*
X141107685Y-105259044D01*
X141138839Y-105227330D01*
X141138427Y-105226828D01*
X141143101Y-105222991D01*
X141143116Y-105222976D01*
X141143135Y-105222964D01*
X141268564Y-105097535D01*
X141367113Y-104950047D01*
X141434994Y-104786166D01*
X141440764Y-104757161D01*
X141469599Y-104612195D01*
X141469600Y-104612193D01*
X141469600Y-104434806D01*
X141469599Y-104434804D01*
X141434996Y-104260841D01*
X141434993Y-104260832D01*
X141367116Y-104096959D01*
X141367109Y-104096946D01*
X141268564Y-103949465D01*
X141268561Y-103949461D01*
X141143138Y-103824038D01*
X141143134Y-103824035D01*
X140995653Y-103725490D01*
X140995640Y-103725483D01*
X140831767Y-103657606D01*
X140831758Y-103657603D01*
X140657794Y-103623000D01*
X140657791Y-103623000D01*
X140480409Y-103623000D01*
X140480406Y-103623000D01*
X140306441Y-103657603D01*
X140306432Y-103657606D01*
X140142559Y-103725483D01*
X140142546Y-103725490D01*
X140107391Y-103748981D01*
X140040714Y-103769859D01*
X139973333Y-103751375D01*
X139926643Y-103699396D01*
X139914500Y-103645879D01*
X139914500Y-94810361D01*
X139934185Y-94743322D01*
X139950820Y-94722679D01*
X139999461Y-94674038D01*
X139999464Y-94674035D01*
X140098013Y-94526547D01*
X140165894Y-94362666D01*
X140168812Y-94347999D01*
X140200499Y-94188695D01*
X140200500Y-94188693D01*
X140200500Y-94011306D01*
X140200499Y-94011304D01*
X140165896Y-93837341D01*
X140165893Y-93837332D01*
X140098016Y-93673459D01*
X140098009Y-93673446D01*
X139999464Y-93525965D01*
X139999461Y-93525961D01*
X139874038Y-93400538D01*
X139874034Y-93400535D01*
X139726553Y-93301990D01*
X139726540Y-93301983D01*
X139562667Y-93234106D01*
X139562658Y-93234103D01*
X139388694Y-93199500D01*
X139388691Y-93199500D01*
X139211309Y-93199500D01*
X139211306Y-93199500D01*
X139037341Y-93234103D01*
X139037332Y-93234106D01*
X138873459Y-93301983D01*
X138873446Y-93301990D01*
X138725965Y-93400535D01*
X138725961Y-93400538D01*
X138600538Y-93525961D01*
X138600535Y-93525965D01*
X138501990Y-93673446D01*
X138501983Y-93673459D01*
X138434106Y-93837332D01*
X138434103Y-93837341D01*
X138399500Y-94011304D01*
X138399500Y-94188695D01*
X138434103Y-94362658D01*
X138434106Y-94362667D01*
X138501983Y-94526540D01*
X138501990Y-94526553D01*
X138600534Y-94674033D01*
X138600535Y-94674034D01*
X138600536Y-94674035D01*
X138627181Y-94700680D01*
X138660666Y-94762001D01*
X138663500Y-94788361D01*
X138663500Y-108851147D01*
X138643815Y-108918186D01*
X138591011Y-108963941D01*
X138521853Y-108973885D01*
X138458297Y-108944860D01*
X138451819Y-108938828D01*
X136497219Y-106984228D01*
X136463734Y-106922905D01*
X136460900Y-106896547D01*
X136460900Y-106030561D01*
X136480585Y-105963522D01*
X136497220Y-105942879D01*
X136534861Y-105905238D01*
X136534864Y-105905235D01*
X136633413Y-105757747D01*
X136701294Y-105593866D01*
X136735900Y-105419891D01*
X136735900Y-105242509D01*
X136735900Y-105242506D01*
X136735899Y-105242504D01*
X136701296Y-105068541D01*
X136701293Y-105068532D01*
X136633416Y-104904659D01*
X136633409Y-104904646D01*
X136534864Y-104757165D01*
X136534861Y-104757161D01*
X136409438Y-104631738D01*
X136409434Y-104631735D01*
X136261953Y-104533190D01*
X136261940Y-104533183D01*
X136098067Y-104465306D01*
X136098058Y-104465303D01*
X135924094Y-104430700D01*
X135924091Y-104430700D01*
X135858200Y-104430700D01*
X135791161Y-104411015D01*
X135745406Y-104358211D01*
X135734200Y-104306700D01*
X135734200Y-94161761D01*
X135753885Y-94094722D01*
X135770520Y-94074079D01*
X135808161Y-94036438D01*
X135808164Y-94036435D01*
X135906713Y-93888947D01*
X135974594Y-93725066D01*
X135984860Y-93673459D01*
X136009199Y-93551095D01*
X136009200Y-93551093D01*
X136009200Y-93373706D01*
X136009199Y-93373704D01*
X135974596Y-93199741D01*
X135974593Y-93199732D01*
X135906716Y-93035859D01*
X135906709Y-93035846D01*
X135808164Y-92888365D01*
X135808161Y-92888361D01*
X135682738Y-92762938D01*
X135682734Y-92762935D01*
X135535253Y-92664390D01*
X135535240Y-92664383D01*
X135371367Y-92596506D01*
X135371358Y-92596503D01*
X135197394Y-92561900D01*
X135197391Y-92561900D01*
X135020009Y-92561900D01*
X135020006Y-92561900D01*
X134846041Y-92596503D01*
X134846032Y-92596506D01*
X134682159Y-92664383D01*
X134682146Y-92664390D01*
X134534665Y-92762935D01*
X134534661Y-92762938D01*
X134409238Y-92888361D01*
X134409235Y-92888365D01*
X134310690Y-93035846D01*
X134310683Y-93035859D01*
X134242806Y-93199732D01*
X134242803Y-93199741D01*
X134208200Y-93373704D01*
X116140079Y-93373704D01*
X116150690Y-93343847D01*
X116150843Y-93343424D01*
X116180827Y-93261042D01*
X116181935Y-93258120D01*
X116416072Y-92664390D01*
X116554010Y-92314605D01*
X116554393Y-92313645D01*
X116560515Y-92298489D01*
X116598546Y-92204361D01*
X116599730Y-92201535D01*
X116994082Y-91293646D01*
X116994194Y-91293392D01*
X117052363Y-91162743D01*
X117053515Y-91160242D01*
X117469854Y-90284806D01*
X117470162Y-90284166D01*
X117541574Y-90137749D01*
X117542835Y-90135243D01*
X117981163Y-89289308D01*
X117981404Y-89288850D01*
X118028756Y-89199792D01*
X137774500Y-89199792D01*
X137774500Y-89199793D01*
X137774500Y-89900207D01*
X137774793Y-89900500D01*
X138125207Y-89900500D01*
X138125500Y-89900207D01*
X138125500Y-89199793D01*
X138125499Y-89199792D01*
X146899500Y-89199792D01*
X146899500Y-89199793D01*
X146899500Y-89900207D01*
X146899793Y-89900500D01*
X147250207Y-89900500D01*
X147250500Y-89900207D01*
X147250500Y-89199793D01*
X147250499Y-89199792D01*
X156024500Y-89199792D01*
X156024500Y-89199793D01*
X156024500Y-89900207D01*
X156024793Y-89900500D01*
X156375207Y-89900500D01*
X156375500Y-89900207D01*
X156375500Y-89199793D01*
X156375207Y-89199500D01*
X156025207Y-89199500D01*
X156024793Y-89199500D01*
X156024792Y-89199500D01*
X156024500Y-89199792D01*
X147250499Y-89199792D01*
X147250207Y-89199500D01*
X146900207Y-89199500D01*
X146899793Y-89199500D01*
X146899792Y-89199500D01*
X146899500Y-89199792D01*
X138125499Y-89199792D01*
X138125207Y-89199500D01*
X137775207Y-89199500D01*
X137774793Y-89199500D01*
X137774792Y-89199500D01*
X137774500Y-89199792D01*
X118028756Y-89199792D01*
X118065686Y-89130337D01*
X118067023Y-89127894D01*
X118527058Y-88309722D01*
X118527575Y-88308815D01*
X118624058Y-88141702D01*
X118625396Y-88139445D01*
X119107179Y-87347186D01*
X119107742Y-87346272D01*
X119215956Y-87173094D01*
X119217248Y-87171076D01*
X119720776Y-86403385D01*
X119721379Y-86402480D01*
X119840613Y-86225708D01*
X119841970Y-86223743D01*
X120366994Y-85479953D01*
X120367703Y-85478962D01*
X120497284Y-85300609D01*
X120498613Y-85298819D01*
X121045207Y-84578026D01*
X121046010Y-84576983D01*
X121185128Y-84398920D01*
X121186401Y-84397324D01*
X121754530Y-83698999D01*
X121755420Y-83697922D01*
X121762327Y-83689691D01*
X123082600Y-83689691D01*
X123082600Y-84026708D01*
X123120331Y-84361581D01*
X123120333Y-84361597D01*
X123195323Y-84690153D01*
X123195327Y-84690165D01*
X123306632Y-85008254D01*
X123452852Y-85311883D01*
X123489702Y-85370529D01*
X123632154Y-85597239D01*
X123842275Y-85860723D01*
X124080577Y-86099025D01*
X124344061Y-86309146D01*
X124629414Y-86488446D01*
X124933049Y-86634669D01*
X125171948Y-86718263D01*
X125251134Y-86745972D01*
X125251146Y-86745976D01*
X125579706Y-86820967D01*
X125914592Y-86858699D01*
X125914593Y-86858700D01*
X125914596Y-86858700D01*
X126251607Y-86858700D01*
X126251607Y-86858699D01*
X126586494Y-86820967D01*
X126915054Y-86745976D01*
X127233151Y-86634669D01*
X127513226Y-86499792D01*
X135949500Y-86499792D01*
X135949500Y-86499793D01*
X135949500Y-87500207D01*
X135949793Y-87500500D01*
X139950207Y-87500500D01*
X139950500Y-87500207D01*
X139950500Y-86499793D01*
X139950499Y-86499792D01*
X145074500Y-86499792D01*
X145074500Y-86499793D01*
X145074500Y-87500207D01*
X145074793Y-87500500D01*
X149075207Y-87500500D01*
X149075500Y-87500207D01*
X149075500Y-86499793D01*
X149075499Y-86499792D01*
X154199500Y-86499792D01*
X154199500Y-86499793D01*
X154199500Y-87500207D01*
X154199793Y-87500500D01*
X158200207Y-87500500D01*
X158200500Y-87500207D01*
X158200500Y-86499793D01*
X158200207Y-86499500D01*
X154200207Y-86499500D01*
X154199793Y-86499500D01*
X154199792Y-86499500D01*
X154199500Y-86499792D01*
X149075499Y-86499792D01*
X149075207Y-86499500D01*
X145075207Y-86499500D01*
X145074793Y-86499500D01*
X145074792Y-86499500D01*
X145074500Y-86499792D01*
X139950499Y-86499792D01*
X139950207Y-86499500D01*
X135950207Y-86499500D01*
X135949793Y-86499500D01*
X135949792Y-86499500D01*
X135949500Y-86499792D01*
X127513226Y-86499792D01*
X127536786Y-86488446D01*
X127822139Y-86309146D01*
X128085623Y-86099025D01*
X128323925Y-85860723D01*
X128534046Y-85597239D01*
X128713346Y-85311886D01*
X128859569Y-85008251D01*
X128970876Y-84690154D01*
X129045867Y-84361594D01*
X129083600Y-84026704D01*
X129083600Y-83689696D01*
X129083599Y-83689691D01*
X165082600Y-83689691D01*
X165082600Y-84026708D01*
X165120331Y-84361581D01*
X165120333Y-84361597D01*
X165195323Y-84690153D01*
X165195327Y-84690165D01*
X165306632Y-85008254D01*
X165452852Y-85311883D01*
X165489702Y-85370529D01*
X165632154Y-85597239D01*
X165842275Y-85860723D01*
X166080577Y-86099025D01*
X166344061Y-86309146D01*
X166629414Y-86488446D01*
X166933049Y-86634669D01*
X167171948Y-86718263D01*
X167251134Y-86745972D01*
X167251146Y-86745976D01*
X167579706Y-86820967D01*
X167914592Y-86858699D01*
X167914593Y-86858700D01*
X167914596Y-86858700D01*
X168251607Y-86858700D01*
X168251607Y-86858699D01*
X168586494Y-86820967D01*
X168915054Y-86745976D01*
X169233151Y-86634669D01*
X169536786Y-86488446D01*
X169822139Y-86309146D01*
X170085623Y-86099025D01*
X170323925Y-85860723D01*
X170534046Y-85597239D01*
X170713346Y-85311886D01*
X170859569Y-85008251D01*
X170970876Y-84690154D01*
X171045867Y-84361594D01*
X171083600Y-84026704D01*
X171083600Y-83689696D01*
X171045867Y-83354806D01*
X170970876Y-83026246D01*
X170859569Y-82708149D01*
X170713346Y-82404514D01*
X170534046Y-82119161D01*
X170323925Y-81855677D01*
X170085623Y-81617375D01*
X169822139Y-81407254D01*
X169536786Y-81227954D01*
X169536783Y-81227952D01*
X169233154Y-81081732D01*
X168915065Y-80970427D01*
X168915053Y-80970423D01*
X168586497Y-80895433D01*
X168586481Y-80895431D01*
X168251608Y-80857700D01*
X168251604Y-80857700D01*
X167914596Y-80857700D01*
X167914591Y-80857700D01*
X167579718Y-80895431D01*
X167579702Y-80895433D01*
X167251146Y-80970423D01*
X167251134Y-80970427D01*
X166933045Y-81081732D01*
X166629416Y-81227952D01*
X166344062Y-81407253D01*
X166080577Y-81617374D01*
X165842274Y-81855677D01*
X165632153Y-82119162D01*
X165452852Y-82404516D01*
X165306632Y-82708145D01*
X165195327Y-83026234D01*
X165195323Y-83026246D01*
X165120333Y-83354802D01*
X165120331Y-83354818D01*
X165082600Y-83689691D01*
X129083599Y-83689691D01*
X129045867Y-83354806D01*
X128970876Y-83026246D01*
X128859569Y-82708149D01*
X128713346Y-82404514D01*
X128534046Y-82119161D01*
X128323925Y-81855677D01*
X128085623Y-81617375D01*
X127822139Y-81407254D01*
X127536786Y-81227954D01*
X127536783Y-81227952D01*
X127233154Y-81081732D01*
X126915065Y-80970427D01*
X126915053Y-80970423D01*
X126586497Y-80895433D01*
X126586481Y-80895431D01*
X126251608Y-80857700D01*
X126251604Y-80857700D01*
X125914596Y-80857700D01*
X125914591Y-80857700D01*
X125579718Y-80895431D01*
X125579702Y-80895433D01*
X125251146Y-80970423D01*
X125251134Y-80970427D01*
X124933045Y-81081732D01*
X124629416Y-81227952D01*
X124344062Y-81407253D01*
X124080577Y-81617374D01*
X123842274Y-81855677D01*
X123632153Y-82119162D01*
X123452852Y-82404516D01*
X123306632Y-82708145D01*
X123195327Y-83026234D01*
X123195323Y-83026246D01*
X123120333Y-83354802D01*
X123120331Y-83354818D01*
X123082600Y-83689691D01*
X121762327Y-83689691D01*
X121903222Y-83521779D01*
X121904578Y-83520194D01*
X122494030Y-82844182D01*
X122495152Y-82842915D01*
X122650742Y-82670115D01*
X122652011Y-82668730D01*
X123263074Y-82014442D01*
X123264241Y-82013214D01*
X123426684Y-81844999D01*
X123427968Y-81843693D01*
X124060493Y-81211168D01*
X124061799Y-81209884D01*
X124230014Y-81047441D01*
X124231242Y-81046274D01*
X124885530Y-80435211D01*
X124886915Y-80433942D01*
X125059715Y-80278352D01*
X125060982Y-80277230D01*
X125736994Y-79687778D01*
X125738579Y-79686422D01*
X125914722Y-79538620D01*
X125915799Y-79537730D01*
X126614124Y-78969601D01*
X126615720Y-78968328D01*
X126793783Y-78829210D01*
X126794826Y-78828407D01*
X127515619Y-78281813D01*
X127517409Y-78280484D01*
X127695762Y-78150903D01*
X127696753Y-78150194D01*
X128440543Y-77625170D01*
X128442508Y-77623813D01*
X128619280Y-77504579D01*
X128620185Y-77503976D01*
X129387876Y-77000448D01*
X129389894Y-76999156D01*
X129563072Y-76890942D01*
X129563986Y-76890379D01*
X130356245Y-76408596D01*
X130358502Y-76407258D01*
X130525615Y-76310775D01*
X130526522Y-76310258D01*
X131344735Y-75850200D01*
X131347136Y-75848887D01*
X131505650Y-75764604D01*
X131506108Y-75764363D01*
X132352043Y-75326035D01*
X132354549Y-75324774D01*
X132500966Y-75253362D01*
X132501606Y-75253054D01*
X133377042Y-74836715D01*
X133379543Y-74835563D01*
X133510192Y-74777394D01*
X133510446Y-74777282D01*
X134418335Y-74382930D01*
X134421161Y-74381746D01*
X134530445Y-74337593D01*
X134531405Y-74337210D01*
X135000663Y-74152158D01*
X135474920Y-73965135D01*
X135477842Y-73964027D01*
X135560237Y-73934038D01*
X135560609Y-73933904D01*
X136545368Y-73583920D01*
X136548466Y-73582866D01*
X136595768Y-73567497D01*
X136595799Y-73567486D01*
X137628524Y-73239714D01*
X137631722Y-73238748D01*
X137632938Y-73238399D01*
X138713684Y-72935588D01*
X138717661Y-72934547D01*
X139808415Y-72668738D01*
X139812443Y-72667829D01*
X140911569Y-72439428D01*
X140915711Y-72438640D01*
X142022020Y-72247894D01*
X142026130Y-72247257D01*
X143138328Y-72094389D01*
X143142427Y-72093897D01*
X144259192Y-71979090D01*
X144263364Y-71978732D01*
X145383387Y-71902121D01*
X145387507Y-71901909D01*
X146509490Y-71863581D01*
X146513723Y-71863510D01*
X147636277Y-71863510D01*
X147640509Y-71863581D01*
G37*
%TD.AperFunction*%
%TD*%
M02*
