M48
; DRILL file {KiCad 9.0.6} date 2026-02-10T22:22:55-0800
; FORMAT={-:-/ absolute / inch / decimal}
; #@! TF.CreationDate,2026-02-10T22:22:55-08:00
; #@! TF.GenerationSoftware,Kicad,Pcbnew,9.0.6
; #@! TF.FileFunction,Plated,1,2,PTH
FMAT,2
INCH
; #@! TA.AperFunction,Plated,PTH,ViaDrill
T1C0.0157
; #@! TA.AperFunction,Plated,PTH,ComponentDrill
T2C0.0394
; #@! TA.AperFunction,Plated,PTH,ComponentDrill
T3C0.0984
%
G90
G05
T1
X5.2697Y-4.2028
X5.28Y-4.254
X5.311Y-3.5183
X5.445Y-4.4351
X5.4823Y-4.4901
X5.5043Y-4.2865
X5.5273Y-3.5183
X5.6043Y-4.4508
X5.6043Y-4.5709
X5.6371Y-3.9493
X5.7913Y-4.2992
X5.7933Y-4.0945
X5.8325Y-3.5668
X5.8553Y-4.4694
X5.9437Y-3.8217
X5.975Y-4.3258
X5.9941Y-4.4862
X5.9941Y-4.5807
X6.0315Y-4.0276
X6.0689Y-4.2756
X6.1358Y-4.4469
X6.1614Y-4.0591
X6.1634Y-4.2756
X6.2181Y-4.4577
X6.2244Y-3.9902
X6.2698Y-3.5183
X6.2933Y-4.4469
T2
X5.6488Y-4.9254
X5.6488Y-5.0254
X5.7488Y-4.9254
X5.7488Y-5.0254
X5.8488Y-4.9254
X5.8488Y-5.0254
X5.9488Y-4.9254
X5.9488Y-5.0254
T3
X4.9639Y-3.3015
X4.9639Y-4.955
X6.6174Y-3.3015
X6.6174Y-4.955
M30
