%TF.GenerationSoftware,KiCad,Pcbnew,9.0.6*%
%TF.CreationDate,2026-02-10T22:22:55-08:00*%
%TF.ProjectId,LegEncoderBoard,4c656745-6e63-46f6-9465-72426f617264,rev?*%
%TF.SameCoordinates,Original*%
%TF.FileFunction,Copper,L2,Bot*%
%TF.FilePolarity,Positive*%
%FSLAX46Y46*%
G04 Gerber Fmt 4.6, Leading zero omitted, Abs format (unit mm)*
G04 Created by KiCad (PCBNEW 9.0.6) date 2026-02-10 22:22:55*
%MOMM*%
%LPD*%
G01*
G04 APERTURE LIST*
G04 Aperture macros list*
%AMRoundRect*
0 Rectangle with rounded corners*
0 $1 Rounding radius*
0 $2 $3 $4 $5 $6 $7 $8 $9 X,Y pos of 4 corners*
0 Add a 4 corners polygon primitive as box body*
4,1,4,$2,$3,$4,$5,$6,$7,$8,$9,$2,$3,0*
0 Add four circle primitives for the rounded corners*
1,1,$1+$1,$2,$3*
1,1,$1+$1,$4,$5*
1,1,$1+$1,$6,$7*
1,1,$1+$1,$8,$9*
0 Add four rect primitives between the rounded corners*
20,1,$1+$1,$2,$3,$4,$5,0*
20,1,$1+$1,$4,$5,$6,$7,0*
20,1,$1+$1,$6,$7,$8,$9,0*
20,1,$1+$1,$8,$9,$2,$3,0*%
G04 Aperture macros list end*
%TA.AperFunction,ComponentPad*%
%ADD10C,5.000000*%
%TD*%
%TA.AperFunction,ComponentPad*%
%ADD11RoundRect,0.250000X-0.600000X0.600000X-0.600000X-0.600000X0.600000X-0.600000X0.600000X0.600000X0*%
%TD*%
%TA.AperFunction,ComponentPad*%
%ADD12C,1.700000*%
%TD*%
%TA.AperFunction,ViaPad*%
%ADD13C,0.800000*%
%TD*%
%TA.AperFunction,Conductor*%
%ADD14C,0.250000*%
%TD*%
G04 APERTURE END LIST*
D10*
%TO.P,H2,1*%
%TO.N,N/C*%
X168083100Y-83858200D03*
%TD*%
%TO.P,H1,1*%
%TO.N,N/C*%
X126083100Y-83858200D03*
%TD*%
D11*
%TO.P,J1,1,Pin_1*%
%TO.N,VIN*%
X151100000Y-125105700D03*
D12*
%TO.P,J1,2,Pin_2*%
%TO.N,GND*%
X151100000Y-127645700D03*
%TO.P,J1,3,Pin_3*%
%TO.N,/A_OUT*%
X148560000Y-125105700D03*
%TO.P,J1,4,Pin_4*%
%TO.N,GND*%
X148560000Y-127645700D03*
%TO.P,J1,5,Pin_5*%
%TO.N,/B_OUT*%
X146020000Y-125105700D03*
%TO.P,J1,6,Pin_6*%
%TO.N,GND*%
X146020000Y-127645700D03*
%TO.P,J1,7,Pin_7*%
%TO.N,/I_OUT*%
X143480000Y-125105700D03*
%TO.P,J1,8,Pin_8*%
%TO.N,GND*%
X143480000Y-127645700D03*
%TD*%
D10*
%TO.P,H4,1*%
%TO.N,N/C*%
X168083100Y-125858200D03*
%TD*%
%TO.P,H3,1*%
%TO.N,N/C*%
X126083100Y-125858200D03*
%TD*%
D13*
%TO.N,GND*%
X147150000Y-104000000D03*
X156550000Y-108600000D03*
X154150000Y-108600000D03*
X158100000Y-101350000D03*
X142350000Y-113050000D03*
X155850000Y-112950000D03*
X142350000Y-116100000D03*
X147100000Y-109200000D03*
X152250000Y-113950000D03*
X152250000Y-116350000D03*
X133850000Y-106750000D03*
X159850000Y-112950000D03*
X153200000Y-102300000D03*
X156500000Y-103100000D03*
%TO.N,/I_LED_ANODE*%
X148144800Y-90595600D03*
X148723900Y-113523400D03*
%TO.N,/I_LED_CATHODE*%
X151764300Y-109874100D03*
X150971000Y-97070000D03*
%TO.N,/A_LED_ANODE*%
X139250100Y-114047500D03*
X140393000Y-89364600D03*
%TO.N,/A_LED_CATHODE*%
X138302200Y-112650600D03*
X134899000Y-89364600D03*
%TO.N,/B_LED_ANODE*%
X157939300Y-113225600D03*
X159253000Y-89364600D03*
%TO.N,/A_OUT*%
X134111000Y-108052000D03*
%TO.N,/B_OUT*%
X143183000Y-100313100D03*
%TO.N,/I_OUT*%
X139808500Y-108876500D03*
%TD*%
D14*
%TO.N,GND*%
X154150000Y-108600000D02*
X156550000Y-108600000D01*
X156500000Y-103100000D02*
X156500000Y-102950000D01*
X155850000Y-115350000D02*
X154850000Y-116350000D01*
X152250000Y-113950000D02*
X152250000Y-116350000D01*
X156500000Y-102950000D02*
X158100000Y-101350000D01*
X142350000Y-113050000D02*
X142350000Y-116100000D01*
X155850000Y-112950000D02*
X155850000Y-115350000D01*
X154850000Y-116350000D02*
X152250000Y-116350000D01*
%TO.N,/I_LED_ANODE*%
X148144800Y-90595600D02*
X148723900Y-91174700D01*
X148723900Y-91174700D02*
X148723900Y-113523400D01*
%TO.N,/I_LED_CATHODE*%
X150971000Y-97070000D02*
X151764300Y-97863300D01*
X151764300Y-97863300D02*
X151764300Y-109874100D01*
%TO.N,/A_LED_ANODE*%
X139043900Y-113841300D02*
X139043900Y-90713700D01*
X139043900Y-90713700D02*
X140393000Y-89364600D01*
X139250100Y-114047500D02*
X139043900Y-113841300D01*
%TO.N,/A_LED_CATHODE*%
X134899000Y-89364600D02*
X134899000Y-109247400D01*
X134899000Y-109247400D02*
X138302200Y-112650600D01*
%TO.N,/B_LED_ANODE*%
X159253000Y-111911900D02*
X159253000Y-89364600D01*
X157939300Y-113225600D02*
X159253000Y-111911900D01*
%TO.N,/A_OUT*%
X142981400Y-126296300D02*
X147369400Y-126296300D01*
X134111000Y-117425900D02*
X142981400Y-126296300D01*
X134111000Y-108052000D02*
X134111000Y-117425900D01*
X147369400Y-126296300D02*
X148560000Y-125105700D01*
%TO.N,/B_OUT*%
X143183000Y-100313100D02*
X146020000Y-103150100D01*
X146020000Y-103150100D02*
X146020000Y-125105700D01*
%TO.N,/I_OUT*%
X139808500Y-108876500D02*
X143480000Y-112548000D01*
X143480000Y-112548000D02*
X143480000Y-125105700D01*
%TD*%
%TA.AperFunction,Conductor*%
%TO.N,GND*%
G36*
X149780397Y-125964551D02*
G01*
X149811686Y-126014472D01*
X149815184Y-126025029D01*
X149815187Y-126025036D01*
X149850069Y-126081588D01*
X149907288Y-126174356D01*
X150031344Y-126298412D01*
X150180666Y-126390514D01*
X150252770Y-126414407D01*
X150310214Y-126454178D01*
X150337038Y-126518694D01*
X150337197Y-126529343D01*
X150970591Y-127162737D01*
X150907007Y-127179775D01*
X150792993Y-127245601D01*
X150699901Y-127338693D01*
X150634075Y-127452707D01*
X150617037Y-127516291D01*
X149984728Y-126883982D01*
X149984727Y-126883982D01*
X149945380Y-126938140D01*
X149940483Y-126947751D01*
X149892506Y-126998545D01*
X149824684Y-127015338D01*
X149758550Y-126992798D01*
X149719516Y-126947748D01*
X149714626Y-126938152D01*
X149675270Y-126883982D01*
X149675269Y-126883982D01*
X149042962Y-127516290D01*
X149025925Y-127452707D01*
X148960099Y-127338693D01*
X148867007Y-127245601D01*
X148752993Y-127179775D01*
X148689408Y-127162737D01*
X149321716Y-126530428D01*
X149267547Y-126491073D01*
X149267547Y-126491072D01*
X149258500Y-126486463D01*
X149207706Y-126438488D01*
X149190912Y-126370666D01*
X149213451Y-126304532D01*
X149258508Y-126265493D01*
X149267816Y-126260751D01*
X149356515Y-126196308D01*
X149439786Y-126135809D01*
X149439788Y-126135806D01*
X149439792Y-126135804D01*
X149590104Y-125985492D01*
X149593660Y-125980596D01*
X149648987Y-125937930D01*
X149718600Y-125931948D01*
X149780397Y-125964551D01*
G37*
%TD.AperFunction*%
%TA.AperFunction,Conductor*%
G36*
X139874603Y-109827639D02*
G01*
X139881081Y-109833671D01*
X142818181Y-112770771D01*
X142851666Y-112832094D01*
X142854500Y-112858452D01*
X142854500Y-123832719D01*
X142834815Y-123899758D01*
X142786797Y-123943203D01*
X142772180Y-123950650D01*
X142600213Y-124075590D01*
X142449890Y-124225913D01*
X142324949Y-124397882D01*
X142281802Y-124482562D01*
X142233827Y-124533357D01*
X142166006Y-124550152D01*
X142099872Y-124527614D01*
X142083637Y-124513947D01*
X134772819Y-117203129D01*
X134739334Y-117141806D01*
X134736500Y-117115448D01*
X134736500Y-110268852D01*
X134756185Y-110201813D01*
X134808989Y-110156058D01*
X134878147Y-110146114D01*
X134941703Y-110175139D01*
X134948181Y-110181171D01*
X137365381Y-112598371D01*
X137398866Y-112659694D01*
X137401700Y-112686052D01*
X137401700Y-112739295D01*
X137436303Y-112913258D01*
X137436306Y-112913267D01*
X137504183Y-113077140D01*
X137504190Y-113077153D01*
X137602735Y-113224634D01*
X137602738Y-113224638D01*
X137728161Y-113350061D01*
X137728165Y-113350064D01*
X137875646Y-113448609D01*
X137875659Y-113448616D01*
X137971385Y-113488266D01*
X138039534Y-113516494D01*
X138039536Y-113516494D01*
X138039541Y-113516496D01*
X138213504Y-113551099D01*
X138213507Y-113551100D01*
X138294400Y-113551100D01*
X138303085Y-113553650D01*
X138312047Y-113552362D01*
X138336087Y-113563340D01*
X138361439Y-113570785D01*
X138367366Y-113577625D01*
X138375603Y-113581387D01*
X138389892Y-113603621D01*
X138407194Y-113623589D01*
X138409481Y-113634103D01*
X138413377Y-113640165D01*
X138418400Y-113675100D01*
X138418400Y-113677617D01*
X138408961Y-113725069D01*
X138384206Y-113784832D01*
X138384203Y-113784841D01*
X138349600Y-113958804D01*
X138349600Y-114136195D01*
X138384203Y-114310158D01*
X138384206Y-114310167D01*
X138452083Y-114474040D01*
X138452090Y-114474053D01*
X138550635Y-114621534D01*
X138550638Y-114621538D01*
X138676061Y-114746961D01*
X138676065Y-114746964D01*
X138823546Y-114845509D01*
X138823559Y-114845516D01*
X138946463Y-114896423D01*
X138987434Y-114913394D01*
X138987436Y-114913394D01*
X138987441Y-114913396D01*
X139161404Y-114947999D01*
X139161407Y-114948000D01*
X139161409Y-114948000D01*
X139338793Y-114948000D01*
X139338794Y-114947999D01*
X139396782Y-114936464D01*
X139512758Y-114913396D01*
X139512761Y-114913394D01*
X139512766Y-114913394D01*
X139676647Y-114845513D01*
X139824135Y-114746964D01*
X139949564Y-114621535D01*
X140048113Y-114474047D01*
X140115994Y-114310166D01*
X140117175Y-114304233D01*
X140150599Y-114136195D01*
X140150600Y-114136193D01*
X140150600Y-113958806D01*
X140150599Y-113958804D01*
X140115996Y-113784841D01*
X140115993Y-113784832D01*
X140048116Y-113620959D01*
X140048109Y-113620946D01*
X139949564Y-113473465D01*
X139949561Y-113473461D01*
X139824138Y-113348038D01*
X139824134Y-113348035D01*
X139724509Y-113281467D01*
X139679704Y-113227854D01*
X139669400Y-113178365D01*
X139669400Y-109921352D01*
X139689085Y-109854313D01*
X139741889Y-109808558D01*
X139811047Y-109798614D01*
X139874603Y-109827639D01*
G37*
%TD.AperFunction*%
%TA.AperFunction,Conductor*%
G36*
X147640509Y-71863581D02*
G01*
X148762489Y-71901909D01*
X148766615Y-71902121D01*
X149886630Y-71978732D01*
X149890812Y-71979090D01*
X151007565Y-72093896D01*
X151011678Y-72094390D01*
X152123860Y-72247256D01*
X152127988Y-72247895D01*
X153234274Y-72438638D01*
X153238433Y-72439429D01*
X153454933Y-72484418D01*
X154337543Y-72667826D01*
X154341597Y-72668741D01*
X155432323Y-72934543D01*
X155436329Y-72935592D01*
X156516720Y-73238303D01*
X156517295Y-73238467D01*
X156518233Y-73238736D01*
X156521516Y-73239727D01*
X157553939Y-73567404D01*
X157554392Y-73567549D01*
X157601489Y-73582852D01*
X157604674Y-73583936D01*
X158589175Y-73933827D01*
X158589917Y-73934094D01*
X158672108Y-73964009D01*
X158675126Y-73965154D01*
X159618593Y-74337210D01*
X159619553Y-74337593D01*
X159728788Y-74381726D01*
X159731719Y-74382954D01*
X160639230Y-74777142D01*
X160639960Y-74777463D01*
X160770396Y-74835536D01*
X160773020Y-74836745D01*
X161648167Y-75252947D01*
X161649175Y-75253431D01*
X161795384Y-75324742D01*
X161798025Y-75326070D01*
X162643737Y-75764283D01*
X162644512Y-75764690D01*
X162802782Y-75848844D01*
X162805341Y-75850243D01*
X163623315Y-76310167D01*
X163624541Y-76310866D01*
X163791412Y-76407209D01*
X163793840Y-76408648D01*
X164585811Y-76890256D01*
X164587069Y-76891031D01*
X164760021Y-76999103D01*
X164762206Y-77000502D01*
X165529664Y-77503878D01*
X165530862Y-77504675D01*
X165707392Y-77623746D01*
X165709548Y-77625234D01*
X166453089Y-78150082D01*
X166454374Y-78151003D01*
X166632494Y-78280415D01*
X166634477Y-78281886D01*
X167355021Y-78828292D01*
X167356351Y-78829316D01*
X167534179Y-78968250D01*
X167535979Y-78969685D01*
X168234055Y-79537612D01*
X168235406Y-79538729D01*
X168395570Y-79673123D01*
X168411321Y-79686339D01*
X168413108Y-79687868D01*
X169088903Y-80277131D01*
X169090382Y-80278441D01*
X169262970Y-80433840D01*
X169264581Y-80435316D01*
X169837545Y-80970427D01*
X169918619Y-81046145D01*
X169920120Y-81047571D01*
X170088086Y-81209774D01*
X170089629Y-81211291D01*
X170721907Y-81843569D01*
X170723424Y-81845112D01*
X170885627Y-82013078D01*
X170887053Y-82014579D01*
X171497858Y-82668591D01*
X171499384Y-82670256D01*
X171654757Y-82842816D01*
X171656067Y-82844295D01*
X172245330Y-83520090D01*
X172246859Y-83521877D01*
X172394428Y-83697742D01*
X172395608Y-83699171D01*
X172963493Y-84397194D01*
X172964993Y-84399076D01*
X173103848Y-84576803D01*
X173104939Y-84578220D01*
X173651291Y-85298693D01*
X173652805Y-85300733D01*
X173782163Y-85478779D01*
X173783149Y-85480156D01*
X174307955Y-86223638D01*
X174309452Y-86225806D01*
X174428479Y-86402270D01*
X174429365Y-86403602D01*
X174932660Y-87170936D01*
X174934131Y-87173234D01*
X175042152Y-87346105D01*
X175042942Y-87347387D01*
X175524550Y-88139358D01*
X175525989Y-88141786D01*
X175622332Y-88308657D01*
X175623031Y-88309883D01*
X176082955Y-89127857D01*
X176084354Y-89130416D01*
X176168403Y-89288487D01*
X176168992Y-89289609D01*
X176253807Y-89453293D01*
X176607115Y-90135149D01*
X176608468Y-90137839D01*
X176679748Y-90283985D01*
X176680278Y-90285087D01*
X176870816Y-90685730D01*
X177030812Y-91022153D01*
X177096407Y-91160078D01*
X177097694Y-91162874D01*
X177100706Y-91169638D01*
X177155671Y-91293092D01*
X177156125Y-91294125D01*
X177550235Y-92201458D01*
X177551472Y-92204410D01*
X177595605Y-92313645D01*
X177595988Y-92314605D01*
X177968044Y-93258072D01*
X177969212Y-93261152D01*
X177999082Y-93343221D01*
X177999400Y-93344106D01*
X178349262Y-94328524D01*
X178350353Y-94331730D01*
X178365586Y-94378611D01*
X178365845Y-94379418D01*
X178693457Y-95411636D01*
X178694462Y-95414965D01*
X178694731Y-95415903D01*
X178694938Y-95416631D01*
X178997595Y-96496825D01*
X178998666Y-96500917D01*
X179258468Y-97567019D01*
X179264448Y-97591558D01*
X179265380Y-97595689D01*
X179493770Y-98694766D01*
X179494561Y-98698925D01*
X179685299Y-99805183D01*
X179685947Y-99809367D01*
X179838803Y-100921476D01*
X179839308Y-100925680D01*
X179954107Y-102042369D01*
X179954468Y-102046588D01*
X180031075Y-103166532D01*
X180031292Y-103170761D01*
X180069618Y-104292690D01*
X180069690Y-104296923D01*
X180069690Y-105419476D01*
X180069618Y-105423709D01*
X180031292Y-106545638D01*
X180031075Y-106549867D01*
X179954468Y-107669811D01*
X179954107Y-107674030D01*
X179839308Y-108790719D01*
X179838803Y-108794923D01*
X179685947Y-109907032D01*
X179685299Y-109911216D01*
X179494561Y-111017474D01*
X179493770Y-111021633D01*
X179265380Y-112120710D01*
X179264448Y-112124841D01*
X178998667Y-113215478D01*
X178997595Y-113219574D01*
X178694938Y-114299767D01*
X178694731Y-114300495D01*
X178694462Y-114301433D01*
X178693457Y-114304762D01*
X178365845Y-115336980D01*
X178365586Y-115337787D01*
X178350353Y-115384668D01*
X178349262Y-115387874D01*
X177999400Y-116372292D01*
X177999082Y-116373177D01*
X177969212Y-116455246D01*
X177968044Y-116458326D01*
X177595988Y-117401793D01*
X177595605Y-117402753D01*
X177551472Y-117511988D01*
X177550235Y-117514940D01*
X177156125Y-118422273D01*
X177155671Y-118423306D01*
X177097706Y-118553499D01*
X177096407Y-118556320D01*
X176680278Y-119431311D01*
X176679748Y-119432413D01*
X176608468Y-119578559D01*
X176607115Y-119581249D01*
X176169016Y-120426744D01*
X176168403Y-120427911D01*
X176084354Y-120585982D01*
X176082955Y-120588541D01*
X175623031Y-121406515D01*
X175622332Y-121407741D01*
X175525989Y-121574612D01*
X175524550Y-121577040D01*
X175042942Y-122369011D01*
X175042152Y-122370293D01*
X174934131Y-122543164D01*
X174932660Y-122545462D01*
X174429365Y-123312796D01*
X174428479Y-123314128D01*
X174309452Y-123490592D01*
X174307955Y-123492760D01*
X173783149Y-124236242D01*
X173782163Y-124237619D01*
X173652805Y-124415665D01*
X173651291Y-124417705D01*
X173104939Y-125138178D01*
X173103848Y-125139595D01*
X172964993Y-125317322D01*
X172963468Y-125319235D01*
X172395627Y-126017205D01*
X172394428Y-126018656D01*
X172246859Y-126194521D01*
X172245330Y-126196308D01*
X171656067Y-126872103D01*
X171654757Y-126873582D01*
X171499384Y-127046142D01*
X171497858Y-127047807D01*
X170887053Y-127701819D01*
X170885627Y-127703320D01*
X170723424Y-127871286D01*
X170721907Y-127872829D01*
X170089629Y-128505107D01*
X170088086Y-128506624D01*
X169920120Y-128668827D01*
X169918619Y-128670253D01*
X169264607Y-129281058D01*
X169262942Y-129282584D01*
X169090382Y-129437957D01*
X169088903Y-129439267D01*
X168413108Y-130028530D01*
X168411321Y-130030059D01*
X168235456Y-130177628D01*
X168234005Y-130178827D01*
X167536035Y-130746668D01*
X167534122Y-130748193D01*
X167356395Y-130887048D01*
X167354978Y-130888139D01*
X166634505Y-131434491D01*
X166632465Y-131436005D01*
X166454419Y-131565363D01*
X166453042Y-131566349D01*
X165709560Y-132091155D01*
X165707392Y-132092652D01*
X165530928Y-132211679D01*
X165529596Y-132212565D01*
X164762262Y-132715860D01*
X164759964Y-132717331D01*
X164587093Y-132825352D01*
X164585811Y-132826142D01*
X163793840Y-133307750D01*
X163791412Y-133309189D01*
X163624541Y-133405532D01*
X163623315Y-133406231D01*
X162805341Y-133866155D01*
X162802782Y-133867554D01*
X162644711Y-133951603D01*
X162643544Y-133952216D01*
X161798049Y-134390315D01*
X161795359Y-134391668D01*
X161649213Y-134462948D01*
X161648111Y-134463478D01*
X160773120Y-134879607D01*
X160770299Y-134880906D01*
X160640106Y-134938871D01*
X160639073Y-134939325D01*
X159731740Y-135333435D01*
X159728788Y-135334672D01*
X159619553Y-135378805D01*
X159618593Y-135379188D01*
X158675126Y-135751244D01*
X158672046Y-135752412D01*
X158589977Y-135782282D01*
X158589092Y-135782600D01*
X157604674Y-136132462D01*
X157601468Y-136133553D01*
X157554587Y-136148786D01*
X157553780Y-136149045D01*
X156521562Y-136476657D01*
X156518233Y-136477662D01*
X156517295Y-136477931D01*
X156516567Y-136478138D01*
X155436374Y-136780795D01*
X155432278Y-136781867D01*
X154341641Y-137047648D01*
X154337510Y-137048580D01*
X153238433Y-137276970D01*
X153234274Y-137277761D01*
X152128016Y-137468499D01*
X152123832Y-137469147D01*
X151011723Y-137622003D01*
X151007519Y-137622508D01*
X149890830Y-137737307D01*
X149886611Y-137737668D01*
X148766667Y-137814275D01*
X148762438Y-137814492D01*
X147640510Y-137852818D01*
X147636277Y-137852890D01*
X146513723Y-137852890D01*
X146509490Y-137852818D01*
X145387561Y-137814492D01*
X145383332Y-137814275D01*
X144263388Y-137737668D01*
X144259169Y-137737307D01*
X143142480Y-137622508D01*
X143138276Y-137622003D01*
X142026167Y-137469147D01*
X142021983Y-137468499D01*
X140915725Y-137277761D01*
X140911566Y-137276970D01*
X139812489Y-137048580D01*
X139808358Y-137047648D01*
X138717721Y-136781867D01*
X138713625Y-136780795D01*
X137633431Y-136478138D01*
X137632703Y-136477931D01*
X137631765Y-136477662D01*
X137628436Y-136476657D01*
X136596218Y-136149045D01*
X136595411Y-136148786D01*
X136548530Y-136133553D01*
X136545324Y-136132462D01*
X135560906Y-135782600D01*
X135560021Y-135782282D01*
X135477952Y-135752412D01*
X135474872Y-135751244D01*
X134531405Y-135379188D01*
X134530445Y-135378805D01*
X134421210Y-135334672D01*
X134418258Y-135333435D01*
X133510925Y-134939325D01*
X133509892Y-134938871D01*
X133454493Y-134914206D01*
X133379674Y-134880894D01*
X133376906Y-134879619D01*
X133067576Y-134732509D01*
X132501887Y-134463478D01*
X132500785Y-134462948D01*
X132354639Y-134391668D01*
X132351949Y-134390315D01*
X131797340Y-134102940D01*
X131506411Y-133952193D01*
X131505339Y-133951630D01*
X131458656Y-133926808D01*
X131347216Y-133867554D01*
X131344657Y-133866155D01*
X130526683Y-133406231D01*
X130525457Y-133405532D01*
X130358586Y-133309189D01*
X130356158Y-133307750D01*
X129564187Y-132826142D01*
X129562905Y-132825352D01*
X129390034Y-132717331D01*
X129387736Y-132715860D01*
X128620402Y-132212565D01*
X128619070Y-132211679D01*
X128442606Y-132092652D01*
X128440438Y-132091155D01*
X127696956Y-131566349D01*
X127695579Y-131565363D01*
X127517533Y-131436005D01*
X127515493Y-131434491D01*
X126795020Y-130888139D01*
X126793603Y-130887048D01*
X126615846Y-130748169D01*
X126613994Y-130746693D01*
X125915971Y-130178808D01*
X125914542Y-130177628D01*
X125738677Y-130030059D01*
X125736890Y-130028530D01*
X125061095Y-129439267D01*
X125059616Y-129437957D01*
X124887056Y-129282584D01*
X124885391Y-129281058D01*
X124579847Y-128995700D01*
X124231371Y-128670246D01*
X124229878Y-128668827D01*
X124061912Y-128506624D01*
X124060369Y-128505107D01*
X123428091Y-127872829D01*
X123426574Y-127871286D01*
X123264371Y-127703320D01*
X123262945Y-127701819D01*
X122652116Y-127047781D01*
X122650614Y-127046142D01*
X122495241Y-126873582D01*
X122493931Y-126872103D01*
X121904668Y-126196308D01*
X121903139Y-126194521D01*
X121853874Y-126135809D01*
X121755529Y-126018606D01*
X121754412Y-126017255D01*
X121487919Y-125689691D01*
X123082600Y-125689691D01*
X123082600Y-126026708D01*
X123120331Y-126361581D01*
X123120333Y-126361597D01*
X123195323Y-126690153D01*
X123195327Y-126690165D01*
X123306632Y-127008254D01*
X123452852Y-127311883D01*
X123452854Y-127311886D01*
X123632154Y-127597239D01*
X123842275Y-127860723D01*
X124080577Y-128099025D01*
X124344061Y-128309146D01*
X124629414Y-128488446D01*
X124933049Y-128634669D01*
X125171948Y-128718263D01*
X125251134Y-128745972D01*
X125251146Y-128745976D01*
X125579706Y-128820967D01*
X125914592Y-128858699D01*
X125914593Y-128858700D01*
X125914596Y-128858700D01*
X126251607Y-128858700D01*
X126251607Y-128858699D01*
X126586494Y-128820967D01*
X126915054Y-128745976D01*
X127233151Y-128634669D01*
X127536786Y-128488446D01*
X127822139Y-128309146D01*
X128085623Y-128099025D01*
X128323925Y-127860723D01*
X128534046Y-127597239D01*
X128713346Y-127311886D01*
X128859569Y-127008251D01*
X128970876Y-126690154D01*
X129045867Y-126361594D01*
X129083600Y-126026704D01*
X129083600Y-125689696D01*
X129045867Y-125354806D01*
X128970876Y-125026246D01*
X128859569Y-124708149D01*
X128713346Y-124404514D01*
X128534046Y-124119161D01*
X128323925Y-123855677D01*
X128085623Y-123617375D01*
X127822139Y-123407254D01*
X127536786Y-123227954D01*
X127536783Y-123227952D01*
X127233154Y-123081732D01*
X126915065Y-122970427D01*
X126915053Y-122970423D01*
X126586497Y-122895433D01*
X126586481Y-122895431D01*
X126251608Y-122857700D01*
X126251604Y-122857700D01*
X125914596Y-122857700D01*
X125914591Y-122857700D01*
X125579718Y-122895431D01*
X125579702Y-122895433D01*
X125251146Y-122970423D01*
X125251134Y-122970427D01*
X124933045Y-123081732D01*
X124629416Y-123227952D01*
X124344062Y-123407253D01*
X124080577Y-123617374D01*
X123842274Y-123855677D01*
X123632153Y-124119162D01*
X123452852Y-124404516D01*
X123306632Y-124708145D01*
X123195327Y-125026234D01*
X123195323Y-125026246D01*
X123120333Y-125354802D01*
X123120331Y-125354818D01*
X123082600Y-125689691D01*
X121487919Y-125689691D01*
X121186485Y-125319179D01*
X121185050Y-125317379D01*
X121046116Y-125139551D01*
X121045092Y-125138221D01*
X120498686Y-124417676D01*
X120497193Y-124415665D01*
X120490640Y-124406646D01*
X120367803Y-124237574D01*
X120366849Y-124236242D01*
X120359555Y-124225909D01*
X119842034Y-123492748D01*
X119840546Y-123490592D01*
X119784333Y-123407253D01*
X119721475Y-123314062D01*
X119720678Y-123312864D01*
X119217302Y-122545406D01*
X119215903Y-122543221D01*
X119107831Y-122370269D01*
X119107056Y-122369011D01*
X118625448Y-121577040D01*
X118624009Y-121574612D01*
X118527666Y-121407741D01*
X118526967Y-121406515D01*
X118067043Y-120588541D01*
X118065644Y-120585982D01*
X117981490Y-120427712D01*
X117981083Y-120426937D01*
X117542871Y-119581225D01*
X117541530Y-119578559D01*
X117470250Y-119432413D01*
X117469720Y-119431311D01*
X117053545Y-118556220D01*
X117052336Y-118553596D01*
X116994263Y-118423160D01*
X116993942Y-118422430D01*
X116599754Y-117514919D01*
X116598526Y-117511988D01*
X116554393Y-117402753D01*
X116554010Y-117401793D01*
X116181954Y-116458326D01*
X116180809Y-116455308D01*
X116150894Y-116373117D01*
X116150598Y-116372292D01*
X115800736Y-115387874D01*
X115799645Y-115384668D01*
X115784349Y-115337592D01*
X115784153Y-115336980D01*
X115456527Y-114304716D01*
X115455536Y-114301433D01*
X115455267Y-114300495D01*
X115455103Y-114299920D01*
X115152392Y-113219529D01*
X115151343Y-113215523D01*
X114885541Y-112124797D01*
X114884626Y-112120743D01*
X114656229Y-111021633D01*
X114655438Y-111017474D01*
X114607596Y-110739994D01*
X114464695Y-109911188D01*
X114464052Y-109907032D01*
X114453140Y-109827639D01*
X114311190Y-108794878D01*
X114310696Y-108790765D01*
X114225630Y-107963304D01*
X133210500Y-107963304D01*
X133210500Y-108140695D01*
X133245103Y-108314658D01*
X133245106Y-108314667D01*
X133312983Y-108478540D01*
X133312990Y-108478553D01*
X133411535Y-108626034D01*
X133411538Y-108626038D01*
X133449180Y-108663679D01*
X133482666Y-108725001D01*
X133485500Y-108751361D01*
X133485500Y-117487511D01*
X133509535Y-117608344D01*
X133509540Y-117608361D01*
X133556685Y-117722180D01*
X133556687Y-117722183D01*
X133556688Y-117722186D01*
X133590915Y-117773409D01*
X133625142Y-117824633D01*
X133712267Y-117911758D01*
X133712270Y-117911760D01*
X133719554Y-117919044D01*
X142424400Y-126623890D01*
X142457885Y-126685213D01*
X142452901Y-126754905D01*
X142437038Y-126784456D01*
X142325376Y-126938146D01*
X142228904Y-127127482D01*
X142163242Y-127329569D01*
X142163242Y-127329572D01*
X142130000Y-127539453D01*
X142130000Y-127751946D01*
X142163242Y-127961827D01*
X142163242Y-127961830D01*
X142228904Y-128163917D01*
X142325375Y-128353250D01*
X142364728Y-128407416D01*
X142997036Y-127775107D01*
X143014075Y-127838693D01*
X143079901Y-127952707D01*
X143172993Y-128045799D01*
X143287007Y-128111625D01*
X143350590Y-128128662D01*
X142718282Y-128760969D01*
X142718282Y-128760970D01*
X142772449Y-128800324D01*
X142961782Y-128896795D01*
X143163870Y-128962457D01*
X143373754Y-128995700D01*
X143586246Y-128995700D01*
X143796127Y-128962457D01*
X143796130Y-128962457D01*
X143998217Y-128896795D01*
X144187554Y-128800322D01*
X144241716Y-128760970D01*
X144241717Y-128760970D01*
X143609408Y-128128662D01*
X143672993Y-128111625D01*
X143787007Y-128045799D01*
X143880099Y-127952707D01*
X143945925Y-127838693D01*
X143962962Y-127775109D01*
X144595270Y-128407417D01*
X144595270Y-128407416D01*
X144634622Y-128353254D01*
X144639514Y-128343654D01*
X144687488Y-128292857D01*
X144755308Y-128276061D01*
X144821444Y-128298597D01*
X144860486Y-128343654D01*
X144865375Y-128353250D01*
X144904728Y-128407416D01*
X145537036Y-127775107D01*
X145554075Y-127838693D01*
X145619901Y-127952707D01*
X145712993Y-128045799D01*
X145827007Y-128111625D01*
X145890590Y-128128662D01*
X145258282Y-128760969D01*
X145258282Y-128760970D01*
X145312449Y-128800324D01*
X145501782Y-128896795D01*
X145703870Y-128962457D01*
X145913754Y-128995700D01*
X146126246Y-128995700D01*
X146336127Y-128962457D01*
X146336130Y-128962457D01*
X146538217Y-128896795D01*
X146727554Y-128800322D01*
X146781716Y-128760970D01*
X146781717Y-128760970D01*
X146149408Y-128128662D01*
X146212993Y-128111625D01*
X146327007Y-128045799D01*
X146420099Y-127952707D01*
X146485925Y-127838693D01*
X146502962Y-127775109D01*
X147135270Y-128407417D01*
X147135270Y-128407416D01*
X147174622Y-128353254D01*
X147179514Y-128343654D01*
X147227488Y-128292857D01*
X147295308Y-128276061D01*
X147361444Y-128298597D01*
X147400486Y-128343654D01*
X147405375Y-128353250D01*
X147444728Y-128407416D01*
X148077037Y-127775108D01*
X148094075Y-127838693D01*
X148159901Y-127952707D01*
X148252993Y-128045799D01*
X148367007Y-128111625D01*
X148430590Y-128128662D01*
X147798282Y-128760969D01*
X147798282Y-128760970D01*
X147852449Y-128800324D01*
X148041782Y-128896795D01*
X148243870Y-128962457D01*
X148453754Y-128995700D01*
X148666246Y-128995700D01*
X148876127Y-128962457D01*
X148876130Y-128962457D01*
X149078217Y-128896795D01*
X149267554Y-128800322D01*
X149321716Y-128760970D01*
X149321717Y-128760970D01*
X148689408Y-128128662D01*
X148752993Y-128111625D01*
X148867007Y-128045799D01*
X148960099Y-127952707D01*
X149025925Y-127838693D01*
X149042962Y-127775109D01*
X149675270Y-128407417D01*
X149675270Y-128407416D01*
X149714622Y-128353254D01*
X149719514Y-128343654D01*
X149767488Y-128292857D01*
X149835308Y-128276061D01*
X149901444Y-128298597D01*
X149940486Y-128343654D01*
X149945375Y-128353250D01*
X149984728Y-128407416D01*
X150617036Y-127775107D01*
X150634075Y-127838693D01*
X150699901Y-127952707D01*
X150792993Y-128045799D01*
X150907007Y-128111625D01*
X150970590Y-128128662D01*
X150338282Y-128760969D01*
X150338282Y-128760970D01*
X150392449Y-128800324D01*
X150581782Y-128896795D01*
X150783870Y-128962457D01*
X150993754Y-128995700D01*
X151206246Y-128995700D01*
X151416127Y-128962457D01*
X151416130Y-128962457D01*
X151618217Y-128896795D01*
X151807554Y-128800322D01*
X151861716Y-128760970D01*
X151861717Y-128760970D01*
X151229408Y-128128662D01*
X151292993Y-128111625D01*
X151407007Y-128045799D01*
X151500099Y-127952707D01*
X151565925Y-127838693D01*
X151582962Y-127775108D01*
X152215270Y-128407417D01*
X152215270Y-128407416D01*
X152254622Y-128353254D01*
X152351095Y-128163917D01*
X152416757Y-127961830D01*
X152416757Y-127961827D01*
X152450000Y-127751946D01*
X152450000Y-127539453D01*
X152416757Y-127329572D01*
X152416757Y-127329569D01*
X152351095Y-127127482D01*
X152254624Y-126938149D01*
X152215270Y-126883982D01*
X152215269Y-126883982D01*
X151582962Y-127516290D01*
X151565925Y-127452707D01*
X151500099Y-127338693D01*
X151407007Y-127245601D01*
X151292993Y-127179775D01*
X151229409Y-127162737D01*
X151865889Y-126526255D01*
X151876977Y-126473468D01*
X151926027Y-126423710D01*
X151947222Y-126414409D01*
X152019334Y-126390514D01*
X152168656Y-126298412D01*
X152292712Y-126174356D01*
X152384814Y-126025034D01*
X152439999Y-125858497D01*
X152450500Y-125755709D01*
X152450500Y-125689691D01*
X165082600Y-125689691D01*
X165082600Y-126026708D01*
X165120331Y-126361581D01*
X165120333Y-126361597D01*
X165195323Y-126690153D01*
X165195327Y-126690165D01*
X165306632Y-127008254D01*
X165452852Y-127311883D01*
X165452854Y-127311886D01*
X165632154Y-127597239D01*
X165842275Y-127860723D01*
X166080577Y-128099025D01*
X166344061Y-128309146D01*
X166629414Y-128488446D01*
X166933049Y-128634669D01*
X167171948Y-128718263D01*
X167251134Y-128745972D01*
X167251146Y-128745976D01*
X167579706Y-128820967D01*
X167914592Y-128858699D01*
X167914593Y-128858700D01*
X167914596Y-128858700D01*
X168251607Y-128858700D01*
X168251607Y-128858699D01*
X168586494Y-128820967D01*
X168915054Y-128745976D01*
X169233151Y-128634669D01*
X169536786Y-128488446D01*
X169822139Y-128309146D01*
X170085623Y-128099025D01*
X170323925Y-127860723D01*
X170534046Y-127597239D01*
X170713346Y-127311886D01*
X170859569Y-127008251D01*
X170970876Y-126690154D01*
X171045867Y-126361594D01*
X171083600Y-126026704D01*
X171083600Y-125689696D01*
X171045867Y-125354806D01*
X170970876Y-125026246D01*
X170859569Y-124708149D01*
X170713346Y-124404514D01*
X170534046Y-124119161D01*
X170323925Y-123855677D01*
X170085623Y-123617375D01*
X169822139Y-123407254D01*
X169536786Y-123227954D01*
X169536783Y-123227952D01*
X169233154Y-123081732D01*
X168915065Y-122970427D01*
X168915053Y-122970423D01*
X168586497Y-122895433D01*
X168586481Y-122895431D01*
X168251608Y-122857700D01*
X168251604Y-122857700D01*
X167914596Y-122857700D01*
X167914591Y-122857700D01*
X167579718Y-122895431D01*
X167579702Y-122895433D01*
X167251146Y-122970423D01*
X167251134Y-122970427D01*
X166933045Y-123081732D01*
X166629416Y-123227952D01*
X166344062Y-123407253D01*
X166080577Y-123617374D01*
X165842274Y-123855677D01*
X165632153Y-124119162D01*
X165452852Y-124404516D01*
X165306632Y-124708145D01*
X165195327Y-125026234D01*
X165195323Y-125026246D01*
X165120333Y-125354802D01*
X165120331Y-125354818D01*
X165082600Y-125689691D01*
X152450500Y-125689691D01*
X152450499Y-124455692D01*
X152439999Y-124352903D01*
X152384814Y-124186366D01*
X152292712Y-124037044D01*
X152168656Y-123912988D01*
X152073253Y-123854143D01*
X152019336Y-123820887D01*
X152019331Y-123820885D01*
X152017862Y-123820398D01*
X151852797Y-123765701D01*
X151852795Y-123765700D01*
X151750010Y-123755200D01*
X150449998Y-123755200D01*
X150449981Y-123755201D01*
X150347203Y-123765700D01*
X150347200Y-123765701D01*
X150180668Y-123820885D01*
X150180663Y-123820887D01*
X150031342Y-123912989D01*
X149907289Y-124037042D01*
X149815187Y-124186363D01*
X149815183Y-124186373D01*
X149811685Y-124196929D01*
X149771910Y-124254372D01*
X149707393Y-124281193D01*
X149638618Y-124268874D01*
X149593663Y-124230806D01*
X149590105Y-124225909D01*
X149439786Y-124075590D01*
X149267820Y-123950651D01*
X149078414Y-123854144D01*
X149078413Y-123854143D01*
X149078412Y-123854143D01*
X148876243Y-123788454D01*
X148876241Y-123788453D01*
X148876240Y-123788453D01*
X148714957Y-123762908D01*
X148666287Y-123755200D01*
X148453713Y-123755200D01*
X148405042Y-123762908D01*
X148243760Y-123788453D01*
X148041585Y-123854144D01*
X147852179Y-123950651D01*
X147680213Y-124075590D01*
X147529890Y-124225913D01*
X147404949Y-124397882D01*
X147400484Y-124406646D01*
X147352509Y-124457442D01*
X147284688Y-124474236D01*
X147218553Y-124451698D01*
X147179516Y-124406646D01*
X147175050Y-124397882D01*
X147050109Y-124225913D01*
X146899786Y-124075590D01*
X146727819Y-123950650D01*
X146713203Y-123943203D01*
X146662408Y-123895227D01*
X146645500Y-123832719D01*
X146645500Y-103088496D01*
X146645500Y-103088494D01*
X146621463Y-102967648D01*
X146621461Y-102967643D01*
X146603505Y-102924293D01*
X146603501Y-102924285D01*
X146601932Y-102920497D01*
X146574312Y-102853815D01*
X146557256Y-102828290D01*
X146505858Y-102751367D01*
X146505856Y-102751364D01*
X146415637Y-102661145D01*
X146415606Y-102661116D01*
X144119819Y-100365329D01*
X144086334Y-100304006D01*
X144083500Y-100277648D01*
X144083500Y-100224406D01*
X144083499Y-100224404D01*
X144048896Y-100050441D01*
X144048893Y-100050432D01*
X143981016Y-99886559D01*
X143981009Y-99886546D01*
X143882464Y-99739065D01*
X143882461Y-99739061D01*
X143757038Y-99613638D01*
X143757034Y-99613635D01*
X143609553Y-99515090D01*
X143609540Y-99515083D01*
X143445667Y-99447206D01*
X143445658Y-99447203D01*
X143271694Y-99412600D01*
X143271691Y-99412600D01*
X143094309Y-99412600D01*
X143094306Y-99412600D01*
X142920341Y-99447203D01*
X142920332Y-99447206D01*
X142756459Y-99515083D01*
X142756446Y-99515090D01*
X142608965Y-99613635D01*
X142608961Y-99613638D01*
X142483538Y-99739061D01*
X142483535Y-99739065D01*
X142384990Y-99886546D01*
X142384983Y-99886559D01*
X142317106Y-100050432D01*
X142317103Y-100050441D01*
X142282500Y-100224404D01*
X142282500Y-100401795D01*
X142317103Y-100575758D01*
X142317106Y-100575767D01*
X142384983Y-100739640D01*
X142384990Y-100739653D01*
X142483535Y-100887134D01*
X142483538Y-100887138D01*
X142608961Y-101012561D01*
X142608965Y-101012564D01*
X142756446Y-101111109D01*
X142756459Y-101111116D01*
X142879363Y-101162023D01*
X142920334Y-101178994D01*
X142920336Y-101178994D01*
X142920341Y-101178996D01*
X143094304Y-101213599D01*
X143094307Y-101213600D01*
X143094309Y-101213600D01*
X143147548Y-101213600D01*
X143214587Y-101233285D01*
X143235229Y-101249919D01*
X145358181Y-103372871D01*
X145391666Y-103434194D01*
X145394500Y-103460552D01*
X145394500Y-123832719D01*
X145374815Y-123899758D01*
X145326797Y-123943203D01*
X145312180Y-123950650D01*
X145140213Y-124075590D01*
X144989890Y-124225913D01*
X144864949Y-124397882D01*
X144860484Y-124406646D01*
X144812509Y-124457442D01*
X144744688Y-124474236D01*
X144678553Y-124451698D01*
X144639516Y-124406646D01*
X144635050Y-124397882D01*
X144510109Y-124225913D01*
X144359786Y-124075590D01*
X144187819Y-123950650D01*
X144173203Y-123943203D01*
X144122408Y-123895227D01*
X144105500Y-123832719D01*
X144105500Y-112486394D01*
X144101485Y-112466213D01*
X144101484Y-112466208D01*
X144093803Y-112427587D01*
X144081463Y-112365549D01*
X144081462Y-112365546D01*
X144081459Y-112365538D01*
X144034314Y-112251718D01*
X144034312Y-112251715D01*
X144034312Y-112251714D01*
X144000084Y-112200490D01*
X143965858Y-112149267D01*
X143878733Y-112062142D01*
X143878729Y-112062139D01*
X140745319Y-108928729D01*
X140711834Y-108867406D01*
X140709000Y-108841048D01*
X140709000Y-108787806D01*
X140708999Y-108787804D01*
X140674396Y-108613841D01*
X140674393Y-108613832D01*
X140606516Y-108449959D01*
X140606509Y-108449946D01*
X140507964Y-108302465D01*
X140507961Y-108302461D01*
X140382538Y-108177038D01*
X140382534Y-108177035D01*
X140235053Y-108078490D01*
X140235040Y-108078483D01*
X140071167Y-108010606D01*
X140071158Y-108010603D01*
X139897194Y-107976000D01*
X139897191Y-107976000D01*
X139793400Y-107976000D01*
X139726361Y-107956315D01*
X139680606Y-107903511D01*
X139669400Y-107852000D01*
X139669400Y-91024152D01*
X139689085Y-90957113D01*
X139705719Y-90936471D01*
X140135287Y-90506904D01*
X147244300Y-90506904D01*
X147244300Y-90684295D01*
X147278903Y-90858258D01*
X147278906Y-90858267D01*
X147346783Y-91022140D01*
X147346790Y-91022153D01*
X147445335Y-91169634D01*
X147445338Y-91169638D01*
X147570761Y-91295061D01*
X147570765Y-91295064D01*
X147718246Y-91393609D01*
X147718259Y-91393616D01*
X147841163Y-91444523D01*
X147882134Y-91461494D01*
X147882136Y-91461494D01*
X147882141Y-91461496D01*
X147998591Y-91484659D01*
X148060502Y-91517044D01*
X148095076Y-91577759D01*
X148098400Y-91606276D01*
X148098400Y-112824038D01*
X148078715Y-112891077D01*
X148062081Y-112911719D01*
X148024438Y-112949361D01*
X148024435Y-112949365D01*
X147925890Y-113096846D01*
X147925883Y-113096859D01*
X147858006Y-113260732D01*
X147858003Y-113260741D01*
X147823400Y-113434704D01*
X147823400Y-113612095D01*
X147858003Y-113786058D01*
X147858006Y-113786067D01*
X147925883Y-113949940D01*
X147925890Y-113949953D01*
X148024435Y-114097434D01*
X148024438Y-114097438D01*
X148149861Y-114222861D01*
X148149865Y-114222864D01*
X148297346Y-114321409D01*
X148297359Y-114321416D01*
X148420263Y-114372323D01*
X148461234Y-114389294D01*
X148461236Y-114389294D01*
X148461241Y-114389296D01*
X148635204Y-114423899D01*
X148635207Y-114423900D01*
X148635209Y-114423900D01*
X148812593Y-114423900D01*
X148812594Y-114423899D01*
X148870582Y-114412364D01*
X148986558Y-114389296D01*
X148986561Y-114389294D01*
X148986566Y-114389294D01*
X149150447Y-114321413D01*
X149297935Y-114222864D01*
X149423364Y-114097435D01*
X149521913Y-113949947D01*
X149589794Y-113786066D01*
X149590040Y-113784832D01*
X149618816Y-113640165D01*
X149624400Y-113612091D01*
X149624400Y-113434709D01*
X149624400Y-113434706D01*
X149624399Y-113434704D01*
X149589796Y-113260741D01*
X149589793Y-113260732D01*
X149583892Y-113246485D01*
X149538503Y-113136904D01*
X157038800Y-113136904D01*
X157038800Y-113314295D01*
X157073403Y-113488258D01*
X157073406Y-113488267D01*
X157141283Y-113652140D01*
X157141290Y-113652153D01*
X157239835Y-113799634D01*
X157239838Y-113799638D01*
X157365261Y-113925061D01*
X157365265Y-113925064D01*
X157512746Y-114023609D01*
X157512759Y-114023616D01*
X157635663Y-114074523D01*
X157676634Y-114091494D01*
X157676636Y-114091494D01*
X157676641Y-114091496D01*
X157850604Y-114126099D01*
X157850607Y-114126100D01*
X157850609Y-114126100D01*
X158027993Y-114126100D01*
X158027994Y-114126099D01*
X158085982Y-114114564D01*
X158201958Y-114091496D01*
X158201961Y-114091494D01*
X158201966Y-114091494D01*
X158365847Y-114023613D01*
X158513335Y-113925064D01*
X158638764Y-113799635D01*
X158737313Y-113652147D01*
X158805194Y-113488266D01*
X158813083Y-113448609D01*
X158839799Y-113314295D01*
X158839800Y-113314293D01*
X158839800Y-113261052D01*
X158859485Y-113194013D01*
X158876119Y-113173371D01*
X159738854Y-112310637D01*
X159738857Y-112310634D01*
X159753459Y-112288781D01*
X159807311Y-112208186D01*
X159854463Y-112094351D01*
X159878500Y-111973507D01*
X159878500Y-111850294D01*
X159878500Y-90063961D01*
X159898185Y-89996922D01*
X159914820Y-89976279D01*
X159952461Y-89938638D01*
X159952464Y-89938635D01*
X160051013Y-89791147D01*
X160118894Y-89627266D01*
X160153500Y-89453291D01*
X160153500Y-89275909D01*
X160153500Y-89275906D01*
X160153499Y-89275904D01*
X160118896Y-89101941D01*
X160118893Y-89101932D01*
X160051016Y-88938059D01*
X160051009Y-88938046D01*
X159952464Y-88790565D01*
X159952461Y-88790561D01*
X159827038Y-88665138D01*
X159827034Y-88665135D01*
X159679553Y-88566590D01*
X159679540Y-88566583D01*
X159515667Y-88498706D01*
X159515658Y-88498703D01*
X159341694Y-88464100D01*
X159341691Y-88464100D01*
X159164309Y-88464100D01*
X159164306Y-88464100D01*
X158990341Y-88498703D01*
X158990332Y-88498706D01*
X158826459Y-88566583D01*
X158826446Y-88566590D01*
X158678965Y-88665135D01*
X158678961Y-88665138D01*
X158553538Y-88790561D01*
X158553535Y-88790565D01*
X158454990Y-88938046D01*
X158454983Y-88938059D01*
X158387106Y-89101932D01*
X158387103Y-89101941D01*
X158352500Y-89275904D01*
X158352500Y-89453295D01*
X158387103Y-89627258D01*
X158387106Y-89627267D01*
X158454983Y-89791140D01*
X158454990Y-89791153D01*
X158553535Y-89938634D01*
X158553538Y-89938638D01*
X158591180Y-89976279D01*
X158624666Y-90037601D01*
X158627500Y-90063961D01*
X158627500Y-111601447D01*
X158607815Y-111668486D01*
X158591181Y-111689128D01*
X157991529Y-112288781D01*
X157930206Y-112322266D01*
X157903848Y-112325100D01*
X157850606Y-112325100D01*
X157676641Y-112359703D01*
X157676632Y-112359706D01*
X157512759Y-112427583D01*
X157512746Y-112427590D01*
X157365265Y-112526135D01*
X157365261Y-112526138D01*
X157239838Y-112651561D01*
X157239835Y-112651565D01*
X157141290Y-112799046D01*
X157141283Y-112799059D01*
X157073406Y-112962932D01*
X157073403Y-112962941D01*
X157038800Y-113136904D01*
X149538503Y-113136904D01*
X149521913Y-113096853D01*
X149521909Y-113096846D01*
X149423364Y-112949365D01*
X149423361Y-112949361D01*
X149385719Y-112911719D01*
X149352234Y-112850396D01*
X149349400Y-112824038D01*
X149349400Y-96981304D01*
X150070500Y-96981304D01*
X150070500Y-97158695D01*
X150105103Y-97332658D01*
X150105106Y-97332667D01*
X150172983Y-97496540D01*
X150172990Y-97496553D01*
X150271535Y-97644034D01*
X150271538Y-97644038D01*
X150396961Y-97769461D01*
X150396965Y-97769464D01*
X150544446Y-97868009D01*
X150544459Y-97868016D01*
X150667363Y-97918923D01*
X150708334Y-97935894D01*
X150708336Y-97935894D01*
X150708341Y-97935896D01*
X150882304Y-97970499D01*
X150882307Y-97970500D01*
X150882309Y-97970500D01*
X150935546Y-97970500D01*
X150964982Y-97979143D01*
X150994972Y-97985667D01*
X150999989Y-97989422D01*
X151002585Y-97990185D01*
X151023227Y-98006818D01*
X151102481Y-98086071D01*
X151135966Y-98147394D01*
X151138800Y-98173753D01*
X151138800Y-109174738D01*
X151119115Y-109241777D01*
X151102481Y-109262419D01*
X151064838Y-109300061D01*
X151064835Y-109300065D01*
X150966290Y-109447546D01*
X150966283Y-109447559D01*
X150898406Y-109611432D01*
X150898403Y-109611441D01*
X150863800Y-109785404D01*
X150863800Y-109962795D01*
X150898403Y-110136758D01*
X150898406Y-110136767D01*
X150966283Y-110300640D01*
X150966290Y-110300653D01*
X151064835Y-110448134D01*
X151064838Y-110448138D01*
X151190261Y-110573561D01*
X151190265Y-110573564D01*
X151337746Y-110672109D01*
X151337759Y-110672116D01*
X151460663Y-110723023D01*
X151501634Y-110739994D01*
X151501636Y-110739994D01*
X151501641Y-110739996D01*
X151675604Y-110774599D01*
X151675607Y-110774600D01*
X151675609Y-110774600D01*
X151852993Y-110774600D01*
X151852994Y-110774599D01*
X151910982Y-110763064D01*
X152026958Y-110739996D01*
X152026961Y-110739994D01*
X152026966Y-110739994D01*
X152190847Y-110672113D01*
X152338335Y-110573564D01*
X152463764Y-110448135D01*
X152562313Y-110300647D01*
X152630194Y-110136766D01*
X152664800Y-109962791D01*
X152664800Y-109785409D01*
X152664800Y-109785406D01*
X152664799Y-109785404D01*
X152630196Y-109611441D01*
X152630193Y-109611432D01*
X152562316Y-109447559D01*
X152562309Y-109447546D01*
X152463764Y-109300065D01*
X152463761Y-109300061D01*
X152426119Y-109262419D01*
X152392634Y-109201096D01*
X152389800Y-109174738D01*
X152389800Y-97931041D01*
X152389801Y-97931020D01*
X152389801Y-97801691D01*
X152371468Y-97709531D01*
X152369751Y-97700897D01*
X152365763Y-97680848D01*
X152338121Y-97614114D01*
X152330489Y-97595689D01*
X152318614Y-97567019D01*
X152318613Y-97567017D01*
X152250158Y-97464566D01*
X151907819Y-97122227D01*
X151874334Y-97060904D01*
X151871500Y-97034546D01*
X151871500Y-96981306D01*
X151871499Y-96981304D01*
X151836896Y-96807341D01*
X151836893Y-96807332D01*
X151769016Y-96643459D01*
X151769009Y-96643446D01*
X151670464Y-96495965D01*
X151670461Y-96495961D01*
X151545038Y-96370538D01*
X151545034Y-96370535D01*
X151397553Y-96271990D01*
X151397540Y-96271983D01*
X151233667Y-96204106D01*
X151233658Y-96204103D01*
X151059694Y-96169500D01*
X151059691Y-96169500D01*
X150882309Y-96169500D01*
X150882306Y-96169500D01*
X150708341Y-96204103D01*
X150708332Y-96204106D01*
X150544459Y-96271983D01*
X150544446Y-96271990D01*
X150396965Y-96370535D01*
X150396961Y-96370538D01*
X150271538Y-96495961D01*
X150271535Y-96495965D01*
X150172990Y-96643446D01*
X150172983Y-96643459D01*
X150105106Y-96807332D01*
X150105103Y-96807341D01*
X150070500Y-96981304D01*
X149349400Y-96981304D01*
X149349400Y-91113096D01*
X149349400Y-91113094D01*
X149325363Y-90992248D01*
X149311552Y-90958907D01*
X149278212Y-90878414D01*
X149211150Y-90778051D01*
X149209758Y-90775967D01*
X149122633Y-90688842D01*
X149122632Y-90688841D01*
X149119521Y-90685730D01*
X149119506Y-90685716D01*
X149081619Y-90647829D01*
X149048134Y-90586506D01*
X149045300Y-90560148D01*
X149045300Y-90506906D01*
X149045299Y-90506904D01*
X149010696Y-90332941D01*
X149010693Y-90332933D01*
X148990419Y-90283985D01*
X148942816Y-90169059D01*
X148942809Y-90169046D01*
X148844264Y-90021565D01*
X148844261Y-90021561D01*
X148718838Y-89896138D01*
X148718834Y-89896135D01*
X148571353Y-89797590D01*
X148571340Y-89797583D01*
X148407467Y-89729706D01*
X148407458Y-89729703D01*
X148233494Y-89695100D01*
X148233491Y-89695100D01*
X148056109Y-89695100D01*
X148056106Y-89695100D01*
X147882141Y-89729703D01*
X147882132Y-89729706D01*
X147718259Y-89797583D01*
X147718246Y-89797590D01*
X147570765Y-89896135D01*
X147570761Y-89896138D01*
X147468244Y-89998655D01*
X147468237Y-89998663D01*
X147445336Y-90021565D01*
X147402775Y-90085261D01*
X147402755Y-90085288D01*
X147346789Y-90169048D01*
X147346783Y-90169059D01*
X147278906Y-90332932D01*
X147278903Y-90332941D01*
X147244300Y-90506904D01*
X140135287Y-90506904D01*
X140340772Y-90301419D01*
X140402095Y-90267934D01*
X140428453Y-90265100D01*
X140481693Y-90265100D01*
X140481694Y-90265099D01*
X140539682Y-90253564D01*
X140655658Y-90230496D01*
X140655661Y-90230494D01*
X140655666Y-90230494D01*
X140819547Y-90162613D01*
X140967035Y-90064064D01*
X141092464Y-89938635D01*
X141191013Y-89791147D01*
X141258894Y-89627266D01*
X141293500Y-89453291D01*
X141293500Y-89275909D01*
X141293500Y-89275906D01*
X141270023Y-89157881D01*
X141270022Y-89157878D01*
X141268414Y-89149792D01*
X146899500Y-89149792D01*
X146899500Y-89149793D01*
X146899500Y-89900207D01*
X146899793Y-89900500D01*
X147231560Y-89900500D01*
X147249793Y-89900500D01*
X147250207Y-89900500D01*
X147250500Y-89900207D01*
X147250500Y-89149793D01*
X147250207Y-89149500D01*
X146900207Y-89149500D01*
X146899793Y-89149500D01*
X146899792Y-89149500D01*
X146899500Y-89149792D01*
X141268414Y-89149792D01*
X141258894Y-89101934D01*
X141203995Y-88969395D01*
X141203992Y-88969386D01*
X141195876Y-88949792D01*
X155774500Y-88949792D01*
X155774500Y-88949793D01*
X155774500Y-90150207D01*
X155774793Y-90150500D01*
X156625207Y-90150500D01*
X156625500Y-90150207D01*
X156625500Y-88949793D01*
X156625207Y-88949500D01*
X155775207Y-88949500D01*
X155774793Y-88949500D01*
X155774792Y-88949500D01*
X155774500Y-88949792D01*
X141195876Y-88949792D01*
X141191016Y-88938059D01*
X141191009Y-88938046D01*
X141092464Y-88790565D01*
X141092461Y-88790561D01*
X140967038Y-88665138D01*
X140967034Y-88665135D01*
X140819553Y-88566590D01*
X140819540Y-88566583D01*
X140655667Y-88498706D01*
X140655658Y-88498703D01*
X140481694Y-88464100D01*
X140481691Y-88464100D01*
X140304309Y-88464100D01*
X140304306Y-88464100D01*
X140130341Y-88498703D01*
X140130332Y-88498706D01*
X139966459Y-88566583D01*
X139966446Y-88566590D01*
X139818965Y-88665135D01*
X139818961Y-88665138D01*
X139693538Y-88790561D01*
X139693535Y-88790565D01*
X139594990Y-88938046D01*
X139594983Y-88938059D01*
X139527106Y-89101932D01*
X139527103Y-89101941D01*
X139492500Y-89275904D01*
X139492500Y-89329147D01*
X139472815Y-89396186D01*
X139456181Y-89416828D01*
X138645166Y-90227843D01*
X138570722Y-90302285D01*
X138563233Y-90306374D01*
X138557936Y-90315125D01*
X138546038Y-90332932D01*
X138546037Y-90332933D01*
X138489586Y-90417416D01*
X138489585Y-90417418D01*
X138456247Y-90497907D01*
X138450723Y-90511243D01*
X138442437Y-90531245D01*
X138442435Y-90531253D01*
X138418400Y-90652089D01*
X138418400Y-111582847D01*
X138398715Y-111649886D01*
X138345911Y-111695641D01*
X138276753Y-111705585D01*
X138213197Y-111676560D01*
X138206719Y-111670528D01*
X135560819Y-109024628D01*
X135527334Y-108963305D01*
X135524500Y-108936947D01*
X135524500Y-90063961D01*
X135544185Y-89996922D01*
X135560820Y-89976279D01*
X135598461Y-89938638D01*
X135598464Y-89938635D01*
X135697013Y-89791147D01*
X135764894Y-89627266D01*
X135799500Y-89453291D01*
X135799500Y-89275909D01*
X135799500Y-89275906D01*
X135799499Y-89275904D01*
X135764896Y-89101941D01*
X135764893Y-89101932D01*
X135701876Y-88949792D01*
X137524500Y-88949792D01*
X137524500Y-88949793D01*
X137524500Y-90150207D01*
X137524793Y-90150500D01*
X138375207Y-90150500D01*
X138375413Y-90150414D01*
X138375498Y-90150208D01*
X138375500Y-90150207D01*
X138375500Y-88949793D01*
X138375207Y-88949500D01*
X137525207Y-88949500D01*
X137524793Y-88949500D01*
X137524792Y-88949500D01*
X137524500Y-88949792D01*
X135701876Y-88949792D01*
X135697016Y-88938059D01*
X135697009Y-88938046D01*
X135598464Y-88790565D01*
X135598461Y-88790561D01*
X135473038Y-88665138D01*
X135473034Y-88665135D01*
X135325553Y-88566590D01*
X135325540Y-88566583D01*
X135161667Y-88498706D01*
X135161658Y-88498703D01*
X134987694Y-88464100D01*
X134987691Y-88464100D01*
X134810309Y-88464100D01*
X134810306Y-88464100D01*
X134636341Y-88498703D01*
X134636332Y-88498706D01*
X134472459Y-88566583D01*
X134472446Y-88566590D01*
X134324965Y-88665135D01*
X134324961Y-88665138D01*
X134199538Y-88790561D01*
X134199535Y-88790565D01*
X134100990Y-88938046D01*
X134100983Y-88938059D01*
X134033106Y-89101932D01*
X134033103Y-89101941D01*
X133998500Y-89275904D01*
X133998500Y-89453295D01*
X134033103Y-89627258D01*
X134033106Y-89627267D01*
X134100983Y-89791140D01*
X134100990Y-89791153D01*
X134199535Y-89938634D01*
X134199538Y-89938638D01*
X134237180Y-89976279D01*
X134270666Y-90037601D01*
X134273500Y-90063961D01*
X134273500Y-107027500D01*
X134253815Y-107094539D01*
X134201011Y-107140294D01*
X134149500Y-107151500D01*
X134022306Y-107151500D01*
X133848341Y-107186103D01*
X133848332Y-107186106D01*
X133684459Y-107253983D01*
X133684446Y-107253990D01*
X133536965Y-107352535D01*
X133536961Y-107352538D01*
X133411538Y-107477961D01*
X133411535Y-107477965D01*
X133312990Y-107625446D01*
X133312983Y-107625459D01*
X133245106Y-107789332D01*
X133245103Y-107789341D01*
X133210500Y-107963304D01*
X114225630Y-107963304D01*
X114195890Y-107674012D01*
X114195531Y-107669811D01*
X114118921Y-106549815D01*
X114118709Y-106545689D01*
X114080382Y-105423709D01*
X114080310Y-105419476D01*
X114080310Y-104296923D01*
X114080382Y-104292690D01*
X114108808Y-103460552D01*
X114118709Y-103170707D01*
X114118921Y-103166587D01*
X114195532Y-102046564D01*
X114195892Y-102042369D01*
X114310697Y-100925627D01*
X114311189Y-100921528D01*
X114464057Y-99809330D01*
X114464694Y-99805220D01*
X114655440Y-98698911D01*
X114656229Y-98694766D01*
X114884629Y-97595643D01*
X114885538Y-97591615D01*
X115151347Y-96500861D01*
X115152388Y-96496884D01*
X115455199Y-95416138D01*
X115455548Y-95414922D01*
X115456514Y-95411724D01*
X115784297Y-94378968D01*
X115799666Y-94331666D01*
X115800720Y-94328568D01*
X116150704Y-93343809D01*
X116150838Y-93343437D01*
X116180827Y-93261042D01*
X116181935Y-93258120D01*
X116368958Y-92783863D01*
X116554010Y-92314605D01*
X116554393Y-92313645D01*
X116560515Y-92298489D01*
X116598546Y-92204361D01*
X116599730Y-92201535D01*
X116994082Y-91293646D01*
X116994194Y-91293392D01*
X117052363Y-91162743D01*
X117053515Y-91160242D01*
X117469854Y-90284806D01*
X117470162Y-90284166D01*
X117541574Y-90137749D01*
X117542835Y-90135243D01*
X117981163Y-89289308D01*
X117981404Y-89288850D01*
X118065687Y-89130336D01*
X118067000Y-89127935D01*
X118527058Y-88309722D01*
X118527575Y-88308815D01*
X118624058Y-88141702D01*
X118625396Y-88139445D01*
X119107179Y-87347186D01*
X119107742Y-87346272D01*
X119215956Y-87173094D01*
X119217248Y-87171076D01*
X119720776Y-86403385D01*
X119721379Y-86402480D01*
X119840613Y-86225708D01*
X119841970Y-86223743D01*
X120366994Y-85479953D01*
X120367703Y-85478962D01*
X120497284Y-85300609D01*
X120498613Y-85298819D01*
X121045207Y-84578026D01*
X121046010Y-84576983D01*
X121185128Y-84398920D01*
X121186401Y-84397324D01*
X121754530Y-83698999D01*
X121755420Y-83697922D01*
X121762327Y-83689691D01*
X123082600Y-83689691D01*
X123082600Y-84026708D01*
X123120331Y-84361581D01*
X123120333Y-84361597D01*
X123195323Y-84690153D01*
X123195327Y-84690165D01*
X123306632Y-85008254D01*
X123452852Y-85311883D01*
X123489702Y-85370529D01*
X123632154Y-85597239D01*
X123842275Y-85860723D01*
X124080577Y-86099025D01*
X124344061Y-86309146D01*
X124629414Y-86488446D01*
X124933049Y-86634669D01*
X125171948Y-86718263D01*
X125251134Y-86745972D01*
X125251146Y-86745976D01*
X125579706Y-86820967D01*
X125914592Y-86858699D01*
X125914593Y-86858700D01*
X125914596Y-86858700D01*
X126251607Y-86858700D01*
X126251607Y-86858699D01*
X126586494Y-86820967D01*
X126915054Y-86745976D01*
X127233151Y-86634669D01*
X127513226Y-86499792D01*
X135949500Y-86499792D01*
X135949500Y-86499793D01*
X135949500Y-87500207D01*
X135949793Y-87500500D01*
X139950207Y-87500500D01*
X139950500Y-87500207D01*
X139950500Y-86499793D01*
X139950499Y-86499792D01*
X145074500Y-86499792D01*
X145074500Y-86499793D01*
X145074500Y-87500207D01*
X145074793Y-87500500D01*
X149075207Y-87500500D01*
X149075500Y-87500207D01*
X149075500Y-86499793D01*
X149075499Y-86499792D01*
X154199500Y-86499792D01*
X154199500Y-86499793D01*
X154199500Y-87500207D01*
X154199793Y-87500500D01*
X158200207Y-87500500D01*
X158200500Y-87500207D01*
X158200500Y-86499793D01*
X158200207Y-86499500D01*
X154200207Y-86499500D01*
X154199793Y-86499500D01*
X154199792Y-86499500D01*
X154199500Y-86499792D01*
X149075499Y-86499792D01*
X149075207Y-86499500D01*
X145075207Y-86499500D01*
X145074793Y-86499500D01*
X145074792Y-86499500D01*
X145074500Y-86499792D01*
X139950499Y-86499792D01*
X139950207Y-86499500D01*
X135950207Y-86499500D01*
X135949793Y-86499500D01*
X135949792Y-86499500D01*
X135949500Y-86499792D01*
X127513226Y-86499792D01*
X127536786Y-86488446D01*
X127822139Y-86309146D01*
X128085623Y-86099025D01*
X128323925Y-85860723D01*
X128534046Y-85597239D01*
X128713346Y-85311886D01*
X128859569Y-85008251D01*
X128970876Y-84690154D01*
X129045867Y-84361594D01*
X129083600Y-84026704D01*
X129083600Y-83689696D01*
X129083599Y-83689691D01*
X165082600Y-83689691D01*
X165082600Y-84026708D01*
X165120331Y-84361581D01*
X165120333Y-84361597D01*
X165195323Y-84690153D01*
X165195327Y-84690165D01*
X165306632Y-85008254D01*
X165452852Y-85311883D01*
X165489702Y-85370529D01*
X165632154Y-85597239D01*
X165842275Y-85860723D01*
X166080577Y-86099025D01*
X166344061Y-86309146D01*
X166629414Y-86488446D01*
X166933049Y-86634669D01*
X167171948Y-86718263D01*
X167251134Y-86745972D01*
X167251146Y-86745976D01*
X167579706Y-86820967D01*
X167914592Y-86858699D01*
X167914593Y-86858700D01*
X167914596Y-86858700D01*
X168251607Y-86858700D01*
X168251607Y-86858699D01*
X168586494Y-86820967D01*
X168915054Y-86745976D01*
X169233151Y-86634669D01*
X169536786Y-86488446D01*
X169822139Y-86309146D01*
X170085623Y-86099025D01*
X170323925Y-85860723D01*
X170534046Y-85597239D01*
X170713346Y-85311886D01*
X170859569Y-85008251D01*
X170970876Y-84690154D01*
X171045867Y-84361594D01*
X171083600Y-84026704D01*
X171083600Y-83689696D01*
X171045867Y-83354806D01*
X170970876Y-83026246D01*
X170859569Y-82708149D01*
X170713346Y-82404514D01*
X170534046Y-82119161D01*
X170323925Y-81855677D01*
X170085623Y-81617375D01*
X169822139Y-81407254D01*
X169536786Y-81227954D01*
X169536783Y-81227952D01*
X169233154Y-81081732D01*
X168915065Y-80970427D01*
X168915053Y-80970423D01*
X168586497Y-80895433D01*
X168586481Y-80895431D01*
X168251608Y-80857700D01*
X168251604Y-80857700D01*
X167914596Y-80857700D01*
X167914591Y-80857700D01*
X167579718Y-80895431D01*
X167579702Y-80895433D01*
X167251146Y-80970423D01*
X167251134Y-80970427D01*
X166933045Y-81081732D01*
X166629416Y-81227952D01*
X166344062Y-81407253D01*
X166080577Y-81617374D01*
X165842274Y-81855677D01*
X165632153Y-82119162D01*
X165452852Y-82404516D01*
X165306632Y-82708145D01*
X165195327Y-83026234D01*
X165195323Y-83026246D01*
X165120333Y-83354802D01*
X165120331Y-83354818D01*
X165082600Y-83689691D01*
X129083599Y-83689691D01*
X129045867Y-83354806D01*
X128970876Y-83026246D01*
X128859569Y-82708149D01*
X128713346Y-82404514D01*
X128534046Y-82119161D01*
X128323925Y-81855677D01*
X128085623Y-81617375D01*
X127822139Y-81407254D01*
X127536786Y-81227954D01*
X127536783Y-81227952D01*
X127233154Y-81081732D01*
X126915065Y-80970427D01*
X126915053Y-80970423D01*
X126586497Y-80895433D01*
X126586481Y-80895431D01*
X126251608Y-80857700D01*
X126251604Y-80857700D01*
X125914596Y-80857700D01*
X125914591Y-80857700D01*
X125579718Y-80895431D01*
X125579702Y-80895433D01*
X125251146Y-80970423D01*
X125251134Y-80970427D01*
X124933045Y-81081732D01*
X124629416Y-81227952D01*
X124344062Y-81407253D01*
X124080577Y-81617374D01*
X123842274Y-81855677D01*
X123632153Y-82119162D01*
X123452852Y-82404516D01*
X123306632Y-82708145D01*
X123195327Y-83026234D01*
X123195323Y-83026246D01*
X123120333Y-83354802D01*
X123120331Y-83354818D01*
X123082600Y-83689691D01*
X121762327Y-83689691D01*
X121903222Y-83521779D01*
X121904578Y-83520194D01*
X122494030Y-82844182D01*
X122495152Y-82842915D01*
X122650742Y-82670115D01*
X122652011Y-82668730D01*
X123263074Y-82014442D01*
X123264241Y-82013214D01*
X123426684Y-81844999D01*
X123427968Y-81843693D01*
X124060493Y-81211168D01*
X124061799Y-81209884D01*
X124230014Y-81047441D01*
X124231242Y-81046274D01*
X124885530Y-80435211D01*
X124886915Y-80433942D01*
X125059715Y-80278352D01*
X125060982Y-80277230D01*
X125736994Y-79687778D01*
X125738579Y-79686422D01*
X125914722Y-79538620D01*
X125915799Y-79537730D01*
X126614124Y-78969601D01*
X126615720Y-78968328D01*
X126793783Y-78829210D01*
X126794826Y-78828407D01*
X127515619Y-78281813D01*
X127517409Y-78280484D01*
X127695762Y-78150903D01*
X127696753Y-78150194D01*
X128440543Y-77625170D01*
X128442508Y-77623813D01*
X128619280Y-77504579D01*
X128620185Y-77503976D01*
X129387876Y-77000448D01*
X129389894Y-76999156D01*
X129563072Y-76890942D01*
X129563986Y-76890379D01*
X130356245Y-76408596D01*
X130358502Y-76407258D01*
X130525615Y-76310775D01*
X130526522Y-76310258D01*
X131344735Y-75850200D01*
X131347136Y-75848887D01*
X131505650Y-75764604D01*
X131506108Y-75764363D01*
X132352043Y-75326035D01*
X132354549Y-75324774D01*
X132500966Y-75253362D01*
X132501606Y-75253054D01*
X133377042Y-74836715D01*
X133379543Y-74835563D01*
X133510192Y-74777394D01*
X133510446Y-74777282D01*
X134418335Y-74382930D01*
X134421161Y-74381746D01*
X134530445Y-74337593D01*
X134531405Y-74337210D01*
X135000663Y-74152158D01*
X135474920Y-73965135D01*
X135477842Y-73964027D01*
X135560237Y-73934038D01*
X135560609Y-73933904D01*
X136545368Y-73583920D01*
X136548466Y-73582866D01*
X136595768Y-73567497D01*
X136595799Y-73567486D01*
X137628524Y-73239714D01*
X137631722Y-73238748D01*
X137632938Y-73238399D01*
X138713684Y-72935588D01*
X138717661Y-72934547D01*
X139808415Y-72668738D01*
X139812443Y-72667829D01*
X140911569Y-72439428D01*
X140915711Y-72438640D01*
X142022020Y-72247894D01*
X142026130Y-72247257D01*
X143138328Y-72094389D01*
X143142427Y-72093897D01*
X144259192Y-71979090D01*
X144263364Y-71978732D01*
X145383387Y-71902121D01*
X145387507Y-71901909D01*
X146509490Y-71863581D01*
X146513723Y-71863510D01*
X147636277Y-71863510D01*
X147640509Y-71863581D01*
G37*
%TD.AperFunction*%
%TD*%
M02*
