%TF.GenerationSoftware,KiCad,Pcbnew,9.0.6*%
%TF.CreationDate,2026-02-10T22:22:55-08:00*%
%TF.ProjectId,LegEncoderBoard,4c656745-6e63-46f6-9465-72426f617264,rev?*%
%TF.SameCoordinates,Original*%
%TF.FileFunction,Soldermask,Top*%
%TF.FilePolarity,Negative*%
%FSLAX46Y46*%
G04 Gerber Fmt 4.6, Leading zero omitted, Abs format (unit mm)*
G04 Created by KiCad (PCBNEW 9.0.6) date 2026-02-10 22:22:55*
%MOMM*%
%LPD*%
G01*
G04 APERTURE LIST*
G04 Aperture macros list*
%AMRoundRect*
0 Rectangle with rounded corners*
0 $1 Rounding radius*
0 $2 $3 $4 $5 $6 $7 $8 $9 X,Y pos of 4 corners*
0 Add a 4 corners polygon primitive as box body*
4,1,4,$2,$3,$4,$5,$6,$7,$8,$9,$2,$3,0*
0 Add four circle primitives for the rounded corners*
1,1,$1+$1,$2,$3*
1,1,$1+$1,$4,$5*
1,1,$1+$1,$6,$7*
1,1,$1+$1,$8,$9*
0 Add four rect primitives between the rounded corners*
20,1,$1+$1,$2,$3,$4,$5,0*
20,1,$1+$1,$4,$5,$6,$7,0*
20,1,$1+$1,$6,$7,$8,$9,0*
20,1,$1+$1,$8,$9,$2,$3,0*%
G04 Aperture macros list end*
%ADD10R,0.889000X0.812800*%
%ADD11C,5.000000*%
%ADD12R,0.558800X0.762000*%
%ADD13RoundRect,0.102000X-0.430000X-0.490000X0.430000X-0.490000X0.430000X0.490000X-0.430000X0.490000X0*%
%ADD14RoundRect,0.102000X0.520000X0.510000X-0.520000X0.510000X-0.520000X-0.510000X0.520000X-0.510000X0*%
%ADD15R,0.762000X0.558800*%
%ADD16R,0.806400X0.350000*%
%ADD17R,0.812800X0.711200*%
%ADD18R,1.308100X0.355600*%
%ADD19R,0.762000X0.863600*%
%ADD20RoundRect,0.250000X-0.600000X0.600000X-0.600000X-0.600000X0.600000X-0.600000X0.600000X0.600000X0*%
%ADD21C,1.700000*%
%ADD22RoundRect,0.075500X0.736500X0.226500X-0.736500X0.226500X-0.736500X-0.226500X0.736500X-0.226500X0*%
%ADD23RoundRect,0.102000X-0.700000X-0.500000X0.700000X-0.500000X0.700000X0.500000X-0.700000X0.500000X0*%
%ADD24R,1.100000X1.300000*%
%ADD25RoundRect,0.102000X-0.490000X0.430000X-0.490000X-0.430000X0.490000X-0.430000X0.490000X0.430000X0*%
%ADD26RoundRect,0.102000X-0.520000X-0.510000X0.520000X-0.510000X0.520000X0.510000X-0.520000X0.510000X0*%
G04 APERTURE END LIST*
D10*
%TO.C,C6*%
X155810500Y-111747700D03*
X155810500Y-110452300D03*
%TD*%
%TO.C,C5*%
X129060500Y-111747700D03*
X129060500Y-110452300D03*
%TD*%
D11*
%TO.C,H2*%
X168083100Y-83858200D03*
%TD*%
D10*
%TO.C,C3*%
X154250000Y-106997700D03*
X154250000Y-105702300D03*
%TD*%
D12*
%TO.C,R14*%
X133126100Y-102582300D03*
X134472300Y-102582300D03*
%TD*%
D13*
%TO.C,R4*%
X146030500Y-114193100D03*
X147560500Y-114193100D03*
%TD*%
D14*
%TO.C,R9*%
X160895500Y-114331300D03*
X159425500Y-114331300D03*
%TD*%
D15*
%TO.C,R3*%
X134355400Y-110426900D03*
X134355400Y-111773100D03*
%TD*%
D16*
%TO.C,CR3*%
X143759700Y-114193100D03*
X141561300Y-114193100D03*
%TD*%
D17*
%TO.C,C2*%
X152450000Y-105599900D03*
X152450000Y-107200100D03*
%TD*%
D10*
%TO.C,C7*%
X142360500Y-111747700D03*
X142360500Y-110452300D03*
%TD*%
D18*
%TO.C,U1*%
X144092250Y-102908199D03*
X144092250Y-103558200D03*
X144092250Y-104208201D03*
X144092250Y-104858200D03*
X144092250Y-105508199D03*
X144092250Y-106158200D03*
X144092250Y-106808199D03*
X149896150Y-106808201D03*
X149896150Y-106158200D03*
X149896150Y-105508201D03*
X149896150Y-104858200D03*
X149896150Y-104208201D03*
X149896150Y-103558200D03*
X149896150Y-102908201D03*
%TD*%
D19*
%TO.C,C4*%
X133227700Y-105710500D03*
X134472300Y-105710500D03*
%TD*%
D11*
%TO.C,H1*%
X126083100Y-83858200D03*
%TD*%
D19*
%TO.C,C1*%
X153377700Y-103550000D03*
X154622300Y-103550000D03*
%TD*%
D20*
%TO.C,J1*%
X151100000Y-125105700D03*
D21*
X151100000Y-127645700D03*
X148560000Y-125105700D03*
X148560000Y-127645700D03*
X146020000Y-125105700D03*
X146020000Y-127645700D03*
X143480000Y-125105700D03*
X143480000Y-127645700D03*
%TD*%
D22*
%TO.C,U2*%
X140220000Y-104748500D03*
X140220000Y-104098500D03*
X140220000Y-103448500D03*
X140220000Y-102798500D03*
X136680000Y-102798500D03*
X136680000Y-103448500D03*
X136680000Y-104098500D03*
X136680000Y-104748500D03*
%TD*%
D23*
%TO.C,Q3*%
X149910500Y-110150000D03*
X149910500Y-112050000D03*
X152110500Y-111100000D03*
%TD*%
D24*
%TO.C,D3*%
X155150000Y-89550000D03*
X157250000Y-89550000D03*
%TD*%
D19*
%TO.C,D1*%
X146452700Y-89530200D03*
X147697300Y-89530200D03*
%TD*%
D12*
%TO.C,R15*%
X139376900Y-106750000D03*
X140723100Y-106750000D03*
%TD*%
D25*
%TO.C,R1*%
X131038100Y-110335000D03*
X131038100Y-111865000D03*
%TD*%
D26*
%TO.C,R6*%
X132826300Y-114214100D03*
X134296300Y-114214100D03*
%TD*%
D12*
%TO.C,R13*%
X133126100Y-104121000D03*
X134472300Y-104121000D03*
%TD*%
D25*
%TO.C,R5*%
X157775600Y-110335000D03*
X157775600Y-111865000D03*
%TD*%
D15*
%TO.C,R8*%
X161067900Y-110426900D03*
X161067900Y-111773100D03*
%TD*%
D23*
%TO.C,Q1*%
X136460500Y-110150000D03*
X136460500Y-112050000D03*
X138660500Y-111100000D03*
%TD*%
D24*
%TO.C,D2*%
X136900000Y-89550000D03*
X139000000Y-89550000D03*
%TD*%
D16*
%TO.C,CR2*%
X157209700Y-114331300D03*
X155011300Y-114331300D03*
%TD*%
D11*
%TO.C,H4*%
X168083100Y-125858200D03*
%TD*%
D15*
%TO.C,R2*%
X132799900Y-110426900D03*
X132799900Y-111773100D03*
%TD*%
D11*
%TO.C,H3*%
X126083100Y-125858200D03*
%TD*%
D15*
%TO.C,R11*%
X146174900Y-110426900D03*
X146174900Y-111773100D03*
%TD*%
%TO.C,R7*%
X159524900Y-110426900D03*
X159524900Y-111773100D03*
%TD*%
D23*
%TO.C,Q2*%
X163160500Y-110150000D03*
X163160500Y-112050000D03*
X165360500Y-111100000D03*
%TD*%
D25*
%TO.C,R10*%
X144375600Y-110335000D03*
X144375600Y-111865000D03*
%TD*%
D16*
%TO.C,CR1*%
X130460500Y-114214100D03*
X128262100Y-114214100D03*
%TD*%
D15*
%TO.C,R12*%
X147767900Y-110426900D03*
X147767900Y-111773100D03*
%TD*%
M02*
