%TF.GenerationSoftware,KiCad,Pcbnew,9.0.6*%
%TF.CreationDate,2026-02-10T22:22:55-08:00*%
%TF.ProjectId,LegEncoderBoard,4c656745-6e63-46f6-9465-72426f617264,rev?*%
%TF.SameCoordinates,Original*%
%TF.FileFunction,Legend,Bot*%
%TF.FilePolarity,Positive*%
%FSLAX46Y46*%
G04 Gerber Fmt 4.6, Leading zero omitted, Abs format (unit mm)*
G04 Created by KiCad (PCBNEW 9.0.6) date 2026-02-10 22:22:55*
%MOMM*%
%LPD*%
G01*
G04 APERTURE LIST*
G04 Aperture macros list*
%AMRoundRect*
0 Rectangle with rounded corners*
0 $1 Rounding radius*
0 $2 $3 $4 $5 $6 $7 $8 $9 X,Y pos of 4 corners*
0 Add a 4 corners polygon primitive as box body*
4,1,4,$2,$3,$4,$5,$6,$7,$8,$9,$2,$3,0*
0 Add four circle primitives for the rounded corners*
1,1,$1+$1,$2,$3*
1,1,$1+$1,$4,$5*
1,1,$1+$1,$6,$7*
1,1,$1+$1,$8,$9*
0 Add four rect primitives between the rounded corners*
20,1,$1+$1,$2,$3,$4,$5,0*
20,1,$1+$1,$4,$5,$6,$7,0*
20,1,$1+$1,$6,$7,$8,$9,0*
20,1,$1+$1,$8,$9,$2,$3,0*%
G04 Aperture macros list end*
%ADD10C,0.150000*%
%ADD11C,0.000000*%
%ADD12C,0.250000*%
%ADD13C,5.000000*%
%ADD14RoundRect,0.250000X-0.600000X0.600000X-0.600000X-0.600000X0.600000X-0.600000X0.600000X0.600000X0*%
%ADD15C,1.700000*%
G04 APERTURE END LIST*
D10*
X151255952Y-121343750D02*
X151255952Y-120356250D01*
X143466429Y-121343750D02*
X143466429Y-120356250D01*
D11*
G36*
X147247831Y-93908130D02*
G01*
X147468797Y-93918998D01*
X147685151Y-93936804D01*
X147897066Y-93961295D01*
X148104719Y-93992221D01*
X148308282Y-94029328D01*
X148703840Y-94121079D01*
X149085135Y-94234535D01*
X149453562Y-94367679D01*
X149810517Y-94518497D01*
X150157395Y-94684972D01*
X150495591Y-94865091D01*
X150826501Y-95056836D01*
X151151520Y-95258193D01*
X151472043Y-95467147D01*
X152737083Y-96338618D01*
X153985583Y-97195207D01*
X154298096Y-97397727D01*
X154614175Y-97592495D01*
X154935525Y-97777962D01*
X155263852Y-97952576D01*
X155600860Y-98114789D01*
X155948256Y-98263048D01*
X156307744Y-98395805D01*
X156681030Y-98511509D01*
X157069819Y-98608609D01*
X157475817Y-98685555D01*
X157900729Y-98740797D01*
X158346260Y-98772785D01*
X161415428Y-98772785D01*
X161415428Y-101524452D01*
X158346260Y-101524452D01*
X158042066Y-101519252D01*
X157744538Y-101503937D01*
X157453522Y-101478932D01*
X157168862Y-101444664D01*
X156890403Y-101401559D01*
X156617991Y-101350044D01*
X156351469Y-101290545D01*
X156090684Y-101223489D01*
X155835479Y-101149301D01*
X155585701Y-101068408D01*
X155101802Y-100888212D01*
X154637748Y-100686312D01*
X154192296Y-100466119D01*
X153764209Y-100231043D01*
X153352244Y-99984495D01*
X152955162Y-99729885D01*
X152571723Y-99470624D01*
X151149589Y-98455286D01*
X150642538Y-98069573D01*
X150149131Y-97711145D01*
X149905605Y-97544489D01*
X149663165Y-97387444D01*
X149421035Y-97240941D01*
X149178440Y-97105911D01*
X148934605Y-96983282D01*
X148688755Y-96873987D01*
X148440114Y-96778954D01*
X148187908Y-96699114D01*
X147931360Y-96635397D01*
X147669697Y-96588733D01*
X147402142Y-96560052D01*
X147127921Y-96550285D01*
X146872303Y-96558890D01*
X146620871Y-96584392D01*
X146372849Y-96626327D01*
X146127463Y-96684231D01*
X145883938Y-96757637D01*
X145641497Y-96846081D01*
X145399367Y-96949098D01*
X145156772Y-97066223D01*
X144912937Y-97196990D01*
X144667086Y-97340935D01*
X144418444Y-97497592D01*
X144166237Y-97666497D01*
X143909689Y-97847183D01*
X143648024Y-98039187D01*
X143106246Y-98455286D01*
X142415021Y-99012564D01*
X141684109Y-99559921D01*
X141300670Y-99823677D01*
X140903588Y-100077512D01*
X140491624Y-100318944D01*
X140063537Y-100545494D01*
X139618087Y-100754680D01*
X139154033Y-100944022D01*
X138670135Y-101111041D01*
X138165154Y-101253254D01*
X137637848Y-101368183D01*
X137086978Y-101453345D01*
X136511303Y-101506262D01*
X135909583Y-101524452D01*
X132840415Y-101524452D01*
X132840415Y-98772785D01*
X135909583Y-98772785D01*
X136106790Y-98769107D01*
X136301574Y-98758238D01*
X136493994Y-98740433D01*
X136684108Y-98715941D01*
X137057651Y-98647909D01*
X137422667Y-98556158D01*
X137779621Y-98442702D01*
X138128979Y-98309558D01*
X138471206Y-98158740D01*
X138806767Y-97992265D01*
X139136126Y-97812146D01*
X139459750Y-97620401D01*
X139778102Y-97419044D01*
X140091648Y-97210090D01*
X140706183Y-96777455D01*
X141307075Y-96338618D01*
X141938975Y-95869396D01*
X142572116Y-95422499D01*
X142892640Y-95211297D01*
X143217659Y-95010327D01*
X143548569Y-94821140D01*
X143886766Y-94645285D01*
X144233644Y-94484313D01*
X144590599Y-94339774D01*
X144959027Y-94213218D01*
X145340321Y-94106196D01*
X145735879Y-94020258D01*
X146147094Y-93956955D01*
X146575362Y-93917836D01*
X147022079Y-93904451D01*
X147247831Y-93908130D01*
G37*
D10*
X148546429Y-121343750D02*
X148546429Y-120356250D01*
D11*
G36*
X136107935Y-108196847D02*
G01*
X136405462Y-108211278D01*
X136696478Y-108234855D01*
X136981138Y-108267192D01*
X137259597Y-108307900D01*
X137532010Y-108356592D01*
X137798531Y-108412880D01*
X138059317Y-108476378D01*
X138564299Y-108623449D01*
X139048198Y-108794704D01*
X139512253Y-108987044D01*
X139957704Y-109197367D01*
X140385792Y-109422572D01*
X140797756Y-109659560D01*
X141194838Y-109905230D01*
X141578277Y-110156481D01*
X142309188Y-110663324D01*
X143000411Y-111155284D01*
X143507460Y-111540997D01*
X144000867Y-111899424D01*
X144244392Y-112066080D01*
X144486832Y-112223125D01*
X144728962Y-112369628D01*
X144971557Y-112504658D01*
X145215392Y-112627286D01*
X145461243Y-112736582D01*
X145709885Y-112831615D01*
X145962092Y-112911455D01*
X146218639Y-112975172D01*
X146480303Y-113021836D01*
X146747858Y-113050516D01*
X147022079Y-113060283D01*
X147277697Y-113051679D01*
X147529130Y-113026176D01*
X147777151Y-112984241D01*
X148022537Y-112926337D01*
X148266063Y-112852931D01*
X148508503Y-112764487D01*
X148750633Y-112661470D01*
X148993227Y-112544345D01*
X149237062Y-112413578D01*
X149482913Y-112269634D01*
X149731554Y-112112977D01*
X149983760Y-111944072D01*
X150240308Y-111763386D01*
X150501971Y-111571382D01*
X151043746Y-111155284D01*
X151734556Y-110667666D01*
X152462573Y-110171365D01*
X152842860Y-109926548D01*
X153235239Y-109687467D01*
X153640640Y-109456758D01*
X154059994Y-109237055D01*
X154494231Y-109030996D01*
X154944281Y-108841214D01*
X155411073Y-108670346D01*
X155895540Y-108521026D01*
X156398609Y-108395892D01*
X156921212Y-108297577D01*
X157464279Y-108228719D01*
X158028739Y-108191951D01*
X161097907Y-108191951D01*
X161097907Y-110943618D01*
X158028739Y-110943618D01*
X157831532Y-110947297D01*
X157636747Y-110958165D01*
X157444327Y-110975971D01*
X157254213Y-111000462D01*
X156880669Y-111068494D01*
X156515653Y-111160245D01*
X156158698Y-111273701D01*
X155809340Y-111406845D01*
X155467113Y-111557663D01*
X155131552Y-111724138D01*
X154802193Y-111904256D01*
X154478569Y-112096002D01*
X154160217Y-112297359D01*
X153846670Y-112506312D01*
X153232134Y-112938947D01*
X152631240Y-113377784D01*
X151999342Y-113847005D01*
X151366203Y-114293903D01*
X151045681Y-114505104D01*
X150720662Y-114706074D01*
X150389752Y-114895261D01*
X150051555Y-115071116D01*
X149704677Y-115232088D01*
X149347721Y-115376627D01*
X148979294Y-115503183D01*
X148597998Y-115610205D01*
X148202440Y-115696143D01*
X147791224Y-115759446D01*
X147362954Y-115798566D01*
X146916236Y-115811950D01*
X146690184Y-115808271D01*
X146468357Y-115797403D01*
X146250638Y-115779597D01*
X146036911Y-115755106D01*
X145827059Y-115724181D01*
X145620967Y-115687074D01*
X145219597Y-115595322D01*
X144831869Y-115481867D01*
X144456853Y-115348723D01*
X144093620Y-115197905D01*
X143741239Y-115031430D01*
X143398780Y-114851311D01*
X143065312Y-114659566D01*
X142739906Y-114458209D01*
X142421631Y-114249255D01*
X141802754Y-113816620D01*
X141201240Y-113377784D01*
X140578641Y-112908562D01*
X139970926Y-112461665D01*
X139667999Y-112250463D01*
X139363211Y-112049494D01*
X139054703Y-111860306D01*
X138740613Y-111684451D01*
X138419083Y-111523479D01*
X138088250Y-111378940D01*
X137746256Y-111252385D01*
X137391239Y-111145363D01*
X137021340Y-111059425D01*
X136634697Y-110996121D01*
X136229451Y-110957002D01*
X135803741Y-110943618D01*
X132734573Y-110943618D01*
X132734573Y-108191951D01*
X135803741Y-108191951D01*
X136107935Y-108196847D01*
G37*
G36*
X147248132Y-98458964D02*
G01*
X147469960Y-98469832D01*
X147687679Y-98487638D01*
X147901407Y-98512129D01*
X148111259Y-98543054D01*
X148317351Y-98580161D01*
X148718723Y-98671913D01*
X149106451Y-98785368D01*
X149481468Y-98918513D01*
X149844701Y-99069330D01*
X150197083Y-99235806D01*
X150539543Y-99415924D01*
X150873011Y-99607669D01*
X151198417Y-99809027D01*
X151516692Y-100017980D01*
X152135569Y-100450616D01*
X152737083Y-100889452D01*
X153364433Y-101389059D01*
X153674931Y-101624988D01*
X153985583Y-101850220D01*
X154298096Y-102063669D01*
X154614175Y-102264251D01*
X154935525Y-102450880D01*
X155263852Y-102622472D01*
X155600860Y-102777940D01*
X155948256Y-102916200D01*
X156307744Y-103036167D01*
X156681030Y-103136755D01*
X157069819Y-103216879D01*
X157475817Y-103275455D01*
X157900729Y-103311396D01*
X158346260Y-103323617D01*
X161415428Y-103323617D01*
X161415428Y-106075284D01*
X158346260Y-106075284D01*
X158042066Y-106070084D01*
X157744538Y-106054769D01*
X157453522Y-106029764D01*
X157168862Y-105995496D01*
X156890403Y-105952391D01*
X156617991Y-105900876D01*
X156351469Y-105841377D01*
X156090684Y-105774321D01*
X155835479Y-105700133D01*
X155585701Y-105619240D01*
X155101802Y-105439044D01*
X154637748Y-105237144D01*
X154192296Y-105016951D01*
X153764209Y-104781875D01*
X153352244Y-104535327D01*
X152955162Y-104280717D01*
X152571723Y-104021457D01*
X151149589Y-103006118D01*
X150642538Y-102620405D01*
X150149131Y-102261978D01*
X149905605Y-102095321D01*
X149663165Y-101938277D01*
X149421035Y-101791774D01*
X149178440Y-101656743D01*
X148934605Y-101534115D01*
X148688755Y-101424819D01*
X148440114Y-101329786D01*
X148187908Y-101249946D01*
X147931360Y-101186229D01*
X147669697Y-101139565D01*
X147402142Y-101110885D01*
X147127921Y-101101118D01*
X146872303Y-101109722D01*
X146620871Y-101135225D01*
X146372849Y-101177160D01*
X146127463Y-101235063D01*
X145883938Y-101308470D01*
X145641497Y-101396914D01*
X145399367Y-101499931D01*
X145156772Y-101617056D01*
X144912937Y-101747823D01*
X144667086Y-101891767D01*
X144418444Y-102048425D01*
X144166237Y-102217329D01*
X143909689Y-102398016D01*
X143648024Y-102590019D01*
X143106246Y-103006118D01*
X142415021Y-103563396D01*
X141684109Y-104110753D01*
X141300670Y-104374510D01*
X140903588Y-104628344D01*
X140491624Y-104869776D01*
X140063537Y-105096326D01*
X139618087Y-105305512D01*
X139154033Y-105494854D01*
X138670135Y-105661873D01*
X138165154Y-105804086D01*
X137637848Y-105919015D01*
X137086978Y-106004177D01*
X136511303Y-106057094D01*
X135909583Y-106075284D01*
X132840415Y-106075284D01*
X132840415Y-103323618D01*
X135909583Y-103323618D01*
X136106790Y-103319939D01*
X136301574Y-103309071D01*
X136493994Y-103291265D01*
X136684108Y-103266774D01*
X137057651Y-103198742D01*
X137422667Y-103106990D01*
X137779621Y-102993535D01*
X138128979Y-102860391D01*
X138471206Y-102709573D01*
X138806767Y-102543097D01*
X139136126Y-102362979D01*
X139459750Y-102171234D01*
X139778102Y-101969877D01*
X140091648Y-101760923D01*
X140706183Y-101328288D01*
X141307075Y-100889452D01*
X141938975Y-100420230D01*
X142572116Y-99973332D01*
X142892640Y-99762130D01*
X143217659Y-99561161D01*
X143548569Y-99371973D01*
X143886766Y-99196118D01*
X144233644Y-99035146D01*
X144590599Y-98890607D01*
X144959027Y-98764052D01*
X145340321Y-98657030D01*
X145735879Y-98571092D01*
X146147094Y-98507788D01*
X146575362Y-98468669D01*
X147022079Y-98455285D01*
X147248132Y-98458964D01*
G37*
D10*
X146006429Y-121343750D02*
X146006429Y-120356250D01*
X148345589Y-119065895D02*
X148821779Y-119065895D01*
X148250351Y-118780180D02*
X148583684Y-119780180D01*
X148583684Y-119780180D02*
X148917017Y-118780180D01*
X148089411Y-131567438D02*
X148184649Y-131519819D01*
X148184649Y-131519819D02*
X148327506Y-131519819D01*
X148327506Y-131519819D02*
X148470363Y-131567438D01*
X148470363Y-131567438D02*
X148565601Y-131662676D01*
X148565601Y-131662676D02*
X148613220Y-131757914D01*
X148613220Y-131757914D02*
X148660839Y-131948390D01*
X148660839Y-131948390D02*
X148660839Y-132091247D01*
X148660839Y-132091247D02*
X148613220Y-132281723D01*
X148613220Y-132281723D02*
X148565601Y-132376961D01*
X148565601Y-132376961D02*
X148470363Y-132472200D01*
X148470363Y-132472200D02*
X148327506Y-132519819D01*
X148327506Y-132519819D02*
X148232268Y-132519819D01*
X148232268Y-132519819D02*
X148089411Y-132472200D01*
X148089411Y-132472200D02*
X148041792Y-132424580D01*
X148041792Y-132424580D02*
X148041792Y-132091247D01*
X148041792Y-132091247D02*
X148232268Y-132091247D01*
X147613220Y-132519819D02*
X147613220Y-131519819D01*
X147613220Y-131519819D02*
X147041792Y-132519819D01*
X147041792Y-132519819D02*
X147041792Y-131519819D01*
X146565601Y-132519819D02*
X146565601Y-131519819D01*
X146565601Y-131519819D02*
X146327506Y-131519819D01*
X146327506Y-131519819D02*
X146184649Y-131567438D01*
X146184649Y-131567438D02*
X146089411Y-131662676D01*
X146089411Y-131662676D02*
X146041792Y-131757914D01*
X146041792Y-131757914D02*
X145994173Y-131948390D01*
X145994173Y-131948390D02*
X145994173Y-132091247D01*
X145994173Y-132091247D02*
X146041792Y-132281723D01*
X146041792Y-132281723D02*
X146089411Y-132376961D01*
X146089411Y-132376961D02*
X146184649Y-132472200D01*
X146184649Y-132472200D02*
X146327506Y-132519819D01*
X146327506Y-132519819D02*
X146565601Y-132519819D01*
X146115112Y-119303990D02*
X146257969Y-119256371D01*
X146257969Y-119256371D02*
X146305588Y-119208752D01*
X146305588Y-119208752D02*
X146353207Y-119113514D01*
X146353207Y-119113514D02*
X146353207Y-118970657D01*
X146353207Y-118970657D02*
X146305588Y-118875419D01*
X146305588Y-118875419D02*
X146257969Y-118827800D01*
X146257969Y-118827800D02*
X146162731Y-118780180D01*
X146162731Y-118780180D02*
X145781779Y-118780180D01*
X145781779Y-118780180D02*
X145781779Y-119780180D01*
X145781779Y-119780180D02*
X146115112Y-119780180D01*
X146115112Y-119780180D02*
X146210350Y-119732561D01*
X146210350Y-119732561D02*
X146257969Y-119684942D01*
X146257969Y-119684942D02*
X146305588Y-119589704D01*
X146305588Y-119589704D02*
X146305588Y-119494466D01*
X146305588Y-119494466D02*
X146257969Y-119399228D01*
X146257969Y-119399228D02*
X146210350Y-119351609D01*
X146210350Y-119351609D02*
X146115112Y-119303990D01*
X146115112Y-119303990D02*
X145781779Y-119303990D01*
X149991541Y-119780180D02*
X150610588Y-119780180D01*
X150610588Y-119780180D02*
X150277255Y-119399228D01*
X150277255Y-119399228D02*
X150420112Y-119399228D01*
X150420112Y-119399228D02*
X150515350Y-119351609D01*
X150515350Y-119351609D02*
X150562969Y-119303990D01*
X150562969Y-119303990D02*
X150610588Y-119208752D01*
X150610588Y-119208752D02*
X150610588Y-118970657D01*
X150610588Y-118970657D02*
X150562969Y-118875419D01*
X150562969Y-118875419D02*
X150515350Y-118827800D01*
X150515350Y-118827800D02*
X150420112Y-118780180D01*
X150420112Y-118780180D02*
X150134398Y-118780180D01*
X150134398Y-118780180D02*
X150039160Y-118827800D01*
X150039160Y-118827800D02*
X149991541Y-118875419D01*
X150896303Y-119780180D02*
X151229636Y-118780180D01*
X151229636Y-118780180D02*
X151562969Y-119780180D01*
X151801065Y-119780180D02*
X152420112Y-119780180D01*
X152420112Y-119780180D02*
X152086779Y-119399228D01*
X152086779Y-119399228D02*
X152229636Y-119399228D01*
X152229636Y-119399228D02*
X152324874Y-119351609D01*
X152324874Y-119351609D02*
X152372493Y-119303990D01*
X152372493Y-119303990D02*
X152420112Y-119208752D01*
X152420112Y-119208752D02*
X152420112Y-118970657D01*
X152420112Y-118970657D02*
X152372493Y-118875419D01*
X152372493Y-118875419D02*
X152324874Y-118827800D01*
X152324874Y-118827800D02*
X152229636Y-118780180D01*
X152229636Y-118780180D02*
X151943922Y-118780180D01*
X151943922Y-118780180D02*
X151848684Y-118827800D01*
X151848684Y-118827800D02*
X151801065Y-118875419D01*
X143503684Y-118780180D02*
X143503684Y-119780180D01*
D12*
X137604949Y-91268595D02*
X138081139Y-91268595D01*
X137509711Y-90982880D02*
X137843044Y-91982880D01*
X137843044Y-91982880D02*
X138176377Y-90982880D01*
X146964473Y-90982880D02*
X146964473Y-91982880D01*
X156160901Y-91506690D02*
X156303758Y-91459071D01*
X156303758Y-91459071D02*
X156351377Y-91411452D01*
X156351377Y-91411452D02*
X156398996Y-91316214D01*
X156398996Y-91316214D02*
X156398996Y-91173357D01*
X156398996Y-91173357D02*
X156351377Y-91078119D01*
X156351377Y-91078119D02*
X156303758Y-91030500D01*
X156303758Y-91030500D02*
X156208520Y-90982880D01*
X156208520Y-90982880D02*
X155827568Y-90982880D01*
X155827568Y-90982880D02*
X155827568Y-91982880D01*
X155827568Y-91982880D02*
X156160901Y-91982880D01*
X156160901Y-91982880D02*
X156256139Y-91935261D01*
X156256139Y-91935261D02*
X156303758Y-91887642D01*
X156303758Y-91887642D02*
X156351377Y-91792404D01*
X156351377Y-91792404D02*
X156351377Y-91697166D01*
X156351377Y-91697166D02*
X156303758Y-91601928D01*
X156303758Y-91601928D02*
X156256139Y-91554309D01*
X156256139Y-91554309D02*
X156160901Y-91506690D01*
X156160901Y-91506690D02*
X155827568Y-91506690D01*
%LPC*%
D13*
%TO.C,H2*%
X168083100Y-83858200D03*
%TD*%
%TO.C,H1*%
X126083100Y-83858200D03*
%TD*%
D14*
%TO.C,J1*%
X151100000Y-125105700D03*
D15*
X151100000Y-127645700D03*
X148560000Y-125105700D03*
X148560000Y-127645700D03*
X146020000Y-125105700D03*
X146020000Y-127645700D03*
X143480000Y-125105700D03*
X143480000Y-127645700D03*
%TD*%
D13*
%TO.C,H4*%
X168083100Y-125858200D03*
%TD*%
%TO.C,H3*%
X126083100Y-125858200D03*
%TD*%
%LPD*%
M02*
