%TF.GenerationSoftware,KiCad,Pcbnew,9.0.6*%
%TF.CreationDate,2026-04-01T08:53:56-07:00*%
%TF.ProjectId,LegEncoderBoard,4c656745-6e63-46f6-9465-72426f617264,rev?*%
%TF.SameCoordinates,Original*%
%TF.FileFunction,Copper,L2,Bot*%
%TF.FilePolarity,Positive*%
%FSLAX46Y46*%
G04 Gerber Fmt 4.6, Leading zero omitted, Abs format (unit mm)*
G04 Created by KiCad (PCBNEW 9.0.6) date 2026-04-01 08:53:56*
%MOMM*%
%LPD*%
G01*
G04 APERTURE LIST*
G04 Aperture macros list*
%AMRoundRect*
0 Rectangle with rounded corners*
0 $1 Rounding radius*
0 $2 $3 $4 $5 $6 $7 $8 $9 X,Y pos of 4 corners*
0 Add a 4 corners polygon primitive as box body*
4,1,4,$2,$3,$4,$5,$6,$7,$8,$9,$2,$3,0*
0 Add four circle primitives for the rounded corners*
1,1,$1+$1,$2,$3*
1,1,$1+$1,$4,$5*
1,1,$1+$1,$6,$7*
1,1,$1+$1,$8,$9*
0 Add four rect primitives between the rounded corners*
20,1,$1+$1,$2,$3,$4,$5,0*
20,1,$1+$1,$4,$5,$6,$7,0*
20,1,$1+$1,$6,$7,$8,$9,0*
20,1,$1+$1,$8,$9,$2,$3,0*%
G04 Aperture macros list end*
%TA.AperFunction,ComponentPad*%
%ADD10C,5.000000*%
%TD*%
%TA.AperFunction,ComponentPad*%
%ADD11RoundRect,0.250000X-0.600000X0.600000X-0.600000X-0.600000X0.600000X-0.600000X0.600000X0.600000X0*%
%TD*%
%TA.AperFunction,ComponentPad*%
%ADD12C,1.700000*%
%TD*%
%TA.AperFunction,ComponentPad*%
%ADD13RoundRect,0.250000X-0.600000X-0.725000X0.600000X-0.725000X0.600000X0.725000X-0.600000X0.725000X0*%
%TD*%
%TA.AperFunction,ComponentPad*%
%ADD14O,1.700000X1.950000*%
%TD*%
%TA.AperFunction,ViaPad*%
%ADD15C,0.800000*%
%TD*%
%TA.AperFunction,Conductor*%
%ADD16C,0.250000*%
%TD*%
G04 APERTURE END LIST*
D10*
%TO.P,H2,1*%
%TO.N,N/C*%
X168083100Y-83858200D03*
%TD*%
%TO.P,H1,1*%
%TO.N,N/C*%
X126083100Y-83858200D03*
%TD*%
D11*
%TO.P,J1,1,Pin_1*%
%TO.N,VIN*%
X151100000Y-125105700D03*
D12*
%TO.P,J1,2,Pin_2*%
%TO.N,GND*%
X151100000Y-127645700D03*
%TO.P,J1,3,Pin_3*%
%TO.N,/A_OUT*%
X148560000Y-125105700D03*
%TO.P,J1,4,Pin_4*%
%TO.N,GND*%
X148560000Y-127645700D03*
%TO.P,J1,5,Pin_5*%
%TO.N,/B_OUT*%
X146020000Y-125105700D03*
%TO.P,J1,6,Pin_6*%
%TO.N,GND*%
X146020000Y-127645700D03*
%TO.P,J1,7,Pin_7*%
%TO.N,/I_OUT*%
X143480000Y-125105700D03*
%TO.P,J1,8,Pin_8*%
%TO.N,GND*%
X143480000Y-127645700D03*
%TD*%
D10*
%TO.P,H4,1*%
%TO.N,N/C*%
X168083100Y-125858200D03*
%TD*%
%TO.P,H3,1*%
%TO.N,N/C*%
X126083100Y-125858200D03*
%TD*%
D13*
%TO.P,J2,1,Pin_1*%
%TO.N,CS*%
X143325000Y-81600000D03*
D14*
%TO.P,J2,2,Pin_2*%
%TO.N,CLK*%
X145825000Y-81600000D03*
%TO.P,J2,3,Pin_3*%
%TO.N,MISO*%
X148325000Y-81600000D03*
%TO.P,J2,4,Pin_4*%
%TO.N,MOSI*%
X150825000Y-81600000D03*
%TD*%
D15*
%TO.N,GND*%
X141650000Y-103000000D03*
X153300000Y-99150000D03*
X156500000Y-103100000D03*
X131400000Y-113250000D03*
X142350000Y-113050000D03*
X156550000Y-108600000D03*
X155850000Y-112950000D03*
X136150000Y-121450000D03*
X152250000Y-116650000D03*
X138150000Y-119550000D03*
X158100000Y-101350000D03*
X154150000Y-108600000D03*
X159850000Y-112950000D03*
X142350000Y-116100000D03*
X147100000Y-109200000D03*
X153200000Y-102300000D03*
X129150000Y-112900000D03*
X133850000Y-106750000D03*
X152250000Y-113950000D03*
%TO.N,B_BUF*%
X158039000Y-108354900D03*
X158759000Y-120433400D03*
%TO.N,I_BUF*%
X140298300Y-111944300D03*
X139526500Y-120275200D03*
%TO.N,/I_LED_ANODE*%
X148145000Y-90595600D03*
X148724000Y-113523000D03*
%TO.N,/I_LED_CATHODE*%
X150971000Y-97070000D03*
X151764000Y-109874000D03*
%TO.N,/A_LED_ANODE*%
X139250000Y-114048000D03*
X140393000Y-89364600D03*
%TO.N,/A_LED_CATHODE*%
X138302000Y-112651000D03*
X134899000Y-89364600D03*
%TO.N,/B_LED_ANODE*%
X159253000Y-89364600D03*
X157939000Y-113226000D03*
%TO.N,/A_PULSE*%
X127800000Y-115600000D03*
X129957400Y-115607400D03*
%TO.N,/A_OUT*%
X134111000Y-108052000D03*
%TO.N,/B_OUT*%
X143183000Y-100313000D03*
%TO.N,/I_OUT*%
X139808000Y-108876000D03*
%TO.N,/B_PULSE*%
X153900000Y-114350000D03*
X153900000Y-115800000D03*
%TO.N,MOSI*%
X142450000Y-103750000D03*
%TO.N,CLK*%
X146900000Y-103750000D03*
%TO.N,CS*%
X143650000Y-88950000D03*
X146650000Y-102700000D03*
%TO.N,MISO*%
X147372000Y-105602400D03*
%TD*%
D16*
%TO.N,GND*%
X131050000Y-112900000D02*
X131400000Y-113250000D01*
X152250000Y-113950000D02*
X152250000Y-116650000D01*
X142350000Y-113050000D02*
X142350000Y-116100000D01*
X155850000Y-115350000D02*
X154550000Y-116650000D01*
X156500000Y-103100000D02*
X156500000Y-102950000D01*
X156500000Y-102950000D02*
X158100000Y-101350000D01*
X154550000Y-116650000D02*
X152250000Y-116650000D01*
X129150000Y-112900000D02*
X131050000Y-112900000D01*
X153300000Y-99150000D02*
X153300000Y-102200000D01*
X153300000Y-102200000D02*
X153200000Y-102300000D01*
X155850000Y-112950000D02*
X155850000Y-115350000D01*
X138050000Y-119550000D02*
X136150000Y-121450000D01*
X154150000Y-108600000D02*
X156550000Y-108600000D01*
X138150000Y-119550000D02*
X138050000Y-119550000D01*
%TO.N,B_BUF*%
X157212300Y-118886700D02*
X157212300Y-109181600D01*
X158759000Y-120433400D02*
X157212300Y-118886700D01*
X157212300Y-109181600D02*
X158039000Y-108354900D01*
%TO.N,I_BUF*%
X140298300Y-119503400D02*
X140298300Y-111944300D01*
X139526500Y-120275200D02*
X140298300Y-119503400D01*
%TO.N,/I_LED_ANODE*%
X148724000Y-91174700D02*
X148724000Y-113523000D01*
X148145000Y-90595600D02*
X148724000Y-91174700D01*
%TO.N,/I_LED_CATHODE*%
X151764000Y-97863300D02*
X151764000Y-109874000D01*
X150971000Y-97070000D02*
X151764000Y-97863300D01*
%TO.N,/A_LED_ANODE*%
X139044000Y-113841000D02*
X139044000Y-90713700D01*
X139044000Y-90713700D02*
X140393000Y-89364600D01*
X139250000Y-114048000D02*
X139044000Y-113841000D01*
%TO.N,/A_LED_CATHODE*%
X134899000Y-109247000D02*
X138302000Y-112651000D01*
X134899000Y-89364600D02*
X134899000Y-109247000D01*
%TO.N,/B_LED_ANODE*%
X159253000Y-111912000D02*
X159253000Y-89364600D01*
X157939000Y-113226000D02*
X159253000Y-111912000D01*
%TO.N,/A_PULSE*%
X129950000Y-115600000D02*
X127800000Y-115600000D01*
%TO.N,/A_OUT*%
X148560000Y-125106000D02*
X148560000Y-125105700D01*
X139969280Y-126296000D02*
X147369000Y-126296000D01*
X147369000Y-126296000D02*
X148560000Y-125106000D01*
X134111000Y-120437720D02*
X139969280Y-126296000D01*
X134111000Y-108052000D02*
X134111000Y-120437720D01*
%TO.N,/B_OUT*%
X146020000Y-125105700D02*
X146020000Y-125106000D01*
X143183000Y-100313000D02*
X146020000Y-103150000D01*
X146020000Y-103150000D02*
X146020000Y-125105700D01*
%TO.N,/I_OUT*%
X143480000Y-112548000D02*
X143480000Y-125105700D01*
X143480000Y-125105700D02*
X143480000Y-125106000D01*
X139808000Y-108876000D02*
X143480000Y-112548000D01*
%TO.N,/B_PULSE*%
X153900000Y-114350000D02*
X153900000Y-115800000D01*
%TO.N,MOSI*%
X147149000Y-84247809D02*
X147149000Y-80987885D01*
X147149000Y-80987885D02*
X147837885Y-80299000D01*
X149524000Y-80299000D02*
X150825000Y-81600000D01*
X142457000Y-102680280D02*
X142457000Y-88939809D01*
X147837885Y-80299000D02*
X149524000Y-80299000D01*
X142457000Y-88939809D02*
X147149000Y-84247809D01*
X142526000Y-102749280D02*
X142457000Y-102680280D01*
X142450000Y-103750000D02*
X142526000Y-103674000D01*
X142526000Y-103674000D02*
X142526000Y-102749280D01*
%TO.N,CLK*%
X152001000Y-85254400D02*
X152001000Y-80987885D01*
X147577000Y-79848000D02*
X145825000Y-81600000D01*
X148423280Y-114249000D02*
X149024720Y-114249000D01*
X146900000Y-103750000D02*
X146646000Y-104004000D01*
X150861115Y-79848000D02*
X147577000Y-79848000D01*
X152001000Y-80987885D02*
X150861115Y-79848000D01*
X149952700Y-113321020D02*
X149952700Y-87302700D01*
X146646000Y-104004000D02*
X146646000Y-105903120D01*
X149024720Y-114249000D02*
X149952700Y-113321020D01*
X147998000Y-113823720D02*
X148423280Y-114249000D01*
X149952700Y-87302700D02*
X152001000Y-85254400D01*
X147998000Y-107255120D02*
X147998000Y-113823720D01*
X146646000Y-105903120D02*
X147998000Y-107255120D01*
%TO.N,CS*%
X146650000Y-102700000D02*
X143650000Y-99700000D01*
X143650000Y-99700000D02*
X143650000Y-88950000D01*
%TO.N,MISO*%
X148325000Y-81600000D02*
X149501700Y-81600000D01*
X147876700Y-103501500D02*
X147876700Y-105097700D01*
X147876700Y-105097700D02*
X147372000Y-105602400D01*
X149501700Y-88143300D02*
X147381000Y-90264000D01*
X149501700Y-81600000D02*
X149501700Y-88143300D01*
X147381000Y-90264000D02*
X147381000Y-103005800D01*
X147381000Y-103005800D02*
X147876700Y-103501500D01*
%TD*%
%TA.AperFunction,Conductor*%
%TO.N,GND*%
G36*
X149780397Y-125964551D02*
G01*
X149811686Y-126014472D01*
X149815184Y-126025029D01*
X149815187Y-126025036D01*
X149850069Y-126081588D01*
X149907288Y-126174356D01*
X150031344Y-126298412D01*
X150180666Y-126390514D01*
X150252770Y-126414407D01*
X150310214Y-126454178D01*
X150337038Y-126518694D01*
X150337197Y-126529343D01*
X150970591Y-127162737D01*
X150907007Y-127179775D01*
X150792993Y-127245601D01*
X150699901Y-127338693D01*
X150634075Y-127452707D01*
X150617037Y-127516291D01*
X149984728Y-126883982D01*
X149984727Y-126883982D01*
X149945380Y-126938140D01*
X149940483Y-126947751D01*
X149892506Y-126998545D01*
X149824684Y-127015338D01*
X149758550Y-126992798D01*
X149719516Y-126947748D01*
X149714626Y-126938152D01*
X149675270Y-126883982D01*
X149675269Y-126883982D01*
X149042962Y-127516290D01*
X149025925Y-127452707D01*
X148960099Y-127338693D01*
X148867007Y-127245601D01*
X148752993Y-127179775D01*
X148689408Y-127162737D01*
X149321716Y-126530428D01*
X149267547Y-126491073D01*
X149267547Y-126491072D01*
X149258500Y-126486463D01*
X149207706Y-126438488D01*
X149190912Y-126370666D01*
X149213451Y-126304532D01*
X149258508Y-126265493D01*
X149267816Y-126260751D01*
X149356515Y-126196308D01*
X149439786Y-126135809D01*
X149439788Y-126135806D01*
X149439792Y-126135804D01*
X149590104Y-125985492D01*
X149593660Y-125980596D01*
X149648987Y-125937930D01*
X149718600Y-125931948D01*
X149780397Y-125964551D01*
G37*
%TD.AperFunction*%
%TA.AperFunction,Conductor*%
G36*
X139874703Y-109827739D02*
G01*
X139881181Y-109833771D01*
X142818181Y-112770771D01*
X142851666Y-112832094D01*
X142854500Y-112858452D01*
X142854500Y-123832719D01*
X142834815Y-123899758D01*
X142786797Y-123943203D01*
X142772180Y-123950650D01*
X142600213Y-124075590D01*
X142449890Y-124225913D01*
X142324951Y-124397879D01*
X142228444Y-124587285D01*
X142162753Y-124789460D01*
X142129500Y-124999413D01*
X142129500Y-125211986D01*
X142162753Y-125421940D01*
X142190775Y-125508182D01*
X142192770Y-125578023D01*
X142156690Y-125637856D01*
X142093989Y-125668684D01*
X142072844Y-125670500D01*
X140279732Y-125670500D01*
X140212693Y-125650815D01*
X140192051Y-125634181D01*
X134772819Y-120214949D01*
X134739334Y-120153626D01*
X134736500Y-120127268D01*
X134736500Y-110268597D01*
X134756185Y-110201558D01*
X134808989Y-110155803D01*
X134878147Y-110145859D01*
X134941703Y-110174884D01*
X134948191Y-110180926D01*
X137355556Y-112588999D01*
X137365194Y-112598639D01*
X137398670Y-112659967D01*
X137401500Y-112686307D01*
X137401500Y-112739695D01*
X137436103Y-112913658D01*
X137436106Y-112913667D01*
X137503983Y-113077540D01*
X137503990Y-113077553D01*
X137602535Y-113225034D01*
X137602538Y-113225038D01*
X137727961Y-113350461D01*
X137727965Y-113350464D01*
X137875446Y-113449009D01*
X137875459Y-113449016D01*
X137971185Y-113488666D01*
X138039334Y-113516894D01*
X138039336Y-113516894D01*
X138039341Y-113516896D01*
X138213304Y-113551499D01*
X138213307Y-113551500D01*
X138294500Y-113551500D01*
X138303185Y-113554050D01*
X138312147Y-113552762D01*
X138336187Y-113563740D01*
X138361539Y-113571185D01*
X138367466Y-113578025D01*
X138375703Y-113581787D01*
X138389992Y-113604021D01*
X138407294Y-113623989D01*
X138409581Y-113634503D01*
X138413477Y-113640565D01*
X138418500Y-113675500D01*
X138418500Y-113677634D01*
X138409062Y-113725081D01*
X138384106Y-113785334D01*
X138384105Y-113785338D01*
X138384104Y-113785341D01*
X138384103Y-113785341D01*
X138349500Y-113959304D01*
X138349500Y-114136695D01*
X138384103Y-114310658D01*
X138384106Y-114310667D01*
X138451983Y-114474540D01*
X138451990Y-114474553D01*
X138550535Y-114622034D01*
X138550538Y-114622038D01*
X138675961Y-114747461D01*
X138675965Y-114747464D01*
X138823446Y-114846009D01*
X138823459Y-114846016D01*
X138892227Y-114874500D01*
X138987334Y-114913894D01*
X138987336Y-114913894D01*
X138987341Y-114913896D01*
X139161304Y-114948499D01*
X139161307Y-114948500D01*
X139161309Y-114948500D01*
X139338693Y-114948500D01*
X139338694Y-114948499D01*
X139512666Y-114913894D01*
X139512674Y-114913890D01*
X139512793Y-114913855D01*
X139512868Y-114913854D01*
X139518641Y-114912706D01*
X139518858Y-114913800D01*
X139582660Y-114913225D01*
X139641777Y-114950467D01*
X139671374Y-115013758D01*
X139672800Y-115032512D01*
X139672800Y-119192948D01*
X139664155Y-119222388D01*
X139657632Y-119252375D01*
X139653877Y-119257390D01*
X139653115Y-119259987D01*
X139636481Y-119280629D01*
X139578729Y-119338381D01*
X139517406Y-119371866D01*
X139491048Y-119374700D01*
X139437806Y-119374700D01*
X139263841Y-119409303D01*
X139263832Y-119409306D01*
X139099959Y-119477183D01*
X139099946Y-119477190D01*
X138952465Y-119575735D01*
X138952461Y-119575738D01*
X138827038Y-119701161D01*
X138827035Y-119701165D01*
X138728490Y-119848646D01*
X138728483Y-119848659D01*
X138660606Y-120012532D01*
X138660603Y-120012541D01*
X138626000Y-120186504D01*
X138626000Y-120363895D01*
X138660603Y-120537858D01*
X138660606Y-120537867D01*
X138728483Y-120701740D01*
X138728490Y-120701753D01*
X138827035Y-120849234D01*
X138827038Y-120849238D01*
X138952461Y-120974661D01*
X138952465Y-120974664D01*
X139099946Y-121073209D01*
X139099959Y-121073216D01*
X139222863Y-121124123D01*
X139263834Y-121141094D01*
X139263836Y-121141094D01*
X139263841Y-121141096D01*
X139437804Y-121175699D01*
X139437807Y-121175700D01*
X139437809Y-121175700D01*
X139615193Y-121175700D01*
X139615194Y-121175699D01*
X139673182Y-121164164D01*
X139789158Y-121141096D01*
X139789161Y-121141094D01*
X139789166Y-121141094D01*
X139953047Y-121073213D01*
X140100535Y-120974664D01*
X140225964Y-120849235D01*
X140324513Y-120701747D01*
X140326870Y-120696058D01*
X140358298Y-120620181D01*
X140392394Y-120537866D01*
X140395532Y-120522093D01*
X140426999Y-120363895D01*
X140427000Y-120363893D01*
X140427000Y-120310651D01*
X140446685Y-120243612D01*
X140463315Y-120222974D01*
X140697029Y-119989260D01*
X140697033Y-119989258D01*
X140784158Y-119902133D01*
X140828175Y-119836257D01*
X140852612Y-119799686D01*
X140899763Y-119685851D01*
X140923800Y-119565007D01*
X140923800Y-119441793D01*
X140923800Y-112643661D01*
X140943485Y-112576622D01*
X140960120Y-112555979D01*
X140997761Y-112518338D01*
X140997764Y-112518335D01*
X141096313Y-112370847D01*
X141098508Y-112365549D01*
X141115096Y-112325500D01*
X141164194Y-112206966D01*
X141181352Y-112120710D01*
X141193002Y-112062139D01*
X141198800Y-112032991D01*
X141198800Y-111855609D01*
X141198800Y-111855606D01*
X141198799Y-111855604D01*
X141164196Y-111681641D01*
X141164193Y-111681632D01*
X141096316Y-111517759D01*
X141096309Y-111517746D01*
X140997764Y-111370265D01*
X140997761Y-111370261D01*
X140872338Y-111244838D01*
X140872334Y-111244835D01*
X140724853Y-111146290D01*
X140724840Y-111146283D01*
X140560967Y-111078406D01*
X140560958Y-111078403D01*
X140386994Y-111043800D01*
X140386991Y-111043800D01*
X140209609Y-111043800D01*
X140209606Y-111043800D01*
X140035641Y-111078403D01*
X140035632Y-111078406D01*
X139871759Y-111146283D01*
X139871747Y-111146290D01*
X139862387Y-111152544D01*
X139795708Y-111173419D01*
X139728329Y-111154932D01*
X139681641Y-111102951D01*
X139669500Y-111049439D01*
X139669500Y-109921452D01*
X139689185Y-109854413D01*
X139741989Y-109808658D01*
X139811147Y-109798714D01*
X139874703Y-109827739D01*
G37*
%TD.AperFunction*%
%TA.AperFunction,Conductor*%
G36*
X147640509Y-71863581D02*
G01*
X148762489Y-71901909D01*
X148766615Y-71902121D01*
X149886630Y-71978732D01*
X149890812Y-71979090D01*
X151007565Y-72093896D01*
X151011678Y-72094390D01*
X152123860Y-72247256D01*
X152127988Y-72247895D01*
X153234274Y-72438638D01*
X153238433Y-72439429D01*
X153454933Y-72484418D01*
X154337543Y-72667826D01*
X154341597Y-72668741D01*
X155432323Y-72934543D01*
X155436329Y-72935592D01*
X156516720Y-73238303D01*
X156517295Y-73238467D01*
X156518233Y-73238736D01*
X156521516Y-73239727D01*
X157553939Y-73567404D01*
X157554392Y-73567549D01*
X157601489Y-73582852D01*
X157604674Y-73583936D01*
X158589175Y-73933827D01*
X158589917Y-73934094D01*
X158672108Y-73964009D01*
X158675126Y-73965154D01*
X159618593Y-74337210D01*
X159619553Y-74337593D01*
X159728788Y-74381726D01*
X159731719Y-74382954D01*
X160639230Y-74777142D01*
X160639960Y-74777463D01*
X160770396Y-74835536D01*
X160773020Y-74836745D01*
X161648167Y-75252947D01*
X161649175Y-75253431D01*
X161795384Y-75324742D01*
X161798025Y-75326070D01*
X162643737Y-75764283D01*
X162644512Y-75764690D01*
X162802782Y-75848844D01*
X162805341Y-75850243D01*
X163623315Y-76310167D01*
X163624541Y-76310866D01*
X163791412Y-76407209D01*
X163793840Y-76408648D01*
X164585811Y-76890256D01*
X164587069Y-76891031D01*
X164760021Y-76999103D01*
X164762206Y-77000502D01*
X165529664Y-77503878D01*
X165530862Y-77504675D01*
X165707392Y-77623746D01*
X165709548Y-77625234D01*
X166453089Y-78150082D01*
X166454374Y-78151003D01*
X166632494Y-78280415D01*
X166634477Y-78281886D01*
X167355021Y-78828292D01*
X167356351Y-78829316D01*
X167534179Y-78968250D01*
X167535979Y-78969685D01*
X168234055Y-79537612D01*
X168235406Y-79538729D01*
X168395570Y-79673123D01*
X168411321Y-79686339D01*
X168413108Y-79687868D01*
X169088903Y-80277131D01*
X169090382Y-80278441D01*
X169262970Y-80433840D01*
X169264581Y-80435316D01*
X169837545Y-80970427D01*
X169918619Y-81046145D01*
X169920120Y-81047571D01*
X170088086Y-81209774D01*
X170089629Y-81211291D01*
X170721907Y-81843569D01*
X170723424Y-81845112D01*
X170885627Y-82013078D01*
X170887046Y-82014571D01*
X171475203Y-82644334D01*
X171497858Y-82668591D01*
X171499384Y-82670256D01*
X171654757Y-82842816D01*
X171656067Y-82844295D01*
X172245330Y-83520090D01*
X172246859Y-83521877D01*
X172394428Y-83697742D01*
X172395608Y-83699171D01*
X172963493Y-84397194D01*
X172964993Y-84399076D01*
X173103848Y-84576803D01*
X173104939Y-84578220D01*
X173651291Y-85298693D01*
X173652805Y-85300733D01*
X173782163Y-85478779D01*
X173783149Y-85480156D01*
X174307955Y-86223638D01*
X174309452Y-86225806D01*
X174428479Y-86402270D01*
X174429365Y-86403602D01*
X174932660Y-87170936D01*
X174934131Y-87173234D01*
X175042152Y-87346105D01*
X175042942Y-87347387D01*
X175524550Y-88139358D01*
X175525989Y-88141786D01*
X175622332Y-88308657D01*
X175623031Y-88309883D01*
X176082955Y-89127857D01*
X176084354Y-89130416D01*
X176168403Y-89288487D01*
X176168992Y-89289609D01*
X176253807Y-89453293D01*
X176607115Y-90135149D01*
X176608468Y-90137839D01*
X176679748Y-90283985D01*
X176680278Y-90285087D01*
X176885984Y-90717623D01*
X177016604Y-90992278D01*
X177096407Y-91160078D01*
X177097706Y-91162899D01*
X177155671Y-91293092D01*
X177156125Y-91294125D01*
X177550235Y-92201458D01*
X177551472Y-92204410D01*
X177595605Y-92313645D01*
X177595988Y-92314605D01*
X177968044Y-93258072D01*
X177969212Y-93261152D01*
X177999082Y-93343221D01*
X177999400Y-93344106D01*
X178349262Y-94328524D01*
X178350353Y-94331730D01*
X178365586Y-94378611D01*
X178365845Y-94379418D01*
X178693457Y-95411636D01*
X178694462Y-95414965D01*
X178694731Y-95415903D01*
X178694938Y-95416631D01*
X178997595Y-96496825D01*
X178998666Y-96500917D01*
X179245866Y-97515307D01*
X179264448Y-97591558D01*
X179265380Y-97595689D01*
X179493770Y-98694766D01*
X179494561Y-98698925D01*
X179685299Y-99805183D01*
X179685947Y-99809367D01*
X179838803Y-100921476D01*
X179839308Y-100925680D01*
X179954107Y-102042369D01*
X179954468Y-102046588D01*
X180031075Y-103166532D01*
X180031292Y-103170761D01*
X180069618Y-104292690D01*
X180069690Y-104296923D01*
X180069690Y-105419476D01*
X180069618Y-105423709D01*
X180031292Y-106545638D01*
X180031075Y-106549867D01*
X179954468Y-107669811D01*
X179954107Y-107674030D01*
X179839308Y-108790719D01*
X179838803Y-108794923D01*
X179685947Y-109907032D01*
X179685299Y-109911216D01*
X179494561Y-111017474D01*
X179493770Y-111021633D01*
X179265380Y-112120710D01*
X179264448Y-112124841D01*
X178998667Y-113215478D01*
X178997595Y-113219574D01*
X178694938Y-114299767D01*
X178694731Y-114300495D01*
X178694462Y-114301433D01*
X178693457Y-114304762D01*
X178365869Y-115336907D01*
X178365610Y-115337713D01*
X178350350Y-115384678D01*
X178349259Y-115387885D01*
X177999400Y-116372292D01*
X177999082Y-116373177D01*
X177969212Y-116455246D01*
X177968044Y-116458326D01*
X177595988Y-117401793D01*
X177595605Y-117402753D01*
X177551472Y-117511988D01*
X177550235Y-117514940D01*
X177156125Y-118422273D01*
X177155671Y-118423306D01*
X177097706Y-118553499D01*
X177096407Y-118556320D01*
X176680278Y-119431311D01*
X176679748Y-119432413D01*
X176608468Y-119578559D01*
X176607115Y-119581249D01*
X176169016Y-120426744D01*
X176168403Y-120427911D01*
X176084354Y-120585982D01*
X176082955Y-120588541D01*
X175623031Y-121406515D01*
X175622332Y-121407741D01*
X175525989Y-121574612D01*
X175524550Y-121577040D01*
X175042942Y-122369011D01*
X175042152Y-122370293D01*
X174934131Y-122543164D01*
X174932660Y-122545462D01*
X174429365Y-123312796D01*
X174428479Y-123314128D01*
X174309452Y-123490592D01*
X174307955Y-123492760D01*
X173783149Y-124236242D01*
X173782163Y-124237619D01*
X173652805Y-124415665D01*
X173651291Y-124417705D01*
X173104939Y-125138178D01*
X173103848Y-125139595D01*
X172964993Y-125317322D01*
X172963468Y-125319235D01*
X172395627Y-126017205D01*
X172394428Y-126018656D01*
X172246859Y-126194521D01*
X172245330Y-126196308D01*
X171656067Y-126872103D01*
X171654757Y-126873582D01*
X171499384Y-127046142D01*
X171497858Y-127047807D01*
X170887053Y-127701819D01*
X170885627Y-127703320D01*
X170723424Y-127871286D01*
X170721907Y-127872829D01*
X170089629Y-128505107D01*
X170088086Y-128506624D01*
X169920120Y-128668827D01*
X169918619Y-128670253D01*
X169264607Y-129281058D01*
X169262942Y-129282584D01*
X169090382Y-129437957D01*
X169088903Y-129439267D01*
X168413108Y-130028530D01*
X168411321Y-130030059D01*
X168235456Y-130177628D01*
X168234005Y-130178827D01*
X167536035Y-130746668D01*
X167534122Y-130748193D01*
X167356395Y-130887048D01*
X167354978Y-130888139D01*
X166634505Y-131434491D01*
X166632465Y-131436005D01*
X166454419Y-131565363D01*
X166453042Y-131566349D01*
X165709560Y-132091155D01*
X165707392Y-132092652D01*
X165530928Y-132211679D01*
X165529596Y-132212565D01*
X164762262Y-132715860D01*
X164759964Y-132717331D01*
X164587093Y-132825352D01*
X164585811Y-132826142D01*
X163793840Y-133307750D01*
X163791412Y-133309189D01*
X163624541Y-133405532D01*
X163623315Y-133406231D01*
X162805341Y-133866155D01*
X162802782Y-133867554D01*
X162644711Y-133951603D01*
X162643544Y-133952216D01*
X161798049Y-134390315D01*
X161795359Y-134391668D01*
X161649213Y-134462948D01*
X161648111Y-134463478D01*
X160773120Y-134879607D01*
X160770299Y-134880906D01*
X160640106Y-134938871D01*
X160639073Y-134939325D01*
X159731740Y-135333435D01*
X159728788Y-135334672D01*
X159619553Y-135378805D01*
X159618593Y-135379188D01*
X158675126Y-135751244D01*
X158672046Y-135752412D01*
X158589977Y-135782282D01*
X158589092Y-135782600D01*
X157604674Y-136132462D01*
X157601468Y-136133553D01*
X157554587Y-136148786D01*
X157553780Y-136149045D01*
X156521562Y-136476657D01*
X156518233Y-136477662D01*
X156517295Y-136477931D01*
X156516567Y-136478138D01*
X155436374Y-136780795D01*
X155432278Y-136781867D01*
X154341641Y-137047648D01*
X154337510Y-137048580D01*
X153238433Y-137276970D01*
X153234274Y-137277761D01*
X152128016Y-137468499D01*
X152123832Y-137469147D01*
X151011723Y-137622003D01*
X151007519Y-137622508D01*
X149890830Y-137737307D01*
X149886611Y-137737668D01*
X148766667Y-137814275D01*
X148762438Y-137814492D01*
X147640510Y-137852818D01*
X147636277Y-137852890D01*
X146513723Y-137852890D01*
X146509490Y-137852818D01*
X145387561Y-137814492D01*
X145383332Y-137814275D01*
X144263388Y-137737668D01*
X144259169Y-137737307D01*
X143142480Y-137622508D01*
X143138276Y-137622003D01*
X142026167Y-137469147D01*
X142021983Y-137468499D01*
X140915725Y-137277761D01*
X140911566Y-137276970D01*
X139812489Y-137048580D01*
X139808358Y-137047648D01*
X138717721Y-136781867D01*
X138713625Y-136780795D01*
X137633431Y-136478138D01*
X137632703Y-136477931D01*
X137631765Y-136477662D01*
X137628436Y-136476657D01*
X136596218Y-136149045D01*
X136595411Y-136148786D01*
X136548530Y-136133553D01*
X136545324Y-136132462D01*
X135560906Y-135782600D01*
X135560021Y-135782282D01*
X135477952Y-135752412D01*
X135474872Y-135751244D01*
X134531405Y-135379188D01*
X134530445Y-135378805D01*
X134421210Y-135334672D01*
X134418258Y-135333435D01*
X133510925Y-134939325D01*
X133509892Y-134938871D01*
X133454493Y-134914206D01*
X133379674Y-134880894D01*
X133376906Y-134879619D01*
X133067576Y-134732509D01*
X132501887Y-134463478D01*
X132500785Y-134462948D01*
X132354639Y-134391668D01*
X132351949Y-134390315D01*
X131797340Y-134102940D01*
X131506411Y-133952193D01*
X131505339Y-133951630D01*
X131458656Y-133926808D01*
X131347216Y-133867554D01*
X131344657Y-133866155D01*
X130526683Y-133406231D01*
X130525457Y-133405532D01*
X130358586Y-133309189D01*
X130356158Y-133307750D01*
X129564187Y-132826142D01*
X129562905Y-132825352D01*
X129390034Y-132717331D01*
X129387736Y-132715860D01*
X128620402Y-132212565D01*
X128619070Y-132211679D01*
X128442606Y-132092652D01*
X128440438Y-132091155D01*
X127696956Y-131566349D01*
X127695579Y-131565363D01*
X127517533Y-131436005D01*
X127515493Y-131434491D01*
X126795020Y-130888139D01*
X126793603Y-130887048D01*
X126615846Y-130748169D01*
X126613994Y-130746693D01*
X125915971Y-130178808D01*
X125914542Y-130177628D01*
X125738677Y-130030059D01*
X125736890Y-130028530D01*
X125061095Y-129439267D01*
X125059616Y-129437957D01*
X124887056Y-129282584D01*
X124885391Y-129281058D01*
X124579847Y-128995700D01*
X124231371Y-128670246D01*
X124229878Y-128668827D01*
X124061912Y-128506624D01*
X124060369Y-128505107D01*
X123428091Y-127872829D01*
X123426574Y-127871286D01*
X123264371Y-127703320D01*
X123262945Y-127701819D01*
X122652116Y-127047781D01*
X122650614Y-127046142D01*
X122603655Y-126993989D01*
X122527560Y-126909476D01*
X122495241Y-126873582D01*
X122493931Y-126872103D01*
X121904668Y-126196308D01*
X121903139Y-126194521D01*
X121853874Y-126135809D01*
X121755529Y-126018606D01*
X121754412Y-126017255D01*
X121487919Y-125689691D01*
X123082600Y-125689691D01*
X123082600Y-126026708D01*
X123120331Y-126361581D01*
X123120333Y-126361597D01*
X123195323Y-126690153D01*
X123195327Y-126690165D01*
X123306632Y-127008254D01*
X123452852Y-127311883D01*
X123452854Y-127311886D01*
X123632154Y-127597239D01*
X123842275Y-127860723D01*
X124080577Y-128099025D01*
X124344061Y-128309146D01*
X124629414Y-128488446D01*
X124933049Y-128634669D01*
X125171948Y-128718263D01*
X125251134Y-128745972D01*
X125251146Y-128745976D01*
X125579706Y-128820967D01*
X125914592Y-128858699D01*
X125914593Y-128858700D01*
X125914596Y-128858700D01*
X126251607Y-128858700D01*
X126251607Y-128858699D01*
X126586494Y-128820967D01*
X126915054Y-128745976D01*
X127233151Y-128634669D01*
X127536786Y-128488446D01*
X127822139Y-128309146D01*
X128085623Y-128099025D01*
X128323925Y-127860723D01*
X128534046Y-127597239D01*
X128713346Y-127311886D01*
X128859569Y-127008251D01*
X128970876Y-126690154D01*
X129045867Y-126361594D01*
X129083600Y-126026704D01*
X129083600Y-125689696D01*
X129045867Y-125354806D01*
X128970876Y-125026246D01*
X128859569Y-124708149D01*
X128713346Y-124404514D01*
X128534046Y-124119161D01*
X128323925Y-123855677D01*
X128085623Y-123617375D01*
X127822139Y-123407254D01*
X127536786Y-123227954D01*
X127536783Y-123227952D01*
X127233154Y-123081732D01*
X126915065Y-122970427D01*
X126915053Y-122970423D01*
X126586497Y-122895433D01*
X126586481Y-122895431D01*
X126251608Y-122857700D01*
X126251604Y-122857700D01*
X125914596Y-122857700D01*
X125914591Y-122857700D01*
X125579718Y-122895431D01*
X125579702Y-122895433D01*
X125251146Y-122970423D01*
X125251134Y-122970427D01*
X124933045Y-123081732D01*
X124629416Y-123227952D01*
X124344062Y-123407253D01*
X124080577Y-123617374D01*
X123842274Y-123855677D01*
X123632153Y-124119162D01*
X123452852Y-124404516D01*
X123306632Y-124708145D01*
X123195327Y-125026234D01*
X123195323Y-125026246D01*
X123120333Y-125354802D01*
X123120331Y-125354818D01*
X123082600Y-125689691D01*
X121487919Y-125689691D01*
X121186485Y-125319179D01*
X121185050Y-125317379D01*
X121046116Y-125139551D01*
X121045092Y-125138221D01*
X120498686Y-124417676D01*
X120497193Y-124415665D01*
X120490640Y-124406646D01*
X120367803Y-124237574D01*
X120366849Y-124236242D01*
X120359555Y-124225909D01*
X119842034Y-123492748D01*
X119840546Y-123490592D01*
X119784333Y-123407253D01*
X119721475Y-123314062D01*
X119720678Y-123312864D01*
X119217302Y-122545406D01*
X119215903Y-122543221D01*
X119107831Y-122370269D01*
X119107056Y-122369011D01*
X118625448Y-121577040D01*
X118624009Y-121574612D01*
X118527666Y-121407741D01*
X118526967Y-121406515D01*
X118067043Y-120588541D01*
X118065644Y-120585982D01*
X117981490Y-120427712D01*
X117981083Y-120426937D01*
X117542871Y-119581225D01*
X117541530Y-119578559D01*
X117534922Y-119565011D01*
X117470231Y-119432375D01*
X117469720Y-119431311D01*
X117459255Y-119409306D01*
X117053545Y-118556220D01*
X117052336Y-118553596D01*
X116994263Y-118423160D01*
X116993942Y-118422430D01*
X116599754Y-117514919D01*
X116598526Y-117511988D01*
X116554393Y-117402753D01*
X116554010Y-117401793D01*
X116181954Y-116458326D01*
X116180809Y-116455308D01*
X116150894Y-116373117D01*
X116150598Y-116372292D01*
X116124714Y-116299461D01*
X115844602Y-115511304D01*
X126899500Y-115511304D01*
X126899500Y-115688695D01*
X126934103Y-115862658D01*
X126934106Y-115862667D01*
X127001983Y-116026540D01*
X127001990Y-116026553D01*
X127100535Y-116174034D01*
X127100538Y-116174038D01*
X127225961Y-116299461D01*
X127225965Y-116299464D01*
X127373446Y-116398009D01*
X127373459Y-116398016D01*
X127470766Y-116438321D01*
X127537334Y-116465894D01*
X127537336Y-116465894D01*
X127537341Y-116465896D01*
X127711304Y-116500499D01*
X127711307Y-116500500D01*
X127711309Y-116500500D01*
X127888693Y-116500500D01*
X127888694Y-116500499D01*
X127946682Y-116488964D01*
X128062658Y-116465896D01*
X128062661Y-116465894D01*
X128062666Y-116465894D01*
X128226547Y-116398013D01*
X128374035Y-116299464D01*
X128411679Y-116261820D01*
X128473001Y-116228334D01*
X128499361Y-116225500D01*
X129250639Y-116225500D01*
X129317678Y-116245185D01*
X129338321Y-116261820D01*
X129383361Y-116306861D01*
X129383365Y-116306864D01*
X129530846Y-116405409D01*
X129530859Y-116405416D01*
X129615223Y-116440360D01*
X129694734Y-116473294D01*
X129694736Y-116473294D01*
X129694741Y-116473296D01*
X129868704Y-116507899D01*
X129868707Y-116507900D01*
X129868709Y-116507900D01*
X130046093Y-116507900D01*
X130046094Y-116507899D01*
X130104082Y-116496364D01*
X130220058Y-116473296D01*
X130220061Y-116473294D01*
X130220066Y-116473294D01*
X130383947Y-116405413D01*
X130531435Y-116306864D01*
X130656864Y-116181435D01*
X130755413Y-116033947D01*
X130823294Y-115870066D01*
X130857900Y-115696091D01*
X130857900Y-115518709D01*
X130857900Y-115518706D01*
X130857899Y-115518704D01*
X130823296Y-115344741D01*
X130823293Y-115344732D01*
X130755416Y-115180859D01*
X130755409Y-115180846D01*
X130656864Y-115033365D01*
X130656861Y-115033361D01*
X130531438Y-114907938D01*
X130531434Y-114907935D01*
X130383953Y-114809390D01*
X130383940Y-114809383D01*
X130220067Y-114741506D01*
X130220058Y-114741503D01*
X130046094Y-114706900D01*
X130046091Y-114706900D01*
X129868709Y-114706900D01*
X129868706Y-114706900D01*
X129694741Y-114741503D01*
X129694732Y-114741506D01*
X129530859Y-114809383D01*
X129530846Y-114809390D01*
X129383365Y-114907935D01*
X129383361Y-114907938D01*
X129353119Y-114938181D01*
X129291796Y-114971666D01*
X129265438Y-114974500D01*
X128499361Y-114974500D01*
X128432322Y-114954815D01*
X128411679Y-114938180D01*
X128374038Y-114900538D01*
X128374034Y-114900535D01*
X128226553Y-114801990D01*
X128226540Y-114801983D01*
X128062667Y-114734106D01*
X128062658Y-114734103D01*
X127888694Y-114699500D01*
X127888691Y-114699500D01*
X127711309Y-114699500D01*
X127711306Y-114699500D01*
X127537341Y-114734103D01*
X127537332Y-114734106D01*
X127373459Y-114801983D01*
X127373446Y-114801990D01*
X127225965Y-114900535D01*
X127225961Y-114900538D01*
X127100538Y-115025961D01*
X127100535Y-115025965D01*
X127001990Y-115173446D01*
X127001983Y-115173459D01*
X126934106Y-115337332D01*
X126934103Y-115337341D01*
X126899500Y-115511304D01*
X115844602Y-115511304D01*
X115800714Y-115387814D01*
X115799671Y-115384749D01*
X115784388Y-115337711D01*
X115784158Y-115336994D01*
X115744472Y-115211954D01*
X115456527Y-114304716D01*
X115455536Y-114301433D01*
X115455267Y-114300495D01*
X115455103Y-114299920D01*
X115152392Y-113219529D01*
X115151343Y-113215523D01*
X114885541Y-112124797D01*
X114884626Y-112120743D01*
X114683929Y-111154932D01*
X114656229Y-111021633D01*
X114655438Y-111017474D01*
X114607579Y-110739896D01*
X114464695Y-109911188D01*
X114464052Y-109907032D01*
X114456820Y-109854413D01*
X114311190Y-108794878D01*
X114310696Y-108790765D01*
X114225630Y-107963304D01*
X133210500Y-107963304D01*
X133210500Y-108140695D01*
X133245103Y-108314658D01*
X133245106Y-108314667D01*
X133312983Y-108478540D01*
X133312990Y-108478553D01*
X133411535Y-108626034D01*
X133411538Y-108626038D01*
X133449180Y-108663679D01*
X133482666Y-108725001D01*
X133485500Y-108751361D01*
X133485500Y-120499331D01*
X133509535Y-120620164D01*
X133509540Y-120620181D01*
X133556685Y-120734000D01*
X133556687Y-120734003D01*
X133556688Y-120734006D01*
X133590915Y-120785229D01*
X133625142Y-120836453D01*
X133712267Y-120923578D01*
X133712270Y-120923580D01*
X133719554Y-120930864D01*
X139480296Y-126691606D01*
X139480325Y-126691637D01*
X139570544Y-126781856D01*
X139570547Y-126781858D01*
X139621770Y-126816084D01*
X139672994Y-126850312D01*
X139753487Y-126883652D01*
X139786828Y-126897463D01*
X139847251Y-126909481D01*
X139907673Y-126921500D01*
X139907674Y-126921500D01*
X142131508Y-126921500D01*
X142198547Y-126941185D01*
X142244302Y-126993989D01*
X142254246Y-127063147D01*
X142241993Y-127101795D01*
X142228904Y-127127482D01*
X142163242Y-127329569D01*
X142163242Y-127329572D01*
X142130000Y-127539453D01*
X142130000Y-127751946D01*
X142163242Y-127961827D01*
X142163242Y-127961830D01*
X142228904Y-128163917D01*
X142325375Y-128353250D01*
X142364728Y-128407416D01*
X142997036Y-127775107D01*
X143014075Y-127838693D01*
X143079901Y-127952707D01*
X143172993Y-128045799D01*
X143287007Y-128111625D01*
X143350590Y-128128662D01*
X142718282Y-128760969D01*
X142718282Y-128760970D01*
X142772449Y-128800324D01*
X142961782Y-128896795D01*
X143163870Y-128962457D01*
X143373754Y-128995700D01*
X143586246Y-128995700D01*
X143796127Y-128962457D01*
X143796130Y-128962457D01*
X143998217Y-128896795D01*
X144187554Y-128800322D01*
X144241716Y-128760970D01*
X144241717Y-128760970D01*
X143609408Y-128128662D01*
X143672993Y-128111625D01*
X143787007Y-128045799D01*
X143880099Y-127952707D01*
X143945925Y-127838693D01*
X143962962Y-127775109D01*
X144595270Y-128407417D01*
X144595270Y-128407416D01*
X144634622Y-128353254D01*
X144639514Y-128343654D01*
X144687488Y-128292857D01*
X144755308Y-128276061D01*
X144821444Y-128298597D01*
X144860486Y-128343654D01*
X144865375Y-128353250D01*
X144904728Y-128407416D01*
X145537036Y-127775107D01*
X145554075Y-127838693D01*
X145619901Y-127952707D01*
X145712993Y-128045799D01*
X145827007Y-128111625D01*
X145890590Y-128128662D01*
X145258282Y-128760969D01*
X145258282Y-128760970D01*
X145312449Y-128800324D01*
X145501782Y-128896795D01*
X145703870Y-128962457D01*
X145913754Y-128995700D01*
X146126246Y-128995700D01*
X146336127Y-128962457D01*
X146336130Y-128962457D01*
X146538217Y-128896795D01*
X146727554Y-128800322D01*
X146781716Y-128760970D01*
X146781717Y-128760970D01*
X146149408Y-128128662D01*
X146212993Y-128111625D01*
X146327007Y-128045799D01*
X146420099Y-127952707D01*
X146485925Y-127838693D01*
X146502962Y-127775109D01*
X147135270Y-128407417D01*
X147135270Y-128407416D01*
X147174622Y-128353254D01*
X147179514Y-128343654D01*
X147227488Y-128292857D01*
X147295308Y-128276061D01*
X147361444Y-128298597D01*
X147400486Y-128343654D01*
X147405375Y-128353250D01*
X147444728Y-128407416D01*
X148077037Y-127775108D01*
X148094075Y-127838693D01*
X148159901Y-127952707D01*
X148252993Y-128045799D01*
X148367007Y-128111625D01*
X148430590Y-128128662D01*
X147798282Y-128760969D01*
X147798282Y-128760970D01*
X147852449Y-128800324D01*
X148041782Y-128896795D01*
X148243870Y-128962457D01*
X148453754Y-128995700D01*
X148666246Y-128995700D01*
X148876127Y-128962457D01*
X148876130Y-128962457D01*
X149078217Y-128896795D01*
X149267554Y-128800322D01*
X149321716Y-128760970D01*
X149321717Y-128760970D01*
X148689408Y-128128662D01*
X148752993Y-128111625D01*
X148867007Y-128045799D01*
X148960099Y-127952707D01*
X149025925Y-127838693D01*
X149042962Y-127775109D01*
X149675270Y-128407417D01*
X149675270Y-128407416D01*
X149714622Y-128353254D01*
X149719514Y-128343654D01*
X149767488Y-128292857D01*
X149835308Y-128276061D01*
X149901444Y-128298597D01*
X149940486Y-128343654D01*
X149945375Y-128353250D01*
X149984728Y-128407416D01*
X150617036Y-127775107D01*
X150634075Y-127838693D01*
X150699901Y-127952707D01*
X150792993Y-128045799D01*
X150907007Y-128111625D01*
X150970590Y-128128662D01*
X150338282Y-128760969D01*
X150338282Y-128760970D01*
X150392449Y-128800324D01*
X150581782Y-128896795D01*
X150783870Y-128962457D01*
X150993754Y-128995700D01*
X151206246Y-128995700D01*
X151416127Y-128962457D01*
X151416130Y-128962457D01*
X151618217Y-128896795D01*
X151807554Y-128800322D01*
X151861716Y-128760970D01*
X151861717Y-128760970D01*
X151229408Y-128128662D01*
X151292993Y-128111625D01*
X151407007Y-128045799D01*
X151500099Y-127952707D01*
X151565925Y-127838693D01*
X151582962Y-127775108D01*
X152215270Y-128407417D01*
X152215270Y-128407416D01*
X152254622Y-128353254D01*
X152351095Y-128163917D01*
X152416757Y-127961830D01*
X152416757Y-127961827D01*
X152450000Y-127751946D01*
X152450000Y-127539453D01*
X152416757Y-127329572D01*
X152416757Y-127329569D01*
X152351095Y-127127482D01*
X152254624Y-126938149D01*
X152215270Y-126883982D01*
X152215269Y-126883982D01*
X151582962Y-127516290D01*
X151565925Y-127452707D01*
X151500099Y-127338693D01*
X151407007Y-127245601D01*
X151292993Y-127179775D01*
X151229409Y-127162737D01*
X151865889Y-126526255D01*
X151876977Y-126473468D01*
X151926027Y-126423710D01*
X151947222Y-126414409D01*
X152019334Y-126390514D01*
X152168656Y-126298412D01*
X152292712Y-126174356D01*
X152384814Y-126025034D01*
X152439999Y-125858497D01*
X152450500Y-125755709D01*
X152450500Y-125689691D01*
X165082600Y-125689691D01*
X165082600Y-126026708D01*
X165120331Y-126361581D01*
X165120333Y-126361597D01*
X165195323Y-126690153D01*
X165195327Y-126690165D01*
X165306632Y-127008254D01*
X165452852Y-127311883D01*
X165452854Y-127311886D01*
X165632154Y-127597239D01*
X165842275Y-127860723D01*
X166080577Y-128099025D01*
X166344061Y-128309146D01*
X166629414Y-128488446D01*
X166933049Y-128634669D01*
X167171948Y-128718263D01*
X167251134Y-128745972D01*
X167251146Y-128745976D01*
X167579706Y-128820967D01*
X167914592Y-128858699D01*
X167914593Y-128858700D01*
X167914596Y-128858700D01*
X168251607Y-128858700D01*
X168251607Y-128858699D01*
X168586494Y-128820967D01*
X168915054Y-128745976D01*
X169233151Y-128634669D01*
X169536786Y-128488446D01*
X169822139Y-128309146D01*
X170085623Y-128099025D01*
X170323925Y-127860723D01*
X170534046Y-127597239D01*
X170713346Y-127311886D01*
X170859569Y-127008251D01*
X170970876Y-126690154D01*
X171045867Y-126361594D01*
X171083600Y-126026704D01*
X171083600Y-125689696D01*
X171045867Y-125354806D01*
X170970876Y-125026246D01*
X170859569Y-124708149D01*
X170713346Y-124404514D01*
X170534046Y-124119161D01*
X170323925Y-123855677D01*
X170085623Y-123617375D01*
X169822139Y-123407254D01*
X169536786Y-123227954D01*
X169536783Y-123227952D01*
X169233154Y-123081732D01*
X168915065Y-122970427D01*
X168915053Y-122970423D01*
X168586497Y-122895433D01*
X168586481Y-122895431D01*
X168251608Y-122857700D01*
X168251604Y-122857700D01*
X167914596Y-122857700D01*
X167914591Y-122857700D01*
X167579718Y-122895431D01*
X167579702Y-122895433D01*
X167251146Y-122970423D01*
X167251134Y-122970427D01*
X166933045Y-123081732D01*
X166629416Y-123227952D01*
X166344062Y-123407253D01*
X166080577Y-123617374D01*
X165842274Y-123855677D01*
X165632153Y-124119162D01*
X165452852Y-124404516D01*
X165306632Y-124708145D01*
X165195327Y-125026234D01*
X165195323Y-125026246D01*
X165120333Y-125354802D01*
X165120331Y-125354818D01*
X165082600Y-125689691D01*
X152450500Y-125689691D01*
X152450499Y-124455692D01*
X152439999Y-124352903D01*
X152384814Y-124186366D01*
X152292712Y-124037044D01*
X152168656Y-123912988D01*
X152073253Y-123854143D01*
X152019336Y-123820887D01*
X152019331Y-123820885D01*
X152017862Y-123820398D01*
X151852797Y-123765701D01*
X151852795Y-123765700D01*
X151750010Y-123755200D01*
X150449998Y-123755200D01*
X150449981Y-123755201D01*
X150347203Y-123765700D01*
X150347200Y-123765701D01*
X150180668Y-123820885D01*
X150180663Y-123820887D01*
X150031342Y-123912989D01*
X149907289Y-124037042D01*
X149815187Y-124186363D01*
X149815183Y-124186373D01*
X149811685Y-124196929D01*
X149771910Y-124254372D01*
X149707393Y-124281193D01*
X149638618Y-124268874D01*
X149593663Y-124230806D01*
X149590105Y-124225909D01*
X149439786Y-124075590D01*
X149267820Y-123950651D01*
X149078414Y-123854144D01*
X149078413Y-123854143D01*
X149078412Y-123854143D01*
X148876243Y-123788454D01*
X148876241Y-123788453D01*
X148876240Y-123788453D01*
X148714957Y-123762908D01*
X148666287Y-123755200D01*
X148453713Y-123755200D01*
X148405042Y-123762908D01*
X148243760Y-123788453D01*
X148041585Y-123854144D01*
X147852179Y-123950651D01*
X147680213Y-124075590D01*
X147529890Y-124225913D01*
X147404949Y-124397882D01*
X147400484Y-124406646D01*
X147352509Y-124457442D01*
X147284688Y-124474236D01*
X147218553Y-124451698D01*
X147179516Y-124406646D01*
X147175050Y-124397882D01*
X147050109Y-124225913D01*
X146899786Y-124075590D01*
X146727819Y-123950650D01*
X146713203Y-123943203D01*
X146662408Y-123895227D01*
X146645500Y-123832719D01*
X146645500Y-107086572D01*
X146665185Y-107019533D01*
X146717989Y-106973778D01*
X146787147Y-106963834D01*
X146850703Y-106992859D01*
X146857181Y-106998891D01*
X147336181Y-107477891D01*
X147369666Y-107539214D01*
X147372500Y-107565572D01*
X147372500Y-113885331D01*
X147396535Y-114006164D01*
X147396540Y-114006181D01*
X147443685Y-114120001D01*
X147443688Y-114120006D01*
X147454839Y-114136695D01*
X147460838Y-114145672D01*
X147512142Y-114222453D01*
X147599267Y-114309578D01*
X147599270Y-114309580D01*
X147607270Y-114317580D01*
X147934296Y-114644606D01*
X147934325Y-114644637D01*
X148024543Y-114734855D01*
X148024551Y-114734861D01*
X148075771Y-114769085D01*
X148086939Y-114776547D01*
X148126995Y-114803312D01*
X148193677Y-114830932D01*
X148240828Y-114850463D01*
X148361674Y-114874500D01*
X148361676Y-114874500D01*
X149086327Y-114874500D01*
X149146749Y-114862481D01*
X149207172Y-114850463D01*
X149240512Y-114836652D01*
X149321006Y-114803312D01*
X149372229Y-114769084D01*
X149423453Y-114734858D01*
X149510578Y-114647733D01*
X149510579Y-114647731D01*
X149517645Y-114640665D01*
X149517648Y-114640661D01*
X149897005Y-114261304D01*
X152999500Y-114261304D01*
X152999500Y-114438695D01*
X153034103Y-114612658D01*
X153034106Y-114612667D01*
X153101983Y-114776540D01*
X153101990Y-114776553D01*
X153200535Y-114924034D01*
X153200538Y-114924038D01*
X153238180Y-114961679D01*
X153252885Y-114988609D01*
X153269477Y-115014426D01*
X153270368Y-115020624D01*
X153271666Y-115023001D01*
X153274500Y-115049361D01*
X153274500Y-115100638D01*
X153254815Y-115167677D01*
X153238181Y-115188319D01*
X153200538Y-115225961D01*
X153200535Y-115225965D01*
X153101990Y-115373446D01*
X153101983Y-115373459D01*
X153034106Y-115537332D01*
X153034103Y-115537341D01*
X152999500Y-115711304D01*
X152999500Y-115888695D01*
X153034103Y-116062658D01*
X153034106Y-116062667D01*
X153101983Y-116226540D01*
X153101990Y-116226553D01*
X153200535Y-116374034D01*
X153200538Y-116374038D01*
X153325961Y-116499461D01*
X153325965Y-116499464D01*
X153473446Y-116598009D01*
X153473459Y-116598016D01*
X153596363Y-116648923D01*
X153637334Y-116665894D01*
X153637336Y-116665894D01*
X153637341Y-116665896D01*
X153811304Y-116700499D01*
X153811307Y-116700500D01*
X153811309Y-116700500D01*
X153988693Y-116700500D01*
X153988694Y-116700499D01*
X154046682Y-116688964D01*
X154162658Y-116665896D01*
X154162661Y-116665894D01*
X154162666Y-116665894D01*
X154326547Y-116598013D01*
X154474035Y-116499464D01*
X154599464Y-116374035D01*
X154698013Y-116226547D01*
X154765894Y-116062666D01*
X154771606Y-116033953D01*
X154800499Y-115888695D01*
X154800500Y-115888693D01*
X154800500Y-115711306D01*
X154800499Y-115711304D01*
X154765896Y-115537341D01*
X154765893Y-115537332D01*
X154698016Y-115373459D01*
X154698009Y-115373446D01*
X154599464Y-115225965D01*
X154599461Y-115225961D01*
X154561819Y-115188319D01*
X154547115Y-115161391D01*
X154530523Y-115135573D01*
X154529631Y-115129372D01*
X154528334Y-115126996D01*
X154525500Y-115100638D01*
X154525500Y-115049361D01*
X154545185Y-114982322D01*
X154561820Y-114961679D01*
X154599461Y-114924038D01*
X154599464Y-114924035D01*
X154698013Y-114776547D01*
X154765894Y-114612666D01*
X154800500Y-114438691D01*
X154800500Y-114261309D01*
X154800500Y-114261306D01*
X154800499Y-114261304D01*
X154765896Y-114087341D01*
X154765893Y-114087332D01*
X154698016Y-113923459D01*
X154698009Y-113923446D01*
X154599464Y-113775965D01*
X154599461Y-113775961D01*
X154474038Y-113650538D01*
X154474034Y-113650535D01*
X154326553Y-113551990D01*
X154326540Y-113551983D01*
X154162667Y-113484106D01*
X154162658Y-113484103D01*
X153988694Y-113449500D01*
X153988691Y-113449500D01*
X153811309Y-113449500D01*
X153811306Y-113449500D01*
X153637341Y-113484103D01*
X153637332Y-113484106D01*
X153473459Y-113551983D01*
X153473446Y-113551990D01*
X153325965Y-113650535D01*
X153325961Y-113650538D01*
X153200538Y-113775961D01*
X153200535Y-113775965D01*
X153101990Y-113923446D01*
X153101983Y-113923459D01*
X153034106Y-114087332D01*
X153034103Y-114087341D01*
X152999500Y-114261304D01*
X149897005Y-114261304D01*
X150351429Y-113806880D01*
X150351433Y-113806878D01*
X150438558Y-113719753D01*
X150490999Y-113641269D01*
X150507012Y-113617305D01*
X150537635Y-113543373D01*
X150554163Y-113503472D01*
X150578200Y-113382626D01*
X150578200Y-98061103D01*
X150597885Y-97994064D01*
X150650689Y-97948309D01*
X150719847Y-97938365D01*
X150726392Y-97939486D01*
X150882306Y-97970500D01*
X150882309Y-97970500D01*
X150935359Y-97970500D01*
X150964808Y-97979147D01*
X150994806Y-97985679D01*
X150999807Y-97989424D01*
X151002398Y-97990185D01*
X151023056Y-98006835D01*
X151102197Y-98086005D01*
X151135671Y-98147334D01*
X151138500Y-98173670D01*
X151138500Y-109174638D01*
X151118815Y-109241677D01*
X151102181Y-109262319D01*
X151064538Y-109299961D01*
X151064535Y-109299965D01*
X150965990Y-109447446D01*
X150965983Y-109447459D01*
X150898106Y-109611332D01*
X150898103Y-109611341D01*
X150863500Y-109785304D01*
X150863500Y-109962695D01*
X150898103Y-110136658D01*
X150898106Y-110136667D01*
X150965983Y-110300540D01*
X150965990Y-110300553D01*
X151064535Y-110448034D01*
X151064538Y-110448038D01*
X151189961Y-110573461D01*
X151189965Y-110573464D01*
X151337446Y-110672009D01*
X151337459Y-110672016D01*
X151460363Y-110722923D01*
X151501334Y-110739894D01*
X151501336Y-110739894D01*
X151501341Y-110739896D01*
X151675304Y-110774499D01*
X151675307Y-110774500D01*
X151675309Y-110774500D01*
X151852693Y-110774500D01*
X151852694Y-110774499D01*
X151910682Y-110762964D01*
X152026658Y-110739896D01*
X152026661Y-110739894D01*
X152026666Y-110739894D01*
X152190547Y-110672013D01*
X152338035Y-110573464D01*
X152463464Y-110448035D01*
X152562013Y-110300547D01*
X152629894Y-110136666D01*
X152664500Y-109962691D01*
X152664500Y-109785309D01*
X152664500Y-109785306D01*
X152664499Y-109785304D01*
X152629896Y-109611341D01*
X152629893Y-109611332D01*
X152562016Y-109447459D01*
X152562009Y-109447446D01*
X152463464Y-109299965D01*
X152463461Y-109299961D01*
X152425819Y-109262319D01*
X152411115Y-109235391D01*
X152394523Y-109209573D01*
X152393631Y-109203372D01*
X152392334Y-109200996D01*
X152389500Y-109174638D01*
X152389500Y-109119989D01*
X156586800Y-109119989D01*
X156586800Y-118948311D01*
X156610835Y-119069144D01*
X156610840Y-119069161D01*
X156657985Y-119182980D01*
X156657987Y-119182983D01*
X156657988Y-119182986D01*
X156692215Y-119234209D01*
X156726442Y-119285433D01*
X156813567Y-119372558D01*
X156813570Y-119372560D01*
X156820854Y-119379844D01*
X157822181Y-120381171D01*
X157855666Y-120442494D01*
X157858500Y-120468852D01*
X157858500Y-120522095D01*
X157893103Y-120696058D01*
X157893106Y-120696067D01*
X157960983Y-120859940D01*
X157960990Y-120859953D01*
X158059535Y-121007434D01*
X158059538Y-121007438D01*
X158184961Y-121132861D01*
X158184965Y-121132864D01*
X158332446Y-121231409D01*
X158332459Y-121231416D01*
X158455363Y-121282323D01*
X158496334Y-121299294D01*
X158496336Y-121299294D01*
X158496341Y-121299296D01*
X158670304Y-121333899D01*
X158670307Y-121333900D01*
X158670309Y-121333900D01*
X158847693Y-121333900D01*
X158847694Y-121333899D01*
X158905682Y-121322364D01*
X159021658Y-121299296D01*
X159021661Y-121299294D01*
X159021666Y-121299294D01*
X159185547Y-121231413D01*
X159333035Y-121132864D01*
X159458464Y-121007435D01*
X159557013Y-120859947D01*
X159624894Y-120696066D01*
X159659500Y-120522091D01*
X159659500Y-120344709D01*
X159659500Y-120344706D01*
X159659499Y-120344704D01*
X159624896Y-120170741D01*
X159624893Y-120170732D01*
X159557016Y-120006859D01*
X159557009Y-120006846D01*
X159458464Y-119859365D01*
X159458461Y-119859361D01*
X159333038Y-119733938D01*
X159333034Y-119733935D01*
X159185553Y-119635390D01*
X159185540Y-119635383D01*
X159021667Y-119567506D01*
X159021658Y-119567503D01*
X158847694Y-119532900D01*
X158847691Y-119532900D01*
X158794452Y-119532900D01*
X158727413Y-119513215D01*
X158706771Y-119496581D01*
X157874119Y-118663929D01*
X157840634Y-118602606D01*
X157837800Y-118576248D01*
X157837800Y-114250500D01*
X157857485Y-114183461D01*
X157910289Y-114137706D01*
X157961800Y-114126500D01*
X158027693Y-114126500D01*
X158027694Y-114126499D01*
X158085682Y-114114964D01*
X158201658Y-114091896D01*
X158201661Y-114091894D01*
X158201666Y-114091894D01*
X158365547Y-114024013D01*
X158513035Y-113925464D01*
X158638464Y-113800035D01*
X158737013Y-113652547D01*
X158741685Y-113641269D01*
X158766322Y-113581787D01*
X158804894Y-113488666D01*
X158812783Y-113449009D01*
X158839499Y-113314695D01*
X158839500Y-113314693D01*
X158839500Y-113261452D01*
X158859185Y-113194413D01*
X158875819Y-113173771D01*
X159738855Y-112310736D01*
X159738858Y-112310733D01*
X159792182Y-112230928D01*
X159807312Y-112208285D01*
X159842197Y-112124065D01*
X159854463Y-112094452D01*
X159866688Y-112032991D01*
X159878501Y-111973606D01*
X159878501Y-111850393D01*
X159878500Y-111850387D01*
X159878500Y-90063961D01*
X159898185Y-89996922D01*
X159914820Y-89976279D01*
X159952461Y-89938638D01*
X159952464Y-89938635D01*
X160051013Y-89791147D01*
X160118894Y-89627266D01*
X160139428Y-89524038D01*
X160153499Y-89453295D01*
X160153500Y-89453293D01*
X160153500Y-89275906D01*
X160153499Y-89275904D01*
X160118896Y-89101941D01*
X160118893Y-89101932D01*
X160051016Y-88938059D01*
X160051009Y-88938046D01*
X159952464Y-88790565D01*
X159952461Y-88790561D01*
X159827038Y-88665138D01*
X159827034Y-88665135D01*
X159679553Y-88566590D01*
X159679540Y-88566583D01*
X159515667Y-88498706D01*
X159515658Y-88498703D01*
X159341694Y-88464100D01*
X159341691Y-88464100D01*
X159164309Y-88464100D01*
X159164306Y-88464100D01*
X158990341Y-88498703D01*
X158990332Y-88498706D01*
X158826459Y-88566583D01*
X158826446Y-88566590D01*
X158678965Y-88665135D01*
X158678961Y-88665138D01*
X158553538Y-88790561D01*
X158553535Y-88790565D01*
X158454990Y-88938046D01*
X158454983Y-88938059D01*
X158387106Y-89101932D01*
X158387103Y-89101941D01*
X158352500Y-89275904D01*
X158352500Y-89453295D01*
X158387103Y-89627258D01*
X158387106Y-89627267D01*
X158454983Y-89791140D01*
X158454990Y-89791153D01*
X158553535Y-89938634D01*
X158553538Y-89938638D01*
X158591180Y-89976279D01*
X158624666Y-90037601D01*
X158627500Y-90063961D01*
X158627500Y-107438390D01*
X158607815Y-107505429D01*
X158555011Y-107551184D01*
X158485853Y-107561128D01*
X158456049Y-107552952D01*
X158362514Y-107514210D01*
X158301666Y-107489006D01*
X158301662Y-107489005D01*
X158301658Y-107489003D01*
X158127694Y-107454400D01*
X158127691Y-107454400D01*
X157950309Y-107454400D01*
X157950306Y-107454400D01*
X157776341Y-107489003D01*
X157776332Y-107489006D01*
X157612459Y-107556883D01*
X157612446Y-107556890D01*
X157464965Y-107655435D01*
X157464961Y-107655438D01*
X157339538Y-107780861D01*
X157339535Y-107780865D01*
X157240990Y-107928346D01*
X157240983Y-107928359D01*
X157173106Y-108092232D01*
X157173103Y-108092241D01*
X157138500Y-108266204D01*
X157138500Y-108319447D01*
X157118815Y-108386486D01*
X157102181Y-108407128D01*
X156815893Y-108693415D01*
X156815884Y-108693424D01*
X156813569Y-108695740D01*
X156813567Y-108695742D01*
X156726442Y-108782867D01*
X156705377Y-108814393D01*
X156657988Y-108885314D01*
X156639920Y-108928935D01*
X156610838Y-108999144D01*
X156610835Y-108999156D01*
X156586800Y-109119989D01*
X152389500Y-109119989D01*
X152389500Y-97866097D01*
X152389512Y-97801812D01*
X152389508Y-97801794D01*
X152389505Y-97801753D01*
X152389500Y-97801703D01*
X152389500Y-97801694D01*
X152377838Y-97743064D01*
X152365498Y-97680963D01*
X152365494Y-97680954D01*
X152365492Y-97680942D01*
X152365471Y-97680871D01*
X152365464Y-97680854D01*
X152365463Y-97680848D01*
X152342352Y-97625054D01*
X152318368Y-97567120D01*
X152318366Y-97567115D01*
X152318316Y-97567022D01*
X152283775Y-97515328D01*
X152283761Y-97515307D01*
X152249936Y-97464663D01*
X152249860Y-97464571D01*
X152249858Y-97464567D01*
X152249854Y-97464563D01*
X152249850Y-97464558D01*
X152205019Y-97419728D01*
X152205006Y-97419705D01*
X152205002Y-97419710D01*
X151907802Y-97122396D01*
X151874329Y-97061067D01*
X151871500Y-97034732D01*
X151871500Y-96981306D01*
X151871499Y-96981304D01*
X151836896Y-96807341D01*
X151836893Y-96807332D01*
X151769016Y-96643459D01*
X151769009Y-96643446D01*
X151670464Y-96495965D01*
X151670461Y-96495961D01*
X151545038Y-96370538D01*
X151545034Y-96370535D01*
X151397553Y-96271990D01*
X151397540Y-96271983D01*
X151233667Y-96204106D01*
X151233658Y-96204103D01*
X151059694Y-96169500D01*
X151059691Y-96169500D01*
X150882309Y-96169500D01*
X150882304Y-96169500D01*
X150726391Y-96200513D01*
X150656799Y-96194286D01*
X150601622Y-96151423D01*
X150578378Y-96085533D01*
X150578200Y-96078896D01*
X150578200Y-88949792D01*
X155774500Y-88949792D01*
X155774500Y-88949793D01*
X155774500Y-90150207D01*
X155774793Y-90150500D01*
X156625207Y-90150500D01*
X156625500Y-90150207D01*
X156625500Y-88949793D01*
X156625207Y-88949500D01*
X155775207Y-88949500D01*
X155774793Y-88949500D01*
X155774792Y-88949500D01*
X155774500Y-88949792D01*
X150578200Y-88949792D01*
X150578200Y-87613152D01*
X150597885Y-87546113D01*
X150614519Y-87525471D01*
X151640199Y-86499792D01*
X154199500Y-86499792D01*
X154199500Y-86499793D01*
X154199500Y-87500207D01*
X154199793Y-87500500D01*
X158200207Y-87500500D01*
X158200500Y-87500207D01*
X158200500Y-86499793D01*
X158200207Y-86499500D01*
X154200207Y-86499500D01*
X154199793Y-86499500D01*
X154199792Y-86499500D01*
X154199500Y-86499792D01*
X151640199Y-86499792D01*
X151752544Y-86387447D01*
X152486855Y-85653136D01*
X152486855Y-85653135D01*
X152486858Y-85653133D01*
X152555312Y-85550685D01*
X152602463Y-85436851D01*
X152626501Y-85316006D01*
X152626501Y-85192793D01*
X152626501Y-85187683D01*
X152626500Y-85187657D01*
X152626500Y-83689691D01*
X165082600Y-83689691D01*
X165082600Y-84026708D01*
X165120331Y-84361581D01*
X165120333Y-84361597D01*
X165195323Y-84690153D01*
X165195327Y-84690165D01*
X165306632Y-85008254D01*
X165452852Y-85311883D01*
X165489702Y-85370529D01*
X165632154Y-85597239D01*
X165842275Y-85860723D01*
X166080577Y-86099025D01*
X166344061Y-86309146D01*
X166629414Y-86488446D01*
X166933049Y-86634669D01*
X167171948Y-86718263D01*
X167251134Y-86745972D01*
X167251146Y-86745976D01*
X167579706Y-86820967D01*
X167914592Y-86858699D01*
X167914593Y-86858700D01*
X167914596Y-86858700D01*
X168251607Y-86858700D01*
X168251607Y-86858699D01*
X168586494Y-86820967D01*
X168915054Y-86745976D01*
X169233151Y-86634669D01*
X169536786Y-86488446D01*
X169822139Y-86309146D01*
X170085623Y-86099025D01*
X170323925Y-85860723D01*
X170534046Y-85597239D01*
X170713346Y-85311886D01*
X170859569Y-85008251D01*
X170970876Y-84690154D01*
X171045867Y-84361594D01*
X171083600Y-84026704D01*
X171083600Y-83689696D01*
X171045867Y-83354806D01*
X170970876Y-83026246D01*
X170968295Y-83018871D01*
X170919719Y-82880048D01*
X170859569Y-82708149D01*
X170713346Y-82404514D01*
X170534046Y-82119161D01*
X170323925Y-81855677D01*
X170085623Y-81617375D01*
X169822139Y-81407254D01*
X169536786Y-81227954D01*
X169536783Y-81227952D01*
X169233154Y-81081732D01*
X168915065Y-80970427D01*
X168915053Y-80970423D01*
X168586497Y-80895433D01*
X168586481Y-80895431D01*
X168251608Y-80857700D01*
X168251604Y-80857700D01*
X167914596Y-80857700D01*
X167914591Y-80857700D01*
X167579718Y-80895431D01*
X167579702Y-80895433D01*
X167251146Y-80970423D01*
X167251134Y-80970427D01*
X166933045Y-81081732D01*
X166629416Y-81227952D01*
X166344062Y-81407253D01*
X166080577Y-81617374D01*
X165842274Y-81855677D01*
X165632153Y-82119162D01*
X165452852Y-82404516D01*
X165306632Y-82708145D01*
X165195327Y-83026234D01*
X165195323Y-83026246D01*
X165120333Y-83354802D01*
X165120331Y-83354818D01*
X165082600Y-83689691D01*
X152626500Y-83689691D01*
X152626500Y-80926278D01*
X152626499Y-80926274D01*
X152602463Y-80805433D01*
X152557852Y-80697733D01*
X152555312Y-80691600D01*
X152538256Y-80666075D01*
X152486858Y-80589152D01*
X152486856Y-80589149D01*
X152396637Y-80498930D01*
X152396606Y-80498901D01*
X151354265Y-79456560D01*
X151346975Y-79449270D01*
X151346973Y-79449267D01*
X151259848Y-79362142D01*
X151208624Y-79327915D01*
X151157401Y-79293688D01*
X151157398Y-79293686D01*
X151157395Y-79293685D01*
X151083718Y-79263168D01*
X151083716Y-79263167D01*
X151076907Y-79260347D01*
X151043567Y-79246537D01*
X150983144Y-79234518D01*
X150978421Y-79233578D01*
X150978419Y-79233578D01*
X150922725Y-79222500D01*
X150922722Y-79222500D01*
X150922721Y-79222500D01*
X147638607Y-79222500D01*
X147515393Y-79222500D01*
X147515389Y-79222500D01*
X147459697Y-79233578D01*
X147454971Y-79234518D01*
X147411743Y-79243116D01*
X147394546Y-79246537D01*
X147280716Y-79293687D01*
X147280707Y-79293692D01*
X147178268Y-79362140D01*
X147134705Y-79405703D01*
X147091142Y-79449267D01*
X147091139Y-79449270D01*
X146377183Y-80163225D01*
X146315860Y-80196710D01*
X146251185Y-80193475D01*
X146141245Y-80157754D01*
X146141246Y-80157754D01*
X145983776Y-80132813D01*
X145931287Y-80124500D01*
X145718713Y-80124500D01*
X145670042Y-80132208D01*
X145508760Y-80157753D01*
X145306585Y-80223444D01*
X145117179Y-80319951D01*
X144945215Y-80444889D01*
X144806398Y-80583706D01*
X144745075Y-80617190D01*
X144675383Y-80612206D01*
X144619450Y-80570334D01*
X144613178Y-80561120D01*
X144517712Y-80406344D01*
X144393657Y-80282289D01*
X144393656Y-80282288D01*
X144254911Y-80196710D01*
X144244336Y-80190187D01*
X144244331Y-80190185D01*
X144242862Y-80189698D01*
X144077797Y-80135001D01*
X144077795Y-80135000D01*
X143975010Y-80124500D01*
X142674998Y-80124500D01*
X142674981Y-80124501D01*
X142572203Y-80135000D01*
X142572200Y-80135001D01*
X142405668Y-80190185D01*
X142405663Y-80190187D01*
X142256342Y-80282289D01*
X142132289Y-80406342D01*
X142040187Y-80555663D01*
X142040185Y-80555668D01*
X142035325Y-80570334D01*
X141985001Y-80722203D01*
X141985001Y-80722204D01*
X141985000Y-80722204D01*
X141974500Y-80824983D01*
X141974500Y-82375001D01*
X141974501Y-82375018D01*
X141985000Y-82477796D01*
X141985001Y-82477799D01*
X142030894Y-82616294D01*
X142040186Y-82644334D01*
X142132288Y-82793656D01*
X142256344Y-82917712D01*
X142405666Y-83009814D01*
X142572203Y-83064999D01*
X142674991Y-83075500D01*
X143975008Y-83075499D01*
X144077797Y-83064999D01*
X144244334Y-83009814D01*
X144393656Y-82917712D01*
X144517712Y-82793656D01*
X144609814Y-82644334D01*
X144609814Y-82644331D01*
X144613178Y-82638879D01*
X144665126Y-82592154D01*
X144734088Y-82580931D01*
X144798170Y-82608774D01*
X144806398Y-82616294D01*
X144945213Y-82755109D01*
X145117179Y-82880048D01*
X145117181Y-82880049D01*
X145117184Y-82880051D01*
X145306588Y-82976557D01*
X145508757Y-83042246D01*
X145718713Y-83075500D01*
X145718714Y-83075500D01*
X145931286Y-83075500D01*
X145931287Y-83075500D01*
X146141243Y-83042246D01*
X146343412Y-82976557D01*
X146343415Y-82976554D01*
X146343419Y-82976554D01*
X146347921Y-82974690D01*
X146348339Y-82975701D01*
X146411860Y-82963765D01*
X146476603Y-82990033D01*
X146516867Y-83047135D01*
X146523500Y-83087147D01*
X146523500Y-83937356D01*
X146503815Y-84004395D01*
X146487181Y-84025037D01*
X141971144Y-88541073D01*
X141971138Y-88541081D01*
X141902692Y-88643514D01*
X141902684Y-88643528D01*
X141869347Y-88724016D01*
X141863823Y-88737352D01*
X141855537Y-88757354D01*
X141855535Y-88757362D01*
X141831500Y-88878198D01*
X141831500Y-102741888D01*
X141836158Y-102765309D01*
X141836162Y-102765327D01*
X141836892Y-102768993D01*
X141855537Y-102862732D01*
X141869347Y-102896072D01*
X141872568Y-102903848D01*
X141872569Y-102903852D01*
X141884820Y-102933428D01*
X141892288Y-103002897D01*
X141861012Y-103065376D01*
X141857940Y-103068560D01*
X141750535Y-103175965D01*
X141651990Y-103323446D01*
X141651983Y-103323459D01*
X141584106Y-103487332D01*
X141584103Y-103487341D01*
X141549500Y-103661304D01*
X141549500Y-103838695D01*
X141584103Y-104012658D01*
X141584106Y-104012667D01*
X141651983Y-104176540D01*
X141651990Y-104176553D01*
X141750535Y-104324034D01*
X141750538Y-104324038D01*
X141875961Y-104449461D01*
X141875965Y-104449464D01*
X142023446Y-104548009D01*
X142023459Y-104548016D01*
X142146363Y-104598923D01*
X142187334Y-104615894D01*
X142187336Y-104615894D01*
X142187341Y-104615896D01*
X142361304Y-104650499D01*
X142361307Y-104650500D01*
X142361309Y-104650500D01*
X142538693Y-104650500D01*
X142538694Y-104650499D01*
X142596682Y-104638964D01*
X142712658Y-104615896D01*
X142712661Y-104615894D01*
X142712666Y-104615894D01*
X142876547Y-104548013D01*
X143024035Y-104449464D01*
X143149464Y-104324035D01*
X143248013Y-104176547D01*
X143315894Y-104012666D01*
X143350500Y-103838691D01*
X143350500Y-103661309D01*
X143350500Y-103661306D01*
X143350499Y-103661304D01*
X143315896Y-103487341D01*
X143315893Y-103487332D01*
X143248016Y-103323459D01*
X143248009Y-103323446D01*
X143172398Y-103210287D01*
X143151520Y-103143610D01*
X143151500Y-103141396D01*
X143151500Y-102687673D01*
X143151499Y-102687669D01*
X143127464Y-102566835D01*
X143127463Y-102566828D01*
X143107051Y-102517549D01*
X143091938Y-102481064D01*
X143082500Y-102433613D01*
X143082500Y-101396452D01*
X143102185Y-101329413D01*
X143154989Y-101283658D01*
X143224147Y-101273714D01*
X143287703Y-101302739D01*
X143294181Y-101308771D01*
X145358181Y-103372771D01*
X145391666Y-103434094D01*
X145394500Y-103460452D01*
X145394500Y-123832719D01*
X145374815Y-123899758D01*
X145326797Y-123943203D01*
X145312180Y-123950650D01*
X145140213Y-124075590D01*
X144989890Y-124225913D01*
X144864949Y-124397882D01*
X144860484Y-124406646D01*
X144812509Y-124457442D01*
X144744688Y-124474236D01*
X144678553Y-124451698D01*
X144639516Y-124406646D01*
X144635050Y-124397882D01*
X144510109Y-124225913D01*
X144359786Y-124075590D01*
X144187819Y-123950650D01*
X144173203Y-123943203D01*
X144122408Y-123895227D01*
X144105500Y-123832719D01*
X144105500Y-112486394D01*
X144101505Y-112466311D01*
X144081463Y-112365549D01*
X144079208Y-112360106D01*
X144034311Y-112251714D01*
X144034309Y-112251711D01*
X144034307Y-112251707D01*
X143965858Y-112149267D01*
X143965855Y-112149263D01*
X143875637Y-112059045D01*
X143875606Y-112059016D01*
X140744819Y-108928229D01*
X140711334Y-108866906D01*
X140708500Y-108840548D01*
X140708500Y-108787306D01*
X140708499Y-108787304D01*
X140673896Y-108613341D01*
X140673893Y-108613332D01*
X140606016Y-108449459D01*
X140606009Y-108449446D01*
X140507464Y-108301965D01*
X140507461Y-108301961D01*
X140382038Y-108176538D01*
X140382034Y-108176535D01*
X140234553Y-108077990D01*
X140234540Y-108077983D01*
X140070667Y-108010106D01*
X140070658Y-108010103D01*
X139896694Y-107975500D01*
X139896691Y-107975500D01*
X139793500Y-107975500D01*
X139726461Y-107955815D01*
X139680706Y-107903011D01*
X139669500Y-107851500D01*
X139669500Y-91024137D01*
X139689185Y-90957098D01*
X139705816Y-90936459D01*
X140340806Y-90301422D01*
X140402127Y-90267935D01*
X140428490Y-90265100D01*
X140481693Y-90265100D01*
X140481694Y-90265099D01*
X140539682Y-90253564D01*
X140655658Y-90230496D01*
X140655661Y-90230494D01*
X140655666Y-90230494D01*
X140819547Y-90162613D01*
X140967035Y-90064064D01*
X141092464Y-89938635D01*
X141191013Y-89791147D01*
X141258894Y-89627266D01*
X141279428Y-89524038D01*
X141293499Y-89453295D01*
X141293500Y-89453293D01*
X141293500Y-89275906D01*
X141293499Y-89275904D01*
X141258896Y-89101941D01*
X141258893Y-89101932D01*
X141191016Y-88938059D01*
X141191009Y-88938046D01*
X141092464Y-88790565D01*
X141092461Y-88790561D01*
X140967038Y-88665138D01*
X140967034Y-88665135D01*
X140819553Y-88566590D01*
X140819540Y-88566583D01*
X140655667Y-88498706D01*
X140655658Y-88498703D01*
X140481694Y-88464100D01*
X140481691Y-88464100D01*
X140304309Y-88464100D01*
X140304306Y-88464100D01*
X140130341Y-88498703D01*
X140130332Y-88498706D01*
X139966459Y-88566583D01*
X139966446Y-88566590D01*
X139818965Y-88665135D01*
X139818961Y-88665138D01*
X139693538Y-88790561D01*
X139693535Y-88790565D01*
X139594990Y-88938046D01*
X139594983Y-88938059D01*
X139527106Y-89101932D01*
X139527103Y-89101941D01*
X139492500Y-89275904D01*
X139492500Y-89329183D01*
X139472815Y-89396222D01*
X139456186Y-89416859D01*
X138611814Y-90261294D01*
X138611812Y-90261296D01*
X138570651Y-90302456D01*
X138563287Y-90306476D01*
X138558232Y-90314828D01*
X138524407Y-90365454D01*
X138524405Y-90365456D01*
X138489699Y-90417396D01*
X138489696Y-90417403D01*
X138489681Y-90417428D01*
X138489677Y-90417434D01*
X138463156Y-90481466D01*
X138463116Y-90481563D01*
X138462971Y-90481915D01*
X138442537Y-90531248D01*
X138442534Y-90531259D01*
X138442530Y-90531271D01*
X138442055Y-90533656D01*
X138442053Y-90533663D01*
X138427959Y-90604535D01*
X138427866Y-90605001D01*
X138418500Y-90652094D01*
X138418500Y-90652101D01*
X138418497Y-90652117D01*
X138418497Y-90652413D01*
X138418497Y-90652414D01*
X138418500Y-90726044D01*
X138418500Y-111583389D01*
X138398815Y-111650428D01*
X138346011Y-111696183D01*
X138276853Y-111706127D01*
X138213297Y-111677102D01*
X138206806Y-111671057D01*
X135560806Y-109024278D01*
X135527330Y-108962950D01*
X135524500Y-108936610D01*
X135524500Y-90063961D01*
X135544185Y-89996922D01*
X135560820Y-89976279D01*
X135598461Y-89938638D01*
X135598464Y-89938635D01*
X135697013Y-89791147D01*
X135764894Y-89627266D01*
X135785428Y-89524038D01*
X135799499Y-89453295D01*
X135799500Y-89453293D01*
X135799500Y-89275906D01*
X135799499Y-89275904D01*
X135764896Y-89101941D01*
X135764893Y-89101932D01*
X135701876Y-88949792D01*
X137524500Y-88949792D01*
X137524500Y-88949793D01*
X137524500Y-90150207D01*
X137524793Y-90150500D01*
X138375207Y-90150500D01*
X138375413Y-90150414D01*
X138375498Y-90150208D01*
X138375500Y-90150207D01*
X138375500Y-88949793D01*
X138375207Y-88949500D01*
X137525207Y-88949500D01*
X137524793Y-88949500D01*
X137524792Y-88949500D01*
X137524500Y-88949792D01*
X135701876Y-88949792D01*
X135697016Y-88938059D01*
X135697009Y-88938046D01*
X135598464Y-88790565D01*
X135598461Y-88790561D01*
X135473038Y-88665138D01*
X135473034Y-88665135D01*
X135325553Y-88566590D01*
X135325540Y-88566583D01*
X135161667Y-88498706D01*
X135161658Y-88498703D01*
X134987694Y-88464100D01*
X134987691Y-88464100D01*
X134810309Y-88464100D01*
X134810306Y-88464100D01*
X134636341Y-88498703D01*
X134636332Y-88498706D01*
X134472459Y-88566583D01*
X134472446Y-88566590D01*
X134324965Y-88665135D01*
X134324961Y-88665138D01*
X134199538Y-88790561D01*
X134199535Y-88790565D01*
X134100990Y-88938046D01*
X134100983Y-88938059D01*
X134033106Y-89101932D01*
X134033103Y-89101941D01*
X133998500Y-89275904D01*
X133998500Y-89453295D01*
X134033103Y-89627258D01*
X134033106Y-89627267D01*
X134100983Y-89791140D01*
X134100990Y-89791153D01*
X134199535Y-89938634D01*
X134199538Y-89938638D01*
X134237180Y-89976279D01*
X134270666Y-90037601D01*
X134273500Y-90063961D01*
X134273500Y-107027500D01*
X134253815Y-107094539D01*
X134201011Y-107140294D01*
X134149500Y-107151500D01*
X134022306Y-107151500D01*
X133848341Y-107186103D01*
X133848332Y-107186106D01*
X133684459Y-107253983D01*
X133684446Y-107253990D01*
X133536965Y-107352535D01*
X133536961Y-107352538D01*
X133411538Y-107477961D01*
X133411535Y-107477965D01*
X133312990Y-107625446D01*
X133312983Y-107625459D01*
X133245106Y-107789332D01*
X133245103Y-107789341D01*
X133210500Y-107963304D01*
X114225630Y-107963304D01*
X114195890Y-107674012D01*
X114195531Y-107669811D01*
X114194548Y-107655435D01*
X114118921Y-106549815D01*
X114118709Y-106545689D01*
X114080382Y-105423709D01*
X114080310Y-105419476D01*
X114080310Y-104296923D01*
X114080382Y-104292690D01*
X114084349Y-104176553D01*
X114118709Y-103170707D01*
X114118921Y-103166587D01*
X114195532Y-102046564D01*
X114195892Y-102042369D01*
X114310697Y-100925627D01*
X114311189Y-100921528D01*
X114464057Y-99809330D01*
X114464694Y-99805220D01*
X114655440Y-98698911D01*
X114656229Y-98694766D01*
X114764514Y-98173670D01*
X114884629Y-97595643D01*
X114885538Y-97591615D01*
X115151347Y-96500861D01*
X115152388Y-96496884D01*
X115455199Y-95416138D01*
X115455548Y-95414922D01*
X115456514Y-95411724D01*
X115784297Y-94378968D01*
X115799666Y-94331666D01*
X115800720Y-94328568D01*
X116150704Y-93343809D01*
X116150838Y-93343437D01*
X116180827Y-93261042D01*
X116181935Y-93258120D01*
X116368958Y-92783863D01*
X116554010Y-92314605D01*
X116554393Y-92313645D01*
X116560515Y-92298489D01*
X116598546Y-92204361D01*
X116599730Y-92201535D01*
X116994082Y-91293646D01*
X116994194Y-91293392D01*
X117052363Y-91162743D01*
X117053515Y-91160242D01*
X117469854Y-90284806D01*
X117470162Y-90284166D01*
X117541574Y-90137749D01*
X117542835Y-90135243D01*
X117981163Y-89289308D01*
X117981404Y-89288850D01*
X118065687Y-89130336D01*
X118067000Y-89127935D01*
X118527058Y-88309722D01*
X118527575Y-88308815D01*
X118624058Y-88141702D01*
X118625396Y-88139445D01*
X119107179Y-87347186D01*
X119107742Y-87346272D01*
X119215956Y-87173094D01*
X119217248Y-87171076D01*
X119720776Y-86403385D01*
X119721379Y-86402480D01*
X119840613Y-86225708D01*
X119841970Y-86223743D01*
X120366994Y-85479953D01*
X120367703Y-85478962D01*
X120497284Y-85300609D01*
X120498613Y-85298819D01*
X121045207Y-84578026D01*
X121046010Y-84576983D01*
X121185128Y-84398920D01*
X121186401Y-84397324D01*
X121754530Y-83698999D01*
X121755420Y-83697922D01*
X121762327Y-83689691D01*
X123082600Y-83689691D01*
X123082600Y-84026708D01*
X123120331Y-84361581D01*
X123120333Y-84361597D01*
X123195323Y-84690153D01*
X123195327Y-84690165D01*
X123306632Y-85008254D01*
X123452852Y-85311883D01*
X123489702Y-85370529D01*
X123632154Y-85597239D01*
X123842275Y-85860723D01*
X124080577Y-86099025D01*
X124344061Y-86309146D01*
X124629414Y-86488446D01*
X124933049Y-86634669D01*
X125171948Y-86718263D01*
X125251134Y-86745972D01*
X125251146Y-86745976D01*
X125579706Y-86820967D01*
X125914592Y-86858699D01*
X125914593Y-86858700D01*
X125914596Y-86858700D01*
X126251607Y-86858700D01*
X126251607Y-86858699D01*
X126586494Y-86820967D01*
X126915054Y-86745976D01*
X127233151Y-86634669D01*
X127513226Y-86499792D01*
X135949500Y-86499792D01*
X135949500Y-86499793D01*
X135949500Y-87500207D01*
X135949793Y-87500500D01*
X139950207Y-87500500D01*
X139950500Y-87500207D01*
X139950500Y-86499793D01*
X139950207Y-86499500D01*
X135950207Y-86499500D01*
X135949793Y-86499500D01*
X135949792Y-86499500D01*
X135949500Y-86499792D01*
X127513226Y-86499792D01*
X127536786Y-86488446D01*
X127822139Y-86309146D01*
X128085623Y-86099025D01*
X128323925Y-85860723D01*
X128534046Y-85597239D01*
X128713346Y-85311886D01*
X128859569Y-85008251D01*
X128970876Y-84690154D01*
X129045867Y-84361594D01*
X129083600Y-84026704D01*
X129083600Y-83689696D01*
X129045867Y-83354806D01*
X128970876Y-83026246D01*
X128968295Y-83018871D01*
X128919719Y-82880048D01*
X128859569Y-82708149D01*
X128713346Y-82404514D01*
X128534046Y-82119161D01*
X128323925Y-81855677D01*
X128085623Y-81617375D01*
X127822139Y-81407254D01*
X127536786Y-81227954D01*
X127536783Y-81227952D01*
X127233154Y-81081732D01*
X126915065Y-80970427D01*
X126915053Y-80970423D01*
X126586497Y-80895433D01*
X126586481Y-80895431D01*
X126251608Y-80857700D01*
X126251604Y-80857700D01*
X125914596Y-80857700D01*
X125914591Y-80857700D01*
X125579718Y-80895431D01*
X125579702Y-80895433D01*
X125251146Y-80970423D01*
X125251134Y-80970427D01*
X124933045Y-81081732D01*
X124629416Y-81227952D01*
X124344062Y-81407253D01*
X124080577Y-81617374D01*
X123842274Y-81855677D01*
X123632153Y-82119162D01*
X123452852Y-82404516D01*
X123306632Y-82708145D01*
X123195327Y-83026234D01*
X123195323Y-83026246D01*
X123120333Y-83354802D01*
X123120331Y-83354818D01*
X123082600Y-83689691D01*
X121762327Y-83689691D01*
X121903222Y-83521779D01*
X121904578Y-83520194D01*
X122494030Y-82844182D01*
X122495152Y-82842915D01*
X122650742Y-82670115D01*
X122652011Y-82668730D01*
X123263074Y-82014442D01*
X123264241Y-82013214D01*
X123426684Y-81844999D01*
X123427968Y-81843693D01*
X124060493Y-81211168D01*
X124061799Y-81209884D01*
X124230014Y-81047441D01*
X124231242Y-81046274D01*
X124885530Y-80435211D01*
X124886915Y-80433942D01*
X125059715Y-80278352D01*
X125060982Y-80277230D01*
X125736994Y-79687778D01*
X125738579Y-79686422D01*
X125914722Y-79538620D01*
X125915799Y-79537730D01*
X126614124Y-78969601D01*
X126615720Y-78968328D01*
X126793783Y-78829210D01*
X126794826Y-78828407D01*
X127515619Y-78281813D01*
X127517409Y-78280484D01*
X127695762Y-78150903D01*
X127696753Y-78150194D01*
X128440543Y-77625170D01*
X128442508Y-77623813D01*
X128619280Y-77504579D01*
X128620185Y-77503976D01*
X129387876Y-77000448D01*
X129389894Y-76999156D01*
X129563072Y-76890942D01*
X129563986Y-76890379D01*
X130356245Y-76408596D01*
X130358502Y-76407258D01*
X130525615Y-76310775D01*
X130526522Y-76310258D01*
X131344735Y-75850200D01*
X131347136Y-75848887D01*
X131505650Y-75764604D01*
X131506108Y-75764363D01*
X132352043Y-75326035D01*
X132354549Y-75324774D01*
X132500966Y-75253362D01*
X132501606Y-75253054D01*
X133377042Y-74836715D01*
X133379543Y-74835563D01*
X133510192Y-74777394D01*
X133510446Y-74777282D01*
X134418335Y-74382930D01*
X134421161Y-74381746D01*
X134530445Y-74337593D01*
X134531405Y-74337210D01*
X135000663Y-74152158D01*
X135474920Y-73965135D01*
X135477842Y-73964027D01*
X135560237Y-73934038D01*
X135560609Y-73933904D01*
X136545368Y-73583920D01*
X136548466Y-73582866D01*
X136595768Y-73567497D01*
X136595799Y-73567486D01*
X137628524Y-73239714D01*
X137631722Y-73238748D01*
X137632938Y-73238399D01*
X138713684Y-72935588D01*
X138717661Y-72934547D01*
X139808415Y-72668738D01*
X139812443Y-72667829D01*
X140911569Y-72439428D01*
X140915711Y-72438640D01*
X142022020Y-72247894D01*
X142026130Y-72247257D01*
X143138328Y-72094389D01*
X143142427Y-72093897D01*
X144259192Y-71979090D01*
X144263364Y-71978732D01*
X145383387Y-71902121D01*
X145387507Y-71901909D01*
X146509490Y-71863581D01*
X146513723Y-71863510D01*
X147636277Y-71863510D01*
X147640509Y-71863581D01*
G37*
%TD.AperFunction*%
%TD*%
M02*
