M48
; DRILL file {KiCad 9.0.6} date 2026-04-01T08:53:56-0700
; FORMAT={-:-/ absolute / inch / decimal}
; #@! TF.CreationDate,2026-04-01T08:53:56-07:00
; #@! TF.GenerationSoftware,Kicad,Pcbnew,9.0.6
; #@! TF.FileFunction,Plated,1,2,PTH
FMAT,2
INCH
; #@! TA.AperFunction,Plated,PTH,ViaDrill
T1C0.0157
; #@! TA.AperFunction,Plated,PTH,ComponentDrill
T2C0.0374
; #@! TA.AperFunction,Plated,PTH,ComponentDrill
T3C0.0394
; #@! TA.AperFunction,Plated,PTH,ComponentDrill
T4C0.0984
%
G90
G05
T1
X5.0315Y-4.5512
X5.0846Y-4.4449
X5.1164Y-4.5515
X5.1732Y-4.4587
X5.2697Y-4.2028
X5.28Y-4.254
X5.311Y-3.5183
X5.3602Y-4.7815
X5.439Y-4.7067
X5.445Y-4.4351
X5.4823Y-4.4901
X5.4932Y-4.7352
X5.5043Y-4.2865
X5.5236Y-4.4073
X5.5273Y-3.5183
X5.5768Y-4.0551
X5.6043Y-4.4508
X5.6043Y-4.5709
X5.6083Y-4.0846
X5.6371Y-3.9493
X5.6555Y-3.502
X5.7736Y-4.0433
X5.7835Y-4.0846
X5.7913Y-4.2992
X5.802Y-4.1576
X5.8325Y-3.5668
X5.8553Y-4.4694
X5.9437Y-3.8217
X5.975Y-4.3257
X5.9941Y-4.4862
X5.9941Y-4.5925
X6.0315Y-4.0276
X6.0354Y-3.9035
X6.0591Y-4.502
X6.0591Y-4.5591
X6.0689Y-4.2756
X6.1358Y-4.4469
X6.1614Y-4.0591
X6.1634Y-4.2756
X6.2181Y-4.4577
X6.222Y-4.2659
X6.2244Y-3.9902
X6.2504Y-4.7415
X6.2698Y-3.5183
X6.2933Y-4.4469
T2
X5.6427Y-3.2126
X5.7411Y-3.2126
X5.8396Y-3.2126
X5.938Y-3.2126
T3
X5.6488Y-4.9254
X5.6488Y-5.0254
X5.7488Y-4.9254
X5.7488Y-5.0254
X5.8488Y-4.9254
X5.8488Y-5.0254
X5.9488Y-4.9254
X5.9488Y-5.0254
T4
X4.9639Y-3.3015
X4.9639Y-4.955
X6.6174Y-3.3015
X6.6174Y-4.955
M30
