# Blender v2.79 (sub 0) OBJ File: 'robotface8.blend'
# www.blender.org
mtllib robotface8.mtl
o Jaw_Plane.006_Jaw_Plane.001
v 3.065911 4.820316 1.505752
v 1.663295 4.791987 2.364550
v 0.949681 4.016713 3.041920
v 3.973722 3.984890 1.212365
v 1.818351 3.074873 2.848881
v 3.474469 3.110191 1.824325
vn 0.5017 0.2574 0.8258
vn 0.4982 0.2898 0.8172
usemtl None
s off
f 1//1 2//1 3//1 4//1
f 4//2 3//2 5//2 6//2
o Jaw_Plane.005_Jaw_Plane.008
v -1.077747 4.792653 2.422368
v -2.454380 4.764324 1.522508
v -3.372058 3.989050 1.167627
v -0.423931 3.957227 3.117150
v -2.825686 3.047210 1.870000
v -1.190719 3.082528 2.927982
vn -0.5315 0.2574 0.8070
vn -0.5253 0.2898 0.8001
usemtl None
s off
f 7//3 8//3 9//3 10//3
f 10//4 9//4 11//4 12//4
o Jaw_Plane.001_Jaw_Plane.005
v 0.972847 3.365720 3.403547
v -0.240959 3.365720 3.403547
v -1.109392 2.509970 3.833862
v 1.841279 2.509970 3.833862
v -0.352510 1.570391 4.409829
v 1.084397 1.570391 4.409829
vn 0.0000 0.4493 0.8934
vn 0.0000 0.5226 0.8526
usemtl None
s off
f 13//5 14//5 15//5 16//5
f 16//6 15//6 17//6 18//6
o Jaw_Plane.004
v 0.835279 9.026788 -0.977358
v 1.096593 10.228389 -4.412923
v -0.008401 9.026788 -0.977358
v -0.269715 10.228389 -4.412923
vn 0.0000 0.9439 0.3301
vn 0.0063 0.9448 0.3276
vn -0.0022 0.9460 0.3240
vn -0.0064 0.9431 0.3325
usemtl None
s off
f 22//7 21//8 19//9 20//10
o Jaw_Plane.003
v 1.006548 8.590663 -0.368894
v 1.595907 7.544236 0.709348
v -0.849724 7.544236 0.709348
v -0.260367 8.590663 -0.368894
v 0.373091 7.787484 0.709348
v 0.373091 8.833910 -0.368894
vn 0.1913 0.7300 0.6562
vn 0.1851 0.7296 0.6584
vn 0.1936 0.7251 0.6608
vn -0.1913 0.7300 0.6562
vn -0.1972 0.7265 0.6582
vn -0.1902 0.7258 0.6611
usemtl None
s off
f 27//11 24//11 23//12 28//13
f 25//14 27//14 28//15 26//16
o Jaw_Plane.000
v 3.736751 10.451715 -3.899337
v 3.013000 8.316916 -1.191051
v 5.300503 7.673528 -4.429777
v 7.515358 8.380944 -6.874273
v 6.351575 5.170127 -5.150676
v 2.054589 7.339740 1.034034
v 1.287018 8.858073 -0.520497
v 1.595907 8.267125 0.860950
v 1.853161 11.289560 -3.228783
v 3.965783 11.574004 -5.352437
v 7.067691 5.609951 -6.252756
v 5.837900 10.378727 -6.520783
v 4.833385 9.220781 -4.149790
vn 0.8214 0.1483 0.5507
vn 0.6527 0.5997 0.4629
vn 0.5944 0.7741 0.2180
vn 0.5735 0.7061 0.4154
vn 0.5711 0.7102 0.4116
vn 0.4757 0.6161 0.6278
vn 0.6206 0.5042 0.6005
vn 0.4702 0.6164 0.6316
vn 0.4716 0.6110 0.6358
vn 0.7568 0.0743 0.6495
vn 0.4945 0.6485 0.5788
vn 0.5004 0.6466 0.5758
vn 0.6746 0.5177 0.5263
vn 0.7218 0.3278 0.6095
vn 0.6715 0.4841 0.5610
usemtl None
s off
f 30//17 31//17 41//17
f 34//18 30//19 35//20 36//21
f 35//22 30//23 29//24 37//25
f 32//26 31//26 33//26 39//26
f 29//27 38//27 37//28
f 40//29 38//29 29//29 41//29
f 32//30 40//30 41//30 31//30
f 29//31 30//31 41//31
o Jaw_Plane.002
v 3.563866 10.686335 -2.858418
v 3.563866 10.686335 -2.858418
v 2.748201 7.932966 -0.150133
v 5.283350 7.289578 -3.388858
v 2.748201 7.932966 -0.150133
v -2.867166 10.686335 -2.858418
v -2.867166 10.686335 -2.858418
v -4.586649 7.289578 -3.388858
v -2.051501 7.932966 -0.150133
v -2.051501 7.932966 -0.150133
v 5.987965 4.786178 -4.109757
v -0.021214 6.022758 5.200412
v -0.131548 5.237928 4.908340
v 0.828248 5.237928 4.908340
v 0.717914 6.022758 5.200412
v 1.827064 5.223557 3.820860
v 1.116722 5.996679 4.389384
v 2.445581 5.690722 2.163471
v 1.677856 6.955791 2.074953
v 3.486003 6.432953 0.676271
v 3.966838 6.182134 -0.514067
v 4.225393 4.877082 -0.795886
v 3.322950 3.052938 0.638427
v 4.466830 1.512357 -1.475755
v 2.030614 1.692701 4.148695
v 1.646235 1.412262 5.055519
v 1.732925 0.317987 4.362599
v 2.694851 0.384758 2.910524
v 0.348350 1.443531 5.256183
v 0.348350 0.365248 4.550081
v 3.017409 1.127352 1.060771
v 2.239595 2.450119 2.482735
v -5.291265 4.786178 -4.109757
v 0.717914 6.022758 5.200412
v -0.021214 6.022758 5.200412
v -0.131548 5.237928 4.908340
v 0.828248 5.237928 4.908340
v -0.420021 5.996679 4.389384
v -1.130364 5.223557 3.820860
v -0.981155 6.955791 2.074953
v -1.748881 5.690722 2.163471
v -2.789303 6.432953 0.676271
v -3.270137 6.182134 -0.514067
v -3.528693 4.877082 -0.795886
v -3.770129 1.512357 -1.475755
v -2.626251 3.052938 0.638427
v -1.333914 1.692701 4.148695
v -1.998150 0.384758 2.910524
v -1.036225 0.317987 4.362599
v -0.949536 1.412262 5.055519
v -2.320708 1.127352 1.060771
v -1.542895 2.450119 2.482735
vn 0.0000 -0.3488 0.9372
vn 0.8025 0.0975 0.5887
vn -0.7835 0.4733 0.4027
vn 0.6099 0.5277 0.5912
vn 0.6047 0.5328 0.5921
vn 0.4482 0.6627 0.5999
vn 0.4934 0.6543 0.5730
vn 0.8837 0.1033 0.4566
vn 0.8768 -0.0340 0.4797
vn 0.6659 0.4288 0.6104
vn 0.7802 0.4527 0.4318
vn 0.7777 0.4501 0.4387
vn 0.8700 -0.1137 0.4798
vn 0.1056 -0.5354 0.8380
vn 0.9331 0.2577 0.2510
vn 0.8682 -0.0291 0.4954
vn -0.8025 0.0975 0.5887
vn 0.8287 0.5013 0.2488
vn 0.7835 0.4733 0.4027
vn -0.6099 0.5277 0.5912
vn -0.6109 0.5223 0.5949
vn -0.6043 0.5293 0.5956
vn -0.8837 0.1033 0.4566
vn -0.8962 0.0845 0.4355
vn -0.8250 0.0392 0.5637
vn -0.8768 -0.0340 0.4797
vn -0.7818 0.4469 0.4348
vn -0.7777 0.4501 0.4387
vn -0.7778 0.4555 0.4331
vn -0.8700 -0.1137 0.4798
vn -0.1056 -0.5354 0.8380
vn -0.9331 0.2577 0.2510
vn -0.8682 -0.0291 0.4954
usemtl None
s off
f 53//32 54//32 55//32 56//32
f 55//33 57//33 58//33 56//33
f 82//34 80//34 79//34 81//34
f 59//35 61//36 44//37 60//38
f 62//39 63//39 52//39 45//39
f 63//40 64//40 65//40 52//40
f 44//41 61//42 62//43 45//43
f 66//44 67//44 68//44 69//44
f 67//45 70//45 71//45 68//45
f 72//46 73//46 66//46 69//46
f 65//47 64//47 73//47 72//47
f 75//32 76//32 77//32 78//32
f 77//48 76//48 79//48 80//48
f 60//49 58//50 57//50 59//50
f 82//51 81//51 51//52 83//53
f 84//54 49//55 74//56 85//54
f 85//57 74//57 86//57 87//57
f 51//58 49//59 84//59 83//60
f 88//61 89//61 90//61 91//61
f 91//62 90//62 71//62 70//62
f 92//63 89//63 88//63 93//63
f 86//64 92//64 93//64 87//64
l 49 50
l 47 48
l 42 43
l 45 46
