# Blender v2.79 (sub 0) OBJ File: 'robotface7-thickernose.blend'
# www.blender.org
mtllib robotface7-thickernose.mtl
o Jaw_Plane.006_Jaw_Plane.001
v 3.065911 4.820316 1.505752
v 1.663295 4.791987 2.364550
v 0.949681 4.016713 3.041920
v 3.973722 3.984890 1.212365
v 1.818351 3.074873 2.848881
v 3.474469 3.110191 1.824325
vn 0.5017 0.2574 0.8258
vn 0.4982 0.2898 0.8172
usemtl None
s off
f 1//1 2//1 3//1 4//1
f 4//2 3//2 5//2 6//2
o Jaw_Plane.005_Jaw_Plane.008
v -1.077747 4.792653 2.422368
v -2.454380 4.764324 1.522508
v -3.372058 3.989050 1.167627
v -0.423931 3.957227 3.117150
v -2.825686 3.047210 1.870000
v -1.190719 3.082528 2.927982
vn -0.5315 0.2574 0.8070
vn -0.5253 0.2898 0.8001
usemtl None
s off
f 7//3 8//3 9//3 10//3
f 10//4 9//4 11//4 12//4
o Jaw_Plane.001_Jaw_Plane.005
v 0.972847 3.365720 3.403547
v -0.240959 3.365720 3.403547
v -1.109392 2.509970 3.833862
v 1.841279 2.509970 3.833862
v -0.352510 1.570391 4.409829
v 1.084397 1.570391 4.409829
vn 0.0000 0.4493 0.8934
vn 0.0000 0.5226 0.8526
usemtl None
s off
f 13//5 14//5 15//5 16//5
f 16//6 15//6 17//6 18//6
o Jaw_Plane.003
v 1.006548 8.590663 -0.368894
v 1.595907 7.544236 0.709348
v -0.849724 7.544236 0.709348
v -0.260367 8.590663 -0.368894
v 0.373091 7.787484 0.709348
v 0.373091 8.833910 -0.368894
vn 0.1913 0.7300 0.6562
vn 0.1851 0.7296 0.6584
vn 0.1936 0.7251 0.6608
vn -0.1913 0.7300 0.6562
vn -0.1972 0.7265 0.6582
vn -0.1902 0.7258 0.6611
usemtl None
s off
f 23//7 20//7 19//8 24//9
f 21//10 23//10 24//11 22//12
o Jaw_Plane.000
v 3.736751 10.451715 -3.899337
v 3.013000 8.316916 -1.191051
v 5.300503 7.673528 -4.429777
v 6.891181 8.080503 -6.874273
v -2.990569 10.451715 -3.899337
v -4.554323 7.673528 -4.429777
v -2.266819 8.316916 -1.191051
v 6.351575 5.170127 -5.150676
v 2.054589 7.339740 1.034034
v 1.287018 8.858073 -0.520497
v 1.595907 8.267125 0.860950
v 1.853161 11.289560 -3.228783
v -5.605394 5.170127 -5.150676
v -1.308408 7.339740 1.034034
v -0.849724 8.267125 0.860950
v -0.540836 8.858073 -0.520497
v -1.106979 11.289560 -3.228783
v 3.965783 11.574004 -5.352437
v -3.219601 11.574004 -5.352437
v 7.067691 5.609951 -6.252756
v -6.321510 5.609951 -6.252756
v -6.145001 8.080503 -6.874273
vn 0.7956 0.3540 0.4916
vn -0.7956 0.3540 0.4916
vn 0.6527 0.5997 0.4629
vn 0.5944 0.7741 0.2180
vn 0.5735 0.7061 0.4154
vn 0.5711 0.7102 0.4116
vn 0.4757 0.6161 0.6278
vn 0.6206 0.5042 0.6005
vn 0.4702 0.6164 0.6316
vn 0.4716 0.6110 0.6358
vn 0.8026 0.1868 0.5666
vn -0.5711 0.7102 0.4116
vn -0.5759 0.7066 0.4112
vn -0.5675 0.7093 0.4182
vn -0.4730 0.6196 0.6264
vn -0.4702 0.6164 0.6316
vn -0.4695 0.6152 0.6333
vn -0.4645 0.6205 0.6318
vn -0.8124 0.2072 0.5450
vn -0.8491 0.1747 0.4984
vn -0.7504 0.0932 0.6544
vn -0.7215 0.2682 0.6383
vn -0.4945 0.6485 0.5788
vn -0.4926 0.6495 0.5792
vn 0.4945 0.6485 0.5788
vn 0.5004 0.6466 0.5758
vn -0.7697 0.3840 0.5100
vn -0.8039 0.3051 0.5105
vn -0.7501 0.4004 0.5263
vn -0.7703 0.3852 0.5081
vn 0.7697 0.3840 0.5100
usemtl None
s off
f 25//13 26//13 27//13
f 29//14 30//14 31//14
f 33//15 26//16 34//17 35//18
f 34//19 26//20 25//21 36//22
f 28//23 27//23 32//23 44//23
f 38//24 39//24 40//25 31//26
f 40//27 41//28 29//29 31//30
f 30//31 46//32 45//33 37//34
f 41//35 43//35 29//36
f 25//37 42//37 36//38
f 43//39 46//40 30//41 29//42
f 28//43 42//43 25//43 27//43
o Jaw_Plane.002
v 3.563866 10.686335 -2.858418
v 3.563866 10.686335 -2.858418
v 2.748201 7.932966 -0.150133
v 5.283350 7.289578 -3.388858
v 2.748201 7.932966 -0.150133
v -2.867166 10.686335 -2.858418
v -2.867166 10.686335 -2.858418
v -4.586649 7.289578 -3.388858
v -2.051501 7.932966 -0.150133
v -2.051501 7.932966 -0.150133
v 5.987965 4.786178 -4.109757
v -0.021214 6.022758 5.200412
v -0.131548 5.237928 4.908340
v 0.828248 5.237928 4.908340
v 0.717914 6.022758 5.200412
v 2.004967 5.223557 3.820860
v 1.397812 5.996679 4.389384
v 2.612200 5.690722 2.163471
v 1.814022 6.955791 2.074953
v 3.486003 6.432953 0.676271
v 3.966838 6.182134 -0.514067
v 4.225393 4.877082 -0.795886
v 3.322950 3.052938 0.638427
v 4.466830 1.512357 -1.475755
v 2.030614 1.692701 4.148695
v 1.646235 1.412262 5.055519
v 1.732925 0.317987 4.362599
v 2.694851 0.384758 2.910524
v 0.348350 1.443531 5.256183
v 0.348350 0.365248 4.550081
v 3.017409 1.127352 1.060771
v 2.239595 2.450119 2.482735
v -5.291265 4.786178 -4.109757
v 0.717914 6.022758 5.200412
v -0.021214 6.022758 5.200412
v -0.131548 5.237928 4.908340
v 0.828248 5.237928 4.908340
v -0.701111 5.996679 4.389384
v -1.308266 5.223557 3.820860
v -1.117321 6.955791 2.074953
v -1.915499 5.690722 2.163471
v -2.789303 6.432953 0.676271
v -3.270137 6.182134 -0.514067
v -3.528693 4.877082 -0.795886
v -3.770129 1.512357 -1.475755
v -2.626251 3.052938 0.638427
v -1.333914 1.692701 4.148695
v -1.998150 0.384758 2.910524
v -1.036225 0.317987 4.362599
v -0.949536 1.412262 5.055519
v -2.320708 1.127352 1.060771
v -1.542895 2.450119 2.482735
vn 0.0000 -0.3488 0.9372
vn 0.7132 -0.0575 0.6986
vn -0.8024 0.4652 0.3738
vn 0.6339 0.5365 0.5572
vn 0.6287 0.5415 0.5582
vn 0.4707 0.6714 0.5725
vn 0.5165 0.6611 0.5442
vn 0.8837 0.1033 0.4566
vn 0.8768 -0.0340 0.4797
vn 0.6659 0.4288 0.6104
vn 0.7802 0.4527 0.4318
vn 0.7777 0.4501 0.4387
vn 0.8700 -0.1137 0.4798
vn 0.1056 -0.5354 0.8380
vn 0.9331 0.2577 0.2510
vn 0.8682 -0.0291 0.4954
vn -0.7132 -0.0575 0.6986
vn 0.8417 0.4926 0.2210
vn 0.8024 0.4652 0.3738
vn -0.6339 0.5365 0.5572
vn -0.6350 0.5311 0.5610
vn -0.6285 0.5379 0.5618
vn -0.8837 0.1033 0.4566
vn -0.8962 0.0845 0.4355
vn -0.8250 0.0392 0.5637
vn -0.8768 -0.0340 0.4797
vn -0.7818 0.4469 0.4348
vn -0.7777 0.4501 0.4387
vn -0.7778 0.4555 0.4331
vn -0.8700 -0.1137 0.4798
vn -0.1056 -0.5354 0.8380
vn -0.9331 0.2577 0.2510
vn -0.8682 -0.0291 0.4954
usemtl None
s off
f 58//44 59//44 60//44 61//44
f 60//45 62//45 63//45 61//45
f 87//46 85//46 84//46 86//46
f 64//47 66//48 49//49 65//50
f 67//51 68//51 57//51 50//51
f 68//52 69//52 70//52 57//52
f 49//53 66//54 67//55 50//55
f 71//56 72//56 73//56 74//56
f 72//57 75//57 76//57 73//57
f 77//58 78//58 71//58 74//58
f 70//59 69//59 78//59 77//59
f 80//44 81//44 82//44 83//44
f 82//60 81//60 84//60 85//60
f 65//61 63//62 62//62 64//62
f 87//63 86//63 56//64 88//65
f 89//66 54//67 79//68 90//66
f 90//69 79//69 91//69 92//69
f 56//70 54//71 89//71 88//72
f 93//73 94//73 95//73 96//73
f 96//74 95//74 76//74 75//74
f 97//75 94//75 93//75 98//75
f 91//76 97//76 98//76 92//76
l 54 55
l 52 53
l 47 48
l 50 51
