# Blender v2.79 (sub 0) OBJ File: 'robotface3.blend'
# www.blender.org
mtllib robotface3.mtl
o Jaw_Plane.002
v -0.129355 1.202467 0.844378
v -0.099615 1.376853 0.913968
v -0.407589 1.477409 0.589768
v -0.224075 1.622164 0.704624
v -0.465492 1.702790 0.348534
v -0.276397 2.002923 0.364797
v -0.533442 1.822964 0.154955
v -0.415556 2.203396 0.050526
v -0.723275 1.804576 -0.055396
v -0.863290 2.162537 -0.520836
v -0.835292 1.566577 -0.168605
v -1.251918 1.664313 -0.740478
v -0.817036 1.079709 -0.119276
v -1.125365 0.789850 -0.520102
v -0.615138 0.368013 0.151739
v -0.383632 0.630279 0.428451
v -0.462776 0.135027 0.493558
v -0.283733 0.400068 0.738385
v -0.239543 0.060792 0.710874
v -0.216176 0.329267 0.838661
v 0.170742 1.210215 0.841853
v 0.021531 1.182220 0.868682
v 0.133217 1.382864 0.912008
v 0.017596 1.355441 0.932506
v 0.430097 1.499038 0.582718
v 0.241315 1.634180 0.700708
v 0.472228 1.727001 0.340643
v 0.268198 2.016984 0.360214
v 0.530620 1.850437 0.146001
v 0.391521 2.224234 0.043735
v 0.717585 1.841777 -0.067521
v 0.831095 2.206285 -0.535094
v 0.839813 1.609827 -0.182701
v 1.241165 1.728682 -0.761458
v 0.847537 1.122687 -0.133284
v 1.163627 0.848949 -0.539364
v 0.687218 0.401638 0.140780
v 0.447174 0.651730 0.421460
v 0.552850 0.161249 0.485011
v 0.364513 0.416805 0.732930
v 0.337432 0.075689 0.706019
v 0.302395 0.342656 0.834297
v 0.048330 0.103789 0.744435
v 0.043305 0.333003 0.850655
vn -0.1995 -0.3382 0.9197
vn -0.7119 0.0720 0.6986
vn -0.7038 0.4207 0.5724
vn -0.7312 0.4013 0.5516
vn -0.7859 0.2868 0.5478
vn -0.8044 0.0320 0.5932
vn -0.7221 0.4090 0.5580
vn -0.7624 -0.1503 0.6294
vn -0.0391 -0.4240 0.9048
vn -0.8578 0.1994 0.4737
vn -0.7867 0.0118 0.6172
vn 0.2321 -0.3270 0.9161
vn 0.7189 0.1089 0.6865
vn 0.6907 0.4567 0.5607
vn 0.7187 0.4387 0.5394
vn 0.7792 0.3272 0.5346
vn 0.8116 0.0737 0.5796
vn 0.7093 0.4459 0.5459
vn 0.7796 -0.1105 0.6164
vn 0.0761 -0.4210 0.9039
vn 0.8542 0.2436 0.4593
vn 0.7953 0.0527 0.6039
usemtl None
s off
f 1//1 22//1 24//1 2//1
f 1//2 2//2 4//2 3//2
f 3//3 4//3 6//3 5//3
f 5//4 6//4 8//4 7//4
f 9//5 10//5 12//5 11//5
f 11//6 12//6 14//6 13//6
f 8//7 10//7 9//7 7//7
f 18//8 17//8 19//8 20//8
f 20//9 19//9 43//9 44//9
f 15//10 17//10 18//10 16//10
f 14//11 15//11 16//11 13//11
f 21//12 23//12 24//12 22//12
f 21//13 25//13 26//13 23//13
f 25//14 27//14 28//14 26//14
f 27//15 29//15 30//15 28//15
f 31//16 33//16 34//16 32//16
f 33//17 35//17 36//17 34//17
f 30//18 29//18 31//18 32//18
f 40//19 42//19 41//19 39//19
f 42//20 44//20 43//20 41//20
f 37//21 38//21 40//21 39//21
f 36//22 35//22 38//22 37//22
