# Blender v2.79 (sub 0) OBJ File: 'robotface3.blend'
# www.blender.org
mtllib robotface4.mtl
o Jaw_Plane.002
v -0.129355 1.202467 0.844378
v -0.099615 1.376853 0.913968
v -0.224075 1.622164 0.704624
v -0.407589 1.477409 0.589768
v -0.276397 2.002923 0.364797
v -0.465492 1.702790 0.348534
v -0.415556 2.203396 0.050526
v -0.533442 1.822964 0.154955
v -0.723275 1.804576 -0.055396
v -0.863290 2.162537 -0.520836
v -1.251918 1.664313 -0.740478
v -0.835292 1.566577 -0.168605
v -1.125365 0.789850 -0.520102
v -0.817036 1.079709 -0.119276
v -0.453449 0.395677 0.626002
v -0.632492 0.130636 0.381175
v -0.373208 0.065523 0.628515
v -0.349841 0.298942 0.774533
v -0.664571 0.368013 0.082439
v -0.433065 0.630279 0.359151
v 0.129355 1.202467 0.844378
v 0.000000 1.182220 0.868682
v 0.000000 1.355441 0.932506
v 0.099615 1.376853 0.913968
v 0.224075 1.622164 0.704624
v 0.407589 1.477409 0.589768
v 0.276397 2.002923 0.364797
v 0.465492 1.702790 0.348534
v 0.415556 2.203396 0.050526
v 0.533442 1.822964 0.154955
v 0.723275 1.804576 -0.055396
v 0.863290 2.162537 -0.520836
v 1.251918 1.664313 -0.740478
v 0.835292 1.566577 -0.168605
v 1.125365 0.789850 -0.520102
v 0.817036 1.079709 -0.119276
v 0.453449 0.395677 0.626002
v 0.632492 0.130636 0.381175
v 0.373208 0.065523 0.628515
v 0.349841 0.298942 0.774533
v 0.000000 0.070241 0.661839
v 0.000000 0.299455 0.809719
v 0.664571 0.368013 0.082439
v 0.433065 0.630279 0.359151
vn -0.2314 -0.3313 0.9147
vn -0.7119 0.0720 0.6986
vn -0.7038 0.4207 0.5724
vn -0.7312 0.4013 0.5516
vn -0.7303 0.4020 0.5523
vn -0.7227 0.4084 0.5576
vn -0.7859 0.2868 0.5478
vn -0.8044 0.0320 0.5932
vn -0.7221 0.4090 0.5580
vn -0.7607 -0.1801 0.6237
vn -0.0761 -0.5319 0.8434
vn -0.8746 0.3632 0.3212
vn -0.7850 0.0074 0.6194
vn 0.2314 -0.3313 0.9147
vn 0.7119 0.0720 0.6986
vn 0.7038 0.4207 0.5724
vn 0.7312 0.4013 0.5516
vn 0.7269 0.4103 0.5506
vn 0.7262 0.4001 0.5591
vn 0.7859 0.2868 0.5478
vn 0.8044 0.0320 0.5932
vn 0.7221 0.4090 0.5580
vn 0.7607 -0.1801 0.6237
vn 0.0761 -0.5319 0.8434
vn 0.8746 0.3632 0.3212
vn 0.7850 0.0074 0.6194
usemtl None
s 1
f 1//1 22//1 23//1 2//1
f 1//2 2//2 3//2 4//2
f 4//3 3//3 5//3 6//3
f 6//4 5//4 7//5 8//6
f 9//7 10//7 11//7 12//7
f 12//8 11//8 13//8 14//8
f 7//5 10//9 9//9 8//6
f 15//10 16//10 17//10 18//10
f 18//11 17//11 41//11 42//11
f 19//12 16//12 15//12 20//12
f 13//13 19//13 20//13 14//13
f 21//14 24//14 23//14 22//14
f 21//15 26//15 25//15 24//15
f 26//16 28//16 27//16 25//16
f 28//17 30//18 29//19 27//17
f 31//20 34//20 33//20 32//20
f 34//21 36//21 35//21 33//21
f 29//19 30//18 31//22 32//22
f 37//23 40//23 39//23 38//23
f 40//24 42//24 41//24 39//24
f 43//25 44//25 37//25 38//25
f 35//26 36//26 44//26 43//26
