# Blender v2.79 (sub 0) OBJ File: 'robotface6.blend'
# www.blender.org
mtllib robotface6.mtl
o Jaw_Plane.002
v -0.291266 8.312385 4.392760
v -0.153085 9.318346 4.767126
v 7.767008 15.452008 -8.445271
v 8.825777 11.098186 -9.125168
v 8.603734 7.367785 -8.279922
v 0.910777 8.312385 4.392760
v 0.772596 9.318346 4.767126
v 1.741825 9.189575 3.727584
v 2.594485 8.293964 2.998872
v 2.671551 10.514270 0.761039
v 3.550142 8.892756 0.874499
v 3.315317 11.766773 -2.090985
v 4.239337 9.844117 -1.031734
v 4.841532 9.522628 -2.557461
v 5.763824 10.942104 -6.242252
v 7.116317 7.733347 -7.166271
v 5.165345 7.849864 -2.918685
v 5.467720 3.537096 -3.790112
v 4.035131 5.511752 -1.080240
v 2.416615 3.768255 3.419079
v 3.248502 2.091787 1.832042
v 2.043791 2.006204 3.693253
v 1.935221 3.408801 4.581409
v 3.652472 3.043614 -0.538896
v 2.678342 4.739083 1.283719
v 3.315317 11.766773 -2.090985
v 5.395621 10.942104 -6.242252
v 0.329528 11.516536 1.620528
v 0.973294 12.769040 -1.231496
v 4.336853 15.295928 -5.562356
v 1.994830 16.298197 -4.702868
v 7.338360 11.463747 -7.393162
v 6.279592 15.817572 -6.713267
v 4.336853 15.295928 -5.562356
v 1.994830 16.298197 -4.702868
v 5.578983 16.447748 -6.857052
v 3.236960 17.450014 -6.472923
v 0.910777 8.312385 4.392760
v 0.772596 9.318346 4.767126
v -7.147497 15.452008 -8.445271
v -8.206266 11.098186 -9.125168
v -7.984223 7.367785 -8.279922
v -0.291266 8.312385 4.392760
v -0.153085 9.318346 4.767126
v -1.122313 9.189575 3.727584
v -1.974973 8.293964 2.998872
v -2.052039 10.514270 0.761039
v -2.930630 8.892756 0.874499
v -2.695806 11.766773 -2.090985
v -3.619826 9.844117 -1.031734
v -4.222020 9.522628 -2.557461
v -5.144313 10.942104 -6.242252
v -6.496806 7.733347 -7.166271
v -4.545834 7.849864 -2.918685
v -4.848208 3.537096 -3.790112
v -3.415620 5.511752 -1.080240
v -1.797104 3.768255 3.419079
v -2.628990 2.091787 1.832042
v -1.424279 2.006204 3.693253
v -1.315710 3.408801 4.581409
v 0.309756 2.066781 3.933559
v 0.309756 3.448880 4.838611
v -3.032960 3.043614 -0.538896
v -2.058830 4.739083 1.283719
v -2.695806 11.766773 -2.090985
v -4.776110 10.942104 -6.242252
v 0.289984 11.516536 1.620528
v -0.353782 12.769040 -1.231496
v -3.717341 15.295928 -5.562356
v -1.375318 16.298197 -4.702868
v -6.718849 11.463747 -7.393162
v -5.660080 15.817572 -6.713267
v -3.717341 15.295928 -5.562356
v -1.375318 16.298197 -4.702868
v -4.959472 16.447748 -6.857052
v -2.617449 17.450014 -6.472923
v 5.578983 16.965279 -8.942892
v 3.236960 17.967545 -8.740161
v -4.959472 16.965279 -8.942892
v -2.617449 17.967545 -8.740161
vn 0.7647 0.0863 0.6385
vn 0.3182 0.5292 0.7866
vn 0.3200 0.5343 0.7824
vn 0.3242 0.5378 0.7782
vn 0.8954 0.1524 0.4184
vn 0.5116 -0.0098 0.8592
vn -0.7647 0.0863 0.6385
vn -0.3232 0.5287 0.7849
vn -0.3200 0.5343 0.7824
vn -0.3257 0.5360 0.7789
vn -0.8954 0.1524 0.4184
vn -0.5116 -0.0098 0.8592
vn -0.5425 0.8040 0.2434
vn -0.5454 0.8040 0.2368
vn -0.5470 0.8000 0.2464
vn 0.5425 0.8040 0.2434
vn 0.5441 0.8011 0.2492
vn 0.5485 0.8005 0.2414
vn 0.6427 0.0663 0.7632
vn 0.7685 0.1184 0.6288
vn 0.6977 0.0610 0.7137
vn 0.1605 0.9864 0.0368
vn 0.7172 0.4239 0.5531
vn 0.0000 -0.3488 0.9372
vn 0.6716 -0.0775 0.7369
vn 0.7828 0.4280 0.4516
vn 0.7303 0.5186 0.4448
vn 0.7620 0.5103 0.3987
vn 0.6327 0.5882 0.5036
vn 0.6162 0.6467 0.4495
vn 0.9063 0.2155 0.3637
vn 0.8958 -0.0268 0.4437
vn 0.8094 0.4802 0.3380
vn 0.8748 -0.1117 0.4714
vn 0.1080 -0.5353 0.8378
vn 0.9358 0.2525 0.2460
vn 0.8731 -0.0286 0.4868
vn 0.0009 0.9795 -0.2015
vn 0.0000 0.9808 -0.1948
vn 0.2683 0.7603 0.5915
vn 0.2071 0.8777 0.4322
vn 0.2512 0.2797 0.9266
vn 0.1877 0.4400 0.8782
vn 0.2604 0.3285 0.9079
vn 0.1051 0.5496 0.8288
vn 0.4313 0.7833 0.4477
vn 0.2611 0.8397 0.4762
vn -0.6427 0.0663 0.7632
vn -0.6977 0.0610 0.7137
vn -0.7685 0.1184 0.6288
vn -0.7172 0.4239 0.5531
vn -0.1605 0.9864 0.0368
vn -0.6716 -0.0775 0.7369
vn -0.7828 0.4280 0.4516
vn -0.7303 0.5186 0.4448
vn -0.6162 0.6467 0.4495
vn -0.6417 0.5780 0.5042
vn -0.7585 0.5090 0.4068
vn -0.9063 0.2155 0.3637
vn -0.8958 -0.0268 0.4437
vn -0.8094 0.4802 0.3380
vn -0.8748 -0.1117 0.4714
vn -0.1080 -0.5353 0.8378
vn -0.9358 0.2525 0.2460
vn -0.8731 -0.0286 0.4868
vn -0.0051 0.9799 -0.1993
vn -0.2071 0.8777 0.4322
vn -0.2621 0.7586 0.5966
vn -0.1942 0.4418 0.8758
vn -0.2473 0.2757 0.9289
vn -0.0980 0.5524 0.8278
vn -0.2580 0.3227 0.9107
vn -0.2542 0.8393 0.4805
vn -0.4284 0.7797 0.4567
vn 0.2021 0.9527 0.2271
vn -0.2124 0.9505 0.2267
vn 0.4010 0.8907 0.2144
vn -0.4044 0.8883 0.2178
usemtl None
s off
f 33//1 32//1 4//1 3//1
f 36//2 34//3 30//4 33//3
f 30//5 12//5 15//5 26//5 27//5
f 30//6 27//6 32//6 33//6
f 72//7 40//7 41//7 71//7
f 75//8 72//9 69//9 73//10
f 69//11 66//11 65//11 52//11 49//11
f 69//12 72//12 71//12 66//12
f 40//13 72//13 75//14 79//15
f 3//16 77//17 36//18 33//16
s 1
f 32//19 16//20 5//21 4//21
f 32//19 27//22 15//23 16//20
f 2//24 1//24 6//24 7//24
f 6//25 9//25 8//25 7//25
f 9//26 11//26 10//26 8//26
f 11//27 13//28 12//29 10//30
f 14//31 17//31 16//20 15//23
f 17//32 19//32 18//32 16//32
f 12//29 13//28 14//33 15//33
f 20//34 23//34 22//34 21//34
f 23//35 62//35 61//35 22//35
f 24//36 25//36 20//36 21//36
f 18//37 19//37 25//37 24//37
f 12//38 15//23 27//22 26//39
f 10//30 12//29 29//40 28//41
f 29//40 12//29 30//42 31//43
f 31//43 30//42 34//44 35//45
f 35//45 34//44 36//46 37//47
f 71//48 41//49 42//49 53//50
f 71//48 53//50 52//51 66//52
f 39//24 44//24 43//24 38//24
f 43//53 44//53 45//53 46//53
f 46//54 45//54 47//54 48//54
f 48//55 47//56 49//57 50//58
f 51//59 52//51 53//50 54//59
f 54//60 53//60 55//60 56//60
f 49//57 52//61 51//61 50//58
f 57//62 58//62 59//62 60//62
f 60//63 59//63 61//63 62//63
f 63//64 58//64 57//64 64//64
f 55//65 63//65 64//65 56//65
f 49//39 65//66 66//52 52//51
f 47//56 67//67 68//68 49//57
f 68//68 70//69 69//70 49//57
f 70//69 74//71 73//72 69//70
f 74//71 76//73 75//74 73//72
f 29//40 31//43 70//69 68//68
f 29//40 68//68 67//67 28//41
f 35//45 37//47 76//73 74//71
f 76//73 37//47 78//75 80//76
f 37//47 36//46 77//77 78//75
f 75//74 76//73 80//76 79//78
