<?xml version="1.0" encoding="UTF-8"?>
<svg xmlns="http://www.w3.org/2000/svg" width="27.4" height="18.3" version="1.1" viewBox="0 0 27.4 18.3">
  <!-- Generator: Adobe Illustrator 28.6.0, SVG Export Plug-In . SVG Version: 1.2.0 Build 709)  -->
  <g>
    <g id="Layer_1">
      <path d="M22.1,13.6c-2.4,0-3.5-2.2-4.5-4.3-1-1.9-1.9-3.7-3.7-3.7s-2.7,1.8-3.7,3.7c-1.1,2.1-2.2,4.3-4.5,4.3s-.5-.2-.5-.5.2-.5.5-.5c1.7,0,2.7-1.8,3.7-3.7,1.1-2.1,2.2-4.3,4.5-4.3s3.5,2.2,4.5,4.3c1,1.9,1.9,3.7,3.7,3.7s.5.2.5.5-.2.5-.5.5Z"/>
    </g>
  </g>
</svg>