<?xml version="1.0" encoding="UTF-8"?>
<svg id="Layer_1" xmlns="http://www.w3.org/2000/svg" version="1.1" viewBox="0 0 113.6 106.1">
  <!-- Generator: Adobe Illustrator 29.4.0, SVG Export Plug-In . SVG Version: 2.1.0 Build 152)  -->
  <defs>
    <style>
      .st0 {
        fill: #bfbfbf;
      }
    </style>
  </defs>
  <ellipse class="st0" cx="11.4" cy="95.5" rx="1.2" ry="1.4"/>
  <ellipse class="st0" cx="30.2" cy="95.5" rx="1.2" ry="1.4"/>
  <ellipse class="st0" cx="48.9" cy="95.5" rx="1.2" ry="1.4"/>
  <ellipse class="st0" cx="67.7" cy="95.5" rx="1.2" ry="1.4"/>
  <ellipse class="st0" cx="11.4" cy="74.6" rx="1.2" ry="1.4"/>
  <ellipse class="st0" cx="30.2" cy="74.6" rx="1.2" ry="1.4"/>
  <ellipse class="st0" cx="48.9" cy="74.6" rx="1.2" ry="1.4"/>
  <ellipse class="st0" cx="67.7" cy="74.6" rx="1.2" ry="1.4"/>
  <ellipse class="st0" cx="11.4" cy="53.8" rx="1.2" ry="1.4"/>
  <ellipse class="st0" cx="30.2" cy="53.8" rx="1.2" ry="1.4"/>
  <ellipse class="st0" cx="48.9" cy="53.8" rx="1.2" ry="1.4"/>
  <ellipse class="st0" cx="67.7" cy="53.8" rx="1.2" ry="1.4"/>
  <ellipse class="st0" cx="11.4" cy="33" rx="1.2" ry="1.4"/>
  <ellipse class="st0" cx="30.2" cy="33" rx="1.2" ry="1.4"/>
  <ellipse class="st0" cx="48.9" cy="33" rx="1.2" ry="1.4"/>
  <ellipse class="st0" cx="67.7" cy="33" rx="1.2" ry="1.4"/>
  <ellipse class="st0" cx="11.4" cy="12.1" rx="1.2" ry="1.4"/>
  <ellipse class="st0" cx="30.2" cy="12.1" rx="1.2" ry="1.4"/>
  <ellipse class="st0" cx="48.9" cy="12.1" rx="1.2" ry="1.4"/>
  <ellipse class="st0" cx="67.7" cy="12.1" rx="1.2" ry="1.4"/>
  <ellipse class="st0" cx="86.4" cy="12.1" rx="1.2" ry="1.4"/>
  <polygon class="st0" points="76 68.6 79.6 68.6 99.3 83.5 79.6 98.4 76 98.4 76 68.6"/>
  <polygon class="st0" points="76 31.9 79.6 31.9 99.3 46.8 79.6 61.6 76 61.6 76 31.9"/>
  <polygon class="st0" points="106.4 50.3 102.8 50.3 83.1 65.1 102.8 80 106.4 80 106.4 50.3"/>
  <polygon class="st0" points="106.4 13.5 102.8 13.5 83.1 28.4 102.8 43.3 106.4 43.3 106.4 13.5"/>
</svg>