<?xml version="1.0" encoding="UTF-8" standalone="no"?>
<!DOCTYPE svg PUBLIC "-//W3C//DTD SVG 1.1//EN" "http://www.w3.org/Graphics/SVG/1.1/DTD/svg11.dtd">
<svg width="100%" height="100%" viewBox="0 0 3019 1857" version="1.1" xmlns="http://www.w3.org/2000/svg" xmlns:xlink="http://www.w3.org/1999/xlink" xml:space="preserve" xmlns:serif="http://www.serif.com/" style="fill-rule:evenodd;clip-rule:evenodd;stroke-linecap:round;stroke-linejoin:round;stroke-miterlimit:1.5;">
    <g transform="matrix(0.43001,0,0,0.516704,372.886,122.47)">
        <path d="M944.92,1128.75L997.186,999.125L1055.67,1021.22L999.943,1146.91L944.92,1128.75Z" style="fill:none;stroke:black;stroke-width:15.15px;"/>
    </g>
    <g transform="matrix(0.43001,0,0,0.516704,406.373,139.437)">
        <path d="M944.92,1128.75L997.186,999.125L1055.67,1021.22L999.943,1146.91L944.92,1128.75Z" style="fill:none;stroke:black;stroke-width:15.15px;"/>
    </g>
    <g transform="matrix(0.43001,0,0,0.516704,437.834,155.81)">
        <path d="M944.92,1128.75L997.186,999.125L1055.67,1021.22L999.943,1146.91L944.92,1128.75Z" style="fill:none;stroke:black;stroke-width:15.15px;"/>
    </g>
    <g transform="matrix(0.467422,0,0,0.516704,337.535,122.47)">
        <path d="M1234.18,1211.44L1243.26,1239.94L1311.1,1267.97L1333.07,1263.15" style="fill:none;stroke:black;stroke-width:26.39px;"/>
    </g>
    <g transform="matrix(-0.467422,0,0,0.516704,1735.83,111.935)">
        <path d="M1234.18,1211.44L1243.26,1239.94L1311.1,1267.97L1333.07,1263.15" style="fill:none;stroke:black;stroke-width:26.39px;"/>
    </g>
    <g transform="matrix(0.467422,0,0,0.516704,326.408,143.542)">
        <path d="M1234.18,1211.44L1243.26,1239.94L1311.1,1267.97L1333.07,1263.15" style="fill:none;stroke:black;stroke-width:26.39px;"/>
    </g>
    <g transform="matrix(0.410372,-0.247376,0.223782,0.453638,258.529,576.889)">
        <path d="M1234.18,1211.44L1243.26,1239.94L1311.1,1267.97L1333.07,1263.15" style="fill:none;stroke:black;stroke-width:27.57px;"/>
    </g>
    <g transform="matrix(0.410372,-0.247376,0.223782,0.453638,257.886,601.278)">
        <path d="M1234.18,1211.44L1243.26,1239.94L1311.1,1267.97L1333.07,1263.15" style="fill:none;stroke:black;stroke-width:27.57px;"/>
    </g>
    <g transform="matrix(-0.467422,0,0,0.516704,1746.96,133.006)">
        <path d="M1234.18,1211.44L1243.26,1239.94L1311.1,1267.97L1333.07,1263.15" style="fill:none;stroke:black;stroke-width:26.39px;"/>
    </g>
    <g transform="matrix(0.467422,0,0,0.516704,337.535,122.47)">
        <path d="M1207.23,410.406L1237.19,386.93L1293.51,253.406L1377.04,283.016L1438.12,436.477L1509.5,539.633L1397.51,699.508" style="fill:none;stroke:black;stroke-width:14.61px;"/>
    </g>
    <g transform="matrix(0.467422,0,0,0.516704,337.535,122.47)">
        <path d="M1076.87,770.008L1397.51,699.196L1207.23,410.406L1171.62,418.75" style="fill:none;stroke:black;stroke-width:16.24px;"/>
    </g>
    <g transform="matrix(0.467422,0,0,0.516704,337.535,122.47)">
        <path d="M583.6,499.344L984.022,357.821L1171.62,419.071L1074.87,770.008L946.912,714.086L849.279,749.235" style="fill:none;stroke:black;stroke-width:16.24px;"/>
    </g>
    <g transform="matrix(0.467422,0,0,0.516704,337.535,122.47)">
        <path d="M582.342,499.344L512.529,933.293L597.717,999.125L849.279,752.336L582.342,499.344Z" style="fill:none;stroke:black;stroke-width:16.24px;"/>
    </g>
    <g transform="matrix(0.449108,-0.143219,0.129559,0.496458,231.984,339.255)">
        <path d="M1346.47,867.461L1418.95,999.125L1435.04,999.125L1391.15,867.461L1346.47,867.461Z" style="fill:none;stroke:black;stroke-width:16.69px;"/>
    </g>
    <g transform="matrix(0.449108,-0.143219,0.129559,0.496458,261.925,328.099)">
        <path d="M1346.47,867.461L1418.95,999.125L1435.04,999.125L1391.15,867.461L1346.47,867.461Z" style="fill:none;stroke:black;stroke-width:16.69px;"/>
    </g>
    <g transform="matrix(0.449108,-0.143219,0.129559,0.496458,291.141,316.709)">
        <path d="M1346.47,867.461L1418.95,999.125L1435.04,999.125L1391.15,867.461L1346.47,867.461Z" style="fill:none;stroke:black;stroke-width:16.69px;"/>
    </g>
    <g transform="matrix(0.467422,0,0,0.516704,337.535,122.47)">
        <path d="M1720.87,1343.79L1664.6,1471.62" style="fill:none;stroke:black;stroke-width:16.24px;"/>
    </g>
    <g transform="matrix(0.467422,0,0,0.516704,337.535,122.47)">
        <path d="M1664.6,1343.79L1664.6,1471.62" style="fill:none;stroke:black;stroke-width:16.24px;"/>
    </g>
    <g transform="matrix(0.467422,0,0,0.516704,337.535,122.47)">
        <path d="M1637.49,1288.36L1466.29,1303.88L1418.95,1374.74" style="fill:none;stroke:black;stroke-width:16.24px;"/>
    </g>
    <g transform="matrix(0.467422,0,0,0.516704,337.535,122.47)">
        <path d="M1509.5,1496.62L1664.6,1471.62L1631.74,1529.2L1418.95,1559.95L1509.5,1496.62Z" style="fill:none;stroke:black;stroke-width:16.24px;"/>
    </g>
    <g transform="matrix(0.467422,0,0,0.516704,337.535,122.47)">
        <path d="M1252.03,877.926L1272.04,877.926L1331.09,811.262L1418.95,784.236L1508.28,801L1508.28,780.047L1391.88,741.037L1282.6,765.655L1252.03,877.926Z" style="fill:none;stroke:black;stroke-width:16.24px;"/>
    </g>
    <g transform="matrix(0.467422,0,0,0.516704,337.535,122.47)">
        <path d="M1311.39,1471.62L1417.68,1559.95L1509.5,1497.39L1417.68,1428.45L1417.68,1371.93L1360.75,1343.79" style="fill:none;stroke:black;stroke-width:16.24px;"/>
    </g>
    <g transform="matrix(0.467422,0,0,0.516704,337.535,122.47)">
        <path d="M887.113,1428.45L1308.71,1471.62L1360.75,1343.79" style="fill:none;stroke:black;stroke-width:16.24px;"/>
    </g>
    <g transform="matrix(0.467422,0,0,0.516704,337.535,122.47)">
        <path d="M924.238,1178.53L1115.36,1287.35" style="fill:none;stroke:black;stroke-width:16.24px;"/>
    </g>
    <g transform="matrix(0.467422,0,0,0.516704,337.535,122.47)">
        <path d="M866.359,1083.19L924.238,1183.58L887.613,1428.45L710.269,1245.45L731.988,996.606" style="fill:none;stroke:black;stroke-width:16.24px;"/>
    </g>
    <g transform="matrix(0.467422,0,0,0.516704,337.535,122.47)">
        <path d="M984.371,966.86L862.921,1083.19L731.988,998.699L964.386,804.555L1000.73,821.667L984.371,966.86Z" style="fill:none;stroke:black;stroke-width:16.24px;"/>
    </g>
    <g id="Layer1">
        <g transform="matrix(0.467422,0,0,0.516704,337.535,122.47)">
            <path d="M984.371,962.808L1000.42,821.667L1285.28,928.5L1166.54,1017.57L984.371,962.808Z" style="fill:none;stroke:black;stroke-width:16.24px;"/>
        </g>
        <g transform="matrix(0.467422,0,0,0.516704,337.535,122.47)">
            <path d="M1374.04,1017.57L1285.28,928.5L1167.06,1017.57L1308.12,1160.12L1374.04,1017.57Z" style="fill:none;stroke:black;stroke-width:16.24px;"/>
        </g>
        <g transform="matrix(0.467422,0,0,0.516704,337.535,122.47)">
            <path d="M1499,1044.31L1517.81,1167.68L1308.34,1160.12L1374.04,1017.57L1499,1044.31Z" style="fill:none;stroke:black;stroke-width:16.24px;"/>
        </g>
        <g transform="matrix(0.467422,0,0,0.516704,337.535,122.47)">
            <path d="M1586.74,998.699L1499,1044.31L1517.81,1167.68L1651.11,1111.59L1586.74,998.699Z" style="fill:none;stroke:black;stroke-width:16.24px;"/>
        </g>
        <g transform="matrix(0.467422,0,0,0.516704,337.535,122.47)">
            <path d="M1586.74,886.38L1632.31,928.5L1651.11,1111.02L1588.39,998.699L1586.74,886.38Z" style="fill:none;stroke:black;stroke-width:16.24px;"/>
        </g>
        <g transform="matrix(0.467422,0,0,0.516704,337.535,122.47)">
            <path d="M1679.36,756.291L1546.08,632.817L1517.81,773.645L1586.74,886.38L1633.3,928.5L1618.92,886.38L1633.3,928.5" style="fill:none;stroke:black;stroke-width:16.24px;"/>
        </g>
        <g transform="matrix(0.467422,0,0,0.516704,337.535,122.47)">
            <path d="M1679.36,756.291L1618.92,886.38" style="fill:none;stroke:black;stroke-width:16.24px;"/>
        </g>
        <g transform="matrix(0.467422,0,0,0.516704,337.535,122.47)">
            <path d="M1618.92,1246.42L1648.42,1196.92L1726.42,1155.52L1796.29,1155.52L1822.81,1225.79L1767.76,1343.79L1664.6,1343.79L1618.92,1246.42Z" style="fill:none;stroke:black;stroke-width:16.24px;"/>
        </g>
    </g>
    <g transform="matrix(0.467422,0,0,0.516704,337.535,122.47)">
        <path d="M1123.93,1246.42L1203.1,1155.52L1261.93,1155.52L1360.75,1208.95L1410.45,1266.89L1360.75,1343.79L1221.15,1343.79L1123.93,1308.46L1123.93,1246.42Z" style="fill:none;stroke:black;stroke-width:16.24px;"/>
    </g>
    <g transform="matrix(25.2601,0,0,25.2601,1473.54,661.758)">
        <path d="M0,-15.458L-10.605,-15.458C-11.914,-15.458 -12.975,-14.396 -12.975,-13.088L-12.975,0L-8.235,-4.74L22.246,-4.74C23.555,-4.74 24.616,-5.802 24.616,-7.11L24.616,-13.092" style="fill:none;fill-rule:nonzero;stroke:rgb(59,74,81);stroke-width:0.38px;stroke-linecap:butt;stroke-linejoin:miter;stroke-miterlimit:10;"/>
    </g>
    <g transform="matrix(25.2601,0,0,-25.2601,1473.54,151.545)">
        <path d="M-0.06,-4.74L22.246,-4.74C23.555,-4.74 24.616,-5.802 24.616,-7.11" style="fill:none;fill-rule:nonzero;stroke:rgb(59,74,81);stroke-width:0.38px;stroke-linecap:butt;stroke-linejoin:miter;stroke-miterlimit:10;"/>
    </g>
    <path d="M1919.04,401.723L1918.99,373.102C1918.99,373.102 1926.55,375.948 1935,376.326C1943.45,376.704 1966.52,376.229 1966.52,376.229L1965.89,342.379L1995.99,341.42C1995.99,341.42 1995.24,353.379 1994.97,360.771C1994.69,368.162 1994.91,374.65 1994.91,374.65C1994.91,374.65 2001.59,373.312 2010.08,371.769C2018.57,370.226 2023.66,368.147 2023.66,368.147L2024.59,396.326C2024.59,396.326 2016.29,398.573 2009.39,399.529C2002.5,400.485 1995.29,401.264 1995.29,401.264L1996.2,440.232C1996.2,440.232 2005.81,444.868 2013.55,449.101C2021.29,453.335 2028.8,458.9 2028.8,458.9L2018.49,488.399C2018.49,488.399 2008.8,480.866 2005.64,477.627C2002.49,474.388 1996.65,471.655 1996.65,471.655C1996.65,471.655 1999.58,497.71 1961.75,499.215C1923.91,500.72 1916.13,479.651 1914.88,468.894C1913.63,458.137 1920.68,442.721 1932.86,437.01C1945.04,431.3 1966.94,432.748 1966.94,432.748L1966.12,403.387C1966.12,403.387 1951.7,403.298 1941.6,402.751C1931.49,402.204 1919.04,401.723 1919.04,401.723ZM1968.45,459.693C1968.45,459.693 1964.73,455.799 1955.42,456.369C1946.11,456.94 1935.64,473.477 1955.33,473.894C1975.01,474.311 1968.45,459.693 1968.45,459.693Z"/>
    <path d="M1233.22,347.432C1233.22,347.432 1259.62,352.696 1287.88,352.507C1316.13,352.318 1343.2,348.138 1343.2,348.138L1343.12,375.39L1293.96,408.94L1270.7,393.458L1292.51,381.051C1292.51,381.051 1271.56,380.59 1258.66,380.199C1245.77,379.808 1231.36,377.685 1231.36,377.685L1233.22,347.432Z"/>
    <path d="M1415.39,338.321L1362.38,491.902L1394.58,501.885C1394.58,501.885 1406.6,459.651 1415.06,449.43C1423.53,439.21 1429.42,433.882 1435.79,436.73C1442.17,439.579 1442.26,453.293 1441.51,462.979C1440.76,472.665 1440.98,501.485 1477.02,500.977C1513.06,500.469 1526.09,466.654 1528.86,457.865C1531.62,449.076 1532.2,440.419 1532.2,440.419L1504.65,423.146C1504.65,423.146 1500.07,469.691 1478.98,470.735C1457.79,471.784 1484.42,413.96 1451.18,405.696C1428.36,400.02 1424.43,416.735 1421.76,412.865L1447.88,347.432L1415.39,338.321Z"/>
    <path d="M1600.47,360.058L1599.92,389.543C1599.92,389.543 1625.23,391.479 1640.85,391.177C1656.46,390.876 1686.99,388.743 1686.99,388.743L1685.89,357.649C1685.89,357.649 1656.18,362.972 1642.63,362.78C1629.07,362.588 1600.47,360.058 1600.47,360.058Z"/>
    <path d="M1610.52,414.305L1634.21,425.331C1634.21,425.331 1612.44,451.605 1627.86,459.18C1643.27,466.754 1668.25,462.594 1675.98,460.518C1683.72,458.442 1691.62,455.186 1691.62,455.186L1692.73,486.791C1692.73,486.791 1667.73,491.689 1645.75,491.425C1623.77,491.162 1610.01,487.256 1600.95,476.586C1591.9,465.916 1591.49,449.583 1594.92,441.876C1598.36,434.17 1600.83,429.113 1603.64,424.495C1606.45,419.878 1610.52,414.305 1610.52,414.305Z" style="fill:none;"/>
    <path d="M1246.26,412.865L1269.39,429.638C1269.39,429.638 1248.85,442.913 1253.84,455.768C1258.84,468.622 1305.26,466.518 1305.26,466.518C1305.26,466.518 1326.01,464.224 1335.95,461.832C1345.88,459.44 1351.22,457.488 1351.22,457.488L1353.34,491.613C1353.34,491.613 1296.49,498.674 1265.59,495.355C1234.69,492.037 1220.06,474.529 1220.67,458.068C1221.28,441.607 1226.87,432.712 1231.36,427.732C1235.85,422.752 1246.26,412.865 1246.26,412.865Z"/>
    <path d="M1551.82,342.941C1551.82,342.941 1542.42,398.04 1542.97,426.876C1543.52,455.712 1548.16,498.135 1548.16,498.135L1578.89,497.03C1578.89,497.03 1577.67,470.935 1579.41,462.54C1581.15,454.144 1585.02,437.983 1585.02,437.983L1571.01,432.488C1571.01,432.488 1573.37,396.197 1576.08,382.033C1578.78,367.869 1584.99,345.608 1584.99,345.608L1551.82,342.941Z"/>
    <g transform="matrix(1,0,0,1,326.393,-0.614729)">
        <path d="M1551.82,342.941C1551.82,342.941 1542.42,398.04 1542.97,426.876C1543.52,455.712 1548.16,498.135 1548.16,498.135L1578.89,497.03C1578.89,497.03 1577.67,470.935 1579.41,462.54C1581.15,454.144 1585.02,437.983 1585.02,437.983L1571.01,432.488C1571.01,432.488 1573.37,396.197 1576.08,382.033C1578.78,367.869 1584.99,345.608 1584.99,345.608L1551.82,342.941Z"/>
    </g>
    <path d="M1743.6,365.479C1743.6,365.479 1746.62,357.62 1747.05,350.32C1747.48,343.02 1747.47,337.932 1747.47,337.932L1780.94,340.863L1775.03,365.379C1775.03,365.379 1790.24,365.298 1805.87,363.633C1821.5,361.968 1841.36,357.514 1841.36,357.514L1843.28,388.064C1843.28,388.064 1812.18,391.151 1799.3,391.764C1786.43,392.378 1768.75,392.961 1768.75,392.961L1758.1,420.151C1758.1,420.151 1776.38,410.819 1799.25,412.547C1822.11,414.274 1849.31,418.555 1851.11,452.85C1852.91,487.146 1806.85,505.872 1759.47,498.657C1712.09,491.443 1732.92,494.123 1732.92,494.123L1730.25,464.632C1730.25,464.632 1758.66,471.495 1789.24,471.52C1817.91,471.543 1838.56,437.498 1788.16,438.752C1757.58,439.513 1743.62,456.913 1743.62,456.913L1713.82,446.824C1713.82,446.824 1724.07,427.266 1729.56,413.543C1735.05,399.821 1736.9,392.658 1736.9,392.658C1736.9,392.658 1725.33,392.13 1718.34,391.783C1711.35,391.436 1704.2,390.824 1704.2,390.824L1704.75,362.093C1704.75,362.093 1711.4,364.849 1719.37,365.135C1727.33,365.421 1743.6,365.479 1743.6,365.479Z"/>
</svg>
