<?xml version="1.0" encoding="UTF-8"?>
<svg xmlns="http://www.w3.org/2000/svg" width="27.4" height="26.6" version="1.1" viewBox="0 0 27.4 26.6">
  <defs>
    <style>
      .cls-1 {
        fill: #231f20;
      }

      .cls-2 {
        fill: #fff;
        stroke: #231f20;
        stroke-miterlimit: 10;
      }
    </style>
  </defs>
  <!-- Generator: Adobe Illustrator 28.6.0, SVG Export Plug-In . SVG Version: 1.2.0 Build 709)  -->
  <g>
    <g id="Layer_1">
      <path class="cls-2" d="M21.2,15.4"/>
      <path class="cls-2" d="M13.2,23.8"/>
      <polygon class="cls-1" points="11.8 16.7 13.7 22.9 18.5 18.4 15.9 18 18.9 8.9 13.6 11.8 16.3 4.1 13.5 3.2 8.7 16.8 15.1 14 13.8 17.6 11.8 16.7"/>
      <path class="cls-1" d="M22.8,25.7H4.8c-2.3,0-4.2-1.9-4.2-4.2V4.5C.6,2.2,2.5.3,4.8.3h18.1c2.3,0,4.2,1.9,4.2,4.2v17c0,2.3-1.9,4.2-4.2,4.2ZM4.8,1.3c-1.8,0-3.2,1.4-3.2,3.2v17c0,1.8,1.4,3.2,3.2,3.2h18.1c1.8,0,3.2-1.4,3.2-3.2V4.5c0-1.8-1.4-3.2-3.2-3.2H4.8Z"/>
    </g>
  </g>
</svg>