<?xml version="1.0" encoding="UTF-8"?>
<svg id="Layer_1" xmlns="http://www.w3.org/2000/svg" version="1.1" viewBox="0 0 27.4 18.3">
  <!-- Generator: Adobe Illustrator 29.4.0, SVG Export Plug-In . SVG Version: 2.1.0 Build 152)  -->
  <path d="M17.2,8.6h-4.3c-.3,0-.5-.2-.5-.5v-3.4h-2.8v3.4c0,.3-.2.5-.5.5h-2.4c-.3,0-.5-.2-.5-.5s.2-.5.5-.5h1.9v-3.4c0-.3.2-.5.5-.5h3.8c.3,0,.5.2.5.5v3.4h3.3v-3.4c0-.3.2-.5.5-.5h3.9c.3,0,.5.2.5.5s-.2.5-.5.5h-3.4v3.4c0,.3-.2.5-.5.5Z"/>
  <path d="M19.2,14.5h-4.3c-.3,0-.5-.2-.5-.5v-3.4h-2.8v3.4c0,.3-.2.5-.5.5h-4.4c-.3,0-.5-.2-.5-.5s.2-.5.5-.5h3.9v-3.4c0-.3.2-.5.5-.5h3.8c.3,0,.5.2.5.5v3.4h3.3v-3.4c0-.3.2-.5.5-.5h1.9c.3,0,.5.2.5.5s-.2.5-.5.5h-1.4v3.4c0,.3-.2.5-.5.5Z"/>
</svg>