<?xml version="1.0" encoding="UTF-8"?>
<svg id="Layer_1" xmlns="http://www.w3.org/2000/svg" version="1.1" viewBox="0 0 1384.1 1275.7">
  <!-- Generator: Adobe Illustrator 29.4.0, SVG Export Plug-In . SVG Version: 2.1.0 Build 152)  -->
  <path d="M665.4,640.5c-2.3-.4-11.9-5.3-13.8-7s-6.7-12-6.8-15.5c-.4-15.1,13.9-36.5,31.1-33.5-1-5-1.1-7.8.8-12.7,5.2-13.5,22.1-22,35.9-16.5,3.5,1.4,5.9,3.6,8.8,5.2,3.6-4.7,7.7-10.1,13.5-12,.7-.6-5.7-10.9-6.5-12.9s-1.3-5.9-2.2-8.8c-2.7-8.3-6-12.6-3.8-22.3s15.1-19.4,25.3-20.7,13.4,2.9,19.3,7.2,2.3.7,3.5,1.5c8.1,5.8,7.6,21.9,4.2,30.3s-2.2,3.2-2.8,5.2c6.2,3,1.5,10.5-1.6,14.4s-7.7,7-6.4,8.1c5.8,2.4,10.4,9,12.5,15s-.2,5.2,2.5,6c3.3-6.3,8.1-11.6,11.8-17.7,16.6-26.8,26.5-58.9,34.2-89.3-16.4,11.4-40.5,5.7-45-15-10.5,9.1-27.1,14.1-39.7,6.2s-14.4-23.4-2.3-32.7c-21.6-19.7-6.5-56.5,24-45.5.2-2.9-1.7-4.5-2-7.5-3.4-31.2,39.3-37.1,55-16,2.1,2.8,2.4,5.9,4.5,8.5l11.1-5.9c1.4-17-.4-34.5.4-51.6,0-1.5.9-2.8,1-4,.3-4.4-.3-8.4,1-12.8-.5-1.1-1.5-1.9-2.4-2.7-4.7-4.1-11.5-8-16.2-12.3s-4.6-4.5-6.3-6.2c-3.8-3.8-7.1-8.3-10.5-12.5-6.7,4.2-12.8,9-21,9.9-13.6,1.5-26.9-8.5-21.4-22.9-6,1.9-14-.9-19.3-4.2-11.4-6.9-15.4-23.7-8.5-35.2s9-9.9,14.9-9.6c1-.9-4.4-6.9-5.2-8.3-5.9-10.5-2.8-25.4,6.3-33.1,10.9-9.2,29.8-11.4,42.3-4.4s2.5,3.3,4.6,2.9c1.2-6.3,9-12.8,15-14.5,21.3-6.2,44.3,10.9,34.6,33.6-.6,1.5-5.3,7.3-4.5,8,3.8-.2,6.8-.2,10,2-.1-2.6.9-4.8,1.1-7.5,1.2-18.2-.8-37.6-.2-55.9-4.9-4-10.5-6.7-15.4-10.6-10.5-8.3-24.2-24-28-37-1.9-6.7-3.2-11.4,6-11.1s23.4,12.5,30,20c2.5,2.8,4.3,7,7.5,9,.2-2.1-.2-4.4,0-6.5,1.7-16.9,1.7-34.7,5.8-51.2.7-2.8-.6-5.9,3.2-7.3.4,2.3-.9,4.3-1,6.5-1.1,16.9-1.9,32.1-.9,49,1,17.4,1.1,35.8,3,53,.2,1.8-.2,3.7,0,5.5,2-.4,1.6-2.1,2-3.5,2.8-9.8,6.7-22.5,14.5-29.5,2.3-2.1,8-4.8,10.3-1.8s2.1,5.7,2.2,6.3c1.5,9.6-4.6,23.3-9.5,31.4-4.9,8-10.1,14.2-18.5,18.7-.2,6.3.4,12.6,0,18.9-.7,12.3-4.3,24.5-5.1,35.9s.9,11.1-1,16.5c7.7-5.7,14.4-7.7,24-5-2.1-11.4-.5-26.6,11.3-32.2s25.1-2.1,34,3.4,16,16.3,14.7,27.8c13.7-3.4,30.1,3.1,37.4,15.1s4.6,28.9-7.5,37.4c-2.2,1.5-5.1,2-6.9,4,7.9,9,9.7,23.3,2.4,33.5-8,11.3-26,9.5-37.2,4.2-3.7-1.7-8.1-5.7-11-7s-6.5-.9-9.3-1.7c-8.1-2.2-10.1-3.5-19.2-4.8s-7.3-3.3-9.4-3.7-2.6,2.9-3.5,4.3c-4.3,6.1-8.8,12-12.7,18.3s-9.7,15.5-10.2,18.8-.5,13.9.2,16.8,4.3,5.1,6,8c6.3,10.6,1.6,26.6-1.2,37.7,5.2.6,9.6,3.5,14,6,.8-.9-3.6-10.1-3.9-12.6-2.1-15.7,2.1-30.3,16-38.9,17.4-10.7,35.8,4.6,38,22.4,3.1.6,5.7-1.6,8.5-1.9,28.7-3.9,39.1,42,15.4,54.5,2.9,4.6,4.1,9.7,6.6,14.5l12.3-4.1c-.8-9.2,2-20.1,9.1-26.4,7.6-6.7,9.4-2.5,9,6s-1.3,4-.6,5.4l19-15c2.4-10.8,4-21.7,8-32s11.6-25,19.2-25.8,6.1,4.1,6.1,7.1c-.2,8.7-3.9,18.7-7.2,26.7s-6.1,11.3-5.5,12l53.3-32.2,3.7-.3c-2.3,1.8-4.7,4.2-7.1,5.9-21.4,16-43.7,31.2-65.8,46.2-.9.6-1.9,1.4-3.1,1.4.4,2.4,4.8,0,6.5,0,9.7-.5,27.9,2.3,30.4,13.7,1.4,6.7-6.2,10.4-6.8,12.9s2.9,4.3,2.9,6.9c0,6.8-6.8,12.6-12.2,15.7s-3.5.7-4.3,1.7c-1.4,2,1,6.9-2.4,8.6-7.7,3.9-26-6.3-33-10.5,4.1,11.6,1.6,22.7-8,30.5,4.7,2.9,9.3,3.5,13,8,7.5,9,3.7,19.6-4.5,26.5s-6.3,3.5-7,5-.3,4.6-.9,7.1c-1.3,5.3-6.8,10.6-12.2,11.8-1.8.4-8,0-8.2.3-.9,1.1-.2,3.4-3.6,5.9-11.9,8.9-31.4-2.8-39.5-12.5-2-2.4-3.5-5.9-5-7.8-4.3-5.5-16-6.4-22.6-12.6-1.1-1.1-1.6-3-2.4-3.6-3.1-2.2-12.6,2.9-16,4.1-13.8,4.6-27.7,9.1-42,12-7.7,15.2-15.3,29.8-25.5,43.5s-7.2,6.6-6.3,9.4,1.3,1.5,1.6,2.4c6.8,17.7-8.6,40.8-26.5,45.1-2.3.5-12.4.9-13.1,1.4s-3.9,5.2-5.7,6.8c-11.3,10.1-20.4,13-34.9,15.1s-20.2,11.4-23.1,18.9c-5.3,14.3-5.5,29.2-13.1,43.9-1.7,3.3-7.3,9.8-8,12.1s.7,3.5.7,5.5c-.1,3.1-1.5,10.5-2.6,13.5s-4.5,8.5-7.5,11.5c16.8,15.6,7.2,42.6-12,51-2.8,1.2-9.7,3.3-12.6,3.5-3.3.2-11.9-3.4-13.8-2.9l-7.9,11.7c-20.3,19.3-61,1.2-54.7-27.7l-10-2.6c-4.5,7.2-22.4,12.3-23,21.1s4.9,12.2,6.2,14.8c6.6,13.5,16.6,30.5,25.4,42.6,1.1,1.6,4.1,6.2,5.8,6,23.3-14.4,50.1-22.3,77.6-23,1.8-10.3,8.7-19.8,20.1-18.9-4.7-14.1,9.9-32.4,24.5-32.1,7.8.2,12,4.8,17,10.1l6.8-8.7c9-6,20.4-13.4,31.4-8.5,9.7,4.3,10.8,17.9,11.4,27.1,8.3,1.3,15.4,10.6,15.9,18.7s-1.8,3.4-1.9,3.9,3.1,3.8,3.9,5,1.4,5.2,3.5,4.5c5.1-4.2,10.2-8.6,15.6-12.4,15.7-11.3,32-21,49.2-29.8s5.2-2.4,7.6-2.9c0-5.2-1.3-9.8,0-14.9h-16.5c-.6,0-6.5-2.9-7.5-3.5-10.2-7.2-13.6-21.5-7.5-32.4,3.9-7,10.9-8.9,17.4-12.6-5.2-10.1-4.4-21.3,2.6-30.4s12.1-12,19-13c9.7-1.4,15.6,1.1,21,9,.9.2,7.8-6,9.7-7.2,11.5-6.8,29.5-8.6,36.2,5.2s1.4,16.2-.5,26c22.7,2.6,22,32.4,9,46l57-8c-1.2-6.7-4.2-13.7-4.9-20.6-.3-2.9.4-15.5-.2-16.3s-3.1-.9-4.4-2.1c-2.1-1.9-6.3-8-7.2-10.8s-.8-8.4-1.7-10.3-5.3-4.3-7-6c-9.7-10-19.6-27.1-17.5-41.4s2.6-5.7,5.3-5.4,3.9,3.7,6.7,2.8c-1.1-12.3,8.6-24.5,19.7-28.8,10.1-3.9,20.6-1.3,27.3,7.3s3.2,4,3,6.5c2,.5,2.6-1.5,4-2.5,12.1-7.7,27.7-10,39.5-.5s11.2,14.4,8.3,24.3c-.5,1.7-4.5,8-3.8,8.7,8.3-3.7,9,3.4,6.2,9.7-3.9,8.7-19.1,18.9-27.5,23.5-3.4,1.8-18.1,7.8-19.2,9.8s-1,4.7-2.7,7.3c-4.5,7.1-12.2,9.4-19.4,12.6,1.1,4.7.2,9.5.8,14.3s4.5,15.4,5.7,16.3l35.1-2.6c-7.8-26.2,17.8-45.2,41.5-35,2.4-1.5,1.1-4.1,1.6-6.4,1.8-9.6,8-20.6,17-25,19.5-9.6,34.3,12,36,29.3,2.4.3,4.9-.1,7.3.2s8.3,3.5,10.5,2.4l64.1-43.9c4.7-21.4,15.8-41.4,30.4-57.6,3-3.4,12.3-12.7,16.2-13.8,8.6-2.5,4.6,7.8,3.1,12.1-5,13.9-14.4,28.1-22.8,40.2s-2.1,1.6-.5,2.5c5.1-4.2,11.7-6.4,17.4-9.6,15.7-8.8,31.4-18.5,46.4-27.6,9.7-5.8,20.5-13.7,30.3-18.7,1.5-.7,2.6-1.5,4.3-1.2l-51,36.5c.3,1.1,2.3.4,3.2.2,12.2-1.9,22.9-3,35,.5,7.3,2.1,17.9,7.5,5.7,12.3-7.8,3-15.4,2.8-23.4,3.6-14.4,1.3-29.5,3.8-43.9,0-34.4,20-68.6,40.5-99.7,65.4l26.4,4.3c2.1-.4,5.4-6.2,6.9-7.6,5.3-5,13.4-9.5,20.6-10.4,4.1-18.3,28.1-19.6,43.5-17.8s13,3.8,14.1,4.9c5,5.2-2.2,16.5-7.5,19.5-1.1.6-2.6,0-3,1,2.2,3.7,5.7,5.4,8.5,8.5s6.9,9.2,7.4,12.6c1.4,9.2-5.8,20.9-13.6,25.3-2.4,1.4-5.5,1.3-7.4,3.6,5.2,6.8,8,12.5-.7,17.3-6.6,3.7-15.1,2.3-22.3,1.2,10.9,12.4,2.3,19.9-12,14.5-14.5-5.5-25.7-19.4-27-35-.2-2.6.9-7.3.5-8.6-.5-2.2-3.9-4.4-5.4-6.6-2.3-3.4-3-7.4-4.3-11.2-8.5-3.2-17.9-3.5-26.8-5.2l6.2,9.3c5.8,16.6-4.8,34.6-22.2,36.7,4.9,7,6.1,15.1,4.9,23.4-2.8,20.9-25.1,32.6-43.3,20.4-5-3.3-7.6-8.5-11.2-12.8-3.3,3.9-7.7,6.7-12.5,8.5-12.2,4.6-25.2,1.8-32-10-4.2-7.3-4-18.1-.7-25.8.7-1.7,5-7.2,4.8-8.2-1.8-2-4.7-1.7-7.3-2.7s-2.4-1.9-3.7-2.3c-4.5-1.6-15.5,1.7-20.6,2.5-38,5.7-78.8,12.8-115.7,23.3-8.6,2.5-9.9,3.4-16.8,8.2-10.2,7.1-24.2,7.8-35.9,12.1-27.4,10-53.2,30.5-73,51.5,4-.4,7.4,2.7,11.5,2,2.1-.3,5.5-4.2,7.6-5.4,5.3-3.1,10.8-4.1,16.9-3.6-2.2-18.9,8.6-31.4,26.7-34.8,6.8-1.3,13.2-1.2,19.6,1.9,10.5,5.1,12.6,17.6,9.2,27.8s-2.6,3.7-2.5,6c7.1-1.2,15.2-2.3,22,1-.4-11.4,3.6-26.5,14.1-32.4,11.4-6.4,26.2-2.1,33.4,8.5s5,10.4,5.5,16c8.4-2.8,19.2-3.1,27.5,0,14.6,5.4,26.7,19.5,19.3,35.4s-9.9,13.8-16.9,14.6c-.4,1.5.3,1.6,1,2.5,2.8,3.6,6.3,7.2,7,12,3.1,20.8-16.1,36.6-36,31-2.3-.6-7.6-3.4-8.4-5.5-2.7,2.7-4.4,6.2-7.5,8.5-17.9,12.5-44.9-10.9-43-30.5l-11.9-.9c-3,7.7-7.7,10.7-15.1,13.5-1.8.7-3.8.4-5.8,1.2-2.9,1.3-5.2,5.6-7.7,7.3-6.3,4.3-13.4.5-20.1.9s-7.3,1.4-13.2-.7c-13.3-4.8-15.8-19.1-12-31.5.5-1.5,2.4-2.6,1.7-4.8-8.9,2.4-18.1-9.7-18.8-17.8-.1-1.6,1.2-3.2.4-4.3s-15.8-5.4-18.6-6.5c-3-1.1-11.7-6.1-13.6-6.3s-10.9,4.4-15,4.8c-2.4.2-4.1-1.1-6.4-1,1.1,9.9-6.1,20.6-15,24.5-16.9,7.4-42.9-1.7-45.9-21.1s.6-5.9-1-7-7.9-1.2-10.8-2.2c-5-1.9-9.1-5.5-13-9.1-26.4,4.7-55.5,17.2-75.8,34.9-12.6,11-17.5,19.3-18.5,36.5s2.8,16.8-.4,26.6c-5.9,17.9-28.9,22.3-41.5,34l25.7,7.8c9.7,2,19.3,4.4,29.3,4.2-.7-8.8,3.6-16.8,10-22.5,1.5-1.3,6.5-4.2,7.1-5.1,1.1-1.9,1.6-7.5,2.4-10.4,4.1-13.6,20.6-34.5,32-43,6.8-5.1,8.8,0,9.4,6.6s-1.3,16.4-3.9,24.4c2.3,0,4.2-1.6,6.6-1.9,17.8-2.3,37,6.4,27.9,26.9-2.6,5.9-6.5,10-12.5,12.5.8,1.8,9.4,2.2,12,3,5.1,1.6,15.3,7.9,16.8,13.2,2.5,9.2-5.3,21.7-12.3,27.3-11.5,9.2-23.7,8.6-37.5,6,4.2,6.9,5.4,15.4,2.5,23-4.7,12.3-14.9,2.8-20.5-3.5-5.8-6.6-13-16.1-17.2-23.8s-1.7-6.3-4.5-7.5c-6.5-2.7-10.4-1.3-15.7-8.3s-2.8-5.7-3.2-6c-2.3-1.6-6.3-.6-8.9-.9-19.9-2.4-39.2-9-58.8-12.9-10.6,6.7-19.6,15.8-29.2,23.9s-22.6,18.7-33.4,28.6-6.6,7.4-10.1,9.9c-5.1,3.6-13.4,2.8-19.5,2.6-29-1-54.5,6.5-83,8.9-13.2,1.1-34.7-1.2-45.8,6.2-6.7,4.5-8.2,12.7-6.4,20.1s6.4,12.3,3.3,23.7c-5.7,21.1-42.6,45.5-59.5,60.6s-19.9,17-26.2,27.7-7.7,16.5-11,24.5c-1.7,1.7-21.4,1.3-25.4,1.2-14.4-.4-28.9-2.1-43.5-.5-4.3.5-3.2-2-1.5-4.6,12.9-19.5,25.7-37,36.7-58.3,5-9.6,10.6-27.6,18.9-34.1,6.3-5,18.6-6.5,26.5-9.5,11.1-4.3,21.3-11.1,25.2-22.8,2.9-8.6,3.8-19.5,6.5-28.5s7-20.4,12.6-29.4c-4.8-12.1-12.2-22.9-18.3-34.4s-4.8-12.6-7.1-12.7c-5.8,3.9-14.1,4.8-21,3.8s-3-1.6-4-1.6c-2.2,0-13.2,3.8-17.1,4.6-7.4,1.4-17.4,2.7-24.9,3.1-6.3.4-15.4.8-13.4-8.3s5.7-12.4,9.8-16.2,3.7-.9,3-3.4c-2.6-.2-6.4-2.3-8.5-4-28-21.7-5.2-66.3,28.5-58-.7-3.1-.5-8.1.2-11.3s4.5-9.2,6.5-10.7c18.3-13.7,32.6,2,36.3,20l12.4-1c3.1.5,3.3,15.3,3.7,18.5,2.5,18.4,5.3,30-.5,48.6-.9,2.9-2.5,5.4-3.4,8.3l22.9,39.7c1.6.3,2.2-.3,2.8-1.7,1.9-4,2.9-11.8,4.4-16.6,4-13,9.4-25.4,13.8-38.3,0-1.9-3.5-4.1-4.9-6.1-2.1-3.1-5.4-11.3-5.2-14.8s1.9-3.4,1.8-4.1c0-1.1-11.5-13-13.3-15.5-8.4-12.1-15.4-31.7-6-44.9s18.8-7.2,25.5,1.4c1.4,1.8,1.3,4.9,4,5.5,6-32.4,51.5-29.5,58,1.5s-.9,4.9,1.5,6.4c6.7-3.5,15.7-3.6,22.8-.7s6.5,4,8.6,7.4.8,3.3,1.6,4.4c2.4,3.4,6.6,1.4,3.5,9.6-6.5,17.1-34.1,35.3-50.8,41.2-3.5,1.2-8,1.6-11,3s-3.7,3.8-5.9,5.1c-6,3.5-13.7,3.9-20.4,4.6-1.2.8-4,8.3-4.7,10.3-5.2,13.7-8.9,27.8-11.2,42.3,5.8-3.3,12.2-5.5,18.7-6.7,20.6-3.8,41.3-1.6,61.8.7,1.5.2,3,0,4.4,0,.6-.6-2.7-12.7-2.7-15.3-.2-12.1,4.4-27.3,12.2-36.7,11.3-13.7,20.8-4.6,23.3,9.8s1.1,15.4,0,21.5-5.1,12.9-6.8,18.7c4.7-.3,9.8.4,14.5,0,3.1-.2,7-1.7,10-2,5.9-.6,13.8.3,19.5-1.5s19.3-12.8,23.9-16.1c22-15.8,43.3-32.8,65.1-48.9,6-4.5,16.1-9.5,20.4-15.6,4.1-5.8,2-11,2.5-17.5,1.3-15.7,5.1-29.5,15-42,1.7-2.2,5.4-3.9,5.1-7-8.7-15.3-17-30.8-24.2-46.8s-4.5-13.4-8.4-18.6c-3.9,1.6-9.5,0-13.4-1.6-2.1-.8-3.3-3.2-6-2.5-4.1,19-32.8,26.7-45,10.5-5.3-7-4.4-14.3-4-22.5-35.8,0-43.6-54.9-6-60-.6-4.6-2.6-7.5-1.9-12.5,1.9-14.6,16.1-26.8,30.9-26.5-.5-10.7,0-21,3.2-31.2s3.7-6.5,3.7-9.3-5.8-14.5-8.1-17.8-10-12.8-10.8-13.2c-2.8-1.4-5.6,2.1-8.5,2.5-6.5,1-16.9.4-22.4-3.5-1.7-1.2-3-3.4-4.5-4.5-5.4-3.9-12-5.2-16.5-11.5s-4.1-9.2-4-11.9,6.8-18.7,9.4-20.6,2.8-1,4.1-1.9c4.3-3.2,5.8-8.3,11.4-10.6,1.3-.5,13.5-3.4,14.5-3.4,9.9,0,19.9,13.5,21.5,22.5s-.2,3.8.2,5.8,3,4.3,3.6,7.4c1.2,6.4-1.2,14.7-3.7,20.7,8.3,7.9,14.5,17.5,21.4,26.6,1.7,0,11-19.9,12-23,1.8-5.7,4.1-15.6,4.5-21.5.9-13.2-1.8-25.5-4.2-38.4-10.1-3.9-17.5-13.3-15.8-24.6s7.3-13.8,13-15.5c.1-2.6-2.9-3.9-4.4-6.1-5.7-7.7-8.9-21.2-11.3-30.7s-.2-5-1.2-7.3c-2.3.1-4.3,1.7-6.6,1.9-13.5,1.7-36,.9-48.2-5.7-7.9-4.3-3.1-9.8,3.7-11.8,12.8-3.8,30.8-1.1,43.5,2.6s3.7,2.7,6.5,2c-1.5-7.9-4.2-15.8-4-24-7.4,2.6-18.1.9-23.9-4.6s-4.5-3.9-10.7-7.3c-9.7-5.3-18.6-17.8-14.9-29.2,1.1-3.3,5.9-5.6,7.1-7.9s.2-5.3.9-8.1c3.1-11.1,16.5-20.2,27.8-16.7s4.7,3.2,7.7,2.8c.8-4.1-1.4-7.8-1.9-11.6s.1-3.9-.1-5.9c-1.8-14-3.8-27.7-3.1-41.9-.7-2.3-7.2-5.8-9.3-7.7-5.3-4.6-11.9-12.8-14.9-19.1s-3.1-6.7-1.5-9.8c11.2-1.8,17.6,4.9,24.9,11.9.2-6.5-.3-13,0-19.5.7-17.6,1.2-36.5,4.1-53.9.5-2.8,2.4-5.4,2-8.5,1.7-.2,1,2.3,1,3.5,0,3.3.2,6.8,0,10.1-1.3,27.5-2.3,55.6,1,82.9.2,1.8-.2,3.7,0,5.5l5.5-7c3.3-3.3,6.1-7,11.4-5.9,2.6,6.2-.4,14.3-3.2,20.2s-9.5,13.3-9.8,16.2c-.6,7.4,1.1,11.6,2,18.1s.6,7.8,1.3,11.7c1.9,9.8,5.4,19.4,8.8,28.8,2.5.2,1.6.1,2.1-1.5,1-3.9-.9-4-1.8-7.3-4.7-16.5-3-27.9,2.5-44s14.1-19.9,24.8-19.3,3.2,1.8,5,2.1c2.7.4,4.7-1.1,6.9-1,3.9.2,9.9,3.7,12,7s1.3,3.8,2.5,5.5,4.2,3.8,5.9,6.1c10.2,14.4,5.2,33.2-8.9,42.8s-23.7,13.1-33.4,13.6c-3.5.2-6.2-1-9.5-1-2.2,3.5-.8,6.4-1.1,9.3-1.1,10.8-2.4,21.6-8,31.2l4,18.5c2.4.6,1.6-.6,2.2-1.3,5.1-6.5,10.3-13.9,16.9-19.1s8.4-6.6,12-5.1c2.8,1.9-1.4,12.8-2.6,15.5-4.5,10.7-14.1,20.9-24.4,26.1l2.9,9.9c3.4.1,6.1-2.5,9.5-2.9s10.3,0,14.2,1.7,7.5,6.1,8.3,5.2c2.2-19.8,28.9-26.1,43-14.5s9.4,18.5,7,28.5c38.5-7.8,46.8,46.3,11,55-.4,2.3.8,4.3,1,6.4.8,11-5.9,18.9-16.2,21.8-9.9,2.9-18.4.4-27.8-2.9-3.1,3.2-5.2,7.7-8,11.1-6.1,7.4-14.2,13.3-20.2,20.8-2.8,23.5-9.1,44.4-23.8,63.2-.9,9.5.6,17.9,1.9,27.1s-.2,4,0,5.9c.5,3.5,4.8,6.6,5,10.5,7.1-6.2,16-7.5,25-5-.3-17.7,4.5-37.2,14.6-51.9,3.2-4.7,14.7-17.3,17.2-5.4,2.7,12.7-.6,28.1-5.6,40-3.5,8.4-9,15.5-14.1,23-.5,1.8,4.1,9.7,4.7,13,1.2,7.2-1.2,15.7-4.6,22s-6,7.7-5.2,8.3c4.4,1.5,7.9,5.1,10.5,8.9l5.5-1.9c-10.4-17.2-5.5-44.7,18-45-.9-6-1.6-12.1-.8-18.3,4.7-35.4,60.5-45.7,68.8-7.7,2.5-.3,4.5-1.8,7-2.5,7-2,14-1.5,20.7,1.3s2.8,2.9,5.3,2.2c3.5-8.9,5.9-18.3,9.2-27.3s7.4-18.5,14.8-27.2,5.5-5.2,8-8c-6.1-5.7-7.5-13.3-3-20.5-4.7-.6-11,.8-15.5,0ZM829.7,142.9c-15.6-10.2-39.3-2.5-37.8,18.1l4,1.7-1,13.9c2-.4,1.8-2,2-3.5.4-2.8.5-9.6,1.5-11.5,1.5-3.1,6.4-5.2,8.5-1.4-2.8,4-1.1,5.4-.9,8.9.2,5.4-.5,10.2-1,15.5,5.4-3.1,5.3-14,13-13,.8,4.1-1.5,5.1-4.4,7l-4.5,6.9c2.4-.8,4.6-5.1,6.5-6s2,.3,1.5,1.5-3.3,2.2-1.5,3.5c7.4-5.3,15.1-7.9,19.3-16.7s2.9-12.4.4-18.1-3.9-4.5-5.5-7ZM792.9,180.5c-.2-2.6.5-5.8-.2-8.3s-4.2-4.8-4.6-6.4c-.9-3,.5-7-.6-10.4s-5.8-5.7-9.3-6.7c-20.6-6-46.8,7.3-38.5,31.5s4.5,6.6,6.7,8.3c6.3,4.7,11.7,3.8,18.8,5.2s8.4,3.1,12.7,2.8l-5.3-3.2c-2.7-.2-6.3-3.3-8.4-3.7s-3.2,1.5-5.3.4c-3.9-2-.8-8,1.5-7.5,6.2,6.8,15.7,9.3,23.5,14,1.5-1.6-7-7.6-8.1-8.4-2.8-2.1-11.7-8.8-14.2-9.8s-4.2-.4-6.1-.9c-2.9-.8-2.6-8.5,2.8-6.8s1.9,2.8,3.1,3.9c2.4,2.2,12,9.1,14.8,10.2s5.9.8,8.7,1.8l-11.1-21.5c1.1-6.8,7.9-6.4,8.1.5-1.4-.2-4.4.4-4,2.4,5.6,7,8.6,16.5,15,22.6l-9-23c2.2,0,2.3-.8,3.2,1.3s2.4,5.6,3.6,8.4.8,3.5,2.2,3.3ZM802.9,168.5c-1.8-.3-2.8.7-3,2.5-.8,5.5-1.2,11-1,16.5,1.3.3,1.6-1.8,1.8-2.7,1.1-5.2,1.7-11,2.2-16.3ZM804.9,209.5c3.9.7,7.7,2.3,11.6,2.9s8.6,1.5,11.5.6c5.6-1.6,21.5-12.5,22.8-18.2,2.8-12.3-12.7-16-22.1-13.1s-9,4.5-11.7,6.3-10.1,7.8-10,9.9,1.3,2.6.9,4.8-3.6,3.8-2.9,6.7ZM922.6,200.9c-9-7.2-24.1-11.3-34.9-6.1-9.7,4.6-10.9,21.5-7,30.5s5.2,8.2,5.7,8.3c.8.1,2.4.3,2.5-.6l2.9-7c6-2,4.4,2,5.5,5.6l9,22,2.5-23.5c-.4-2.6.4-5.6,0-8s-3-3.6-1.9-6.4l5.9-1c2.2,4.3-.4,8.2-.9,12.5s-.9,7-1.1,9.9.2,7.7,0,11.5l9.5-22c2.5-2.6,4.5,0,7,1,1.6-.3,3.3-6.9,3.5-8.6.5-5.3-4.1-14.7-8.3-18ZM780.9,203.5h-15.5c-1.5,0-9.3-1.9-10.8-3s-1-3.5-5.6-4.6-12.1,1-16.1,6c-13.8,17.7,2.9,37.8,23.6,35.6s15-8.8,15.2-11.7-.8-2-.7-2.9,6.9-9.9,7.9-11c1.5-1.6,4.2-2.1,5-4.5-4.5.7-9.3,2.8-13.7,3.8s-3.9,0-5.7.3c-5.2,1-14.1,6.1-12.1-3.1,1.5-2.2,7.2.2,10.1.1s11.6-1.5,15.3-2.8,2.9-.6,3.2-2.3ZM780.9,199.5l-22-3v3c6.7-1.2,14.1,2.1,20.5,2s1.6,0,1.5-2ZM833.9,275.5l8-66c-4.4,4.4-11.1,6.1-16,9.5-9.9,7-14.6,20-22,29.1,4.5,7,11,13,17.5,18.4s4.4,3.6,6.2,5,6.1,4.3,6.3,4ZM819.9,217.6c-6.5-2.5-13.8-1.8-19.6-5.9-2.1-.5-.9,1.2-2,1.9-6.2,4.3-13.6,8.1-19.9,13s-15,12-18,16c-8.9,11.7,6.5,18.2,17,17,17.3-2,24.8-17.5,33.2-29.8,2.9-4.2,6.1-8.2,9.4-12.1ZM964.7,233.8c-.6-.6-4.5-3.6-5.4-4.1-7.2-4.4-22.2-8.4-27.8,0-.5.8-.6,2.1-1.1,2.9-2.4,3.3-5,6.1-7.3,9.7-1.1,1.9-2.8,4.2-3.2,6.3,3.6-1.2,7.2-12.1,9.6-12.9,3.8-1.3,5,4.5.7,5.2l-5.8,8.7,10-8c2.5-2.6,2.2-7.1,6.9-6,1.9,1,1.9,3,1.4,4.8l-14.8,9.7-4,3.4,17.3-3.8c.9.3,2,.7,2.7,1.3s-.9,3.6,1.4,2.5,2.3-6.1,8.4-3.9l1,3.3c-1.6,3.6-4.6,2.1-7.3,2.7-4.2.9-9.7,3.3-13.1,3.9s-8.3.9-12,1-2.8.9-1.5,2c9.7.7,19.4,1.9,28.9,4.1.7,2.7-.6,4-1.9,5.9,16.7,4.3,28.5-15.2,22.5-30-.7-1.7-4.5-7.4-5.8-8.7ZM878.7,229.8c-7.1-7.6-23.6-4.3-25.5,6.4-2.6,14.6,9.4,24.9,19.3,33.3,1.5-1-.6-3.1-.3-4.3,1-4.4,6.5-5.8,6.9-.2s-1.5,7.8,3.7,10.3,17.8,1.9,24.8,3.2,2.2.9,3,2c4.2-3.2-3.3-8.2-6-11s-1.9-3.3-3.5-4.5c-3.7-2.7-12.4-4.7-17-4.5-.6-7.9,5-4.7,9.5-3s2.9,1.8,3.5.5l-13-9c-3.4-1.4-6.1,1.3-6.8-3.2s1.6-4,4.2-3.2,2.4,2.5,3.7,3.3c2.6,1.7,5.3,3.1,8,5s1.9,2.7,3,1c-3.7-4.3-7-9.1-10.6-13.5s-1.7-.9-2.5-1.7c-1.5-1.8-2.8-5.4-4.3-7ZM903.9,256.5c-.9-5.6-3.6-10.6-5.8-15.7s-.9-7-4.7-9.1c-3.9.9-3.9,5.5-1.7,8.5l12.2,16.3ZM924.9,231.5c-1-1-2.9.4-3.9,1.6s-3.3,6.8-4.2,8.8-2.5,5.8-2.9,8.5c1.3-.3,2.2-1.6,2.8-2.7,1.4-2,9.4-15.1,8.1-16.3ZM846.9,319.5c3.7-3.3,5.7-9,8.5-13s13.1-13.9,13.5-17.6-.6-2.3-.5-3.5c.3-2.9,3.4-7.1,3.5-9.5.3-3.9-6.8-7.1-9.5-9.4s-5.1-4.7-6.5-6.5-4.4-9.9-5.5-10.5c-1.9-1-1.5,1.7-1.5,2.5-.1,7.8-1.6,15.3-2,23-.8,14.6.6,29.9,0,44.5ZM941.9,253.6c-4.7,0-9.8,1-14.2,2.3s-3,.3-2.8,1.7c4.8.3,9.3-1.5,14-2.5s3.3,0,3-1.5ZM943.9,271.5c.4-2.7-2.1-3-4-3.5-4.9-1.4-10-1.7-15-1.5-.2,1.4,2.7,1.4,3.8,1.7,5,1.1,10.3,1.6,15.2,3.3ZM943.1,277.4c-.5-.4,0-1.8-2.6-2.9-6-2.5-11.4-1.5-16.8-2.1s-3.6-2-5.7-1.8c4.7,5.9,13.7,8.3,20.1,12.4,1,1.1,1.3,2.6.9,4-1.1,3.9-10,0-8.1-4.3l-15.9-8.1c2.2,4,6.7,5.7,10,8.5l-5,4c6.5,7,17.7,20,1,21.5-1.1.9,9.4,5.4,10.7,5.8,10.3,3.1,22.2,1.1,27.1-9.4,2.9-6.3,1.2-21.7-4.9-25.8-3.9-2.7-9.6-.8-10.8-1.7ZM893.2,298.3c8.6,4.4,19.7,6.6,29.3,5.2s2.3-.7,2.5-1.5c.8-3.1-8.8-13.5-11.5-15.5-9.2-6.9-19.9-4.2-30.5-6,4.6,5.1,7.2,11.6,10.2,17.8ZM804.9,397c.7-5,0-12.6,0-18s4.7-1.3,6,.5c3-8.4,6.1-12.3,1.4-20.9-8-14.7-35.1-16.8-44.9-3-4.4,6.2-3.2,18,.6,24.3,1.5,2.5,6,5.2,8.4,7.6s3.2,4,4.8,5.7,4.7,2.2,4.7,5.4l2-.5c-1.9-6.2-5.3-13.3-9.8-18,1.2-2.9,4.8-7.4,7.9-4s7.6,14.4,9,18,2.1,7.3,3,10.5c4.1-2.1,1.2-7.3,1-10.5-.3-4.6,0-12.5-1.2-16.8s-2.2-2.7-2.7-4.2c2.2-3.5,6.5-3.5,8.7,0-6.3,7.4,0,17.7-.9,26.5,1,.4,2-2.2,2-2.5ZM477.9,373.5c.1-.2.2-1.5,1-2.5,1.9-2.5,4.1-5.6,6.5-7.5s10.5-5.1,11-6,1.9-5.6.5-6.5-5,.2-7,1c-9.4,3.7-13.1,11.3-14,21-.1.9,1.9.6,2,.5ZM514.7,376.3c1.1-1.1,2.6-6.7,3-8.5s1.1-8.3.8-9.3c-2.2-8.9-14.7-9.8-18.5-1.5,1.2,2.3,4.3,2.6,5.9,4,4.2,3.6,5.8,11.1,5,16.5.4.4,3.3-.7,3.8-1.2ZM902.6,361.9c-13.1-9.6-28.8.8-33.7,14.1-2.5,6.8-3,10.8-1.7,17.8s4,13.4,7.5,19.5,4.4,8.4,5.7,3.3,1.1-17,.5-20.4-1.5-.5-2.1-1.2c-4.5-6.7,6.1-10.7,6.9-3.7.2,1.4-1.5,3-1.8,4.9-.5,3.4.4,7.5,0,11l2,11.5c1.2-3.9,2.5-8.8,4-12.5s6.4-9.4,4-14l.4-1.5c6.6-4.8,4.8,4,12.1,3.1s6.4-7.9,6.5-10.6-1-7.1-1.4-8.5c-1.1-3.6-6-10.5-8.9-12.6ZM813.9,412.5c9.1.5,19.1-.7,26.9-5.6s9.6-9.8,10.9-17.1,1.4-13.7-.2-19.3c-2.2-7.5-8.7-12.2-16.6-10.5-11.1,2.3-19.3,11.1-19.9,22.5,3.9-.7,9.3.5,7.9,5.4s-5.6,4.6-7.3,6.7-5.3,8.1-4.6,8.9c3.8-3.1,12-4.5,15.3-7s.5-2.1,1.2-2.1l5,2c2.3,6.7-2.3,6-5.9,8.2s-5.6,3.9-10.4,5.6-2.7-.6-2.2,2.2ZM479.9,398.5c1.9.2,2.9-1.3,4.7-1.8,4.2-1.2,5.2-.7,9.2-3.8,7.5-5.7,17.3-18.6,9.5-27.4s-7.7-3-12.4-.5-12.4,11.9-12.9,16.1,1.5,3,1.8,4.9-.4,12,0,12.5ZM530.9,384.5c.4-4.3-1.1-8.8-2.8-12.7s-4.3-9.3-6.2-7.3c1.2,5-2.2,8.4-1.9,12.9,4.9.8,6.9,4.7,10.9,7.1ZM770.9,387.6c-3.7-.8-6.4-4.3-9.7-5.8-10.6-4.7-22.3-1.3-27,9.5s-1.7,18.1,3.3,25.2,21.6,9.6,31.5,6l-1-3.5,1.6-2.4,4.4,1-1,4,14-3c.8-3.4-4-1.7-6.4-2.1-7.2-1.1-13.7-3-21.1-3.9s-2.4-6.6-1.3-9.3c1.9-4.7,5.7.3,7.5,1.1s9.4,2.5,12,3,7,.6,10.3,1.2l-16-12.5c-1-.8-3.1-.2-3.8-.6s-1.8-4.4-.1-5.4,3.7.5,3-2.5ZM520.2,383.3c-.6-.6-.5-2.4-1.8-2.7s-2.2.6-3.1.6-1.9-.5-2.6-.4c-3.9.6-6.7,6.3-9.1,8.8s-6.8,6.6-10.1,10l.6,8c4.3-1.3,8.2,1.7,11.6,2,6.8.7,24.5-11.8,23.5-19.5s-7.3-5.2-8.8-6.8ZM792.9,398.5c-1.1-4.4-3.3-11.1-5.5-15s-1.9-2.3-3.5-2l5.8,12.7,3.2,4.3ZM944.7,424.3c2.9-3.2,5.6-13.8,5.2-18.2-1.6-17.4-17.3-32.9-33.7-19.4l-5.2,15.3,6-.5c1.2,6.1-4.3,5.1-8,7.5s-7.8,8-11,11c-1.1,1-3.6,2.1-4,3-1.5,3.2,3.1-.4,4.1-.9,9-4.4,17.7-6.3,26.2-9.8s4-4.5,6.2-4.5c4.8,0,4.2,7.4-.1,7.5s-2.5-.8-3.8-.7c-4.7.4-9.4,2.9-13.8,4.2l-11.7,5.7,19.5-2.9,3.5.9c.6,2.4-1,3.2-2,5,5.7-.9,11.6,2.4,17.1.6s5.4-3.4,5.7-3.8ZM816.9,385.5l-3.8,1.2-6.2,13.8c2.4.5,2.2-1.2,3-2.5s8.1-11.4,7-12.5ZM784.9,401.5c-2.3-2.6-5.3-6.5-8-8.5s-1.8-1.9-4-1.5c-.4,1.9.9,2.4,2.1,3.4s3.6,3,5,4,3.1,2.6,4.9,2.6ZM900.9,394.5c-1.8-.3-3.1,1.3-3.9,2.6-1.4,2.5-3.8,8.1-5,11s-1.5,2.6-1.1,4.4l3.2-4.3,6.8-13.7ZM905.9,397.5c-2.6-.5-4.1,1.2-5.5,3-2.5,3.5-4.6,8.1-7.1,11.9s-4.6,3.8-4.4,7.1l15.4-17,1.5-5ZM811.9,407.5c3.4.4,7.4-1.5,10.3-3.2s5.4-2.8,4.7-5.8l-10.7,5.8-4.3,3.2ZM448.9,405.5c.4-1.8-.5-2-1.6-2.9-3-2.2-6.7-2.4-10.4-2.1l7.7,5.9,4.3-.9ZM907.4,403.5l-9.3,9.3,1.5,1.5,9.3-9.3-1.5-1.5ZM437.6,415.2c3.4-4.1,5.4-7.1-.9-9.9s-6.8-1.8-6.3,1.3l3.6,12c3.2.7,1.4-1.6,2.2-2.8s1.1-.2,1.4-.6ZM427.9,405.5c-1.9-.3-3,1.3-3.8,2.6-2.1,3.3-3.4,7.5-4.1,11.3,4,0,7-1.3,11,0-.9-4.7-3.8-9-3-14ZM789.9,411.6c-8.2.2-16.2-2.8-24.2-4.3s-2.8-1.3-3.8.8,1.7,2.1,2.7,2.3c4.1.6,9.1,1.7,12.8,2.2s6.1.1,8.9,0,3.7.7,3.5-1ZM875.9,427.5c.3-1.7-.1-2.3-1-3.5-3.3-4.9-13-14.5-18.5-16.5-8.9-3.3-18.3,5.6-21.6,13.5-2.4,5.7-3.7,15.9-2.9,22s5.6,11.6,10,14,11.5,2.8,14.4,2.6,8.3-1.3,10.8-2.3c7.2-2.9,10.4-8.7,12.7-15.8l-3.6,2.3c-1.5,2.3-3,5.3-6.4,4.7-1.5-5.6,6-6.6,6.9-10.7s-3-4-1.9-6.3c-4-1.7-9.5,2.7-12.4,1.9s-2.1-4.4-1.5-4.9c2.2-2.1,6.7-.3,8.6-.3s4.1-1.2,6.3-.7ZM466.8,440.4c.6-.8.3-17.1,0-19.3s-3.8-10.1-6.7-11.3c-10.9-4.7-20.9,6.1-22.2,16.3s-.6,18.8,3.5,24.4,6.1-.3,9.9,0,3.8,2.3,5,2c2.8-3.9,2.8-8,7.2-10.9s3.1-1,3.3-1.2ZM822.8,418.3c-2.3,1.6-3.9-2.2-5.5-2.6s-4.3,0-6.3-.2l9.5,6c1.3.9-.3,2.8-1,3s-8.6-5.6-10.5-6c-.2,1.4.2,2.5.8,3.7.8,1.8,4.2,8.2,5.2,9.6s4.5,1.3,4.1,5.2-4.2,3-5.9,1.3-2.9-8.4-4-10.5-2.4-3.7-3.7-5.3c-1.6,3,.1,6.5.5,9.5s-.3,3.4,0,4.9,2.9.5,3.1,3.1c.3,4.4-4.9,6.4-7,1.8-.6-2.1,1.8-3.8,1.9-5.9.2-3.4-3.2-8.4-2-12.5-1.5-1.7-1.8.2-2,1.5-.6,3-.7,12.4-1.5,13.5-1.2,2-7.6-1.1-9.5-1-2.4,7.2-6.8,6.4-3.5,15,6.3,16.9,33.4,16.9,43,3s.5-6.4-.2-10.7c-.8-5.2-.9-11.3,0-16.5s2.8-8.4,3.8-12.7c-.4-.4-7.2.6-8.3,1s-.6,1.6-.8,1.8ZM795.9,433.6l1-11-3.4,4.1-3.6,5.4,6,1.5ZM423.7,423.8c-19.8,2.6-11,25.8,3,31.5s8.2,2.6,9.7,2.2c3.1-.9.4-4-.2-5.7-1.1-3.2-2.8-7.6-3.2-10.8s.9-14.6-1-16-5.8-1.6-8.3-1.2ZM790.9,423.5c-.4-.5-5.4,2.6-6.3,3.1-3.7,2.4-7.2,5.9-11.3,7.7l-2.9-1.9c-.2-4.4,6.2-3.7,7.6-8-8.2,2.5-15.8,4.8-24.5,4s-12.2-5.2-16.7,2.3c-4.6,7.6-3,15,4.2,20.2,11,7.9,29.4,2.5,38.4-6.5,5.1-5.1,4.1-6.5,5.7-12.3s6.4-5,5.8-8.7ZM917.9,425.5c-4.5.9-8.9.9-13.5,1s-3.7-.7-3.5,1c4.6,1.3,9.4.1,14.5,0s2.9.7,2.5-2ZM1017.9,426.5h-18.5c-1.6,0-12.1,4.6-14.2,5.8s-1.7-.2-1.3,2.2l16.5,3c5.7-3.5,9.9-6.5,16.3-8.8s2.6-1,1.3-2.2ZM1013,450.5c5.8-2.9,19.3-8.1,16.8-16.3s-5.5-5.3-8.1-4.5-8.4,4.7-9.6,5.4-6.1,4.5-6.1,4.9c3,2.9,6.2,6.4,7,10.5ZM919.4,431.5c-7.5-.4-15,.3-22.5,0-.5,2.4.3,1.6,1.3,2.2,1.8,1.1,10.4,4.2,12.4,4.6,3,.5,6.3-.8,8.3,1.7l-2.4,4.4-23.5-8.8c-.4,1.9,1,2.4,2,3.5,3.2,3.6,13.9,9.5,10.6,14.6-3.1,3.1-8.9-.6-6.3-3.9s3.4.2.5-2.9-1.5-.6-2.1-1.3c-2-2.2-2.9-5.1-6.6-6-1,1.1,6.3,12.1,7.4,14.1s1,3.7,1.8,5.2c3.5,6.7,8.1,13.2,16.2,13.8,8.5.6,16.7.4,22.5-6.5s4.5-19.5.7-28.2c-2.3-1.1-3.7-4.3-6.4-5.1s-7.5,0-10.9-.1-2.7-1-2.9-1.1ZM977.9,461.5l10.5,1,16.5-2.5c5.4-4.7,4.5-11.9-1.1-16s-18.4-6.9-23.3-5.4l-1.2.8-1.4,5c4.8.5,6.3,8.6,4.5,12.1s-5,2-4.5,5ZM887.9,439.5c-3.9-.7-1,3.4-.9,5.5s-.8,3.1-.8,4c0,1.3,5.5,3.9,3.6,7.4-2.3.5-4.4,2.2-6.5,0-2.9-3-.3-3.9.3-5.7s.8-6.5-1.8-7.3c-1.4,13.1-10.1,18.7-22.5,20-2,.2-9.2-.9-9.4,1.5,3.2,13.5,10.7,23.5,25.4,24.6,8.9.6,22.6-5.2,27-13.1,3.1-5.6-1.7-8.1-4.3-12.6-4.1-7.3-7.1-16.5-10.2-24.3ZM1007,466.5c2.1.3,3,2.3,5.4,2.1,6.1-.4,19.4-12.1,11.1-17.8-3.1.9-6.6,2.5-9,4.7s-6.7,7.5-7,8c-.5,1-.7,1.9-.4,2.9ZM972.7,494.3c.5-.5,3-6.4,3.2-7.3,1.1-7.6-1.3-16.9-6-23s-6-6.4-7.5-6.5-9.1,2.1-10.5,2.5-6.4,2.1-6.8,4.2.8,2.5.9,3.9c0,2.8.4,7.2-.2,9.8-1,4.4-7.7,6.7-7.8,11.7,2.5-1.9,5.7-2.7,8.3-4.2s7.9-6.4,10.7-4.4,1.7,2.4,1.7,3.1-2.7,5.1-2.9,5.3c-1,.8-5.8,1.7-7.7,2.8s-4.4,3.1-5.8,4.2-2.8,1.1-2.3,3.2c4.3-.8,19.5-10.7,22.3-9.9s3.1,3,2.7,4.9l-7.3.2-18.7,8.8c6,1.3,11.3-2.2,16.5-2.9s4.9.4,6.8-.2,2.3-4.5,2.7-4.8c.9-.6,5.9.5,7.7-1.3ZM896.9,488.6c-5,1.2-10.4,4.5-15.5,5-13.4,1.3-24.5-3-31.3-14.7s-3.4-11.7-6.7-17.3l-2.3,2.7c-3.1,14.5-5.6,29.2-9.5,43.5s-5.2,16.5-7.7,24.7c.3.3,6.9-1.2,8-1.5,6.3-1.5,41-11.1,43.5-14.5s2.2-6.3,4.1-8.9,5.1-5.6,6.5-6.5,4.2-1.3,4.8-1.7c.8-.7,4-9.3,6.2-10.8ZM983.9,466.6c3,3.9,10,7.1,14.7,8.8s15.6,4.7,8.3-4.3c-7.4-9-13.1-4.4-23-4.5ZM934.9,486.5c1.2-4.7,7-7.8,7.8-12.7.2-1.3,0-2.9-1.3-3.3s-9.1,5.8-12.4,6.6-8.1-.1-12.1,1.5c1.6,3.6,6.3,1.3,9.3,2.2s7.1,3.8,6.7,5.8h2ZM913.9,476.6c-2.1.1-3.9-.7-5.5-1.9l-5.5,8.9,8.3-4.1,2.6-2.8ZM893.9,523.5c9.9,2.7,23.9-1.2,31.5-8,4.2-3.7,9.1-10.9,9.2-16.7.1-5.1-2.3-10.1-6.8-12.8s-12-2.8-17-1.1-8.9,4.6-11.8,9.2c-.7,1.1-3.9,7.2-4.1,8-.4,2.3,4,2.6,4.8,5,.6,2.2.4,6.9-.6,9.1s-5.1,4.1-5.2,7.3ZM952.9,485.6c-2.9.5-7,2.5-9.5,4s-5.8,3.6-4.5,5c4.4-3.3,10.9-4.6,14-9ZM758.9,490.6c-12.9-7.1-32.6,5.2-33.1,19.5s2.9,12.9,6.7,13.2,2.9-.4,6.9,1.3.9,1.9,2,0,.3-6.9.6-8.4c1.9-10.8,7-17.2,15.6-23.4.9-.6,1.8.2,1.3-2.2ZM548.2,531.9c3.9-3.5,7-3.3,9.2-9.3,10.2-27.7-31.3-40.7-40.2-15.2-1.7,4.8-.8,5.5-.3,9.8.9,7.5,2.8,11.3,4.8,18.2s1,7,2.3,10.3l1.9-5.6c-1.2-5.3,4.3-12.5-2-15l1.2-4.3h5.8c2.1,3.2-.3,4.4-.7,6.6-.7,4-1.7,9.9-2.1,13.9s0,5,0,7.4c1.2-.3,2.3-1.6,2.9-2.6,1.9-3.2,5-9.3,6.3-12.7s.8-8.3,4.5-8.5,4.2,2,3.2,5.1-3.7,1.9-4.7,2.8-1.2,4-2,5.5-4.6,6.9-4.2,7.3l10.7-9.3c.9-1.2,2.7-3.5,3.6-4.3ZM768.7,496.8c-.9-.8-3.1-1.3-4.3-1.3-7.6-.2-13.9,8.3-16.3,14.8s-3.8,14.9-2.2,22.3c2.6,0,3.5-2.8,5.9-3.6,4.7-1.6,7.3-.7,9.6,3.5,9.1-7.3,13.8-20.5,9.5-31.5s-1.8-3.8-2.3-4.2ZM970.4,519.5c-5,1.1-13.1-.8-18.5,0l9.8,2.8c1.9-.3,7.7-.3,8.2,1.7s-2.9,5.8-4.4,5.5-5.4-8.4-9.6-7c1.1,2.4,4.9,3,5.9,5.6,1.4,3.7-2.6,2.4-4.6,1.6-4.3-1.7-8.3-5.3-13.3-5.2l5.1,4.4c2.9,2.2,13.4,8.6,16.4,8.6,5,0,13.5-6.9,16-11.1,7.8-13.1-6.4-19.8-17-23l-28.4,5c.6,2.1,1.3,1.7,3,1.6,8.6-.9,11.6.3,19.6,1.4s8-1.3,9.4,2.1c-4.9,1.7-9.2-.1-14.5,0s-3.7-.8-3.5,1c5.6.3,13.2.1,17.5,4,2.3-1.7,2.1-4,2.5-6.4s5.9.5,4.9,3.8-3.6,3.5-4.4,3.6ZM521.9,548.5c-2.2-4.9-3.6-10.8-5.8-15.7-1.2-2.6-4.5-5.6-4.1-7.6s2.2-2.3,1.5-4.7c-3.2-10.1-17.1-15.8-26.9-12.8-16.5,5.1-16.2,28-2.7,37.2s7.5-.8,12.4-.5,7.8.8,9.8,1.3c3,.6,6.9,3.5,10.7,2.8-1.9-2.1-5.2-6.6-7.4-8s-5-.8-6.1-2.9-.4-5.3,3-5,3.2,2.3,4.7,4.4c2.4,3.2,5,6.3,7.7,9.3s1,2.8,3.2,2.3ZM944.7,550.3c1-1,1.7-4.5.8-5.8s-6.6-3.1-8.5-4.5c-5.9-4.2-9.5-11.5-11-18.5-8.4,4.1-17.4,8-27,7-.2,1.6.4,3.1,1,4.5,4.8,11.8,23.6,18.6,35.6,19.4s8.3-1.3,9.2-2.2ZM956.9,539.5l-6.1-5.4-13.9-9.6,14,17.6.5.3,5.5-2.9ZM941.9,537.5l-9-12c-.9,5.6,3.6,11,9,12ZM553.9,563.5c6,2.2,10.6,7.2,15.7,10.9,17.3-1.6,25.7-19,19.5-34.6s-14.7-14.4-25.2-11.9c-1.6.4-8.1,3.9-9,5-1.6,2-.4,4.5-1.1,5.4s-8.3,6.4-9.8,7.7-2.5,1.6-2.1,3.4c4.4-1.9,9.8-3.2,13.9-5.6s5.9-6.5,11.1-5.4c.9,7.7-2.2,5.1-7,6.5-5.9,1.7-12.9,8.1-20,7.6,0,2.1-.5,1.9,1.5,2,6.1.3,12.9.2,19,0,2.5,0,4.5-1.8,7.4,0,.3,2.6.7,5.6-2.4,6s-4.5-2.3-7.2-2.9-5.6,0-8.3-.2c-.3,1.5,1.8,1.2,3,1.5s1.9.6,3,.5l-2,4ZM960.1,541.7c-.4.3-.6,2.5-2.8,3.7-4,2.3-7.7-.8-8.4,6.7-.5,6,10.5,3.5,13.9.9s6.5-7.7,4.6-10.5-6.6-1.4-7.4-.8ZM516.9,553.5c-2.7-3.6-9.6-4.4-14-5-.5,2.9.7,1.6,2.4,2.1,3.9,1,7.6,2.7,11.6,2.9ZM756.7,601.3c4.6-4.4,11.8-14.5,14.1-20.4s3-9.7,0-16.6c-3.9-9.1-12.6-14.4-22.3-14.8s-8.6.9-9.8,1.3c-2.6.7-8.3,5.6-10.2,7.8-5.1,6-5.9,12.3-5.5,20,9.9-.6,4.5,9.5,4,15.5s.3,7.1,0,10.5l3.5-7c1.2-5.3,4.7-10.8,6-15.9s-1.2-7.2,3.2-7.9c1.7-.3,4.9,3.4,4.3,5.3s-3,1.3-4,2-3.4,9.5-4.3,11.7c-2,5.4-4.9,10.9-5.7,16.8,2.6-1.5,4.7-4.6,6.4-7.1,5-7,10.3-15.4,11.6-23.9,2.6-.9,6.8,1.3,5.9,4.4s-5,2.9-5.7,3.8-.4,2.4-1,3.5c-3.4,6.2-7.2,11.2-11,17s-2.4,2.6-2.2,4.3c.6.7,9.5-6.1,10.9-6.6,4.1-1.3,7.6.2,11.8-3.7ZM945.9,555.5c-7.6,1.4-14.5,1.5-22-.5s-7.9-3.4-12-4.5c3.5,4.6,9.5,9.5,15,11.5s21,5,19-6.5ZM513.9,555.6c-4,1.1-6.7-1.1-9.7-1.8-7.8-1.7-16.2-4.1-23.6-.1-11.8,6.3-11.6,24.2.4,30.3,12.9,6.5,26.2,3.4,35.4-7.4,2.9-3.4,4.7-7.7,8.5-10.5-2.1-3-2.5,1-5,.5-.8-.9,3.3-6.7-1.5-7.1s-10.3,3.2-12.7,4.3-3.3,2.5-4.4,2.7c-1.8.3-2.8-1.6-2.3-3.3,1.2-4,12.6-3.5,14.9-7.6ZM716.7,562.8c-1.3-1.3-6.4-4.1-8.2-4.3-11-1.2-22.1,2.8-26.7,13.4s-1.9,12.4,5.3,18.1c6.9,5.5,15.7,8.7,22.9,13.6,1.1-1.3-4.6-12.7-5.8-14.7-1.8-2.9-6.2-5.4-3.7-9.3s4.8-.3,5.4,1.7-.2,4,.7,6.3,3.5,6.6,4.6,8.4,3.9,5.7,5.8,7.6c.8-6-1-11.7-1.9-17.6s.2-4,0-5.9c-.7-4.6-6.1-9,4-8.5.3-3,0-6.5-2.3-8.7ZM562.6,573.9c-6.7-5.6-12.1-7-19.7-9.8-1.6-.6-8-4.4-9-3.5,3,4.2,6.4,8,10.6,11,1.1,2.9-1.9,5.5-4.4,3.8s-4.5-8.9-6.4-10.6-4.2-1.8-4.7-1.2l-2,5c2,.4,3.2,1.5,5.3,2s.9,1.5.6,2.4c-.5,1.4-2.7,3.1-4.3,2.5l-3.1-3.9c-2.4,3.2-9.5,10.2-8.4,14.3s6.4,8.1,8.4,9.7c8.4,6.7,23.2,10.8,33.2,6.2,3.6-1.7,8.5-5.3,9.8-9.2s1.1-11.1-2.1-15-3.2-3.1-3.8-3.7ZM721.9,575.5c-3-.7-3.6.8-3.9,3.5-.7,6.1,1.1,15,1,22s-1.4,3.9,0,6.5l2-9.5c1.4-5.1-1.7-13.8-1.1-18s2.4-2.5,2-4.5ZM520.2,597.3l-8.9-10.7c-4.1,3-8.5,3-13,4.9,1.1,9.1,4.2,17.8,4.6,27,7.1-6.1,14.5-11.8,20-19.5-.5-1-2.1-1.1-2.7-1.8ZM684.4,617.5h26.5c.5-3.1-.8-1.6-2.5-2-4.3-.9-8.9-2.2-13.1-3s-5.9.7-8.4-1.6,4.6-5.4,7.7-3.2,0,1.6,2.2,2.2l19.1,5c-2.4-1.9-5.5-3.5-8.3-4.7s-9.6-1.8-9.7-5.8l2-1c-1.7-.4-4.4-1.8-5.5-3s-1.4-2.8-1.6-3c-.3-.2-3.1,1-5.2-.2s-3.9-5.6-6.7-7.3c-11.7-7-26.6,7.4-29.7,18.2-4.7,16.6,3.8,26.7,20.3,28.2,16.3,1.4,17-6.8,29.7-12.1s7.1-2.8,10.7-2.8c.2-1.7-2.3-1-3.5-1-6.4-.1-14.8-.6-21,0-3.3.3-5.4,3.1-8.5,1.6s-1.1-6.8,2.4-6.4,2.4,1.7,3.2,1.8ZM443.9,621.5c4-11.1-5.6-25.1-16.4-28-5.1,7.1.6,9.9,4.4,14.5,3,3.6,6,8.7,9,12,.9,1,1.4,1.8,3,1.5ZM408.9,601.5c2.7.5,5.2-.4,7.7-.7,1.5-.1,2.1,1.1,3.8-.3,2.5-2,1.9-5.5-1.6-4.6s-8.3,2.3-10,5.6ZM734.9,626.5c-1.4-.6-2-1-3,.5,3,3.9,3.9,12.4,8.9,14.1s13.1.8,16.6.5c5.6-.5,12.7-3.4,17-7,9.8-8.2,19.3-28.9,5.8-37.9-1.9-.5-11.6,3.5-14,4.7-8.8,4.3-15.8,12.5-26.3,13.2-1,2.9,3.8,2.3,5.5,2,2.7-.4,2-2.9,3.1-3.1,5.1-.9,9.2,3.9,4.1,6.3s-3.7-.2-6.2-.3-10.9-.2-11.4.1c-1.4,1.1-.7,5.3-.1,6.9ZM426.9,611.5c1-3.8-4.8-6.6-7.7-6.7s-11.5,1.4-13.6,2-4.2,2.7-6.7,2.8c-.1,2,2,.6,3,.5,2-.3,3.1-.7,5.4-.5s5,2.6,7.1,2.9c4.2.7,8.3-.8,12.5-1ZM438.9,636.5c.9-8.4-1.8-16.7-8.6-21.9-3.9-.1-9.6,2.9-12.9,2.9s-4.8-2-7.2-2.8c-11.5-3.8-22.3,9-15.3,19.3,2,2.9,10.3,9.6,13.7,10.3s6.6,0,9.8.2,4.2,1.5,6.4,1c1.1-7.6,6.8-10,14-9ZM716.9,626.5c-4.4-.2-7.1,8.6-11.1,5.6l-.9-3.6c-6.8.7-14.2,6.8-18.5,12-6.9,8.3-4,16.4,5.5,20.5,14,6.1,32.3,4.5,40.8-9.1,1.1-1.7,3.3-5.9,3-7.6s-7.2-14.7-7.9-15.2-1.7-1.1-2,0c1.9,3.5.3,5-3.4,4.4-3-1.5-.5-3.8-.6-4.5-.3-3.2-4.3,1.6-4.9.5v-3ZM998.9,675.5c0-20-17.2-30.1-34-17.5s-15.3,23.1-5,30.9c.6.5,5.3,3.3,5.6,3.4,1.4.3,4.3-2,6.4-.4s3.4,9.8,6.9,10.6c-2.2-7.9-6.3-14.9-11.2-21.3-2.3-5.3,4.4-7.1,5.3-1.7h2c-.6-2.6,4.3-3.8,6.1-2.6l3.2,14.8,2.8,6.7c-.7-5.6.9-13.2,0-18.5-.4-2.3-2.5-2.7-2.9-4.1-1.3-4.4,4.3-7.5,6.4-3.4s-1,4.1-1.3,5.7,2,12.2.8,15.8l3,7.5c.4-2.9.3-6.2.6-9.1s1.3-5.7,1.3-7.5c0-2.6-3-6.2-1.9-9.5h6ZM1026.6,697.3c1.5-1.7,4.1-7,5.9-7.6s4,1.2,3.3,3.3-2.9,2-4,3c-4.5,4.3-11.3,10.4-15,15-1.3,1.6-1,1.1.5,2.5,9-9.5,24.3-14.9,29.7-27.3s2.2-16.4-5.3-22.1c-7.8-6-18.1-6.5-27.2-3.3-3.1,1.1-10.2,5.9-10.8,9.2s.6,6.1-.2,8.8-1.9,2.2-2.4,3.6-.2,4.1-1.4,6.1c2.9.5,1.6-.8,2.2-2.2.9-2.1,3.9-10.2,5.4-10.7,10.8,0,2.1,12.7,2.4,18.9l9.7-11c2.3-1,3.3-3.7,6.3-3,3.1,5.5.5,6.6-2.4,11.1s-5.6,8.8-8.6,13.2c-.5.7-1.6.6-2,1.3-.9,1.6-1.1,3.6-1,5.4,5-3.5,8.6-8.6,12.6-13s1.7-.8,2.1-1.3ZM971.9,727.5c4.1-15.3-6.8-27.6-17-37.5s-2.4-1.5-3.5-2.5c-2.1-2-3.8-5.8-7.5-6.9.2,3.1-.3,6.5,0,9.5,1.2,13,13.5,30,24.7,36.3,1.1.6,1.8,1.5,3.3,1.2ZM977.7,681.8c-.5-.5-3.4-1.6-3.8-1.2l.2,2.3,9.8,21.7c-.3-4-1.2-8.4-2.2-12.2s-3.1-9.7-4-10.5ZM1008.9,682.5c-2-.4-2.3,1-3.2,2.3-2,3.2-2.5,8.1-3.8,11.7,2.2-1.2,8.1-12.7,7-14ZM1021.9,687.5c-2.2-.5-2.6.4-4,1.5-2.4,1.9-6.7,8.9-8.2,11.8s-2.6,5.3-2.8,7.7c4.4-3.3,8.3-8.5,11.4-13.1,1.6-2.4,3.9-4.8,3.6-7.9ZM1051.9,697.5c-1.4-1.4-10.8,3.7-12.7,4.8-4.7,2.6-10.7,7-14.8,10.2s-3.2,2.9-3.4,3.7l.9,7.3c1.3,1.4,17.4-9.2,19.5-11s13-12.6,10.5-15ZM601.9,759.5c3.7-15.9,20.8-32,8-47.5-14.2-17.2-46.7-8-53.5,12.5s-2.6,12.9-2.4,15.4,1.9,10,5,12l11,6.5c-2.5-3.6-5.2-4.7-3-9.4s5,1.4,5.6,3.4-1,4.2.9,6,4.8,2.7,5.2,2.8c1.6.4,3.3,0,4.7.3s2.1,4,4.6,3.9l-3.6-7.9c-2.6-2.6-10.8-17.4-13.1-18s-2.5.8-3.3.4c-2.8-1.4-2.8-6.6,0-8.1,4.6-2.4,6.9,6.9,8.6,9.5,3.2,5,7.8,9.8,11,15s-.3,2.6,2.4,2c.6-.7-1.6-9.7-1.9-11.6-.7-4.9-.8-10.3-1.4-15s-3.7-2.7-3.7-5c0-3.8,7.6-5.6,7,0-1.1,9.9,1.7,17.4,2.9,27.2s-1.6,9.1,4.1,8.4l4.8-16.7,2.3-18.2c5.5-2.5,8.6.2,6.9,5.9l-4-1c-1.6,5.2-2,11.1-3.2,16.3s-2,5-2.6,7.4-1,3.5.8,3.3ZM975.9,713.5c.7.8,4.3-1.8,3.9-3.4-2-2.8-3.4-5.6-6.9-6.6-.1,2.4,2.3,3.4,2.8,5.7s.2,2.9.2,4.3ZM983.9,739.5c10-3.8,20.7-6,30-11.5l3.9-5.1c-4.8-17.9-38.5-16.3-41.6,1.4s3.1,5.6,6.2,10.3c1,1.6,1.7,3.1,1.5,5ZM894.9,759.5l8-3.5c9.5-3.7,12.3-15.8,10.9-25-.2-1.6-2.2-5.5-3.1-6.9-6.2-9.2-20.6-5.5-28.8-1.1-4.6,2.5-9.3,6.5-10.1,11.9-.4,2.8.2,6.1,0,9-.4,4.6-3,11.2.5,15.5l3-16.9c-.4-3.3-1.4-5.9,2-7.9,6.6,2.5,6.1,8.1,5.4,14.3s-3.5,11.1-4.9,16.6c2.9-1.7,4.4-5.2,6.3-7.7s2.3-3.1,3.6-4.8c2.5-3.2,4-4.3,8-2.4l-.9,8.9ZM1118.9,753.5c1.8-5.8-.3-12.4-2.5-18-4.4-11.3-16.2-19.8-27.9-12.9-5.6,3.3-9.9,9.9-11.9,16.1-1.4,4.2-2.1,8.3-1.7,12.8l3.5-1c5.2,1.5.8,4.2.4,6.5s1.2,8.9,4,10.5c0-2.9-1.2-5.3,0-8,1.4-1.7,4.1,10.5,3,12,1.1,1.3,1.9.1,2-1.5.1-2.7-.2-5.4,0-8,.2-2.4,1.3-4.3,1.1-7s-2.1-3.5-2.2-5.9c0-3.5,2.2-4.4,5.1-3.1l1,2-2,21.5c4.3-3.5,2.8-10.4,9-13-.2,3.7-3,5.9-3.8,9.7s-1,3.5.8,3.3c1.9-7.3,7.1-12.7,10.6-19.1,1.5-.6,3.2-1.2,4.8-1s.4,1.5,1.2,2.1,5,2.4,5.4,2ZM868.9,762.5c.8-3.3-.9-6.5-1-9.5-.3-5.8-.2-11.4-.7-17.2-.2-3,1.3-4-1.3-7.8-10.2-15-31.6-1.3-35.6,12.5s-1.6,20.1,8.5,23c1.4-9.6,7.1-.4,10.7,1.8,4,2.6,9.4,3.4,13.3,6.2l-5-5.5c-4.1-1.8-6.7-6.8-10.1-8.9s-6.7-1.6-7-5c-.3-3.3,2.7-4.7,5.1-3s1.3,3.3,2.2,4.3,1.9.8,2.8,1.7c4.2,4.3,8.3,8.8,13,12.6l-6.8-14.7c-1-2-1-4.3-1.7-6.3s-5-5.3-.5-7.5c7.7-3.9,6.7,8.2,10.1,12l4,11.5ZM652.7,730.8c-1-1-6.6-4.9-8-5.5-8.5-3.8-26.3-2.6-27.5,8.9l-11.2,23.3c7-6.4,16-10.3,21.6-18,15,5.6,2.5,13.5-5.7,18.4-4,2.4-8.5,4.2-12.6,6.4l-4.3,3.2c4.7.5,9-2.3,13.6-2.9s4.6.2,6.9-.1,11.2-4.9,12.5-.4-2.3,3.2-2,5.4c7.4-.4,13.4,4.8,19-1.5,9-10,6.9-28.1-2.3-37.2ZM1258.9,726.5c-.2-1.4-1.3-1.7-2.5-2-10.6-2.2-26.3-2-35.4,4.5-1.4,1-7.6,6.7-6,8.5,6.4-3.6,13.3-3.4,20.5-3s3.7,1.5,5.8.9,6.8-4.5,9.3-5.7,5.6-2.3,8.4-3.1ZM1265.9,728.5c-1-1-19.6,6.7-18,8l7-1,1.1,3.4c0,.8-2.7,1.3-3.6,1.5-1.6.5-2.9-.9-2.4,2.1,8.3,0,15.9-5.4,16-14ZM477.9,766.5c1.8-9.1,7-22.1-1.5-29-4.1-3.4-11.6-5.6-17-6-16.9-1.3-32.1,10.7-29.5,28.5s2.7,6.9,3.2,7.3c1.2,1.3,7.6,1.3,10.7,2.8,5,2.4,10.5,9.7,14.6,11.4.6.2,1.7.2,1.5-.5-.9-2.7-6.3-10.9-8.1-13.9s-4.5-5-4.8-6.3c-.6-2.5,5.2-4.4,6.8-3.3s3,10.2,6.1,10.6l6,10.3c1.8.2,1-2.2.8-3.3-.6-3.3-2.2-7-2.7-10.3s.4-5-.2-6.8-2.2-1.2-2.9-2.3c-3.7-5.6,5.1-9.4,5.8-2.7s-.9,3-.9,4.8c.2,6.1,4.4,13,3.1,19.5,4.7-1.8.9-13.7,2-14.9l2.5-.9c1.5.8,1.9,1.9,2.4,3.4s-.6,1.8,2,1.5ZM1246.7,742.8c-.2-.2-5.1-2.5-5.8-2.7-7.4-2.3-21.1-2.6-27.1,3-1.1,1.1-1.5,2.6-2.2,3.3-1.5,1.4-4.4,2.6-5.7,4.8.3,1,2,.3,3,1,3.6,2.2-.7,8.9,0,9.5,2.6.7,5.2-1.1,7.5-1.1,4.4,0,10.4,2.6,15.5.5s14.7-10.9,15.5-12.5.4-4.7-.7-5.8ZM515.7,744.9c-8.4-5.5-21-6.3-28.2,1.7l-7.5,25.9c1.3,0,2.1-2.9,2.5-4,1.2-3.3,2.4-11.4,8-10,4.3,1.2-.8,7.7-1.2,9.7s0,4.2-.6,6.4-3.8,4.1-3.6,6.9c1,1.1,8.5-6.4,10.7-6.9s1.1-.3,1.8-.1c3.8,2.9.6,6.8-3.1,7.8s-3.4-.1-4.1.3-3.9,5.7-3.2,6.8c11.5-.5,24.5-1.8,30.8-12.7s6.9-22.7-2.1-32ZM875.9,762.5l3.8-12.7-.3-7.3c-1.7,1.4-1.8,3.8-2.2,5.8-.7,3.4-1.5,7.5-2,11s-1.1,3.4.7,3.2ZM863.9,760.5l-.7-4.8-3.8-11.2c-2.5,1.8-.7,1.7-.3,3.3s1,3.1,1.3,4.7l3.5,8ZM605.9,762.5c2.6-.7,5.9-2,8.3-3.2s11.4-6.3,13.3-8.7,1.9-1.7,1.5-3.5l-3-1c-1.8,2.2-5.4,3.1-7.3,4.5s-.6,1.4-1.4,2c-4,3-8.6,5.5-11.3,10ZM1071.7,755.8c-4.8-5.2-19.4-5-25.8-2.8-14.6,5.1-19.4,24.1-10,36,8,10.1,17.1,11,29,8,1.5-.4,7.9-2,8-3-1.5-2.2-2-1.1-3.8-.8-3.2.6-7.4,3.7-10,1.1s-.2-6.2,1.5-6.8c3.7-1.3,8.8-.9,12.8-1s3.7.7,3.5-1c-4-1.7-8.4-1.4-12.3-2.2s-2.9-1.3-4.4-1.6c-3.1-.7-11,.3-7.2-5.6,2.8-4.3,4.7.5,6.9,1.8,3,1.8,5.6,1.1,8.4,1.6,4.2.9,8.1,2.6,12.6,1.9l-5.3-2c-1.2-2.2-4-3-3.6-6l8,2.5c-2.1-1.6-3.9-4.6-6-6-2.8-1.9-5.4-.9-6.8-5.2s4.2-3.4,6.8-2.3c.6-.7-1.5-5.9-2.2-6.7ZM582.9,772.5h-21.5c-2.5,0-2.6-6.2,0-6.9,4.1-1.2,3,1.3,4,1.9s7.9,1.8,9.8,2,4.3.3,5.5-.5c-4.4-3.1-10.2-4.8-14.7-7.3-8.5-4.8-11.4-11.8-22.3-7.7-15.6,5.8-13.1,30.3-4.4,41.4,11,14.1,30.8,12.7,41.4-.9l-4-2.5c3-3.8,10-6.9,11-12s.3-1.7-.5-1.5c-3,3.4-8.4,4-12.2,5.8s-8.1,5.2-8.6,5.1c-5.6-.9-2.6-6.8-3.6-10.8,5.6-1.6,11.3-3.1,16.9-4.6s3.3,0,3-1.5ZM879.9,785.6c3.4,7.2,11.8,10.7,17.9,15.6,21.9,6.7,40.4-24.4,27.1-41.1s-8.1-6-14.1-4.1c-3.8,1.3-13,8.3-17.3,10.7s-5.8,3.1-8.7,3.8c-.2,1.9,2,.8,3,.5,5.2-1.2,18.7-8.5,17,2-.8,4.8-9.5,3.8-13.3,5.5s-.4,1.7-1.4,2c-1.4.5-3.7.3-5.3,1l10.6,3.9c4.2,4.5-.6,8.9-5.6,9.1l1-7-11-2ZM1110.9,755.6c-2.4-.4-2.5,0-3.9,1.6s-4.5,6.7-5.7,9.3-2,2.1-1.4,4.1c5.1-3.6,7.4-10.1,11-15ZM892.9,756.5c-4.1-.8-4.5.5-7,2.7l-5,8.3,5-3.4c.3-1.5,8.5-6.2,7-7.5ZM1117.9,756.5l-5.6.9-7.4,13.1,6.5-4c1.3-1.4,8.4-8.2,6.5-10ZM1248.1,790.4c13.5-.7,27.6-16.7,18.3-29.8-.7-1-3.1-3.6-4.1-3.9-2-.6-13.3-.5-15.8-.1-2.2.3-4.9,2-6.5,3.5l5.5,1.5c4.7.3,10.5.3,15.1,1s3.2,3.9,2,4c-4.7.6-5.8-1.5-9-2s-5.1.2-7.5,0c-.4,2.3.2,1.9,2,2.5,3.3,1,11,1.8,13,3,1.7,1.1,1.2,5-.5,5.5s-2.8-2-4.2-2.8c-2.1-1.1-17.6-4.8-18.3-4.2.1,4.6,5.3,4.1,8.2,5.2s2.4,1.9,3.7,2.3c2.8,1,6.1.2,9.1.4.4,1.1-.8,6.2-1.5,6-1.5-.5-4-2.4-5.8-3.2-3.8-1.7-7.9-3.1-11.7-4.8-1.4,1.6,7.3,13.2,8.1,15.9ZM1107.1,791.4c12.6,6.9,28,17.8,41.8,7.6s12.6-21.3,5.1-30.9c-7.1-9.1-19.5-11.8-30-7-4.2,1.9-8.8,8.2-13,11,0,3.6,2.4,0,3.7-.3,2-.6,5.2-.5,5.3,2.3l-11,5.5c4.6-.6,12.6-.4,16-3.5s.8-2.4,1.6-2.5c4.7-.9,9.1,3,3.7,5.9-7.8,1.3-16.3,2.2-23.9,4.1-1.4.4-3.1,0-3.5,2,7.3-1.5,13.2,1.9,19.5,3s10.6-1.1,6.3,5.4-6-1.4-8.1-2.6c-3.9-1.5-8.1-2.2-12.2-2.8s-1.6,1.2-1.3,2.9ZM1211.6,764.7c-4.3.9-7.9,4.1-10.7,7.3,3.8,2.7,3.8,7.6,5.5,11.5,4.1,9.3,11.8,19.1,23,19.1,8.9,0,12.6-4.9,11.4-13.5-.6-4.5-7.1-19-11-21s-9.2-3.1-10.7-3.3c-2.3-.4-5.3-.5-7.6,0ZM609.9,770.5c3,.7,5.8-.9,8.5-1s13.5.9,13.5-1.5c-3.4-3.5-9,.7-13.4-.5l-8.5,2.9ZM834.9,766.5c-17.7-2.3-30.7,17.8-18.5,32s17.5,7.6,25.8,5.8,1.7-5.8,3.1-7.8c6.6-3,10.6-9.4,16.6-13.5l-7.8,1.2c-4.1.6-11.8,7.1-15.2,4.8s.2-6.4,3-7.1,3,1.8,5.5,1.6,5.2-2.2,7.8-2.3l5.8-2.7c-6.6-.7-13-2.9-19.6-3.9s-9.4,1-9.5-3.6,3.9-1.4,3-4.5ZM479.9,780.5c3.7-2.6,6.3-8.6,7-13-1.5.6-2.7,2.7-3.4,4.1-1.3,2.5-2.7,6.1-3.6,8.9ZM856.9,774.5c-.9-1.7-4-3-5.8-3.7s-11.8-4.6-13.2-3.2c-.2,1.9-.3,3,1.7,3.8,4.8,1.9,12.1,1.8,17.3,3.2ZM456.9,786.6c-1.6.1-2.9-.5-4.4-1.1-4.5-2.1-15-6.8-18.2-9.8s-2.2-4.3-4.1-4.9c-7.2-2.1-15.8,3.2-19.5,9.1-6.8,10.8-4.5,26.9,5.3,35.1s13.4,7.3,20.2,5.3c1.4-.4,8-4.2,8.5-5s.5-4.4,1.2-5.8c5.1,1.9,6.1-.8,10-3.5l5-7.5c-2.9,2.3-6.8,3.6-9.5,6s-1.2,2.4-1.7,2.8c-1.3,1-7.3,2.3-8.8,1.2l.4-4,8.6-3.9c-2.4,0-7-.5-8.8,1.3s-.3,3.2-3.7,2.8-4.5-2.9-3-5.1,8.9-.4,11.8-1.2,8.9-3.4,13.3-4.7,2.9.9,2.4-2.1c-4.5.8-8.3-1.1-12.6-1.9s-3.4.2-4.9-.1c-2.4-.5-9-3.4-10.5-2.5s-1.4,2-2.7,2.4c-7.2,2.2-8-8-.9-6.9s2.2,1.5,3.2,1.8c3.2.9,14.1,2.8,17.8,3.2s5.6.7,5.5-1ZM457.9,784.5c-1.3-2.1-4-4-6.1-5.4s-6.8-4.8-8.4-5.6-2.6-1.3-4.6-.9l5.6,5.9,13.4,6.1ZM607.9,798.5l5.2,13.3c8.2,19.4,33.7,12.3,42.6-2.9,5.4-9.2,6.4-24.7-3.3-31.4s-18.5-3.7-25-4-2.6-1-4.1-1c-3.2,0-7.7,2.1-11.5,1.1,3.9,5.5,25.8,8.8,12.6,16l-7.7-5.4-12.9-5.6c-1,.9,10.9,14.8,11.1,16.5.4,4.3-3.8,5.1-7.1,3.5ZM583.9,776.6c-5.4.9-10.8,1.6-15.8,3.8-1.5.6-2.8-.7-2.2,2.2,5.9,1.6,13.7-1.8,18-6ZM599.9,795.5l-3.5-13c-2.4,4.2-5.4,7.1-3.5,12,2.7-.9,4.5-.3,7,1ZM1201.8,784.7c-7-1.4-6.4,6.3-5.9,11.4,1.3,13,16.6,28.2,29.6,29.4,2.5.2,3.9-.3,5.2-2.5-1.5-2.5-2.5-5.4-4-7.9s-5.4-7.9-5.8-8.2c-1.3-.8-3.4-.2-5-1-5.3-2.6-11.5-16-14.1-21.4ZM862,805.5c-.6-5.6,3.7-7.5,4.7-13.7.2-1.5.8-4.1-.3-5.3-3.9,3.1-5.7,8.4-9,12-3.6,3.9-10.7,5.8-11.5,11.5s0,13.6,6.5,18.5c17.1,13,39,0,40.5-20.5s-5.9-7.8-10.1-12-4.1-6.1-6.5-8.5c-2.3-.6-1.7,2.2-1.5,3.5.6,3,3.2,6.6,3.8,9.2,1.2,5.4-5.9,7-5.9-.2,0-3.1.5-4.1-.3-7.7s-.2-4.5-2.7-3.8c-.3.4-2.1,9.4-2.1,10.5s1.1,2.9.9,3.9c-.5,2.5-4.5,4.4-6.8,2.5ZM478.9,799.5c1,2.7.7,5.6,1.2,8.3s1.8,3.8,1.8,5.2-1.5,2.1-1.6,2.9,2.3,11.2,2.8,12.8c1.2,3.7,6.8,7.7,10.5,8.5,21.1,4.5,35.7-25.8,26.5-42.5-5-9-9.4-4.4-16.2-2.7-6.2,1.5-11.6,2.2-18,1.5.5,3.1,5.3,1.5,5.9,2.1,1,2.4.8,4.3-1.5,5.9l-7.4-2.9,3.2,7.3c.8,3.1,5.3,4.5,5.7,7.3s-4.8,3.3-6.8,2.3c0-4.5-2.2-8.6-3.8-12.7s-.5-3-2.3-3.2ZM590.2,799.3c-.5-.5-1.1-2.5-1.1-3.3,0-1.4,1.9-3.5.4-4.5-4.1,3.3-6.4,8.2-10.6,11.4s-7.4,4.5-10.4,5.6-9,.6-9.6,4.4c-2.6,17.8,18.7,29.5,34.5,27.5,4.8-.6,13.4-6,16-10s3.4-6.6,3.5-7.5c.7-3.9-3.1-8.4-4.9-12.1s-3.8-9.1-6.1-13.4c-2.9,2.2-8.8,4.8-11.8,1.8ZM1252.9,805.5c.6-5.2-3.6-9.1-8-11l-1.6,9,9.6,2ZM1090.9,802.5v24.5c0,.6,3.1,9.4,3.6,10.4,2.7,5.5,10.3,12.3,16.4,13.6,6.4,1.4,11.9.7,17.4-2.7,5.3-3.3,8.1-8.2,9.9-14.1.7-2.3,1.8-7,1.8-9.3s-3.4-14.9-5.7-16.4-6.6-1.5-9.5-2.5-3.7-3.5-6.9-2.5c-.8.8,3.2,11.7-2.3,10.9s-3.8-3.6-5.6-5.4-5.1-4-7-6.2-5-8.5-6-7.3l4.6,9.9c.9,2,0,4.6.6,6.4s9,4.5.4,8.6c-3.3-2.5-2-6.1-2.7-9.3s-2.2-6.3-2.8-8.2-1.1-2.5-2.5-3.5l3.4,13.4c-1,1.9-5.2,3.8-5.9,1.1s1.9-3.2,1.8-4.8-.8-2.9-1.1-3.9-.3-3-1.7-2.8ZM1114.9,806.5c.4-2.4,0-2.5-1.6-3.8s-9.2-6.1-10.3-5.1c3.4,3.7,6,9.7,12,9ZM470.9,802.5c-.2,2.7-3.2,13.6-5,14.5-8.7,4.4-3-9.2-1.5-12.5s4.4-5.2,1.5-6l-9.5,12c-3.8,4.5-9.8,7.5-14,11-8.1,6.6-6.5,22.3,2.2,27.9,14.2,9.1,35.9-3.4,34.3-20.3s-1.9-9.6-3.1-11.9-3.3-1.9-3.8-3.3,1.1-6.9.9-9.9.2-1.6-2-1.5ZM1074.2,808.8c.4-.5,1.7-.6,2.2-1.2l4.5-8c-.5-.6-10.7,8.1-14.1,5.6l-1.5-3.6c-3.2,1.5-7.8,1.2-10.8,2.2s-6.8,9.9-7.5,12.5c-4.2,15.6,5.1,30.1,22.2,28.2,3.3-.4,14.8-5.1,16.6-7.6,3.4-4.7.3-10.7,0-15.9s1.8-12.5,1.9-19.4c-3,1.2-4,11-5.6,12.1s-6.5,2.2-7.8,1.9c-2.5-.7-1.7-5.1-.3-6.7ZM1246.9,810.5c-1.1-1.1-6.9-5.7-7.7-5.9-1.9-.6-3.7,1.6-5.9,1.9s-4.4-.1-6.5,0c.2,1.4,3.4,2.6,4.6,2.9,5,1.4,10.3,1.1,15.4,1.1ZM758.9,858.5c.3-4.8-3.8-13.3-8-15.5s-6.5-1-7.5-2.5c-.7-8,.2-15.4-4.6-22.4-6.6-9.7-22.2-2.5-29.3,3.3s-8.6,9-7.5,17c9.3-6.5,6.7,4.3,7,10.5s1.9,4,0,6.5c2.8.5,1.6-.6,2.2-2.2,1.1-3,6.4-13.6,6.6-14.4.4-2-1.7-8,3.7-7.4s1.3,6.8-1.5,8.7l1.5,3.4c-.2,1.7-3.6,3.1-4.3,5.7s-.6,6.1-1.7,9.3-3.7,5.8-4.5,9l17.9-19.6v-2.4c-2-.3-5.2-1.3-4.9-4,2.6,0,12.6-1.1,11.9,3.3-.7,4.3-15.3,14.8-17.9,19.7,1.9.4,2.4-1,3.5-2,2.4-2.1,9.3-10.2,11.1-10.9,3-1.1,3.2,2.1,1.9,3.9s-9.7,5.6-11.5,9c6.3-1.4,14.3-6.1,20.6-6.9s10.2.7,15.4.9ZM696.9,862.5c-.3-1.6.9-3.2,1-4.6.2-5.5-1.4-11.4-1.5-15.9,0-2,1-4.3.6-7s-5.7-9.8-8.6-11.4c-7.6-4.3-16.7-.4-21.8,5.9-3.6,4.5-7.8,14.5-5.1,19.9s10.9,8.8,13.6,10.4,7.5,4,7.9,3.6c-.7-3.7-.6-10.5,4-11-2.2-2.7-3.7-4.1-3-8h4.9c2.1,4.6,3.4,9.7,5.4,14.3s1.6,3.7,2.7,3.7ZM702.9,857c.6-4.5-.4-9.9,0-14.5-.6,0-2,1.3-2,1.5v16.5h1c-.5-1.4.9-2.8,1-3.5ZM684.9,868.6c-9.7.5-21.7-15.7-30.2-14.8s-12.8,9.4-13.7,16.4c-2.4,17.6,13.9,28.9,30.2,26.2,1-.2,6.2-1.9,6.8-2.2,1.2-.9.8-3.4,1.9-5.1,1.7-2.7,6.6-4.7,9.1-6.9s3.9-3.5,3-4.5c-5.9,1.9-12.4,5.6-18.4,5.9-3.3-1-1.1-6.3,2.8-5.9s2.4,1,4,1c2.4,0,8.5-1.4,9.6-4-2.3-.5-4.4,1-6.5,1.1s-4-1-6-1.1c-3.2-.2-6.2,1.9-9-1.9l.6-3c4.2-.5,7.5,0,11.3,1.8l4.7-2.9ZM857.6,893.3c3-3.8,7.4-14.5,7.4-19.2s-1.2-5.5-1.9-7.2c-6.4-15.5-34.5-9.9-42.7,1.8-2.2,3.2-4.8,11.5-4.5,15.4.6,9.3,10.2,14.5,11,23.6,3.8.7,1.2-3.3,1-5.5s.1-4,0-6l-3.6-1.5-.3-5c8.9-3.4,6.2,1.6,7,7.3s1.3,6.5,1.9,9.6c3.6.6,2.7-5,3.2-7.3s1.4-3.1,1.6-4.5c.4-2.7-2.8-5.1-1.8-8.2,2-.7,6.1-2.2,6.9.5s-1.8,4.6-2.7,7.2-1.2,5-1.2,7.3c2.9-1.3,2-7.1,6-5l1-5.6c5.3-1.9,6.1,2.2,4.3,6.3s-5.4,4.8-6.2,8.3l4.6-3.3c1.9-3.4,6.9-6.2,9-8.9ZM925.9,908.5c.4-4.6,4-7.7,5.9-11.6s4.4-10.5,4.1-13.8c-.8-7.7-6.7-19-14.2-21.8-15.8-5.9-26.4,4-29.5,19-1,4.9-2.7,12.1,1,16s1.9.9,2.7,1.7c2.5,2.5,4.9,5.1,7.5,7.5,1.1-1.6-.8-3.2-.6-5.5s1.5-2.5,2.6-3.5c3.2,2.4,1.4,7.5,5.5,9-.5-2.2-1.3-5.4-2.2-7.3s-4.1-3.6-3.8-5.1c.5-2.3,5.6-5,8-3.2,1.8,1.2.6,8.4,1,11s3,7.7,3,11.5c1.8.2.9-2.3,1-3.5s.3-8.5,1.5-8.5l.5,8.5,1,3.5,3-19-4,4c-.2-6.1.3-12.6,7.9-8.9,1.2,1.7-2.6,12.3-2.9,15.4s-.7,4.7,1,4.5ZM713.9,883.5l6.6,10.9c11.8,15.4,34.8-2,41.2-14.7,3-5.9,3.3-12.7-3.5-16-2.2-1.1-13.8-2.6-15.2-1.1s0,2.6-.6,3.9c-1.8,3.6-9.6,3.3-12.8,4.2s-8.3,5.2-13.7,3.8c1.2,3.4,6.1,2.5,8.4,4s.5,1.7.8,1.8c1.3.8,4.8-.8,6.4,2.2,2.1,4.2-2.8,3.8-4.3,5.3s-.9,4.9-4.8.8c-.8-.9-1.3-2.5-1.7-2.8-1.1-.9-5.2-.9-6.8-2.2ZM697.9,883.6c-1.8-1.7-7.5,7.1-8.5,8-2.9,2.9-8.7,5.7-12.5,7.5-7.5,3.4-8.7,1-5.3,11.3s14.2,15.9,24.8,17.1,23.6-7.2,26.2-18.6c1.6-6.8-3-8.1-6.2-12.4s-4.2-7.7-7.1-10.9c-.7,1.2.5,4.9,1,6,1.3,3,4.3,4.4,2.5,7.9h-4.8s-2.1-14.9-2.1-14.9c-1.8-.2-.9,2.3-1,3.5s0,3,0,4.5c-3.4.7-1.6-2.4-2-4.5s-.7-2.3-2-2.5c-.2,2.7-2.1,5.5-2.6,8s.9,2.8-.5,5.4c-3.2,5.5-9.1.9-8.7-1.7s2.3-2.4,2.9-3.4c2.1-3.1,3.7-7.1,6-10.3ZM933.9,920.5c4.3.1,9.2.5,13.4,1.1s5.2,1.9,7.1,1.8,3.8-1.6,5.9-.8l1.6,1.5c.7,2.5-2.4,4.7.6,6.4,7.8-1.2,16-6.3,19.7-13.3s2.7-15.2-2.7-21.7c-5.8-7.1-19-11.7-28-10.9-5.7.5-12.7,2.6-14.6,8.4s6.2.7,7,1.5c1,4.4-2.8,5.7-5,8.5s-4.6,6.4-7,9.5l15.5-8c3.2-.9,4-5.8,7-6.1,5.1-.5,4.4,6.3.4,7.6l1,5.8c-.7,2.5-5.8,1.3-8.3,1.8s-8.6,3.7-12.3,4.8-1.7-.5-1.4,2ZM879.7,913.3c.8-.8,5.9-7.6,6.1-8.4,1.1-4.2,1-10.2-3.8-11.9-7.3-2.6-15.8.1-22.4,3.7-2.6,3.5-12.2,9-13.6,12.4s-.3,1.6.5,1.5c1.3-2.2,3.7-1.6,5.5-2.5,2.8-1.4,3.2-5.8,8.5-4.4,2.2.6.6,4.8-.4,5.5-1.8,1.3-10.5,0-12.1,4.4l9-2c.9,3.1-1.7,4.3-2,7,7.2,3.9,19.1.1,24.7-5.3ZM815.7,896.8c-9.2-8.7-24.6,0-28.5,10.4s-3,18,4.8,22.7,14.4.9,20.2-1.7c2.7-1.2,6.2-3.6,8.7-5.3l-8.7,2.3-4.3.2.6-3,6.9-5c1.4.9,1.2,1.7.5,3,.2.3,6.1,0,6-2-2.8-1.4-15.4-3-15.9-5.6l1-3.3c4-1.3,5.7,2.2,8,3.4s7.2,1.2,10,3.5c.3-3-3.1-3.2-5-4.5s-5.2-6-.7-4.3,4.6,3.4,6.2,4.8c1.2-2-2.6-5.1-3.9-7.1s-3.4-6.3-5.9-8.6ZM896.4,920.5c3.5-.9,10.5.7,14.5,0l-10.7-2.7c-2.9,1.4-8.2-1.5-7.3-4.8,3.3-3.8,5.7-.4,8.3.7,2.1.9,4.3,1.7,6.4,2.6s2.5,2.2,3.3.7l-20-17.5c.2,9.6-10,20.1-19,22,4.9,5.8,10.7,7.2,6.8,16.2s-5.6,7-4.8,7.7c9,.8,18.2,1.3,25.5-5s2.9-3.8,4.6-5.4,8.4-6.8,4.5-5.5c-2,.6-6.5,4.2-9.5,5.5s-10.1,4.3-12,3c-2.4-1.6.2-5.1,2-6,3.1-1.6,5.3.5,7.4.3,3.7-.4,9.5-6.3,13.6-6.8.8-3.8-4.5-1.4-6.5-1.5s-7.3-.4-8-1.5c-1-.5.7-1.9,1-2ZM952.9,906.5l-4.7.8-12.3,7.2c4.6.2,8.5-3,13-3.5l4-4.5ZM293.9,961.5c7.3-2.4,8.3-10.7,11.5-16s2.9-2.3,3.3-3.7c1.4-4.6-.5-11.8-2.6-16-7.2-13.9-29.4-19.2-40.7-7.3-1.3,1.4-6.4,8.5-5.4,10,6,1.4,2.8,4.2,3.1,7.3s2.6,6.3,3,6.6c.8.6,3.5,0,4.8,1.2l4.1-15.9c10.7-.8,5.6,5.7,5,11.5s-.8,8.7-.7,11,1.2,3.2,2.6,3.5c1.9-7.1,6.6-13.6,6.4-21,1.8-1.8,3.3-1.8,5.5-.9,1.4,5.1-1.5,4.6-2.7,6.2s-6.8,16.6-7.2,18.3-.3,1.6.5,1.5l4.5-4-4,9c2.8-2.2,4.6-6,6.4-9.1s5.6-12.5,6.8-13.7,3.4-.8,4.7,0l1.2,4.8c-1.3,0-2.9-.3-4,.5s-5,7.5-5.4,8.6-1.2,2.6,0,3l5-5c2.9,2.8-7.2,8.1-5.5,10ZM225.9,935.5c.3.3,4.6-3.5,5.7-3.8,2.9-.9,8.9,2.4,11.3,4.3s5.2,6.3,7,10c.5,1,1.9-.7,2-1,.3-1.1-.9-3.4-1-5-.6-6.4,0-8.9-4.9-14.1-9.7-10-19.1-2.1-20,9.5ZM845.9,925.6c2.7,3.4,7.4,5.2,11,7.5,3.6,2.4,9.4,8.8,14.4,7.3s3.2-2.6,3.5-3.5c4-13.4-14.8-11.8-22.8-13.3,0,2.1,4,1.4,4.8,2.1s1.4,3.6-.4,3.9-7.7-4-10.5-4ZM822.1,949.4c-.2-.1-2.1-3.7-2-4.2.3-1.8,2.9-5.5,3.6-7.4s.8-4.4,1.5-6.5,2.2-1.9,1.8-3.7c-4.6,1.5-11.9,10.7-16.3,9.9-2.1-.4-3.8-3.5-6.2-.9-.4.4-2.9,5-3.2,5.8-5.5,14.2,4.7,28.8,20,26,5.1-.9,12.2-8.5,13.5-13.5s1.1-6,1.2-7.8c.4-5.9-.7-11.8-2-17.5-3.4-.8-1.6,3.2-2.1,5.4s-3.5,13.3-5.1,14.4-4.1.4-4.7,0ZM867.9,944.5c-1.6.1-3-.4-4.4-1.1-5.1-2.8-11.4-8.3-16.1-11.9-1.9-1.5-5.4-5-7.5-3.5,1.2,1.7,4,3.4,5.1,5s.8,3.1,1.1,3.4c.8.9,8.8.8,4.9,5.7s-7.6-5.8-9.6-8.5-2.1-2.6-3.4-3.1c2.4,9,2.7,17.8,1,27,3,0,5.4,1.7,8.5,2,10.6,1,17.9-5,20.5-15ZM929.9,957.5c2.2,7.8,4.7,13.1,12.8,15.7,6.1,2,10.3,2.1,16.3-.2,18.6-7.2,21.2-33.7.3-39.3-3-.8-12.3-2.8-14.9-3s-2.8.9-4.8.8-4.2-2.1-6.6-2c2.3,3.2,6.6,4.6,9.5,7s2.8,4.1,5.5,5.5,6.9-1.7,7,4-2.8,4.2-5,3-3.4-5.7-5.7-7.5c-4-3.4-10-6.7-14.3-10l6.6,13.9,4.3,5.7c-1.4,5.7-5.3,7.2-10.9,6.4ZM189.9,959.5c7.2-3.5,1-14.4-2.2-19.3-5.5-8.5-11.9-12.4-21.5-6.9s-8.8,11-9.3,16.8.8,7.6,1.1,8.8.8,1.1,1.4,1.5l6.4-.8c1.9,8.6,7.7,15.6,10.1,23.9,1.8.2,1-3.4.8-4.3-1.1-4.3-4.2-11.6-6-16s-3.8-3.9-2.3-6.7,3.8-.5,5.2-.2,3.6-1.4,5.4-.8l3,17c2.1.2.3-2.6,1.2-3.8s1.4,0,1.8-.8c.9-2,3.4-9.5.4-10.3s-6.6,2.6-5-2.1c2.6-7.5,10.7-2.4,9.6,4.1ZM924.9,930.5l6.2,19.3c1.2,3,5.5,2,4.4-1.4s-4.1-5.9-4.7-9.3l-5.8-8.7ZM275.9,948.5c1-5.4,2.7-10.3,2-16-4.1,2.1-4.4,9.2-3.8,13.3s.5,3,1.8,2.7ZM914.9,953.5c10.3-1.8,5.6,9.4,0,6.5-4.1-2.1-3.4-10.8-2.9-15s2.8-8.4,2.9-12.6c-1.6.9-4,4.4-4.6,5.9s-.2,12-5.5,8.6,1.3-6.4,2.6-8.4,2.5-2.2.9-3.1c-3.2,2.3-5.4,7.7-8.2,10s-5.5,2.9-7.3,3.5-5.5,0-6,2.1,3.2,12,4.5,14.4c5.9,10.1,23.9,20.6,33.9,10,6.3-6.7,1.2-10.9-1-17.9-1.2-4-2.2-8.7-3.2-12.8-1-4.2-.3-10.4-4.3-12.2l-2,21ZM927.9,955.5c4.2-1.8-.5-7.9-1.5-11-.8-2.3-1.1-4.6-2-7s-1.2-4-2.5-4l6,22ZM241.3,941.2c-2.8-3.3-4.9-5.1-9.8-4.6-1.1.1-4.6,1.1-5.1,1.9-4.4,6.2,8.9,27.5,13.1,33s1.4,1.9,2.4,2.1c.3-3.4-.4-7.1,0-10.4.8-6.3,6.3-10.9,2.9-17.9s-1.5-.6-1.7-1c-.5-.7-.1-1.7-.5-2.4s-1.1-.3-1.4-.6ZM342.9,950.5c1.7-1.7-4.5-7.4-6.3-8.2-9.6-4.5-23.1-1.3-28.7,7.7v.5c2.4-.8,4.1.9,3.8,3.3s-6.3,8.3-5.8,8.7c5.8.5,9.5-3.9,14.3-6.2,6.8-3.3,15.2-5.8,22.7-5.8ZM261,992.5c1.4.3,1.6-.2,2.5-1,2.9-2.5,6.2-11.5,8.6-15.4s6-7.4,8.6-11.1c-3.2-19.2-27.5-27.1-33.5-4.8-1.2,4.6-2.2,13.7-.5,18,2.9,7.1,12,7,14.2,14.3ZM206.9,954.6c-9-.2-15.5,10.2-18.7,17.7s-3.5,12.2-6.1,18c1.8,10.4,7.9,19.2,14.4,27.3.9-.8,1.7-1.6,2.3-2.6,1.3-2,4.5-7.5,5.4-9.6,1.4-3.3,1.6-8.1,3.9-11.1s2.8-1.5,2.9-2.2c1.1-6.5-2.1-18.9-3-25.9s.6-7.7-1.1-11.4ZM334.3,973.9c4.1-4.1,8.5-8.7,11.5-14s3.2-4.5.6-5.2-18.6,2.9-22.4,4.4-10,5.2-10,6c5.5,4.9,16.3,5.6,12,15.5l7-4.6c.7-.5.8-1.6,1.3-2.1ZM615.9,955.5c-3.6.3-5.5,4.1-7.5,6-8.8,8.8-18.3,19.4-23,31s-1.5,6.9-3.5,10c.6.5,10.1-3.3,11.4-4.1,2.3-1.4,3.7-4.8,6.1-6.9,5.3-4.5,10.1-4.7,13.7-12.3s2.8-7.7,2.8-8.2v-15.5ZM153.8,958.7c-1.1-1.2-10.2-1.4-12.4-1.2-13.1,1.2-25.8,17.5-24.4,30.5s2.1,7.9,3.5,10.5c4.2,7.8,17.2,19.9,25.4,11.1-4.9-1.4-9.3-.6-14-3-1.3-2.4,4.9-3.1,3-5s-2.4,1.2-3,1.5c-3.3,1.7-7-2.7-3.5-5.6s5.2,2.9,6.2,3.1c2.8.5,6.6.4,9.9.9s3.7.8,3.4-.9c-2.3-1.4-5.4-1.7-7.7-2.8s-3-2.9-3.7-2.9c-1.7-.1-5.2,1.4-7.5.7,1.9-12.5,7.5-2.3,13-.5s10.4,2,15,3.5c-2.4-3.4-7.3-5.4-10.9-7.6s-3.8-3.3-5.1-3.9c-4.2-2.1-11.2-1.4-4.5-8.5,4.5,6,10.6,10.3,17.2,13.8s4.7,2.8,5.3,2.2c.5-2.2-1.2-2.2-2.3-3.2-2.9-2.5-9.8-8.3-12.3-9.8s-3.9-.6-5.4-2.4c-2.9-3.4,1.6-6.6,4.1-3.1s.7,2.6,1.2,3.3,11.1,7.6,13.3,9.2,2.6,4.6,7.5,3l-10.6-16.9c-2.6-3.5-6.7-4.7-5.4-10.1,2.2,0,4.7.7,6-1.6-.5-1-.8-3.9-1.1-4.3ZM179.9,980.5c.3-5.5-1.3-10.6-2.8-15.7s.6-5.9-4.2-5.3c-.5,3.1,1.2,5.4,2.5,8l4.5,13ZM830.9,969.5c5.5.6,9.6-1.1,13-5.5-6.5-4.7-7.5-2.5-11.5,2.5s-2,1.2-1.5,3ZM172.9,985.5c.4-1.8-.5-2.9-1.1-4.4-1.6-3.9-4.9-11.9-7-15s-2.2-1.6-3.4-2.6c-2.5,1.6-.3,2.8.3,4.7l11.2,17.3ZM271,987.5c1.8.2,5.8,3.6,6.5,5s.1,3.8.6,5.4c.8,2.7,3.4.7,5.4.6,11.7-.6,29.5-5.1,36.4-15.6,4.7-7.2.8-8.9-5.5-12.2s-17.5-6.3-26.6-4-6.3,4.3-8.7,7.3-9,12.6-8,13.4ZM157.8,966.7h-2.9c.3.8-.7,1.8-.7,2.4,0,1,9.7,16,11.1,17.5s4.7,3.8,5.5,3l-3-7.3c-3.1-1.6-3.8-5.8-5.6-8.6s-3.9-4.1-4.6-6.9ZM638.4,986.5c-5.7-1.2-15.3.9-21.5,0-.2,1.7,2.3,1,3.5,1s6.2-1,5.5,1.5c-1.8,6-8.9,8.2-12,13.5,4.8-.4,8.3-4.5,12.7-5.8s5.8-1.1,6.8-1.1c3.3,0,6.5,5.2,4.5,7.5s-9.6,2.8-13.8,4.2c-1.3.5-2.6,1.4-1.3,2.2,5.3,1.4,10.4,0,14.6,4v3c9.5-3.2,16.7-19.7,7.4-26.5s-6-3.5-6.5-3.5ZM178.9,994.6c-11.5-.8-19.6.9-17.9,14.4.9,6.7,6.4,10.3,10.2,15.3,4.9,3.5,8.9-2.1,13.7-3.3s4.6-.5,7.1-.4c.3-1.3-.3-1.7-.8-2.7-2.1-4.1-5.7-7.7-7.9-12.1s-3.2-7.6-4.3-11.2ZM632.9,998.5l-6,1.5-8,4.5c4.4.4,9.3-1.2,13.4-2.9s.4-2.1.6-3.1ZM618.7,1009.8c-7.9-7.6-24.2-8.6-33.4-3.5-4.3,2.4-4.4,7.7-5.3,12.2,9.3.3,12,7.1,5.6,14.1s-4.3,4.2-4.6,4.4c-1.5,1-4.5.5-4,3.5,5.3,1.5,7.7,6.6,7.1,11.9,6.9,2.5,13,1.8,19.7-.6s19.7-10.2,21.8-18.3-.3-2.2-.3-3.3c.4-5.2.5-9.4-2.1-14.4s-3.8-5.3-4.5-6ZM351.9,1050.5c.8-3.7,5.8-6.9,7.3-10.3,3.3-7.4,2-26.1-2.8-32.7s-13.4,4.4-15.9,9.1c-3.7,6.8-5.3,14.2-5.6,21.9,8-3.1,11.8,1.1,14.5,8s-.6,4.7,2.4,4ZM173.9,1032.5c-4.2-3.9-10.5-12.7-15-15.4-11.5-6.9-35.8,7.7-33,22.5,16.1-1.7,32.4-2.3,48-7ZM640.9,1026.6h-9.5c-1.7.2.4,5.2,2.8,4.9l6.7-4.9ZM604.1,1058.4c5.5,3.7,10,6.4,16.6,7.9,17.6,3.8,36.1-.8,42-19.5,4.5-14.2-9.2-16.9-19.8-20.3l1,6c-1.3,1.2-13.6-2.6-14,3.5,0,1.3,13.8-.3,13,4.5-5-.8-9.4-1.2-14.5-1s-2.8.9-1.5,2c4.2-1.6,9.6,2,12.5,2s7.5-7.2,7.5.5-4.5,1.9-6.6,1.5-4.6.2-6.9,0-7.3-2.1-8.1-1.9-2,1.5-1,2l4.5,3c-4,0-7-1.4-11,0l10.6,2.9,9.4,1.1c.3,2.9-.3,6-1.9,8.5-2.5,1.7-11.9-1.2-15.1-2.1s-3-1.8-4.7-2.3-10.6-2.6-12.3-1.2v2.8ZM612.9,1053.5c5.6,1.2,11.1,4,16.8,4.8s2.9.6,4.2-1.3c0-2.4-1.8-2.2-3.4-2.6-3.3-1-9.8-2.3-13.2-2.8s-5.2-1-4.4,1.9ZM583.9,1056.5c-2.2,2.2,10.8,19.8,13,22.5,4.3,5.3,9.2,10.2,14,15,3.2,1.6,5.1-.2,5.8-3.2,4.1-16.6-7.3-24.1-20.4-30.2-4.1-1.9-7.9-3.6-12.4-4.1Z"/>
  <path d="M768.6,212.6c2-.6,3.1,1.1,4.3,2.4-1.8,1.4-3.9,5.2-6.5,4.5s-.3-6.2,2.1-6.9Z"/>
</svg>