<?xml version="1.0" encoding="UTF-8"?>
<svg id="Layer_1" xmlns="http://www.w3.org/2000/svg" version="1.1" viewBox="0 0 136.7 163.8">
  <!-- Generator: Adobe Illustrator 29.4.0, SVG Export Plug-In . SVG Version: 2.1.0 Build 152)  -->
  <g id="Layer_11" data-name="Layer_1">
    <g>
      <path d="M66.6,90c-3.5,0-8-1.7-12.3-2.6-2.3-.5-3.5-2.1-4-4.3-.2-1-.5-1.9-.7-2.9-.7-3.3-2.6-5.1-6-5.3-1.3,0-2.7-.3-3.8-.9-3.1-1.6-4.1-5.7-1.9-8.8,2.4-3.4,2.6-6.8,1.2-10.6-4-11-1-20.7,6.7-28.8,10.4-11,25.9-12.5,38.5-4.1,10.2,6.8,16,21.5,11.3,32.7-1.6,3.7-1.2,7.2,1,10.6,3,4.6.6,9.2-4.8,9.8-5.1.6-6.2,1.3-7.1,6.4-.7,4.2-3.1,6.2-7,6.9-3.5.8-7.6,1.9-11.1,1.9ZM53.1,53.3c-5.2,0-7.8,2.1-8.6,6.9-.7,4,1.4,7.6,5.3,8.7,3.3.9,6.6.7,9.7-1,2.8-1.5,4.6-5.4,4.1-8.5-.5-3.3-3-4.6-5.9-5.3-1.5-.5-3-.6-4.6-.8ZM81.2,69.3c.5,0,1.3,0,2.1,0,3.6-.5,6.4-3.5,6.6-7.1.2-4-1.9-7.6-5.3-8.3-3.7-.8-7.5-.4-10.9,1.4-2.4,1.3-3.4,3.3-3.1,6,.6,5,4.3,8,10.6,8.1ZM67,70.1c-1.4,0-2,1.5-2.5,2.4-1,1.7-1.9,3.5-2.6,5.3-.3,1-.5,2.5,0,3.1s2.2.9,3,.5c1.3-.6,2.3-.7,3.7,0s2.6.2,3-.4c.5-.8.4-2.3,0-3.3-.6-1.8-1.5-3.5-2.4-5.1-.4-.8-.8-2.5-2.2-2.5Z"/>
      <path d="M26.4,116.5c2.7.4,5,1.2,7.2,1.1,2.6,0,5.4-.3,7.7-1.4,16.6-7.6,33.1-15.4,49.6-23.1,3.3-1.5,4.8-4.5,6.5-7.4.4-.8.7-1.7,1.2-2.5,1.1-1.9,3.3-2.7,5.2-1.9,1.8.7,2.8,2.5,2.4,4.7,0,.8-.4,1.6-.4,2.5,0,2.4,1.2,3.8,3.3,4.8,2.4,1.1,3.3,3,2.6,5.2-.7,2.2-2.6,3.1-5.2,2.5-1.4-.3-2.7-.7-4.1-.9-3-.5-5.9-.4-8.8,1-16,7.5-32,15-48,22.3-3.8,1.8-6.6,4.3-8.4,8.2-.5,1.1-1,2.1-1.6,3.1-1.2,1.7-2.9,2.3-4.8,1.6-2-.7-3-2.5-2.5-4.4,1.2-4-.1-6.3-3.8-8-1.9-.9-2.3-2.8-1.7-4.8.4-1.9,2-2.6,3.6-2.6Z"/>
      <path d="M62.5,102.1c-3.3,1.6-5.9,3-8.7,4.1-.8.3-2,0-2.8-.4-3.1-1.4-6.2-2.8-9.3-4.3-3.5-1.8-7.1-2.1-10.9-1.1-.8.2-1.6.4-2.4.6-2.9.7-4.8,0-5.6-2.2-.9-2.4,0-4.3,2.7-5.6,2.8-1.4,3.5-3,2.9-6.1s.2-5,2.4-5.7,4.3.4,5.5,3.1c2.1,4.9,5.3,8.4,10.5,10.4,5.1,1.9,10,4.5,15.7,7.2Z"/>
      <path d="M72.5,115.1c2.7-1.2,5.4-2.6,8.1-3.7.7-.3,1.8,0,2.6.3,3,1.3,6,2.6,8.8,4.1,3.9,2.2,7.9,2.2,12.1,1.3.7-.2,1.5-.4,2.2-.5,2.6-.5,4.5.2,5.3,2.1.9,2.2,0,4.3-2.4,5.6,0,0-.2,0-.2,0-3,1.6-3.6,2.9-2.9,6.3.6,2.7-.2,4.7-2.2,5.5-2.2.9-4.5-.1-5.6-2.8-2.2-5.4-6-8.9-11.4-11.1-4.8-1.9-9.5-4.3-14.2-6.5-.2-.2-.2-.4-.2-.7Z"/>
    </g>
  </g>
</svg>