<?xml version="1.0" encoding="UTF-8"?>
<svg xmlns="http://www.w3.org/2000/svg" width="27.4" height="18.3" version="1.1" viewBox="0 0 27.4 18.3">
  <!-- Generator: Adobe Illustrator 28.6.0, SVG Export Plug-In . SVG Version: 1.2.0 Build 709)  -->
  <g>
    <g id="Layer_1">
      <path d="M11.2,13.5h-5.5c-.3,0-.5-.2-.5-.5v-7.8c0-.3.2-.5.5-.5h5.5c.3,0,.5.2.5.5v7.8c0,.3-.2.5-.5.5ZM6.2,12.5h4.5v-6.8h-4.5v6.8Z"/>
      <path d="M16.7,13.5c-.3,0-.5-.2-.5-.5v-7.8c0-.3.2-.5.5-.5s.5.2.5.5v7.8c0,.3-.2.5-.5.5Z"/>
    </g>
  </g>
</svg>