<?xml version="1.0" encoding="UTF-8"?>
<svg id="Layer_1" xmlns="http://www.w3.org/2000/svg" version="1.1" viewBox="0 0 157 48">
  <!-- Generator: Adobe Illustrator 29.4.0, SVG Export Plug-In . SVG Version: 2.1.0 Build 152)  -->
  <defs>
    <style>
      .st0 {
        fill: none;
        stroke: #000;
        stroke-linejoin: round;
      }
    </style>
  </defs>
  <polygon class="st0" points="93.4 8.5 93.4 12.1 78.5 31.8 63.6 12.1 63.6 8.5 93.4 8.5"/>
  <polygon class="st0" points="56.6 8.5 56.6 12.1 41.8 31.8 26.9 12.1 26.9 8.5 56.6 8.5"/>
  <polygon class="st0" points="130.1 8.5 130.1 12.1 115.3 31.8 100.4 12.1 100.4 8.5 130.1 8.5"/>
  <polygon class="st0" points="111.8 38.9 111.8 35.3 96.9 15.6 82 35.3 82 38.9 111.8 38.9"/>
  <polygon class="st0" points="148.5 38.9 148.5 35.3 133.6 15.6 118.8 35.3 118.8 38.9 148.5 38.9"/>
  <polygon class="st0" points="75 38.9 75 35.3 60.1 15.6 45.3 35.3 45.3 38.9 75 38.9"/>
  <polygon class="st0" points="38.3 38.9 38.3 35.3 23.4 15.6 8.5 35.3 8.5 38.9 38.3 38.9"/>
</svg>