<?xml version="1.0" encoding="UTF-8"?>
<svg id="Layer_2" xmlns="http://www.w3.org/2000/svg" version="1.1" viewBox="0 0 500 500">
  <!-- Generator: Adobe Illustrator 29.4.0, SVG Export Plug-In . SVG Version: 2.1.0 Build 152)  -->
  <path d="M256.45,236.28l-.33-.62c.8-.43,1.29-1.26,1.29-2.16,0-1.35-1.1-2.46-2.46-2.46-1.26,0-2.33.98-2.45,2.23l-.7-.06c.15-1.64,1.5-2.87,3.14-2.87,1.74,0,3.16,1.42,3.16,3.16,0,1.16-.64,2.23-1.66,2.78Z"/>
  <path d="M250.32,233.35c-2.01-2.7-2.04-5.81-2.04-5.94v-.4c0-1.74,1.42-3.16,3.16-3.16.91,0,1.78.39,2.38,1.08l-.53.46c-.47-.53-1.14-.84-1.85-.84-1.35,0-2.46,1.1-2.46,2.46v.4s.04,3.02,1.9,5.52l-.56.42Z"/>
  <path d="M257.25,232.61c-.63-4.28-3.9-7.15-3.93-7.18l.46-.53c.14.12,3.49,3.06,4.16,7.61l-.69.1Z"/>
  <path d="M254.95,234.63c-.62,0-1.13-.51-1.13-1.13s.51-1.13,1.13-1.13,1.13.51,1.13,1.13-.51,1.13-1.13,1.13ZM254.95,233.07c-.24,0-.43.19-.43.43s.19.43.43.43.43-.19.43-.43-.19-.43-.43-.43Z"/>
  <path d="M246.15,230.43c-.62,0-1.13-.51-1.13-1.13s.51-1.13,1.13-1.13,1.13.51,1.13,1.13-.51,1.13-1.13,1.13ZM246.15,228.87c-.24,0-.43.19-.43.43s.19.43.43.43.43-.19.43-.43-.19-.43-.43-.43Z"/>
  <path d="M230.87,237.67c-.24,0-.46-.09-.62-.25-.19-.19-.28-.46-.24-.75.03-.26.16-.52.37-.72.44-.44,1.1-.5,1.47-.13.37.37.31,1.03-.13,1.47-.2.2-.46.33-.72.37-.05,0-.09,0-.13,0ZM231.24,236.28c-.1,0-.24.06-.36.17-.17.17-.21.4-.13.48.05.05.12.04.17.04.11-.01.22-.08.31-.17.17-.17.21-.4.13-.48-.03-.03-.07-.04-.12-.04Z"/>
  <path d="M229.15,247.27c-.24,0-.46-.09-.62-.25-.37-.37-.31-1.03.13-1.47.24-.24.55-.38.85-.38h0c.24,0,.46.09.62.25.16.16.25.38.25.62,0,.3-.14.61-.38.85-.2.2-.46.33-.72.37-.05,0-.09,0-.13,0ZM229.51,245.88c-.12,0-.25.06-.36.17-.09.09-.15.21-.17.31,0,.04,0,.12.04.17s.13.04.17.04c.11-.01.22-.08.31-.17.11-.11.17-.24.17-.36,0-.04,0-.09-.04-.12s-.09-.04-.12-.04h0Z"/>
  <path d="M231.43,257.2c-.06,0-.1,0-.14-.02-.37-.12-.48-.63-.28-1.27.13-.41.34-.72.57-.84.16-.08.3-.07.39-.04.38.12.49.62.28,1.27-.13.41-.34.72-.57.85-.09.05-.17.06-.24.06Z"/>
  <path d="M237.47,265.57s-.03,0-.05,0c-.09,0-.22-.05-.34-.19-.17-.2-.24-.58-.2-1,.06-.67.37-1.09.75-1.06.09,0,.22.05.34.19.17.2.24.58.2,1-.06.65-.34,1.07-.71,1.07Z"/>
  <path d="M237.2,231.35c-.54,0-1.02-.39-1.11-.93-.05-.3.01-.6.19-.85.17-.25.43-.41.73-.47.62-.11,1.2.3,1.31.92h0c.05.3-.01.6-.19.85-.17.25-.43.41-.73.47-.07.01-.13.02-.2.02ZM237.2,229.78s-.05,0-.08,0c-.23.04-.39.27-.35.5.04.23.26.39.5.35.11-.02.21-.08.28-.18.07-.09.09-.21.07-.32h0c-.04-.21-.22-.36-.43-.36Z"/>
  <path d="M261.43,243.1c-.63,0-1.13-.39-1.13-.89s.5-.89,1.13-.89,1.13.39,1.13.89-.5.89-1.13.89ZM261.43,242.03c-.28,0-.43.14-.43.19s.15.19.43.19.43-.14.43-.19-.15-.19-.43-.19Z"/>
  <path d="M263.64,254.3c-.63,0-1.11-.34-1.11-.79s.48-.79,1.11-.79,1.11.34,1.11.79-.48.79-1.11.79ZM263.25,253.54c.06,0,.19.06.39.06.18,0,.31-.05.37-.09-.06-.04-.19-.09-.37-.09-.24,0-.38.08-.41.12,0,0,.01,0,.02,0Z"/>
  <path d="M262.35,244.23l-.16-.68c1.02-.23,1.73-.9,1.73-1.62,0-.94-1.13-1.71-2.52-1.71-.88,0-1.72.33-2.17.85l-.53-.46c.59-.68,1.6-1.09,2.7-1.09,1.78,0,3.22,1.08,3.22,2.41,0,1.07-.91,2-2.27,2.31Z"/>
  <path d="M264.62,241.98l-.69-.11c.93-5.85-.43-9.52-1.09-11.29l-.1-.27c-.53-1.44-1.07-1.83-2.54-1.83-.99,0-2.23.31-2.53,1.78,0,0-.05.25-.11.67l-.69-.1c.07-.45.12-.71.12-.71.3-1.49,1.47-2.34,3.21-2.34s2.57.58,3.2,2.29l.1.27c.68,1.82,2.09,5.61,1.13,11.64Z"/>
  <path d="M257.37,240.35c-.49-1.34-.76-2.97-.81-4.83l.7-.02c.05,1.79.3,3.34.77,4.61l-.66.24Z"/>
  <path d="M245.91,271.08c-.2,0-.3-.09-.37-.18-.13-.18-.37-.73-.43-.9l-1.7-4.89c-.54.08-1.12.18-1.6.26-.17.03-.88.26-1.5.47-1.94.65-2.13.68-2.33.61-.02,0-.22.01-.36.02-.66.04-1.35.07-1.42-.46-.04-.31.32-3.47.49-4.96-.88-.41-1.79-.78-2.04-.85-.43-.12-2.97-.82-2.97-.82l-.1-.04c-.29-.19-.96-.68-.9-1.19,0-.08-.01-.17-.04-.22-.23.04-.48-.06-.65-.17-.32-.22-.47-.55-.41-.88.09-.48,1.16-2.71,1.83-3.29l.29-.25-2.02-1.81c-.88-.9-1.91-2.06-1.91-2.57,0-.17.02-.37.05-.58.02-.18.05-.47.04-.59-1.13-.84-.95-1.61-.61-2.11.68-1.02,2.07-1.82,2.56-1.87.15-.02.32,0,.48.02.03,0,.06,0,.09.01-.32-.89-1.4-3.71-1.41-3.74-.04-.26-.14-1.16.26-1.61.15-.17.18-.28-.05-.75-.35-.69-.44-1.66.32-2.33.68-.6,1.43-1.13,2.57-.61.57.27,1.28.57,1.74.77l.03-2.49c0-.06.02-.62.66-1.07l.16-.11c.45-.3.57-.4.48-.78-.2-.92-.01-2.12.89-2.57,1-.51,1.95-.4,2.6.3.6.63,1.29,1.6,1.32,1.64.32.48.8.9.95.88.17-.03.46-.43.65-.7.23-.32.45-.62.71-.78.26-.16.55-.23.81-.29.16-.04.4-.1.45-.15.01-.03.03-.17.04-.27.07-.48.18-1.28,1.03-1.84.61-.4,1.39-.52,2.08-.32.55.16.99.51,1.2.96.39.84,1.11,4.01,1.07,4.35-.03.31-.08.84-.71,1.11-.26.11-1.94.7-2.94,1.01.18-.03.37-.06.56-.09.76-.12,1.91-.31,2.1-.39.31-.15,2.78-1.28,2.78-1.28.1-.05.65-.3,1.06-.06.07.04.15.1.24.15.11.08.32.22.4.23l.08-.07c.21-.13.43-.26.59-.55.33-.59,1.1-1.02,1.82-1.02,1.18,0,2.13.96,2.13,2.13l-.67,3.71c-.04.21-.16.4-.33.52l-.4.29c-.17.12-.37.18-.58.15l-3.88-.44,3.45,1.39,3.86.93c.15.04.28.11.38.22l.54.56s.11.08.18.08l.27-.04c.42-.28.97-.43,1.54-.43,1.29,0,2.34.79,2.34,1.77,0,.4-.18.79-.5,1.1l-2.43,2.67-1.14.25-3.59-1.95,1.75,1.98,4.21,4.09.69,1.05c.04.14.16.12.22.11.72-.11,1.84.02,2.61.75.63.59.66,1.08.57,1.38-.15.53-.74.9-1.8,1.13-3.13.66-3.71.27-3.89.14-.02-.01-1.2-.95-1.97-1.69l2.17,6.68c.1.16.36.58.35.94,0,.22.09.53.57.73.58.24,1.69,1.06,1.69,1.61,0,.43-.46,1.17-1.24,1.66-.62.38-1.93-.57-2.94-1.44-.37-.16-1.65-.75-1.99-1.33l-.11-.19c-.46-.79-.84-1.48-.88-1.98-.1.65-.19,1.55-.24,2.04-.03.31-.06.57-.08.71-.08.57-.35,4.63-.35,4.67v.18s-.37.22-.37.22l1.19,1.88-1.05.82-4.33-4.62.25-1.44.11-.08c.12-.09.24-.22.26-.28,0,0,0,0,0,0-.51.46-2.16,2.12-2.3,2.32-.14.21-1.87,2.58-2.25,3.08v1.26l-.17.1c-.41.24-.68.32-.87.32ZM244.21,265.26l1.56,4.49c.08.2.19.44.27.59.06-.02.14-.06.23-.1v-1.08l.07-.09c.6-.81,2.17-2.97,2.3-3.15.19-.29,2.08-2.16,2.4-2.45.26-.24.49-.25.64-.2.34.09.47.46.51.59.12.36-.18.7-.4.89l-.14.83,3.65,3.9.05-.04-1.23-1.95.66-.4c.05-.81.27-4.01.34-4.53.02-.14.04-.39.07-.69.17-1.68.29-2.66.47-2.99.17-.32.44-.36.64-.29.39.14.6.76.52,1.22-.05.29.55,1.33.78,1.72l.11.2c.17.31,1.1.8,1.7,1.06l.09.06c.9.79,1.95,1.44,2.18,1.4.64-.41.88-.95.88-1.05-.06-.14-.7-.73-1.26-.97-.92-.38-1-1.1-1-1.39,0-.12-.13-.39-.26-.58l-.04-.09-2.68-8.27c-.08-.25.04-.5.29-.6.24-.09.51.02.61.26.2.46.27.63.29.71.23.3,1.93,1.79,2.34,2.07.08.06.65.33,3.35-.25,1.08-.23,1.25-.54,1.27-.63.04-.16-.1-.42-.38-.69-.78-.74-1.9-.59-2.03-.57-.57.09-.89-.28-.99-.59l-.55-.81-4.18-4.05-2.17-2.44c-.22-.25-.22-.61,0-.86.23-.25.59-.28.85-.08l.66.5,3.08,1.63.67-.14,2.31-2.53c.13-.13.29-.33.29-.6,0-.58-.75-1.07-1.64-1.07-.46,0-.88.12-1.2.35l-.16.06-.4.05c-.33,0-.55-.1-.73-.29l-.54-.56-3.95-.97-3.84-1.54c-.44-.15-.72-.52-.64-.87.05-.22.28-.46.74-.4l4.46.5s.06,0,.09-.02l.4-.29s.04-.05.05-.08l.67-3.65c0-.73-.65-1.37-1.44-1.37-.52,0-1.02.34-1.21.66-.25.44-.59.65-.83.8l-.12.08c-.38.25-.8-.04-1.12-.25-.07-.05-.13-.09-.19-.12-.05-.03-.25,0-.41.09,0,0-2.47,1.14-2.78,1.28-.21.1-.85.21-2.28.45-.5.08-.97.16-1.24.21l-.2.04c-.52.11-.87.18-1.14,0-.15-.1-.24-.26-.28-.47-.03-.17.01-.34.12-.48.21-.26.63-.39,1.34-.41.26-.04,2.88-.92,3.4-1.14.23-.09.25-.23.28-.47,0-.32-.63-3.23-1.01-4.04-.12-.27-.4-.48-.76-.58-.5-.14-1.06-.05-1.51.24-.59.38-.66.92-.72,1.35-.03.22-.06.42-.16.57-.18.27-.53.35-.86.44-.22.05-.45.11-.62.21-.14.08-.33.35-.5.59-.32.45-.65.91-1.11.98-.71.12-1.43-.87-1.64-1.17,0,0-.69-.96-1.25-1.56-.58-.62-1.36-.37-1.78-.16-.61.31-.64,1.24-.52,1.8.19.86-.32,1.21-.77,1.51l-.15.1c-.34.23-.36.49-.36.5l-.05,3.53-.48-.2s-1.3-.55-2.24-.99c-.7-.32-1.12-.11-1.81.5-.6.53-.23,1.34-.15,1.5.23.45.43.98-.05,1.52-.13.15-.15.66-.11.97.03.06,1.31,3.41,1.47,3.88.09.27.01.44-.07.54-.2.24-.54.21-.84.17-.12-.01-.25-.03-.33-.02-.27.03-1.47.7-2.05,1.57-.28.41-.16.72.42,1.15l.09.07c.28.22.23.67.17,1.18-.02.18-.04.35-.04.5.05.24.92,1.27,1.69,2.06l2.59,2.32-.89.77c-.51.45-1.54,2.53-1.6,2.89,0,.01,0,.05.04.1.07.08.18.13.22.13.09-.07.29-.07.46.04.26.17.43.58.38.95.02.08.28.32.54.5.37.1,2.52.7,2.92.81.04.01,4.26,1.54,4.35,2.42.02.19-.08.36-.25.46-.35.19-.61.12-.76.02-.26-.17-.35-.5-.37-.73l-.46-.21c-.18,1.57-.41,3.67-.45,4.29.18.02.51,0,.68,0,.29-.01.46-.02.58,0,.25-.04,1.25-.37,1.93-.6.85-.28,1.39-.46,1.6-.5.29-.05,2.85-.47,3.22-.47.33,0,.52.13.62.24.1.11.2.3.16.62-.02.17-.12.31-.26.39-.09.05-.38.2-1.18-.2,0,0-.03,0-.05,0ZM245.01,264.96s0,.01,0,.02c0,0,0-.02,0-.02Z"/>
  <path d="M244.5,252.92c-.92,0-1.92-.67-2.48-1.77-.73-1.42-.45-3.03.63-3.58,1.07-.55,2.54.16,3.27,1.59h0c.73,1.42.45,3.03-.63,3.58-.25.13-.51.18-.79.18ZM243.44,248.09c-.17,0-.33.04-.47.11-.72.37-.87,1.57-.32,2.64.54,1.06,1.61,1.65,2.33,1.28.72-.37.87-1.57.32-2.64h0c-.43-.85-1.2-1.39-1.85-1.39Z"/>
  <path d="M246.22,261.6c-1.51,0-3.06-.42-4.57-1.24-2.54-1.39-4.63-3.78-5.89-6.74-1.26-2.95-1.53-6.12-.78-8.91.76-2.83,2.49-4.94,4.86-5.95,2.37-1.01,5.09-.79,7.66.61,2.54,1.39,4.63,3.78,5.89,6.74s1.53,6.12.78,8.91c-.76,2.83-2.49,4.94-4.86,5.95-.98.42-2.02.62-3.09.62ZM242.93,238.84c-.97,0-1.92.19-2.81.57-2.17.92-3.75,2.87-4.46,5.49-.72,2.65-.45,5.65.75,8.46,1.2,2.81,3.18,5.08,5.58,6.4,2.38,1.3,4.88,1.51,7.05.58,2.17-.92,3.75-2.87,4.46-5.49.72-2.65.45-5.65-.75-8.46h0c-1.2-2.81-3.18-5.08-5.58-6.4-1.4-.77-2.84-1.15-4.24-1.15Z"/>
  <path d="M248.62,230.85l-.63-.31c.19-.38.29-.81.29-1.24,0-1.43-1.06-2.59-2.36-2.59s-2.36,1.16-2.36,2.59c0,.18.02.36.05.53l-.69.13c-.04-.21-.06-.44-.06-.66,0-1.82,1.37-3.29,3.06-3.29s3.06,1.48,3.06,3.29c0,.54-.12,1.08-.36,1.55Z"/>
  <path d="M241.16,231.61c-1.81-2.57-1.13-4.24-.24-5.18.94-1,2.03-1.51,3.17-1.48,2.25.04,4.01,2.03,4.08,2.11l-.53.46s-1.63-1.84-3.57-1.87c-.95,0-1.84.41-2.64,1.26-1.03,1.1-.93,2.55.31,4.3l-.57.4Z"/>
  <path d="M235.1,232.07c-.49-.48-.76-1.1-.76-1.75,0-1.43,1.29-2.58,2.87-2.58s2.87,1.16,2.87,2.58c0,.18-.02.35-.06.53l-.68-.16c.03-.12.04-.25.04-.37,0-1.04-.97-1.88-2.17-1.88s-2.17.85-2.17,1.88c0,.46.19.91.55,1.25l-.49.5Z"/>
  <path d="M240.15,231.6c-.1-1.11-1.12-2.32-1.13-2.33l.53-.45c.05.06,1.17,1.39,1.29,2.72l-.7.07Z"/>
  <path d="M233.85,235.1c-.24-.98-.35-1.84-.36-2.55,0-2.35,1.42-3.78,1.48-3.84l.49.5s-1.27,1.29-1.27,3.34c0,.65.11,1.46.34,2.38l-.68.16Z"/>
  <path d="M228.39,238.15c-.13-.87.29-1.92,1.1-2.73.66-.66,1.39-1,2.16-1h.01c.91,0,1.83.48,2.75,1.42l-.5.49c-.78-.8-1.54-1.21-2.25-1.21-.56-.04-1.15.26-1.68.79-.65.65-1.01,1.49-.91,2.13l-.69.11Z"/>
  <path d="M229.05,240.18c-.51-.64-.65-1.9-.66-2.04l.7-.07c.03.33.19,1.27.51,1.68l-.55.44Z"/>
  <path d="M228.04,249.52c-1.31-1.01-1.23-2.56-1.01-3.25l.67.22c-.02.06-.47,1.53.77,2.48l-.43.55Z"/>
  <path d="M236.8,262.5s-.61-.25-1.19-.52c-.56-.27-4.06-2.2-4.85-2.72-.93-.61-.7-1.73-.69-1.78l.68.15-.34-.08.34.07s-.14.7.39,1.04c.75.49,4.24,2.42,4.77,2.67.55.27,1.15.5,1.15.5l-.26.65Z"/>
  <path d="M244.88,268.63s-1.2-.02-2.31-.17c-1.05-.15-4.4-.82-4.88-1-.58-.21-.81-1.08-.85-1.25l.68-.16c.07.31.26.7.41.76.36.13,3.59.8,4.74.96,1.06.15,2.21.17,2.22.17v.7Z"/>
  <path d="M247.16,271.71c-.61,0-.84-.9-.9-1.18l.69-.14c.06.27.19.58.27.63.31-.05,6.35-1.06,7.25-1.28.07-.12.15-.28.15-.29l.63.31s-.17.33-.25.46c-.24.35-7.69,1.48-7.76,1.48-.02,0-.04,0-.06,0Z"/>
  <path d="M256.36,270.54c-.18,0-.32-.06-.42-.12-.4-.25-.49-.79-.5-.85l.69-.09c.02.11.08.3.17.35.01,0,.05.03.15,0,.55-.19,6.41-3.72,8.09-5.25,1.64-1.49,4.21-3.97,4.7-4.54-.09-.17-.32-.62-.49-.92-.13-.24-.25-.47-.34-.65-.28-.56-.37-.85-.38-.88l.67-.19s.08.26.33.76c.09.17.21.4.33.63.51.96.6,1.16.6,1.32,0,.48-4.91,4.95-4.96,4.99-1.7,1.54-7.63,5.14-8.33,5.39-.12.04-.23.06-.33.06Z"/>
  <path d="M263.42,255.03c-.16,0-.31,0-.47-.02l.05-.7c.13,0,.27.01.41.01,1.59,0,2.7-.66,2.7-1.25s-1.11-1.25-2.7-1.25c-.32,0-.64.03-.93.08l-.12-.69c.34-.06.69-.09,1.06-.09,1.91,0,3.4.86,3.4,1.95s-1.49,1.95-3.4,1.95Z"/>
  <path d="M270.13,238.64l-.69-.1c.04-.3-.19-.71-.6-1.06-.49-.42-1.18-.71-1.89-.81-.84-.12-1.66-.04-2.23.23l-.29-.64c.69-.32,1.64-.42,2.62-.29.85.12,1.65.47,2.25.97.62.52.92,1.14.84,1.69Z"/>
  <path d="M266.29,254.13l-.31-.63c.83-.41,2.33-4.85,2.77-8.19.42-3.2.69-6.96.69-7l.7.05s-.27,3.82-.7,7.04c-.4,3.05-1.87,8.08-3.15,8.73Z"/>
  <path d="M261.35,249.8h-.7c0-.81.29-4.68.66-5.36l.62.33c-.23.43-.58,3.89-.58,5.04Z"/>
  <path d="M263.16,264.46c-.33,0-.64-.22-.8-.4l.52-.47c.07.08.25.2.31.16.38-.32,4.49-5.65,5.44-7.31,1.04-1.81,3.21-6.35,3.28-6.84-.02-.29-.99-1.46-1.75-1.91-.76-.45-1.42-.76-1.42-.77l.3-.63s.7.33,1.49.8c.79.47,2.09,1.85,2.09,2.53,0,.64-2.64,5.89-3.37,7.17-.89,1.57-5.21,7.24-5.66,7.55-.14.09-.28.13-.41.13Z"/>
  <path d="M263.32,263.91s-.42-.97-1.27-1.57c-.92-.63-1.51-.91-1.52-.92l.29-.63s.65.3,1.62.98c1.03.72,1.5,1.83,1.52,1.87l-.65.27Z"/>
</svg>