<?xml version="1.0" encoding="UTF-8"?>
<svg id="Layer_1" xmlns="http://www.w3.org/2000/svg" version="1.1" viewBox="0 0 1024 1024">
  <!-- Generator: Adobe Illustrator 29.4.0, SVG Export Plug-In . SVG Version: 2.1.0 Build 152)  -->
  <path d="M677.8,455.48c-2.66-10.06-3.13-21.99-5.1-32.43-4.99-26.37-16.08-53.49-40.75-66.8-.32-.41,6.03-4.45,6.74-5.04,13.6-11.37,24.17-37.85,25.01-55.34.14-2.86.29-4.68-3.11-5.06-3.85-.43-12.51,1.36-16.63,2.16-27.98,5.44-58.2,17-70.95,44.48-3.27-1.61-7.56-3.97-11.23-3-1.86.49-2.97,2.19-4.88,2.06-6.69-21.58-26.52-32.27-47.07-37.86-4.75-1.29-13.98-3.56-18.65-3.44-3.27.08-3.45,6.28-3.61,8.81-1,16.28,2.92,36.25,17.82,45.25-7.4,3.16-15.17,5.77-21.8,10.44-1.73,1.21-3.81,3.63-5.18,4.45-1.99,1.18-6,1.96-8.47,3.08-25.27,11.46-52.43,46.82-41.77,75.62.59,1.59,2.68,6.84,4.74,6.23,1.68-1.37,1.02-3.87,1.48-5.77,1.24-5.13,3.34-10.23,5.81-14.88,1.73-1.33-.24,2.04-.25,2.16-.3,3.58,0,7.87,0,11.55s4.4,13.09,6.54,16.56c1.45,2.35,4.02,3.96,3.34,6.78-2.65,10.89-19.55,25.81-31.17,23.94-1.13-.18-5.17-2.44-5.62-.57,3.29,9.22,14.4,15.26,24.03,14.64l-7.09,13.35c-5.47,13.1-3.56,29.82,9.34,37.58l1.17-.64c-.51-4.88-.95-9.36.18-14.22.15-.66.55-2.64,1.21-2.87,2.49,12.35,16.83,23.9,29.17,24.96,6.34.54,2.13-3.83,1.36-8.09-.62-3.45-.28-6.83-.16-10.31l1.38-5.11c3.4,10.99,14.21,20.5,25.99,20.68-1.3-4.17-4.4-7.83-3.84-12.51l4.58,5.28c4.92,3.97,10.67,6,17.07,5.3l-.47-5.77c1.71.7,3.43,1.65,5.16,2.29,1.78.66,4.26.77,5.42,2.03-3.96.17-7.35,3.89-10.94,4.7-5.63,1.27-13.13,1.25-19.06,2.11-2.44.35-7.49.79-9.45,1.62-2.8,1.19-2.49,3.64-3.19,4.14-.46.33-4.16.88-5.64,1.47-16.72,6.61-22.88,27.41-32.55,40.11-4.1,5.38-15.77,13.14-21.42,18.51-3.56,3.38-12.53,12.01-13.18,16.66-.83,5.99,2.15,13.38,4.64,18.73-4.83,4.75-4.38,7.23-11.08,3.51-7.19-4-19.95-16.12-23.84-23.32-2.35-4.35-3.47-12.92-5.36-18.22-7.08-19.79-22.89-29.38-31.22-47.7-4.22-9.3-6-19.4-9.63-28.89-.9-4.55-10.94-4.05-12.09-1.11-3.51,5.23-2.25,11.52-1.29,17.41,1.81,11.1,5.58,21.83,10.44,31.91.11.98-.04.63-.72.72-4.32.57-6.72.63-10.31,3.65-2.87,2.42-4.05,7.43-4.48,7.79-.42.35-2.64.55-3.59.98-5.19,2.34-4.23,5.9-6.47,9.41-.81,1.28-2.88,2.15-4,3.7-6.73,9.37-.02,26.11,11.25,28.14,1.67.3,5.41-.09,6.29.45.38.23,4.08,6.05,5.26,7.25,4.79,4.84,11.18,7.39,17.72,8.75,1.78.37,3.08-.28,4.69,1.09,3.04,2.57,8.45,12.79,11.19,16.72,11.53,16.51,32.8,43.43,54.7,44.9,8.47.57,15.46-6.95,20.96-12.75,5.4-5.71,10.21-12.25,15-18.45,1.26-.73,6.85,2.36,8.69.76l7.09-8.55,2.36,13.66-6.66,33.8c-.33,3.35,3.26,4.89,5.42,2.45l4.67-25.86c2.36,2.05,2.56,5.88,3.62,8.64.92,2.39,3.16,8.54,4.51,10.31.47.61,1.31.22,1.97.3,1.02-.97-5.02-19.53-5.73-22.41-4.37-17.56-8.42-44.65-5.67-62.37,2.52-16.27,10.62-31.33,16.23-46.57l4.24,14.27c5.38,11.81,11.56,12.84,23.69,14.87-.02,1.04.22,1.95-.51,2.85-.87,1.06-8.88,5.17-11.02,6.78-20.09,15.16-19.65,29.96-15.21,53.14.54,2.81.88,8.89,5.06,6.95,9.57-8.26,21.75-16,26.7-28.15l4.1-13.45c-.16,12.38,2.77,22.37,10.83,31.76,2.44,2.84,12.79,12.91,15.78,14.05,4.46,1.71,5.11-4.95,5.89-8.28,4.96-21.27,4.6-38.02-10.58-54.87-1.37-1.52-7.34-6.4-7.72-7.22-.63-1.35.48-2.45,1.88-2.39,1.46.06,5.14,1.54,7.33,1.86,28.07,4.05,37.94-19.91,54.72-36.34,5.41-5.29,16.91-13.6,23.45-17.69,2.83-1.77,11.58-6.86,14.5-6.44,6.94.97,12.62,10.59,15.55,16.24,7.48,14.43,9.43,29.8,21.78,41.73l6.82,10.74h-9.86c-5.48,0-15.89,4.39-20.77,7.14l-8.34,5.37c.76-8.72,3.46-21.63-.3-29.78-3.73-8.09-17.36-13.76-25.69-15.46,4.3-12.4,12.18-23.02,23.83-29.34.34-.9-.88-.96-1.44-1-10.33-.81-20.45,16.17-23.76,24.4-.76,1.9-1.66,3.85-1.51,5.95-4.56-.32-8.08,1.81-11.08,5.04-.66.71-1.85,2.95-2.01,3.04-.48.28-4.36.17-6.15.83-7.86,2.91-14.4,18.88-10.05,26.38.89,1.54,3.59,2.8,3.8,3.93.35,2.64-1.89,3.98-2.84,6.31-2.45,5.98-.35,14.25,4.52,18.45,2.2,1.9,7.23,3.23,8.43,4.56.92,1.03,1.68,4.57,2.46,6.2,2.04,4.31,5.22,7.06,9.03,9.77-1.24,5.92-5.01,15.18-4.3,21.11.36,3.03,2.84,4.43,3.28,5.86.67,2.19-.82,4.73-.05,7.76.27,1.07,4.76,10.86,5.28,11.19,3.29,2.11,5.75-.54,4.75-4.38-.62-2.37-3.73-6.94-4.02-8.99-.16-1.14.78-2.43.89-3.75.37-4.64-2.36-5.1-3.49-8.07-1.6-4.23,2.24-13.6,3-18.15,12.67,10.11,22.02,26.9,36.54,34.42,8.7,4.51,26.48,9.44,35.63,5.27,11.34-5.18,12.17-24.88,9.87-35.37-1.89-8.61-6.34-17.07-10.29-24.86,3.86-5.29,11.51-9.79,9.81-17.48-1.51-6.86-10.42-20.63-14.57-26.81-3.73-5.54-10.08-12.34-13.01-17.78-3.03-5.62-5-14.21-7.85-20.54-3-6.65-7.63-16.29-13.17-20.99-1.17-.99-3.46-1.94-4.33-2.88-1.71-1.85-1.13-2.79-4.23-4.43-6.84-3.61-17.36-4.38-24.87-6.66-.22-1.35,1.81-1.43,2.86-2.2,4.5-3.3,7.29-7.36,9.9-12.23,1.35,1.93-2.64,12.05-2.17,12.51,12.83-1.68,25.64-17.21,23.58-30.31.83.12.82.98,1.09,1.55,2.36,4.92,4.1,11,3.7,16.49-.31,4.31-2.29,8.08-2.88,12.27,15.57.92,31.01-14.89,30.8-30.31.69-.11.65.83.81,1.34,2.06,6.38,1.82,12.74,1.36,19.37,1.44,3.33,6.95-2.55,8.04-4,11.27-15.04,6.92-35.94-5.89-48.46,7.68.34,16-2.22,21.88-7.24,3.47-2.96,7.02-7.81,6.99-12.49-17.11,6.37-34.76-3.81-39.32-21.07ZM312.19,619.91c.58-2.78,2.42-5.34,5.55-4.77.87,7.66,3.34,13.9,8.93,19.22,1.29,1.23,3.59,1.49,3.39,3.88-9.94,7.34-19.6-10.02-17.86-18.33ZM315.63,646.36c-7.84-1.03-14.78-15.32-7.98-21.13,1.36,8.28,6.66,14.16,13.46,18.58-1.05,2.59-2.91,2.89-5.47,2.55ZM453.84,685.01c-.19,1.12-1.97,3.47-2.7,4.56-4.55,6.83-24.03,30.32-30.57,33.42-7.37,3.49-18.38-2.66-24.83-6.62-14.86-9.14-26.64-25.41-36.24-39.79-.89-1.34-5.78-8.33-5.95-9.01-.36-1.37.87-2.88-.31-4.22-1.8-1.31-4.09-.18-5.81-.3-4.86-.33-9.29-1.75-13.46-4.24-3.01-1.8-11.02-8.18-8.46-12.13.47-.72,7.89-4.01,8.9-4.13,2.27-.28,6.23,1.12,8.86.47-1.07,11.94,13.28,22.47,23.54,14.69l-.45-1.21c-2.44-.28-5.62.39-7.94,0-3.91-.65-8.38-4.91-9.62-8.67-3.65-11.09,6.83-2.77,12.41-4.42,2.64-.78.94-2.84-.96-3.65-1.01-.43-9.5-3.42-10.03-3.46-1.85-.12-6.07,2.19-8.7,2.35-9.41.58-10.03-7.78-3-11.69,9.53-5.3,13.79.11,22.82-.76,2.29-.22,6.73-2.16,3.22-3.74-1.71-.77-14.44-1.17-14.53-2.77,1.13-1.68,5.33-7.62,4.1-9.4-.4-.53-.76-.58-1.39-.41-2.36.65-5.74,12.58-10.9,10.52.82-1.71,3.84-4.52,3.35-6.46-.21-.82-.67-.62-1.27-.36-1.06.46-4.97,4.37-5.45,3.94-.28-1.63-3.97-11.08-5.06-11.06-.27,0-1.07.99-1.09,1.57-.09,3.56,4.92,13.39,3.49,15.75-.18.3-2.63,2.07-3.37,2.88-1.08,1.2-1.58,2.87-2.95,3.79-4.38.86-8.6-15.34-8.25-18.81.73-7.09,9.04-11.14,15.24-8.26.96.44,7.81,6.6,8.13,2.84.04-.51-5.06-7.14-5.87-8.47-5.91-9.63-12.92-29.88-12.79-41.1.05-4.65,3.61-8.77,6.5-3.13,4.39,8.55,5.7,21.19,10.08,30.34,7.99,16.72,22.47,24.74,29.14,43.52,3.44,9.69,3.06,16.39,9.63,25.02,5.03,6.59,11.39,12.2,18.12,17.01,7.73,5.52,17.04,8.88,22.3,17.16,1.11,1.74,4,8.99,5.13,9.32.53.15,1.17.2,1.63-.13,1.85-9.11-5.27-18.26-12.54-23.13,5.45-5.61,10.74-11.56,14.47-18.5,7.77,1.96,24.59,23.97,23.45,30.89ZM469.19,633.52c-2.54,7.96-5.09,16.5-5.17,24.91-7.42-10.95-16.58-20.61-29.22-25.39-1.25-.47-2.64-.6-3.79-1.03-.52-.19-.82.24-.66-.77.97-.95,1.89-1.97,2.88-2.9,4.96-4.66,13.25-9.6,17.32-14.44,4.24-5.06,8.18-14.5,12.22-20.5,2.61-3.88,5.41-7.96,8.96-11-1.11,8.06-1.81,16.16-1.46,24.32.15,3.46.53,7.98,1.12,11.39.21,1.21,1.58,4.96,1.56,5.23-.12,2.08-2.96,7.69-3.76,10.18ZM475.1,617.05l-1.47-16.1c.32-9.6-2.02-24.85,10.6-27.21.43,6.08.78,12,2.33,17.92l-11.46,25.38ZM591.54,644.48c-3.01-6.78,2.16-19.26,10.1-19.73.64,3.36-2.43,4.56-3.93,7.37-1.98,3.7-2.22,8.13-4.8,11.56-.41.55-.51.98-1.36.79ZM694.38,720.13c-2.72,16.95-14.08,14.53-27.4,10.82-21.72-6.06-28.81-22.18-44.15-36.21-3.83-3.5-8.96-3.32-12.77-7.92-3.99-4.8-3.07-7.61-3.67-13.18-.52-4.91-1.48-3.1-4.61-5.01-1.11-.68-5.31-4.71-4.75-1.52.53,3.03,3.34,3.84,4.05,5.59,1.09,2.67-3.68-.66-4.22-1.08-3.62-2.86-5.27-6.86-4.88-11.53.13-1.48,1.02-4.14,2.44-4.79,3.54-1.62,15.21,6.7,18.92,5.47,3.46-1.14-2.43-4.42-3.54-4.98-4.33-2.19-9.14-3.31-13.88-4.16-.59-18.5,14.99-5.73,23.39-4.38,3.27.53,5.41-.84,2.22-3.18-1.8-1.32-8.19-3.79-10.5-4.42-3.66-1-7.53-1.3-11.32-1.43,4.66-15.6,16.99-6.06,26.85-3.99,1.73.36,5.45.51,3.72-2.28-.57-.92-8.44-3.99-9.99-4.45-4.66-1.37-9.46-2.07-14.32-1.8,3.04-9.7,8.53-10.65,17.58-7.71,6.52,2.12,16.31,7.72,17.06,15.18,1.39,13.83-2.83,29.03-3.89,42.82,1.33,4.86,4.88-2.45,5.34-4.57.72-.2.8.19,1.2.47,4.59,3.2,8.1,7.75,13.38,10.68,7.71,4.27,16.27,3.91,24.06,8.66,1.43.87,5.41,5.3,6.85,3.3l.22-.72c.04-2.75-6.8-8.29-9.18-9.61-6.92-3.83-15.66-3.03-21.6-8.7,6.17-4.45,13.63-6.77,21.03-8.32l.85.36c6.51,16.87,18.55,33.63,15.5,52.58ZM466.29,482.9c-1.57,7.2-4.07,11.27-3.17,19.34.24,2.18,2.38,6.91,2.32,8.24-.04.87-2.9,6.7-3.4,8.58-2.69,10.01-2.51,21.32,1.43,30.95.61,1.48,2.07,3.21,2.49,4.25.71,1.76-4.07-1.05-4.48-1.3-10.93-6.61-15.85-15.29-15.93-28.06-.01-2.27,1.66-6.57-2.18-2.39-4.45,4.83-7.38,12.63-8.68,18.99-.13.13-.6-.26-.72-.48-1.51-2.7-1.59-11.43-1.14-14.62.72-5.1,3.27-11.36,5.81-15.84,1.24-2.18,9.7-12.75,9.53-13.56-.13-.61-.96-.71-1.56-.65-1.63.18-3.93,1.55-5.95,1.79-4.94.58-12.17-.71-16.07-3.79,4.68-.09,9.57-2.55,13.43-5.1,7.31-4.84,14.57-12.76,16.89-21.37,4.1,1.93,8.25,4.45,12.99,4.34-.72,3.53-.81,7.14-1.59,10.68ZM479.9,520.1c-10.59-9.42-12.75-22.18-8.17-35.37.19-.2.86.78,1.31.9,1.43.39,6.53-4.9,7.35-6.44-2.33-.56-4.43,1.75-6.27,2.87l-1.91,2.42.99-17.34c-.92-12.34-.29-32.17,5.82-43.22,2.84-5.14,10.66-3.84,15.18-1.83,2.63,1.17,4.78,3.56,7.06,4.5.58.24,1.11.48,1.28-.33-2.29-7.59-12.34-11.89-19.73-10.34,4.55-9.44,10.85-18.18,18.28-25.5-4.28,18.59,1.17,39.7,15.88,52.21,1.48,1.26,9.05,6.96,10.62,5.81,1.09-3.25-.02-7.5-.51-10.86,1.12-.31.81.26,1.1.61.8.94,1.36,2.15,2.25,3.02,1.53,1.5,9.49,7.4,11.25,6.91,2.31-.65.81-5.79.78-7.39-.29-14.73,1.49-29.71,5.79-43.82.21-.68-.31-.86.97-.71,1.37,7.83,5.46,15.4,10.02,21.9,0,1.03-10.99,7.49-11.4,10.21-.81,5.41,7.37-1.95,8.45-2.67.95-.63,5.39-3.51,6.09-3.38,7.17,7.91,16.24,15.31,26.12,19.58,2.71,1.17,6.95,1.95,9.02,3.01.77.39,5.49,4.41,5.6,4.99-.13,8.06-1.65,16.93-4.33,24.55-1.4,3.99-7.75,12.32-.01,12.5-6.16,12.67-10.37,26.47-10.82,40.66-12.33,8.28-28.03,15.62-42.88,17.75-19.15,2.74-50.91-12.54-65.15-25.2ZM567.49,419.53c2-1.59,8.33-4.52,10.58-3.38,1.02.52,8.43,17.12,11.06,19.01-8.19-3.61-15.6-9.03-21.64-15.63ZM550.64,584.08c.9,1.89,7.2-1.18,7.69-.71l-3.6,5.3c-8.77,6.49-18.87.37-27.12-3.92.53-7.29,3.12-14.86,9.07-19.42.48-.37.61-.93,1.45-.72.27,2.29-.37,5.28,0,7.46.32,1.88,2.19,3.19,3.83,1.93,2.5-2.55.56-12.48-.94-15.63,1.2-.04,1.77,1.05,3.09.95.96-.07,5.94-2.35,7.19-2.95,9.82-4.72,19.06-11.52,27.99-17.73,1.52-.2.23.99.23,1.2v12.99c0,1.03,1.81,4.16,2.88,4.81-7.13,6.69-13.46,14.18-20.06,21.31-2.29-.28-12.64,1.87-11.69,5.14ZM494.15,567.92l5.96-.91c-5.99,17.41,7.82,35.27,22.99,42.45l1.07,6.14c-18.51-7.34-34.6-26.83-30.02-47.69ZM529.47,620.42c-1.57-10.03-2.27-20.14-1.92-30.31,6.41,3.64,13.68,6.25,21.17,5.78l-19.24,24.53ZM619.92,568.69c4.02-1.97,6.04-.95,10.11.25.44.56-5.94,3.39-6.58,3.76-10.05,5.79-19.23,13.77-29.07,20.01-16.43,10.42-34.21,18.45-53.37,22.41l4.66-6.28c15.82-3.8,30.38-10.71,44.08-19.31,9.46-5.93,20.83-16.28,30.16-20.85ZM606.02,554.67l.92-4.5.95,5.77-1.87-1.27ZM620.34,548.41c-1.51,3.35-3.66,6.12-7.14,7.53-.2-5.09-1.34-10.52-3.29-15.24-5.63-13.68-5.23-.34-6.49,5.24-.57,2.51-1.31,5.09-2.98,7.11-10.7-16.13-6.62-39.18-.74-56.55.75-2.22,3.05-9.29,4.13-10.78.98-1.37,6.34-2.15,8.28-2.78,2.66-.86,5.3-1.78,7.81-3.01-1.16,3.33-.82,6.45-.96,9.86-.84,19.84,9.66,40.3,1.38,58.64ZM638.94,500.61c-3.3,3.9-8.49,7.96-13.24,9.62l-1.47-9.77c6.95-3.51,9.54-10.89,5.04-17.67l6.24-4.29c1.96,1.43,2.24,7.12,5.13,6.5,3.05-.65.94-7.97-.74-9.91-5.49-6.36-10.47,2.21-15.65,3.86l-.36-1.22c.04-.45,5.69-4.45,6.62-5.27,3.71-3.26,6.25-9.23,11.54-2.89,6.87,8.23,3.33,23.42-3.12,31.04ZM624.26,495.8v-9.38c0-.13,1.48-1.34,1.94-.98,1.83,3.32,1.3,8.12-1.94,10.37ZM682.1,489.67c-1.23-.34-6.02-3.03-6.36-1.33-.33,1.62,10.52,13.12,12.23,15.67,6.6,9.87,9.48,21.05,4.63,32.45-.33.78-.48,1.87-1.45,2.15-.01-7.73-3.88-19.84-10.35-24.53-4.25-3.08-1.72,4.16-1.5,5.87,1.53,11.83-5.51,25.17-16.05,30.69,7.75-16.14,3.08-32.27-6.35-46.34-1.15-1.71-6.78-8.41-7.05-9.34-.36-1.25,1.21-6.6,1.35-8.55.49-6.55-.55-15.06-4.61-20.4-1.78-2.34-4.74-5.25-7.9-4.86,7.18-12.89,6.27-29.84,1.33-43.43-.33-.92-3.93-10.35-5.66-8.53-.46,2.94,1.14,5.37,1.78,8.08,3.7,15.62,4.65,31.21-4.76,45-7,10.26-17.89,16.2-30.22,17.65,2.72-6.09,5.07-12.51,6.11-19.14,2.85-18.19-2.25-50.79-12.93-66.18-.62-.9-2.52-3.16-2.22-.67.66,5.53,5.08,14.76,6.76,20.67,2.47,8.69,4.16,17.77,4.2,26.83-11.43-9.28-19.12-22.82-24.41-36.45-1.31-3.37-2.32-8.5-3.61-11.3-1.23-2.68-2.34-1.06-2.25,1.24.2,5.34,2.33,11.56,3.82,16.67-1.86.34-3.89.71-5.67,1.31-1.58.53-5.73,2.82-6.83,2.32-1.53-.69-6.73-10.08-7.65-12.12-2.62-5.84-5.68-16.21-5.84-22.56-.07-2.67,1.55-5.71-.73-7.44-1.01-.21-1.78,2.08-2.02,2.78-3.1,9.26-5.94,22.09-7.68,31.77-2.03,11.24-2.48,21.85-2.08,33.29-7.16-4.84-10.44-13.72-13.92-21.31-4.06-2.76-3.57,2.94-3.39,5.66.31,4.72,1.84,9.94,2.4,14.68-.83.22-.96-.35-1.44-.72-21.65-16.63-19.59-48.21-7.3-69.86.94-1.65,4.5-6.05,4.8-7.23,1.09-4.27-4.69,1.41-5.45,2.26-3.76,4.21-5.38,9.14-8.42,13.24-2.39,3.23-7.01,6.69-9.87,9.86-16.78,18.63-28.24,40.61-27.67,66.41-1.66-1.65-2.1-4.93-2.65-7.21-.86-3.62-.99-9.08-1.89-12.06-.17-.56-.55-1.03-.99-1.41-.46.45-1.08.96-1.32,1.56-1.99,4.9,1.64,19.33,3.73,24.41,1.19,2.88,3.99,5.41,3.12,8.67-8.92-1.44-17.29-11.55-20.62-19.56-6.36-15.32,2.09-36.02,10.33-49.25.4-.74-.52-1.92-1.28-1.74-7.21,6.88-14.13,15.98-19.13,24.68-1.91,3.32-3.15,7.27-5.39,10.25.21-2.87-.29-6.08,0-8.9,1.95-19.25,22.99-41.2,39.13-50.36,6.37-3.62,10.26-3.99,16.22-8.8,6.73-5.44,32.21-12.68,41.13-13.72,35.23-4.1,81.02,13.51,99.74,44.59,1,1.67,2.02,4.87,2.94,6.11.67.9,2.15-.19,2.35-1.02.62-2.07-2.67-7.86-3.85-9.91-6.36-11.01-17.06-21.36-28.29-27.29-.13-.79.65-.45,1.19-.48,2.37-.12,4.92.2,7.25.02,5.22-.41,10.24-2,15.27-3.3,21.92,10.62,34.12,32.26,39.57,55.24,3.2,13.46,3.74,28.38,7.21,41.38,4.34,16.25,19.1,30.18,36.81,26.95-5.71,7.32-17.77,9.22-26.36,6.87Z"/>
  <path d="M539.56,741.66c-1.49,1.9-5.26-4.67-5.96-5.8-5.42-8.66-12.21-24.13-14.01-34.11-.33-1.84-1.18-3.98.5-5.3l19.47,45.2Z"/>
  <path d="M577.49,690.78c.35.2,4.08,5.42,4.92,6.37,2.76,3.13,5.56,6.35,8.4,9.4,3.65,3.91,11.02,9.83,13.72,13.71,1.33,1.92,1.54,4.33-1.29,3.26-4.2-1.6-13.14-11.32-16.28-15.04-1.65-1.96-12.72-16-10.82-17.81.45.02.95-.12,1.35.11Z"/>
  <g>
    <path d="M262.26,474.72c-.33,7.46-2.64,14.26-2.42,21.91.52,18.4,7.27,27.84,19.76,39.91.52.5,1.12.85.95,1.69-1.34,1.17-8.33-3.5-9.63-4.56-14.53-11.91-19.74-36.33-12.59-53.5.23-.55,2.94-6.59,3.93-5.44Z"/>
    <path d="M334.76,449.28c3.08-.98,11.63,4.78,14.12,6.9,11.2,9.53,16.81,25.23,15.26,39.81-.16,1.51-1.74,9.48-3.48,9.51-.69-.45-.67-.93-.75-1.66-.26-2.4.62-6.25.53-9.18-.55-18.84-10.35-34.9-26.49-44.25-.11-.53.33-.98.8-1.13Z"/>
    <path d="M268.28,437.19c.59,0,.68.52.24,1.19-1.03,1.56-3.52,3.72-4.8,5.3-13.93,17.21-15.31,26.7-17.87,48.05-.88,7.29-3.02.4-3.3-2.84-1.32-15,4.28-31.33,14.18-42.58,1.6-1.82,9.58-9.15,11.56-9.12Z"/>
    <path d="M322.41,437.66c-10.99-1.11-21.43-2.22-32.01,1.92-9.9,3.87-13.23,9.26-20.68,15.41-.54.45-.78,1.17-1.68.96,2.24-7.52,9.28-14.13,15.91-18,10.01-5.84,21.69-6.95,32.78-3.51,1.87.58,4.62,1.52,5.67,3.23Z"/>
    <path d="M348.4,516.09c-.5-.52,1.78-11.32,1.92-13.23.75-10.78-.85-19.49-5.52-29.12-1.29-2.65-3.96-4.99-3.62-8.17,4.07.64,7.09,5.74,8.84,9.2,5.43,10.75,6.42,24.14,2.44,35.53-.3.87-2.59,7.31-4.07,5.79Z"/>
    <path d="M372.45,497.81c-2.02,1.51-1.38-6.74-1.44-7.45-1.02-11.22-4.46-21.9-11.78-30.56-2.59-3.06-6.53-5.35-7.46-9.62,8.58,2.49,15.37,10.99,18.85,18.92,3.96,9.05,4.48,19.21,1.84,28.71Z"/>
    <path d="M319.04,447.29c.84.87-.92,1.12-1.38,1.14-3.9.19-8.25-.54-12.27-.13-8.02.81-14.98,4.81-21.22,9.58-2.17,1.66-4.27,4.6-6.99,5.28-1.6-1.74,6.38-10.24,7.92-11.56,7.93-6.77,18.94-9.59,29.02-6.38.64.21,4.73,1.87,4.92,2.07Z"/>
    <path d="M284.4,553.62c-13.29-.26-28.51-12.75-33.08-24.89-.48-1.27-2.25-5.36.62-3.99,7.44,12.48,18.35,22.01,31.97,27.22l.5,1.66Z"/>
    <path d="M274.29,473.75c-.94,4.68-2.84,9.15-3.71,13.85-2.19,11.96.43,21.95,3.94,33.3-2.35-1.3-4.22-4.8-5.28-7.23-3.9-8.97-4.2-20.88-1.35-30.2.99-3.24,3.02-8.49,6.39-9.73Z"/>
    <path d="M287.29,543.52c1.69-.05,11.54,1.82,11.54,3.13-1.97,2.48-6.76.84-9.1-.51-.44-.25-3.16-1.96-2.43-2.61Z"/>
  </g>
  <path d="M547.65,485.35c5.31-.12,10.79.16,12.47,6.01,3.04,10.55-2.42,36.85-14.3,40.8-1.23.41-3.83,1.15-5.19,1.51-5.19,1.36-9.16,2.1-14.38.23-10.29-3.68-19.32-24.18-19.87-34.5-.38-7.24,3.73-7.56,9.7-9.05,8.78-2.2,22.65-4.8,31.57-5Z"/>
  <path d="M567.96,457.31l5.05.95c3.23-.05,16.44,1.25,17.99,3.66.9,1.4.58,4.05-.91,4.76-2.23,1.06-13.06-1.95-16.58-2.18-3.21-.21-7.38-.13-10.63,0-2.6.1-10.29,1.79-12.04.54-2.71-1.94.27-4.39,1.97-5.8,4.72-3.91,21.15-11.19,27.15-12.3,4.36-.81,8.35.52,5.01,5.01l-17.01,5.36Z"/>
  <path d="M499.63,462.11l-11.39-5.69c-1.88-1.11-10.22-5.85-5.44-8.01,3.21-1.45,11.68,3.67,14.75,5.44,2.55,1.47,12.22,7.34,12.96,9.7,1.72,5.51-11.08,3.66-14,3.87-2.2.16-5.27.73-7.48,1.18-3.11.63-10.52,4.47-11.45-.1-.7-3.45,2.52-4.5,5.2-5.18,1.4-.36,5.29-1.2,6.5-1.2h10.35Z"/>
  <path d="M590.09,475.11c.21.91-.51,1.14-.96,1.68-1.16,1.41-8.47,8.6-10.1,6.97-.36-1.89,1.14-2.97,2.44-4.05.99-.82,7.97-5.23,8.62-4.61Z"/>
  <path d="M580.47,475.11c1.03,1.02-6.89,7.93-8.04,8.11-2.86.44-1.08-2.54.18-3.7.76-.7,7.39-4.87,7.86-4.4Z"/>
  <path d="M488.56,477.99c1.26,1.34-7.56,9.77-8.66,8.66-1.07-2.56,7.95-9.41,8.66-8.66Z"/>
  <circle cx="512.42" cy="475.14" r="2.07"/>
  <g>
    <path d="M382.84,453.78c3.54,3.27,6.56,7.84,8.84,12.09,4.12-.89,8.78-3.91,11.67.83,4.41,7.24-1.75,9.32-7.59,10.9,3.05,14.16,1.44,30.89-11.12,39.87-16.54,6.84-33.48,15.73-50.2,21.98-10.13,3.79-17.88,4.14-27.38-1.47-7.45-4.4-13.08-11.71-17.65-18.93-6.25,3.06-16.87,7.69-17.07-3.64-.13-7.15,7.9-5.82,11.98-9.18-3.4-14.36-1.01-34.65,14.39-40.98,2.91-1.2,6.21-1.5,9.05-2.5,13.93-4.87,27.91-11.4,41.83-15.91,13.19-4.28,22.97-2.54,33.25,6.96ZM385.45,467.04c.39-.42-2.64-4.25-3.12-4.81-3.14-3.7-8.18-8.15-12.76-9.85s-7.07-1.21-11.79.23c-11.96,3.64-23.95,9.38-35.96,13.12l-4.21,2.04c7.59,4.25,13.6,10.61,18.09,17.99l49.75-18.71ZM394.11,473.3c2.47-.77,6.94-.74,5.56-4.36-3.31-.97-7.43.19-5.56,4.36ZM289.7,504.57c3.04-1.19,2.57-5.43,4.06-8.2.62-1.16,1.87-2.58,2.99-3.26,2.05-1.26,10.61-3.77,12.88-3.42s5.79,3.46,7.21,5.3c4.53,5.92,7.06,19.23-.83,23.15-7.06,3.5-13.49,4.39-18.84-2.33l-2.62,1.52c6.35,10.25,18.14,23.36,31.7,18.75,14.25-4.84,13.17-27.51,9.16-38.97-4.64-13.27-24-37.65-39.21-24.28-8.55,7.51-8.44,21.48-6.5,31.75ZM316.15,511.79c1.88-6.27-.75-14.36-6.28-18.01-1.4-.92-2.98-.68-1.9.46,2.26,2.38,4.08,3.74,5.54,6.97l2.64,10.58ZM296.44,501.69c4.86-1.81,7.53-3.84,10.11,2.15,3.14,7.3.93,7.75-5.29,10.6,3.74,4.14,9.78,2.05,10.53-3.41s-1.81-11.31-6.19-14.41c-3.89-2.75-9.42.39-9.16,5.07ZM389.3,500.73l-45.37,18.39c-1.38.72-1.37,2.4-1.3,3.74.32.35,5.36-1.82,6.24-2.18,11.39-4.66,25.52-9.78,36.27-15.21,2.19-1.11,3.96-1.91,4.16-4.74ZM301.22,504.1l-20.18,7.69.97,3.85,19.44-7.26.72-.76-.94-3.52ZM386.41,507.95l-43.82,18.01-3.82,5.08c.69.14,1.18-.16,1.78-.38,11.91-4.39,28.47-11.35,39.77-17.01,2.74-1.37,4.82-2.8,6.08-5.7Z"/>
    <path d="M306.7,482.75c-2.27-2.19-3.66-8.18.56-8.94,6.81.98,5.16,14.46-.56,8.94Z"/>
    <path d="M328.54,502.24c4.2-1.12,7.47,8.57,2.67,9.95-4.23.44-6.4-8.96-2.67-9.95Z"/>
    <path d="M313.14,523.9c4.9-.74,7.06,12.67.63,8.8-3.07-1.85-4.47-8.22-.63-8.8Z"/>
  </g>
</svg>