<?xml version="1.0" encoding="UTF-8"?>
<svg id="Layer_1" xmlns="http://www.w3.org/2000/svg" version="1.1" viewBox="0 0 157 48">
  <!-- Generator: Adobe Illustrator 29.4.0, SVG Export Plug-In . SVG Version: 2.1.0 Build 152)  -->
  <path d="M79.31,32.37h-1.59l-14.87-19.65-.2-.6v-3.61l1-1h29.74l1,1v3.61l-.2.6-14.87,19.65ZM64.64,11.78l13.87,18.33,13.87-18.33v-2.27h-27.74v2.27Z"/>
  <path d="M42.57,32.37h-1.59l-14.87-19.65-.2-.6v-3.61l1-1h29.74l1,1v3.61l-.2.6-14.87,19.65ZM27.9,11.78l13.87,18.33,13.87-18.33v-2.27h-27.74v2.27Z"/>
  <path d="M116.05,32.37h-1.6l-14.87-19.65-.2-.6v-3.61l1-1h29.74l1,1v3.61l-.2.6-14.87,19.65ZM101.38,11.78l13.87,18.33,13.87-18.33v-2.27h-27.74v2.27Z"/>
  <path d="M111.76,39.88h-29.74l-1-1v-3.61l.2-.6,14.87-19.65h1.6l14.87,19.65.2.6v3.61l-1,1ZM83.01,37.88h27.74v-2.27l-13.87-18.33-13.87,18.33v2.27Z"/>
  <path d="M148.5,39.88h-29.74l-1-1v-3.61l.2-.6,14.87-19.65h1.6l14.87,19.65.2.6v3.61l-1,1ZM119.76,37.88h27.74v-2.27l-13.87-18.33-13.87,18.33v2.27Z"/>
  <path d="M75.01,39.88h-29.74l-1-1v-3.61l.2-.6,14.87-19.65h1.59l14.87,19.65.2.6v3.61l-1,1ZM46.27,37.88h27.74v-2.27l-13.87-18.33-13.87,18.33v2.27Z"/>
  <path d="M38.27,39.88H8.53l-1-1v-3.61l.2-.6,14.87-19.65h1.59l14.87,19.65.2.6v3.61l-1,1ZM9.53,37.88h27.74v-2.27l-13.87-18.33-13.87,18.33v2.27Z"/>
</svg>