<?xml version="1.0" encoding="UTF-8" standalone="no"?>
<!DOCTYPE svg PUBLIC "-//W3C//DTD SVG 1.1//EN" "http://www.w3.org/Graphics/SVG/1.1/DTD/svg11.dtd">
<svg width="100%" height="100%" viewBox="0 0 48 84" version="1.1" xmlns="http://www.w3.org/2000/svg" xmlns:xlink="http://www.w3.org/1999/xlink" xml:space="preserve" xmlns:serif="http://www.serif.com/" style="fill-rule:evenodd;clip-rule:evenodd;stroke-linecap:round;stroke-linejoin:round;">
    <g transform="matrix(1,0,0,1,-585.218,-1014.19)">
        <path d="M591.041,1039.68L588.508,1039.68L588.508,1041.55L590.718,1041.55L590.718,1042.09L588.508,1042.09L588.508,1044.5L587.746,1044.5L587.746,1039.08L591.041,1039.08L591.041,1039.68Z" style="fill:rgb(0,0,194);fill-opacity:0;"/>
    </g>
    <g transform="matrix(1,0,0,1,-585.218,-1014.19)">
        <path d="M625.857,1084.66L626.121,1084.68L626.246,1084.69L626.366,1084.7L626.481,1084.71L626.59,1084.73L626.695,1084.75L626.795,1084.77L626.89,1084.8L626.981,1084.83L627.066,1084.85L627.146,1084.88L627.222,1084.92L627.292,1084.95L627.36,1084.99L627.425,1085.03L627.488,1085.08L627.55,1085.12L627.61,1085.17L627.667,1085.22L627.723,1085.27L627.778,1085.33L627.83,1085.39L627.88,1085.45L627.929,1085.51L627.975,1085.58L628.02,1085.64L628.063,1085.71L628.104,1085.79L628.144,1085.86L628.181,1085.94L628.216,1086.02L628.248,1086.1L628.278,1086.18L628.305,1086.27L628.331,1086.36L628.354,1086.44L628.374,1086.54L628.392,1086.63L628.407,1086.73L628.421,1086.82L628.431,1086.92L628.44,1087.03L628.446,1087.13L628.449,1087.24L628.451,1087.35L628.449,1087.45L628.446,1087.55L628.441,1087.64L628.433,1087.74L628.423,1087.84L628.411,1087.93L628.397,1088.02L628.381,1088.11L628.363,1088.2L628.342,1088.29L628.319,1088.37L628.294,1088.45L628.267,1088.53L628.238,1088.61L628.207,1088.69L628.173,1088.77L628.137,1088.84L628.099,1088.91L628.059,1088.98L628.017,1089.05L627.972,1089.12L627.925,1089.18L627.876,1089.25L627.825,1089.31L627.772,1089.37L627.716,1089.42L627.659,1089.48L627.599,1089.53L627.537,1089.58L627.472,1089.63L627.406,1089.67L627.337,1089.72L627.265,1089.76L627.189,1089.8L627.109,1089.84L627.024,1089.87L626.936,1089.9L626.843,1089.93L626.746,1089.96L626.644,1089.98L626.538,1090L626.428,1090.02L626.314,1090.04L626.196,1090.05L626.073,1090.06L625.946,1090.07L625.815,1090.07L625.679,1090.07L623.961,1090.07L623.961,1089.48L625.616,1089.48L625.81,1089.47L625.902,1089.47L625.991,1089.46L626.077,1089.46L626.16,1089.45L626.24,1089.43L626.317,1089.42L626.39,1089.41L626.461,1089.39L626.529,1089.37L626.594,1089.35L626.655,1089.33L626.714,1089.31L626.769,1089.29L626.822,1089.26L626.872,1089.23L626.92,1089.2L626.967,1089.17L627.013,1089.13L627.057,1089.1L627.1,1089.06L627.142,1089.02L627.181,1088.98L627.219,1088.93L627.256,1088.89L627.291,1088.84L627.325,1088.79L627.358,1088.74L627.388,1088.69L627.418,1088.63L627.446,1088.57L627.472,1088.51L627.496,1088.45L627.519,1088.39L627.541,1088.33L627.56,1088.26L627.578,1088.19L627.594,1088.12L627.608,1088.05L627.621,1087.97L627.632,1087.9L627.641,1087.82L627.649,1087.74L627.655,1087.66L627.659,1087.58L627.662,1087.49L627.663,1087.4L627.659,1087.23L627.65,1087.06L627.635,1086.9L627.625,1086.82L627.613,1086.75L627.6,1086.67L627.585,1086.6L627.569,1086.53L627.551,1086.46L627.532,1086.39L627.511,1086.32L627.488,1086.25L627.464,1086.19L627.439,1086.13L627.411,1086.07L627.383,1086.01L627.352,1085.95L627.32,1085.9L627.287,1085.85L627.252,1085.8L627.215,1085.75L627.177,1085.7L627.137,1085.66L627.095,1085.62L627.052,1085.58L627.007,1085.54L626.961,1085.51L626.913,1085.47L626.864,1085.44L626.812,1085.41L626.756,1085.39L626.697,1085.36L626.634,1085.34L626.567,1085.32L626.497,1085.3L626.423,1085.28L626.346,1085.26L626.265,1085.25L626.18,1085.24L626.091,1085.23L625.999,1085.22L625.904,1085.21L625.804,1085.21L625.701,1085.2L625.595,1085.2L624.722,1085.2L624.722,1089.48L623.961,1089.48L623.961,1084.66L625.574,1084.66L625.857,1084.66Z" style="fill:rgb(0,0,194);fill-opacity:0;"/>
    </g>
    <g transform="matrix(1,0,0,1,-585.218,-1014.19)">
        <path d="M603.917,1084.66L604.181,1084.68L604.306,1084.69L604.425,1084.7L604.54,1084.71L604.65,1084.73L604.755,1084.75L604.855,1084.77L604.95,1084.8L605.04,1084.83L605.126,1084.85L605.206,1084.88L605.281,1084.92L605.352,1084.95L605.419,1084.99L605.484,1085.03L605.548,1085.08L605.609,1085.12L605.669,1085.17L605.727,1085.22L605.783,1085.27L605.837,1085.33L605.889,1085.39L605.94,1085.45L605.988,1085.51L606.035,1085.58L606.08,1085.64L606.123,1085.71L606.164,1085.79L606.203,1085.86L606.241,1085.94L606.275,1086.02L606.307,1086.1L606.338,1086.18L606.365,1086.27L606.39,1086.36L606.413,1086.44L606.433,1086.54L606.451,1086.63L606.467,1086.73L606.48,1086.82L606.491,1086.92L606.499,1087.03L606.505,1087.13L606.509,1087.24L606.51,1087.35L606.509,1087.45L606.506,1087.55L606.5,1087.64L606.493,1087.74L606.483,1087.84L606.471,1087.93L606.457,1088.02L606.441,1088.11L606.422,1088.2L606.402,1088.29L606.379,1088.37L606.354,1088.45L606.327,1088.53L606.298,1088.61L606.266,1088.69L606.232,1088.77L606.197,1088.84L606.159,1088.91L606.118,1088.98L606.076,1089.05L606.031,1089.12L605.985,1089.18L605.936,1089.25L605.885,1089.31L605.831,1089.37L605.776,1089.42L605.718,1089.48L605.658,1089.53L605.596,1089.58L605.532,1089.63L605.466,1089.67L605.397,1089.72L605.325,1089.76L605.249,1089.8L605.169,1089.84L605.084,1089.87L604.995,1089.9L604.902,1089.93L604.805,1089.96L604.703,1089.98L604.598,1090L604.488,1090.02L604.374,1090.04L604.255,1090.05L604.132,1090.06L604.005,1090.07L603.874,1090.07L603.739,1090.07L602.02,1090.07L602.02,1089.48L603.675,1089.48L603.869,1089.47L603.961,1089.47L604.05,1089.46L604.136,1089.46L604.219,1089.45L604.299,1089.43L604.376,1089.42L604.45,1089.41L604.521,1089.39L604.589,1089.37L604.653,1089.35L604.715,1089.33L604.773,1089.31L604.829,1089.29L604.881,1089.26L604.931,1089.23L604.98,1089.2L605.027,1089.17L605.073,1089.13L605.117,1089.1L605.16,1089.06L605.201,1089.02L605.241,1088.98L605.279,1088.93L605.316,1088.89L605.351,1088.84L605.385,1088.79L605.417,1088.74L605.448,1088.69L605.477,1088.63L605.505,1088.57L605.532,1088.51L605.556,1088.45L605.579,1088.39L605.6,1088.33L605.62,1088.26L605.637,1088.19L605.654,1088.12L605.668,1088.05L605.681,1087.97L605.691,1087.9L605.701,1087.82L605.709,1087.74L605.714,1087.66L605.719,1087.58L605.721,1087.49L605.722,1087.4L605.719,1087.23L605.71,1087.06L605.694,1086.9L605.684,1086.82L605.673,1086.75L605.659,1086.67L605.645,1086.6L605.628,1086.53L605.61,1086.46L605.591,1086.39L605.57,1086.32L605.548,1086.25L605.524,1086.19L605.498,1086.13L605.471,1086.07L605.442,1086.01L605.412,1085.95L605.38,1085.9L605.347,1085.85L605.311,1085.8L605.275,1085.75L605.236,1085.7L605.196,1085.66L605.155,1085.62L605.112,1085.58L605.067,1085.54L605.021,1085.51L604.973,1085.47L604.923,1085.44L604.871,1085.41L604.816,1085.39L604.756,1085.36L604.693,1085.34L604.627,1085.32L604.557,1085.3L604.483,1085.28L604.405,1085.26L604.324,1085.25L604.239,1085.24L604.151,1085.23L604.059,1085.22L603.963,1085.21L603.864,1085.21L603.761,1085.2L603.654,1085.2L602.782,1085.2L602.782,1089.48L602.02,1089.48L602.02,1084.66L603.633,1084.66L603.917,1084.66Z" style="fill:rgb(0,0,194);fill-opacity:0;"/>
    </g>
    <g transform="matrix(1,0,0,1,-585.218,-1014.19)">
        <path d="M627.218,1039.09L627.45,1039.09L627.66,1039.11L627.848,1039.12L628.015,1039.14L628.16,1039.16L628.283,1039.19L628.336,1039.21L628.384,1039.23L628.429,1039.25L628.472,1039.27L628.514,1039.29L628.554,1039.31L628.593,1039.33L628.631,1039.35L628.667,1039.38L628.702,1039.4L628.736,1039.43L628.768,1039.46L628.799,1039.49L628.828,1039.52L628.856,1039.55L628.883,1039.58L628.908,1039.61L628.932,1039.64L628.954,1039.68L628.975,1039.71L628.995,1039.75L629.013,1039.79L629.029,1039.82L629.044,1039.86L629.058,1039.9L629.071,1039.93L629.081,1039.97L629.091,1040.01L629.099,1040.05L629.105,1040.09L629.11,1040.13L629.114,1040.17L629.116,1040.21L629.117,1040.25L629.116,1040.3L629.113,1040.35L629.109,1040.39L629.102,1040.44L629.094,1040.49L629.084,1040.53L629.072,1040.58L629.059,1040.63L629.043,1040.67L629.026,1040.72L629.007,1040.77L628.986,1040.81L628.963,1040.86L628.939,1040.9L628.912,1040.95L628.884,1041L628.854,1041.04L628.82,1041.09L628.784,1041.13L628.744,1041.17L628.701,1041.22L628.656,1041.26L628.608,1041.3L628.556,1041.35L628.502,1041.38L628.445,1041.43L628.384,1041.46L628.321,1041.5L628.255,1041.54L628.186,1041.58L628.113,1041.62L628.038,1041.65L628.123,1041.67L628.205,1041.7L628.284,1041.72L628.36,1041.75L628.434,1041.77L628.504,1041.8L628.571,1041.83L628.635,1041.87L628.696,1041.9L628.754,1041.93L628.809,1041.97L628.862,1042.01L628.911,1042.05L628.957,1042.09L629,1042.14L629.04,1042.18L629.078,1042.23L629.113,1042.28L629.145,1042.32L629.176,1042.37L629.203,1042.42L629.229,1042.47L629.252,1042.53L629.272,1042.58L629.29,1042.63L629.306,1042.68L629.319,1042.74L629.33,1042.79L629.339,1042.85L629.345,1042.9L629.348,1042.96L629.349,1043.02L629.349,1043.07L629.346,1043.12L629.342,1043.16L629.336,1043.21L629.328,1043.26L629.319,1043.3L629.308,1043.35L629.296,1043.4L629.282,1043.44L629.266,1043.49L629.248,1043.53L629.229,1043.58L629.208,1043.62L629.186,1043.66L629.161,1043.71L629.135,1043.75L629.108,1043.79L629.079,1043.83L629.049,1043.87L629.017,1043.91L628.984,1043.95L628.949,1043.99L628.913,1044.02L628.876,1044.06L628.838,1044.09L628.798,1044.12L628.756,1044.15L628.713,1044.18L628.669,1044.21L628.623,1044.24L628.576,1044.27L628.527,1044.3L628.476,1044.32L628.42,1044.34L628.359,1044.36L628.294,1044.38L628.225,1044.4L628.151,1044.42L628.073,1044.43L627.99,1044.45L627.902,1044.46L627.811,1044.47L627.714,1044.48L627.614,1044.49L627.508,1044.49L627.398,1044.5L627.284,1044.5L627.166,1044.5L625.415,1044.5L625.415,1043.96L627.244,1043.96L627.338,1043.96L627.428,1043.95L627.513,1043.95L627.595,1043.94L627.673,1043.93L627.748,1043.92L627.818,1043.91L627.885,1043.89L627.948,1043.88L628.008,1043.86L628.063,1043.83L628.115,1043.81L628.163,1043.78L628.207,1043.76L628.247,1043.73L628.284,1043.69L628.318,1043.66L628.349,1043.63L628.378,1043.59L628.406,1043.56L628.43,1043.52L628.453,1043.49L628.474,1043.45L628.492,1043.41L628.508,1043.37L628.522,1043.33L628.534,1043.29L628.544,1043.25L628.552,1043.2L628.557,1043.16L628.56,1043.12L628.561,1043.07L628.561,1043.04L628.559,1043L628.555,1042.97L628.55,1042.93L628.544,1042.9L628.536,1042.86L628.527,1042.83L628.517,1042.8L628.504,1042.76L628.491,1042.73L628.477,1042.7L628.461,1042.66L628.443,1042.63L628.424,1042.6L628.404,1042.57L628.382,1042.54L628.359,1042.51L628.334,1042.48L628.308,1042.45L628.281,1042.42L628.252,1042.39L628.222,1042.37L628.191,1042.34L628.158,1042.32L628.124,1042.29L628.089,1042.27L628.052,1042.24L628.014,1042.22L627.974,1042.2L627.934,1042.18L627.891,1042.16L627.848,1042.14L627.802,1042.12L627.753,1042.1L627.701,1042.09L627.645,1042.07L627.587,1042.06L627.525,1042.04L627.46,1042.03L627.393,1042.02L627.322,1042.01L627.248,1042.01L627.17,1042L627.09,1041.99L627.006,1041.99L626.92,1041.99L626.83,1041.98L626.737,1041.98L626.176,1041.98L626.176,1043.96L625.415,1043.96L625.415,1041.44L626.906,1041.44L627.042,1041.43L627.169,1041.43L627.287,1041.42L627.343,1041.41L627.397,1041.4L627.448,1041.39L627.498,1041.38L627.545,1041.37L627.589,1041.36L627.632,1041.35L627.672,1041.33L627.711,1041.32L627.747,1041.3L627.782,1041.28L627.815,1041.26L627.848,1041.24L627.88,1041.22L627.911,1041.2L627.941,1041.18L627.971,1041.16L627.999,1041.13L628.027,1041.11L628.053,1041.08L628.079,1041.05L628.104,1041.03L628.127,1041L628.151,1040.97L628.173,1040.93L628.194,1040.9L628.214,1040.87L628.233,1040.84L628.251,1040.8L628.267,1040.77L628.282,1040.74L628.296,1040.7L628.308,1040.67L628.319,1040.64L628.329,1040.61L628.337,1040.57L628.344,1040.54L628.35,1040.5L628.355,1040.47L628.358,1040.43L628.36,1040.4L628.361,1040.37L628.36,1040.33L628.356,1040.29L628.351,1040.26L628.344,1040.22L628.335,1040.18L628.324,1040.15L628.311,1040.12L628.295,1040.08L628.278,1040.05L628.258,1040.02L628.237,1039.99L628.213,1039.96L628.188,1039.93L628.16,1039.9L628.13,1039.87L628.099,1039.85L628.064,1039.82L628.027,1039.8L627.986,1039.77L627.942,1039.75L627.894,1039.73L627.844,1039.71L627.79,1039.7L627.733,1039.68L627.673,1039.67L627.609,1039.66L627.543,1039.65L627.473,1039.64L627.399,1039.64L627.323,1039.63L627.243,1039.63L627.16,1039.63L626.176,1039.63L626.176,1041.44L625.415,1041.44L625.415,1039.08L626.964,1039.08L627.218,1039.09Z" style="fill:rgb(0,0,194);fill-opacity:0;"/>
    </g>
    <g transform="matrix(1,0,0,1,-585.218,-1014.19)">
        <path d="M631.196,1084.66L631.402,1084.67L631.591,1084.68L631.763,1084.7L631.918,1084.73L631.989,1084.74L632.056,1084.76L632.119,1084.77L632.178,1084.79L632.232,1084.81L632.282,1084.83L632.329,1084.86L632.375,1084.88L632.419,1084.91L632.462,1084.93L632.503,1084.96L632.543,1084.99L632.581,1085.02L632.618,1085.05L632.653,1085.09L632.687,1085.12L632.719,1085.15L632.75,1085.19L632.779,1085.23L632.807,1085.27L632.834,1085.31L632.858,1085.35L632.882,1085.39L632.904,1085.44L632.924,1085.48L632.943,1085.53L632.96,1085.57L632.976,1085.62L632.99,1085.67L633.003,1085.72L633.014,1085.77L633.024,1085.82L633.033,1085.87L633.039,1085.92L633.044,1085.98L633.048,1086.03L633.051,1086.09L633.051,1086.14L633.049,1086.24L633.042,1086.33L633.032,1086.42L633.016,1086.51L632.997,1086.59L632.973,1086.68L632.945,1086.76L632.912,1086.84L632.875,1086.92L632.834,1087L632.788,1087.07L632.738,1087.14L632.683,1087.22L632.624,1087.29L632.561,1087.35L632.493,1087.42L632.422,1087.48L632.345,1087.54L632.265,1087.59L632.18,1087.64L632.091,1087.69L631.998,1087.73L631.901,1087.77L631.799,1087.81L631.693,1087.84L631.582,1087.86L631.467,1087.88L631.349,1087.9L631.225,1087.92L631.098,1087.93L630.966,1087.93L630.83,1087.93L630.111,1087.93L630.111,1090.07L629.349,1090.07L629.349,1087.39L630.619,1087.39L630.742,1087.39L630.86,1087.39L630.973,1087.38L631.081,1087.37L631.182,1087.36L631.279,1087.34L631.37,1087.33L631.456,1087.3L631.536,1087.28L631.611,1087.25L631.68,1087.22L631.744,1087.19L631.803,1087.15L631.856,1087.12L631.904,1087.08L631.946,1087.03L631.985,1086.99L632.021,1086.94L632.054,1086.89L632.085,1086.84L632.114,1086.79L632.14,1086.74L632.163,1086.69L632.184,1086.64L632.203,1086.58L632.219,1086.53L632.233,1086.47L632.244,1086.41L632.252,1086.35L632.259,1086.29L632.262,1086.23L632.263,1086.17L632.263,1086.12L632.259,1086.06L632.255,1086.01L632.248,1085.96L632.239,1085.91L632.227,1085.87L632.214,1085.82L632.199,1085.78L632.182,1085.73L632.163,1085.69L632.142,1085.65L632.119,1085.61L632.094,1085.57L632.067,1085.54L632.038,1085.5L632.007,1085.47L631.99,1085.45L631.973,1085.44L631.935,1085.41L631.893,1085.38L631.847,1085.35L631.797,1085.33L631.744,1085.31L631.686,1085.29L631.624,1085.27L631.559,1085.25L631.489,1085.24L631.416,1085.23L631.338,1085.22L631.257,1085.21L631.171,1085.21L631.082,1085.2L630.989,1085.2L630.111,1085.2L630.111,1087.39L629.349,1087.39L629.349,1084.66L630.973,1084.66L631.196,1084.66Z" style="fill:rgb(0,0,194);fill-opacity:0;"/>
    </g>
    <g transform="matrix(1,0,0,1,-585.218,-1014.19)">
        <path d="M588.513,1065.82L585.979,1065.82L585.979,1067.53L588.19,1067.53L588.19,1068.07L585.979,1068.07L585.979,1070.05L588.714,1070.05L588.714,1070.64L585.218,1070.64L585.218,1065.23L588.513,1065.23L588.513,1065.82Z" style="fill:rgb(0,0,194);fill-opacity:0;"/>
    </g>
    <g transform="matrix(1,0,0,1,-585.218,-1014.19)">
        <path d="M611.635,1026.02L610.815,1026.02L610.212,1024.53L607.642,1024.53L606.981,1026.02L606.277,1026.02L607.173,1023.99L609.984,1023.99L608.964,1021.48L607.869,1023.99L607.173,1023.99L608.668,1020.61L609.429,1020.61L611.635,1026.02Z" style="fill:rgb(0,0,194);fill-opacity:0;"/>
    </g>
    <g transform="matrix(1,0,0,1,-585.218,-1014.19)">
        <path d="M608.147,1044.5L608.274,1044.51L608.397,1044.52L608.517,1044.54L608.635,1044.56L608.693,1044.57L608.75,1044.59L608.806,1044.6L608.861,1044.62L608.916,1044.63L608.969,1044.65L609.022,1044.67L609.074,1044.69L609.124,1044.72L609.173,1044.74L609.22,1044.77L609.266,1044.79L609.31,1044.82L609.354,1044.85L609.395,1044.88L609.436,1044.91L609.475,1044.94L609.512,1044.97L609.549,1045.01L609.583,1045.04L609.617,1045.08L609.649,1045.12L609.68,1045.16L609.708,1045.2L609.735,1045.24L609.759,1045.28L609.782,1045.31L609.802,1045.35L609.821,1045.39L609.837,1045.43L609.852,1045.47L609.865,1045.51L609.876,1045.55L609.885,1045.58L609.891,1045.62L609.896,1045.66L609.899,1045.7L609.9,1045.74L609.9,1045.78L609.202,1045.78L609.202,1045.74L609.202,1045.71L609.2,1045.69L609.197,1045.67L609.193,1045.64L609.187,1045.62L609.18,1045.6L609.172,1045.58L609.163,1045.56L609.153,1045.53L609.142,1045.51L609.129,1045.49L609.115,1045.47L609.099,1045.45L609.083,1045.43L609.065,1045.41L609.046,1045.39L609.026,1045.37L609.005,1045.35L608.984,1045.33L608.962,1045.31L608.939,1045.29L608.915,1045.28L608.891,1045.26L608.866,1045.24L608.84,1045.23L608.813,1045.21L608.786,1045.2L608.757,1045.18L608.728,1045.17L608.698,1045.16L608.668,1045.14L608.636,1045.13L608.604,1045.12L608.572,1045.11L608.539,1045.1L608.505,1045.09L608.471,1045.08L608.436,1045.08L608.401,1045.07L608.365,1045.06L608.329,1045.06L608.292,1045.05L608.255,1045.05L608.217,1045.05L608.179,1045.04L608.139,1045.04L608.1,1045.04L608.06,1045.04L607.955,1045.04L607.853,1045.05L607.755,1045.06L607.66,1045.08L607.567,1045.1L607.478,1045.13L607.392,1045.16L607.31,1045.19L607.23,1045.24L607.154,1045.28L607.08,1045.33L607.01,1045.39L606.944,1045.45L606.88,1045.51L606.819,1045.58L606.762,1045.66L606.708,1045.74L606.657,1045.82L606.61,1045.91L606.566,1046L606.526,1046.09L606.489,1046.19L606.456,1046.29L606.427,1046.39L606.4,1046.5L606.377,1046.61L606.358,1046.73L606.343,1046.85L606.33,1046.97L606.322,1047.1L606.317,1047.23L606.315,1047.36L606.317,1047.5L606.322,1047.63L606.331,1047.75L606.343,1047.87L606.36,1047.99L606.379,1048.11L606.403,1048.22L606.43,1048.33L606.46,1048.43L606.495,1048.54L606.532,1048.63L606.574,1048.73L606.619,1048.82L606.667,1048.91L606.719,1048.99L606.775,1049.07L606.834,1049.14L606.896,1049.22L606.961,1049.28L607.028,1049.34L607.099,1049.4L607.172,1049.45L607.248,1049.5L607.327,1049.54L607.41,1049.58L607.495,1049.61L607.582,1049.63L607.673,1049.66L607.767,1049.67L607.863,1049.69L607.963,1049.69L608.065,1049.7L608.127,1049.69L608.191,1049.69L608.255,1049.69L608.321,1049.68L608.388,1049.67L608.456,1049.67L608.525,1049.65L608.596,1049.64L608.74,1049.61L608.889,1049.58L609.043,1049.53L609.202,1049.48L609.202,1047.94L607.891,1047.94L607.891,1047.4L609.9,1047.4L609.9,1049.83L609.785,1049.88L609.67,1049.92L609.556,1049.97L609.443,1050.01L609.33,1050.04L609.218,1050.08L609.107,1050.11L608.996,1050.13L608.886,1050.16L608.776,1050.18L608.668,1050.2L608.56,1050.21L608.452,1050.22L608.346,1050.23L608.239,1050.24L608.134,1050.24L608.026,1050.24L607.921,1050.23L607.818,1050.22L607.719,1050.22L607.621,1050.2L607.526,1050.19L607.434,1050.17L607.344,1050.16L607.257,1050.13L607.172,1050.11L607.09,1050.08L607.011,1050.06L606.934,1050.02L606.86,1049.99L606.788,1049.95L606.719,1049.91L606.652,1049.87L606.587,1049.83L606.524,1049.78L606.462,1049.74L606.402,1049.69L606.344,1049.63L606.287,1049.58L606.232,1049.52L606.179,1049.46L606.127,1049.4L606.078,1049.34L606.03,1049.27L605.983,1049.2L605.939,1049.13L605.896,1049.06L605.854,1048.99L605.816,1048.91L605.779,1048.83L605.745,1048.75L605.714,1048.66L605.685,1048.57L605.658,1048.48L605.634,1048.39L605.613,1048.29L605.594,1048.2L605.578,1048.09L605.564,1047.99L605.552,1047.88L605.544,1047.78L605.537,1047.66L605.533,1047.55L605.532,1047.43L605.537,1047.17L605.543,1047.05L605.551,1046.93L605.562,1046.81L605.575,1046.69L605.591,1046.59L605.609,1046.48L605.629,1046.38L605.652,1046.28L605.677,1046.18L605.705,1046.09L605.735,1046.01L605.767,1045.92L605.802,1045.84L605.839,1045.77L605.878,1045.69L605.919,1045.62L605.963,1045.55L606.008,1045.49L606.055,1045.42L606.104,1045.36L606.155,1045.3L606.208,1045.24L606.263,1045.18L606.319,1045.12L606.378,1045.07L606.439,1045.02L606.501,1044.97L606.566,1044.92L606.632,1044.88L606.701,1044.84L606.771,1044.79L606.843,1044.76L606.916,1044.72L606.991,1044.69L607.068,1044.66L607.146,1044.63L607.226,1044.61L607.308,1044.58L607.391,1044.56L607.476,1044.55L607.562,1044.53L607.65,1044.52L607.739,1044.51L607.831,1044.5L607.923,1044.5L608.018,1044.5L608.147,1044.5Z" style="fill:rgb(0,0,194);fill-opacity:0;"/>
    </g>
    <g transform="matrix(1,0,0,1,-585.218,-1014.19)">
        <path d="M625.894,1064.91L626.025,1064.91L626.151,1064.93L626.273,1064.94L626.332,1064.95L626.39,1064.97L626.447,1064.98L626.503,1064.99L626.558,1065.01L626.612,1065.02L626.664,1065.04L626.716,1065.06L626.766,1065.08L626.815,1065.1L626.863,1065.12L626.909,1065.15L626.954,1065.17L626.997,1065.2L627.04,1065.23L627.081,1065.26L627.12,1065.29L627.159,1065.32L627.196,1065.36L627.231,1065.39L627.266,1065.43L627.299,1065.47L627.331,1065.51L627.361,1065.55L627.39,1065.59L627.417,1065.63L627.442,1065.68L627.465,1065.72L627.487,1065.76L627.506,1065.8L627.524,1065.84L627.54,1065.88L627.553,1065.92L627.565,1065.96L627.576,1066L627.584,1066.04L627.591,1066.08L627.595,1066.12L627.598,1066.16L627.599,1066.2L627.599,1066.23L626.901,1066.23L626.901,1066.2L626.901,1066.17L626.899,1066.15L626.896,1066.12L626.893,1066.1L626.888,1066.08L626.882,1066.05L626.875,1066.03L626.867,1066L626.858,1065.98L626.848,1065.96L626.837,1065.93L626.825,1065.91L626.812,1065.89L626.798,1065.86L626.782,1065.84L626.766,1065.82L626.749,1065.79L626.731,1065.77L626.711,1065.75L626.691,1065.73L626.671,1065.71L626.649,1065.69L626.626,1065.67L626.603,1065.65L626.578,1065.64L626.553,1065.62L626.527,1065.61L626.5,1065.59L626.472,1065.58L626.443,1065.56L626.413,1065.55L626.382,1065.54L626.351,1065.53L626.319,1065.52L626.286,1065.51L626.252,1065.5L626.217,1065.49L626.182,1065.48L626.146,1065.47L626.109,1065.47L626.071,1065.46L626.033,1065.46L625.993,1065.45L625.953,1065.45L625.912,1065.45L625.871,1065.45L625.828,1065.45L625.785,1065.45L625.675,1065.45L625.569,1065.46L625.466,1065.47L625.366,1065.49L625.271,1065.51L625.179,1065.54L625.09,1065.57L625.005,1065.61L624.923,1065.65L624.845,1065.7L624.771,1065.76L624.7,1065.82L624.633,1065.88L624.569,1065.95L624.509,1066.02L624.452,1066.1L624.399,1066.18L624.349,1066.27L624.303,1066.36L624.26,1066.45L624.221,1066.55L624.185,1066.64L624.152,1066.75L624.123,1066.85L624.097,1066.95L624.075,1067.06L624.056,1067.17L624.041,1067.29L624.029,1067.41L624.02,1067.53L624.015,1067.65L624.013,1067.77L624.015,1067.9L624.02,1068.03L624.029,1068.15L624.041,1068.26L624.056,1068.38L624.075,1068.49L624.098,1068.6L624.124,1068.71L624.153,1068.81L624.186,1068.91L624.222,1069.01L624.262,1069.1L624.305,1069.19L624.352,1069.28L624.402,1069.37L624.455,1069.45L624.512,1069.53L624.542,1069.57L624.573,1069.61L624.604,1069.64L624.636,1069.67L624.669,1069.71L624.703,1069.74L624.738,1069.77L624.774,1069.8L624.811,1069.82L624.848,1069.85L624.887,1069.87L624.926,1069.9L624.966,1069.92L625.007,1069.94L625.049,1069.96L625.092,1069.98L625.135,1070L625.179,1070.01L625.271,1070.04L625.366,1070.06L625.464,1070.08L625.566,1070.09L625.671,1070.1L625.78,1070.1L625.855,1070.1L625.926,1070.1L625.995,1070.1L626.062,1070.09L626.126,1070.08L626.187,1070.07L626.245,1070.06L626.3,1070.05L626.353,1070.03L626.403,1070.01L626.45,1069.99L626.494,1069.97L626.536,1069.95L626.575,1069.92L626.611,1069.9L626.645,1069.87L626.676,1069.84L626.705,1069.81L626.732,1069.78L626.757,1069.75L626.78,1069.72L626.801,1069.69L626.82,1069.66L626.837,1069.62L626.852,1069.59L626.865,1069.56L626.876,1069.53L626.885,1069.49L626.892,1069.46L626.897,1069.42L626.9,1069.39L626.901,1069.35L626.901,1069.32L627.599,1069.32L627.599,1069.35L627.598,1069.39L627.595,1069.43L627.591,1069.47L627.584,1069.51L627.576,1069.55L627.565,1069.59L627.553,1069.63L627.54,1069.67L627.524,1069.71L627.506,1069.76L627.487,1069.8L627.465,1069.84L627.442,1069.88L627.417,1069.92L627.39,1069.96L627.361,1070L627.331,1070.04L627.299,1070.08L627.266,1070.12L627.231,1070.16L627.196,1070.19L627.159,1070.23L627.12,1070.26L627.081,1070.29L627.04,1070.32L626.997,1070.35L626.954,1070.38L626.909,1070.4L626.863,1070.42L626.815,1070.45L626.766,1070.47L626.716,1070.49L626.664,1070.51L626.612,1070.53L626.558,1070.54L626.503,1070.56L626.447,1070.57L626.39,1070.58L626.331,1070.59L626.272,1070.61L626.211,1070.61L626.149,1070.62L626.086,1070.63L626.022,1070.63L625.956,1070.64L625.89,1070.64L625.822,1070.64L625.753,1070.64L625.616,1070.64L625.482,1070.63L625.351,1070.62L625.223,1070.6L625.099,1070.57L624.977,1070.54L624.859,1070.51L624.744,1070.46L624.632,1070.42L624.523,1070.36L624.417,1070.3L624.315,1070.24L624.216,1070.17L624.12,1070.09L624.027,1070.01L623.937,1069.93L623.851,1069.83L623.771,1069.74L623.697,1069.63L623.628,1069.52L623.565,1069.41L623.506,1069.29L623.454,1069.16L623.407,1069.03L623.366,1068.89L623.33,1068.75L623.3,1068.6L623.275,1068.45L623.256,1068.29L623.242,1068.12L623.233,1067.95L623.231,1067.77L623.233,1067.6L623.242,1067.43L623.256,1067.27L623.275,1067.11L623.299,1066.95L623.33,1066.81L623.366,1066.66L623.407,1066.53L623.453,1066.39L623.506,1066.27L623.563,1066.15L623.627,1066.03L623.695,1065.92L623.769,1065.82L623.849,1065.72L623.934,1065.63L624.024,1065.54L624.116,1065.46L624.213,1065.38L624.312,1065.31L624.415,1065.25L624.52,1065.19L624.629,1065.13L624.742,1065.09L624.858,1065.04L624.976,1065.01L625.099,1064.98L625.224,1064.95L625.353,1064.93L625.485,1064.92L625.62,1064.91L625.759,1064.9L625.894,1064.91Z" style="fill:rgb(0,0,194);fill-opacity:0;"/>
    </g>
    <g transform="matrix(1,0,0,1,-585.218,-1014.19)">
        <path d="M597.487,1059.12L596.311,1075.9L592.298,1079.62L591.66,1078.93L593.237,1058.99L595.651,1056.95L597.487,1059.12Z" style="fill:none;fill-rule:nonzero;stroke:rgb(237,0,165);stroke-width:0.49px;"/>
    </g>
    <g transform="matrix(1,0,0,1,-585.218,-1014.19)">
        <path d="M623.367,1076.01L623.522,1076.02L623.674,1076.04L623.824,1076.07L623.972,1076.1L624.116,1076.14L624.258,1076.19L624.396,1076.25L624.531,1076.31L624.662,1076.37L624.79,1076.45L624.914,1076.53L625.033,1076.61L625.148,1076.7L625.258,1076.8L625.364,1076.9L625.465,1077L625.561,1077.11L625.651,1077.23L625.736,1077.35L625.815,1077.47L625.889,1077.6L625.956,1077.73L626.017,1077.87L626.072,1078L626.12,1078.15L626.161,1078.29L626.195,1078.44L626.221,1078.59L626.241,1078.74L626.253,1078.89L626.257,1079.05L626.253,1079.21L626.241,1079.36L626.221,1079.52L626.195,1079.67L626.161,1079.81L626.12,1079.96L626.072,1080.1L626.017,1080.24L625.956,1080.37L625.889,1080.5L625.815,1080.63L625.736,1080.76L625.651,1080.87L625.561,1080.99L625.465,1081.1L625.364,1081.21L625.258,1081.31L625.148,1081.4L625.033,1081.49L624.914,1081.58L624.79,1081.66L624.662,1081.73L624.531,1081.8L624.396,1081.86L624.258,1081.91L624.116,1081.96L623.972,1082L623.824,1082.04L623.674,1082.06L623.522,1082.08L623.367,1082.09L623.21,1082.1L623.053,1082.09L622.899,1082.08L622.746,1082.06L622.596,1082.04L622.449,1082L622.304,1081.96L622.163,1081.91L622.024,1081.86L621.89,1081.8L621.758,1081.73L621.63,1081.66L621.507,1081.58L621.387,1081.49L621.272,1081.4L621.162,1081.31L621.056,1081.21L620.955,1081.1L620.859,1080.99L620.769,1080.87L620.684,1080.76L620.605,1080.63L620.531,1080.5L620.464,1080.37L620.403,1080.24L620.349,1080.1L620.301,1079.96L620.26,1079.81L620.226,1079.67L620.199,1079.52L620.179,1079.36L620.168,1079.21L620.164,1079.05L620.168,1078.89L620.179,1078.74L620.199,1078.59L620.226,1078.44L620.26,1078.29L620.301,1078.15L620.349,1078L620.403,1077.87L620.464,1077.73L620.531,1077.6L620.605,1077.47L620.684,1077.35L620.769,1077.23L620.859,1077.11L620.955,1077L621.056,1076.9L621.162,1076.8L621.272,1076.7L621.387,1076.61L621.507,1076.53L621.63,1076.45L621.758,1076.37L621.89,1076.31L622.024,1076.25L622.163,1076.19L622.304,1076.14L622.449,1076.1L622.596,1076.07L622.746,1076.04L622.899,1076.02L623.053,1076.01L623.21,1076.01L623.367,1076.01Z" style="fill:none;fill-rule:nonzero;stroke:rgb(237,0,165);stroke-width:0.49px;"/>
    </g>
    <g transform="matrix(1,0,0,1,-585.218,-1014.19)">
        <path d="M617.283,1055.32L614.945,1057.75L598.851,1057.68L596.894,1055.43L599.408,1053.13L615.364,1053.13L617.283,1055.32Z" style="fill:none;fill-rule:nonzero;stroke:rgb(237,0,165);stroke-width:0.49px;"/>
    </g>
    <g transform="matrix(1,0,0,1,-585.218,-1014.19)">
        <path d="M616.221,1080.58L616.222,1081.19L615.225,1082.09L594.323,1082.1L593.557,1081.16L596.894,1077.52L613.342,1077.46L616.221,1080.58Z" style="fill:none;fill-rule:nonzero;stroke:rgb(237,0,165);stroke-width:0.49px;"/>
    </g>
    <g transform="matrix(1,0,0,1,-585.218,-1014.19)">
        <path d="M591.041,1039.68L588.508,1039.68L588.508,1041.55L590.718,1041.55L590.718,1042.09L588.508,1042.09L588.508,1044.5L587.746,1044.5L587.746,1039.08L591.041,1039.08L591.041,1039.68Z" style="fill:rgb(141,141,141);fill-rule:nonzero;"/>
    </g>
    <g transform="matrix(1,0,0,1,-585.218,-1014.19)">
        <path d="M625.857,1084.66L626.121,1084.68L626.246,1084.69L626.366,1084.7L626.481,1084.71L626.59,1084.73L626.695,1084.75L626.795,1084.77L626.89,1084.8L626.981,1084.83L627.066,1084.85L627.146,1084.88L627.222,1084.92L627.292,1084.95L627.36,1084.99L627.425,1085.03L627.488,1085.08L627.55,1085.12L627.61,1085.17L627.667,1085.22L627.723,1085.27L627.778,1085.33L627.83,1085.39L627.88,1085.45L627.929,1085.51L627.975,1085.58L628.02,1085.64L628.063,1085.71L628.104,1085.79L628.144,1085.86L628.181,1085.94L628.216,1086.02L628.248,1086.1L628.278,1086.18L628.305,1086.27L628.331,1086.36L628.354,1086.44L628.374,1086.54L628.392,1086.63L628.407,1086.73L628.421,1086.82L628.431,1086.92L628.44,1087.03L628.446,1087.13L628.449,1087.24L628.451,1087.35L628.449,1087.45L628.446,1087.55L628.441,1087.64L628.433,1087.74L628.423,1087.84L628.411,1087.93L628.397,1088.02L628.381,1088.11L628.363,1088.2L628.342,1088.29L628.319,1088.37L628.294,1088.45L628.267,1088.53L628.238,1088.61L628.207,1088.69L628.173,1088.77L628.137,1088.84L628.099,1088.91L628.059,1088.98L628.017,1089.05L627.972,1089.12L627.925,1089.18L627.876,1089.25L627.825,1089.31L627.772,1089.37L627.716,1089.42L627.659,1089.48L627.599,1089.53L627.537,1089.58L627.472,1089.63L627.406,1089.67L627.337,1089.72L627.265,1089.76L627.189,1089.8L627.109,1089.84L627.024,1089.87L626.936,1089.9L626.843,1089.93L626.746,1089.96L626.644,1089.98L626.538,1090L626.428,1090.02L626.314,1090.04L626.196,1090.05L626.073,1090.06L625.946,1090.07L625.815,1090.07L625.679,1090.07L623.961,1090.07L623.961,1089.48L625.616,1089.48L625.81,1089.47L625.902,1089.47L625.991,1089.46L626.077,1089.46L626.16,1089.45L626.24,1089.43L626.317,1089.42L626.39,1089.41L626.461,1089.39L626.529,1089.37L626.594,1089.35L626.655,1089.33L626.714,1089.31L626.769,1089.29L626.822,1089.26L626.872,1089.23L626.92,1089.2L626.967,1089.17L627.013,1089.13L627.057,1089.1L627.1,1089.06L627.142,1089.02L627.181,1088.98L627.219,1088.93L627.256,1088.89L627.291,1088.84L627.325,1088.79L627.358,1088.74L627.388,1088.69L627.418,1088.63L627.446,1088.57L627.472,1088.51L627.496,1088.45L627.519,1088.39L627.541,1088.33L627.56,1088.26L627.578,1088.19L627.594,1088.12L627.608,1088.05L627.621,1087.97L627.632,1087.9L627.641,1087.82L627.649,1087.74L627.655,1087.66L627.659,1087.58L627.662,1087.49L627.663,1087.4L627.659,1087.23L627.65,1087.06L627.635,1086.9L627.625,1086.82L627.613,1086.75L627.6,1086.67L627.585,1086.6L627.569,1086.53L627.551,1086.46L627.532,1086.39L627.511,1086.32L627.488,1086.25L627.464,1086.19L627.439,1086.13L627.411,1086.07L627.383,1086.01L627.352,1085.95L627.32,1085.9L627.287,1085.85L627.252,1085.8L627.215,1085.75L627.177,1085.7L627.137,1085.66L627.095,1085.62L627.052,1085.58L627.007,1085.54L626.961,1085.51L626.913,1085.47L626.864,1085.44L626.812,1085.41L626.756,1085.39L626.697,1085.36L626.634,1085.34L626.567,1085.32L626.497,1085.3L626.423,1085.28L626.346,1085.26L626.265,1085.25L626.18,1085.24L626.091,1085.23L625.999,1085.22L625.904,1085.21L625.804,1085.21L625.701,1085.2L625.595,1085.2L624.722,1085.2L624.722,1089.48L623.961,1089.48L623.961,1084.66L625.574,1084.66L625.857,1084.66Z" style="fill:rgb(141,141,141);fill-rule:nonzero;"/>
    </g>
    <g transform="matrix(1,0,0,1,-585.218,-1014.19)">
        <path d="M603.917,1084.66L604.181,1084.68L604.306,1084.69L604.425,1084.7L604.54,1084.71L604.65,1084.73L604.755,1084.75L604.855,1084.77L604.95,1084.8L605.04,1084.83L605.126,1084.85L605.206,1084.88L605.281,1084.92L605.352,1084.95L605.419,1084.99L605.484,1085.03L605.548,1085.08L605.609,1085.12L605.669,1085.17L605.727,1085.22L605.783,1085.27L605.837,1085.33L605.889,1085.39L605.94,1085.45L605.988,1085.51L606.035,1085.58L606.08,1085.64L606.123,1085.71L606.164,1085.79L606.203,1085.86L606.241,1085.94L606.275,1086.02L606.307,1086.1L606.338,1086.18L606.365,1086.27L606.39,1086.36L606.413,1086.44L606.433,1086.54L606.451,1086.63L606.467,1086.73L606.48,1086.82L606.491,1086.92L606.499,1087.03L606.505,1087.13L606.509,1087.24L606.51,1087.35L606.509,1087.45L606.506,1087.55L606.5,1087.64L606.493,1087.74L606.483,1087.84L606.471,1087.93L606.457,1088.02L606.441,1088.11L606.422,1088.2L606.402,1088.29L606.379,1088.37L606.354,1088.45L606.327,1088.53L606.298,1088.61L606.266,1088.69L606.232,1088.77L606.197,1088.84L606.159,1088.91L606.118,1088.98L606.076,1089.05L606.031,1089.12L605.985,1089.18L605.936,1089.25L605.885,1089.31L605.831,1089.37L605.776,1089.42L605.718,1089.48L605.658,1089.53L605.596,1089.58L605.532,1089.63L605.466,1089.67L605.397,1089.72L605.325,1089.76L605.249,1089.8L605.169,1089.84L605.084,1089.87L604.995,1089.9L604.902,1089.93L604.805,1089.96L604.703,1089.98L604.598,1090L604.488,1090.02L604.374,1090.04L604.255,1090.05L604.132,1090.06L604.005,1090.07L603.874,1090.07L603.739,1090.07L602.02,1090.07L602.02,1089.48L603.675,1089.48L603.869,1089.47L603.961,1089.47L604.05,1089.46L604.136,1089.46L604.219,1089.45L604.299,1089.43L604.376,1089.42L604.45,1089.41L604.521,1089.39L604.589,1089.37L604.653,1089.35L604.715,1089.33L604.773,1089.31L604.829,1089.29L604.881,1089.26L604.931,1089.23L604.98,1089.2L605.027,1089.17L605.073,1089.13L605.117,1089.1L605.16,1089.06L605.201,1089.02L605.241,1088.98L605.279,1088.93L605.316,1088.89L605.351,1088.84L605.385,1088.79L605.417,1088.74L605.448,1088.69L605.477,1088.63L605.505,1088.57L605.532,1088.51L605.556,1088.45L605.579,1088.39L605.6,1088.33L605.62,1088.26L605.637,1088.19L605.654,1088.12L605.668,1088.05L605.681,1087.97L605.691,1087.9L605.701,1087.82L605.709,1087.74L605.714,1087.66L605.719,1087.58L605.721,1087.49L605.722,1087.4L605.719,1087.23L605.71,1087.06L605.694,1086.9L605.684,1086.82L605.673,1086.75L605.659,1086.67L605.645,1086.6L605.628,1086.53L605.61,1086.46L605.591,1086.39L605.57,1086.32L605.548,1086.25L605.524,1086.19L605.498,1086.13L605.471,1086.07L605.442,1086.01L605.412,1085.95L605.38,1085.9L605.347,1085.85L605.311,1085.8L605.275,1085.75L605.236,1085.7L605.196,1085.66L605.155,1085.62L605.112,1085.58L605.067,1085.54L605.021,1085.51L604.973,1085.47L604.923,1085.44L604.871,1085.41L604.816,1085.39L604.756,1085.36L604.693,1085.34L604.627,1085.32L604.557,1085.3L604.483,1085.28L604.405,1085.26L604.324,1085.25L604.239,1085.24L604.151,1085.23L604.059,1085.22L603.963,1085.21L603.864,1085.21L603.761,1085.2L603.654,1085.2L602.782,1085.2L602.782,1089.48L602.02,1089.48L602.02,1084.66L603.633,1084.66L603.917,1084.66Z" style="fill:rgb(141,141,141);fill-rule:nonzero;"/>
    </g>
    <g transform="matrix(1,0,0,1,-585.218,-1014.19)">
        <path d="M627.218,1039.09L627.45,1039.09L627.66,1039.11L627.848,1039.12L628.015,1039.14L628.16,1039.16L628.283,1039.19L628.336,1039.21L628.384,1039.23L628.429,1039.25L628.472,1039.27L628.514,1039.29L628.554,1039.31L628.593,1039.33L628.631,1039.35L628.667,1039.38L628.702,1039.4L628.736,1039.43L628.768,1039.46L628.799,1039.49L628.828,1039.52L628.856,1039.55L628.883,1039.58L628.908,1039.61L628.932,1039.64L628.954,1039.68L628.975,1039.71L628.995,1039.75L629.013,1039.79L629.029,1039.82L629.044,1039.86L629.058,1039.9L629.071,1039.93L629.081,1039.97L629.091,1040.01L629.099,1040.05L629.105,1040.09L629.11,1040.13L629.114,1040.17L629.116,1040.21L629.117,1040.25L629.116,1040.3L629.113,1040.35L629.109,1040.39L629.102,1040.44L629.094,1040.49L629.084,1040.53L629.072,1040.58L629.059,1040.63L629.043,1040.67L629.026,1040.72L629.007,1040.77L628.986,1040.81L628.963,1040.86L628.939,1040.9L628.912,1040.95L628.884,1041L628.854,1041.04L628.82,1041.09L628.784,1041.13L628.744,1041.17L628.701,1041.22L628.656,1041.26L628.608,1041.3L628.556,1041.35L628.502,1041.38L628.445,1041.43L628.384,1041.46L628.321,1041.5L628.255,1041.54L628.186,1041.58L628.113,1041.62L628.038,1041.65L628.123,1041.67L628.205,1041.7L628.284,1041.72L628.36,1041.75L628.434,1041.77L628.504,1041.8L628.571,1041.83L628.635,1041.87L628.696,1041.9L628.754,1041.93L628.809,1041.97L628.862,1042.01L628.911,1042.05L628.957,1042.09L629,1042.14L629.04,1042.18L629.078,1042.23L629.113,1042.28L629.145,1042.32L629.176,1042.37L629.203,1042.42L629.229,1042.47L629.252,1042.53L629.272,1042.58L629.29,1042.63L629.306,1042.68L629.319,1042.74L629.33,1042.79L629.339,1042.85L629.345,1042.9L629.348,1042.96L629.349,1043.02L629.349,1043.07L629.346,1043.12L629.342,1043.16L629.336,1043.21L629.328,1043.26L629.319,1043.3L629.308,1043.35L629.296,1043.4L629.282,1043.44L629.266,1043.49L629.248,1043.53L629.229,1043.58L629.208,1043.62L629.186,1043.66L629.161,1043.71L629.135,1043.75L629.108,1043.79L629.079,1043.83L629.049,1043.87L629.017,1043.91L628.984,1043.95L628.949,1043.99L628.913,1044.02L628.876,1044.06L628.838,1044.09L628.798,1044.12L628.756,1044.15L628.713,1044.18L628.669,1044.21L628.623,1044.24L628.576,1044.27L628.527,1044.3L628.476,1044.32L628.42,1044.34L628.359,1044.36L628.294,1044.38L628.225,1044.4L628.151,1044.42L628.073,1044.43L627.99,1044.45L627.902,1044.46L627.811,1044.47L627.714,1044.48L627.614,1044.49L627.508,1044.49L627.398,1044.5L627.284,1044.5L627.166,1044.5L625.415,1044.5L625.415,1043.96L627.244,1043.96L627.338,1043.96L627.428,1043.95L627.513,1043.95L627.595,1043.94L627.673,1043.93L627.748,1043.92L627.818,1043.91L627.885,1043.89L627.948,1043.88L628.008,1043.86L628.063,1043.83L628.115,1043.81L628.163,1043.78L628.207,1043.76L628.247,1043.73L628.284,1043.69L628.318,1043.66L628.349,1043.63L628.378,1043.59L628.406,1043.56L628.43,1043.52L628.453,1043.49L628.474,1043.45L628.492,1043.41L628.508,1043.37L628.522,1043.33L628.534,1043.29L628.544,1043.25L628.552,1043.2L628.557,1043.16L628.56,1043.12L628.561,1043.07L628.561,1043.04L628.559,1043L628.555,1042.97L628.55,1042.93L628.544,1042.9L628.536,1042.86L628.527,1042.83L628.517,1042.8L628.504,1042.76L628.491,1042.73L628.477,1042.7L628.461,1042.66L628.443,1042.63L628.424,1042.6L628.404,1042.57L628.382,1042.54L628.359,1042.51L628.334,1042.48L628.308,1042.45L628.281,1042.42L628.252,1042.39L628.222,1042.37L628.191,1042.34L628.158,1042.32L628.124,1042.29L628.089,1042.27L628.052,1042.24L628.014,1042.22L627.974,1042.2L627.934,1042.18L627.891,1042.16L627.848,1042.14L627.802,1042.12L627.753,1042.1L627.701,1042.09L627.645,1042.07L627.587,1042.06L627.525,1042.04L627.46,1042.03L627.393,1042.02L627.322,1042.01L627.248,1042.01L627.17,1042L627.09,1041.99L627.006,1041.99L626.92,1041.99L626.83,1041.98L626.737,1041.98L626.176,1041.98L626.176,1043.96L625.415,1043.96L625.415,1041.44L626.906,1041.44L627.042,1041.43L627.169,1041.43L627.287,1041.42L627.343,1041.41L627.397,1041.4L627.448,1041.39L627.498,1041.38L627.545,1041.37L627.589,1041.36L627.632,1041.35L627.672,1041.33L627.711,1041.32L627.747,1041.3L627.782,1041.28L627.815,1041.26L627.848,1041.24L627.88,1041.22L627.911,1041.2L627.941,1041.18L627.971,1041.16L627.999,1041.13L628.027,1041.11L628.053,1041.08L628.079,1041.05L628.104,1041.03L628.127,1041L628.151,1040.97L628.173,1040.93L628.194,1040.9L628.214,1040.87L628.233,1040.84L628.251,1040.8L628.267,1040.77L628.282,1040.74L628.296,1040.7L628.308,1040.67L628.319,1040.64L628.329,1040.61L628.337,1040.57L628.344,1040.54L628.35,1040.5L628.355,1040.47L628.358,1040.43L628.36,1040.4L628.361,1040.37L628.36,1040.33L628.356,1040.29L628.351,1040.26L628.344,1040.22L628.335,1040.18L628.324,1040.15L628.311,1040.12L628.295,1040.08L628.278,1040.05L628.258,1040.02L628.237,1039.99L628.213,1039.96L628.188,1039.93L628.16,1039.9L628.13,1039.87L628.099,1039.85L628.064,1039.82L628.027,1039.8L627.986,1039.77L627.942,1039.75L627.894,1039.73L627.844,1039.71L627.79,1039.7L627.733,1039.68L627.673,1039.67L627.609,1039.66L627.543,1039.65L627.473,1039.64L627.399,1039.64L627.323,1039.63L627.243,1039.63L627.16,1039.63L626.176,1039.63L626.176,1041.44L625.415,1041.44L625.415,1039.08L626.964,1039.08L627.218,1039.09Z" style="fill:rgb(141,141,141);fill-rule:nonzero;"/>
    </g>
    <g transform="matrix(1,0,0,1,-585.218,-1014.19)">
        <path d="M631.196,1084.66L631.402,1084.67L631.591,1084.68L631.763,1084.7L631.918,1084.73L631.989,1084.74L632.056,1084.76L632.119,1084.77L632.178,1084.79L632.232,1084.81L632.282,1084.83L632.329,1084.86L632.375,1084.88L632.419,1084.91L632.462,1084.93L632.503,1084.96L632.543,1084.99L632.581,1085.02L632.618,1085.05L632.653,1085.09L632.687,1085.12L632.719,1085.15L632.75,1085.19L632.779,1085.23L632.807,1085.27L632.834,1085.31L632.858,1085.35L632.882,1085.39L632.904,1085.44L632.924,1085.48L632.943,1085.53L632.96,1085.57L632.976,1085.62L632.99,1085.67L633.003,1085.72L633.014,1085.77L633.024,1085.82L633.033,1085.87L633.039,1085.92L633.044,1085.98L633.048,1086.03L633.051,1086.09L633.051,1086.14L633.049,1086.24L633.042,1086.33L633.032,1086.42L633.016,1086.51L632.997,1086.59L632.973,1086.68L632.945,1086.76L632.912,1086.84L632.875,1086.92L632.834,1087L632.788,1087.07L632.738,1087.14L632.683,1087.22L632.624,1087.29L632.561,1087.35L632.493,1087.42L632.422,1087.48L632.345,1087.54L632.265,1087.59L632.18,1087.64L632.091,1087.69L631.998,1087.73L631.901,1087.77L631.799,1087.81L631.693,1087.84L631.582,1087.86L631.467,1087.88L631.349,1087.9L631.225,1087.92L631.098,1087.93L630.966,1087.93L630.83,1087.93L630.111,1087.93L630.111,1090.07L629.349,1090.07L629.349,1087.39L630.619,1087.39L630.742,1087.39L630.86,1087.39L630.973,1087.38L631.081,1087.37L631.182,1087.36L631.279,1087.34L631.37,1087.33L631.456,1087.3L631.536,1087.28L631.611,1087.25L631.68,1087.22L631.744,1087.19L631.803,1087.15L631.856,1087.12L631.904,1087.08L631.946,1087.03L631.985,1086.99L632.021,1086.94L632.054,1086.89L632.085,1086.84L632.114,1086.79L632.14,1086.74L632.163,1086.69L632.184,1086.64L632.203,1086.58L632.219,1086.53L632.233,1086.47L632.244,1086.41L632.252,1086.35L632.259,1086.29L632.262,1086.23L632.263,1086.17L632.263,1086.12L632.259,1086.06L632.255,1086.01L632.248,1085.96L632.239,1085.91L632.227,1085.87L632.214,1085.82L632.199,1085.78L632.182,1085.73L632.163,1085.69L632.142,1085.65L632.119,1085.61L632.094,1085.57L632.067,1085.54L632.038,1085.5L632.007,1085.47L631.99,1085.45L631.973,1085.44L631.935,1085.41L631.893,1085.38L631.847,1085.35L631.797,1085.33L631.744,1085.31L631.686,1085.29L631.624,1085.27L631.559,1085.25L631.489,1085.24L631.416,1085.23L631.338,1085.22L631.257,1085.21L631.171,1085.21L631.082,1085.2L630.989,1085.2L630.111,1085.2L630.111,1087.39L629.349,1087.39L629.349,1084.66L630.973,1084.66L631.196,1084.66Z" style="fill:rgb(141,141,141);fill-rule:nonzero;"/>
    </g>
    <g transform="matrix(1,0,0,1,-585.218,-1014.19)">
        <path d="M588.513,1065.82L585.979,1065.82L585.979,1067.53L588.19,1067.53L588.19,1068.07L585.979,1068.07L585.979,1070.05L588.714,1070.05L588.714,1070.64L585.218,1070.64L585.218,1065.23L588.513,1065.23L588.513,1065.82Z" style="fill:rgb(141,141,141);fill-rule:nonzero;"/>
    </g>
    <g transform="matrix(1,0,0,1,-585.218,-1014.19)">
        <path d="M619.812,1028.84L620.726,1029.83L617.194,1033.36L600.952,1033.33L597.848,1029.81L598.897,1028.77L619.812,1028.84Z" style="fill:none;fill-rule:nonzero;stroke:rgb(237,0,165);stroke-width:0.49px;"/>
    </g>
    <g transform="matrix(1,0,0,1,-585.218,-1014.19)">
        <path d="M599.863,1034.73L598.628,1051.35L595.907,1054.02L593.927,1051.91L595.548,1032.05L596.611,1031.06L599.863,1034.73Z" style="fill:none;fill-rule:nonzero;stroke:rgb(237,0,165);stroke-width:0.49px;"/>
    </g>
    <g transform="matrix(1,0,0,1,-585.218,-1014.19)">
        <path d="M611.635,1026.02L610.815,1026.02L610.212,1024.53L607.642,1024.53L606.981,1026.02L606.277,1026.02L607.173,1023.99L609.984,1023.99L608.964,1021.48L607.869,1023.99L607.173,1023.99L608.668,1020.61L609.429,1020.61L611.635,1026.02Z" style="fill:rgb(141,141,141);fill-rule:nonzero;"/>
    </g>
    <g transform="matrix(1,0,0,1,-585.218,-1014.19)">
        <path d="M608.147,1044.5L608.274,1044.51L608.397,1044.52L608.517,1044.54L608.635,1044.56L608.693,1044.57L608.75,1044.59L608.806,1044.6L608.861,1044.62L608.916,1044.63L608.969,1044.65L609.022,1044.67L609.074,1044.69L609.124,1044.72L609.173,1044.74L609.22,1044.77L609.266,1044.79L609.31,1044.82L609.354,1044.85L609.395,1044.88L609.436,1044.91L609.475,1044.94L609.512,1044.97L609.549,1045.01L609.583,1045.04L609.617,1045.08L609.649,1045.12L609.68,1045.16L609.708,1045.2L609.735,1045.24L609.759,1045.28L609.782,1045.31L609.802,1045.35L609.821,1045.39L609.837,1045.43L609.852,1045.47L609.865,1045.51L609.876,1045.55L609.885,1045.58L609.891,1045.62L609.896,1045.66L609.899,1045.7L609.9,1045.74L609.9,1045.78L609.202,1045.78L609.202,1045.74L609.202,1045.71L609.2,1045.69L609.197,1045.67L609.193,1045.64L609.187,1045.62L609.18,1045.6L609.172,1045.58L609.163,1045.56L609.153,1045.53L609.142,1045.51L609.129,1045.49L609.115,1045.47L609.099,1045.45L609.083,1045.43L609.065,1045.41L609.046,1045.39L609.026,1045.37L609.005,1045.35L608.984,1045.33L608.962,1045.31L608.939,1045.29L608.915,1045.28L608.891,1045.26L608.866,1045.24L608.84,1045.23L608.813,1045.21L608.786,1045.2L608.757,1045.18L608.728,1045.17L608.698,1045.16L608.668,1045.14L608.636,1045.13L608.604,1045.12L608.572,1045.11L608.539,1045.1L608.505,1045.09L608.471,1045.08L608.436,1045.08L608.401,1045.07L608.365,1045.06L608.329,1045.06L608.292,1045.05L608.255,1045.05L608.217,1045.05L608.179,1045.04L608.139,1045.04L608.1,1045.04L608.06,1045.04L607.955,1045.04L607.853,1045.05L607.755,1045.06L607.66,1045.08L607.567,1045.1L607.478,1045.13L607.392,1045.16L607.31,1045.19L607.23,1045.24L607.154,1045.28L607.08,1045.33L607.01,1045.39L606.944,1045.45L606.88,1045.51L606.819,1045.58L606.762,1045.66L606.708,1045.74L606.657,1045.82L606.61,1045.91L606.566,1046L606.526,1046.09L606.489,1046.19L606.456,1046.29L606.427,1046.39L606.4,1046.5L606.377,1046.61L606.358,1046.73L606.343,1046.85L606.33,1046.97L606.322,1047.1L606.317,1047.23L606.315,1047.36L606.317,1047.5L606.322,1047.63L606.331,1047.75L606.343,1047.87L606.36,1047.99L606.379,1048.11L606.403,1048.22L606.43,1048.33L606.46,1048.43L606.495,1048.54L606.532,1048.63L606.574,1048.73L606.619,1048.82L606.667,1048.91L606.719,1048.99L606.775,1049.07L606.834,1049.14L606.896,1049.22L606.961,1049.28L607.028,1049.34L607.099,1049.4L607.172,1049.45L607.248,1049.5L607.327,1049.54L607.41,1049.58L607.495,1049.61L607.582,1049.63L607.673,1049.66L607.767,1049.67L607.863,1049.69L607.963,1049.69L608.065,1049.7L608.127,1049.69L608.191,1049.69L608.255,1049.69L608.321,1049.68L608.388,1049.67L608.456,1049.67L608.525,1049.65L608.596,1049.64L608.74,1049.61L608.889,1049.58L609.043,1049.53L609.202,1049.48L609.202,1047.94L607.891,1047.94L607.891,1047.4L609.9,1047.4L609.9,1049.83L609.785,1049.88L609.67,1049.92L609.556,1049.97L609.443,1050.01L609.33,1050.04L609.218,1050.08L609.107,1050.11L608.996,1050.13L608.886,1050.16L608.776,1050.18L608.668,1050.2L608.56,1050.21L608.452,1050.22L608.346,1050.23L608.239,1050.24L608.134,1050.24L608.026,1050.24L607.921,1050.23L607.818,1050.22L607.719,1050.22L607.621,1050.2L607.526,1050.19L607.434,1050.17L607.344,1050.16L607.257,1050.13L607.172,1050.11L607.09,1050.08L607.011,1050.06L606.934,1050.02L606.86,1049.99L606.788,1049.95L606.719,1049.91L606.652,1049.87L606.587,1049.83L606.524,1049.78L606.462,1049.74L606.402,1049.69L606.344,1049.63L606.287,1049.58L606.232,1049.52L606.179,1049.46L606.127,1049.4L606.078,1049.34L606.03,1049.27L605.983,1049.2L605.939,1049.13L605.896,1049.06L605.854,1048.99L605.816,1048.91L605.779,1048.83L605.745,1048.75L605.714,1048.66L605.685,1048.57L605.658,1048.48L605.634,1048.39L605.613,1048.29L605.594,1048.2L605.578,1048.09L605.564,1047.99L605.552,1047.88L605.544,1047.78L605.537,1047.66L605.533,1047.55L605.532,1047.43L605.537,1047.17L605.543,1047.05L605.551,1046.93L605.562,1046.81L605.575,1046.69L605.591,1046.59L605.609,1046.48L605.629,1046.38L605.652,1046.28L605.677,1046.18L605.705,1046.09L605.735,1046.01L605.767,1045.92L605.802,1045.84L605.839,1045.77L605.878,1045.69L605.919,1045.62L605.963,1045.55L606.008,1045.49L606.055,1045.42L606.104,1045.36L606.155,1045.3L606.208,1045.24L606.263,1045.18L606.319,1045.12L606.378,1045.07L606.439,1045.02L606.501,1044.97L606.566,1044.92L606.632,1044.88L606.701,1044.84L606.771,1044.79L606.843,1044.76L606.916,1044.72L606.991,1044.69L607.068,1044.66L607.146,1044.63L607.226,1044.61L607.308,1044.58L607.391,1044.56L607.476,1044.55L607.562,1044.53L607.65,1044.52L607.739,1044.51L607.831,1044.5L607.923,1044.5L608.018,1044.5L608.147,1044.5Z" style="fill:rgb(141,141,141);fill-rule:nonzero;"/>
    </g>
    <g transform="matrix(1,0,0,1,-585.218,-1014.19)">
        <path d="M622.721,1032.06L621.059,1051.8L618.617,1054.02L616.484,1051.76L618.036,1035.03L621.907,1031.06L622.721,1032.06Z" style="fill:none;fill-rule:nonzero;stroke:rgb(237,0,165);stroke-width:0.49px;"/>
    </g>
    <g transform="matrix(1,0,0,1,-585.218,-1014.19)">
        <path d="M620.399,1058.91L618.851,1078.87L617.696,1079.62L614.49,1076L615.782,1059.29L618.417,1056.95L620.399,1058.91Z" style="fill:none;fill-rule:nonzero;stroke:rgb(237,0,165);stroke-width:0.49px;"/>
    </g>
    <g transform="matrix(1,0,0,1,-585.218,-1014.19)">
        <path d="M625.894,1064.91L626.025,1064.91L626.151,1064.93L626.273,1064.94L626.332,1064.95L626.39,1064.97L626.447,1064.98L626.503,1064.99L626.558,1065.01L626.612,1065.02L626.664,1065.04L626.716,1065.06L626.766,1065.08L626.815,1065.1L626.863,1065.12L626.909,1065.15L626.954,1065.17L626.997,1065.2L627.04,1065.23L627.081,1065.26L627.12,1065.29L627.159,1065.32L627.196,1065.36L627.231,1065.39L627.266,1065.43L627.299,1065.47L627.331,1065.51L627.361,1065.55L627.39,1065.59L627.417,1065.63L627.442,1065.68L627.465,1065.72L627.487,1065.76L627.506,1065.8L627.524,1065.84L627.54,1065.88L627.553,1065.92L627.565,1065.96L627.576,1066L627.584,1066.04L627.591,1066.08L627.595,1066.12L627.598,1066.16L627.599,1066.2L627.599,1066.23L626.901,1066.23L626.901,1066.2L626.901,1066.17L626.899,1066.15L626.896,1066.12L626.893,1066.1L626.888,1066.08L626.882,1066.05L626.875,1066.03L626.867,1066L626.858,1065.98L626.848,1065.96L626.837,1065.93L626.825,1065.91L626.812,1065.89L626.798,1065.86L626.782,1065.84L626.766,1065.82L626.749,1065.79L626.731,1065.77L626.711,1065.75L626.691,1065.73L626.671,1065.71L626.649,1065.69L626.626,1065.67L626.603,1065.65L626.578,1065.64L626.553,1065.62L626.527,1065.61L626.5,1065.59L626.472,1065.58L626.443,1065.56L626.413,1065.55L626.382,1065.54L626.351,1065.53L626.319,1065.52L626.286,1065.51L626.252,1065.5L626.217,1065.49L626.182,1065.48L626.146,1065.47L626.109,1065.47L626.071,1065.46L626.033,1065.46L625.993,1065.45L625.953,1065.45L625.912,1065.45L625.871,1065.45L625.828,1065.45L625.785,1065.45L625.675,1065.45L625.569,1065.46L625.466,1065.47L625.366,1065.49L625.271,1065.51L625.179,1065.54L625.09,1065.57L625.005,1065.61L624.923,1065.65L624.845,1065.7L624.771,1065.76L624.7,1065.82L624.633,1065.88L624.569,1065.95L624.509,1066.02L624.452,1066.1L624.399,1066.18L624.349,1066.27L624.303,1066.36L624.26,1066.45L624.221,1066.55L624.185,1066.64L624.152,1066.75L624.123,1066.85L624.097,1066.95L624.075,1067.06L624.056,1067.17L624.041,1067.29L624.029,1067.41L624.02,1067.53L624.015,1067.65L624.013,1067.77L624.015,1067.9L624.02,1068.03L624.029,1068.15L624.041,1068.26L624.056,1068.38L624.075,1068.49L624.098,1068.6L624.124,1068.71L624.153,1068.81L624.186,1068.91L624.222,1069.01L624.262,1069.1L624.305,1069.19L624.352,1069.28L624.402,1069.37L624.455,1069.45L624.512,1069.53L624.542,1069.57L624.573,1069.61L624.604,1069.64L624.636,1069.67L624.669,1069.71L624.703,1069.74L624.738,1069.77L624.774,1069.8L624.811,1069.82L624.848,1069.85L624.887,1069.87L624.926,1069.9L624.966,1069.92L625.007,1069.94L625.049,1069.96L625.092,1069.98L625.135,1070L625.179,1070.01L625.271,1070.04L625.366,1070.06L625.464,1070.08L625.566,1070.09L625.671,1070.1L625.78,1070.1L625.855,1070.1L625.926,1070.1L625.995,1070.1L626.062,1070.09L626.126,1070.08L626.187,1070.07L626.245,1070.06L626.3,1070.05L626.353,1070.03L626.403,1070.01L626.45,1069.99L626.494,1069.97L626.536,1069.95L626.575,1069.92L626.611,1069.9L626.645,1069.87L626.676,1069.84L626.705,1069.81L626.732,1069.78L626.757,1069.75L626.78,1069.72L626.801,1069.69L626.82,1069.66L626.837,1069.62L626.852,1069.59L626.865,1069.56L626.876,1069.53L626.885,1069.49L626.892,1069.46L626.897,1069.42L626.9,1069.39L626.901,1069.35L626.901,1069.32L627.599,1069.32L627.599,1069.35L627.598,1069.39L627.595,1069.43L627.591,1069.47L627.584,1069.51L627.576,1069.55L627.565,1069.59L627.553,1069.63L627.54,1069.67L627.524,1069.71L627.506,1069.76L627.487,1069.8L627.465,1069.84L627.442,1069.88L627.417,1069.92L627.39,1069.96L627.361,1070L627.331,1070.04L627.299,1070.08L627.266,1070.12L627.231,1070.16L627.196,1070.19L627.159,1070.23L627.12,1070.26L627.081,1070.29L627.04,1070.32L626.997,1070.35L626.954,1070.38L626.909,1070.4L626.863,1070.42L626.815,1070.45L626.766,1070.47L626.716,1070.49L626.664,1070.51L626.612,1070.53L626.558,1070.54L626.503,1070.56L626.447,1070.57L626.39,1070.58L626.331,1070.59L626.272,1070.61L626.211,1070.61L626.149,1070.62L626.086,1070.63L626.022,1070.63L625.956,1070.64L625.89,1070.64L625.822,1070.64L625.753,1070.64L625.616,1070.64L625.482,1070.63L625.351,1070.62L625.223,1070.6L625.099,1070.57L624.977,1070.54L624.859,1070.51L624.744,1070.46L624.632,1070.42L624.523,1070.36L624.417,1070.3L624.315,1070.24L624.216,1070.17L624.12,1070.09L624.027,1070.01L623.937,1069.93L623.851,1069.83L623.771,1069.74L623.697,1069.63L623.628,1069.52L623.565,1069.41L623.506,1069.29L623.454,1069.16L623.407,1069.03L623.366,1068.89L623.33,1068.75L623.3,1068.6L623.275,1068.45L623.256,1068.29L623.242,1068.12L623.233,1067.95L623.231,1067.77L623.233,1067.6L623.242,1067.43L623.256,1067.27L623.275,1067.11L623.299,1066.95L623.33,1066.81L623.366,1066.66L623.407,1066.53L623.453,1066.39L623.506,1066.27L623.563,1066.15L623.627,1066.03L623.695,1065.92L623.769,1065.82L623.849,1065.72L623.934,1065.63L624.024,1065.54L624.116,1065.46L624.213,1065.38L624.312,1065.31L624.415,1065.25L624.52,1065.19L624.629,1065.13L624.742,1065.09L624.858,1065.04L624.976,1065.01L625.099,1064.98L625.224,1064.95L625.353,1064.93L625.485,1064.92L625.62,1064.91L625.759,1064.9L625.894,1064.91Z" style="fill:rgb(141,141,141);fill-rule:nonzero;"/>
    </g>
</svg>
