<?xml version="1.0" encoding="UTF-8" standalone="no"?>
<!DOCTYPE svg PUBLIC "-//W3C//DTD SVG 1.1//EN" "http://www.w3.org/Graphics/SVG/1.1/DTD/svg11.dtd">
<svg width="100%" height="100%" viewBox="0 0 758 467" version="1.1" xmlns="http://www.w3.org/2000/svg" xmlns:xlink="http://www.w3.org/1999/xlink" xml:space="preserve" xmlns:serif="http://www.serif.com/" style="fill-rule:evenodd;clip-rule:evenodd;stroke-linecap:round;stroke-linejoin:round;stroke-miterlimit:2;">
    <g id="_0" serif:id="0" transform="matrix(1,0,0,1,378.642,34.7763)">
        <g id="_2DPOLYLINE" serif:id="2DPOLYLINE" transform="matrix(-1,0,0,-1,0,396.85)">
            <path d="M191.864,7.091C190.133,2.806 185.974,0 181.351,0L-181.351,0C-185.974,0 -190.133,2.806 -191.864,7.091L-343.04,381.264C-344.452,384.759 -344.035,388.727 -341.927,391.852C-339.82,394.977 -336.297,396.85 -332.527,396.85L332.527,396.85C336.297,396.85 339.82,394.977 341.927,391.852C344.035,388.727 344.452,384.759 343.04,381.264L191.864,7.091Z" style="fill:none;stroke:black;stroke-width:0.1px;"/>
        </g>
        <g id="CIRCLE" transform="matrix(-1,0,0,-1,0,396.85)">
            <path d="M-212.031,238.11C-208.12,238.11 -204.945,234.935 -204.945,231.024C-204.945,227.112 -208.12,223.937 -212.031,223.937C-215.943,223.937 -219.118,227.112 -219.118,231.024C-219.118,234.935 -215.943,238.11 -212.031,238.11Z" style="fill:none;stroke:black;stroke-width:0.1px;"/>
        </g>
        <g id="CIRCLE1" serif:id="CIRCLE" transform="matrix(-1,0,0,-1,0,402.122)">
            <path d="M-34.016,77.61C-21.5,77.61 -11.339,67.449 -11.339,54.933C-11.339,42.417 -21.5,32.256 -34.016,32.256C-46.532,32.256 -56.693,42.417 -56.693,54.933C-56.693,67.449 -46.532,77.61 -34.016,77.61Z" style="fill:none;stroke:black;stroke-width:0.1px;"/>
        </g>
        <g transform="matrix(1.32192,0,0,0.361616,-668.737,178.929)">
            <path d="M515.861,369.955L517.321,369.955C517.754,369.955 518.153,369.725 518.517,369.264C518.882,368.803 519.196,368.148 519.46,367.298C519.724,366.463 519.929,365.458 520.075,364.284C520.22,363.11 520.293,361.796 520.293,360.341C520.293,358.829 520.22,357.468 520.075,356.258C519.929,355.048 519.724,354.018 519.46,353.169C519.196,352.319 518.882,351.663 518.517,351.203C518.153,350.742 517.754,350.504 517.321,350.49L514.442,350.49L514.442,381.946L515.861,381.946L515.861,369.955ZM515.861,365.721L515.861,354.724L517.321,354.724C517.561,354.739 517.777,354.883 517.968,355.156C518.159,355.43 518.321,355.819 518.455,356.323C518.589,356.827 518.691,357.421 518.76,358.105C518.829,358.789 518.863,359.549 518.863,360.384C518.863,361.148 518.829,361.854 518.76,362.502C518.691,363.15 518.589,363.712 518.455,364.187C518.321,364.662 518.159,365.033 517.968,365.299C517.777,365.566 517.561,365.706 517.321,365.721L515.861,365.721Z" style="fill-rule:nonzero;"/>
            <path d="M527.432,368.313L527.432,364.165C527.432,362.855 527.401,361.591 527.338,360.374C527.275,359.157 527.18,358.015 527.054,356.949C526.94,355.956 526.798,355.041 526.629,354.206C526.459,353.37 526.26,352.643 526.032,352.024C525.803,351.404 525.545,350.922 525.258,350.576C524.97,350.23 524.655,350.058 524.312,350.058C523.973,350.058 523.663,350.227 523.381,350.565C523.099,350.904 522.848,351.383 522.628,352.002C522.399,352.636 522.201,353.381 522.034,354.238C521.866,355.095 521.725,356.035 521.611,357.057C521.493,358.123 521.404,359.254 521.345,360.449C521.286,361.645 521.257,362.883 521.257,364.165L521.257,368.313C521.257,369.538 521.284,370.729 521.339,371.889C521.394,373.048 521.477,374.139 521.587,375.162C521.702,376.228 521.845,377.207 522.016,378.1C522.187,378.993 522.387,379.756 522.616,380.39C522.84,381.01 523.096,381.496 523.381,381.848C523.667,382.201 523.981,382.378 524.324,382.378C524.655,382.378 524.959,382.212 525.237,381.881C525.515,381.55 525.768,381.096 525.996,380.52C526.233,379.886 526.442,379.126 526.623,378.241C526.804,377.355 526.956,376.386 527.078,375.335C527.192,374.283 527.28,373.167 527.341,371.986C527.402,370.805 527.432,369.581 527.432,368.313ZM526.002,364.122L526.002,368.313C525.998,369.091 525.985,369.858 525.964,370.614C525.942,371.37 525.908,372.094 525.86,372.785C525.805,373.578 525.731,374.301 525.639,374.957C525.546,375.612 525.431,376.177 525.293,376.653C525.175,377.07 525.034,377.402 524.87,377.646C524.707,377.891 524.525,378.014 524.324,378.014C524.115,378.014 523.931,377.888 523.771,377.636C523.612,377.384 523.471,377.041 523.349,376.609C523.223,376.149 523.115,375.583 523.027,374.913C522.938,374.244 522.868,373.52 522.817,372.742C522.769,372.051 522.736,371.331 522.716,370.582C522.697,369.833 522.687,369.077 522.687,368.313L522.687,364.122C522.687,363.344 522.698,362.57 522.719,361.8C522.741,361.029 522.775,360.298 522.823,359.607C522.874,358.8 522.947,358.069 523.041,357.414C523.136,356.759 523.252,356.193 523.39,355.718C523.504,355.329 523.638,355.023 523.792,354.8C523.946,354.576 524.119,354.465 524.312,354.465C524.513,354.465 524.692,354.58 524.85,354.811C525.007,355.041 525.147,355.358 525.269,355.761C525.407,356.222 525.524,356.78 525.621,357.435C525.718,358.091 525.795,358.815 525.854,359.607C525.906,360.298 525.942,361.025 525.964,361.789C525.985,362.552 525.998,363.33 526.002,364.122Z" style="fill-rule:nonzero;"/>
            <path d="M529.377,381.946L530.718,381.946L531.581,362.696L531.646,361.205L531.705,362.696L532.58,381.946L533.922,381.946L535.056,350.49L533.732,350.49L533.136,369.804L533.094,371.122L533.035,369.826L532.178,350.49L531.091,350.49L530.263,369.739L530.204,371.035L530.163,369.804L529.572,350.49L528.254,350.49L529.377,381.946Z" style="fill-rule:nonzero;"/>
            <path d="M541.185,367.838L541.185,363.647L537.627,363.647L537.627,354.789L541.752,354.789L541.752,350.49L536.203,350.49L536.203,381.946L541.782,381.946L541.782,377.668L537.627,377.668L537.627,367.838L541.185,367.838Z" style="fill-rule:nonzero;"/>
            <path d="M546.279,369.739L547.928,381.946L549.447,381.946L549.447,381.665L547.609,368.508C547.845,368.119 548.06,367.658 548.253,367.125C548.446,366.592 548.612,365.973 548.75,365.267C548.888,364.561 548.995,363.769 549.072,362.891C549.149,362.012 549.187,361.033 549.187,359.952C549.187,358.382 549.112,357.011 548.962,355.837C548.813,354.663 548.604,353.68 548.336,352.888C548.064,352.11 547.741,351.519 547.367,351.116C546.992,350.713 546.583,350.504 546.137,350.49L543.407,350.49L543.407,381.946L544.825,381.946L544.825,369.739L546.279,369.739ZM544.825,365.505L544.825,354.724L546.137,354.724C546.382,354.739 546.602,354.857 546.799,355.081C546.996,355.304 547.164,355.632 547.302,356.064C547.451,356.524 547.565,357.097 547.641,357.781C547.718,358.465 547.757,359.261 547.757,360.168C547.757,360.975 547.721,361.695 547.65,362.329C547.579,362.963 547.481,363.496 547.355,363.928C547.213,364.432 547.041,364.817 546.838,365.083C546.635,365.35 546.407,365.49 546.155,365.505L544.825,365.505Z" style="fill-rule:nonzero;"/>
        </g>
        <g id="CIRCLE2" serif:id="CIRCLE" transform="matrix(-1,0,0,-1,0,396.85)">
            <path d="M93.543,162.59C96.672,162.59 99.213,160.05 99.213,156.921C99.213,153.792 96.672,151.251 93.543,151.251C90.414,151.251 87.874,153.792 87.874,156.921C87.874,160.05 90.414,162.59 93.543,162.59Z" style="fill:none;stroke:black;stroke-width:0.1px;"/>
        </g>
        <g id="CIRCLE3" serif:id="CIRCLE" transform="matrix(-1,0,0,-1,0,396.85)">
            <path d="M-34.016,148.477C-21.5,148.477 -11.339,138.315 -11.339,125.799C-11.339,113.284 -21.5,103.122 -34.016,103.122C-46.532,103.122 -56.693,113.284 -56.693,125.799C-56.693,138.315 -46.532,148.477 -34.016,148.477Z" style="fill:none;stroke:black;stroke-width:0.1px;"/>
        </g>
        <g id="CIRCLE4" serif:id="CIRCLE" transform="matrix(-1,0,0,-1,0,396.85)">
            <path d="M-107.15,238.11C-103.238,238.11 -100.063,234.935 -100.063,231.024C-100.063,227.112 -103.238,223.937 -107.15,223.937C-111.061,223.937 -114.236,227.112 -114.236,231.024C-114.236,234.935 -111.061,238.11 -107.15,238.11Z" style="fill:none;stroke:black;stroke-width:0.1px;"/>
        </g>
        <g id="CIRCLE5" serif:id="CIRCLE" transform="matrix(-1,0,0,-1,0,396.85)">
            <path d="M-212.031,342.992C-208.12,342.992 -204.945,339.817 -204.945,335.906C-204.945,331.994 -208.12,328.819 -212.031,328.819C-215.943,328.819 -219.118,331.994 -219.118,335.906C-219.118,339.817 -215.943,342.992 -212.031,342.992Z" style="fill:none;stroke:black;stroke-width:0.1px;"/>
        </g>
        <g id="CIRCLE6" serif:id="CIRCLE" transform="matrix(-1,0,0,-1,0,396.85)">
            <path d="M93.543,145.936C110.948,145.936 125.079,131.806 125.079,114.401C125.079,96.996 110.948,82.865 93.543,82.865C76.138,82.865 62.008,96.996 62.008,114.401C62.008,131.806 76.138,145.936 93.543,145.936Z" style="fill:none;stroke:black;stroke-width:0.1px;"/>
        </g>
        <g id="CIRCLE7" serif:id="CIRCLE" transform="matrix(-1,0,0,-1,0,396.85)">
            <path d="M93.543,77.55C96.672,77.55 99.213,75.01 99.213,71.881C99.213,68.752 96.672,66.212 93.543,66.212C90.414,66.212 87.874,68.752 87.874,71.881C87.874,75.01 90.414,77.55 93.543,77.55Z" style="fill:none;stroke:black;stroke-width:0.1px;"/>
        </g>
        <g id="CIRCLE8" serif:id="CIRCLE" transform="matrix(-1,0,0,-1,0,396.85)">
            <path d="M-107.15,342.992C-103.238,342.992 -100.063,339.817 -100.063,335.906C-100.063,331.994 -103.238,328.819 -107.15,328.819C-111.061,328.819 -114.236,331.994 -114.236,335.906C-114.236,339.817 -111.061,342.992 -107.15,342.992Z" style="fill:none;stroke:black;stroke-width:0.1px;"/>
        </g>
        <g id="CIRCLE9" serif:id="CIRCLE" transform="matrix(-1,0,0,-1,0,396.85)">
            <path d="M-159.591,347.244C-124.39,347.244 -95.811,318.665 -95.811,283.465C-95.811,248.264 -124.39,219.685 -159.591,219.685C-194.791,219.685 -223.37,248.264 -223.37,283.465C-223.37,318.665 -194.791,347.244 -159.591,347.244Z" style="fill:none;stroke:black;stroke-width:0.1px;"/>
        </g>
        <g>
            <g transform="matrix(1.0208,0,0,0.448805,-400.091,148.52)">
                <path d="M504.831,375.499L504.831,350.154L504.716,350.154L500.132,354.018L500.132,357.691L502.987,355.306L502.987,375.499L504.831,375.499Z" style="fill-rule:nonzero;"/>
                <path d="M514.237,375.499L514.237,350.154L514.122,350.154L509.538,354.018L509.538,357.691L512.393,355.306L512.393,375.499L514.237,375.499Z" style="fill-rule:nonzero;"/>
                <path d="M525.839,365.838L525.839,359.832C525.839,358.208 525.755,356.772 525.587,355.524C525.418,354.277 525.181,353.223 524.875,352.365C524.559,351.517 524.177,350.876 523.731,350.441C523.284,350.006 522.778,349.788 522.212,349.788C521.65,349.788 521.147,350.006 520.7,350.441C520.254,350.876 519.875,351.517 519.564,352.365C519.252,353.223 519.014,354.277 518.848,355.524C518.682,356.772 518.599,358.208 518.599,359.832L518.599,365.838C518.599,367.463 518.682,368.899 518.848,370.146C519.014,371.394 519.255,372.435 519.571,373.271C519.883,374.13 520.263,374.777 520.712,375.212C521.161,375.647 521.666,375.865 522.227,375.865C522.793,375.865 523.3,375.647 523.746,375.212C524.193,374.777 524.569,374.13 524.875,373.271C525.186,372.435 525.425,371.394 525.591,370.146C525.756,368.899 525.839,367.463 525.839,365.838ZM520.436,364.358L520.436,359.084C520.436,358.039 520.477,357.131 520.559,356.36C520.64,355.588 520.765,354.958 520.934,354.471C521.076,354.042 521.255,353.717 521.469,353.496C521.684,353.276 521.931,353.165 522.212,353.165C522.472,353.165 522.705,353.258 522.912,353.444C523.119,353.63 523.293,353.908 523.436,354.279C523.599,354.697 523.726,355.237 523.815,355.898C523.904,356.56 523.959,357.343 523.98,358.248L520.436,364.358ZM523.995,366.534C523.995,367.602 523.953,368.53 523.869,369.319C523.784,370.109 523.658,370.747 523.49,371.234C523.342,371.652 523.163,371.968 522.954,372.183C522.745,372.398 522.502,372.505 522.227,372.505C521.946,372.505 521.7,372.395 521.488,372.174C521.277,371.954 521.099,371.623 520.957,371.182C520.814,370.776 520.7,370.265 520.616,369.65C520.532,369.035 520.477,368.327 520.451,367.526L523.995,361.451L523.995,366.534Z" style="fill-rule:nonzero;"/>
                <path d="M540.113,375.499L541.904,375.499L545.332,350.154L543.327,350.154L541.192,367.683L541,369.215L540.817,367.7L538.697,350.154L536.684,350.154L540.113,375.499Z" style="fill-rule:nonzero;"/>
                <path d="M552.274,369.668L553.024,375.499L554.929,375.499L551.363,350.154L549.733,350.154L546.105,375.499L548.019,375.499L548.776,369.668L552.274,369.668ZM549.243,366.082L550.544,356.055L551.822,366.082L549.243,366.082Z" style="fill-rule:nonzero;"/>
                <path d="M563.792,367.7L561.947,367.7C561.917,368.466 561.851,369.145 561.748,369.737C561.646,370.329 561.511,370.822 561.343,371.217C561.169,371.623 560.96,371.93 560.715,372.139C560.47,372.348 560.19,372.453 559.873,372.453C559.608,372.453 559.372,372.369 559.166,372.2C558.959,372.032 558.776,371.785 558.618,371.46C558.465,371.159 558.334,370.799 558.224,370.381C558.114,369.963 558.024,369.499 557.952,368.989C557.861,368.374 557.793,367.695 557.75,366.952C557.706,366.209 557.685,365.414 557.685,364.567L557.685,361.068C557.685,360.384 557.701,359.713 557.734,359.058C557.768,358.402 557.817,357.784 557.884,357.204C557.97,356.542 558.081,355.942 558.217,355.402C558.352,354.863 558.521,354.424 558.725,354.088C558.873,353.809 559.043,353.595 559.234,353.444C559.426,353.293 559.641,353.218 559.881,353.218C560.223,353.218 560.516,353.331 560.761,353.557C561.006,353.783 561.213,354.111 561.381,354.541C561.544,354.97 561.673,355.489 561.768,356.098C561.862,356.708 561.925,357.39 561.955,358.144L563.792,358.144C563.736,356.879 563.612,355.73 563.421,354.697C563.229,353.664 562.968,352.782 562.636,352.051C562.31,351.332 561.916,350.775 561.454,350.38C560.992,349.986 560.468,349.788 559.881,349.788C559.447,349.788 559.048,349.922 558.683,350.189C558.319,350.456 557.986,350.827 557.685,351.303C557.368,351.825 557.089,352.455 556.847,353.191C556.604,353.928 556.407,354.749 556.253,355.655C556.111,356.467 556.003,357.332 555.932,358.248C555.861,359.165 555.825,360.117 555.825,361.103L555.825,364.567C555.825,365.6 555.862,366.592 555.936,367.544C556.01,368.495 556.121,369.377 556.269,370.19C556.417,371.014 556.599,371.771 556.816,372.461C557.033,373.152 557.287,373.741 557.577,374.228C557.878,374.75 558.222,375.154 558.607,375.438C558.992,375.722 559.414,375.865 559.873,375.865C560.435,375.865 560.946,375.67 561.408,375.281C561.87,374.893 562.269,374.338 562.606,373.619C562.937,372.911 563.205,372.055 563.409,371.051C563.613,370.048 563.741,368.931 563.792,367.7Z" style="fill-rule:nonzero;"/>
            </g>
            <g transform="matrix(0.603755,0,0,0.603755,300.305,315.706)">
                <g transform="matrix(0.5,0,0,0.5,-324.792,0.469886)">
                    <path d="M124.629,70.492L107.699,122.516L131.002,113.24L126.517,129.458L119.299,125L126.247,148.428L144.312,131.677L135.715,131.296L144.782,96.279L123.882,104.465L138.826,76.807L130.311,76.494L124.629,70.492Z"/>
                </g>
                <g transform="matrix(0.5,0,0,0.5,-324.792,0.469886)">
                    <path d="M57.351,161.007L127.375,41.962L196.874,161.007L57.351,161.007Z" style="fill:none;stroke:black;stroke-width:9.94px;stroke-miterlimit:1.5;"/>
                </g>
            </g>
        </g>
        <g transform="matrix(1.0208,0,0,0.448805,-508.658,73.1945)">
            <path d="M512.982,365.664L515.117,375.499L517.084,375.499L517.084,375.273L514.704,364.672C515.01,364.358 515.288,363.987 515.538,363.558C515.788,363.128 516.002,362.629 516.181,362.061C516.359,361.492 516.498,360.854 516.598,360.146C516.697,359.438 516.747,358.649 516.747,357.778C516.747,356.513 516.65,355.408 516.456,354.462C516.263,353.516 515.992,352.724 515.645,352.086C515.293,351.459 514.875,350.984 514.39,350.659C513.905,350.334 513.375,350.165 512.798,350.154L509.262,350.154L509.262,375.499L511.099,375.499L511.099,365.664L512.982,365.664ZM511.099,362.252L511.099,353.566L512.798,353.566C513.114,353.577 513.4,353.673 513.655,353.853C513.91,354.033 514.127,354.297 514.306,354.645C514.5,355.016 514.646,355.478 514.746,356.029C514.845,356.58 514.895,357.221 514.895,357.952C514.895,358.602 514.849,359.182 514.757,359.693C514.666,360.204 514.538,360.633 514.375,360.981C514.191,361.387 513.968,361.698 513.705,361.913C513.442,362.127 513.148,362.24 512.821,362.252L511.099,362.252Z" style="fill-rule:nonzero;"/>
            <path d="M526.199,364.515L526.199,361.173C526.199,360.117 526.158,359.098 526.077,358.118C525.995,357.137 525.872,356.217 525.709,355.359C525.561,354.558 525.378,353.821 525.158,353.148C524.939,352.475 524.681,351.889 524.385,351.39C524.089,350.891 523.755,350.502 523.383,350.224C523.01,349.945 522.602,349.806 522.158,349.806C521.719,349.806 521.318,349.942 520.953,350.215C520.588,350.488 520.263,350.873 519.977,351.372C519.681,351.883 519.425,352.484 519.208,353.174C518.991,353.865 518.809,354.622 518.661,355.446C518.507,356.304 518.393,357.215 518.316,358.179C518.24,359.142 518.201,360.14 518.201,361.173L518.201,364.515C518.201,365.501 518.237,366.462 518.308,367.396C518.38,368.33 518.487,369.209 518.63,370.033C518.778,370.892 518.963,371.681 519.185,372.4C519.407,373.12 519.666,373.735 519.962,374.246C520.252,374.745 520.583,375.136 520.953,375.421C521.323,375.705 521.73,375.847 522.173,375.847C522.602,375.847 522.996,375.714 523.356,375.447C523.716,375.18 524.043,374.814 524.339,374.35C524.645,373.839 524.916,373.227 525.151,372.514C525.385,371.8 525.582,371.019 525.74,370.172C525.888,369.325 526.001,368.426 526.08,367.474C526.159,366.523 526.199,365.536 526.199,364.515ZM524.347,361.138L524.347,364.515C524.342,365.142 524.325,365.76 524.297,366.369C524.269,366.978 524.224,367.561 524.163,368.118C524.092,368.757 523.996,369.34 523.876,369.868C523.756,370.396 523.607,370.851 523.429,371.234C523.275,371.571 523.093,371.838 522.881,372.035C522.67,372.232 522.434,372.331 522.173,372.331C521.903,372.331 521.664,372.229 521.458,372.026C521.251,371.823 521.069,371.548 520.911,371.199C520.747,370.828 520.608,370.373 520.494,369.833C520.379,369.293 520.288,368.71 520.222,368.083C520.161,367.526 520.117,366.946 520.092,366.343C520.066,365.739 520.053,365.13 520.053,364.515L520.053,361.138C520.053,360.511 520.067,359.887 520.096,359.267C520.124,358.646 520.168,358.057 520.229,357.5C520.296,356.85 520.39,356.261 520.513,355.733C520.635,355.205 520.786,354.749 520.964,354.366C521.112,354.053 521.286,353.807 521.485,353.627C521.684,353.447 521.908,353.357 522.158,353.357C522.418,353.357 522.65,353.45 522.855,353.635C523.059,353.821 523.24,354.076 523.398,354.401C523.576,354.773 523.728,355.222 523.853,355.75C523.978,356.278 524.079,356.862 524.156,357.5C524.222,358.057 524.269,358.643 524.297,359.258C524.325,359.873 524.342,360.5 524.347,361.138Z" style="fill-rule:nonzero;"/>
            <path d="M528.036,375.499L531.893,375.499C532.444,375.499 532.956,375.339 533.428,375.02C533.899,374.701 534.306,374.228 534.648,373.602C534.99,372.987 535.258,372.221 535.452,371.304C535.646,370.387 535.74,369.325 535.735,368.118C535.735,367.434 535.693,366.781 535.609,366.16C535.525,365.539 535.401,364.973 535.238,364.463C535.079,363.987 534.883,363.56 534.648,363.183C534.414,362.806 534.13,362.519 533.799,362.322L533.799,362.287C534.023,362.078 534.221,361.843 534.392,361.582C534.563,361.321 534.717,361.016 534.855,360.668C535.049,360.192 535.198,359.644 535.303,359.023C535.407,358.402 535.462,357.732 535.467,357.012C535.467,355.829 535.369,354.805 535.172,353.94C534.976,353.075 534.704,352.365 534.357,351.808C534.01,351.251 533.6,350.836 533.125,350.563C532.651,350.29 532.143,350.154 531.602,350.154L528.036,350.154L528.036,375.499ZM529.888,364.045L532,364.045C532.301,364.057 532.569,364.158 532.804,364.35C533.038,364.541 533.237,364.811 533.401,365.159C533.564,365.507 533.686,365.928 533.768,366.421C533.85,366.914 533.891,367.48 533.891,368.118C533.891,368.722 533.841,369.27 533.741,369.763C533.642,370.256 533.5,370.671 533.317,371.008C533.148,371.333 532.944,371.588 532.704,371.774C532.465,371.959 532.199,372.052 531.908,372.052L529.888,372.052L529.888,364.045ZM529.888,360.859L529.888,353.618L531.625,353.618C531.942,353.63 532.23,353.714 532.49,353.87C532.75,354.027 532.967,354.279 533.141,354.628C533.294,354.906 533.412,355.263 533.496,355.698C533.581,356.133 533.623,356.647 533.623,357.239C533.623,357.796 533.577,358.289 533.485,358.718C533.393,359.148 533.268,359.513 533.11,359.815C532.936,360.152 532.723,360.407 532.471,360.581C532.218,360.755 531.942,360.848 531.641,360.859L529.888,360.859Z" style="fill-rule:nonzero;"/>
            <path d="M545.011,364.515L545.011,361.173C545.011,360.117 544.97,359.098 544.888,358.118C544.807,357.137 544.684,356.217 544.521,355.359C544.373,354.558 544.189,353.821 543.97,353.148C543.751,352.475 543.493,351.889 543.197,351.39C542.901,350.891 542.567,350.502 542.194,350.224C541.822,349.945 541.414,349.806 540.97,349.806C540.531,349.806 540.129,349.942 539.764,350.215C539.4,350.488 539.074,350.873 538.789,351.372C538.493,351.883 538.236,352.484 538.02,353.174C537.803,353.865 537.62,354.622 537.472,355.446C537.319,356.304 537.204,357.215 537.128,358.179C537.051,359.142 537.013,360.14 537.013,361.173L537.013,364.515C537.013,365.501 537.049,366.462 537.12,367.396C537.192,368.33 537.299,369.209 537.442,370.033C537.59,370.892 537.775,371.681 537.997,372.4C538.218,373.12 538.477,373.735 538.773,374.246C539.064,374.745 539.395,375.136 539.764,375.421C540.134,375.705 540.541,375.847 540.985,375.847C541.414,375.847 541.808,375.714 542.168,375.447C542.527,375.18 542.855,374.814 543.151,374.35C543.457,373.839 543.728,373.227 543.962,372.514C544.197,371.8 544.393,371.019 544.552,370.172C544.7,369.325 544.813,368.426 544.892,367.474C544.971,366.523 545.011,365.536 545.011,364.515ZM543.159,361.138L543.159,364.515C543.154,365.142 543.137,365.76 543.109,366.369C543.081,366.978 543.036,367.561 542.975,368.118C542.904,368.757 542.808,369.34 542.688,369.868C542.568,370.396 542.419,370.851 542.24,371.234C542.087,371.571 541.905,371.838 541.693,372.035C541.481,372.232 541.245,372.331 540.985,372.331C540.715,372.331 540.476,372.229 540.27,372.026C540.063,371.823 539.881,371.548 539.722,371.199C539.559,370.828 539.42,370.373 539.305,369.833C539.19,369.293 539.1,368.71 539.034,368.083C538.972,367.526 538.929,366.946 538.903,366.343C538.878,365.739 538.865,365.13 538.865,364.515L538.865,361.138C538.865,360.511 538.879,359.887 538.907,359.267C538.935,358.646 538.98,358.057 539.041,357.5C539.108,356.85 539.202,356.261 539.324,355.733C539.447,355.205 539.597,354.749 539.776,354.366C539.924,354.053 540.097,353.807 540.296,353.627C540.495,353.447 540.72,353.357 540.97,353.357C541.23,353.357 541.462,353.45 541.666,353.635C541.87,353.821 542.052,354.076 542.21,354.401C542.388,354.773 542.54,355.222 542.665,355.75C542.79,356.278 542.891,356.862 542.967,357.5C543.034,358.057 543.081,358.643 543.109,359.258C543.137,359.873 543.154,360.5 543.159,361.138Z" style="fill-rule:nonzero;"/>
            <path d="M554.769,353.618L554.769,350.154L546.09,350.154L546.09,353.618L549.503,353.618L549.503,375.499L551.332,375.499L551.332,353.618L554.769,353.618Z" style="fill-rule:nonzero;"/>
        </g>
    </g>
</svg>
