<?xml version="1.0" encoding="UTF-8" standalone="no"?>
<!DOCTYPE svg PUBLIC "-//W3C//DTD SVG 1.1//EN" "http://www.w3.org/Graphics/SVG/1.1/DTD/svg11.dtd">
<svg width="100%" height="100%" viewBox="0 0 24 24" version="1.1" xmlns="http://www.w3.org/2000/svg" xmlns:xlink="http://www.w3.org/1999/xlink" xml:space="preserve" xmlns:serif="http://www.serif.com/" style="fill-rule:evenodd;clip-rule:evenodd;stroke-miterlimit:10;">
    <g id="Layer-1" serif:id="Layer 1">
        <g transform="matrix(-1,0,0,1,15,11.5001)">
            <path d="M0,-2.4C-0.663,-2.4 -1.2,-1.863 -1.2,-1.2C-1.2,-0.537 -0.663,0 0,0C0.663,0 1.2,-0.537 1.2,-1.2C1.2,-1.863 0.663,-2.4 0,-2.4" style="fill:rgb(2,1,2);fill-rule:nonzero;"/>
        </g>
        <g transform="matrix(0,-1,-1,0,11.8999,2.9853)">
            <ellipse cx="-9.107" cy="0" rx="9.106" ry="9.107" style="fill:none;stroke:black;stroke-width:1.5px;"/>
        </g>
        <g transform="matrix(-1,0,0,1,8.7002,11.5001)">
            <path d="M0,-2.4C-0.663,-2.4 -1.2,-1.863 -1.2,-1.2C-1.2,-0.537 -0.663,0 0,0C0.663,0 1.2,-0.537 1.2,-1.2C1.2,-1.863 0.663,-2.4 0,-2.4" style="fill:rgb(2,1,2);fill-rule:nonzero;"/>
        </g>
        <path d="M8.7,15.4C8.7,13.633 10.133,12.2 11.9,12.2C13.667,12.2 15.1,13.633 15.1,15.4" style="fill:none;fill-rule:nonzero;stroke:black;stroke-width:1.5px;stroke-linecap:round;"/>
    </g>
</svg>
