<?xml version="1.0" encoding="UTF-8" standalone="no"?>
<!DOCTYPE svg PUBLIC "-//W3C//DTD SVG 1.1//EN" "http://www.w3.org/Graphics/SVG/1.1/DTD/svg11.dtd">
<svg width="100%" height="100%" viewBox="0 0 392 335" version="1.1" xmlns="http://www.w3.org/2000/svg" xmlns:xlink="http://www.w3.org/1999/xlink" xml:space="preserve" xmlns:serif="http://www.serif.com/" style="fill-rule:evenodd;clip-rule:evenodd;stroke-linecap:round;stroke-linejoin:round;stroke-miterlimit:1.5;">
    <g transform="matrix(1,0,0,1,-584.726,-2336.02)">
        <g transform="matrix(0.675937,0,0,0.692074,-268.616,1031.43)">
            <g transform="matrix(1,0,0,1,-794.526,513.453)">
                <path d="M2225.24,1496.92L2248.58,1487.85" style="fill:none;stroke:black;stroke-width:10.53px;"/>
            </g>
            <g transform="matrix(1,0,0,1,-794.526,513.453)">
                <path d="M2226.78,1423.22L2204.79,1459.12L2249.45,1451.22L2222.4,1496.73L2213.22,1473.78" style="fill:none;stroke:black;stroke-width:10.53px;"/>
            </g>
        </g>
        <g transform="matrix(0.878401,0,0,0.71917,-821.972,1247.54)">
            <path d="M1774.38,1683.41L1920.26,1683.41" style="fill:none;stroke:black;stroke-width:8.97px;"/>
        </g>
        <g transform="matrix(0.878401,0,0,0.71917,-821.972,1247.54)">
            <path d="M1772.65,1623.34L1772.65,1732.12" style="fill:none;stroke:black;stroke-width:9.97px;"/>
        </g>
        <g transform="matrix(0.878401,0,0,0.71917,-692.461,1247.54)">
            <path d="M1772.65,1623.34L1772.65,1732.12" style="fill:none;stroke:black;stroke-width:9.97px;"/>
        </g>
    </g>
    <g transform="matrix(8.51314e-17,-1.3903,1.73207,1.06058e-16,-2702.32,1660.99)">
        <path d="M1117.67,1563.44L1191.82,1618.38L1191.82,1728.26L1117.67,1783.2L1043.52,1728.26L1043.52,1618.38L1117.67,1563.44Z" style="fill:none;stroke:black;stroke-width:5.09px;"/>
    </g>
    <g transform="matrix(8.51314e-17,-1.3903,1.73207,1.06058e-16,-2702.32,1723.54)">
        <path d="M1138.46,1764.66C1139.62,1763.79 1141.45,1763.85 1142.52,1764.79C1143.6,1765.72 1143.53,1767.19 1142.36,1768.05L1138.57,1770.86C1137.4,1771.72 1135.58,1771.66 1134.51,1770.73C1133.43,1769.79 1133.5,1768.33 1134.67,1767.47L1138.46,1764.66ZM1119.51,1778.7C1120.67,1777.83 1122.5,1777.89 1123.57,1778.83C1124.65,1779.77 1124.58,1781.23 1123.41,1782.09L1119.62,1784.9L1115.72,1784.9L1113.25,1783.07C1112.08,1782.2 1112.01,1780.74 1113.08,1779.81C1114.16,1778.87 1115.98,1778.81 1117.15,1779.67L1117.67,1780.06L1119.51,1778.7ZM1107.26,1772.35C1108.43,1773.21 1108.5,1774.68 1107.42,1775.61C1106.35,1776.55 1104.53,1776.61 1103.36,1775.74L1098.41,1772.08C1097.25,1771.22 1097.17,1769.75 1098.25,1768.82C1099.33,1767.88 1101.15,1767.82 1102.32,1768.69L1107.26,1772.35ZM1092.43,1761.36C1093.6,1762.23 1093.67,1763.69 1092.59,1764.62C1091.52,1765.56 1089.69,1765.62 1088.53,1764.76L1083.59,1761.09C1082.42,1760.23 1082.35,1758.77 1083.42,1757.83C1084.5,1756.89 1086.32,1756.83 1087.49,1757.7L1092.43,1761.36ZM1077.6,1750.37C1078.77,1751.24 1078.84,1752.7 1077.76,1753.64C1076.69,1754.57 1074.87,1754.63 1073.7,1753.77L1068.76,1750.1C1067.59,1749.24 1067.52,1747.78 1068.59,1746.84C1069.67,1745.9 1071.49,1745.85 1072.66,1746.71L1077.6,1750.37ZM1062.77,1739.38C1063.94,1740.25 1064.01,1741.71 1062.93,1742.65C1061.86,1743.58 1060.04,1743.64 1058.87,1742.78L1053.92,1739.12C1052.76,1738.25 1052.68,1736.79 1053.76,1735.85C1054.84,1734.92 1056.66,1734.86 1057.83,1735.72L1062.77,1739.38ZM1047.94,1728.4C1049.11,1729.26 1049.18,1730.72 1048.1,1731.66C1047.03,1732.6 1045.2,1732.65 1044.04,1731.79L1041.57,1729.96L1040.64,1728.26L1040.64,1725.64C1040.64,1724.37 1041.93,1723.34 1043.52,1723.34C1045.11,1723.34 1046.39,1724.37 1046.39,1725.64L1046.39,1727.25L1047.94,1728.4ZM1046.39,1715.18C1046.39,1716.45 1045.11,1717.49 1043.52,1717.49C1041.93,1717.49 1040.64,1716.45 1040.64,1715.18L1040.64,1709.95C1040.64,1708.67 1041.93,1707.64 1043.52,1707.64C1045.11,1707.64 1046.39,1708.67 1046.39,1709.95L1046.39,1715.18ZM1046.39,1699.48C1046.39,1700.76 1045.11,1701.79 1043.52,1701.79C1041.93,1701.79 1040.64,1700.76 1040.64,1699.48L1040.64,1694.25C1040.64,1692.98 1041.93,1691.94 1043.52,1691.94C1045.11,1691.94 1046.39,1692.98 1046.39,1694.25L1046.39,1699.48ZM1046.39,1683.79C1046.39,1685.06 1045.11,1686.1 1043.52,1686.1C1041.93,1686.1 1040.64,1685.06 1040.64,1683.79L1040.64,1678.55C1040.64,1677.28 1041.93,1676.24 1043.52,1676.24C1045.11,1676.24 1046.39,1677.28 1046.39,1678.55L1046.39,1683.79ZM1046.39,1668.09C1046.39,1669.36 1045.11,1670.4 1043.52,1670.4C1041.93,1670.4 1040.64,1669.36 1040.64,1668.09L1040.64,1662.86C1040.64,1661.58 1041.93,1660.55 1043.52,1660.55C1045.11,1660.55 1046.39,1661.58 1046.39,1662.86L1046.39,1668.09ZM1046.39,1652.39C1046.39,1653.66 1045.11,1654.7 1043.52,1654.7C1041.93,1654.7 1040.64,1653.66 1040.64,1652.39L1040.64,1647.16C1040.64,1645.88 1041.93,1644.85 1043.52,1644.85C1045.11,1644.85 1046.39,1645.88 1046.39,1647.16L1046.39,1652.39ZM1046.39,1636.69C1046.39,1637.97 1045.11,1639 1043.52,1639C1041.93,1639 1040.64,1637.97 1040.64,1636.69L1040.64,1631.46C1040.64,1630.19 1041.93,1629.15 1043.52,1629.15C1045.11,1629.15 1046.39,1630.19 1046.39,1631.46L1046.39,1636.69ZM1046.39,1621C1046.39,1622.27 1045.11,1623.31 1043.52,1623.31C1041.93,1623.31 1040.64,1622.27 1040.64,1621L1040.64,1618.38L1041.57,1616.68L1044.04,1614.85C1045.2,1613.99 1047.03,1614.05 1048.1,1614.98C1049.18,1615.92 1049.11,1617.38 1047.94,1618.24L1046.39,1619.39L1046.39,1621ZM1057.83,1610.92C1056.66,1611.78 1054.84,1611.73 1053.76,1610.79C1052.68,1609.85 1052.76,1608.39 1053.92,1607.53L1058.87,1603.86C1060.04,1603 1061.86,1603.06 1062.93,1603.99C1064.01,1604.93 1063.94,1606.39 1062.77,1607.26L1057.83,1610.92ZM1072.66,1599.93C1071.49,1600.8 1069.67,1600.74 1068.59,1599.8C1067.52,1598.86 1067.59,1597.4 1068.76,1596.54L1073.7,1592.87C1074.87,1592.01 1076.69,1592.07 1077.76,1593.01C1078.84,1593.94 1078.77,1595.4 1077.6,1596.27L1072.66,1599.93ZM1087.49,1588.94C1086.32,1589.81 1084.5,1589.75 1083.42,1588.81C1082.35,1587.88 1082.42,1586.41 1083.59,1585.55L1088.53,1581.89C1089.69,1581.02 1091.52,1581.08 1092.59,1582.02C1093.67,1582.95 1093.6,1584.41 1092.43,1585.28L1087.49,1588.94ZM1102.32,1577.95C1101.15,1578.82 1099.33,1578.76 1098.25,1577.82C1097.17,1576.89 1097.25,1575.42 1098.41,1574.56L1103.36,1570.9C1104.53,1570.03 1106.35,1570.09 1107.42,1571.03C1108.5,1571.97 1108.43,1573.43 1107.26,1574.29L1102.32,1577.95ZM1117.15,1566.97C1115.98,1567.83 1114.16,1567.77 1113.08,1566.84C1112.01,1565.9 1112.08,1564.44 1113.25,1563.57L1115.72,1561.74L1119.62,1561.74L1123.35,1564.5C1124.51,1565.37 1124.59,1566.83 1123.51,1567.76C1122.43,1568.7 1120.61,1568.76 1119.44,1567.89C1119.44,1567.89 1117.67,1566.58 1117.67,1566.58L1117.15,1566.97ZM1134.35,1578.94C1133.18,1578.07 1133.11,1576.61 1134.18,1575.67C1135.26,1574.74 1137.08,1574.68 1138.25,1575.54L1141.97,1578.3C1143.14,1579.17 1143.21,1580.63 1142.14,1581.57C1141.06,1582.5 1139.24,1582.56 1138.07,1581.7L1134.35,1578.94Z"/>
    </g>
    <g transform="matrix(8.51314e-17,-1.3903,1.73207,1.06058e-16,-2702.32,1781.77)">
        <path d="M1136.38,1766.19C1137.55,1765.33 1139.37,1765.39 1140.45,1766.32C1141.53,1767.26 1141.45,1768.72 1140.29,1769.59L1136.84,1772.14C1135.68,1773 1133.85,1772.94 1132.78,1772.01C1131.7,1771.07 1131.77,1769.61 1132.94,1768.75L1136.38,1766.19ZM1119.16,1778.95C1120.33,1778.09 1122.15,1778.15 1123.23,1779.08C1124.3,1780.02 1124.23,1781.48 1123.06,1782.35L1119.62,1784.9C1118.52,1785.72 1116.82,1785.72 1115.72,1784.9L1113.25,1783.07C1112.08,1782.2 1112.01,1780.74 1113.08,1779.81C1114.16,1778.87 1115.98,1778.81 1117.15,1779.67L1117.67,1780.06L1119.16,1778.95ZM1107.26,1772.35C1108.43,1773.21 1108.5,1774.68 1107.42,1775.61C1106.35,1776.55 1104.53,1776.61 1103.36,1775.74L1098.41,1772.08C1097.25,1771.22 1097.17,1769.75 1098.25,1768.82C1099.33,1767.88 1101.15,1767.82 1102.32,1768.69L1107.26,1772.35ZM1092.43,1761.36C1093.6,1762.23 1093.67,1763.69 1092.59,1764.62C1091.52,1765.56 1089.69,1765.62 1088.53,1764.76L1083.59,1761.09C1082.42,1760.23 1082.35,1758.77 1083.42,1757.83C1084.5,1756.89 1086.32,1756.83 1087.49,1757.7L1092.43,1761.36ZM1077.6,1750.37C1078.77,1751.24 1078.84,1752.7 1077.76,1753.64C1076.69,1754.57 1074.87,1754.63 1073.7,1753.77L1068.76,1750.1C1067.59,1749.24 1067.52,1747.78 1068.59,1746.84C1069.67,1745.9 1071.49,1745.85 1072.66,1746.71L1077.6,1750.37ZM1062.77,1739.38C1063.94,1740.25 1064.01,1741.71 1062.93,1742.65C1061.86,1743.58 1060.04,1743.64 1058.87,1742.78L1053.92,1739.12C1052.76,1738.25 1052.68,1736.79 1053.76,1735.85C1054.84,1734.92 1056.66,1734.86 1057.83,1735.72L1062.77,1739.38ZM1047.94,1728.4C1049.11,1729.26 1049.18,1730.72 1048.1,1731.66C1047.03,1732.6 1045.2,1732.65 1044.04,1731.79L1041.57,1729.96C1040.98,1729.52 1040.64,1728.91 1040.64,1728.26L1040.64,1725.64C1040.64,1724.37 1041.93,1723.34 1043.52,1723.34C1045.11,1723.34 1046.39,1724.37 1046.39,1725.64L1046.39,1727.25L1047.94,1728.4ZM1046.39,1715.18C1046.39,1716.45 1045.11,1717.49 1043.52,1717.49C1041.93,1717.49 1040.64,1716.45 1040.64,1715.18L1040.64,1709.95C1040.64,1708.67 1041.93,1707.64 1043.52,1707.64C1045.11,1707.64 1046.39,1708.67 1046.39,1709.95L1046.39,1715.18ZM1046.39,1699.48C1046.39,1700.76 1045.11,1701.79 1043.52,1701.79C1041.93,1701.79 1040.64,1700.76 1040.64,1699.48L1040.64,1694.25C1040.64,1692.98 1041.93,1691.94 1043.52,1691.94C1045.11,1691.94 1046.39,1692.98 1046.39,1694.25L1046.39,1699.48ZM1046.39,1683.79C1046.39,1685.06 1045.11,1686.1 1043.52,1686.1C1041.93,1686.1 1040.64,1685.06 1040.64,1683.79L1040.64,1678.55C1040.64,1677.28 1041.93,1676.24 1043.52,1676.24C1045.11,1676.24 1046.39,1677.28 1046.39,1678.55L1046.39,1683.79ZM1046.39,1668.09C1046.39,1669.36 1045.11,1670.4 1043.52,1670.4C1041.93,1670.4 1040.64,1669.36 1040.64,1668.09L1040.64,1662.86C1040.64,1661.58 1041.93,1660.55 1043.52,1660.55C1045.11,1660.55 1046.39,1661.58 1046.39,1662.86L1046.39,1668.09ZM1046.39,1652.39C1046.39,1653.66 1045.11,1654.7 1043.52,1654.7C1041.93,1654.7 1040.64,1653.66 1040.64,1652.39L1040.64,1647.16C1040.64,1645.88 1041.93,1644.85 1043.52,1644.85C1045.11,1644.85 1046.39,1645.88 1046.39,1647.16L1046.39,1652.39ZM1046.39,1636.69C1046.39,1637.97 1045.11,1639 1043.52,1639C1041.93,1639 1040.64,1637.97 1040.64,1636.69L1040.64,1631.46C1040.64,1630.19 1041.93,1629.15 1043.52,1629.15C1045.11,1629.15 1046.39,1630.19 1046.39,1631.46L1046.39,1636.69ZM1046.39,1621C1046.39,1622.27 1045.11,1623.31 1043.52,1623.31C1041.93,1623.31 1040.64,1622.27 1040.64,1621L1040.64,1618.38C1040.64,1617.73 1040.98,1617.12 1041.57,1616.68L1044.04,1614.85C1045.2,1613.99 1047.03,1614.05 1048.1,1614.98C1049.18,1615.92 1049.11,1617.38 1047.94,1618.24L1046.39,1619.39L1046.39,1621ZM1057.83,1610.92C1056.66,1611.78 1054.84,1611.73 1053.76,1610.79C1052.68,1609.85 1052.76,1608.39 1053.92,1607.53L1058.87,1603.86C1060.04,1603 1061.86,1603.06 1062.93,1603.99C1064.01,1604.93 1063.94,1606.39 1062.77,1607.26L1057.83,1610.92ZM1072.66,1599.93C1071.49,1600.8 1069.67,1600.74 1068.59,1599.8C1067.52,1598.86 1067.59,1597.4 1068.76,1596.54L1073.7,1592.87C1074.87,1592.01 1076.69,1592.07 1077.76,1593.01C1078.84,1593.94 1078.77,1595.4 1077.6,1596.27L1072.66,1599.93ZM1087.49,1588.94C1086.32,1589.81 1084.5,1589.75 1083.42,1588.81C1082.35,1587.88 1082.42,1586.41 1083.59,1585.55L1088.53,1581.89C1089.69,1581.02 1091.52,1581.08 1092.59,1582.02C1093.67,1582.95 1093.6,1584.41 1092.43,1585.28L1087.49,1588.94ZM1102.32,1577.95C1101.15,1578.82 1099.33,1578.76 1098.25,1577.82C1097.17,1576.89 1097.25,1575.42 1098.41,1574.56L1103.36,1570.9C1104.53,1570.03 1106.35,1570.09 1107.42,1571.03C1108.5,1571.97 1108.43,1573.43 1107.26,1574.29L1102.32,1577.95ZM1117.15,1566.97C1115.98,1567.83 1114.16,1567.77 1113.08,1566.84C1112.01,1565.9 1112.08,1564.44 1113.25,1563.57L1115.72,1561.74C1116.82,1560.92 1118.52,1560.92 1119.62,1561.74L1123.06,1564.29C1124.23,1565.16 1124.3,1566.62 1123.23,1567.56C1122.15,1568.49 1120.33,1568.55 1119.16,1567.69C1119.16,1567.69 1117.67,1566.58 1117.67,1566.58L1117.15,1566.97ZM1132.93,1577.89C1131.77,1577.03 1131.69,1575.57 1132.77,1574.63C1133.85,1573.69 1135.67,1573.63 1136.84,1574.5L1140.28,1577.05C1141.45,1577.91 1141.52,1579.38 1140.44,1580.31C1139.37,1581.25 1137.55,1581.31 1136.38,1580.44L1132.93,1577.89Z"/>
    </g>
</svg>
