%TF.GenerationSoftware,KiCad,Pcbnew,9.0.6*%
%TF.CreationDate,2026-02-10T13:55:09-08:00*%
%TF.ProjectId,ArmEncoderBoard,41726d45-6e63-46f6-9465-72426f617264,rev?*%
%TF.SameCoordinates,Original*%
%TF.FileFunction,Copper,L1,Top*%
%TF.FilePolarity,Positive*%
%FSLAX46Y46*%
G04 Gerber Fmt 4.6, Leading zero omitted, Abs format (unit mm)*
G04 Created by KiCad (PCBNEW 9.0.6) date 2026-02-10 13:55:09*
%MOMM*%
%LPD*%
G01*
G04 APERTURE LIST*
G04 Aperture macros list*
%AMRoundRect*
0 Rectangle with rounded corners*
0 $1 Rounding radius*
0 $2 $3 $4 $5 $6 $7 $8 $9 X,Y pos of 4 corners*
0 Add a 4 corners polygon primitive as box body*
4,1,4,$2,$3,$4,$5,$6,$7,$8,$9,$2,$3,0*
0 Add four circle primitives for the rounded corners*
1,1,$1+$1,$2,$3*
1,1,$1+$1,$4,$5*
1,1,$1+$1,$6,$7*
1,1,$1+$1,$8,$9*
0 Add four rect primitives between the rounded corners*
20,1,$1+$1,$2,$3,$4,$5,0*
20,1,$1+$1,$4,$5,$6,$7,0*
20,1,$1+$1,$6,$7,$8,$9,0*
20,1,$1+$1,$8,$9,$2,$3,0*%
G04 Aperture macros list end*
%TA.AperFunction,SMDPad,CuDef*%
%ADD10R,0.762000X0.863600*%
%TD*%
%TA.AperFunction,SMDPad,CuDef*%
%ADD11R,0.558800X0.762000*%
%TD*%
%TA.AperFunction,SMDPad,CuDef*%
%ADD12R,0.711200X0.889000*%
%TD*%
%TA.AperFunction,ComponentPad*%
%ADD13C,7.000000*%
%TD*%
%TA.AperFunction,SMDPad,CuDef*%
%ADD14RoundRect,0.150000X0.150000X-0.587500X0.150000X0.587500X-0.150000X0.587500X-0.150000X-0.587500X0*%
%TD*%
%TA.AperFunction,SMDPad,CuDef*%
%ADD15R,0.774700X0.508000*%
%TD*%
%TA.AperFunction,SMDPad,CuDef*%
%ADD16RoundRect,0.125000X-0.762500X-0.125000X0.762500X-0.125000X0.762500X0.125000X-0.762500X0.125000X0*%
%TD*%
%TA.AperFunction,ComponentPad*%
%ADD17RoundRect,0.250000X-0.600000X-0.725000X0.600000X-0.725000X0.600000X0.725000X-0.600000X0.725000X0*%
%TD*%
%TA.AperFunction,ComponentPad*%
%ADD18O,1.700000X1.950000*%
%TD*%
%TA.AperFunction,SMDPad,CuDef*%
%ADD19R,0.860000X0.980000*%
%TD*%
%TA.AperFunction,SMDPad,CuDef*%
%ADD20R,0.711200X0.838200*%
%TD*%
%TA.AperFunction,SMDPad,CuDef*%
%ADD21R,0.350000X0.806400*%
%TD*%
%TA.AperFunction,ViaPad*%
%ADD22C,0.800000*%
%TD*%
%TA.AperFunction,Conductor*%
%ADD23C,0.250000*%
%TD*%
G04 APERTURE END LIST*
D10*
%TO.P,C1,1*%
%TO.N,GND*%
X145372300Y-80450000D03*
%TO.P,C1,2*%
%TO.N,VIN*%
X144127700Y-80450000D03*
%TD*%
D11*
%TO.P,R7,1*%
%TO.N,GND*%
X139911900Y-70500000D03*
%TO.P,R7,2*%
%TO.N,/I_ENV*%
X141258100Y-70500000D03*
%TD*%
D12*
%TO.P,R1,1*%
%TO.N,SCK*%
X144101500Y-84200000D03*
%TO.P,R1,2*%
%TO.N,GND*%
X145498500Y-84200000D03*
%TD*%
D11*
%TO.P,R6,1*%
%TO.N,GND*%
X136611900Y-70500000D03*
%TO.P,R6,2*%
%TO.N,/A_ENV*%
X137958100Y-70500000D03*
%TD*%
%TO.P,R5,1*%
%TO.N,Net-(Q1-B)*%
X130253800Y-75250000D03*
%TO.P,R5,2*%
%TO.N,/A_ENV*%
X131600000Y-75250000D03*
%TD*%
D10*
%TO.P,D1,1,K*%
%TO.N,/BLUE_CATHODE*%
X129672300Y-82180200D03*
%TO.P,D1,2,A*%
%TO.N,/BLUE_ANODE*%
X128427700Y-82180200D03*
%TD*%
D13*
%TO.P,H1,1*%
%TO.N,N/C*%
X126350500Y-69675500D03*
%TD*%
D14*
%TO.P,Q1,1,B*%
%TO.N,Net-(Q1-B)*%
X132700000Y-72375000D03*
%TO.P,Q1,2,E*%
%TO.N,GND*%
X134600000Y-72375000D03*
%TO.P,Q1,3,C*%
%TO.N,/BLUE_CATHODE*%
X133650000Y-70500000D03*
%TD*%
D15*
%TO.P,U1,1,1A*%
%TO.N,A*%
X137622750Y-75399999D03*
%TO.P,U1,2,GND*%
%TO.N,GND*%
X137622750Y-76350000D03*
%TO.P,U1,3,2A*%
%TO.N,I*%
X137622750Y-77300001D03*
%TO.P,U1,4,2Y*%
%TO.N,I_BUF*%
X140150050Y-77300001D03*
%TO.P,U1,5,VCC*%
%TO.N,VIN*%
X140150050Y-76350000D03*
%TO.P,U1,6,1Y*%
%TO.N,A_BUF*%
X140150050Y-75399999D03*
%TD*%
D13*
%TO.P,H3,1*%
%TO.N,N/C*%
X126350500Y-94424500D03*
%TD*%
D16*
%TO.P,U2,1,~{MagINC}*%
%TO.N,unconnected-(U2-~{MagINC}-Pad1)*%
X135312500Y-79775000D03*
%TO.P,U2,2,~{MagDEC}*%
%TO.N,unconnected-(U2-~{MagDEC}-Pad2)*%
X135312500Y-80425000D03*
%TO.P,U2,3,A*%
%TO.N,A*%
X135312500Y-81075000D03*
%TO.P,U2,4,B*%
%TO.N,unconnected-(U2-B-Pad4)*%
X135312500Y-81725000D03*
%TO.P,U2,5,NC*%
%TO.N,unconnected-(U2-NC-Pad5)*%
X135312500Y-82375000D03*
%TO.P,U2,6,I*%
%TO.N,I*%
X135312500Y-83025000D03*
%TO.P,U2,7,VSS*%
%TO.N,GND*%
X135312500Y-83675000D03*
%TO.P,U2,8,PDIO*%
X135312500Y-84325000D03*
%TO.P,U2,9,DO*%
%TO.N,MISO*%
X142137500Y-84325000D03*
%TO.P,U2,10,CLK*%
%TO.N,SCK*%
X142137500Y-83675000D03*
%TO.P,U2,11,~{CS}*%
%TO.N,CS*%
X142137500Y-83025000D03*
%TO.P,U2,12,PWM*%
%TO.N,unconnected-(U2-PWM-Pad12)*%
X142137500Y-82375000D03*
%TO.P,U2,13,NC*%
%TO.N,unconnected-(U2-NC-Pad13)*%
X142137500Y-81725000D03*
%TO.P,U2,14,NC*%
%TO.N,unconnected-(U2-NC-Pad14)*%
X142137500Y-81075000D03*
%TO.P,U2,15,VDD3V3*%
%TO.N,VIN*%
X142137500Y-80425000D03*
%TO.P,U2,16,VDD5V*%
X142137500Y-79775000D03*
%TD*%
D13*
%TO.P,H4,1*%
%TO.N,N/C*%
X151099500Y-94424500D03*
%TD*%
D10*
%TO.P,D2,1,K*%
%TO.N,/RED_CATHODE*%
X148972300Y-82180200D03*
%TO.P,D2,2,A*%
%TO.N,/RED_ANODE*%
X147727700Y-82180200D03*
%TD*%
D17*
%TO.P,J1,1,Pin_1*%
%TO.N,VIN*%
X133800000Y-93200000D03*
D18*
%TO.P,J1,2,Pin_2*%
%TO.N,CS*%
X136300000Y-93200000D03*
%TO.P,J1,3,Pin_3*%
%TO.N,SCK*%
X138800000Y-93200000D03*
%TO.P,J1,4,Pin_4*%
%TO.N,MISO*%
X141300000Y-93200000D03*
%TO.P,J1,5,Pin_5*%
%TO.N,GND*%
X143800000Y-93200000D03*
%TD*%
D10*
%TO.P,C2,1*%
%TO.N,GND*%
X131577700Y-82150000D03*
%TO.P,C2,2*%
%TO.N,VIN*%
X132822300Y-82150000D03*
%TD*%
D11*
%TO.P,R3,1*%
%TO.N,VIN*%
X128376900Y-83993800D03*
%TO.P,R3,2*%
%TO.N,/BLUE_ANODE*%
X129723100Y-83993800D03*
%TD*%
D19*
%TO.P,R4,1*%
%TO.N,VIN*%
X147585000Y-84200000D03*
%TO.P,R4,2*%
%TO.N,/RED_ANODE*%
X149115000Y-84200000D03*
%TD*%
D20*
%TO.P,C3,1*%
%TO.N,GND*%
X136706200Y-73300000D03*
%TO.P,C3,2*%
%TO.N,/A_ENV*%
X137900000Y-73300000D03*
%TD*%
D14*
%TO.P,Q2,1,B*%
%TO.N,Net-(Q2-B)*%
X143300000Y-72375000D03*
%TO.P,Q2,2,E*%
%TO.N,GND*%
X145200000Y-72375000D03*
%TO.P,Q2,3,C*%
%TO.N,/RED_CATHODE*%
X144250000Y-70500000D03*
%TD*%
D11*
%TO.P,R8,1*%
%TO.N,Net-(Q2-B)*%
X146103800Y-75250000D03*
%TO.P,R8,2*%
%TO.N,/I_ENV*%
X147450000Y-75250000D03*
%TD*%
D13*
%TO.P,H2,1*%
%TO.N,N/C*%
X151099500Y-69675500D03*
%TD*%
D12*
%TO.P,R2,1*%
%TO.N,VIN*%
X145498500Y-82200000D03*
%TO.P,R2,2*%
%TO.N,CS*%
X144101500Y-82200000D03*
%TD*%
D21*
%TO.P,CR1,1*%
%TO.N,/A_ENV*%
X133600000Y-75850800D03*
%TO.P,CR1,2*%
%TO.N,A_BUF*%
X133600000Y-78049200D03*
%TD*%
D20*
%TO.P,C4,1*%
%TO.N,GND*%
X140059500Y-73300000D03*
%TO.P,C4,2*%
%TO.N,/I_ENV*%
X141253300Y-73300000D03*
%TD*%
D21*
%TO.P,CR2,1*%
%TO.N,/I_ENV*%
X144350000Y-75950000D03*
%TO.P,CR2,2*%
%TO.N,I_BUF*%
X144350000Y-78148400D03*
%TD*%
D22*
%TO.N,GND*%
X149300000Y-74000000D03*
X145850000Y-73950000D03*
X132600000Y-85750000D03*
X138200000Y-81000000D03*
%TD*%
D23*
%TO.N,SCK*%
X143025600Y-83675000D02*
X143419200Y-84068600D01*
X139976700Y-93714800D02*
X140763600Y-94501700D01*
X138800000Y-93200000D02*
X139976700Y-93200000D01*
X141806600Y-94501700D02*
X142476700Y-93831600D01*
X142476700Y-89340200D02*
X143491100Y-88325800D01*
X142476700Y-93831600D02*
X142476700Y-89340200D01*
X142137500Y-83675000D02*
X143025600Y-83675000D01*
X143491100Y-88325800D02*
X143491100Y-84200000D01*
X143491100Y-84200000D02*
X143419200Y-84200000D01*
X140763600Y-94501700D02*
X141806600Y-94501700D01*
X144101500Y-84200000D02*
X143491100Y-84200000D01*
X139976700Y-93200000D02*
X139976700Y-93714800D01*
X143419200Y-84068600D02*
X143419200Y-84200000D01*
%TO.N,/A_ENV*%
X137900000Y-73300000D02*
X137900000Y-74045800D01*
X131600000Y-75250000D02*
X132497500Y-75250000D01*
X134903300Y-74045800D02*
X133098300Y-75850800D01*
X137958100Y-70500000D02*
X137958100Y-72496100D01*
X137900000Y-72938000D02*
X137900000Y-73300000D01*
X133600000Y-75850800D02*
X133098300Y-75850800D01*
X137958100Y-72496100D02*
X137900000Y-72554200D01*
X137900000Y-74045800D02*
X134903300Y-74045800D01*
X132497500Y-75250000D02*
X133098300Y-75850800D01*
X137900000Y-72938000D02*
X137900000Y-72554200D01*
%TO.N,VIN*%
X136424300Y-84917000D02*
X133800000Y-84917000D01*
X145498500Y-81428800D02*
X144348000Y-81428800D01*
X133800000Y-84181800D02*
X133748300Y-84181800D01*
X133800000Y-84917000D02*
X133800000Y-84181800D01*
X139436100Y-77766800D02*
X141444300Y-79775000D01*
X128376900Y-83993800D02*
X128376900Y-84624800D01*
X147585000Y-84200000D02*
X147498500Y-84200000D01*
X128376900Y-84624800D02*
X128669100Y-84917000D01*
X142162500Y-80450000D02*
X142137500Y-80425000D01*
X132822300Y-84181800D02*
X132822300Y-83478400D01*
X144127700Y-80450000D02*
X144127700Y-81208500D01*
X141444300Y-79775000D02*
X142137500Y-79775000D01*
X142137500Y-79775000D02*
X142137500Y-79821800D01*
X132822300Y-83478400D02*
X132822300Y-83425600D01*
X144348000Y-81428800D02*
X144127700Y-81208500D01*
X133800000Y-85652200D02*
X133800000Y-84917000D01*
X140150100Y-76350000D02*
X139436100Y-76350000D01*
X144127700Y-80450000D02*
X142162500Y-80450000D01*
X145498500Y-82200000D02*
X145498500Y-81428800D01*
X140916300Y-80425000D02*
X136424300Y-84917000D01*
X133800000Y-93200000D02*
X133800000Y-91977200D01*
X133748300Y-84181800D02*
X132822300Y-84181800D01*
X133800000Y-91925500D02*
X133800000Y-85652200D01*
X128669100Y-84917000D02*
X133800000Y-84917000D01*
X133800000Y-91977200D02*
X133800000Y-91925500D01*
X142137500Y-79821800D02*
X142137500Y-80425000D01*
X147498500Y-84200000D02*
X145498500Y-82200000D01*
X142137500Y-80425000D02*
X140916300Y-80425000D01*
X132822300Y-83425600D02*
X132822300Y-82908500D01*
X132822300Y-82150000D02*
X132822300Y-82908500D01*
X139436100Y-76350000D02*
X139436100Y-77766800D01*
%TO.N,/I_ENV*%
X141258100Y-70500000D02*
X141258100Y-71207700D01*
X144350000Y-75950000D02*
X144851700Y-75950000D01*
X147450000Y-75957700D02*
X144859400Y-75957700D01*
X141935600Y-74037300D02*
X143848300Y-75950000D01*
X141594500Y-73300000D02*
X141935600Y-73300000D01*
X141935600Y-73300000D02*
X141935600Y-74037300D01*
X144859400Y-75957700D02*
X144851700Y-75950000D01*
X144350000Y-75950000D02*
X143848300Y-75950000D01*
X147450000Y-75250000D02*
X147450000Y-75957700D01*
X141594500Y-73300000D02*
X141594500Y-71544100D01*
X141253300Y-73300000D02*
X141594500Y-73300000D01*
X141594500Y-71544100D02*
X141258100Y-71207700D01*
%TO.N,GND*%
X133342200Y-81392200D02*
X134099000Y-82149000D01*
X131577700Y-81929800D02*
X132115300Y-81392200D01*
X132115300Y-81392200D02*
X133342200Y-81392200D01*
X135312500Y-83675000D02*
X135312500Y-84325000D01*
X136242010Y-83675000D02*
X138200000Y-81717010D01*
X135312500Y-83675000D02*
X136242010Y-83675000D01*
X134099000Y-83340274D02*
X134433726Y-83675000D01*
X134099000Y-82149000D02*
X134099000Y-83340274D01*
X131577700Y-82150000D02*
X131577700Y-81929800D01*
X138200000Y-81717010D02*
X138200000Y-81000000D01*
X134433726Y-83675000D02*
X135312500Y-83675000D01*
%TO.N,CS*%
X143020600Y-83025000D02*
X143419200Y-82626400D01*
X141196100Y-83025000D02*
X142137500Y-83025000D01*
X142137500Y-83025000D02*
X143020600Y-83025000D01*
X136300000Y-87921100D02*
X141196100Y-83025000D01*
X144101500Y-82200000D02*
X143419200Y-82200000D01*
X143419200Y-82626400D02*
X143419200Y-82200000D01*
X136300000Y-93200000D02*
X136300000Y-87921100D01*
%TO.N,MISO*%
X141300000Y-93200000D02*
X141300000Y-85162500D01*
X141300000Y-85162500D02*
X142137500Y-84325000D01*
%TO.N,A_BUF*%
X140150100Y-75400000D02*
X139436100Y-75400000D01*
X138855400Y-74819300D02*
X139436100Y-75400000D01*
X133600000Y-78049200D02*
X136829900Y-74819300D01*
X136829900Y-74819300D02*
X138855400Y-74819300D01*
%TO.N,I_BUF*%
X141712600Y-78148400D02*
X144350000Y-78148400D01*
X140864200Y-77300000D02*
X141712600Y-78148400D01*
X140150100Y-77300000D02*
X140864200Y-77300000D01*
%TO.N,/BLUE_ANODE*%
X128426325Y-82200000D02*
X128427700Y-82198625D01*
X129723100Y-83790208D02*
X129723100Y-83993800D01*
X128427700Y-82494808D02*
X129723100Y-83790208D01*
X128427700Y-82180200D02*
X128427700Y-82494808D01*
%TO.N,/BLUE_CATHODE*%
X129648400Y-74011778D02*
X129648400Y-82174725D01*
X133160178Y-70500000D02*
X129648400Y-74011778D01*
X133650000Y-70500000D02*
X133160178Y-70500000D01*
X129648400Y-82174725D02*
X129672300Y-82198625D01*
%TO.N,/RED_CATHODE*%
X148084000Y-73846400D02*
X148084000Y-79292900D01*
X148972300Y-80181200D02*
X148972300Y-82180200D01*
X144250000Y-70500000D02*
X144737600Y-70500000D01*
X144737600Y-70500000D02*
X148084000Y-73846400D01*
X148084000Y-79292900D02*
X148972300Y-80181200D01*
%TO.N,/RED_ANODE*%
X147727700Y-82180200D02*
X147727700Y-82812700D01*
X147727700Y-82812700D02*
X149115000Y-84200000D01*
%TO.N,Net-(Q1-B)*%
X130253800Y-74542300D02*
X130532700Y-74542300D01*
X130532700Y-74542300D02*
X132700000Y-72375000D01*
X130253800Y-75250000D02*
X130253800Y-74542300D01*
%TO.N,Net-(Q2-B)*%
X143300000Y-73052300D02*
X145497700Y-75250000D01*
X143300000Y-72375000D02*
X143300000Y-73052300D01*
X146103800Y-75250000D02*
X145497700Y-75250000D01*
%TO.N,I*%
X136908800Y-82370400D02*
X136254200Y-83025000D01*
X137622800Y-77300000D02*
X136908800Y-77300000D01*
X136254200Y-83025000D02*
X135312500Y-83025000D01*
X136908800Y-77300000D02*
X136908800Y-82370400D01*
%TO.N,A*%
X134054000Y-78720500D02*
X136908800Y-75865700D01*
X134385100Y-81075000D02*
X134054000Y-80743900D01*
X134054000Y-80743900D02*
X134054000Y-78720500D01*
X137622800Y-75400000D02*
X136908800Y-75400000D01*
X136908800Y-75865700D02*
X136908800Y-75400000D01*
X135312500Y-81075000D02*
X134385100Y-81075000D01*
%TD*%
%TA.AperFunction,Conductor*%
%TO.N,GND*%
G36*
X132350154Y-75994347D02*
G01*
X132378405Y-76015495D01*
X132699567Y-76336658D01*
X132760979Y-76377692D01*
X132802014Y-76405112D01*
X132802016Y-76405113D01*
X132802018Y-76405114D01*
X132875274Y-76435457D01*
X132875303Y-76435468D01*
X132876241Y-76435857D01*
X132915848Y-76452263D01*
X132919556Y-76453000D01*
X132928493Y-76456541D01*
X132952153Y-76475009D01*
X132977255Y-76491459D01*
X132982088Y-76497513D01*
X133067452Y-76611544D01*
X133067455Y-76611547D01*
X133182664Y-76697793D01*
X133182671Y-76697797D01*
X133219087Y-76711379D01*
X133317517Y-76748091D01*
X133377127Y-76754500D01*
X133710747Y-76754499D01*
X133731993Y-76760737D01*
X133754081Y-76762317D01*
X133764863Y-76770388D01*
X133777786Y-76774183D01*
X133792287Y-76790919D01*
X133810014Y-76804189D01*
X133814720Y-76816807D01*
X133823541Y-76826987D01*
X133826692Y-76848905D01*
X133834431Y-76869653D01*
X133831568Y-76882813D01*
X133833485Y-76896146D01*
X133824285Y-76916288D01*
X133819579Y-76937926D01*
X133806308Y-76955652D01*
X133804460Y-76959701D01*
X133798428Y-76966180D01*
X133655427Y-77109181D01*
X133594104Y-77142666D01*
X133567747Y-77145500D01*
X133377130Y-77145500D01*
X133377123Y-77145501D01*
X133317516Y-77151908D01*
X133182671Y-77202202D01*
X133182664Y-77202206D01*
X133067455Y-77288452D01*
X133067452Y-77288455D01*
X132981206Y-77403664D01*
X132981202Y-77403671D01*
X132930908Y-77538517D01*
X132924501Y-77598116D01*
X132924500Y-77598135D01*
X132924500Y-78500270D01*
X132924501Y-78500276D01*
X132930908Y-78559883D01*
X132981202Y-78694728D01*
X132981206Y-78694735D01*
X133067452Y-78809944D01*
X133067455Y-78809947D01*
X133182664Y-78896193D01*
X133182671Y-78896197D01*
X133317511Y-78946489D01*
X133317517Y-78946491D01*
X133317745Y-78946515D01*
X133317913Y-78946584D01*
X133325062Y-78948274D01*
X133324788Y-78949431D01*
X133382296Y-78973246D01*
X133422150Y-79030634D01*
X133428500Y-79069805D01*
X133428500Y-80805510D01*
X133432124Y-80823732D01*
X133452535Y-80926345D01*
X133452538Y-80926355D01*
X133458317Y-80940308D01*
X133458324Y-80940325D01*
X133459409Y-80942942D01*
X133499688Y-81040186D01*
X133517959Y-81067530D01*
X133521934Y-81076008D01*
X133525884Y-81101664D01*
X133533639Y-81126431D01*
X133531114Y-81135632D01*
X133532567Y-81145064D01*
X133522020Y-81168780D01*
X133515154Y-81193811D01*
X133508054Y-81200187D01*
X133504178Y-81208906D01*
X133482483Y-81223156D01*
X133463175Y-81240500D01*
X133453757Y-81242026D01*
X133445780Y-81247266D01*
X133419822Y-81247524D01*
X133394205Y-81251676D01*
X133378971Y-81247932D01*
X133375913Y-81247963D01*
X133373870Y-81246678D01*
X133366326Y-81244825D01*
X133310782Y-81224108D01*
X133310783Y-81224108D01*
X133251183Y-81217701D01*
X133251181Y-81217700D01*
X133251173Y-81217700D01*
X133251164Y-81217700D01*
X132393429Y-81217700D01*
X132393423Y-81217701D01*
X132333815Y-81224109D01*
X132242617Y-81258123D01*
X132172926Y-81263107D01*
X132155952Y-81258123D01*
X132066080Y-81224603D01*
X132066072Y-81224601D01*
X132006544Y-81218200D01*
X131827700Y-81218200D01*
X131827700Y-83081800D01*
X132006528Y-83081800D01*
X132006541Y-83081799D01*
X132059543Y-83076100D01*
X132128302Y-83088504D01*
X132179441Y-83136113D01*
X132196800Y-83199389D01*
X132196800Y-84167500D01*
X132177115Y-84234539D01*
X132124311Y-84280294D01*
X132072800Y-84291500D01*
X130627000Y-84291500D01*
X130559961Y-84271815D01*
X130514206Y-84219011D01*
X130503000Y-84167500D01*
X130502999Y-83564929D01*
X130502998Y-83564923D01*
X130502997Y-83564916D01*
X130496591Y-83505317D01*
X130482549Y-83467669D01*
X130446297Y-83370471D01*
X130446293Y-83370464D01*
X130360047Y-83255255D01*
X130360044Y-83255252D01*
X130327220Y-83230680D01*
X130285349Y-83174747D01*
X130280365Y-83105055D01*
X130313850Y-83043732D01*
X130327207Y-83032157D01*
X130410846Y-82969546D01*
X130497096Y-82854331D01*
X130514717Y-82807087D01*
X130556586Y-82751155D01*
X130622050Y-82726737D01*
X130690323Y-82741588D01*
X130739729Y-82790992D01*
X130747080Y-82807087D01*
X130753346Y-82823888D01*
X130753349Y-82823893D01*
X130839509Y-82938987D01*
X130839512Y-82938990D01*
X130954606Y-83025150D01*
X130954613Y-83025154D01*
X131089320Y-83075396D01*
X131089327Y-83075398D01*
X131148855Y-83081799D01*
X131148872Y-83081800D01*
X131327700Y-83081800D01*
X131327700Y-81218200D01*
X131148855Y-81218200D01*
X131089327Y-81224601D01*
X131089320Y-81224603D01*
X130954613Y-81274845D01*
X130954606Y-81274849D01*
X130839512Y-81361009D01*
X130839509Y-81361012D01*
X130753349Y-81476106D01*
X130753343Y-81476117D01*
X130735815Y-81523112D01*
X130693944Y-81579046D01*
X130628479Y-81603462D01*
X130560206Y-81588610D01*
X130510801Y-81539204D01*
X130503451Y-81523108D01*
X130497097Y-81506071D01*
X130497093Y-81506064D01*
X130410847Y-81390855D01*
X130323588Y-81325532D01*
X130281718Y-81269598D01*
X130273900Y-81226266D01*
X130273900Y-76255499D01*
X130293585Y-76188460D01*
X130346389Y-76142705D01*
X130397900Y-76131499D01*
X130581071Y-76131499D01*
X130581072Y-76131499D01*
X130640683Y-76125091D01*
X130775531Y-76074796D01*
X130776190Y-76074302D01*
X130852589Y-76017111D01*
X130918053Y-75992693D01*
X130986326Y-76007544D01*
X131001211Y-76017111D01*
X131078264Y-76074793D01*
X131078271Y-76074797D01*
X131123218Y-76091561D01*
X131213117Y-76125091D01*
X131272727Y-76131500D01*
X131927272Y-76131499D01*
X131986883Y-76125091D01*
X132121731Y-76074796D01*
X132216418Y-76003913D01*
X132281880Y-75979496D01*
X132350154Y-75994347D01*
G37*
%TD.AperFunction*%
%TA.AperFunction,Conductor*%
G36*
X138662866Y-75540563D02*
G01*
X138674530Y-75541057D01*
X138694066Y-75554812D01*
X138715803Y-75564739D01*
X138722281Y-75570771D01*
X138939527Y-75788017D01*
X138973012Y-75849340D01*
X138968028Y-75919032D01*
X138952744Y-75945613D01*
X138953626Y-75946202D01*
X138881792Y-76053707D01*
X138881787Y-76053716D01*
X138834638Y-76167545D01*
X138834635Y-76167555D01*
X138810600Y-76288389D01*
X138810600Y-76288394D01*
X138810600Y-77828406D01*
X138825131Y-77901463D01*
X138825131Y-77901464D01*
X138834634Y-77949243D01*
X138834636Y-77949247D01*
X138834637Y-77949251D01*
X138859559Y-78009419D01*
X138881787Y-78063085D01*
X138897630Y-78086794D01*
X138897631Y-78086796D01*
X138950240Y-78165531D01*
X138950241Y-78165532D01*
X138950242Y-78165533D01*
X139037367Y-78252658D01*
X139037368Y-78252658D01*
X139044435Y-78259725D01*
X139044434Y-78259725D01*
X139044438Y-78259728D01*
X140534385Y-79749676D01*
X140567870Y-79810999D01*
X140562886Y-79880691D01*
X140533218Y-79926190D01*
X140525058Y-79934136D01*
X140517567Y-79939142D01*
X140430442Y-80026267D01*
X140430439Y-80026270D01*
X140429887Y-80026821D01*
X140429849Y-80026859D01*
X137672752Y-82783956D01*
X137611429Y-82817441D01*
X137541737Y-82812457D01*
X137485804Y-82770585D01*
X137461387Y-82705121D01*
X137470509Y-82648824D01*
X137510263Y-82552852D01*
X137525442Y-82476542D01*
X137531926Y-82443947D01*
X137534299Y-82432010D01*
X137534300Y-82432007D01*
X137534300Y-78178500D01*
X137553985Y-78111461D01*
X137606789Y-78065706D01*
X137658300Y-78054500D01*
X138057971Y-78054500D01*
X138057972Y-78054500D01*
X138117583Y-78048092D01*
X138252431Y-77997797D01*
X138367646Y-77911547D01*
X138453896Y-77796332D01*
X138504191Y-77661484D01*
X138510600Y-77601874D01*
X138510599Y-76998129D01*
X138504191Y-76938518D01*
X138503970Y-76937926D01*
X138477747Y-76867618D01*
X138472763Y-76797927D01*
X138477748Y-76780950D01*
X138503697Y-76711379D01*
X138503697Y-76711377D01*
X138510099Y-76651844D01*
X138510100Y-76651827D01*
X138510100Y-76600000D01*
X138268891Y-76600000D01*
X138225558Y-76592182D01*
X138117582Y-76551909D01*
X138117583Y-76551909D01*
X138057983Y-76545502D01*
X138057981Y-76545501D01*
X138057973Y-76545501D01*
X138057965Y-76545501D01*
X137746750Y-76545501D01*
X137738064Y-76542950D01*
X137729103Y-76544239D01*
X137705062Y-76533260D01*
X137679711Y-76525816D01*
X137673783Y-76518975D01*
X137665547Y-76515214D01*
X137651257Y-76492979D01*
X137633956Y-76473012D01*
X137631668Y-76462497D01*
X137627773Y-76456436D01*
X137622750Y-76421501D01*
X137622750Y-76278498D01*
X137642435Y-76211459D01*
X137695239Y-76165704D01*
X137746750Y-76154498D01*
X138057971Y-76154498D01*
X138057972Y-76154498D01*
X138117583Y-76148090D01*
X138162066Y-76131499D01*
X138225558Y-76107818D01*
X138268891Y-76100000D01*
X138510100Y-76100000D01*
X138510100Y-76048172D01*
X138510099Y-76048155D01*
X138503698Y-75988627D01*
X138503697Y-75988623D01*
X138477747Y-75919048D01*
X138472046Y-75852898D01*
X138474011Y-75842396D01*
X138504191Y-75761482D01*
X138510600Y-75701872D01*
X138510600Y-75646944D01*
X138512717Y-75635636D01*
X138523553Y-75614337D01*
X138530285Y-75591413D01*
X138539106Y-75583769D01*
X138544401Y-75573363D01*
X138565033Y-75561303D01*
X138583089Y-75545658D01*
X138594641Y-75543996D01*
X138604722Y-75538105D01*
X138628596Y-75539114D01*
X138652247Y-75535714D01*
X138662866Y-75540563D01*
G37*
%TD.AperFunction*%
%TA.AperFunction,Conductor*%
G36*
X144343039Y-71757685D02*
G01*
X144388794Y-71810489D01*
X144400000Y-71862000D01*
X144400000Y-72125000D01*
X145076000Y-72125000D01*
X145143039Y-72144685D01*
X145188794Y-72197489D01*
X145200000Y-72249000D01*
X145200000Y-72375000D01*
X145326000Y-72375000D01*
X145393039Y-72394685D01*
X145438794Y-72447489D01*
X145450000Y-72499000D01*
X145450000Y-73609795D01*
X145450001Y-73609795D01*
X145452486Y-73609600D01*
X145610198Y-73563781D01*
X145751552Y-73480185D01*
X145751561Y-73480178D01*
X145867678Y-73364061D01*
X145867685Y-73364052D01*
X145951282Y-73222696D01*
X145951283Y-73222693D01*
X145997099Y-73064995D01*
X145997100Y-73064989D01*
X145999999Y-73028149D01*
X146000000Y-73028134D01*
X146000000Y-72946352D01*
X146019685Y-72879313D01*
X146072489Y-72833558D01*
X146141647Y-72823614D01*
X146205203Y-72852639D01*
X146211681Y-72858671D01*
X147422181Y-74069171D01*
X147436884Y-74096098D01*
X147453477Y-74121917D01*
X147454368Y-74128117D01*
X147455666Y-74130494D01*
X147458500Y-74156852D01*
X147458500Y-74244500D01*
X147438815Y-74311539D01*
X147386011Y-74357294D01*
X147334501Y-74368500D01*
X147122730Y-74368500D01*
X147122723Y-74368501D01*
X147063116Y-74374908D01*
X146928271Y-74425202D01*
X146928264Y-74425206D01*
X146851211Y-74482889D01*
X146785747Y-74507307D01*
X146717474Y-74492456D01*
X146702589Y-74482889D01*
X146625535Y-74425206D01*
X146625528Y-74425202D01*
X146490686Y-74374910D01*
X146490685Y-74374909D01*
X146490683Y-74374909D01*
X146431073Y-74368500D01*
X146431063Y-74368500D01*
X145776529Y-74368500D01*
X145776523Y-74368501D01*
X145716915Y-74374909D01*
X145638833Y-74404031D01*
X145569141Y-74409015D01*
X145507820Y-74375530D01*
X144933152Y-73800862D01*
X144899667Y-73739539D01*
X144904651Y-73669847D01*
X144936662Y-73622125D01*
X144950000Y-73609795D01*
X144950000Y-72625000D01*
X144400000Y-72625000D01*
X144400000Y-72968348D01*
X144393761Y-72989593D01*
X144392182Y-73011682D01*
X144384109Y-73022465D01*
X144380315Y-73035387D01*
X144363581Y-73049886D01*
X144350310Y-73067615D01*
X144337689Y-73072322D01*
X144327511Y-73081142D01*
X144305593Y-73084293D01*
X144284846Y-73092032D01*
X144271685Y-73089169D01*
X144258353Y-73091086D01*
X144238209Y-73081886D01*
X144216573Y-73077180D01*
X144198847Y-73063911D01*
X144194797Y-73062061D01*
X144188319Y-73056029D01*
X144136819Y-73004529D01*
X144103334Y-72943206D01*
X144100500Y-72916848D01*
X144100500Y-71862000D01*
X144120185Y-71794961D01*
X144172989Y-71749206D01*
X144224500Y-71738000D01*
X144276000Y-71738000D01*
X144343039Y-71757685D01*
G37*
%TD.AperFunction*%
%TA.AperFunction,Conductor*%
G36*
X153740470Y-65070185D02*
G01*
X153761112Y-65086819D01*
X155688181Y-67013888D01*
X155721666Y-67075211D01*
X155724500Y-67101569D01*
X155724500Y-96998431D01*
X155704815Y-97065470D01*
X155688181Y-97086112D01*
X153761112Y-99013181D01*
X153699789Y-99046666D01*
X153673431Y-99049500D01*
X123776569Y-99049500D01*
X123709530Y-99029815D01*
X123688888Y-99013181D01*
X121761819Y-97086112D01*
X121728334Y-97024789D01*
X121725500Y-96998431D01*
X121725500Y-94227968D01*
X122350000Y-94227968D01*
X122350000Y-94621032D01*
X122355365Y-94675499D01*
X122388526Y-95012202D01*
X122465204Y-95397694D01*
X122465207Y-95397705D01*
X122579310Y-95773854D01*
X122729730Y-96136999D01*
X122729732Y-96137004D01*
X122915011Y-96483637D01*
X122915022Y-96483655D01*
X123133387Y-96810460D01*
X123133397Y-96810474D01*
X123382754Y-97114317D01*
X123660682Y-97392245D01*
X123660687Y-97392249D01*
X123660688Y-97392250D01*
X123964531Y-97641607D01*
X124291351Y-97859982D01*
X124291360Y-97859987D01*
X124291362Y-97859988D01*
X124637995Y-98045267D01*
X124637997Y-98045267D01*
X124638003Y-98045271D01*
X125001147Y-98195690D01*
X125377285Y-98309790D01*
X125377291Y-98309791D01*
X125377294Y-98309792D01*
X125377305Y-98309795D01*
X125762797Y-98386473D01*
X126153968Y-98425000D01*
X126153971Y-98425000D01*
X126547029Y-98425000D01*
X126547032Y-98425000D01*
X126938203Y-98386473D01*
X127013248Y-98371545D01*
X127323694Y-98309795D01*
X127323705Y-98309792D01*
X127323705Y-98309791D01*
X127323715Y-98309790D01*
X127699853Y-98195690D01*
X128062997Y-98045271D01*
X128409649Y-97859982D01*
X128736469Y-97641607D01*
X129040312Y-97392250D01*
X129318250Y-97114312D01*
X129567607Y-96810469D01*
X129785982Y-96483649D01*
X129971271Y-96136997D01*
X130121690Y-95773853D01*
X130235790Y-95397715D01*
X130235792Y-95397705D01*
X130235795Y-95397694D01*
X130312473Y-95012202D01*
X130345635Y-94675499D01*
X130351000Y-94621032D01*
X130351000Y-94227968D01*
X130312473Y-93836797D01*
X130273851Y-93642630D01*
X130235795Y-93451305D01*
X130235792Y-93451294D01*
X130235791Y-93451291D01*
X130235790Y-93451285D01*
X130121690Y-93075147D01*
X129971271Y-92712003D01*
X129809012Y-92408438D01*
X129785988Y-92365362D01*
X129785987Y-92365360D01*
X129785982Y-92365351D01*
X129567607Y-92038531D01*
X129318250Y-91734688D01*
X129318249Y-91734687D01*
X129318245Y-91734682D01*
X129040317Y-91456754D01*
X128736474Y-91207397D01*
X128736473Y-91207396D01*
X128736469Y-91207393D01*
X128409649Y-90989018D01*
X128409644Y-90989015D01*
X128409637Y-90989011D01*
X128063004Y-90803732D01*
X128062999Y-90803730D01*
X127699854Y-90653310D01*
X127323705Y-90539207D01*
X127323694Y-90539204D01*
X126938202Y-90462526D01*
X126643589Y-90433510D01*
X126547032Y-90424000D01*
X126153968Y-90424000D01*
X126064751Y-90432787D01*
X125762797Y-90462526D01*
X125377305Y-90539204D01*
X125377294Y-90539207D01*
X125001145Y-90653310D01*
X124638000Y-90803730D01*
X124637995Y-90803732D01*
X124291362Y-90989011D01*
X124291344Y-90989022D01*
X123964539Y-91207387D01*
X123964525Y-91207397D01*
X123660682Y-91456754D01*
X123382754Y-91734682D01*
X123133397Y-92038525D01*
X123133387Y-92038539D01*
X122915022Y-92365344D01*
X122915011Y-92365362D01*
X122729732Y-92711995D01*
X122729730Y-92712000D01*
X122579310Y-93075145D01*
X122465207Y-93451294D01*
X122465204Y-93451305D01*
X122388526Y-93836797D01*
X122364790Y-94077799D01*
X122350000Y-94227968D01*
X121725500Y-94227968D01*
X121725500Y-81700535D01*
X127546200Y-81700535D01*
X127546200Y-82659870D01*
X127546201Y-82659876D01*
X127552608Y-82719483D01*
X127602902Y-82854328D01*
X127602906Y-82854335D01*
X127666280Y-82938990D01*
X127689154Y-82969546D01*
X127772780Y-83032148D01*
X127814650Y-83088081D01*
X127819634Y-83157773D01*
X127786149Y-83219096D01*
X127772780Y-83230680D01*
X127739952Y-83255255D01*
X127653706Y-83370464D01*
X127653702Y-83370471D01*
X127603408Y-83505317D01*
X127597001Y-83564916D01*
X127597001Y-83564923D01*
X127597000Y-83564935D01*
X127597000Y-84422670D01*
X127597001Y-84422676D01*
X127603408Y-84482283D01*
X127653702Y-84617128D01*
X127653703Y-84617129D01*
X127653704Y-84617131D01*
X127710030Y-84692373D01*
X127745269Y-84739446D01*
X127744761Y-84739825D01*
X127765052Y-84769605D01*
X127770382Y-84781843D01*
X127770665Y-84783263D01*
X127775437Y-84807251D01*
X127822588Y-84921086D01*
X127840686Y-84948170D01*
X127846844Y-84957387D01*
X127846846Y-84957390D01*
X127891038Y-85023528D01*
X127891044Y-85023536D01*
X127982486Y-85114978D01*
X127982508Y-85114998D01*
X128180116Y-85312606D01*
X128180145Y-85312637D01*
X128270363Y-85402855D01*
X128270367Y-85402858D01*
X128372807Y-85471307D01*
X128372811Y-85471309D01*
X128372814Y-85471311D01*
X128486648Y-85518463D01*
X128547071Y-85530481D01*
X128607493Y-85542500D01*
X128607494Y-85542500D01*
X133050500Y-85542500D01*
X133117539Y-85562185D01*
X133163294Y-85614989D01*
X133174500Y-85666500D01*
X133174500Y-91610018D01*
X133154815Y-91677057D01*
X133102011Y-91722812D01*
X133063107Y-91733376D01*
X133047200Y-91735001D01*
X132880668Y-91790185D01*
X132880663Y-91790187D01*
X132731342Y-91882289D01*
X132607289Y-92006342D01*
X132515187Y-92155663D01*
X132515185Y-92155668D01*
X132510325Y-92170334D01*
X132460001Y-92322203D01*
X132460001Y-92322204D01*
X132460000Y-92322204D01*
X132449500Y-92424983D01*
X132449500Y-93975001D01*
X132449501Y-93975018D01*
X132460000Y-94077796D01*
X132460001Y-94077799D01*
X132513378Y-94238879D01*
X132515186Y-94244334D01*
X132607288Y-94393656D01*
X132731344Y-94517712D01*
X132880666Y-94609814D01*
X133047203Y-94664999D01*
X133149991Y-94675500D01*
X134450008Y-94675499D01*
X134552797Y-94664999D01*
X134719334Y-94609814D01*
X134868656Y-94517712D01*
X134992712Y-94393656D01*
X135084814Y-94244334D01*
X135084814Y-94244331D01*
X135088178Y-94238879D01*
X135140126Y-94192154D01*
X135209088Y-94180931D01*
X135273170Y-94208774D01*
X135281398Y-94216294D01*
X135420213Y-94355109D01*
X135592179Y-94480048D01*
X135592181Y-94480049D01*
X135592184Y-94480051D01*
X135781588Y-94576557D01*
X135983757Y-94642246D01*
X136193713Y-94675500D01*
X136193714Y-94675500D01*
X136406286Y-94675500D01*
X136406287Y-94675500D01*
X136616243Y-94642246D01*
X136818412Y-94576557D01*
X137007816Y-94480051D01*
X137107197Y-94407847D01*
X137179786Y-94355109D01*
X137179788Y-94355106D01*
X137179792Y-94355104D01*
X137330104Y-94204792D01*
X137449683Y-94040204D01*
X137505011Y-93997540D01*
X137574624Y-93991561D01*
X137636420Y-94024166D01*
X137650313Y-94040199D01*
X137731568Y-94152037D01*
X137769896Y-94204792D01*
X137920213Y-94355109D01*
X138092179Y-94480048D01*
X138092181Y-94480049D01*
X138092184Y-94480051D01*
X138281588Y-94576557D01*
X138483757Y-94642246D01*
X138693713Y-94675500D01*
X138693714Y-94675500D01*
X138906286Y-94675500D01*
X138906287Y-94675500D01*
X139116243Y-94642246D01*
X139318412Y-94576557D01*
X139507816Y-94480051D01*
X139624591Y-94395208D01*
X139690396Y-94371730D01*
X139758450Y-94387555D01*
X139785156Y-94407847D01*
X140364863Y-94987555D01*
X140364867Y-94987558D01*
X140467310Y-95056009D01*
X140467311Y-95056009D01*
X140467315Y-95056012D01*
X140533997Y-95083632D01*
X140581148Y-95103163D01*
X140601197Y-95107151D01*
X140666224Y-95120085D01*
X140701992Y-95127201D01*
X140701994Y-95127201D01*
X140831321Y-95127201D01*
X140831341Y-95127200D01*
X141868207Y-95127200D01*
X141928629Y-95115181D01*
X141989052Y-95103163D01*
X142022392Y-95089352D01*
X142102886Y-95056012D01*
X142168449Y-95012203D01*
X142205333Y-94987558D01*
X142292458Y-94900433D01*
X142292458Y-94900431D01*
X142302666Y-94890224D01*
X142302667Y-94890221D01*
X142797945Y-94394944D01*
X142859263Y-94361463D01*
X142928955Y-94366447D01*
X142958506Y-94382311D01*
X143092442Y-94479620D01*
X143281782Y-94576095D01*
X143483871Y-94641757D01*
X143550000Y-94652231D01*
X143550000Y-93604145D01*
X143616657Y-93642630D01*
X143737465Y-93675000D01*
X143862535Y-93675000D01*
X143983343Y-93642630D01*
X144050000Y-93604145D01*
X144050000Y-94652230D01*
X144116126Y-94641757D01*
X144116129Y-94641757D01*
X144318217Y-94576095D01*
X144507557Y-94479620D01*
X144679459Y-94354727D01*
X144679464Y-94354723D01*
X144806219Y-94227968D01*
X147099000Y-94227968D01*
X147099000Y-94621032D01*
X147104365Y-94675499D01*
X147137526Y-95012202D01*
X147214204Y-95397694D01*
X147214207Y-95397705D01*
X147328310Y-95773854D01*
X147478730Y-96136999D01*
X147478732Y-96137004D01*
X147664011Y-96483637D01*
X147664022Y-96483655D01*
X147882387Y-96810460D01*
X147882397Y-96810474D01*
X148131754Y-97114317D01*
X148409682Y-97392245D01*
X148409687Y-97392249D01*
X148409688Y-97392250D01*
X148713531Y-97641607D01*
X149040351Y-97859982D01*
X149040360Y-97859987D01*
X149040362Y-97859988D01*
X149386995Y-98045267D01*
X149386997Y-98045267D01*
X149387003Y-98045271D01*
X149750147Y-98195690D01*
X150126285Y-98309790D01*
X150126291Y-98309791D01*
X150126294Y-98309792D01*
X150126305Y-98309795D01*
X150511797Y-98386473D01*
X150902968Y-98425000D01*
X150902971Y-98425000D01*
X151296029Y-98425000D01*
X151296032Y-98425000D01*
X151687203Y-98386473D01*
X151762248Y-98371545D01*
X152072694Y-98309795D01*
X152072705Y-98309792D01*
X152072705Y-98309791D01*
X152072715Y-98309790D01*
X152448853Y-98195690D01*
X152811997Y-98045271D01*
X153158649Y-97859982D01*
X153485469Y-97641607D01*
X153789312Y-97392250D01*
X154067250Y-97114312D01*
X154316607Y-96810469D01*
X154534982Y-96483649D01*
X154720271Y-96136997D01*
X154870690Y-95773853D01*
X154984790Y-95397715D01*
X154984792Y-95397705D01*
X154984795Y-95397694D01*
X155061473Y-95012202D01*
X155094635Y-94675499D01*
X155100000Y-94621032D01*
X155100000Y-94227968D01*
X155061473Y-93836797D01*
X155022851Y-93642630D01*
X154984795Y-93451305D01*
X154984792Y-93451294D01*
X154984791Y-93451291D01*
X154984790Y-93451285D01*
X154870690Y-93075147D01*
X154720271Y-92712003D01*
X154558012Y-92408438D01*
X154534988Y-92365362D01*
X154534987Y-92365360D01*
X154534982Y-92365351D01*
X154316607Y-92038531D01*
X154067250Y-91734688D01*
X154067249Y-91734687D01*
X154067245Y-91734682D01*
X153789317Y-91456754D01*
X153485474Y-91207397D01*
X153485473Y-91207396D01*
X153485469Y-91207393D01*
X153158649Y-90989018D01*
X153158644Y-90989015D01*
X153158637Y-90989011D01*
X152812004Y-90803732D01*
X152811999Y-90803730D01*
X152448854Y-90653310D01*
X152072705Y-90539207D01*
X152072694Y-90539204D01*
X151687202Y-90462526D01*
X151392589Y-90433510D01*
X151296032Y-90424000D01*
X150902968Y-90424000D01*
X150813751Y-90432787D01*
X150511797Y-90462526D01*
X150126305Y-90539204D01*
X150126294Y-90539207D01*
X149750145Y-90653310D01*
X149387000Y-90803730D01*
X149386995Y-90803732D01*
X149040362Y-90989011D01*
X149040344Y-90989022D01*
X148713539Y-91207387D01*
X148713525Y-91207397D01*
X148409682Y-91456754D01*
X148131754Y-91734682D01*
X147882397Y-92038525D01*
X147882387Y-92038539D01*
X147664022Y-92365344D01*
X147664011Y-92365362D01*
X147478732Y-92711995D01*
X147478730Y-92712000D01*
X147328310Y-93075145D01*
X147214207Y-93451294D01*
X147214204Y-93451305D01*
X147137526Y-93836797D01*
X147113790Y-94077799D01*
X147099000Y-94227968D01*
X144806219Y-94227968D01*
X144829721Y-94204466D01*
X144867812Y-94152039D01*
X144867814Y-94152037D01*
X144954620Y-94032557D01*
X145051095Y-93843217D01*
X145116757Y-93641130D01*
X145116757Y-93641127D01*
X145147030Y-93450000D01*
X144204146Y-93450000D01*
X144242630Y-93383343D01*
X144275000Y-93262535D01*
X144275000Y-93137465D01*
X144242630Y-93016657D01*
X144204146Y-92950000D01*
X145147030Y-92950000D01*
X145116757Y-92758872D01*
X145116757Y-92758869D01*
X145051095Y-92556782D01*
X144954620Y-92367442D01*
X144829727Y-92195540D01*
X144829723Y-92195535D01*
X144679464Y-92045276D01*
X144679459Y-92045272D01*
X144507557Y-91920379D01*
X144318215Y-91823903D01*
X144116124Y-91758241D01*
X144050000Y-91747768D01*
X144050000Y-92795854D01*
X143983343Y-92757370D01*
X143862535Y-92725000D01*
X143737465Y-92725000D01*
X143616657Y-92757370D01*
X143550000Y-92795854D01*
X143550000Y-91747768D01*
X143549999Y-91747768D01*
X143483875Y-91758241D01*
X143281783Y-91823903D01*
X143277281Y-91825769D01*
X143276802Y-91824613D01*
X143213811Y-91836436D01*
X143149074Y-91810152D01*
X143108823Y-91753040D01*
X143102200Y-91713056D01*
X143102200Y-89650651D01*
X143121885Y-89583612D01*
X143138515Y-89562974D01*
X143889829Y-88811660D01*
X143889833Y-88811658D01*
X143976958Y-88724533D01*
X144045411Y-88622086D01*
X144092563Y-88508252D01*
X144116600Y-88387406D01*
X144116600Y-85268999D01*
X144136285Y-85201960D01*
X144189089Y-85156205D01*
X144240600Y-85144999D01*
X144504971Y-85144999D01*
X144504972Y-85144999D01*
X144564583Y-85138591D01*
X144699431Y-85088296D01*
X144726107Y-85068325D01*
X144791566Y-85043909D01*
X144859839Y-85058759D01*
X144874728Y-85068327D01*
X144900808Y-85087851D01*
X145035523Y-85138097D01*
X145035527Y-85138098D01*
X145095055Y-85144499D01*
X145095072Y-85144500D01*
X145248500Y-85144500D01*
X145748500Y-85144500D01*
X145901928Y-85144500D01*
X145901944Y-85144499D01*
X145961472Y-85138098D01*
X145961479Y-85138096D01*
X146096186Y-85087854D01*
X146096193Y-85087850D01*
X146211287Y-85001690D01*
X146211290Y-85001687D01*
X146297450Y-84886593D01*
X146297454Y-84886586D01*
X146347696Y-84751879D01*
X146347698Y-84751872D01*
X146354099Y-84692344D01*
X146354100Y-84692327D01*
X146354100Y-84450000D01*
X145748500Y-84450000D01*
X145748500Y-85144500D01*
X145248500Y-85144500D01*
X145248500Y-84324000D01*
X145268185Y-84256961D01*
X145320989Y-84211206D01*
X145372500Y-84200000D01*
X145498500Y-84200000D01*
X145498500Y-84074000D01*
X145518185Y-84006961D01*
X145570989Y-83961206D01*
X145622500Y-83950000D01*
X146312548Y-83950000D01*
X146379587Y-83969685D01*
X146400229Y-83986319D01*
X146618181Y-84204271D01*
X146651666Y-84265594D01*
X146654500Y-84291952D01*
X146654500Y-84737870D01*
X146654501Y-84737876D01*
X146660908Y-84797483D01*
X146711202Y-84932328D01*
X146711206Y-84932335D01*
X146797452Y-85047544D01*
X146797455Y-85047547D01*
X146912664Y-85133793D01*
X146912671Y-85133797D01*
X147047517Y-85184091D01*
X147047516Y-85184091D01*
X147054444Y-85184835D01*
X147107127Y-85190500D01*
X148062872Y-85190499D01*
X148122483Y-85184091D01*
X148257329Y-85133797D01*
X148257329Y-85133796D01*
X148257331Y-85133796D01*
X148275688Y-85120053D01*
X148341150Y-85095635D01*
X148409424Y-85110485D01*
X148424308Y-85120050D01*
X148442665Y-85133793D01*
X148442669Y-85133796D01*
X148442670Y-85133797D01*
X148577517Y-85184091D01*
X148577516Y-85184091D01*
X148584444Y-85184835D01*
X148637127Y-85190500D01*
X149592872Y-85190499D01*
X149652483Y-85184091D01*
X149787331Y-85133796D01*
X149902546Y-85047546D01*
X149988796Y-84932331D01*
X150039091Y-84797483D01*
X150045500Y-84737873D01*
X150045499Y-83662128D01*
X150039091Y-83602517D01*
X150035765Y-83593600D01*
X149988797Y-83467671D01*
X149988793Y-83467664D01*
X149902547Y-83352455D01*
X149902544Y-83352452D01*
X149787335Y-83266206D01*
X149787328Y-83266202D01*
X149684550Y-83227869D01*
X149628616Y-83185998D01*
X149604199Y-83120534D01*
X149619050Y-83052261D01*
X149653571Y-83012421D01*
X149710846Y-82969546D01*
X149797096Y-82854331D01*
X149847391Y-82719483D01*
X149853800Y-82659873D01*
X149853799Y-81700528D01*
X149847391Y-81640917D01*
X149833421Y-81603462D01*
X149797097Y-81506071D01*
X149797093Y-81506064D01*
X149716161Y-81397954D01*
X149710846Y-81390854D01*
X149647488Y-81343423D01*
X149605618Y-81287491D01*
X149597800Y-81244158D01*
X149597800Y-80119596D01*
X149579237Y-80026270D01*
X149573763Y-79998748D01*
X149549073Y-79939142D01*
X149526612Y-79884915D01*
X149509556Y-79859390D01*
X149458158Y-79782467D01*
X149458156Y-79782464D01*
X149367937Y-79692245D01*
X149367906Y-79692216D01*
X148745819Y-79070129D01*
X148712334Y-79008806D01*
X148709500Y-78982448D01*
X148709500Y-73784792D01*
X148709499Y-73784789D01*
X148705955Y-73766972D01*
X148685463Y-73663948D01*
X148644164Y-73564244D01*
X148638312Y-73550116D01*
X148638307Y-73550107D01*
X148569858Y-73447667D01*
X148569855Y-73447663D01*
X148479637Y-73357445D01*
X148479606Y-73357416D01*
X145230015Y-70107825D01*
X145223460Y-70101270D01*
X145223458Y-70101267D01*
X145136333Y-70014142D01*
X145098079Y-69988581D01*
X145091355Y-69982504D01*
X145077631Y-69960134D01*
X145060804Y-69939999D01*
X145058505Y-69928959D01*
X145054818Y-69922949D01*
X145055040Y-69912316D01*
X145050500Y-69890510D01*
X145050500Y-69846813D01*
X145050499Y-69846798D01*
X145047598Y-69809932D01*
X145047597Y-69809926D01*
X145008585Y-69675649D01*
X145001744Y-69652102D01*
X144981872Y-69618500D01*
X144934884Y-69539046D01*
X144934883Y-69539045D01*
X144918083Y-69510638D01*
X144918076Y-69510629D01*
X144886415Y-69478968D01*
X147099000Y-69478968D01*
X147099000Y-69872032D01*
X147107348Y-69956789D01*
X147137526Y-70263202D01*
X147214204Y-70648694D01*
X147214207Y-70648705D01*
X147328310Y-71024854D01*
X147396746Y-71190073D01*
X147477751Y-71385637D01*
X147478730Y-71387999D01*
X147478732Y-71388004D01*
X147664011Y-71734637D01*
X147664022Y-71734655D01*
X147882387Y-72061460D01*
X147882397Y-72061474D01*
X148131754Y-72365317D01*
X148409682Y-72643245D01*
X148409687Y-72643249D01*
X148409688Y-72643250D01*
X148713531Y-72892607D01*
X149040351Y-73110982D01*
X149040360Y-73110987D01*
X149040362Y-73110988D01*
X149386995Y-73296267D01*
X149386997Y-73296267D01*
X149387003Y-73296271D01*
X149750147Y-73446690D01*
X150126285Y-73560790D01*
X150126291Y-73560791D01*
X150126294Y-73560792D01*
X150126305Y-73560795D01*
X150511797Y-73637473D01*
X150902968Y-73676000D01*
X150902971Y-73676000D01*
X151296029Y-73676000D01*
X151296032Y-73676000D01*
X151687203Y-73637473D01*
X151764363Y-73622125D01*
X152072694Y-73560795D01*
X152072705Y-73560792D01*
X152072705Y-73560791D01*
X152072715Y-73560790D01*
X152448853Y-73446690D01*
X152811997Y-73296271D01*
X153158649Y-73110982D01*
X153485469Y-72892607D01*
X153789312Y-72643250D01*
X154067250Y-72365312D01*
X154316607Y-72061469D01*
X154534982Y-71734649D01*
X154720271Y-71387997D01*
X154870690Y-71024853D01*
X154984790Y-70648715D01*
X154984792Y-70648705D01*
X154984795Y-70648694D01*
X155061473Y-70263202D01*
X155080388Y-70071155D01*
X155100000Y-69872032D01*
X155100000Y-69478968D01*
X155061473Y-69087797D01*
X154984795Y-68702305D01*
X154984792Y-68702294D01*
X154984791Y-68702291D01*
X154984790Y-68702285D01*
X154870690Y-68326147D01*
X154720271Y-67963003D01*
X154534982Y-67616351D01*
X154316607Y-67289531D01*
X154067250Y-66985688D01*
X154067249Y-66985687D01*
X154067245Y-66985682D01*
X153789317Y-66707754D01*
X153485474Y-66458397D01*
X153485473Y-66458396D01*
X153485469Y-66458393D01*
X153158649Y-66240018D01*
X153158644Y-66240015D01*
X153158637Y-66240011D01*
X152812004Y-66054732D01*
X152811999Y-66054730D01*
X152448854Y-65904310D01*
X152072705Y-65790207D01*
X152072694Y-65790204D01*
X151687202Y-65713526D01*
X151392589Y-65684510D01*
X151296032Y-65675000D01*
X150902968Y-65675000D01*
X150813751Y-65683787D01*
X150511797Y-65713526D01*
X150126305Y-65790204D01*
X150126294Y-65790207D01*
X149750145Y-65904310D01*
X149387000Y-66054730D01*
X149386995Y-66054732D01*
X149040362Y-66240011D01*
X149040344Y-66240022D01*
X148713539Y-66458387D01*
X148713525Y-66458397D01*
X148409682Y-66707754D01*
X148131754Y-66985682D01*
X147882397Y-67289525D01*
X147882387Y-67289539D01*
X147664022Y-67616344D01*
X147664011Y-67616362D01*
X147478732Y-67962995D01*
X147478730Y-67963000D01*
X147328310Y-68326145D01*
X147214207Y-68702294D01*
X147214204Y-68702305D01*
X147137526Y-69087797D01*
X147115567Y-69310756D01*
X147099000Y-69478968D01*
X144886415Y-69478968D01*
X144801870Y-69394423D01*
X144801862Y-69394417D01*
X144660396Y-69310755D01*
X144660393Y-69310754D01*
X144502573Y-69264902D01*
X144502567Y-69264901D01*
X144465701Y-69262000D01*
X144465694Y-69262000D01*
X144034306Y-69262000D01*
X144034298Y-69262000D01*
X143997432Y-69264901D01*
X143997426Y-69264902D01*
X143839606Y-69310754D01*
X143839603Y-69310755D01*
X143698137Y-69394417D01*
X143698129Y-69394423D01*
X143581923Y-69510629D01*
X143581917Y-69510637D01*
X143498255Y-69652103D01*
X143498254Y-69652106D01*
X143452402Y-69809926D01*
X143452401Y-69809932D01*
X143449500Y-69846798D01*
X143449500Y-71013000D01*
X143429815Y-71080039D01*
X143377011Y-71125794D01*
X143325500Y-71137000D01*
X143084298Y-71137000D01*
X143047432Y-71139901D01*
X143047426Y-71139902D01*
X142889606Y-71185754D01*
X142889603Y-71185755D01*
X142748137Y-71269417D01*
X142748129Y-71269423D01*
X142631923Y-71385629D01*
X142631917Y-71385637D01*
X142548255Y-71527103D01*
X142548254Y-71527106D01*
X142502402Y-71684926D01*
X142502401Y-71684932D01*
X142499500Y-71721798D01*
X142499500Y-72692515D01*
X142496636Y-72702266D01*
X142497903Y-72712351D01*
X142486958Y-72735226D01*
X142479815Y-72759554D01*
X142472134Y-72766208D01*
X142467748Y-72775378D01*
X142446171Y-72788705D01*
X142427011Y-72805309D01*
X142416952Y-72806755D01*
X142408305Y-72812097D01*
X142382952Y-72811644D01*
X142357853Y-72815253D01*
X142346746Y-72810997D01*
X142338446Y-72810849D01*
X142306608Y-72795617D01*
X142275108Y-72774569D01*
X142230304Y-72720956D01*
X142220000Y-72671467D01*
X142220000Y-71482493D01*
X142219999Y-71482492D01*
X142199911Y-71381499D01*
X142195963Y-71361648D01*
X142148811Y-71247814D01*
X142125890Y-71213511D01*
X142080357Y-71145365D01*
X142058569Y-71123577D01*
X142025084Y-71062254D01*
X142029819Y-70996034D01*
X142029807Y-70996031D01*
X142029825Y-70995952D01*
X142030067Y-70992567D01*
X142031591Y-70988483D01*
X142038000Y-70928873D01*
X142037999Y-70071128D01*
X142031591Y-70011517D01*
X142019804Y-69979915D01*
X141981297Y-69876671D01*
X141981293Y-69876664D01*
X141895047Y-69761455D01*
X141895044Y-69761452D01*
X141779835Y-69675206D01*
X141779828Y-69675202D01*
X141644986Y-69624910D01*
X141644985Y-69624909D01*
X141644983Y-69624909D01*
X141585373Y-69618500D01*
X141585363Y-69618500D01*
X140930829Y-69618500D01*
X140930823Y-69618501D01*
X140871216Y-69624908D01*
X140736371Y-69675202D01*
X140736365Y-69675206D01*
X140658893Y-69733201D01*
X140593429Y-69757618D01*
X140525156Y-69742766D01*
X140510272Y-69733201D01*
X140433389Y-69675647D01*
X140433386Y-69675645D01*
X140298679Y-69625403D01*
X140298672Y-69625401D01*
X140239144Y-69619000D01*
X140161900Y-69619000D01*
X140161900Y-71381000D01*
X140239128Y-71381000D01*
X140239144Y-71380999D01*
X140298672Y-71374598D01*
X140298679Y-71374596D01*
X140433386Y-71324354D01*
X140433389Y-71324352D01*
X140458772Y-71305351D01*
X140524236Y-71280933D01*
X140592509Y-71295784D01*
X140641915Y-71345188D01*
X140645749Y-71352824D01*
X140651853Y-71366102D01*
X140656208Y-71387997D01*
X140656637Y-71390151D01*
X140703788Y-71503986D01*
X140735028Y-71550738D01*
X140772242Y-71606433D01*
X140859367Y-71693558D01*
X140859368Y-71693558D01*
X140866435Y-71700625D01*
X140866434Y-71700625D01*
X140866438Y-71700628D01*
X140932681Y-71766871D01*
X140966166Y-71828194D01*
X140969000Y-71854552D01*
X140969000Y-72256481D01*
X140949315Y-72323520D01*
X140896511Y-72369275D01*
X140853117Y-72379941D01*
X140853129Y-72380046D01*
X140852349Y-72380129D01*
X140851645Y-72380303D01*
X140849834Y-72380400D01*
X140790215Y-72386809D01*
X140699017Y-72420823D01*
X140629326Y-72425807D01*
X140612352Y-72420823D01*
X140522480Y-72387303D01*
X140522472Y-72387301D01*
X140462944Y-72380900D01*
X140309500Y-72380900D01*
X140309500Y-74219100D01*
X140462928Y-74219100D01*
X140462944Y-74219099D01*
X140522471Y-74212698D01*
X140612351Y-74179175D01*
X140682043Y-74174191D01*
X140699001Y-74179169D01*
X140790217Y-74213191D01*
X140849827Y-74219600D01*
X141251219Y-74219599D01*
X141265204Y-74223705D01*
X141279758Y-74222928D01*
X141298053Y-74233350D01*
X141318258Y-74239283D01*
X141328902Y-74250925D01*
X141340467Y-74257513D01*
X141354475Y-74278893D01*
X141361105Y-74286144D01*
X141363666Y-74291043D01*
X141381288Y-74333586D01*
X141398837Y-74359849D01*
X141402535Y-74365383D01*
X141402538Y-74365389D01*
X141449741Y-74436032D01*
X141449744Y-74436036D01*
X141541186Y-74527478D01*
X141541208Y-74527498D01*
X143359316Y-76345606D01*
X143359345Y-76345637D01*
X143449563Y-76435855D01*
X143449567Y-76435858D01*
X143552007Y-76504307D01*
X143552013Y-76504310D01*
X143552014Y-76504311D01*
X143665848Y-76551463D01*
X143665850Y-76551463D01*
X143668815Y-76552363D01*
X143670178Y-76553256D01*
X143671476Y-76553794D01*
X143671374Y-76554039D01*
X143727255Y-76590659D01*
X143732088Y-76596713D01*
X143817452Y-76710744D01*
X143817455Y-76710747D01*
X143932664Y-76796993D01*
X143932671Y-76796997D01*
X143950563Y-76803670D01*
X144067517Y-76847291D01*
X144127127Y-76853700D01*
X144572872Y-76853699D01*
X144632483Y-76847291D01*
X144767331Y-76796996D01*
X144882546Y-76710746D01*
X144940831Y-76632888D01*
X144996765Y-76591018D01*
X145040097Y-76583200D01*
X147334500Y-76583200D01*
X147401539Y-76602885D01*
X147447294Y-76655689D01*
X147458500Y-76707200D01*
X147458500Y-79354511D01*
X147482535Y-79475344D01*
X147482540Y-79475361D01*
X147529685Y-79589180D01*
X147529690Y-79589189D01*
X147550739Y-79620691D01*
X147550741Y-79620693D01*
X147554881Y-79626889D01*
X147598142Y-79691633D01*
X147685267Y-79778758D01*
X147685270Y-79778760D01*
X147692953Y-79786443D01*
X148310481Y-80403971D01*
X148343966Y-80465294D01*
X148346800Y-80491652D01*
X148346800Y-81130306D01*
X148327115Y-81197345D01*
X148274311Y-81243100D01*
X148209547Y-81253595D01*
X148156573Y-81247900D01*
X148156564Y-81247900D01*
X147298829Y-81247900D01*
X147298823Y-81247901D01*
X147239216Y-81254308D01*
X147104371Y-81304602D01*
X147104364Y-81304606D01*
X146989155Y-81390852D01*
X146989152Y-81390855D01*
X146902906Y-81506064D01*
X146902902Y-81506071D01*
X146852608Y-81640917D01*
X146847539Y-81688069D01*
X146846201Y-81700523D01*
X146846200Y-81700535D01*
X146846200Y-82363748D01*
X146826515Y-82430787D01*
X146773711Y-82476542D01*
X146704553Y-82486486D01*
X146640997Y-82457461D01*
X146634519Y-82451429D01*
X146390918Y-82207828D01*
X146357433Y-82146505D01*
X146354599Y-82120147D01*
X146354599Y-81707629D01*
X146354598Y-81707623D01*
X146353933Y-81701440D01*
X146348191Y-81648017D01*
X146301604Y-81523112D01*
X146297896Y-81513169D01*
X146297893Y-81513164D01*
X146211647Y-81397955D01*
X146211644Y-81397952D01*
X146169822Y-81366644D01*
X146127951Y-81310710D01*
X146122967Y-81241019D01*
X146144867Y-81193067D01*
X146196650Y-81123893D01*
X146196654Y-81123886D01*
X146246896Y-80989179D01*
X146246898Y-80989172D01*
X146253299Y-80929644D01*
X146253300Y-80929627D01*
X146253300Y-80700000D01*
X145496300Y-80700000D01*
X145429261Y-80680315D01*
X145383506Y-80627511D01*
X145372300Y-80576000D01*
X145372300Y-80450000D01*
X145246300Y-80450000D01*
X145179261Y-80430315D01*
X145133506Y-80377511D01*
X145122300Y-80326000D01*
X145122300Y-80200000D01*
X145622300Y-80200000D01*
X146253300Y-80200000D01*
X146253300Y-79970372D01*
X146253299Y-79970355D01*
X146246898Y-79910827D01*
X146246896Y-79910820D01*
X146196654Y-79776113D01*
X146196650Y-79776106D01*
X146110490Y-79661012D01*
X146110487Y-79661009D01*
X145995393Y-79574849D01*
X145995386Y-79574845D01*
X145860679Y-79524603D01*
X145860672Y-79524601D01*
X145801144Y-79518200D01*
X145622300Y-79518200D01*
X145622300Y-80200000D01*
X145122300Y-80200000D01*
X145122300Y-79518200D01*
X144943455Y-79518200D01*
X144883927Y-79524601D01*
X144883916Y-79524603D01*
X144794046Y-79558123D01*
X144724355Y-79563107D01*
X144707381Y-79558123D01*
X144616187Y-79524110D01*
X144616180Y-79524108D01*
X144556583Y-79517701D01*
X144556581Y-79517700D01*
X144556573Y-79517700D01*
X144556564Y-79517700D01*
X143698829Y-79517700D01*
X143698823Y-79517701D01*
X143639213Y-79524109D01*
X143637488Y-79524517D01*
X143636108Y-79524443D01*
X143631504Y-79524938D01*
X143631423Y-79524191D01*
X143567719Y-79520776D01*
X143511047Y-79479908D01*
X143489898Y-79438435D01*
X143478619Y-79399614D01*
X143478618Y-79399610D01*
X143398170Y-79263580D01*
X143398168Y-79263578D01*
X143398165Y-79263574D01*
X143286425Y-79151834D01*
X143286416Y-79151827D01*
X143150390Y-79071382D01*
X143150385Y-79071380D01*
X142998633Y-79027292D01*
X142998620Y-79027290D01*
X142963170Y-79024500D01*
X142963163Y-79024500D01*
X141629753Y-79024500D01*
X141562714Y-79004815D01*
X141542072Y-78988181D01*
X141536585Y-78982694D01*
X141503100Y-78921371D01*
X141508084Y-78851679D01*
X141549956Y-78795746D01*
X141615420Y-78771329D01*
X141648458Y-78773395D01*
X141650993Y-78773900D01*
X141650994Y-78773900D01*
X143654139Y-78773900D01*
X143721178Y-78793585D01*
X143753405Y-78823588D01*
X143807760Y-78896197D01*
X143817455Y-78909147D01*
X143932664Y-78995393D01*
X143932671Y-78995397D01*
X143968623Y-79008806D01*
X144067517Y-79045691D01*
X144127127Y-79052100D01*
X144572872Y-79052099D01*
X144632483Y-79045691D01*
X144767331Y-78995396D01*
X144882546Y-78909146D01*
X144968796Y-78793931D01*
X145019091Y-78659083D01*
X145025500Y-78599473D01*
X145025499Y-77697328D01*
X145019091Y-77637717D01*
X145005722Y-77601874D01*
X144968797Y-77502871D01*
X144968793Y-77502864D01*
X144882547Y-77387655D01*
X144882544Y-77387652D01*
X144767335Y-77301406D01*
X144767328Y-77301402D01*
X144632486Y-77251110D01*
X144632485Y-77251109D01*
X144632483Y-77251109D01*
X144572873Y-77244700D01*
X144572863Y-77244700D01*
X144127129Y-77244700D01*
X144127123Y-77244701D01*
X144067516Y-77251108D01*
X143932671Y-77301402D01*
X143932664Y-77301406D01*
X143817455Y-77387652D01*
X143753405Y-77473212D01*
X143697471Y-77515082D01*
X143654139Y-77522900D01*
X142023052Y-77522900D01*
X141956013Y-77503215D01*
X141935371Y-77486581D01*
X141357350Y-76908560D01*
X141350060Y-76901270D01*
X141350058Y-76901267D01*
X141262933Y-76814142D01*
X141211709Y-76779915D01*
X141160486Y-76745688D01*
X141114445Y-76726617D01*
X141060044Y-76682778D01*
X141037978Y-76616484D01*
X141037899Y-76612109D01*
X141037899Y-76048128D01*
X141031491Y-75988517D01*
X141005312Y-75918330D01*
X141000329Y-75848640D01*
X141005314Y-75831664D01*
X141031491Y-75761482D01*
X141037900Y-75701872D01*
X141037899Y-75098127D01*
X141031491Y-75038516D01*
X141025547Y-75022580D01*
X140981197Y-74903670D01*
X140981193Y-74903663D01*
X140894947Y-74788454D01*
X140894944Y-74788451D01*
X140779735Y-74702205D01*
X140779728Y-74702201D01*
X140644882Y-74651907D01*
X140644883Y-74651907D01*
X140585283Y-74645500D01*
X140585281Y-74645499D01*
X140585273Y-74645499D01*
X140585264Y-74645499D01*
X139714829Y-74645499D01*
X139714823Y-74645500D01*
X139647504Y-74652737D01*
X139647354Y-74651349D01*
X139585922Y-74648058D01*
X139539491Y-74618801D01*
X139348550Y-74427860D01*
X139341260Y-74420570D01*
X139341258Y-74420567D01*
X139254133Y-74333442D01*
X139202909Y-74299215D01*
X139151686Y-74264988D01*
X139151684Y-74264987D01*
X139070343Y-74231295D01*
X139070341Y-74231294D01*
X139062996Y-74228252D01*
X139037852Y-74217837D01*
X138977429Y-74205818D01*
X138973272Y-74204991D01*
X138973264Y-74204989D01*
X138917010Y-74193800D01*
X138917007Y-74193800D01*
X138917006Y-74193800D01*
X138773167Y-74193800D01*
X138706128Y-74174115D01*
X138660373Y-74121311D01*
X138650429Y-74052153D01*
X138673900Y-73995489D01*
X138699396Y-73961431D01*
X138749691Y-73826583D01*
X138756100Y-73766973D01*
X138756100Y-73766944D01*
X139203900Y-73766944D01*
X139210301Y-73826472D01*
X139210303Y-73826479D01*
X139260545Y-73961186D01*
X139260549Y-73961193D01*
X139346709Y-74076287D01*
X139346712Y-74076290D01*
X139461806Y-74162450D01*
X139461813Y-74162454D01*
X139596520Y-74212696D01*
X139596527Y-74212698D01*
X139656055Y-74219099D01*
X139656072Y-74219100D01*
X139809500Y-74219100D01*
X139809500Y-73550000D01*
X139203900Y-73550000D01*
X139203900Y-73766944D01*
X138756100Y-73766944D01*
X138756099Y-73300000D01*
X138756099Y-72833055D01*
X139203900Y-72833055D01*
X139203900Y-73050000D01*
X139809500Y-73050000D01*
X139809500Y-72380900D01*
X139656055Y-72380900D01*
X139596527Y-72387301D01*
X139596520Y-72387303D01*
X139461813Y-72437545D01*
X139461806Y-72437549D01*
X139346712Y-72523709D01*
X139346709Y-72523712D01*
X139260549Y-72638806D01*
X139260545Y-72638813D01*
X139210303Y-72773520D01*
X139210301Y-72773527D01*
X139203900Y-72833055D01*
X138756099Y-72833055D01*
X138756099Y-72833029D01*
X138756098Y-72833023D01*
X138753730Y-72810997D01*
X138749691Y-72773417D01*
X138747002Y-72766208D01*
X138699397Y-72638571D01*
X138699396Y-72638569D01*
X138608333Y-72516925D01*
X138583916Y-72451461D01*
X138583600Y-72442614D01*
X138583600Y-71295107D01*
X138603285Y-71228068D01*
X138608334Y-71220796D01*
X138681293Y-71123335D01*
X138681292Y-71123335D01*
X138681296Y-71123331D01*
X138731591Y-70988483D01*
X138738000Y-70928873D01*
X138738000Y-70928844D01*
X139132500Y-70928844D01*
X139138901Y-70988372D01*
X139138903Y-70988379D01*
X139189145Y-71123086D01*
X139189149Y-71123093D01*
X139275309Y-71238187D01*
X139275312Y-71238190D01*
X139390406Y-71324350D01*
X139390413Y-71324354D01*
X139525120Y-71374596D01*
X139525127Y-71374598D01*
X139584655Y-71380999D01*
X139584672Y-71381000D01*
X139661900Y-71381000D01*
X139661900Y-70750000D01*
X139132500Y-70750000D01*
X139132500Y-70928844D01*
X138738000Y-70928844D01*
X138737999Y-70071155D01*
X139132500Y-70071155D01*
X139132500Y-70250000D01*
X139661900Y-70250000D01*
X139661900Y-69619000D01*
X139584655Y-69619000D01*
X139525127Y-69625401D01*
X139525120Y-69625403D01*
X139390413Y-69675645D01*
X139390406Y-69675649D01*
X139275312Y-69761809D01*
X139275309Y-69761812D01*
X139189149Y-69876906D01*
X139189145Y-69876913D01*
X139138903Y-70011620D01*
X139138901Y-70011627D01*
X139132500Y-70071155D01*
X138737999Y-70071155D01*
X138737999Y-70071128D01*
X138731591Y-70011517D01*
X138719804Y-69979915D01*
X138681297Y-69876671D01*
X138681293Y-69876664D01*
X138595047Y-69761455D01*
X138595044Y-69761452D01*
X138479835Y-69675206D01*
X138479828Y-69675202D01*
X138344986Y-69624910D01*
X138344985Y-69624909D01*
X138344983Y-69624909D01*
X138285373Y-69618500D01*
X138285363Y-69618500D01*
X137630829Y-69618500D01*
X137630823Y-69618501D01*
X137571216Y-69624908D01*
X137436371Y-69675202D01*
X137436365Y-69675206D01*
X137358893Y-69733201D01*
X137293429Y-69757618D01*
X137225156Y-69742766D01*
X137210272Y-69733201D01*
X137133389Y-69675647D01*
X137133386Y-69675645D01*
X136998679Y-69625403D01*
X136998672Y-69625401D01*
X136939144Y-69619000D01*
X136861900Y-69619000D01*
X136861900Y-71381000D01*
X136939128Y-71381000D01*
X136939144Y-71380999D01*
X136998672Y-71374598D01*
X136998679Y-71374596D01*
X137133386Y-71324354D01*
X137133390Y-71324352D01*
X137134287Y-71323681D01*
X137135336Y-71323289D01*
X137141172Y-71320103D01*
X137141630Y-71320941D01*
X137199751Y-71299262D01*
X137268024Y-71314112D01*
X137317431Y-71363517D01*
X137332600Y-71422946D01*
X137332600Y-72264846D01*
X137330972Y-72273026D01*
X137331889Y-72278109D01*
X137323158Y-72312306D01*
X137321430Y-72316477D01*
X137277585Y-72370878D01*
X137211290Y-72392938D01*
X137177127Y-72387403D01*
X137176730Y-72389087D01*
X137169172Y-72387301D01*
X137109644Y-72380900D01*
X136956200Y-72380900D01*
X136956200Y-73176000D01*
X136936515Y-73243039D01*
X136883711Y-73288794D01*
X136832200Y-73300000D01*
X136706200Y-73300000D01*
X136704661Y-73301538D01*
X136686515Y-73363339D01*
X136633711Y-73409094D01*
X136582200Y-73420300D01*
X135451815Y-73420300D01*
X135384776Y-73400615D01*
X135339021Y-73347811D01*
X135329077Y-73278653D01*
X135345084Y-73233177D01*
X135351283Y-73222694D01*
X135351283Y-73222693D01*
X135397099Y-73064995D01*
X135397100Y-73064989D01*
X135399999Y-73028149D01*
X135400000Y-73028134D01*
X135400000Y-72833055D01*
X135850600Y-72833055D01*
X135850600Y-73050000D01*
X136456200Y-73050000D01*
X136456200Y-72380900D01*
X136302755Y-72380900D01*
X136243227Y-72387301D01*
X136243220Y-72387303D01*
X136108513Y-72437545D01*
X136108506Y-72437549D01*
X135993412Y-72523709D01*
X135993409Y-72523712D01*
X135907249Y-72638806D01*
X135907245Y-72638813D01*
X135857003Y-72773520D01*
X135857001Y-72773527D01*
X135850600Y-72833055D01*
X135400000Y-72833055D01*
X135400000Y-72625000D01*
X133800000Y-72625000D01*
X133800000Y-73028149D01*
X133802899Y-73064989D01*
X133802900Y-73064995D01*
X133848716Y-73222693D01*
X133848717Y-73222696D01*
X133932314Y-73364052D01*
X133932321Y-73364061D01*
X134048438Y-73480178D01*
X134048447Y-73480185D01*
X134189803Y-73563782D01*
X134189806Y-73563783D01*
X134229383Y-73575282D01*
X134288269Y-73612888D01*
X134317475Y-73676361D01*
X134307729Y-73745547D01*
X134282469Y-73782039D01*
X133185981Y-74878527D01*
X133178037Y-74882864D01*
X133172612Y-74890112D01*
X133147849Y-74899348D01*
X133124658Y-74912012D01*
X133115629Y-74911366D01*
X133107148Y-74914530D01*
X133081326Y-74908913D01*
X133054966Y-74907028D01*
X133045912Y-74901209D01*
X133038875Y-74899679D01*
X133010620Y-74878529D01*
X132983360Y-74851270D01*
X132983359Y-74851269D01*
X132983358Y-74851267D01*
X132896233Y-74764142D01*
X132896232Y-74764141D01*
X132896231Y-74764140D01*
X132843426Y-74728857D01*
X132843424Y-74728856D01*
X132837282Y-74724752D01*
X132793786Y-74695688D01*
X132713292Y-74662347D01*
X132708867Y-74660514D01*
X132708865Y-74660513D01*
X132679954Y-74648538D01*
X132679955Y-74648538D01*
X132679952Y-74648537D01*
X132679948Y-74648536D01*
X132679944Y-74648535D01*
X132570011Y-74626668D01*
X132570010Y-74626668D01*
X132559111Y-74624500D01*
X132559107Y-74624500D01*
X132559106Y-74624500D01*
X132383642Y-74624500D01*
X132316603Y-74604815D01*
X132284376Y-74574812D01*
X132265469Y-74549557D01*
X132236946Y-74511454D01*
X132236944Y-74511453D01*
X132236944Y-74511452D01*
X132121735Y-74425206D01*
X132121728Y-74425202D01*
X131986882Y-74374908D01*
X131986883Y-74374908D01*
X131927283Y-74368501D01*
X131927281Y-74368500D01*
X131927273Y-74368500D01*
X131927265Y-74368500D01*
X131890451Y-74368500D01*
X131823412Y-74348815D01*
X131777657Y-74296011D01*
X131767713Y-74226853D01*
X131796738Y-74163297D01*
X131802770Y-74156819D01*
X132058126Y-73901463D01*
X132319686Y-73639902D01*
X132381007Y-73606419D01*
X132441958Y-73608507D01*
X132447431Y-73610098D01*
X132484306Y-73613000D01*
X132484314Y-73613000D01*
X132915686Y-73613000D01*
X132915694Y-73613000D01*
X132952569Y-73610098D01*
X132952571Y-73610097D01*
X132952573Y-73610097D01*
X133030819Y-73587364D01*
X133110398Y-73564244D01*
X133251865Y-73480581D01*
X133368081Y-73364365D01*
X133451744Y-73222898D01*
X133485505Y-73106691D01*
X133497597Y-73065073D01*
X133497598Y-73065067D01*
X133500499Y-73028201D01*
X133500500Y-73028194D01*
X133500500Y-71862000D01*
X133503050Y-71853314D01*
X133501762Y-71844353D01*
X133512740Y-71820312D01*
X133520185Y-71794961D01*
X133527025Y-71789033D01*
X133530787Y-71780797D01*
X133553021Y-71766507D01*
X133572989Y-71749206D01*
X133583503Y-71746918D01*
X133589565Y-71743023D01*
X133624500Y-71738000D01*
X133676000Y-71738000D01*
X133743039Y-71757685D01*
X133788794Y-71810489D01*
X133800000Y-71862000D01*
X133800000Y-72125000D01*
X134350000Y-72125000D01*
X134850000Y-72125000D01*
X135400000Y-72125000D01*
X135400000Y-71721865D01*
X135399999Y-71721850D01*
X135397100Y-71685010D01*
X135397099Y-71685004D01*
X135351283Y-71527306D01*
X135351282Y-71527303D01*
X135267685Y-71385947D01*
X135267678Y-71385938D01*
X135151561Y-71269821D01*
X135151552Y-71269814D01*
X135010196Y-71186217D01*
X135010193Y-71186216D01*
X134852494Y-71140400D01*
X134852497Y-71140400D01*
X134850000Y-71140203D01*
X134850000Y-72125000D01*
X134350000Y-72125000D01*
X134350000Y-71469314D01*
X134367267Y-71406194D01*
X134401744Y-71347898D01*
X134447598Y-71190069D01*
X134450500Y-71153194D01*
X134450500Y-70928844D01*
X135832500Y-70928844D01*
X135838901Y-70988372D01*
X135838903Y-70988379D01*
X135889145Y-71123086D01*
X135889149Y-71123093D01*
X135975309Y-71238187D01*
X135975312Y-71238190D01*
X136090406Y-71324350D01*
X136090413Y-71324354D01*
X136225120Y-71374596D01*
X136225127Y-71374598D01*
X136284655Y-71380999D01*
X136284672Y-71381000D01*
X136361900Y-71381000D01*
X136361900Y-70750000D01*
X135832500Y-70750000D01*
X135832500Y-70928844D01*
X134450500Y-70928844D01*
X134450500Y-70071155D01*
X135832500Y-70071155D01*
X135832500Y-70250000D01*
X136361900Y-70250000D01*
X136361900Y-69619000D01*
X136284655Y-69619000D01*
X136225127Y-69625401D01*
X136225120Y-69625403D01*
X136090413Y-69675645D01*
X136090406Y-69675649D01*
X135975312Y-69761809D01*
X135975309Y-69761812D01*
X135889149Y-69876906D01*
X135889145Y-69876913D01*
X135838903Y-70011620D01*
X135838901Y-70011627D01*
X135832500Y-70071155D01*
X134450500Y-70071155D01*
X134450500Y-69846806D01*
X134447598Y-69809931D01*
X134433514Y-69761455D01*
X134408585Y-69675649D01*
X134401744Y-69652102D01*
X134318081Y-69510635D01*
X134318079Y-69510633D01*
X134318076Y-69510629D01*
X134201870Y-69394423D01*
X134201862Y-69394417D01*
X134060396Y-69310755D01*
X134060393Y-69310754D01*
X133902573Y-69264902D01*
X133902567Y-69264901D01*
X133865701Y-69262000D01*
X133865694Y-69262000D01*
X133434306Y-69262000D01*
X133434298Y-69262000D01*
X133397432Y-69264901D01*
X133397426Y-69264902D01*
X133239606Y-69310754D01*
X133239603Y-69310755D01*
X133098137Y-69394417D01*
X133098129Y-69394423D01*
X132981923Y-69510629D01*
X132981917Y-69510637D01*
X132898255Y-69652103D01*
X132898254Y-69652106D01*
X132852402Y-69809926D01*
X132852401Y-69809932D01*
X132849500Y-69846798D01*
X132849500Y-69889025D01*
X132829815Y-69956064D01*
X132794393Y-69992126D01*
X132761446Y-70014141D01*
X132761442Y-70014144D01*
X129252343Y-73523243D01*
X129252335Y-73523251D01*
X129249670Y-73525917D01*
X129249667Y-73525920D01*
X129162542Y-73613045D01*
X129135335Y-73653763D01*
X129120235Y-73676361D01*
X129094084Y-73715498D01*
X129065382Y-73784791D01*
X129065383Y-73784792D01*
X129052048Y-73816986D01*
X129052046Y-73816991D01*
X129048074Y-73826583D01*
X129046937Y-73829327D01*
X129032589Y-73901463D01*
X129032240Y-73903215D01*
X129032232Y-73903252D01*
X129022900Y-73950167D01*
X129022900Y-81127736D01*
X129003215Y-81194775D01*
X128950411Y-81240530D01*
X128885647Y-81251025D01*
X128856573Y-81247900D01*
X128856567Y-81247900D01*
X127998829Y-81247900D01*
X127998823Y-81247901D01*
X127939216Y-81254308D01*
X127804371Y-81304602D01*
X127804364Y-81304606D01*
X127689155Y-81390852D01*
X127689152Y-81390855D01*
X127602906Y-81506064D01*
X127602902Y-81506071D01*
X127552608Y-81640917D01*
X127547539Y-81688069D01*
X127546201Y-81700523D01*
X127546200Y-81700535D01*
X121725500Y-81700535D01*
X121725500Y-69478968D01*
X122350000Y-69478968D01*
X122350000Y-69872032D01*
X122358348Y-69956789D01*
X122388526Y-70263202D01*
X122465204Y-70648694D01*
X122465207Y-70648705D01*
X122579310Y-71024854D01*
X122647746Y-71190073D01*
X122728751Y-71385637D01*
X122729730Y-71387999D01*
X122729732Y-71388004D01*
X122915011Y-71734637D01*
X122915022Y-71734655D01*
X123133387Y-72061460D01*
X123133397Y-72061474D01*
X123382754Y-72365317D01*
X123660682Y-72643245D01*
X123660687Y-72643249D01*
X123660688Y-72643250D01*
X123964531Y-72892607D01*
X124291351Y-73110982D01*
X124291360Y-73110987D01*
X124291362Y-73110988D01*
X124637995Y-73296267D01*
X124637997Y-73296267D01*
X124638003Y-73296271D01*
X125001147Y-73446690D01*
X125377285Y-73560790D01*
X125377291Y-73560791D01*
X125377294Y-73560792D01*
X125377305Y-73560795D01*
X125762797Y-73637473D01*
X126153968Y-73676000D01*
X126153971Y-73676000D01*
X126547029Y-73676000D01*
X126547032Y-73676000D01*
X126938203Y-73637473D01*
X127015363Y-73622125D01*
X127323694Y-73560795D01*
X127323705Y-73560792D01*
X127323705Y-73560791D01*
X127323715Y-73560790D01*
X127699853Y-73446690D01*
X128062997Y-73296271D01*
X128409649Y-73110982D01*
X128736469Y-72892607D01*
X129040312Y-72643250D01*
X129318250Y-72365312D01*
X129567607Y-72061469D01*
X129785982Y-71734649D01*
X129971271Y-71387997D01*
X130121690Y-71024853D01*
X130235790Y-70648715D01*
X130235792Y-70648705D01*
X130235795Y-70648694D01*
X130312473Y-70263202D01*
X130331388Y-70071155D01*
X130351000Y-69872032D01*
X130351000Y-69478968D01*
X130312473Y-69087797D01*
X130235795Y-68702305D01*
X130235792Y-68702294D01*
X130235791Y-68702291D01*
X130235790Y-68702285D01*
X130121690Y-68326147D01*
X129971271Y-67963003D01*
X129785982Y-67616351D01*
X129567607Y-67289531D01*
X129318250Y-66985688D01*
X129318249Y-66985687D01*
X129318245Y-66985682D01*
X129040317Y-66707754D01*
X128736474Y-66458397D01*
X128736473Y-66458396D01*
X128736469Y-66458393D01*
X128409649Y-66240018D01*
X128409644Y-66240015D01*
X128409637Y-66240011D01*
X128063004Y-66054732D01*
X128062999Y-66054730D01*
X127699854Y-65904310D01*
X127323705Y-65790207D01*
X127323694Y-65790204D01*
X126938202Y-65713526D01*
X126643589Y-65684510D01*
X126547032Y-65675000D01*
X126153968Y-65675000D01*
X126064751Y-65683787D01*
X125762797Y-65713526D01*
X125377305Y-65790204D01*
X125377294Y-65790207D01*
X125001145Y-65904310D01*
X124638000Y-66054730D01*
X124637995Y-66054732D01*
X124291362Y-66240011D01*
X124291344Y-66240022D01*
X123964539Y-66458387D01*
X123964525Y-66458397D01*
X123660682Y-66707754D01*
X123382754Y-66985682D01*
X123133397Y-67289525D01*
X123133387Y-67289539D01*
X122915022Y-67616344D01*
X122915011Y-67616362D01*
X122729732Y-67962995D01*
X122729730Y-67963000D01*
X122579310Y-68326145D01*
X122465207Y-68702294D01*
X122465204Y-68702305D01*
X122388526Y-69087797D01*
X122366567Y-69310756D01*
X122350000Y-69478968D01*
X121725500Y-69478968D01*
X121725500Y-67101569D01*
X121745185Y-67034530D01*
X121761819Y-67013888D01*
X123688888Y-65086819D01*
X123750211Y-65053334D01*
X123776569Y-65050500D01*
X153673431Y-65050500D01*
X153740470Y-65070185D01*
G37*
%TD.AperFunction*%
%TD*%
M02*
