%TF.GenerationSoftware,KiCad,Pcbnew,9.0.6*%
%TF.CreationDate,2026-03-29T23:10:41-07:00*%
%TF.ProjectId,ArmEncoderBoard,41726d45-6e63-46f6-9465-72426f617264,rev?*%
%TF.SameCoordinates,Original*%
%TF.FileFunction,Copper,L2,Bot*%
%TF.FilePolarity,Positive*%
%FSLAX46Y46*%
G04 Gerber Fmt 4.6, Leading zero omitted, Abs format (unit mm)*
G04 Created by KiCad (PCBNEW 9.0.6) date 2026-03-29 23:10:41*
%MOMM*%
%LPD*%
G01*
G04 APERTURE LIST*
G04 Aperture macros list*
%AMRoundRect*
0 Rectangle with rounded corners*
0 $1 Rounding radius*
0 $2 $3 $4 $5 $6 $7 $8 $9 X,Y pos of 4 corners*
0 Add a 4 corners polygon primitive as box body*
4,1,4,$2,$3,$4,$5,$6,$7,$8,$9,$2,$3,0*
0 Add four circle primitives for the rounded corners*
1,1,$1+$1,$2,$3*
1,1,$1+$1,$4,$5*
1,1,$1+$1,$6,$7*
1,1,$1+$1,$8,$9*
0 Add four rect primitives between the rounded corners*
20,1,$1+$1,$2,$3,$4,$5,0*
20,1,$1+$1,$4,$5,$6,$7,0*
20,1,$1+$1,$6,$7,$8,$9,0*
20,1,$1+$1,$8,$9,$2,$3,0*%
G04 Aperture macros list end*
%TA.AperFunction,ComponentPad*%
%ADD10C,7.000000*%
%TD*%
%TA.AperFunction,ComponentPad*%
%ADD11RoundRect,0.250000X-0.600000X-0.725000X0.600000X-0.725000X0.600000X0.725000X-0.600000X0.725000X0*%
%TD*%
%TA.AperFunction,ComponentPad*%
%ADD12O,1.700000X1.950000*%
%TD*%
%TA.AperFunction,ViaPad*%
%ADD13C,0.800000*%
%TD*%
%TA.AperFunction,Conductor*%
%ADD14C,0.250000*%
%TD*%
G04 APERTURE END LIST*
D10*
%TO.P,H1,1*%
%TO.N,N/C*%
X126350500Y-69675500D03*
%TD*%
%TO.P,H3,1*%
%TO.N,N/C*%
X126350500Y-94424500D03*
%TD*%
%TO.P,H4,1*%
%TO.N,N/C*%
X151099500Y-94424500D03*
%TD*%
D11*
%TO.P,J1,1,Pin_1*%
%TO.N,VIN*%
X133725000Y-93500000D03*
D12*
%TO.P,J1,2,Pin_2*%
%TO.N,CS*%
X136225000Y-93500000D03*
%TO.P,J1,3,Pin_3*%
%TO.N,SCK*%
X138725000Y-93500000D03*
%TO.P,J1,4,Pin_4*%
%TO.N,MISO*%
X141225000Y-93500000D03*
%TO.P,J1,5,Pin_5*%
%TO.N,GND*%
X143725000Y-93500000D03*
%TD*%
D10*
%TO.P,H2,1*%
%TO.N,N/C*%
X151099500Y-69675500D03*
%TD*%
D13*
%TO.N,*%
X139750000Y-88700000D03*
%TO.N,GND*%
X149300000Y-74000000D03*
X145850000Y-73950000D03*
X132800000Y-85950000D03*
X138200000Y-81000000D03*
%TO.N,/BLUE_CATHODE*%
X133650000Y-70500000D03*
X127850000Y-82181575D03*
%TO.N,MAGINC*%
X131705100Y-87519800D03*
X135300000Y-78700000D03*
%TO.N,MAGDEC*%
X145005400Y-87519800D03*
X136350000Y-77950000D03*
%TD*%
D14*
%TO.N,GND*%
X145900000Y-74000000D02*
X149300000Y-74000000D01*
X145850000Y-73950000D02*
X145900000Y-74000000D01*
X138200000Y-81000000D02*
X138200000Y-84050000D01*
X138200000Y-84050000D02*
X136500000Y-85750000D01*
%TO.N,/BLUE_CATHODE*%
X133650000Y-70500000D02*
X133650000Y-76381575D01*
X133650000Y-76381575D02*
X127850000Y-82181575D01*
%TO.N,MAGINC*%
X131705100Y-87519800D02*
X131705100Y-82294900D01*
X131705100Y-82294900D02*
X135300000Y-78700000D01*
%TO.N,MAGDEC*%
X145005400Y-87519800D02*
X145005400Y-86605400D01*
X145005400Y-86605400D02*
X136350000Y-77950000D01*
%TD*%
M02*
