M48
; DRILL file {KiCad 9.0.6} date 2026-03-29T23:10:41-0700
; FORMAT={-:-/ absolute / inch / decimal}
; #@! TF.CreationDate,2026-03-29T23:10:41-07:00
; #@! TF.GenerationSoftware,Kicad,Pcbnew,9.0.6
; #@! TF.FileFunction,Plated,1,2,PTH
FMAT,2
INCH
; #@! TA.AperFunction,Plated,PTH,ViaDrill
T1C0.0157
; #@! TA.AperFunction,Plated,PTH,ComponentDrill
T2C0.0374
; #@! TA.AperFunction,Plated,PTH,ComponentDrill
T3C0.1378
%
G90
G05
T1
X5.0335Y-3.2355
X5.1852Y-3.4457
X5.2283Y-3.3839
X5.2618Y-2.7756
X5.3268Y-3.0984
X5.3681Y-3.0689
X5.4409Y-3.189
X5.502Y-3.4921
X5.7089Y-3.4457
X5.7421Y-2.9114
X5.878Y-2.9134
T2
X5.2648Y-3.6811
X5.3632Y-3.6811
X5.4616Y-3.6811
X5.56Y-3.6811
X5.6585Y-3.6811
T3
X4.9744Y-2.7431
X4.9744Y-3.7175
X5.9488Y-2.7431
X5.9488Y-3.7175
M30
