%TF.GenerationSoftware,KiCad,Pcbnew,9.0.6*%
%TF.CreationDate,2026-03-29T23:10:41-07:00*%
%TF.ProjectId,ArmEncoderBoard,41726d45-6e63-46f6-9465-72426f617264,rev?*%
%TF.SameCoordinates,Original*%
%TF.FileFunction,Copper,L1,Top*%
%TF.FilePolarity,Positive*%
%FSLAX46Y46*%
G04 Gerber Fmt 4.6, Leading zero omitted, Abs format (unit mm)*
G04 Created by KiCad (PCBNEW 9.0.6) date 2026-03-29 23:10:41*
%MOMM*%
%LPD*%
G01*
G04 APERTURE LIST*
G04 Aperture macros list*
%AMRoundRect*
0 Rectangle with rounded corners*
0 $1 Rounding radius*
0 $2 $3 $4 $5 $6 $7 $8 $9 X,Y pos of 4 corners*
0 Add a 4 corners polygon primitive as box body*
4,1,4,$2,$3,$4,$5,$6,$7,$8,$9,$2,$3,0*
0 Add four circle primitives for the rounded corners*
1,1,$1+$1,$2,$3*
1,1,$1+$1,$4,$5*
1,1,$1+$1,$6,$7*
1,1,$1+$1,$8,$9*
0 Add four rect primitives between the rounded corners*
20,1,$1+$1,$2,$3,$4,$5,0*
20,1,$1+$1,$4,$5,$6,$7,0*
20,1,$1+$1,$6,$7,$8,$9,0*
20,1,$1+$1,$8,$9,$2,$3,0*%
G04 Aperture macros list end*
%TA.AperFunction,SMDPad,CuDef*%
%ADD10R,0.762000X0.863600*%
%TD*%
%TA.AperFunction,SMDPad,CuDef*%
%ADD11R,0.558800X0.762000*%
%TD*%
%TA.AperFunction,SMDPad,CuDef*%
%ADD12R,0.860000X0.980000*%
%TD*%
%TA.AperFunction,SMDPad,CuDef*%
%ADD13R,0.711200X0.889000*%
%TD*%
%TA.AperFunction,SMDPad,CuDef*%
%ADD14R,1.100000X1.300000*%
%TD*%
%TA.AperFunction,SMDPad,CuDef*%
%ADD15R,0.350000X0.806400*%
%TD*%
%TA.AperFunction,ComponentPad*%
%ADD16C,7.000000*%
%TD*%
%TA.AperFunction,SMDPad,CuDef*%
%ADD17RoundRect,0.150000X0.150000X-0.587500X0.150000X0.587500X-0.150000X0.587500X-0.150000X-0.587500X0*%
%TD*%
%TA.AperFunction,SMDPad,CuDef*%
%ADD18R,0.774700X0.508000*%
%TD*%
%TA.AperFunction,SMDPad,CuDef*%
%ADD19RoundRect,0.125000X-0.762500X-0.125000X0.762500X-0.125000X0.762500X0.125000X-0.762500X0.125000X0*%
%TD*%
%TA.AperFunction,SMDPad,CuDef*%
%ADD20R,0.762000X0.558800*%
%TD*%
%TA.AperFunction,SMDPad,CuDef*%
%ADD21R,0.711200X0.812800*%
%TD*%
%TA.AperFunction,ComponentPad*%
%ADD22RoundRect,0.250000X-0.600000X-0.725000X0.600000X-0.725000X0.600000X0.725000X-0.600000X0.725000X0*%
%TD*%
%TA.AperFunction,ComponentPad*%
%ADD23O,1.700000X1.950000*%
%TD*%
%TA.AperFunction,SMDPad,CuDef*%
%ADD24R,0.711200X0.838200*%
%TD*%
%TA.AperFunction,SMDPad,CuDef*%
%ADD25R,0.806400X0.350000*%
%TD*%
%TA.AperFunction,ViaPad*%
%ADD26C,0.800000*%
%TD*%
%TA.AperFunction,Conductor*%
%ADD27C,0.250000*%
%TD*%
G04 APERTURE END LIST*
D10*
%TO.P,C1,1*%
%TO.N,GND*%
X145372300Y-80450000D03*
%TO.P,C1,2*%
%TO.N,VIN*%
X144127700Y-80450000D03*
%TD*%
D11*
%TO.P,R7,1*%
%TO.N,GND*%
X139911900Y-70500000D03*
%TO.P,R7,2*%
%TO.N,/I_ENV*%
X141258100Y-70500000D03*
%TD*%
D12*
%TO.P,R11,1*%
%TO.N,VIN*%
X146535400Y-87519800D03*
%TO.P,R11,2*%
%TO.N,MAGDEC*%
X145005400Y-87519800D03*
%TD*%
D13*
%TO.P,R1,1*%
%TO.N,SCK*%
X144101500Y-84200000D03*
%TO.P,R1,2*%
%TO.N,GND*%
X145498500Y-84200000D03*
%TD*%
D11*
%TO.P,R6,1*%
%TO.N,GND*%
X136611900Y-70500000D03*
%TO.P,R6,2*%
%TO.N,/A_ENV*%
X137958100Y-70500000D03*
%TD*%
%TO.P,R5,1*%
%TO.N,/A_BASE*%
X130253800Y-75250000D03*
%TO.P,R5,2*%
%TO.N,/A_ENV*%
X131600000Y-75250000D03*
%TD*%
D14*
%TO.P,D1,1,K*%
%TO.N,/BLUE_CATHODE*%
X127850000Y-82181575D03*
%TO.P,D1,2,A*%
%TO.N,/BLUE_ANODE*%
X129950000Y-82181575D03*
%TD*%
D15*
%TO.P,CR3,1*%
%TO.N,/A_PULSE*%
X126550000Y-76800800D03*
%TO.P,CR3,2*%
%TO.N,GND*%
X126550000Y-78999200D03*
%TD*%
D16*
%TO.P,H1,1*%
%TO.N,N/C*%
X126350500Y-69675500D03*
%TD*%
D10*
%TO.P,D4,1,K*%
%TO.N,Net-(D4-K)*%
X147905400Y-88600000D03*
%TO.P,D4,2,A*%
%TO.N,VIN*%
X149150000Y-88600000D03*
%TD*%
D17*
%TO.P,Q1,1,B*%
%TO.N,/A_BASE*%
X132700000Y-72375000D03*
%TO.P,Q1,2,E*%
%TO.N,GND*%
X134600000Y-72375000D03*
%TO.P,Q1,3,C*%
%TO.N,/BLUE_CATHODE*%
X133650000Y-70500000D03*
%TD*%
D18*
%TO.P,U1,1,1A*%
%TO.N,A*%
X137622750Y-75399999D03*
%TO.P,U1,2,GND*%
%TO.N,GND*%
X137622750Y-76350000D03*
%TO.P,U1,3,2A*%
%TO.N,I*%
X137622750Y-77300001D03*
%TO.P,U1,4,2Y*%
%TO.N,I_BUF*%
X140150050Y-77300001D03*
%TO.P,U1,5,VCC*%
%TO.N,VIN*%
X140150050Y-76350000D03*
%TO.P,U1,6,1Y*%
%TO.N,A_BUF*%
X140150050Y-75399999D03*
%TD*%
D16*
%TO.P,H3,1*%
%TO.N,N/C*%
X126350500Y-94424500D03*
%TD*%
D19*
%TO.P,U2,1,~{MagINC}*%
%TO.N,MAGINC*%
X135312500Y-79775000D03*
%TO.P,U2,2,~{MagDEC}*%
%TO.N,MAGDEC*%
X135312500Y-80425000D03*
%TO.P,U2,3,A*%
%TO.N,A*%
X135312500Y-81075000D03*
%TO.P,U2,4,B*%
%TO.N,unconnected-(U2-B-Pad4)*%
X135312500Y-81725000D03*
%TO.P,U2,5,NC*%
%TO.N,unconnected-(U2-NC-Pad5)*%
X135312500Y-82375000D03*
%TO.P,U2,6,I*%
%TO.N,I*%
X135312500Y-83025000D03*
%TO.P,U2,7,VSS*%
%TO.N,GND*%
X135312500Y-83675000D03*
%TO.P,U2,8,PDIO*%
X135312500Y-84325000D03*
%TO.P,U2,9,DO*%
%TO.N,MISO*%
X142137500Y-84325000D03*
%TO.P,U2,10,CLK*%
%TO.N,SCK*%
X142137500Y-83675000D03*
%TO.P,U2,11,~{CS}*%
%TO.N,CS*%
X142137500Y-83025000D03*
%TO.P,U2,12,PWM*%
%TO.N,unconnected-(U2-PWM-Pad12)*%
X142137500Y-82375000D03*
%TO.P,U2,13,NC*%
%TO.N,unconnected-(U2-NC-Pad13)*%
X142137500Y-81725000D03*
%TO.P,U2,14,NC*%
%TO.N,unconnected-(U2-NC-Pad14)*%
X142137500Y-81075000D03*
%TO.P,U2,15,VDD3V3*%
%TO.N,VIN*%
X142137500Y-80425000D03*
%TO.P,U2,16,VDD5V*%
X142137500Y-79775000D03*
%TD*%
D20*
%TO.P,R9,1*%
%TO.N,GND*%
X128550000Y-78573100D03*
%TO.P,R9,2*%
%TO.N,/A_PULSE*%
X128550000Y-77226900D03*
%TD*%
D16*
%TO.P,H4,1*%
%TO.N,N/C*%
X151099500Y-94424500D03*
%TD*%
D10*
%TO.P,D2,1,K*%
%TO.N,/RED_CATHODE*%
X147727700Y-82180200D03*
%TO.P,D2,2,A*%
%TO.N,/RED_ANODE*%
X148972300Y-82180200D03*
%TD*%
D21*
%TO.P,C5,1*%
%TO.N,A_BUF*%
X132100100Y-79500000D03*
%TO.P,C5,2*%
%TO.N,/A_PULSE*%
X130499900Y-79500000D03*
%TD*%
D22*
%TO.P,J1,1,Pin_1*%
%TO.N,VIN*%
X133725000Y-93500000D03*
D23*
%TO.P,J1,2,Pin_2*%
%TO.N,CS*%
X136225000Y-93500000D03*
%TO.P,J1,3,Pin_3*%
%TO.N,SCK*%
X138725000Y-93500000D03*
%TO.P,J1,4,Pin_4*%
%TO.N,MISO*%
X141225000Y-93500000D03*
%TO.P,J1,5,Pin_5*%
%TO.N,GND*%
X143725000Y-93500000D03*
%TD*%
D10*
%TO.P,C2,1*%
%TO.N,GND*%
X131577700Y-82150000D03*
%TO.P,C2,2*%
%TO.N,VIN*%
X132822300Y-82150000D03*
%TD*%
D11*
%TO.P,R3,1*%
%TO.N,VIN*%
X128376900Y-83993800D03*
%TO.P,R3,2*%
%TO.N,/BLUE_ANODE*%
X129723100Y-83993800D03*
%TD*%
D12*
%TO.P,R10,1*%
%TO.N,VIN*%
X130175100Y-87519800D03*
%TO.P,R10,2*%
%TO.N,MAGINC*%
X131705100Y-87519800D03*
%TD*%
%TO.P,R4,1*%
%TO.N,VIN*%
X147585000Y-84200000D03*
%TO.P,R4,2*%
%TO.N,/RED_ANODE*%
X149115000Y-84200000D03*
%TD*%
D24*
%TO.P,C3,1*%
%TO.N,GND*%
X136706200Y-73300000D03*
%TO.P,C3,2*%
%TO.N,/A_ENV*%
X137900000Y-73300000D03*
%TD*%
D17*
%TO.P,Q2,1,B*%
%TO.N,/I_BASE*%
X143300000Y-72375000D03*
%TO.P,Q2,2,E*%
%TO.N,GND*%
X145200000Y-72375000D03*
%TO.P,Q2,3,C*%
%TO.N,/RED_CATHODE*%
X144250000Y-70500000D03*
%TD*%
D11*
%TO.P,R8,1*%
%TO.N,/I_BASE*%
X146103800Y-75250000D03*
%TO.P,R8,2*%
%TO.N,/I_ENV*%
X147450000Y-75250000D03*
%TD*%
D16*
%TO.P,H2,1*%
%TO.N,N/C*%
X151099500Y-69675500D03*
%TD*%
D10*
%TO.P,D3,1,K*%
%TO.N,Net-(D3-K)*%
X127560500Y-88600000D03*
%TO.P,D3,2,A*%
%TO.N,VIN*%
X128805100Y-88600000D03*
%TD*%
D12*
%TO.P,R12,1*%
%TO.N,Net-(D4-K)*%
X146520400Y-89669800D03*
%TO.P,R12,2*%
%TO.N,MAGDEC*%
X144990400Y-89669800D03*
%TD*%
D13*
%TO.P,R2,1*%
%TO.N,VIN*%
X145498500Y-82200000D03*
%TO.P,R2,2*%
%TO.N,CS*%
X144101500Y-82200000D03*
%TD*%
D25*
%TO.P,CR1,1*%
%TO.N,/A_ENV*%
X132000000Y-77200000D03*
%TO.P,CR1,2*%
%TO.N,/A_PULSE*%
X129801600Y-77200000D03*
%TD*%
D24*
%TO.P,C4,1*%
%TO.N,GND*%
X140059500Y-73300000D03*
%TO.P,C4,2*%
%TO.N,/I_ENV*%
X141253300Y-73300000D03*
%TD*%
D15*
%TO.P,CR2,1*%
%TO.N,/I_ENV*%
X144350000Y-75950000D03*
%TO.P,CR2,2*%
%TO.N,I_BUF*%
X144350000Y-78148400D03*
%TD*%
D12*
%TO.P,R13,1*%
%TO.N,Net-(D3-K)*%
X130175100Y-89669800D03*
%TO.P,R13,2*%
%TO.N,MAGINC*%
X131705100Y-89669800D03*
%TD*%
D26*
%TO.N,*%
X139750000Y-88700000D03*
%TO.N,GND*%
X149300000Y-74000000D03*
X145850000Y-73950000D03*
X132800000Y-85950000D03*
X138200000Y-81000000D03*
%TO.N,/BLUE_CATHODE*%
X133650000Y-70500000D03*
X127850000Y-82181575D03*
%TO.N,MAGINC*%
X131705100Y-87519800D03*
X135300000Y-78700000D03*
%TO.N,MAGDEC*%
X145005400Y-87519800D03*
X136350000Y-77950000D03*
%TD*%
D27*
%TO.N,SCK*%
X141184726Y-83749000D02*
X138725000Y-86208726D01*
X143025600Y-83675000D02*
X143419200Y-84068600D01*
X138725000Y-86208726D02*
X138725000Y-93500000D01*
X144101500Y-84200000D02*
X143650500Y-83749000D01*
X142137500Y-83675000D02*
X143025600Y-83675000D01*
X143491100Y-84200000D02*
X143419200Y-84200000D01*
X144101500Y-84200000D02*
X143491100Y-84200000D01*
X143650500Y-83749000D02*
X141184726Y-83749000D01*
X143419200Y-84068600D02*
X143419200Y-84200000D01*
%TO.N,/A_ENV*%
X137958100Y-70500000D02*
X137958100Y-72496100D01*
X137900000Y-72938000D02*
X137900000Y-73300000D01*
X137958100Y-72496100D02*
X137900000Y-72554200D01*
X132481700Y-74368300D02*
X131600000Y-75250000D01*
X131600000Y-75250000D02*
X131600000Y-76800000D01*
X137900000Y-73465492D02*
X136997192Y-74368300D01*
X137900000Y-73300000D02*
X137900000Y-73465492D01*
X136997192Y-74368300D02*
X132481700Y-74368300D01*
X131600000Y-76800000D02*
X132000000Y-77200000D01*
X137900000Y-72938000D02*
X137900000Y-72554200D01*
%TO.N,VIN*%
X147585000Y-84200000D02*
X147585000Y-84385000D01*
X130175100Y-87519800D02*
X130175100Y-85742100D01*
X136424300Y-84917000D02*
X133800000Y-84917000D01*
X147585000Y-84385000D02*
X146535400Y-85434600D01*
X128669100Y-84917000D02*
X129350000Y-84917000D01*
X145498500Y-81428800D02*
X144348000Y-81428800D01*
X139436100Y-77766800D02*
X141444300Y-79775000D01*
X128376900Y-83993800D02*
X128376900Y-84624800D01*
X147585000Y-84200000D02*
X147498500Y-84200000D01*
X146535400Y-85434600D02*
X146535400Y-87519800D01*
X128376900Y-84624800D02*
X128669100Y-84917000D01*
X149150000Y-87918200D02*
X149150000Y-88600000D01*
X142162500Y-80450000D02*
X142137500Y-80425000D01*
X144127700Y-80450000D02*
X144127700Y-81208500D01*
X141444300Y-79775000D02*
X142137500Y-79775000D01*
X142137500Y-79775000D02*
X142137500Y-79821800D01*
X144348000Y-81428800D02*
X144127700Y-81208500D01*
X140150100Y-76350000D02*
X139436100Y-76350000D01*
X144127700Y-80450000D02*
X142162500Y-80450000D01*
X129094900Y-88600000D02*
X130175100Y-87519800D01*
X146535400Y-87519800D02*
X148751600Y-87519800D01*
X145498500Y-82200000D02*
X145498500Y-81428800D01*
X130175100Y-85742100D02*
X129350000Y-84917000D01*
X140916300Y-80425000D02*
X136424300Y-84917000D01*
X132822300Y-83363574D02*
X133850000Y-84391274D01*
X128805100Y-88600000D02*
X129094900Y-88600000D01*
X129350000Y-84917000D02*
X133800000Y-84917000D01*
X132822300Y-82150000D02*
X132822300Y-83363574D01*
X133850000Y-84391274D02*
X133850000Y-93500000D01*
X142137500Y-79821800D02*
X142137500Y-80425000D01*
X147498500Y-84200000D02*
X145498500Y-82200000D01*
X148751600Y-87519800D02*
X149150000Y-87918200D01*
X142137500Y-80425000D02*
X140916300Y-80425000D01*
X139436100Y-76350000D02*
X139436100Y-77766800D01*
%TO.N,/I_ENV*%
X141258100Y-70500000D02*
X141258100Y-71207700D01*
X144350000Y-75950000D02*
X144851700Y-75950000D01*
X147450000Y-75957700D02*
X144859400Y-75957700D01*
X141935600Y-74037300D02*
X143848300Y-75950000D01*
X141594500Y-73300000D02*
X141935600Y-73300000D01*
X141935600Y-73300000D02*
X141935600Y-74037300D01*
X144859400Y-75957700D02*
X144851700Y-75950000D01*
X144350000Y-75950000D02*
X143848300Y-75950000D01*
X147450000Y-75250000D02*
X147450000Y-75957700D01*
X141594500Y-73300000D02*
X141594500Y-71544100D01*
X141253300Y-73300000D02*
X141594500Y-73300000D01*
X141594500Y-71544100D02*
X141258100Y-71207700D01*
%TO.N,GND*%
X133342200Y-81392200D02*
X134099000Y-82149000D01*
X131577700Y-81929800D02*
X132115300Y-81392200D01*
X132115300Y-81392200D02*
X133342200Y-81392200D01*
X135312500Y-83675000D02*
X135312500Y-84325000D01*
X136242010Y-83675000D02*
X138200000Y-81717010D01*
X135312500Y-83675000D02*
X136242010Y-83675000D01*
X134099000Y-83340274D02*
X134433726Y-83675000D01*
X134099000Y-82149000D02*
X134099000Y-83340274D01*
X131577700Y-82150000D02*
X131577700Y-81929800D01*
X138200000Y-81717010D02*
X138200000Y-81000000D01*
X134433726Y-83675000D02*
X135312500Y-83675000D01*
%TO.N,/A_PULSE*%
X129801600Y-77200000D02*
X129801600Y-78801700D01*
X129801600Y-77200000D02*
X129700000Y-77200000D01*
X129700000Y-77200000D02*
X129673100Y-77226900D01*
X129774700Y-77226900D02*
X129801600Y-77200000D01*
X126550000Y-76800800D02*
X128123900Y-76800800D01*
X129801600Y-78801700D02*
X130499900Y-79500000D01*
X128123900Y-76800800D02*
X128550000Y-77226900D01*
X128550000Y-77226900D02*
X129774700Y-77226900D01*
%TO.N,Net-(D3-K)*%
X127560500Y-88600000D02*
X127560500Y-88752792D01*
X128477508Y-89669800D02*
X130175100Y-89669800D01*
X127560500Y-88752792D02*
X128477508Y-89669800D01*
%TO.N,CS*%
X143020600Y-83025000D02*
X143419200Y-82626400D01*
X141196100Y-83025000D02*
X142137500Y-83025000D01*
X142137500Y-83025000D02*
X143020600Y-83025000D01*
X136300000Y-87921100D02*
X141196100Y-83025000D01*
X144101500Y-82200000D02*
X143419200Y-82200000D01*
X143419200Y-82626400D02*
X143419200Y-82200000D01*
X136300000Y-93200000D02*
X136300000Y-87921100D01*
%TO.N,MISO*%
X141300000Y-93200000D02*
X141300000Y-85162500D01*
X141300000Y-85162500D02*
X142137500Y-84325000D01*
%TO.N,A_BUF*%
X140150100Y-75400000D02*
X139436100Y-75400000D01*
X136780800Y-74819300D02*
X132100100Y-79500000D01*
X139436100Y-75400000D02*
X138855400Y-74819300D01*
X138855400Y-74819300D02*
X136780800Y-74819300D01*
%TO.N,I_BUF*%
X141712600Y-78148400D02*
X144350000Y-78148400D01*
X140864200Y-77300000D02*
X141712600Y-78148400D01*
X140150100Y-77300000D02*
X140864200Y-77300000D01*
%TO.N,/BLUE_ANODE*%
X129723100Y-83790208D02*
X129723100Y-83993800D01*
X129950000Y-83766900D02*
X129723100Y-83993800D01*
X129950000Y-82181575D02*
X129950000Y-83766900D01*
X129648400Y-82174725D02*
X129672300Y-82198625D01*
%TO.N,/RED_CATHODE*%
X147727700Y-82027408D02*
X147727700Y-82180200D01*
X148107308Y-81647800D02*
X147727700Y-82027408D01*
X144739822Y-70500000D02*
X148107308Y-73867486D01*
X144250000Y-70500000D02*
X144739822Y-70500000D01*
X148107308Y-73867486D02*
X148107308Y-81647800D01*
%TO.N,/RED_ANODE*%
X148972300Y-82180200D02*
X148972300Y-84057300D01*
X148972300Y-84057300D02*
X149115000Y-84200000D01*
%TO.N,Net-(D4-K)*%
X146835600Y-89669800D02*
X146520400Y-89669800D01*
X147905400Y-88600000D02*
X146835600Y-89669800D01*
%TO.N,/A_BASE*%
X130253800Y-74542300D02*
X130532700Y-74542300D01*
X130532700Y-74542300D02*
X132700000Y-72375000D01*
X130253800Y-75250000D02*
X130253800Y-74542300D01*
%TO.N,I*%
X137622750Y-77300001D02*
X137474000Y-77448751D01*
X137474000Y-77448751D02*
X137474000Y-81805200D01*
X136254200Y-83025000D02*
X135312500Y-83025000D01*
X137474000Y-81805200D02*
X136254200Y-83025000D01*
%TO.N,A*%
X134054000Y-78720500D02*
X136908800Y-75865700D01*
X134385100Y-81075000D02*
X134054000Y-80743900D01*
X134054000Y-80743900D02*
X134054000Y-78720500D01*
X137622800Y-75400000D02*
X136908800Y-75400000D01*
X136908800Y-75865700D02*
X136908800Y-75400000D01*
X135312500Y-81075000D02*
X134385100Y-81075000D01*
%TO.N,/I_BASE*%
X143300000Y-73052300D02*
X145497700Y-75250000D01*
X143300000Y-72375000D02*
X143300000Y-73052300D01*
X146103800Y-75250000D02*
X145497700Y-75250000D01*
%TO.N,MAGINC*%
X135300000Y-78700000D02*
X135300000Y-79762500D01*
X131705100Y-87519800D02*
X131705100Y-89669800D01*
X135300000Y-79762500D02*
X135312500Y-79775000D01*
%TO.N,MAGDEC*%
X145005400Y-89654800D02*
X144990400Y-89669800D01*
X136191274Y-80425000D02*
X136526000Y-80090274D01*
X136526000Y-80090274D02*
X136526000Y-78126000D01*
X135312500Y-80425000D02*
X136191274Y-80425000D01*
X145105400Y-87407300D02*
X145298100Y-87600000D01*
X136526000Y-78126000D02*
X136350000Y-77950000D01*
X145005400Y-87519800D02*
X145005400Y-89654800D01*
%TD*%
%TA.AperFunction,Conductor*%
%TO.N,GND*%
G36*
X138715803Y-75564739D02*
G01*
X138722281Y-75570771D01*
X138939527Y-75788017D01*
X138973012Y-75849340D01*
X138968028Y-75919032D01*
X138952744Y-75945613D01*
X138953626Y-75946202D01*
X138881792Y-76053707D01*
X138881787Y-76053716D01*
X138834638Y-76167545D01*
X138834635Y-76167555D01*
X138810600Y-76288389D01*
X138810600Y-77828407D01*
X138815752Y-77854305D01*
X138815752Y-77854310D01*
X138815753Y-77854310D01*
X138815753Y-77854311D01*
X138833502Y-77943548D01*
X138833503Y-77943555D01*
X138834635Y-77949244D01*
X138834637Y-77949253D01*
X138881785Y-78063080D01*
X138881787Y-78063083D01*
X138881788Y-78063086D01*
X138916015Y-78114309D01*
X138950242Y-78165533D01*
X139037367Y-78252658D01*
X139037369Y-78252659D01*
X139047332Y-78262622D01*
X140534385Y-79749676D01*
X140567870Y-79810999D01*
X140562886Y-79880691D01*
X140522142Y-79935116D01*
X140522275Y-79935278D01*
X140521617Y-79935817D01*
X140521014Y-79936624D01*
X140518259Y-79938573D01*
X140517569Y-79939139D01*
X140486381Y-79970328D01*
X140430442Y-80026267D01*
X140430439Y-80026270D01*
X138237952Y-82218756D01*
X138176629Y-82252241D01*
X138106937Y-82247257D01*
X138051004Y-82205385D01*
X138026587Y-82139921D01*
X138035709Y-82083625D01*
X138063079Y-82017549D01*
X138075463Y-81987652D01*
X138084129Y-81944085D01*
X138099501Y-81866806D01*
X138099501Y-81743593D01*
X138099501Y-81738483D01*
X138099500Y-81738457D01*
X138099500Y-78140931D01*
X138119185Y-78073892D01*
X138171989Y-78028137D01*
X138180160Y-78024752D01*
X138245476Y-78000391D01*
X138252426Y-77997799D01*
X138252426Y-77997798D01*
X138252431Y-77997797D01*
X138367646Y-77911547D01*
X138453896Y-77796332D01*
X138504191Y-77661484D01*
X138510600Y-77601874D01*
X138510599Y-76998129D01*
X138504191Y-76938518D01*
X138493017Y-76908560D01*
X138453897Y-76803672D01*
X138453893Y-76803665D01*
X138367647Y-76688456D01*
X138367644Y-76688453D01*
X138252435Y-76602207D01*
X138252428Y-76602203D01*
X138117582Y-76551909D01*
X138117583Y-76551909D01*
X138057983Y-76545502D01*
X138057981Y-76545501D01*
X138057973Y-76545501D01*
X138057965Y-76545501D01*
X137412951Y-76545501D01*
X137396425Y-76540648D01*
X137379202Y-76540820D01*
X137363596Y-76531008D01*
X137345912Y-76525816D01*
X137334633Y-76512799D01*
X137320051Y-76503632D01*
X137312227Y-76486941D01*
X137300157Y-76473012D01*
X137297705Y-76455963D01*
X137290395Y-76440368D01*
X137292836Y-76422099D01*
X137290213Y-76403854D01*
X137297408Y-76387889D01*
X137299650Y-76371114D01*
X137315113Y-76348604D01*
X137318435Y-76341235D01*
X137321696Y-76337394D01*
X137394658Y-76264433D01*
X137435254Y-76203676D01*
X137439878Y-76198232D01*
X137463351Y-76182813D01*
X137484904Y-76164802D01*
X137493498Y-76163012D01*
X137498277Y-76159874D01*
X137509089Y-76159766D01*
X137534394Y-76154498D01*
X138057971Y-76154498D01*
X138057972Y-76154498D01*
X138117583Y-76148090D01*
X138252431Y-76097795D01*
X138367646Y-76011545D01*
X138453896Y-75896330D01*
X138504191Y-75761482D01*
X138510600Y-75701872D01*
X138510600Y-75658452D01*
X138530285Y-75591413D01*
X138583089Y-75545658D01*
X138652247Y-75535714D01*
X138715803Y-75564739D01*
G37*
%TD.AperFunction*%
%TA.AperFunction,Conductor*%
G36*
X144343039Y-71757685D02*
G01*
X144388794Y-71810489D01*
X144400000Y-71862000D01*
X144400000Y-72125000D01*
X145076000Y-72125000D01*
X145143039Y-72144685D01*
X145188794Y-72197489D01*
X145200000Y-72249000D01*
X145200000Y-72375000D01*
X145326000Y-72375000D01*
X145393039Y-72394685D01*
X145438794Y-72447489D01*
X145450000Y-72499000D01*
X145450000Y-73609795D01*
X145450001Y-73609795D01*
X145452486Y-73609600D01*
X145610198Y-73563781D01*
X145751552Y-73480185D01*
X145751561Y-73480178D01*
X145867678Y-73364061D01*
X145867685Y-73364052D01*
X145951282Y-73222696D01*
X145951283Y-73222693D01*
X145997099Y-73064995D01*
X145997100Y-73064989D01*
X145999999Y-73028149D01*
X146000000Y-73028134D01*
X146000000Y-72944130D01*
X146019685Y-72877091D01*
X146072489Y-72831336D01*
X146141647Y-72821392D01*
X146205203Y-72850417D01*
X146211681Y-72856449D01*
X147445489Y-74090257D01*
X147460192Y-74117184D01*
X147476785Y-74143003D01*
X147477676Y-74149203D01*
X147478974Y-74151580D01*
X147481808Y-74177938D01*
X147481808Y-74244500D01*
X147462123Y-74311539D01*
X147409319Y-74357294D01*
X147357809Y-74368500D01*
X147122730Y-74368500D01*
X147122723Y-74368501D01*
X147063116Y-74374908D01*
X146928271Y-74425202D01*
X146928264Y-74425206D01*
X146851211Y-74482889D01*
X146785747Y-74507307D01*
X146717474Y-74492456D01*
X146702589Y-74482889D01*
X146625535Y-74425206D01*
X146625528Y-74425202D01*
X146490686Y-74374910D01*
X146490685Y-74374909D01*
X146490683Y-74374909D01*
X146431073Y-74368500D01*
X146431063Y-74368500D01*
X145776529Y-74368500D01*
X145776523Y-74368501D01*
X145716915Y-74374909D01*
X145638833Y-74404031D01*
X145569141Y-74409015D01*
X145507820Y-74375530D01*
X144933152Y-73800862D01*
X144899667Y-73739539D01*
X144904651Y-73669847D01*
X144936662Y-73622125D01*
X144950000Y-73609795D01*
X144950000Y-72625000D01*
X144400000Y-72625000D01*
X144400000Y-72968348D01*
X144393761Y-72989593D01*
X144392182Y-73011682D01*
X144384109Y-73022465D01*
X144380315Y-73035387D01*
X144363581Y-73049886D01*
X144350310Y-73067615D01*
X144337689Y-73072322D01*
X144327511Y-73081142D01*
X144305593Y-73084293D01*
X144284846Y-73092032D01*
X144271685Y-73089169D01*
X144258353Y-73091086D01*
X144238209Y-73081886D01*
X144216573Y-73077180D01*
X144198847Y-73063911D01*
X144194797Y-73062061D01*
X144188319Y-73056029D01*
X144136819Y-73004529D01*
X144103334Y-72943206D01*
X144100500Y-72916848D01*
X144100500Y-71862000D01*
X144120185Y-71794961D01*
X144172989Y-71749206D01*
X144224500Y-71738000D01*
X144276000Y-71738000D01*
X144343039Y-71757685D01*
G37*
%TD.AperFunction*%
%TA.AperFunction,Conductor*%
G36*
X153740470Y-65070185D02*
G01*
X153761112Y-65086819D01*
X155688181Y-67013888D01*
X155721666Y-67075211D01*
X155724500Y-67101569D01*
X155724500Y-96998431D01*
X155704815Y-97065470D01*
X155688181Y-97086112D01*
X153761112Y-99013181D01*
X153699789Y-99046666D01*
X153673431Y-99049500D01*
X123776569Y-99049500D01*
X123709530Y-99029815D01*
X123688888Y-99013181D01*
X121761819Y-97086112D01*
X121728334Y-97024789D01*
X121725500Y-96998431D01*
X121725500Y-94227968D01*
X122350000Y-94227968D01*
X122350000Y-94621032D01*
X122357153Y-94693655D01*
X122388526Y-95012202D01*
X122465204Y-95397694D01*
X122465207Y-95397705D01*
X122579310Y-95773854D01*
X122729730Y-96136999D01*
X122729732Y-96137004D01*
X122915011Y-96483637D01*
X122915022Y-96483655D01*
X123133387Y-96810460D01*
X123133397Y-96810474D01*
X123382754Y-97114317D01*
X123660682Y-97392245D01*
X123660687Y-97392249D01*
X123660688Y-97392250D01*
X123964531Y-97641607D01*
X124291351Y-97859982D01*
X124291360Y-97859987D01*
X124291362Y-97859988D01*
X124637995Y-98045267D01*
X124637997Y-98045267D01*
X124638003Y-98045271D01*
X125001147Y-98195690D01*
X125377285Y-98309790D01*
X125377291Y-98309791D01*
X125377294Y-98309792D01*
X125377305Y-98309795D01*
X125762797Y-98386473D01*
X126153968Y-98425000D01*
X126153971Y-98425000D01*
X126547029Y-98425000D01*
X126547032Y-98425000D01*
X126938203Y-98386473D01*
X127013248Y-98371545D01*
X127323694Y-98309795D01*
X127323705Y-98309792D01*
X127323705Y-98309791D01*
X127323715Y-98309790D01*
X127699853Y-98195690D01*
X128062997Y-98045271D01*
X128409649Y-97859982D01*
X128736469Y-97641607D01*
X129040312Y-97392250D01*
X129318250Y-97114312D01*
X129567607Y-96810469D01*
X129785982Y-96483649D01*
X129971271Y-96136997D01*
X130121690Y-95773853D01*
X130235790Y-95397715D01*
X130235792Y-95397705D01*
X130235795Y-95397694D01*
X130312473Y-95012202D01*
X130322557Y-94909814D01*
X130351000Y-94621032D01*
X130351000Y-94227968D01*
X130312473Y-93836797D01*
X130291486Y-93731286D01*
X130235795Y-93451305D01*
X130235792Y-93451294D01*
X130235791Y-93451291D01*
X130235790Y-93451285D01*
X130121690Y-93075147D01*
X129971271Y-92712003D01*
X129969365Y-92708438D01*
X129830069Y-92447832D01*
X129815827Y-92379429D01*
X129840827Y-92314186D01*
X129897132Y-92272815D01*
X129966865Y-92268453D01*
X130027108Y-92301698D01*
X131624139Y-93898729D01*
X131624142Y-93898733D01*
X131711267Y-93985858D01*
X131788190Y-94037256D01*
X131793990Y-94041132D01*
X131793993Y-94041134D01*
X131813710Y-94054309D01*
X131813712Y-94054310D01*
X131813715Y-94054312D01*
X131880396Y-94081931D01*
X131880398Y-94081933D01*
X131920640Y-94098601D01*
X131927548Y-94101463D01*
X131987971Y-94113481D01*
X132048393Y-94125500D01*
X132048394Y-94125500D01*
X132250501Y-94125500D01*
X132317540Y-94145185D01*
X132363295Y-94197989D01*
X132374501Y-94249500D01*
X132374501Y-94275018D01*
X132385000Y-94377796D01*
X132385001Y-94377799D01*
X132430894Y-94516294D01*
X132440186Y-94544334D01*
X132532288Y-94693656D01*
X132656344Y-94817712D01*
X132805666Y-94909814D01*
X132972203Y-94964999D01*
X133074991Y-94975500D01*
X134375008Y-94975499D01*
X134477797Y-94964999D01*
X134644334Y-94909814D01*
X134793656Y-94817712D01*
X134917712Y-94693656D01*
X135009814Y-94544334D01*
X135009814Y-94544331D01*
X135013178Y-94538879D01*
X135065126Y-94492154D01*
X135134088Y-94480931D01*
X135198170Y-94508774D01*
X135206398Y-94516294D01*
X135345213Y-94655109D01*
X135517179Y-94780048D01*
X135517181Y-94780049D01*
X135517184Y-94780051D01*
X135706588Y-94876557D01*
X135908757Y-94942246D01*
X136118713Y-94975500D01*
X136118714Y-94975500D01*
X136331286Y-94975500D01*
X136331287Y-94975500D01*
X136541243Y-94942246D01*
X136743412Y-94876557D01*
X136932816Y-94780051D01*
X136954789Y-94764086D01*
X137104786Y-94655109D01*
X137104788Y-94655106D01*
X137104792Y-94655104D01*
X137255104Y-94504792D01*
X137374683Y-94340204D01*
X137430011Y-94297540D01*
X137499624Y-94291561D01*
X137561420Y-94324166D01*
X137575313Y-94340199D01*
X137677560Y-94480931D01*
X137694896Y-94504792D01*
X137845213Y-94655109D01*
X138017179Y-94780048D01*
X138017181Y-94780049D01*
X138017184Y-94780051D01*
X138206588Y-94876557D01*
X138408757Y-94942246D01*
X138618713Y-94975500D01*
X138618714Y-94975500D01*
X138831286Y-94975500D01*
X138831287Y-94975500D01*
X139041243Y-94942246D01*
X139243412Y-94876557D01*
X139432816Y-94780051D01*
X139454789Y-94764086D01*
X139604786Y-94655109D01*
X139604788Y-94655106D01*
X139604792Y-94655104D01*
X139755104Y-94504792D01*
X139874683Y-94340204D01*
X139930011Y-94297540D01*
X139999624Y-94291561D01*
X140061420Y-94324166D01*
X140075313Y-94340199D01*
X140177560Y-94480931D01*
X140194896Y-94504792D01*
X140345213Y-94655109D01*
X140517179Y-94780048D01*
X140517181Y-94780049D01*
X140517184Y-94780051D01*
X140706588Y-94876557D01*
X140908757Y-94942246D01*
X141118713Y-94975500D01*
X141118714Y-94975500D01*
X141331286Y-94975500D01*
X141331287Y-94975500D01*
X141541243Y-94942246D01*
X141743412Y-94876557D01*
X141932816Y-94780051D01*
X141954789Y-94764086D01*
X142104786Y-94655109D01*
X142104788Y-94655106D01*
X142104792Y-94655104D01*
X142255104Y-94504792D01*
X142255106Y-94504788D01*
X142255109Y-94504786D01*
X142380048Y-94332820D01*
X142380047Y-94332820D01*
X142380051Y-94332816D01*
X142476557Y-94143412D01*
X142542246Y-93941243D01*
X142575500Y-93731287D01*
X142575500Y-93268713D01*
X142542246Y-93058757D01*
X142476557Y-92856588D01*
X142380051Y-92667184D01*
X142380049Y-92667181D01*
X142380048Y-92667179D01*
X142255109Y-92495213D01*
X142104786Y-92344890D01*
X141976615Y-92251770D01*
X141933949Y-92196441D01*
X141925500Y-92151452D01*
X141925500Y-85472951D01*
X141945185Y-85405912D01*
X141961815Y-85385274D01*
X142235271Y-85111817D01*
X142296594Y-85078333D01*
X142322952Y-85075499D01*
X142963150Y-85075499D01*
X142963162Y-85075499D01*
X142998627Y-85072709D01*
X143150390Y-85028618D01*
X143233831Y-84979270D01*
X143301551Y-84962089D01*
X143367814Y-84984249D01*
X143384626Y-84998318D01*
X143388356Y-85002048D01*
X143503564Y-85088293D01*
X143503571Y-85088297D01*
X143638417Y-85138591D01*
X143638416Y-85138591D01*
X143645344Y-85139335D01*
X143698027Y-85145000D01*
X144504972Y-85144999D01*
X144564583Y-85138591D01*
X144699431Y-85088296D01*
X144726107Y-85068325D01*
X144791566Y-85043909D01*
X144859839Y-85058759D01*
X144874728Y-85068327D01*
X144900808Y-85087851D01*
X145035523Y-85138097D01*
X145035527Y-85138098D01*
X145095055Y-85144499D01*
X145095072Y-85144500D01*
X145248500Y-85144500D01*
X145748500Y-85144500D01*
X145901928Y-85144500D01*
X145901944Y-85144499D01*
X145961472Y-85138098D01*
X145961479Y-85138096D01*
X146096186Y-85087854D01*
X146096193Y-85087850D01*
X146211287Y-85001690D01*
X146211290Y-85001687D01*
X146297450Y-84886593D01*
X146297454Y-84886586D01*
X146347696Y-84751879D01*
X146347698Y-84751872D01*
X146354099Y-84692344D01*
X146354100Y-84692327D01*
X146354100Y-84450000D01*
X145748500Y-84450000D01*
X145748500Y-85144500D01*
X145248500Y-85144500D01*
X145248500Y-84324000D01*
X145268185Y-84256961D01*
X145320989Y-84211206D01*
X145372500Y-84200000D01*
X145498500Y-84200000D01*
X145498500Y-84074000D01*
X145518185Y-84006961D01*
X145570989Y-83961206D01*
X145622500Y-83950000D01*
X146312548Y-83950000D01*
X146379587Y-83969685D01*
X146400229Y-83986319D01*
X146618181Y-84204271D01*
X146651666Y-84265594D01*
X146654500Y-84291952D01*
X146654500Y-84737870D01*
X146654501Y-84737876D01*
X146660908Y-84797483D01*
X146711202Y-84932328D01*
X146711206Y-84932335D01*
X146763394Y-85002048D01*
X146797454Y-85047546D01*
X146909811Y-85131657D01*
X146951682Y-85187590D01*
X146959500Y-85230923D01*
X146959500Y-86281611D01*
X146983535Y-86402444D01*
X146983540Y-86402461D01*
X147024062Y-86500291D01*
X147031531Y-86569760D01*
X147000255Y-86632239D01*
X146952834Y-86663925D01*
X146812671Y-86716202D01*
X146812664Y-86716206D01*
X146697455Y-86802452D01*
X146697452Y-86802455D01*
X146611206Y-86917664D01*
X146611202Y-86917671D01*
X146560908Y-87052517D01*
X146554501Y-87112116D01*
X146554500Y-87112128D01*
X146554500Y-88187870D01*
X146554501Y-88187876D01*
X146560908Y-88247483D01*
X146611202Y-88382328D01*
X146611206Y-88382335D01*
X146652379Y-88437334D01*
X146697454Y-88497546D01*
X146809811Y-88581657D01*
X146812548Y-88585312D01*
X146816703Y-88587210D01*
X146833293Y-88613024D01*
X146851682Y-88637590D01*
X146852697Y-88643219D01*
X146854477Y-88645988D01*
X146859500Y-88680923D01*
X146859500Y-88758869D01*
X146839815Y-88825908D01*
X146803731Y-88859502D01*
X146804769Y-88860888D01*
X146682455Y-88952452D01*
X146682452Y-88952455D01*
X146596206Y-89067664D01*
X146596202Y-89067671D01*
X146545908Y-89202517D01*
X146539501Y-89262116D01*
X146539501Y-89262123D01*
X146539500Y-89262135D01*
X146539500Y-90337870D01*
X146539501Y-90337876D01*
X146545908Y-90397483D01*
X146596202Y-90532328D01*
X146596206Y-90532335D01*
X146682452Y-90647544D01*
X146682455Y-90647547D01*
X146797664Y-90733793D01*
X146797671Y-90733797D01*
X146932517Y-90784091D01*
X146932516Y-90784091D01*
X146939444Y-90784835D01*
X146992127Y-90790500D01*
X147947872Y-90790499D01*
X148007483Y-90784091D01*
X148142329Y-90733797D01*
X148142329Y-90733796D01*
X148142331Y-90733796D01*
X148160688Y-90720053D01*
X148226150Y-90695635D01*
X148294424Y-90710485D01*
X148309308Y-90720050D01*
X148327665Y-90733793D01*
X148327669Y-90733796D01*
X148327670Y-90733797D01*
X148462517Y-90784091D01*
X148462516Y-90784091D01*
X148469444Y-90784835D01*
X148522127Y-90790500D01*
X148928683Y-90790499D01*
X148995721Y-90810183D01*
X149041476Y-90862987D01*
X149051420Y-90932146D01*
X149022395Y-90995702D01*
X148997573Y-91017601D01*
X148713539Y-91207387D01*
X148713525Y-91207397D01*
X148409682Y-91456754D01*
X148131754Y-91734682D01*
X147882397Y-92038525D01*
X147882387Y-92038539D01*
X147664022Y-92365344D01*
X147664011Y-92365362D01*
X147478732Y-92711995D01*
X147478730Y-92712000D01*
X147328310Y-93075145D01*
X147214207Y-93451294D01*
X147214204Y-93451305D01*
X147137526Y-93836797D01*
X147113383Y-94081930D01*
X147099000Y-94227968D01*
X147099000Y-94621032D01*
X147106153Y-94693655D01*
X147137526Y-95012202D01*
X147214204Y-95397694D01*
X147214207Y-95397705D01*
X147328310Y-95773854D01*
X147478730Y-96136999D01*
X147478732Y-96137004D01*
X147664011Y-96483637D01*
X147664022Y-96483655D01*
X147882387Y-96810460D01*
X147882397Y-96810474D01*
X148131754Y-97114317D01*
X148409682Y-97392245D01*
X148409687Y-97392249D01*
X148409688Y-97392250D01*
X148713531Y-97641607D01*
X149040351Y-97859982D01*
X149040360Y-97859987D01*
X149040362Y-97859988D01*
X149386995Y-98045267D01*
X149386997Y-98045267D01*
X149387003Y-98045271D01*
X149750147Y-98195690D01*
X150126285Y-98309790D01*
X150126291Y-98309791D01*
X150126294Y-98309792D01*
X150126305Y-98309795D01*
X150511797Y-98386473D01*
X150902968Y-98425000D01*
X150902971Y-98425000D01*
X151296029Y-98425000D01*
X151296032Y-98425000D01*
X151687203Y-98386473D01*
X151762248Y-98371545D01*
X152072694Y-98309795D01*
X152072705Y-98309792D01*
X152072705Y-98309791D01*
X152072715Y-98309790D01*
X152448853Y-98195690D01*
X152811997Y-98045271D01*
X153158649Y-97859982D01*
X153485469Y-97641607D01*
X153789312Y-97392250D01*
X154067250Y-97114312D01*
X154316607Y-96810469D01*
X154534982Y-96483649D01*
X154720271Y-96136997D01*
X154870690Y-95773853D01*
X154984790Y-95397715D01*
X154984792Y-95397705D01*
X154984795Y-95397694D01*
X155061473Y-95012202D01*
X155071557Y-94909814D01*
X155100000Y-94621032D01*
X155100000Y-94227968D01*
X155061473Y-93836797D01*
X155040486Y-93731286D01*
X154984795Y-93451305D01*
X154984792Y-93451294D01*
X154984791Y-93451291D01*
X154984790Y-93451285D01*
X154870690Y-93075147D01*
X154720271Y-92712003D01*
X154718365Y-92708438D01*
X154534988Y-92365362D01*
X154534987Y-92365360D01*
X154534982Y-92365351D01*
X154316607Y-92038531D01*
X154067250Y-91734688D01*
X154067249Y-91734687D01*
X154067245Y-91734682D01*
X153789317Y-91456754D01*
X153485474Y-91207397D01*
X153485473Y-91207396D01*
X153485469Y-91207393D01*
X153158649Y-90989018D01*
X153158644Y-90989015D01*
X153158637Y-90989011D01*
X152812004Y-90803732D01*
X152811999Y-90803730D01*
X152799254Y-90798451D01*
X152643164Y-90733796D01*
X152448854Y-90653310D01*
X152110074Y-90550542D01*
X152072715Y-90539210D01*
X152072714Y-90539209D01*
X152072705Y-90539207D01*
X152072694Y-90539204D01*
X151687202Y-90462526D01*
X151392589Y-90433510D01*
X151296032Y-90424000D01*
X150902968Y-90424000D01*
X150813751Y-90432787D01*
X150511797Y-90462526D01*
X150126305Y-90539204D01*
X150126275Y-90539212D01*
X150078407Y-90553732D01*
X150008540Y-90554354D01*
X149949428Y-90517105D01*
X149919839Y-90453810D01*
X149924815Y-90405627D01*
X149922307Y-90405035D01*
X149924089Y-90397491D01*
X149924089Y-90397487D01*
X149924091Y-90397483D01*
X149930500Y-90337873D01*
X149930499Y-90120651D01*
X149950183Y-90053612D01*
X149966813Y-90032975D01*
X150300971Y-89698818D01*
X150362294Y-89665333D01*
X150388652Y-89662499D01*
X150813871Y-89662499D01*
X150813872Y-89662499D01*
X150873483Y-89656091D01*
X150963965Y-89622342D01*
X151033656Y-89617358D01*
X151050628Y-89622340D01*
X151141117Y-89656091D01*
X151200727Y-89662500D01*
X152058472Y-89662499D01*
X152118083Y-89656091D01*
X152252931Y-89605796D01*
X152368146Y-89519546D01*
X152454396Y-89404331D01*
X152504691Y-89269483D01*
X152511100Y-89209873D01*
X152511099Y-88250528D01*
X152504691Y-88190917D01*
X152503559Y-88187883D01*
X152454397Y-88056071D01*
X152454393Y-88056064D01*
X152368147Y-87940856D01*
X152368148Y-87940856D01*
X152368146Y-87940854D01*
X152252931Y-87854604D01*
X152252928Y-87854602D01*
X152245831Y-87849290D01*
X152247384Y-87847214D01*
X152207586Y-87807415D01*
X152201861Y-87795449D01*
X152183912Y-87752115D01*
X152183910Y-87752112D01*
X152183908Y-87752108D01*
X152115458Y-87649666D01*
X152115455Y-87649663D01*
X151724128Y-87258338D01*
X151724125Y-87258334D01*
X151724125Y-87258335D01*
X151717059Y-87251269D01*
X151717058Y-87251267D01*
X151629933Y-87164142D01*
X151629929Y-87164139D01*
X151629928Y-87164138D01*
X151559733Y-87117235D01*
X151559730Y-87117233D01*
X151552089Y-87112128D01*
X151527486Y-87095688D01*
X151421150Y-87051643D01*
X151418386Y-87050498D01*
X151418369Y-87050490D01*
X151413652Y-87048537D01*
X151353229Y-87036518D01*
X151292810Y-87024500D01*
X151292807Y-87024500D01*
X151292806Y-87024500D01*
X150014737Y-87024500D01*
X149947698Y-87004815D01*
X149901943Y-86952011D01*
X149898555Y-86943833D01*
X149888797Y-86917671D01*
X149888793Y-86917664D01*
X149802547Y-86802455D01*
X149802544Y-86802452D01*
X149687335Y-86716206D01*
X149687328Y-86716202D01*
X149552482Y-86665908D01*
X149552483Y-86665908D01*
X149492883Y-86659501D01*
X149492881Y-86659500D01*
X149492873Y-86659500D01*
X149492865Y-86659500D01*
X148960453Y-86659500D01*
X148893414Y-86639815D01*
X148872772Y-86623181D01*
X148246819Y-85997228D01*
X148213334Y-85935905D01*
X148210500Y-85909547D01*
X148210500Y-85230923D01*
X148211786Y-85226541D01*
X148210816Y-85222081D01*
X148221540Y-85193324D01*
X148230185Y-85163884D01*
X148234079Y-85159700D01*
X148235230Y-85156616D01*
X148260183Y-85131660D01*
X148275689Y-85120052D01*
X148341150Y-85095635D01*
X148409423Y-85110485D01*
X148424308Y-85120050D01*
X148439810Y-85131656D01*
X148442669Y-85133796D01*
X148442670Y-85133797D01*
X148577517Y-85184091D01*
X148577516Y-85184091D01*
X148584444Y-85184835D01*
X148637127Y-85190500D01*
X149592872Y-85190499D01*
X149652483Y-85184091D01*
X149787331Y-85133796D01*
X149902546Y-85047546D01*
X149988796Y-84932331D01*
X150039091Y-84797483D01*
X150045500Y-84737873D01*
X150045499Y-83662128D01*
X150039091Y-83602517D01*
X150035765Y-83593600D01*
X149988796Y-83467669D01*
X149988793Y-83467664D01*
X149902547Y-83352455D01*
X149902544Y-83352452D01*
X149787335Y-83266206D01*
X149787328Y-83266202D01*
X149684550Y-83227869D01*
X149628616Y-83185998D01*
X149604199Y-83120534D01*
X149619050Y-83052261D01*
X149653571Y-83012421D01*
X149710846Y-82969546D01*
X149797096Y-82854331D01*
X149847391Y-82719483D01*
X149853800Y-82659873D01*
X149853799Y-81700528D01*
X149847391Y-81640917D01*
X149799742Y-81513164D01*
X149797097Y-81506071D01*
X149797093Y-81506064D01*
X149710847Y-81390855D01*
X149710844Y-81390852D01*
X149595635Y-81304606D01*
X149595628Y-81304602D01*
X149460782Y-81254308D01*
X149460783Y-81254308D01*
X149401183Y-81247901D01*
X149401181Y-81247900D01*
X149401173Y-81247900D01*
X149401165Y-81247900D01*
X148856808Y-81247900D01*
X148789769Y-81228215D01*
X148744014Y-81175411D01*
X148732808Y-81123900D01*
X148732808Y-73805879D01*
X148732807Y-73805875D01*
X148719612Y-73739539D01*
X148708771Y-73685034D01*
X148661619Y-73571200D01*
X148661618Y-73571199D01*
X148661615Y-73571193D01*
X148593167Y-73468754D01*
X148550413Y-73426000D01*
X148506041Y-73381628D01*
X148506040Y-73381627D01*
X145225681Y-70101269D01*
X145225680Y-70101267D01*
X145138555Y-70014142D01*
X145098132Y-69987132D01*
X145091446Y-69981101D01*
X145077669Y-69958695D01*
X145060803Y-69938513D01*
X145058521Y-69927552D01*
X145054850Y-69921582D01*
X145055062Y-69910938D01*
X145050500Y-69889025D01*
X145050500Y-69846813D01*
X145050499Y-69846798D01*
X145047598Y-69809932D01*
X145047597Y-69809926D01*
X145008585Y-69675649D01*
X145001744Y-69652102D01*
X144981872Y-69618500D01*
X144934884Y-69539046D01*
X144934883Y-69539045D01*
X144918083Y-69510638D01*
X144918076Y-69510629D01*
X144886415Y-69478968D01*
X147099000Y-69478968D01*
X147099000Y-69872032D01*
X147099457Y-69876669D01*
X147137526Y-70263202D01*
X147214204Y-70648694D01*
X147214207Y-70648705D01*
X147328310Y-71024854D01*
X147420663Y-71247814D01*
X147477751Y-71385637D01*
X147478730Y-71387999D01*
X147478732Y-71388004D01*
X147664011Y-71734637D01*
X147664022Y-71734655D01*
X147882387Y-72061460D01*
X147882397Y-72061474D01*
X148131754Y-72365317D01*
X148409682Y-72643245D01*
X148409687Y-72643249D01*
X148409688Y-72643250D01*
X148713531Y-72892607D01*
X149040351Y-73110982D01*
X149040360Y-73110987D01*
X149040362Y-73110988D01*
X149386995Y-73296267D01*
X149386997Y-73296267D01*
X149387003Y-73296271D01*
X149750147Y-73446690D01*
X150126285Y-73560790D01*
X150126291Y-73560791D01*
X150126294Y-73560792D01*
X150126305Y-73560795D01*
X150483674Y-73631879D01*
X150511797Y-73637473D01*
X150902968Y-73676000D01*
X150902971Y-73676000D01*
X151296029Y-73676000D01*
X151296032Y-73676000D01*
X151687203Y-73637473D01*
X151781079Y-73618800D01*
X152072694Y-73560795D01*
X152072705Y-73560792D01*
X152072705Y-73560791D01*
X152072715Y-73560790D01*
X152448853Y-73446690D01*
X152811997Y-73296271D01*
X153158649Y-73110982D01*
X153485469Y-72892607D01*
X153789312Y-72643250D01*
X154067250Y-72365312D01*
X154316607Y-72061469D01*
X154534982Y-71734649D01*
X154720271Y-71387997D01*
X154870690Y-71024853D01*
X154984790Y-70648715D01*
X154984792Y-70648705D01*
X154984795Y-70648694D01*
X155061473Y-70263202D01*
X155080388Y-70071155D01*
X155100000Y-69872032D01*
X155100000Y-69478968D01*
X155061473Y-69087797D01*
X154984795Y-68702305D01*
X154984792Y-68702294D01*
X154984791Y-68702291D01*
X154984790Y-68702285D01*
X154870690Y-68326147D01*
X154720271Y-67963003D01*
X154534982Y-67616351D01*
X154316607Y-67289531D01*
X154067250Y-66985688D01*
X154067249Y-66985687D01*
X154067245Y-66985682D01*
X153789317Y-66707754D01*
X153485474Y-66458397D01*
X153485473Y-66458396D01*
X153485469Y-66458393D01*
X153158649Y-66240018D01*
X153158644Y-66240015D01*
X153158637Y-66240011D01*
X152812004Y-66054732D01*
X152811999Y-66054730D01*
X152448854Y-65904310D01*
X152072705Y-65790207D01*
X152072694Y-65790204D01*
X151687202Y-65713526D01*
X151392589Y-65684510D01*
X151296032Y-65675000D01*
X150902968Y-65675000D01*
X150813751Y-65683787D01*
X150511797Y-65713526D01*
X150126305Y-65790204D01*
X150126294Y-65790207D01*
X149750145Y-65904310D01*
X149387000Y-66054730D01*
X149386995Y-66054732D01*
X149040362Y-66240011D01*
X149040344Y-66240022D01*
X148713539Y-66458387D01*
X148713525Y-66458397D01*
X148409682Y-66707754D01*
X148131754Y-66985682D01*
X147882397Y-67289525D01*
X147882387Y-67289539D01*
X147664022Y-67616344D01*
X147664011Y-67616362D01*
X147478732Y-67962995D01*
X147478730Y-67963000D01*
X147328310Y-68326145D01*
X147214207Y-68702294D01*
X147214204Y-68702305D01*
X147137526Y-69087797D01*
X147115567Y-69310756D01*
X147099000Y-69478968D01*
X144886415Y-69478968D01*
X144801870Y-69394423D01*
X144801862Y-69394417D01*
X144660396Y-69310755D01*
X144660393Y-69310754D01*
X144502573Y-69264902D01*
X144502567Y-69264901D01*
X144465701Y-69262000D01*
X144465694Y-69262000D01*
X144034306Y-69262000D01*
X144034298Y-69262000D01*
X143997432Y-69264901D01*
X143997426Y-69264902D01*
X143839606Y-69310754D01*
X143839603Y-69310755D01*
X143698137Y-69394417D01*
X143698129Y-69394423D01*
X143581923Y-69510629D01*
X143581917Y-69510637D01*
X143498255Y-69652103D01*
X143498254Y-69652106D01*
X143452402Y-69809926D01*
X143452401Y-69809932D01*
X143449500Y-69846798D01*
X143449500Y-71013000D01*
X143429815Y-71080039D01*
X143377011Y-71125794D01*
X143325500Y-71137000D01*
X143084298Y-71137000D01*
X143047432Y-71139901D01*
X143047426Y-71139902D01*
X142889606Y-71185754D01*
X142889603Y-71185755D01*
X142748137Y-71269417D01*
X142748129Y-71269423D01*
X142631923Y-71385629D01*
X142631917Y-71385637D01*
X142548255Y-71527103D01*
X142548254Y-71527106D01*
X142502402Y-71684926D01*
X142502401Y-71684932D01*
X142499500Y-71721798D01*
X142499500Y-72692515D01*
X142496636Y-72702266D01*
X142497903Y-72712351D01*
X142486958Y-72735226D01*
X142479815Y-72759554D01*
X142472134Y-72766208D01*
X142467748Y-72775378D01*
X142446171Y-72788705D01*
X142427011Y-72805309D01*
X142416952Y-72806755D01*
X142408305Y-72812097D01*
X142382952Y-72811644D01*
X142357853Y-72815253D01*
X142346746Y-72810997D01*
X142338446Y-72810849D01*
X142306608Y-72795617D01*
X142275108Y-72774569D01*
X142230304Y-72720956D01*
X142220000Y-72671467D01*
X142220000Y-71482493D01*
X142219999Y-71482492D01*
X142199911Y-71381499D01*
X142195963Y-71361648D01*
X142148811Y-71247814D01*
X142148810Y-71247812D01*
X142117197Y-71200499D01*
X142117197Y-71200500D01*
X142080358Y-71145367D01*
X142080355Y-71145363D01*
X142058569Y-71123577D01*
X142025084Y-71062254D01*
X142029819Y-70996034D01*
X142029807Y-70996031D01*
X142029825Y-70995952D01*
X142030067Y-70992567D01*
X142031591Y-70988483D01*
X142038000Y-70928873D01*
X142037999Y-70071128D01*
X142031591Y-70011517D01*
X142019804Y-69979915D01*
X141981297Y-69876671D01*
X141981293Y-69876664D01*
X141895047Y-69761455D01*
X141895044Y-69761452D01*
X141779835Y-69675206D01*
X141779828Y-69675202D01*
X141644986Y-69624910D01*
X141644985Y-69624909D01*
X141644983Y-69624909D01*
X141585373Y-69618500D01*
X141585363Y-69618500D01*
X140930829Y-69618500D01*
X140930823Y-69618501D01*
X140871216Y-69624908D01*
X140736371Y-69675202D01*
X140736365Y-69675206D01*
X140658893Y-69733201D01*
X140593429Y-69757618D01*
X140525156Y-69742766D01*
X140510272Y-69733201D01*
X140433389Y-69675647D01*
X140433386Y-69675645D01*
X140298679Y-69625403D01*
X140298672Y-69625401D01*
X140239144Y-69619000D01*
X140161900Y-69619000D01*
X140161900Y-71381000D01*
X140239128Y-71381000D01*
X140239144Y-71380999D01*
X140298672Y-71374598D01*
X140298679Y-71374596D01*
X140433386Y-71324354D01*
X140433389Y-71324352D01*
X140458773Y-71305350D01*
X140484985Y-71295572D01*
X140509873Y-71282808D01*
X140517270Y-71283530D01*
X140524236Y-71280932D01*
X140551568Y-71286877D01*
X140579413Y-71289595D01*
X140585247Y-71294203D01*
X140592510Y-71295783D01*
X140612289Y-71315561D01*
X140634243Y-71332901D01*
X140637730Y-71341001D01*
X140641916Y-71345187D01*
X140650350Y-71364305D01*
X140653069Y-71372215D01*
X140656637Y-71390152D01*
X140670447Y-71423492D01*
X140671909Y-71427023D01*
X140671912Y-71427030D01*
X140703785Y-71503981D01*
X140703787Y-71503985D01*
X140703788Y-71503986D01*
X140735028Y-71550738D01*
X140772242Y-71606433D01*
X140859367Y-71693558D01*
X140859368Y-71693558D01*
X140866435Y-71700625D01*
X140866434Y-71700625D01*
X140866438Y-71700628D01*
X140932681Y-71766871D01*
X140966166Y-71828194D01*
X140969000Y-71854552D01*
X140969000Y-72256481D01*
X140949315Y-72323520D01*
X140896511Y-72369275D01*
X140853117Y-72379941D01*
X140853129Y-72380046D01*
X140852349Y-72380129D01*
X140851645Y-72380303D01*
X140849834Y-72380400D01*
X140790215Y-72386809D01*
X140699017Y-72420823D01*
X140629326Y-72425807D01*
X140612352Y-72420823D01*
X140522480Y-72387303D01*
X140522472Y-72387301D01*
X140462944Y-72380900D01*
X140309500Y-72380900D01*
X140309500Y-74219100D01*
X140462928Y-74219100D01*
X140462944Y-74219099D01*
X140522471Y-74212698D01*
X140612351Y-74179175D01*
X140682043Y-74174191D01*
X140699001Y-74179169D01*
X140790217Y-74213191D01*
X140849827Y-74219600D01*
X141251219Y-74219599D01*
X141265204Y-74223705D01*
X141279758Y-74222928D01*
X141298053Y-74233350D01*
X141318258Y-74239283D01*
X141328902Y-74250925D01*
X141340467Y-74257513D01*
X141354475Y-74278893D01*
X141361105Y-74286144D01*
X141363666Y-74291043D01*
X141381288Y-74333586D01*
X141398837Y-74359849D01*
X141402535Y-74365383D01*
X141402538Y-74365389D01*
X141449741Y-74436032D01*
X141449744Y-74436036D01*
X141541186Y-74527478D01*
X141541208Y-74527498D01*
X143359316Y-76345606D01*
X143359345Y-76345637D01*
X143449563Y-76435855D01*
X143449567Y-76435858D01*
X143552007Y-76504307D01*
X143552016Y-76504312D01*
X143567583Y-76510760D01*
X143665848Y-76551463D01*
X143665850Y-76551463D01*
X143668815Y-76552363D01*
X143670178Y-76553256D01*
X143671476Y-76553794D01*
X143671374Y-76554039D01*
X143727255Y-76590659D01*
X143732088Y-76596713D01*
X143817452Y-76710744D01*
X143817455Y-76710747D01*
X143932664Y-76796993D01*
X143932671Y-76796997D01*
X143950563Y-76803670D01*
X144067517Y-76847291D01*
X144127127Y-76853700D01*
X144572872Y-76853699D01*
X144632483Y-76847291D01*
X144767331Y-76796996D01*
X144882546Y-76710746D01*
X144940831Y-76632888D01*
X144996765Y-76591018D01*
X145040097Y-76583200D01*
X147357808Y-76583200D01*
X147424847Y-76602885D01*
X147470602Y-76655689D01*
X147481808Y-76707200D01*
X147481808Y-81123900D01*
X147462123Y-81190939D01*
X147409319Y-81236694D01*
X147357810Y-81247900D01*
X147298830Y-81247900D01*
X147298823Y-81247901D01*
X147239216Y-81254308D01*
X147104371Y-81304602D01*
X147104364Y-81304606D01*
X146989155Y-81390852D01*
X146989152Y-81390855D01*
X146902906Y-81506064D01*
X146902902Y-81506071D01*
X146852608Y-81640917D01*
X146847539Y-81688069D01*
X146846201Y-81700523D01*
X146846200Y-81700535D01*
X146846200Y-82363748D01*
X146826515Y-82430787D01*
X146773711Y-82476542D01*
X146704553Y-82486486D01*
X146640997Y-82457461D01*
X146634519Y-82451429D01*
X146390918Y-82207828D01*
X146357433Y-82146505D01*
X146354599Y-82120147D01*
X146354599Y-81707629D01*
X146354598Y-81707623D01*
X146353933Y-81701440D01*
X146348191Y-81648017D01*
X146297896Y-81513169D01*
X146297893Y-81513164D01*
X146211647Y-81397955D01*
X146211644Y-81397952D01*
X146169822Y-81366644D01*
X146127951Y-81310710D01*
X146122967Y-81241019D01*
X146144867Y-81193067D01*
X146196650Y-81123893D01*
X146196654Y-81123886D01*
X146246896Y-80989179D01*
X146246898Y-80989172D01*
X146253299Y-80929644D01*
X146253300Y-80929627D01*
X146253300Y-80700000D01*
X145496300Y-80700000D01*
X145429261Y-80680315D01*
X145383506Y-80627511D01*
X145372300Y-80576000D01*
X145372300Y-80450000D01*
X145246300Y-80450000D01*
X145179261Y-80430315D01*
X145133506Y-80377511D01*
X145122300Y-80326000D01*
X145122300Y-80200000D01*
X145622300Y-80200000D01*
X146253300Y-80200000D01*
X146253300Y-79970372D01*
X146253299Y-79970355D01*
X146246898Y-79910827D01*
X146246896Y-79910820D01*
X146196654Y-79776113D01*
X146196650Y-79776106D01*
X146110490Y-79661012D01*
X146110487Y-79661009D01*
X145995393Y-79574849D01*
X145995386Y-79574845D01*
X145860679Y-79524603D01*
X145860672Y-79524601D01*
X145801144Y-79518200D01*
X145622300Y-79518200D01*
X145622300Y-80200000D01*
X145122300Y-80200000D01*
X145122300Y-79518200D01*
X144943455Y-79518200D01*
X144883927Y-79524601D01*
X144883916Y-79524603D01*
X144794046Y-79558123D01*
X144724355Y-79563107D01*
X144707381Y-79558123D01*
X144616187Y-79524110D01*
X144616180Y-79524108D01*
X144556583Y-79517701D01*
X144556581Y-79517700D01*
X144556573Y-79517700D01*
X144556564Y-79517700D01*
X143698829Y-79517700D01*
X143698823Y-79517701D01*
X143639213Y-79524109D01*
X143637488Y-79524517D01*
X143636108Y-79524443D01*
X143631504Y-79524938D01*
X143631423Y-79524191D01*
X143567719Y-79520776D01*
X143511047Y-79479908D01*
X143489898Y-79438435D01*
X143478619Y-79399614D01*
X143478618Y-79399610D01*
X143398170Y-79263580D01*
X143398168Y-79263578D01*
X143398165Y-79263574D01*
X143286425Y-79151834D01*
X143286416Y-79151827D01*
X143150390Y-79071382D01*
X143150385Y-79071380D01*
X142998633Y-79027292D01*
X142998620Y-79027290D01*
X142963170Y-79024500D01*
X142963163Y-79024500D01*
X141629753Y-79024500D01*
X141562714Y-79004815D01*
X141542072Y-78988181D01*
X141536585Y-78982694D01*
X141503100Y-78921371D01*
X141508084Y-78851679D01*
X141549956Y-78795746D01*
X141615420Y-78771329D01*
X141648458Y-78773395D01*
X141650993Y-78773900D01*
X141650994Y-78773900D01*
X143654139Y-78773900D01*
X143721178Y-78793585D01*
X143753405Y-78823588D01*
X143817455Y-78909147D01*
X143932664Y-78995393D01*
X143932671Y-78995397D01*
X143977618Y-79012161D01*
X144067517Y-79045691D01*
X144127127Y-79052100D01*
X144572872Y-79052099D01*
X144632483Y-79045691D01*
X144767331Y-78995396D01*
X144882546Y-78909146D01*
X144882547Y-78909144D01*
X144882549Y-78909143D01*
X144968793Y-78793935D01*
X144968792Y-78793935D01*
X144968796Y-78793931D01*
X145019091Y-78659083D01*
X145025500Y-78599473D01*
X145025499Y-77697328D01*
X145019091Y-77637717D01*
X145011486Y-77617328D01*
X144968797Y-77502871D01*
X144968793Y-77502864D01*
X144882547Y-77387655D01*
X144882544Y-77387652D01*
X144767335Y-77301406D01*
X144767328Y-77301402D01*
X144632486Y-77251110D01*
X144632485Y-77251109D01*
X144632483Y-77251109D01*
X144572873Y-77244700D01*
X144572863Y-77244700D01*
X144127129Y-77244700D01*
X144127123Y-77244701D01*
X144067516Y-77251108D01*
X143932671Y-77301402D01*
X143932664Y-77301406D01*
X143817455Y-77387652D01*
X143753405Y-77473212D01*
X143697471Y-77515082D01*
X143654139Y-77522900D01*
X142023052Y-77522900D01*
X141956013Y-77503215D01*
X141935371Y-77486581D01*
X141357350Y-76908560D01*
X141350060Y-76901270D01*
X141350058Y-76901267D01*
X141262933Y-76814142D01*
X141211709Y-76779915D01*
X141160486Y-76745688D01*
X141114445Y-76726617D01*
X141060044Y-76682778D01*
X141037978Y-76616484D01*
X141037899Y-76612109D01*
X141037899Y-76048128D01*
X141031491Y-75988517D01*
X141005312Y-75918330D01*
X141000329Y-75848640D01*
X141005314Y-75831664D01*
X141031491Y-75761482D01*
X141037900Y-75701872D01*
X141037899Y-75098127D01*
X141031491Y-75038516D01*
X141025547Y-75022580D01*
X140981197Y-74903670D01*
X140981193Y-74903663D01*
X140894947Y-74788454D01*
X140894944Y-74788451D01*
X140779735Y-74702205D01*
X140779728Y-74702201D01*
X140644882Y-74651907D01*
X140644883Y-74651907D01*
X140585283Y-74645500D01*
X140585281Y-74645499D01*
X140585273Y-74645499D01*
X140585264Y-74645499D01*
X139714829Y-74645499D01*
X139714823Y-74645500D01*
X139647504Y-74652737D01*
X139647354Y-74651349D01*
X139585922Y-74648058D01*
X139539491Y-74618801D01*
X139348550Y-74427860D01*
X139341260Y-74420570D01*
X139341258Y-74420567D01*
X139254133Y-74333442D01*
X139202909Y-74299215D01*
X139151686Y-74264988D01*
X139151683Y-74264986D01*
X139151680Y-74264985D01*
X139078003Y-74234468D01*
X139078001Y-74234467D01*
X139071192Y-74231647D01*
X139037852Y-74217837D01*
X138977429Y-74205818D01*
X138972706Y-74204878D01*
X138972704Y-74204878D01*
X138917010Y-74193800D01*
X138917007Y-74193800D01*
X138917006Y-74193800D01*
X138773167Y-74193800D01*
X138706128Y-74174115D01*
X138660373Y-74121311D01*
X138650429Y-74052153D01*
X138673900Y-73995489D01*
X138679512Y-73987992D01*
X138699396Y-73961431D01*
X138749691Y-73826583D01*
X138756100Y-73766973D01*
X138756100Y-73766944D01*
X139203900Y-73766944D01*
X139210301Y-73826472D01*
X139210303Y-73826479D01*
X139260545Y-73961186D01*
X139260549Y-73961193D01*
X139346709Y-74076287D01*
X139346712Y-74076290D01*
X139461806Y-74162450D01*
X139461813Y-74162454D01*
X139596520Y-74212696D01*
X139596527Y-74212698D01*
X139656055Y-74219099D01*
X139656072Y-74219100D01*
X139809500Y-74219100D01*
X139809500Y-73550000D01*
X139203900Y-73550000D01*
X139203900Y-73766944D01*
X138756100Y-73766944D01*
X138756099Y-73300000D01*
X138756099Y-72833055D01*
X139203900Y-72833055D01*
X139203900Y-73050000D01*
X139809500Y-73050000D01*
X139809500Y-72380900D01*
X139656055Y-72380900D01*
X139596527Y-72387301D01*
X139596520Y-72387303D01*
X139461813Y-72437545D01*
X139461806Y-72437549D01*
X139346712Y-72523709D01*
X139346709Y-72523712D01*
X139260549Y-72638806D01*
X139260545Y-72638813D01*
X139210303Y-72773520D01*
X139210301Y-72773527D01*
X139203900Y-72833055D01*
X138756099Y-72833055D01*
X138756099Y-72833029D01*
X138756098Y-72833023D01*
X138753730Y-72810997D01*
X138749691Y-72773417D01*
X138747002Y-72766208D01*
X138699397Y-72638571D01*
X138699396Y-72638569D01*
X138608333Y-72516925D01*
X138583916Y-72451461D01*
X138583600Y-72442614D01*
X138583600Y-71295107D01*
X138603285Y-71228068D01*
X138608334Y-71220796D01*
X138681293Y-71123335D01*
X138681292Y-71123335D01*
X138681296Y-71123331D01*
X138731591Y-70988483D01*
X138738000Y-70928873D01*
X138738000Y-70928844D01*
X139132500Y-70928844D01*
X139138901Y-70988372D01*
X139138903Y-70988379D01*
X139189145Y-71123086D01*
X139189149Y-71123093D01*
X139275309Y-71238187D01*
X139275312Y-71238190D01*
X139390406Y-71324350D01*
X139390413Y-71324354D01*
X139525120Y-71374596D01*
X139525127Y-71374598D01*
X139584655Y-71380999D01*
X139584672Y-71381000D01*
X139661900Y-71381000D01*
X139661900Y-70750000D01*
X139132500Y-70750000D01*
X139132500Y-70928844D01*
X138738000Y-70928844D01*
X138737999Y-70411309D01*
X138737999Y-70071155D01*
X139132500Y-70071155D01*
X139132500Y-70250000D01*
X139661900Y-70250000D01*
X139661900Y-69619000D01*
X139584655Y-69619000D01*
X139525127Y-69625401D01*
X139525120Y-69625403D01*
X139390413Y-69675645D01*
X139390406Y-69675649D01*
X139275312Y-69761809D01*
X139275309Y-69761812D01*
X139189149Y-69876906D01*
X139189145Y-69876913D01*
X139138903Y-70011620D01*
X139138901Y-70011627D01*
X139132500Y-70071155D01*
X138737999Y-70071155D01*
X138737999Y-70071129D01*
X138737998Y-70071123D01*
X138731591Y-70011516D01*
X138681297Y-69876671D01*
X138681293Y-69876664D01*
X138595047Y-69761455D01*
X138595044Y-69761452D01*
X138479835Y-69675206D01*
X138479828Y-69675202D01*
X138344986Y-69624910D01*
X138344985Y-69624909D01*
X138344983Y-69624909D01*
X138285373Y-69618500D01*
X138285363Y-69618500D01*
X137630829Y-69618500D01*
X137630823Y-69618501D01*
X137571216Y-69624908D01*
X137436371Y-69675202D01*
X137436365Y-69675206D01*
X137358893Y-69733201D01*
X137293429Y-69757618D01*
X137225156Y-69742766D01*
X137210272Y-69733201D01*
X137133389Y-69675647D01*
X137133386Y-69675645D01*
X136998679Y-69625403D01*
X136998672Y-69625401D01*
X136939144Y-69619000D01*
X136861900Y-69619000D01*
X136861900Y-71381000D01*
X136939128Y-71381000D01*
X136939144Y-71380999D01*
X136998672Y-71374598D01*
X136998679Y-71374596D01*
X137133386Y-71324354D01*
X137133390Y-71324352D01*
X137134287Y-71323681D01*
X137135336Y-71323289D01*
X137141172Y-71320103D01*
X137141630Y-71320941D01*
X137199751Y-71299262D01*
X137268024Y-71314112D01*
X137317431Y-71363517D01*
X137332600Y-71422946D01*
X137332600Y-72264846D01*
X137330972Y-72273026D01*
X137331889Y-72278109D01*
X137323158Y-72312306D01*
X137321430Y-72316477D01*
X137277585Y-72370878D01*
X137211290Y-72392938D01*
X137177127Y-72387403D01*
X137176730Y-72389087D01*
X137169172Y-72387301D01*
X137109644Y-72380900D01*
X136956200Y-72380900D01*
X136956200Y-73176000D01*
X136936515Y-73243039D01*
X136883711Y-73288794D01*
X136832200Y-73300000D01*
X136706200Y-73300000D01*
X136706200Y-73426000D01*
X136686515Y-73493039D01*
X136633711Y-73538794D01*
X136582200Y-73550000D01*
X135850600Y-73550000D01*
X135850600Y-73618800D01*
X135830915Y-73685839D01*
X135778111Y-73731594D01*
X135726600Y-73742800D01*
X135160763Y-73742800D01*
X135093724Y-73723115D01*
X135047969Y-73670311D01*
X135038025Y-73601153D01*
X135067050Y-73537597D01*
X135097642Y-73512068D01*
X135151552Y-73480185D01*
X135151561Y-73480178D01*
X135267678Y-73364061D01*
X135267685Y-73364052D01*
X135351282Y-73222696D01*
X135351283Y-73222693D01*
X135397099Y-73064995D01*
X135397100Y-73064989D01*
X135399999Y-73028149D01*
X135400000Y-73028134D01*
X135400000Y-72833055D01*
X135850600Y-72833055D01*
X135850600Y-73050000D01*
X136456200Y-73050000D01*
X136456200Y-72380900D01*
X136302755Y-72380900D01*
X136243227Y-72387301D01*
X136243220Y-72387303D01*
X136108513Y-72437545D01*
X136108506Y-72437549D01*
X135993412Y-72523709D01*
X135993409Y-72523712D01*
X135907249Y-72638806D01*
X135907245Y-72638813D01*
X135857003Y-72773520D01*
X135857001Y-72773527D01*
X135850600Y-72833055D01*
X135400000Y-72833055D01*
X135400000Y-72625000D01*
X133800000Y-72625000D01*
X133800000Y-73028149D01*
X133802899Y-73064989D01*
X133802900Y-73064995D01*
X133848716Y-73222693D01*
X133848717Y-73222696D01*
X133932314Y-73364052D01*
X133932321Y-73364061D01*
X134048438Y-73480178D01*
X134048447Y-73480185D01*
X134102358Y-73512068D01*
X134150042Y-73563137D01*
X134162545Y-73631879D01*
X134135899Y-73696468D01*
X134078564Y-73736398D01*
X134039237Y-73742800D01*
X133261744Y-73742800D01*
X133194705Y-73723115D01*
X133148950Y-73670311D01*
X133139006Y-73601153D01*
X133168031Y-73537597D01*
X133198623Y-73512068D01*
X133251865Y-73480581D01*
X133368081Y-73364365D01*
X133451744Y-73222898D01*
X133485505Y-73106691D01*
X133497597Y-73065073D01*
X133497598Y-73065067D01*
X133500499Y-73028201D01*
X133500500Y-73028194D01*
X133500500Y-71862000D01*
X133503050Y-71853314D01*
X133501762Y-71844353D01*
X133512740Y-71820312D01*
X133520185Y-71794961D01*
X133527025Y-71789033D01*
X133530787Y-71780797D01*
X133553021Y-71766507D01*
X133572989Y-71749206D01*
X133583503Y-71746918D01*
X133589565Y-71743023D01*
X133624500Y-71738000D01*
X133676000Y-71738000D01*
X133743039Y-71757685D01*
X133788794Y-71810489D01*
X133800000Y-71862000D01*
X133800000Y-72125000D01*
X134350000Y-72125000D01*
X134850000Y-72125000D01*
X135400000Y-72125000D01*
X135400000Y-71721865D01*
X135399999Y-71721850D01*
X135397100Y-71685010D01*
X135397099Y-71685004D01*
X135351283Y-71527306D01*
X135351282Y-71527303D01*
X135267685Y-71385947D01*
X135267678Y-71385938D01*
X135151561Y-71269821D01*
X135151552Y-71269814D01*
X135010196Y-71186217D01*
X135010193Y-71186216D01*
X134852494Y-71140400D01*
X134852497Y-71140400D01*
X134850000Y-71140203D01*
X134850000Y-72125000D01*
X134350000Y-72125000D01*
X134350000Y-71469314D01*
X134367267Y-71406194D01*
X134401744Y-71347898D01*
X134438671Y-71220796D01*
X134447597Y-71190073D01*
X134447598Y-71190067D01*
X134447937Y-71185756D01*
X134450500Y-71153194D01*
X134450500Y-70945207D01*
X134453755Y-70928844D01*
X135832500Y-70928844D01*
X135838901Y-70988372D01*
X135838903Y-70988379D01*
X135889145Y-71123086D01*
X135889149Y-71123093D01*
X135975309Y-71238187D01*
X135975312Y-71238190D01*
X136090406Y-71324350D01*
X136090413Y-71324354D01*
X136225120Y-71374596D01*
X136225127Y-71374598D01*
X136284655Y-71380999D01*
X136284672Y-71381000D01*
X136361900Y-71381000D01*
X136361900Y-70750000D01*
X135832500Y-70750000D01*
X135832500Y-70928844D01*
X134453755Y-70928844D01*
X134459939Y-70897755D01*
X134515892Y-70762670D01*
X134515894Y-70762666D01*
X134519183Y-70746128D01*
X134533443Y-70674446D01*
X134533443Y-70674445D01*
X134550499Y-70588695D01*
X134550500Y-70588693D01*
X134550500Y-70411306D01*
X134550499Y-70411304D01*
X134515896Y-70237341D01*
X134515893Y-70237332D01*
X134465348Y-70115303D01*
X134465348Y-70115302D01*
X134459940Y-70102247D01*
X134453755Y-70071155D01*
X135832500Y-70071155D01*
X135832500Y-70250000D01*
X136361900Y-70250000D01*
X136361900Y-69619000D01*
X136284655Y-69619000D01*
X136225127Y-69625401D01*
X136225120Y-69625403D01*
X136090413Y-69675645D01*
X136090406Y-69675649D01*
X135975312Y-69761809D01*
X135975309Y-69761812D01*
X135889149Y-69876906D01*
X135889145Y-69876913D01*
X135838903Y-70011620D01*
X135838901Y-70011627D01*
X135832500Y-70071155D01*
X134453755Y-70071155D01*
X134450500Y-70054793D01*
X134450500Y-69846813D01*
X134450499Y-69846798D01*
X134447598Y-69809932D01*
X134447597Y-69809926D01*
X134408585Y-69675649D01*
X134401744Y-69652102D01*
X134318081Y-69510635D01*
X134318079Y-69510633D01*
X134318076Y-69510629D01*
X134201870Y-69394423D01*
X134201862Y-69394417D01*
X134060396Y-69310755D01*
X134060393Y-69310754D01*
X133902573Y-69264902D01*
X133902567Y-69264901D01*
X133865701Y-69262000D01*
X133865694Y-69262000D01*
X133434306Y-69262000D01*
X133434298Y-69262000D01*
X133397432Y-69264901D01*
X133397426Y-69264902D01*
X133239606Y-69310754D01*
X133239603Y-69310755D01*
X133098137Y-69394417D01*
X133098129Y-69394423D01*
X132981923Y-69510629D01*
X132981917Y-69510637D01*
X132898255Y-69652103D01*
X132898254Y-69652106D01*
X132852402Y-69809926D01*
X132852401Y-69809932D01*
X132849500Y-69846798D01*
X132849500Y-70054793D01*
X132840061Y-70102245D01*
X132784106Y-70237332D01*
X132784103Y-70237341D01*
X132749500Y-70411304D01*
X132749500Y-70588695D01*
X132784104Y-70762658D01*
X132784107Y-70762670D01*
X132840061Y-70897755D01*
X132841687Y-70905931D01*
X132844477Y-70910272D01*
X132849500Y-70945207D01*
X132849500Y-71013000D01*
X132829815Y-71080039D01*
X132777011Y-71125794D01*
X132725500Y-71137000D01*
X132484298Y-71137000D01*
X132447432Y-71139901D01*
X132447426Y-71139902D01*
X132289606Y-71185754D01*
X132289603Y-71185755D01*
X132148137Y-71269417D01*
X132148129Y-71269423D01*
X132031923Y-71385629D01*
X132031917Y-71385637D01*
X131948255Y-71527103D01*
X131948254Y-71527106D01*
X131902402Y-71684926D01*
X131902401Y-71684932D01*
X131899500Y-71721798D01*
X131899500Y-72239548D01*
X131879815Y-72306587D01*
X131863181Y-72327229D01*
X130309929Y-73880481D01*
X130248606Y-73913966D01*
X130222248Y-73916800D01*
X130192189Y-73916800D01*
X130071355Y-73940835D01*
X130071345Y-73940838D01*
X129957516Y-73987987D01*
X129957507Y-73987992D01*
X129855067Y-74056441D01*
X129855063Y-74056444D01*
X129767944Y-74143563D01*
X129767941Y-74143567D01*
X129699492Y-74246007D01*
X129699487Y-74246016D01*
X129663215Y-74333586D01*
X129652337Y-74359848D01*
X129649341Y-74374909D01*
X129629598Y-74474165D01*
X129607248Y-74524285D01*
X129530604Y-74626668D01*
X129530602Y-74626671D01*
X129480308Y-74761517D01*
X129473901Y-74821116D01*
X129473900Y-74821135D01*
X129473900Y-75678870D01*
X129473901Y-75678876D01*
X129480308Y-75738483D01*
X129530602Y-75873328D01*
X129530606Y-75873335D01*
X129616852Y-75988544D01*
X129616855Y-75988547D01*
X129732064Y-76074793D01*
X129732071Y-76074797D01*
X129777018Y-76091561D01*
X129866917Y-76125091D01*
X129926527Y-76131500D01*
X130581072Y-76131499D01*
X130640683Y-76125091D01*
X130775531Y-76074796D01*
X130776186Y-76074306D01*
X130776950Y-76074020D01*
X130783314Y-76070546D01*
X130783813Y-76071460D01*
X130841650Y-76049886D01*
X130909923Y-76064736D01*
X130959330Y-76114139D01*
X130974500Y-76173570D01*
X130974500Y-76738393D01*
X130974500Y-76861607D01*
X130974500Y-76861609D01*
X130974499Y-76861609D01*
X130982304Y-76900843D01*
X130982307Y-76900857D01*
X130982876Y-76903715D01*
X130998537Y-76982452D01*
X131005030Y-76998128D01*
X131008580Y-77006700D01*
X131008582Y-77006705D01*
X131045684Y-77096278D01*
X131045687Y-77096285D01*
X131059898Y-77117551D01*
X131059899Y-77117554D01*
X131075402Y-77140756D01*
X131096280Y-77207433D01*
X131096300Y-77209645D01*
X131096300Y-77422869D01*
X131096301Y-77422876D01*
X131102708Y-77482483D01*
X131153002Y-77617328D01*
X131153006Y-77617335D01*
X131239252Y-77732544D01*
X131239255Y-77732547D01*
X131354464Y-77818793D01*
X131354471Y-77818797D01*
X131489317Y-77869091D01*
X131489316Y-77869091D01*
X131496244Y-77869835D01*
X131548927Y-77875500D01*
X132451072Y-77875499D01*
X132510683Y-77869091D01*
X132512043Y-77868583D01*
X132513175Y-77868502D01*
X132518231Y-77867308D01*
X132518424Y-77868126D01*
X132581731Y-77863593D01*
X132643057Y-77897072D01*
X132676548Y-77958392D01*
X132671570Y-78028084D01*
X132643065Y-78072443D01*
X132158727Y-78556781D01*
X132097404Y-78590266D01*
X132071046Y-78593100D01*
X131696630Y-78593100D01*
X131696623Y-78593101D01*
X131637016Y-78599508D01*
X131502171Y-78649802D01*
X131502164Y-78649806D01*
X131379855Y-78741368D01*
X131378915Y-78740113D01*
X131326358Y-78768812D01*
X131256666Y-78763828D01*
X131220656Y-78740685D01*
X131220145Y-78741368D01*
X131097835Y-78649806D01*
X131097828Y-78649802D01*
X130962982Y-78599508D01*
X130962983Y-78599508D01*
X130903383Y-78593101D01*
X130903381Y-78593100D01*
X130903373Y-78593100D01*
X130903365Y-78593100D01*
X130551100Y-78593100D01*
X130484061Y-78573415D01*
X130438306Y-78520611D01*
X130427100Y-78469100D01*
X130427100Y-77895860D01*
X130446785Y-77828821D01*
X130476785Y-77796596D01*
X130562346Y-77732546D01*
X130648596Y-77617331D01*
X130698891Y-77482483D01*
X130705300Y-77422873D01*
X130705299Y-76977128D01*
X130698891Y-76917517D01*
X130695550Y-76908560D01*
X130648597Y-76782671D01*
X130648593Y-76782664D01*
X130562347Y-76667455D01*
X130562344Y-76667452D01*
X130447135Y-76581206D01*
X130447128Y-76581202D01*
X130312282Y-76530908D01*
X130312283Y-76530908D01*
X130252683Y-76524501D01*
X130252681Y-76524500D01*
X130252673Y-76524500D01*
X130252664Y-76524500D01*
X129350529Y-76524500D01*
X129350523Y-76524501D01*
X129290916Y-76530908D01*
X129285579Y-76532170D01*
X129215809Y-76528427D01*
X129182758Y-76510760D01*
X129173334Y-76503706D01*
X129173328Y-76503702D01*
X129038482Y-76453408D01*
X129038483Y-76453408D01*
X128978883Y-76447001D01*
X128978881Y-76447000D01*
X128978873Y-76447000D01*
X128978865Y-76447000D01*
X128706052Y-76447000D01*
X128676611Y-76438355D01*
X128646625Y-76431832D01*
X128641609Y-76428077D01*
X128639013Y-76427315D01*
X128618371Y-76410681D01*
X128616828Y-76409138D01*
X128616826Y-76409135D01*
X128616825Y-76409134D01*
X128616825Y-76409135D01*
X128609758Y-76402068D01*
X128609758Y-76402067D01*
X128522633Y-76314942D01*
X128522632Y-76314941D01*
X128522631Y-76314940D01*
X128477225Y-76284601D01*
X128477224Y-76284600D01*
X128471409Y-76280715D01*
X128420186Y-76246488D01*
X128339692Y-76213147D01*
X128324357Y-76206795D01*
X128306353Y-76199337D01*
X128296327Y-76197343D01*
X128245929Y-76187318D01*
X128185510Y-76175300D01*
X128185507Y-76175300D01*
X128185506Y-76175300D01*
X127245861Y-76175300D01*
X127178822Y-76155615D01*
X127146595Y-76125612D01*
X127125706Y-76097709D01*
X127082546Y-76040054D01*
X127082544Y-76040053D01*
X127082544Y-76040052D01*
X126967335Y-75953806D01*
X126967328Y-75953802D01*
X126832486Y-75903510D01*
X126832485Y-75903509D01*
X126832483Y-75903509D01*
X126772873Y-75897100D01*
X126772863Y-75897100D01*
X126327129Y-75897100D01*
X126327123Y-75897101D01*
X126267516Y-75903508D01*
X126132671Y-75953802D01*
X126132664Y-75953806D01*
X126017455Y-76040052D01*
X126017452Y-76040055D01*
X125931206Y-76155264D01*
X125931202Y-76155271D01*
X125880908Y-76290117D01*
X125874501Y-76349716D01*
X125874500Y-76349735D01*
X125874500Y-77251870D01*
X125874501Y-77251876D01*
X125880908Y-77311483D01*
X125931202Y-77446328D01*
X125931206Y-77446335D01*
X126017452Y-77561544D01*
X126017455Y-77561547D01*
X126132664Y-77647793D01*
X126132671Y-77647797D01*
X126177618Y-77664561D01*
X126267517Y-77698091D01*
X126327127Y-77704500D01*
X126772872Y-77704499D01*
X126832483Y-77698091D01*
X126967331Y-77647796D01*
X127082546Y-77561546D01*
X127139205Y-77485860D01*
X127146595Y-77475988D01*
X127202529Y-77434118D01*
X127245861Y-77426300D01*
X127544501Y-77426300D01*
X127611540Y-77445985D01*
X127657295Y-77498789D01*
X127668501Y-77550300D01*
X127668501Y-77554176D01*
X127674908Y-77613783D01*
X127725202Y-77748628D01*
X127725206Y-77748635D01*
X127811452Y-77863844D01*
X127811455Y-77863847D01*
X127926664Y-77950093D01*
X127926671Y-77950097D01*
X127971618Y-77966861D01*
X128061517Y-78000391D01*
X128083657Y-78002771D01*
X128148205Y-78029508D01*
X128188054Y-78086900D01*
X128194400Y-78126060D01*
X128194400Y-78242900D01*
X128905600Y-78242900D01*
X128905600Y-78126060D01*
X128906246Y-78123857D01*
X128905679Y-78121634D01*
X128916042Y-78090495D01*
X128925285Y-78059021D01*
X128927018Y-78057518D01*
X128927744Y-78055340D01*
X128953304Y-78034741D01*
X128978089Y-78013266D01*
X128980917Y-78012490D01*
X128982147Y-78011499D01*
X129016339Y-78002771D01*
X129038483Y-78000391D01*
X129038487Y-78000389D01*
X129038845Y-78000351D01*
X129107605Y-78012757D01*
X129158742Y-78060368D01*
X129176100Y-78123641D01*
X129176100Y-78740093D01*
X129176100Y-78863307D01*
X129176100Y-78863309D01*
X129176099Y-78863309D01*
X129184387Y-78904974D01*
X129184391Y-78904989D01*
X129185218Y-78909146D01*
X129200137Y-78984152D01*
X129213655Y-79016786D01*
X129216693Y-79024120D01*
X129216695Y-79024128D01*
X129247285Y-79097980D01*
X129247290Y-79097989D01*
X129273356Y-79136998D01*
X129273357Y-79137000D01*
X129315740Y-79200431D01*
X129315741Y-79200432D01*
X129315742Y-79200433D01*
X129402867Y-79287558D01*
X129402868Y-79287558D01*
X129409935Y-79294625D01*
X129409934Y-79294625D01*
X129409938Y-79294628D01*
X129607481Y-79492171D01*
X129640966Y-79553494D01*
X129643800Y-79579852D01*
X129643800Y-79954269D01*
X129643801Y-79954276D01*
X129650208Y-80013883D01*
X129700502Y-80148728D01*
X129700506Y-80148735D01*
X129786752Y-80263944D01*
X129786755Y-80263947D01*
X129901964Y-80350193D01*
X129901971Y-80350197D01*
X130036817Y-80400491D01*
X130036816Y-80400491D01*
X130043744Y-80401235D01*
X130096427Y-80406900D01*
X130903372Y-80406899D01*
X130962983Y-80400491D01*
X131097831Y-80350196D01*
X131213046Y-80263946D01*
X131213045Y-80263946D01*
X131220145Y-80258632D01*
X131221084Y-80259886D01*
X131273642Y-80231188D01*
X131343334Y-80236172D01*
X131379343Y-80259314D01*
X131379855Y-80258632D01*
X131502164Y-80350193D01*
X131502171Y-80350197D01*
X131637017Y-80400491D01*
X131637016Y-80400491D01*
X131643944Y-80401235D01*
X131696627Y-80406900D01*
X132503572Y-80406899D01*
X132563183Y-80400491D01*
X132698031Y-80350196D01*
X132813246Y-80263946D01*
X132899496Y-80148731D01*
X132949791Y-80013883D01*
X132956200Y-79954273D01*
X132956199Y-79579850D01*
X132975883Y-79512812D01*
X132992513Y-79492175D01*
X133216820Y-79267869D01*
X133278142Y-79234385D01*
X133347834Y-79239369D01*
X133403767Y-79281241D01*
X133428184Y-79346705D01*
X133428500Y-79355551D01*
X133428500Y-80805510D01*
X133432124Y-80823732D01*
X133452535Y-80926345D01*
X133452538Y-80926355D01*
X133458317Y-80940308D01*
X133458324Y-80940325D01*
X133459409Y-80942942D01*
X133499688Y-81040186D01*
X133517959Y-81067530D01*
X133521934Y-81076008D01*
X133525884Y-81101664D01*
X133533639Y-81126431D01*
X133531114Y-81135632D01*
X133532567Y-81145064D01*
X133522020Y-81168780D01*
X133515154Y-81193811D01*
X133508054Y-81200187D01*
X133504178Y-81208906D01*
X133482483Y-81223156D01*
X133463175Y-81240500D01*
X133453757Y-81242026D01*
X133445780Y-81247266D01*
X133419822Y-81247524D01*
X133394205Y-81251676D01*
X133378971Y-81247932D01*
X133375913Y-81247963D01*
X133373870Y-81246678D01*
X133366326Y-81244825D01*
X133310782Y-81224108D01*
X133310783Y-81224108D01*
X133251183Y-81217701D01*
X133251181Y-81217700D01*
X133251173Y-81217700D01*
X133251164Y-81217700D01*
X132393429Y-81217700D01*
X132393423Y-81217701D01*
X132333815Y-81224109D01*
X132242617Y-81258123D01*
X132172926Y-81263107D01*
X132155952Y-81258123D01*
X132066080Y-81224603D01*
X132066072Y-81224601D01*
X132006544Y-81218200D01*
X131827700Y-81218200D01*
X131827700Y-83081800D01*
X132006528Y-83081800D01*
X132006541Y-83081799D01*
X132059543Y-83076100D01*
X132128302Y-83088504D01*
X132179441Y-83136113D01*
X132196800Y-83199389D01*
X132196800Y-83425179D01*
X132205250Y-83467666D01*
X132212276Y-83502986D01*
X132212276Y-83502988D01*
X132220649Y-83545084D01*
X132220837Y-83546025D01*
X132267988Y-83659860D01*
X132269504Y-83662129D01*
X132291793Y-83695487D01*
X132291795Y-83695490D01*
X132296032Y-83701830D01*
X132336442Y-83762307D01*
X132423567Y-83849432D01*
X132423570Y-83849434D01*
X132431142Y-83857006D01*
X132653955Y-84079819D01*
X132687440Y-84141142D01*
X132682456Y-84210834D01*
X132640584Y-84266767D01*
X132575120Y-84291184D01*
X132566274Y-84291500D01*
X130626999Y-84291500D01*
X130559960Y-84271815D01*
X130514205Y-84219011D01*
X130502999Y-84167500D01*
X130502999Y-84091020D01*
X130504625Y-84082844D01*
X130503709Y-84077767D01*
X130512437Y-84043569D01*
X130537650Y-83982697D01*
X130537651Y-83982694D01*
X130537652Y-83982692D01*
X130551463Y-83949352D01*
X130551465Y-83949342D01*
X130568608Y-83863161D01*
X130575500Y-83828507D01*
X130575500Y-83423690D01*
X130595185Y-83356651D01*
X130647989Y-83310896D01*
X130656167Y-83307508D01*
X130742328Y-83275372D01*
X130742327Y-83275372D01*
X130742331Y-83275371D01*
X130857546Y-83189121D01*
X130919060Y-83106947D01*
X130974992Y-83065079D01*
X131044683Y-83060095D01*
X131061660Y-83065080D01*
X131089321Y-83075397D01*
X131148855Y-83081799D01*
X131148872Y-83081800D01*
X131327700Y-83081800D01*
X131327700Y-81218200D01*
X131148855Y-81218200D01*
X131089327Y-81224601D01*
X131089319Y-81224603D01*
X131024702Y-81248704D01*
X130955010Y-81253688D01*
X130893687Y-81220203D01*
X130882102Y-81206832D01*
X130858580Y-81175411D01*
X130857546Y-81174029D01*
X130857545Y-81174028D01*
X130857544Y-81174027D01*
X130742335Y-81087781D01*
X130742328Y-81087777D01*
X130607482Y-81037483D01*
X130607483Y-81037483D01*
X130547883Y-81031076D01*
X130547881Y-81031075D01*
X130547873Y-81031075D01*
X130547864Y-81031075D01*
X129352129Y-81031075D01*
X129352123Y-81031076D01*
X129292516Y-81037483D01*
X129157671Y-81087777D01*
X129157664Y-81087781D01*
X129042455Y-81174027D01*
X128999266Y-81231720D01*
X128943332Y-81273590D01*
X128873640Y-81278574D01*
X128812317Y-81245088D01*
X128800734Y-81231720D01*
X128770205Y-81190939D01*
X128757546Y-81174029D01*
X128757544Y-81174028D01*
X128757544Y-81174027D01*
X128642335Y-81087781D01*
X128642328Y-81087777D01*
X128507482Y-81037483D01*
X128507483Y-81037483D01*
X128447883Y-81031076D01*
X128447881Y-81031075D01*
X128447873Y-81031075D01*
X128447864Y-81031075D01*
X127252129Y-81031075D01*
X127252123Y-81031076D01*
X127192516Y-81037483D01*
X127057671Y-81087777D01*
X127057664Y-81087781D01*
X126942455Y-81174027D01*
X126942452Y-81174030D01*
X126856206Y-81289239D01*
X126856202Y-81289246D01*
X126805908Y-81424092D01*
X126799501Y-81483691D01*
X126799500Y-81483710D01*
X126799500Y-82879445D01*
X126799501Y-82879451D01*
X126805908Y-82939058D01*
X126856202Y-83073903D01*
X126856206Y-83073910D01*
X126942452Y-83189119D01*
X126942455Y-83189122D01*
X127057664Y-83275368D01*
X127057671Y-83275372D01*
X127102618Y-83292136D01*
X127192517Y-83325666D01*
X127252127Y-83332075D01*
X127489430Y-83332074D01*
X127556469Y-83351758D01*
X127602224Y-83404562D01*
X127612168Y-83473721D01*
X127605615Y-83499399D01*
X127603409Y-83505313D01*
X127603408Y-83505316D01*
X127597001Y-83564916D01*
X127597000Y-83564935D01*
X127597000Y-84422670D01*
X127597001Y-84422676D01*
X127603408Y-84482283D01*
X127653702Y-84617128D01*
X127653703Y-84617129D01*
X127653704Y-84617131D01*
X127710030Y-84692373D01*
X127745269Y-84739446D01*
X127744761Y-84739825D01*
X127765052Y-84769605D01*
X127770382Y-84781844D01*
X127775437Y-84807251D01*
X127822588Y-84921086D01*
X127840686Y-84948170D01*
X127846844Y-84957387D01*
X127846846Y-84957390D01*
X127891038Y-85023528D01*
X127891044Y-85023536D01*
X127982486Y-85114978D01*
X127982508Y-85114998D01*
X128180116Y-85312606D01*
X128180145Y-85312637D01*
X128270363Y-85402855D01*
X128270367Y-85402858D01*
X128372807Y-85471307D01*
X128372811Y-85471309D01*
X128372814Y-85471311D01*
X128486648Y-85518463D01*
X128547071Y-85530481D01*
X128607493Y-85542500D01*
X128607494Y-85542500D01*
X133100500Y-85542500D01*
X133167539Y-85562185D01*
X133213294Y-85614989D01*
X133224500Y-85666500D01*
X133224500Y-91900500D01*
X133204815Y-91967539D01*
X133152011Y-92013294D01*
X133100504Y-92024500D01*
X133075000Y-92024500D01*
X133074980Y-92024501D01*
X132972203Y-92035000D01*
X132972200Y-92035001D01*
X132805668Y-92090185D01*
X132805663Y-92090187D01*
X132656342Y-92182289D01*
X132532289Y-92306342D01*
X132440187Y-92455663D01*
X132440185Y-92455668D01*
X132382872Y-92628629D01*
X132381167Y-92628064D01*
X132352140Y-92681630D01*
X132290923Y-92715310D01*
X132221216Y-92710547D01*
X132176499Y-92681909D01*
X130485371Y-90990781D01*
X130451886Y-90929458D01*
X130456870Y-90859766D01*
X130498742Y-90803833D01*
X130530965Y-90788813D01*
X130530215Y-90786802D01*
X130672328Y-90733797D01*
X130672327Y-90733797D01*
X130672331Y-90733796D01*
X130787546Y-90647546D01*
X130873796Y-90532331D01*
X130924091Y-90397483D01*
X130930500Y-90337873D01*
X130930499Y-89262128D01*
X130924091Y-89202517D01*
X130873796Y-89067669D01*
X130873795Y-89067668D01*
X130873793Y-89067664D01*
X130787547Y-88952455D01*
X130675188Y-88868342D01*
X130672451Y-88864686D01*
X130668297Y-88862789D01*
X130651705Y-88836971D01*
X130633318Y-88812408D01*
X130632302Y-88806780D01*
X130630523Y-88804011D01*
X130625500Y-88769076D01*
X130625500Y-88680923D01*
X130645185Y-88613884D01*
X130675187Y-88581657D01*
X130787546Y-88497546D01*
X130873796Y-88382331D01*
X130924091Y-88247483D01*
X130930500Y-88187873D01*
X130930499Y-87112128D01*
X130924091Y-87052517D01*
X130913641Y-87024500D01*
X130873797Y-86917671D01*
X130873793Y-86917664D01*
X130787547Y-86802455D01*
X130787544Y-86802452D01*
X130672335Y-86716206D01*
X130672328Y-86716202D01*
X130537482Y-86665908D01*
X130537483Y-86665908D01*
X130477883Y-86659501D01*
X130477881Y-86659500D01*
X130477873Y-86659500D01*
X130477864Y-86659500D01*
X129522129Y-86659500D01*
X129522123Y-86659501D01*
X129462516Y-86665908D01*
X129327671Y-86716202D01*
X129327665Y-86716205D01*
X129309309Y-86729947D01*
X129243844Y-86754363D01*
X129175571Y-86739510D01*
X129160691Y-86729947D01*
X129142334Y-86716205D01*
X129142328Y-86716202D01*
X129007482Y-86665908D01*
X129007483Y-86665908D01*
X128947883Y-86659501D01*
X128947881Y-86659500D01*
X128947873Y-86659500D01*
X128947864Y-86659500D01*
X127992129Y-86659500D01*
X127992123Y-86659501D01*
X127932516Y-86665908D01*
X127797671Y-86716202D01*
X127797664Y-86716206D01*
X127682455Y-86802452D01*
X127682452Y-86802455D01*
X127596206Y-86917664D01*
X127596202Y-86917671D01*
X127545908Y-87052517D01*
X127539501Y-87112116D01*
X127539500Y-87112128D01*
X127539500Y-87644545D01*
X127530855Y-87673985D01*
X127524332Y-87703972D01*
X127520577Y-87708987D01*
X127519815Y-87711584D01*
X127503181Y-87732226D01*
X127473826Y-87761581D01*
X127412503Y-87795066D01*
X127386145Y-87797900D01*
X126671129Y-87797900D01*
X126671123Y-87797901D01*
X126611514Y-87804309D01*
X126521032Y-87838056D01*
X126451340Y-87843040D01*
X126434368Y-87838056D01*
X126343885Y-87804309D01*
X126343883Y-87804308D01*
X126284283Y-87797901D01*
X126284281Y-87797900D01*
X126284273Y-87797900D01*
X126284264Y-87797900D01*
X125426529Y-87797900D01*
X125426523Y-87797901D01*
X125366916Y-87804308D01*
X125232071Y-87854602D01*
X125232064Y-87854606D01*
X125116855Y-87940852D01*
X125116852Y-87940855D01*
X125030606Y-88056064D01*
X125030602Y-88056071D01*
X124980308Y-88190917D01*
X124975940Y-88231552D01*
X124973901Y-88250523D01*
X124973900Y-88250535D01*
X124973900Y-89209870D01*
X124973901Y-89209876D01*
X124980308Y-89269483D01*
X125030602Y-89404328D01*
X125030606Y-89404335D01*
X125116852Y-89519544D01*
X125116855Y-89519547D01*
X125232064Y-89605793D01*
X125232071Y-89605797D01*
X125263068Y-89617358D01*
X125366917Y-89656091D01*
X125426527Y-89662500D01*
X125698955Y-89662499D01*
X125765994Y-89682183D01*
X125786636Y-89698818D01*
X126286547Y-90198729D01*
X126286550Y-90198733D01*
X126291784Y-90203967D01*
X126300140Y-90212324D01*
X126315221Y-90239946D01*
X126333620Y-90273642D01*
X126333619Y-90273644D01*
X126333622Y-90273649D01*
X126331714Y-90300299D01*
X126328636Y-90343334D01*
X126328633Y-90343337D01*
X126328633Y-90343341D01*
X126307953Y-90370963D01*
X126286764Y-90399267D01*
X126286760Y-90399268D01*
X126286758Y-90399272D01*
X126245408Y-90414691D01*
X126221300Y-90423684D01*
X126221295Y-90423684D01*
X126221293Y-90423685D01*
X126221290Y-90423684D01*
X126212454Y-90424000D01*
X126153968Y-90424000D01*
X126064751Y-90432787D01*
X125762797Y-90462526D01*
X125377305Y-90539204D01*
X125377294Y-90539207D01*
X125001145Y-90653310D01*
X124638000Y-90803730D01*
X124637995Y-90803732D01*
X124291362Y-90989011D01*
X124291344Y-90989022D01*
X123964539Y-91207387D01*
X123964525Y-91207397D01*
X123660682Y-91456754D01*
X123382754Y-91734682D01*
X123133397Y-92038525D01*
X123133387Y-92038539D01*
X122915022Y-92365344D01*
X122915011Y-92365362D01*
X122729732Y-92711995D01*
X122729730Y-92712000D01*
X122579310Y-93075145D01*
X122465207Y-93451294D01*
X122465204Y-93451305D01*
X122388526Y-93836797D01*
X122364383Y-94081930D01*
X122350000Y-94227968D01*
X121725500Y-94227968D01*
X121725500Y-79450244D01*
X125875000Y-79450244D01*
X125881401Y-79509772D01*
X125881403Y-79509779D01*
X125931645Y-79644486D01*
X125931649Y-79644493D01*
X126017809Y-79759587D01*
X126017812Y-79759590D01*
X126132906Y-79845750D01*
X126132913Y-79845754D01*
X126267620Y-79895996D01*
X126267627Y-79895998D01*
X126327155Y-79902399D01*
X126327172Y-79902400D01*
X126375000Y-79902400D01*
X126725000Y-79902400D01*
X126772828Y-79902400D01*
X126772844Y-79902399D01*
X126832372Y-79895998D01*
X126832379Y-79895996D01*
X126967086Y-79845754D01*
X126967093Y-79845750D01*
X127082187Y-79759590D01*
X127082190Y-79759587D01*
X127168350Y-79644493D01*
X127168354Y-79644486D01*
X127218596Y-79509779D01*
X127218598Y-79509772D01*
X127224999Y-79450244D01*
X127225000Y-79450227D01*
X127225000Y-79174200D01*
X126725000Y-79174200D01*
X126725000Y-79902400D01*
X126375000Y-79902400D01*
X126375000Y-79174200D01*
X125875000Y-79174200D01*
X125875000Y-79450244D01*
X121725500Y-79450244D01*
X121725500Y-78548155D01*
X125875000Y-78548155D01*
X125875000Y-78824200D01*
X126375000Y-78824200D01*
X126725000Y-78824200D01*
X127225000Y-78824200D01*
X127225000Y-78548172D01*
X127224999Y-78548155D01*
X127218598Y-78488627D01*
X127218596Y-78488620D01*
X127168354Y-78353913D01*
X127168350Y-78353906D01*
X127082190Y-78238812D01*
X127082187Y-78238809D01*
X126967093Y-78152649D01*
X126967086Y-78152645D01*
X126832379Y-78102403D01*
X126832372Y-78102401D01*
X126772844Y-78096000D01*
X126725000Y-78096000D01*
X126725000Y-78824200D01*
X126375000Y-78824200D01*
X126375000Y-78096000D01*
X126327155Y-78096000D01*
X126267627Y-78102401D01*
X126267620Y-78102403D01*
X126132913Y-78152645D01*
X126132906Y-78152649D01*
X126017812Y-78238809D01*
X126017809Y-78238812D01*
X125931649Y-78353906D01*
X125931645Y-78353913D01*
X125881403Y-78488620D01*
X125881401Y-78488627D01*
X125875000Y-78548155D01*
X121725500Y-78548155D01*
X121725500Y-69478968D01*
X122350000Y-69478968D01*
X122350000Y-69872032D01*
X122350457Y-69876669D01*
X122388526Y-70263202D01*
X122465204Y-70648694D01*
X122465207Y-70648705D01*
X122579310Y-71024854D01*
X122671663Y-71247814D01*
X122728751Y-71385637D01*
X122729730Y-71387999D01*
X122729732Y-71388004D01*
X122915011Y-71734637D01*
X122915022Y-71734655D01*
X123133387Y-72061460D01*
X123133397Y-72061474D01*
X123382754Y-72365317D01*
X123660682Y-72643245D01*
X123660687Y-72643249D01*
X123660688Y-72643250D01*
X123964531Y-72892607D01*
X124291351Y-73110982D01*
X124291360Y-73110987D01*
X124291362Y-73110988D01*
X124637995Y-73296267D01*
X124637997Y-73296267D01*
X124638003Y-73296271D01*
X125001147Y-73446690D01*
X125377285Y-73560790D01*
X125377291Y-73560791D01*
X125377294Y-73560792D01*
X125377305Y-73560795D01*
X125734674Y-73631879D01*
X125762797Y-73637473D01*
X126153968Y-73676000D01*
X126153971Y-73676000D01*
X126547029Y-73676000D01*
X126547032Y-73676000D01*
X126938203Y-73637473D01*
X127032079Y-73618800D01*
X127323694Y-73560795D01*
X127323705Y-73560792D01*
X127323705Y-73560791D01*
X127323715Y-73560790D01*
X127699853Y-73446690D01*
X128062997Y-73296271D01*
X128409649Y-73110982D01*
X128736469Y-72892607D01*
X129040312Y-72643250D01*
X129318250Y-72365312D01*
X129567607Y-72061469D01*
X129785982Y-71734649D01*
X129971271Y-71387997D01*
X130121690Y-71024853D01*
X130235790Y-70648715D01*
X130235792Y-70648705D01*
X130235795Y-70648694D01*
X130312473Y-70263202D01*
X130331388Y-70071155D01*
X130351000Y-69872032D01*
X130351000Y-69478968D01*
X130312473Y-69087797D01*
X130235795Y-68702305D01*
X130235792Y-68702294D01*
X130235791Y-68702291D01*
X130235790Y-68702285D01*
X130121690Y-68326147D01*
X129971271Y-67963003D01*
X129785982Y-67616351D01*
X129567607Y-67289531D01*
X129318250Y-66985688D01*
X129318249Y-66985687D01*
X129318245Y-66985682D01*
X129040317Y-66707754D01*
X128736474Y-66458397D01*
X128736473Y-66458396D01*
X128736469Y-66458393D01*
X128409649Y-66240018D01*
X128409644Y-66240015D01*
X128409637Y-66240011D01*
X128063004Y-66054732D01*
X128062999Y-66054730D01*
X127699854Y-65904310D01*
X127323705Y-65790207D01*
X127323694Y-65790204D01*
X126938202Y-65713526D01*
X126643589Y-65684510D01*
X126547032Y-65675000D01*
X126153968Y-65675000D01*
X126064751Y-65683787D01*
X125762797Y-65713526D01*
X125377305Y-65790204D01*
X125377294Y-65790207D01*
X125001145Y-65904310D01*
X124638000Y-66054730D01*
X124637995Y-66054732D01*
X124291362Y-66240011D01*
X124291344Y-66240022D01*
X123964539Y-66458387D01*
X123964525Y-66458397D01*
X123660682Y-66707754D01*
X123382754Y-66985682D01*
X123133397Y-67289525D01*
X123133387Y-67289539D01*
X122915022Y-67616344D01*
X122915011Y-67616362D01*
X122729732Y-67962995D01*
X122729730Y-67963000D01*
X122579310Y-68326145D01*
X122465207Y-68702294D01*
X122465204Y-68702305D01*
X122388526Y-69087797D01*
X122366567Y-69310756D01*
X122350000Y-69478968D01*
X121725500Y-69478968D01*
X121725500Y-67101569D01*
X121745185Y-67034530D01*
X121761819Y-67013888D01*
X123688888Y-65086819D01*
X123750211Y-65053334D01*
X123776569Y-65050500D01*
X153673431Y-65050500D01*
X153740470Y-65070185D01*
G37*
%TD.AperFunction*%
%TD*%
M02*
