%TF.GenerationSoftware,KiCad,Pcbnew,9.0.6*%
%TF.CreationDate,2026-02-10T13:55:09-08:00*%
%TF.ProjectId,ArmEncoderBoard,41726d45-6e63-46f6-9465-72426f617264,rev?*%
%TF.SameCoordinates,Original*%
%TF.FileFunction,Soldermask,Top*%
%TF.FilePolarity,Negative*%
%FSLAX46Y46*%
G04 Gerber Fmt 4.6, Leading zero omitted, Abs format (unit mm)*
G04 Created by KiCad (PCBNEW 9.0.6) date 2026-02-10 13:55:09*
%MOMM*%
%LPD*%
G01*
G04 APERTURE LIST*
G04 Aperture macros list*
%AMRoundRect*
0 Rectangle with rounded corners*
0 $1 Rounding radius*
0 $2 $3 $4 $5 $6 $7 $8 $9 X,Y pos of 4 corners*
0 Add a 4 corners polygon primitive as box body*
4,1,4,$2,$3,$4,$5,$6,$7,$8,$9,$2,$3,0*
0 Add four circle primitives for the rounded corners*
1,1,$1+$1,$2,$3*
1,1,$1+$1,$4,$5*
1,1,$1+$1,$6,$7*
1,1,$1+$1,$8,$9*
0 Add four rect primitives between the rounded corners*
20,1,$1+$1,$2,$3,$4,$5,0*
20,1,$1+$1,$4,$5,$6,$7,0*
20,1,$1+$1,$6,$7,$8,$9,0*
20,1,$1+$1,$8,$9,$2,$3,0*%
G04 Aperture macros list end*
%ADD10R,0.762000X0.863600*%
%ADD11R,0.558800X0.762000*%
%ADD12R,0.711200X0.889000*%
%ADD13C,7.000000*%
%ADD14RoundRect,0.150000X0.150000X-0.587500X0.150000X0.587500X-0.150000X0.587500X-0.150000X-0.587500X0*%
%ADD15R,0.774700X0.508000*%
%ADD16RoundRect,0.125000X-0.762500X-0.125000X0.762500X-0.125000X0.762500X0.125000X-0.762500X0.125000X0*%
%ADD17RoundRect,0.250000X-0.600000X-0.725000X0.600000X-0.725000X0.600000X0.725000X-0.600000X0.725000X0*%
%ADD18O,1.700000X1.950000*%
%ADD19RoundRect,0.102000X-0.430000X-0.490000X0.430000X-0.490000X0.430000X0.490000X-0.430000X0.490000X0*%
%ADD20R,0.711200X0.838200*%
%ADD21R,0.350000X0.806400*%
G04 APERTURE END LIST*
D10*
%TO.C,C1*%
X145372300Y-80450000D03*
X144127700Y-80450000D03*
%TD*%
D11*
%TO.C,R7*%
X139911900Y-70500000D03*
X141258100Y-70500000D03*
%TD*%
D12*
%TO.C,R1*%
X144101500Y-84200000D03*
X145498500Y-84200000D03*
%TD*%
D11*
%TO.C,R6*%
X136611900Y-70500000D03*
X137958100Y-70500000D03*
%TD*%
%TO.C,R5*%
X130253800Y-75250000D03*
X131600000Y-75250000D03*
%TD*%
D10*
%TO.C,D1*%
X129672300Y-82180200D03*
X128427700Y-82180200D03*
%TD*%
D13*
%TO.C,H1*%
X126350500Y-69675500D03*
%TD*%
D14*
%TO.C,Q1*%
X132700000Y-72375000D03*
X134600000Y-72375000D03*
X133650000Y-70500000D03*
%TD*%
D15*
%TO.C,U1*%
X137622750Y-75399999D03*
X137622750Y-76350000D03*
X137622750Y-77300001D03*
X140150050Y-77300001D03*
X140150050Y-76350000D03*
X140150050Y-75399999D03*
%TD*%
D13*
%TO.C,H3*%
X126350500Y-94424500D03*
%TD*%
D16*
%TO.C,U2*%
X135312500Y-79775000D03*
X135312500Y-80425000D03*
X135312500Y-81075000D03*
X135312500Y-81725000D03*
X135312500Y-82375000D03*
X135312500Y-83025000D03*
X135312500Y-83675000D03*
X135312500Y-84325000D03*
X142137500Y-84325000D03*
X142137500Y-83675000D03*
X142137500Y-83025000D03*
X142137500Y-82375000D03*
X142137500Y-81725000D03*
X142137500Y-81075000D03*
X142137500Y-80425000D03*
X142137500Y-79775000D03*
%TD*%
D13*
%TO.C,H4*%
X151099500Y-94424500D03*
%TD*%
D10*
%TO.C,D2*%
X148972300Y-82180200D03*
X147727700Y-82180200D03*
%TD*%
D17*
%TO.C,J1*%
X133800000Y-93200000D03*
D18*
X136300000Y-93200000D03*
X138800000Y-93200000D03*
X141300000Y-93200000D03*
X143800000Y-93200000D03*
%TD*%
D10*
%TO.C,C2*%
X131577700Y-82150000D03*
X132822300Y-82150000D03*
%TD*%
D11*
%TO.C,R3*%
X128376900Y-83993800D03*
X129723100Y-83993800D03*
%TD*%
D19*
%TO.C,R4*%
X147585000Y-84200000D03*
X149115000Y-84200000D03*
%TD*%
D20*
%TO.C,C3*%
X136706200Y-73300000D03*
X137900000Y-73300000D03*
%TD*%
D14*
%TO.C,Q2*%
X143300000Y-72375000D03*
X145200000Y-72375000D03*
X144250000Y-70500000D03*
%TD*%
D11*
%TO.C,R8*%
X146103800Y-75250000D03*
X147450000Y-75250000D03*
%TD*%
D13*
%TO.C,H2*%
X151099500Y-69675500D03*
%TD*%
D12*
%TO.C,R2*%
X145498500Y-82200000D03*
X144101500Y-82200000D03*
%TD*%
D21*
%TO.C,CR1*%
X133600000Y-75850800D03*
X133600000Y-78049200D03*
%TD*%
D20*
%TO.C,C4*%
X140059500Y-73300000D03*
X141253300Y-73300000D03*
%TD*%
D21*
%TO.C,CR2*%
X144350000Y-75950000D03*
X144350000Y-78148400D03*
%TD*%
M02*
