<?xml version="1.0" encoding="UTF-8" standalone="no"?>
<!DOCTYPE svg PUBLIC "-//W3C//DTD SVG 1.1//EN" "http://www.w3.org/Graphics/SVG/1.1/DTD/svg11.dtd">
<svg width="100%" height="100%" viewBox="0 0 140 104" version="1.1" xmlns="http://www.w3.org/2000/svg" xmlns:xlink="http://www.w3.org/1999/xlink" xml:space="preserve" xmlns:serif="http://www.serif.com/" style="fill-rule:evenodd;clip-rule:evenodd;stroke-linecap:round;stroke-linejoin:round;stroke-miterlimit:10;">
    <g transform="matrix(1,0,0,1,136.544,13.511)">
        <path d="M0,76.473L0,0.435C0,-5.61 -4.23,-10.511 -9.448,-10.511L-124.097,-10.511C-129.314,-10.511 -133.544,-5.61 -133.544,0.435L-133.544,76.473C-133.544,82.278 -129.483,86.984 -124.472,86.984L-9.072,86.984C-4.062,86.984 0,82.278 0,76.473Z" style="fill:none;fill-rule:nonzero;stroke:rgb(101,101,101);stroke-width:6px;"/>
    </g>
    <g transform="matrix(1,0,0,1,119.581,20.4359)">
        <path d="M0,17.375C-13.672,6.499 -30.982,0 -49.809,0C-68.637,0 -85.947,6.499 -99.619,17.375" style="fill:none;fill-rule:nonzero;stroke:rgb(101,101,101);stroke-width:6px;"/>
    </g>
    <g transform="matrix(-0.562996,-0.82646,-0.82646,0.562996,65.8436,40.0779)">
        <path d="M-31.178,16.486L8.717,16.486" style="fill:none;fill-rule:nonzero;stroke:rgb(101,101,101);stroke-width:6px;"/>
    </g>
    <g transform="matrix(-0.459253,-0.888305,-0.888305,0.459253,25.3728,38.1889)">
        <path d="M-7.61,4.633L2.82,4.633" style="fill:none;fill-rule:nonzero;stroke:rgb(101,101,101);stroke-width:6px;"/>
    </g>
    <g transform="matrix(0.459214,-0.888326,-0.888326,-0.459214,120.201,46.6985)">
        <path d="M-2.82,4.633L7.61,4.633" style="fill:none;fill-rule:nonzero;stroke:rgb(101,101,101);stroke-width:6px;"/>
    </g>
    <g transform="matrix(0,1,1,0,72.9503,23.6147)">
        <path d="M-3.178,-3.178L3.178,-3.178" style="fill:none;fill-rule:nonzero;stroke:rgb(101,101,101);stroke-width:6px;"/>
    </g>
</svg>
