%TF.GenerationSoftware,KiCad,Pcbnew,8.0.5*%
%TF.CreationDate,2024-10-29T13:28:27-07:00*%
%TF.ProjectId,ArmEncoderBoard,41726d45-6e63-46f6-9465-72426f617264,rev?*%
%TF.SameCoordinates,Original*%
%TF.FileFunction,Component,L2,Bot*%
%TF.FilePolarity,Positive*%
%FSLAX46Y46*%
G04 Gerber Fmt 4.6, Leading zero omitted, Abs format (unit mm)*
G04 Created by KiCad (PCBNEW 8.0.5) date 2024-10-29 13:28:27*
%MOMM*%
%LPD*%
G01*
G04 APERTURE LIST*
%TA.AperFunction,Profile*%
%ADD10C,0.100000*%
%TD*%
G04 APERTURE END LIST*
D10*
X149500000Y-107500000D02*
X149500000Y-103000000D01*
X127500000Y-107500000D02*
X149500000Y-107500000D01*
X127500000Y-103000000D02*
X127500000Y-107500000D01*
X149500000Y-103000000D02*
X153500000Y-99011400D01*
X123500000Y-99011400D02*
X127500000Y-103000000D01*
X152495369Y-94385769D02*
G75*
G02*
X149253369Y-94385769I-1621000J0D01*
G01*
X149253369Y-94385769D02*
G75*
G02*
X152495369Y-94385769I1621000J0D01*
G01*
X155500000Y-67011400D02*
X153500000Y-65011400D01*
X153500000Y-65011400D02*
X123500000Y-65011400D01*
X121500000Y-97011400D02*
X123500000Y-99011400D01*
X123500000Y-65011400D02*
X121500000Y-67011400D01*
X153500000Y-99011400D02*
X155500000Y-97011400D01*
X127746631Y-94385769D02*
G75*
G02*
X124504631Y-94385769I-1621000J0D01*
G01*
X124504631Y-94385769D02*
G75*
G02*
X127746631Y-94385769I1621000J0D01*
G01*
X155500000Y-97011400D02*
X155500000Y-67011400D01*
X127746631Y-69637031D02*
G75*
G02*
X124504631Y-69637031I-1621000J0D01*
G01*
X124504631Y-69637031D02*
G75*
G02*
X127746631Y-69637031I1621000J0D01*
G01*
X152495369Y-69637031D02*
G75*
G02*
X149253369Y-69637031I-1621000J0D01*
G01*
X149253369Y-69637031D02*
G75*
G02*
X152495369Y-69637031I1621000J0D01*
G01*
X121500000Y-67011400D02*
X121500000Y-97011400D01*
M02*
