%TF.GenerationSoftware,KiCad,Pcbnew,9.0.6*%
%TF.CreationDate,2026-06-02T08:17:36-07:00*%
%TF.ProjectId,AudioBoardTeensy,41756469-6f42-46f6-9172-645465656e73,rev?*%
%TF.SameCoordinates,Original*%
%TF.FileFunction,Copper,L2,Bot*%
%TF.FilePolarity,Positive*%
%FSLAX46Y46*%
G04 Gerber Fmt 4.6, Leading zero omitted, Abs format (unit mm)*
G04 Created by KiCad (PCBNEW 9.0.6) date 2026-06-02 08:17:36*
%MOMM*%
%LPD*%
G01*
G04 APERTURE LIST*
%TA.AperFunction,ComponentPad*%
%ADD10R,1.700000X1.700000*%
%TD*%
%TA.AperFunction,ComponentPad*%
%ADD11C,1.700000*%
%TD*%
%TA.AperFunction,ComponentPad*%
%ADD12O,2.616000X1.308000*%
%TD*%
%TA.AperFunction,ComponentPad*%
%ADD13O,1.308000X2.616000*%
%TD*%
%TA.AperFunction,ComponentPad*%
%ADD14C,5.700000*%
%TD*%
%TA.AperFunction,ComponentPad*%
%ADD15C,1.600000*%
%TD*%
%TA.AperFunction,ViaPad*%
%ADD16C,0.600000*%
%TD*%
%TA.AperFunction,Conductor*%
%ADD17C,0.200000*%
%TD*%
G04 APERTURE END LIST*
D10*
%TO.P,J2,1,Pin_1*%
%TO.N,LED1*%
X114845000Y-112000000D03*
D11*
%TO.P,J2,2,Pin_2*%
%TO.N,+3V3*%
X114845000Y-109460000D03*
%TO.P,J2,3,Pin_3*%
%TO.N,LED2*%
X114845000Y-106920000D03*
%TO.P,J2,4,Pin_4*%
%TO.N,+3V3*%
X114845000Y-104380000D03*
%TO.P,J2,5,Pin_5*%
%TO.N,LED3*%
X114845000Y-101840000D03*
%TO.P,J2,6,Pin_6*%
%TO.N,+3V3*%
X114845000Y-99300000D03*
%TO.P,J2,7,Pin_7*%
%TO.N,LED4*%
X114845000Y-96760000D03*
%TO.P,J2,8,Pin_8*%
%TO.N,+3V3*%
X114845000Y-94220000D03*
%TO.P,J2,9,Pin_9*%
%TO.N,LED5*%
X114845000Y-91680000D03*
%TO.P,J2,10,Pin_10*%
%TO.N,+3V3*%
X114845000Y-89140000D03*
%TD*%
D12*
%TO.P,J1,1*%
%TO.N,GND*%
X122025000Y-101470000D03*
D13*
%TO.P,J1,2*%
X119175000Y-102270000D03*
%TO.P,J1,3*%
%TO.N,/RING 1*%
X124875000Y-102270000D03*
%TO.P,J1,4_1*%
%TO.N,AUDIO*%
X118725000Y-110270000D03*
%TO.P,J1,4_2*%
%TO.N,/TIP 2*%
X125325000Y-110270000D03*
%TD*%
D14*
%TO.P,H1,1,1*%
%TO.N,unconnected-(H1-Pad1)*%
X124075000Y-91400000D03*
%TD*%
D15*
%TO.P,U1,1,GND*%
%TO.N,GND*%
X161625000Y-97230000D03*
%TO.P,U1,2,0_RX1_CRX2_CS1*%
%TO.N,CS*%
X159085000Y-97230000D03*
%TO.P,U1,3,1_TX1_CTX2_MISO1*%
%TO.N,RST*%
X156545000Y-97230000D03*
%TO.P,U1,4,2_OUT2*%
%TO.N,LED1*%
X154005000Y-97230000D03*
%TO.P,U1,5,3_LRCLK2*%
%TO.N,LED2*%
X151465000Y-97230000D03*
%TO.P,U1,6,4_BCLK2*%
%TO.N,LED3*%
X148925000Y-97230000D03*
%TO.P,U1,7,5_IN2*%
%TO.N,LED4*%
X146385000Y-97230000D03*
%TO.P,U1,8,6_OUT1D*%
%TO.N,LED5*%
X143845000Y-97230000D03*
%TO.P,U1,9,7_RX2_OUT1A*%
%TO.N,unconnected-(U1-7_RX2_OUT1A-Pad9)*%
X141305000Y-97230000D03*
%TO.P,U1,10,8_TX2_IN1*%
%TO.N,unconnected-(U1-8_TX2_IN1-Pad10)*%
X138765000Y-97230000D03*
%TO.P,U1,11,9_OUT1C*%
%TO.N,unconnected-(U1-9_OUT1C-Pad11)*%
X136225000Y-97230000D03*
%TO.P,U1,12,10_CS_MQSR*%
%TO.N,unconnected-(U1-10_CS_MQSR-Pad12)*%
X133685000Y-97230000D03*
%TO.P,U1,13,11_MOSI_CTX1*%
%TO.N,MOSI*%
X131145000Y-97230000D03*
%TO.P,U1,14,12_MISO_MQSL*%
%TO.N,MISO*%
X128605000Y-97230000D03*
%TO.P,U1,15,VBAT*%
%TO.N,unconnected-(U1-VBAT-Pad15)*%
X128605000Y-99770000D03*
%TO.P,U1,16,3V3*%
%TO.N,+3V3*%
X128605000Y-102310000D03*
%TO.P,U1,17,GND*%
%TO.N,GND*%
X128605000Y-104850000D03*
%TO.P,U1,18,PROGRAM*%
%TO.N,unconnected-(U1-PROGRAM-Pad18)*%
X128605000Y-107390000D03*
%TO.P,U1,19,ON_OFF*%
%TO.N,unconnected-(U1-ON_OFF-Pad19)*%
X128605000Y-109930000D03*
%TO.P,U1,20,13_SCK_CRX1_LED*%
%TO.N,SCK*%
X128605000Y-112470000D03*
%TO.P,U1,21,14_A0_TX3_SPDIF_OUT*%
%TO.N,A0*%
X131145000Y-112470000D03*
%TO.P,U1,22,15_A1_RX3_SPDIF_IN*%
%TO.N,unconnected-(U1-15_A1_RX3_SPDIF_IN-Pad22)*%
X133685000Y-112470000D03*
%TO.P,U1,23,16_A2_RX4_SCL1*%
%TO.N,unconnected-(U1-16_A2_RX4_SCL1-Pad23)*%
X136225000Y-112470000D03*
%TO.P,U1,24,17_A3_TX4_SDA1*%
%TO.N,unconnected-(U1-17_A3_TX4_SDA1-Pad24)*%
X138765000Y-112470000D03*
%TO.P,U1,25,18_A4_SDA0*%
%TO.N,unconnected-(U1-18_A4_SDA0-Pad25)*%
X141305000Y-112470000D03*
%TO.P,U1,26,19_A5_SCL0*%
%TO.N,unconnected-(U1-19_A5_SCL0-Pad26)*%
X143845000Y-112470000D03*
%TO.P,U1,27,20_A6_TX5_LRCLK1*%
%TO.N,unconnected-(U1-20_A6_TX5_LRCLK1-Pad27)*%
X146385000Y-112470000D03*
%TO.P,U1,28,21_A7_RX5_BCLK1*%
%TO.N,unconnected-(U1-21_A7_RX5_BCLK1-Pad28)*%
X148925000Y-112470000D03*
%TO.P,U1,29,22_A8_CTX1*%
%TO.N,unconnected-(U1-22_A8_CTX1-Pad29)*%
X151465000Y-112470000D03*
%TO.P,U1,30,23_A9_CRX1_MCLK1*%
%TO.N,unconnected-(U1-23_A9_CRX1_MCLK1-Pad30)*%
X154005000Y-112470000D03*
%TO.P,U1,31,3V3*%
%TO.N,+3V3*%
X156545000Y-112470000D03*
%TO.P,U1,32,GND*%
%TO.N,GND*%
X159085000Y-112470000D03*
%TO.P,U1,33,VIN*%
%TO.N,unconnected-(U1-VIN-Pad33)*%
X161625000Y-112470000D03*
%TO.P,U1,34,VUSB*%
%TO.N,unconnected-(U1-VUSB-Pad34)*%
X159085000Y-109930000D03*
%TO.P,U1,35,24_A10_TX6_SCL2*%
%TO.N,unconnected-(U1-24_A10_TX6_SCL2-Pad35)*%
X133685000Y-109930000D03*
%TO.P,U1,36,25_A11_RX6_SDA2*%
%TO.N,unconnected-(U1-25_A11_RX6_SDA2-Pad36)*%
X136225000Y-109930000D03*
%TO.P,U1,37,26_A12_MOSI1*%
%TO.N,unconnected-(U1-26_A12_MOSI1-Pad37)*%
X133685000Y-107390000D03*
%TO.P,U1,38,27_A13_SCK1*%
%TO.N,unconnected-(U1-27_A13_SCK1-Pad38)*%
X136225000Y-107390000D03*
%TO.P,U1,39,28_RX7*%
%TO.N,unconnected-(U1-28_RX7-Pad39)*%
X133685000Y-104850000D03*
%TO.P,U1,40,29_TX7*%
%TO.N,unconnected-(U1-29_TX7-Pad40)*%
X136225000Y-104850000D03*
%TO.P,U1,41,30_CRX3*%
%TO.N,unconnected-(U1-30_CRX3-Pad41)*%
X133685000Y-102310000D03*
%TO.P,U1,42,31_CTX3*%
%TO.N,unconnected-(U1-31_CTX3-Pad42)*%
X136225000Y-102310000D03*
%TO.P,U1,43,32_OUT1B*%
%TO.N,unconnected-(U1-32_OUT1B-Pad43)*%
X133685000Y-99770000D03*
%TO.P,U1,44,33_MCLK2*%
%TO.N,unconnected-(U1-33_MCLK2-Pad44)*%
X136225000Y-99770000D03*
%TD*%
D10*
%TO.P,J4,1,Pin_1*%
%TO.N,MISO*%
X147900000Y-90250000D03*
D11*
%TO.P,J4,2,Pin_2*%
%TO.N,RST*%
X145360000Y-90250000D03*
%TO.P,J4,3,Pin_3*%
%TO.N,CS*%
X142820000Y-90250000D03*
%TO.P,J4,4,Pin_4*%
%TO.N,MOSI*%
X140280000Y-90250000D03*
%TO.P,J4,5,Pin_5*%
%TO.N,SCK*%
X137740000Y-90250000D03*
%TO.P,J4,6,Pin_6*%
%TO.N,GND*%
X135200000Y-90250000D03*
%TO.P,J4,7,Pin_7*%
%TO.N,+3V3*%
X132660000Y-90250000D03*
%TD*%
D14*
%TO.P,H2,1,1*%
%TO.N,unconnected-(H2-Pad1)*%
X156525000Y-91400000D03*
%TD*%
D10*
%TO.P,J3,1,Pin_1*%
%TO.N,LED1*%
X165755000Y-112000000D03*
D11*
%TO.P,J3,2,Pin_2*%
%TO.N,+3V3*%
X165755000Y-109460000D03*
%TO.P,J3,3,Pin_3*%
%TO.N,LED2*%
X165755000Y-106920000D03*
%TO.P,J3,4,Pin_4*%
%TO.N,+3V3*%
X165755000Y-104380000D03*
%TO.P,J3,5,Pin_5*%
%TO.N,LED3*%
X165755000Y-101840000D03*
%TO.P,J3,6,Pin_6*%
%TO.N,+3V3*%
X165755000Y-99300000D03*
%TO.P,J3,7,Pin_7*%
%TO.N,LED4*%
X165755000Y-96760000D03*
%TO.P,J3,8,Pin_8*%
%TO.N,+3V3*%
X165755000Y-94220000D03*
%TO.P,J3,9,Pin_9*%
%TO.N,LED5*%
X165755000Y-91680000D03*
%TO.P,J3,10,Pin_10*%
%TO.N,+3V3*%
X165755000Y-89140000D03*
%TD*%
D16*
%TO.N,A0*%
X135051000Y-98705900D03*
%TO.N,GND*%
X123648000Y-97725000D03*
X120166000Y-95526100D03*
%TO.N,MISO*%
X128605000Y-93988000D03*
%TO.N,+3V3*%
X157559200Y-105583500D03*
X126547600Y-98919100D03*
%TO.N,AUDIO*%
X117255700Y-98322400D03*
%TD*%
D17*
%TO.N,A0*%
X131145000Y-112470000D02*
X131145000Y-110912000D01*
X135051000Y-107621400D02*
X135051000Y-98705900D01*
X131145000Y-110912000D02*
X133397000Y-108660000D01*
X134012400Y-108660000D02*
X135051000Y-107621400D01*
X133397000Y-108660000D02*
X134012400Y-108660000D01*
%TO.N,SCK*%
X132550400Y-99321600D02*
X133510700Y-98361300D01*
X128605000Y-112470000D02*
X132550400Y-108524600D01*
X134147400Y-98361300D02*
X134825700Y-97683000D01*
X132550400Y-108524600D02*
X132550400Y-99321600D01*
X133510700Y-98361300D02*
X134147400Y-98361300D01*
X134825700Y-97683000D02*
X134825700Y-93164300D01*
X134825700Y-93164300D02*
X137740000Y-90250000D01*
%TO.N,MISO*%
X128605000Y-97230000D02*
X128605000Y-93988000D01*
%TO.N,CS*%
X155501405Y-95548595D02*
X157403595Y-95548595D01*
X143989200Y-89080800D02*
X142820000Y-90250000D01*
X157403595Y-95548595D02*
X159085000Y-97230000D01*
X149676400Y-89723590D02*
X155501405Y-95548595D01*
X149676400Y-89080800D02*
X143989200Y-89080800D01*
X149676400Y-89080800D02*
X149676400Y-89723590D01*
%TO.N,+3V3*%
X129873500Y-100098300D02*
X128587600Y-101384200D01*
X165755000Y-109460000D02*
X166906700Y-108308300D01*
X157559200Y-105583500D02*
X156545000Y-106597700D01*
X166971100Y-103163900D02*
X165755000Y-104380000D01*
X128587600Y-101384200D02*
X128605000Y-101401700D01*
X113693300Y-98148300D02*
X113693300Y-94220000D01*
X128587600Y-101384200D02*
X126547600Y-99344300D01*
X166971100Y-90356100D02*
X166971100Y-93003900D01*
X166971100Y-93003900D02*
X165755000Y-94220000D01*
X165755000Y-99300000D02*
X166971100Y-100516100D01*
X166971100Y-98083900D02*
X165755000Y-99300000D01*
X129873500Y-93036500D02*
X129873500Y-100098300D01*
X114845000Y-94220000D02*
X113693300Y-94220000D01*
X114845000Y-99300000D02*
X113693300Y-98148300D01*
X113628900Y-104380000D02*
X114845000Y-104380000D01*
X166906700Y-105531700D02*
X165755000Y-104380000D01*
X113628900Y-100516100D02*
X113628900Y-104380000D01*
X126547600Y-99344300D02*
X126547600Y-98919100D01*
X132660000Y-90250000D02*
X129873500Y-93036500D01*
X166971100Y-100516100D02*
X166971100Y-103163900D01*
X166906700Y-108308300D02*
X166906700Y-105531700D01*
X114845000Y-99300000D02*
X113628900Y-100516100D01*
X113693300Y-94220000D02*
X113693300Y-90291700D01*
X166971100Y-93003900D02*
X166971100Y-98083900D01*
X113628900Y-104380000D02*
X113628900Y-108243900D01*
X165755000Y-89140000D02*
X166971100Y-90356100D01*
X128605000Y-101401700D02*
X128605000Y-102310000D01*
X113693300Y-90291700D02*
X114845000Y-89140000D01*
X113628900Y-108243900D02*
X114845000Y-109460000D01*
X156545000Y-106597700D02*
X156545000Y-112470000D01*
%TO.N,MOSI*%
X140280000Y-90250000D02*
X139082000Y-89052000D01*
X134048300Y-94326700D02*
X131145000Y-97230000D01*
X134048300Y-89773000D02*
X134048300Y-94326700D01*
X134769300Y-89052000D02*
X134048300Y-89773000D01*
X139082000Y-89052000D02*
X134769300Y-89052000D01*
%TO.N,RST*%
X151714200Y-92399200D02*
X147509200Y-92399200D01*
X156545000Y-97230000D02*
X151714200Y-92399200D01*
X147509200Y-92399200D02*
X145360000Y-90250000D01*
%TO.N,AUDIO*%
X117255700Y-107191000D02*
X118725000Y-108660300D01*
X118725000Y-110270000D02*
X118725000Y-108660300D01*
X117255700Y-98322400D02*
X117255700Y-107191000D01*
%TO.N,LED2*%
X164673300Y-106920000D02*
X165755000Y-106920000D01*
X155275000Y-96923900D02*
X155275000Y-97521700D01*
X155275000Y-97521700D02*
X164673300Y-106920000D01*
X152569300Y-96125700D02*
X154476800Y-96125700D01*
X151465000Y-97230000D02*
X152569300Y-96125700D01*
X154476800Y-96125700D02*
X155275000Y-96923900D01*
%TO.N,LED1*%
X154005000Y-99386200D02*
X165467100Y-110848300D01*
X154005000Y-97230000D02*
X154005000Y-99386200D01*
X165467100Y-110848300D02*
X165755000Y-110848300D01*
X165755000Y-112000000D02*
X165755000Y-110848300D01*
%TD*%
%TA.AperFunction,Conductor*%
%TO.N,GND*%
G36*
X123452942Y-87890185D02*
G01*
X123498697Y-87942989D01*
X123508641Y-88012147D01*
X123479616Y-88075703D01*
X123420838Y-88113477D01*
X123410094Y-88116117D01*
X123259933Y-88145984D01*
X123259922Y-88145987D01*
X122944887Y-88241552D01*
X122640755Y-88367528D01*
X122640741Y-88367535D01*
X122350432Y-88522707D01*
X122350414Y-88522718D01*
X122076710Y-88705601D01*
X122076696Y-88705611D01*
X121822222Y-88914453D01*
X121589453Y-89147222D01*
X121380611Y-89401696D01*
X121380601Y-89401710D01*
X121197718Y-89675414D01*
X121197707Y-89675432D01*
X121042535Y-89965741D01*
X121042528Y-89965755D01*
X120916552Y-90269887D01*
X120820987Y-90584922D01*
X120820984Y-90584933D01*
X120756768Y-90907781D01*
X120756765Y-90907798D01*
X120733121Y-91147872D01*
X120724500Y-91235400D01*
X120724500Y-91564600D01*
X120724761Y-91567246D01*
X120756765Y-91892201D01*
X120756768Y-91892218D01*
X120820984Y-92215066D01*
X120820987Y-92215077D01*
X120916552Y-92530112D01*
X121042528Y-92834244D01*
X121042531Y-92834251D01*
X121070988Y-92887491D01*
X121197707Y-93124567D01*
X121197718Y-93124585D01*
X121380601Y-93398289D01*
X121380611Y-93398303D01*
X121589453Y-93652777D01*
X121822222Y-93885546D01*
X121822227Y-93885550D01*
X121822228Y-93885551D01*
X122076702Y-94094393D01*
X122350421Y-94277286D01*
X122640749Y-94432469D01*
X122944889Y-94558448D01*
X123259913Y-94654010D01*
X123259919Y-94654011D01*
X123259922Y-94654012D01*
X123259933Y-94654015D01*
X123440361Y-94689903D01*
X123582787Y-94718233D01*
X123910400Y-94750500D01*
X123910403Y-94750500D01*
X124239597Y-94750500D01*
X124239600Y-94750500D01*
X124567213Y-94718233D01*
X124744760Y-94682916D01*
X124890066Y-94654015D01*
X124890077Y-94654012D01*
X124890077Y-94654011D01*
X124890087Y-94654010D01*
X125205111Y-94558448D01*
X125509251Y-94432469D01*
X125799579Y-94277286D01*
X126073298Y-94094393D01*
X126327772Y-93885551D01*
X126560551Y-93652772D01*
X126769393Y-93398298D01*
X126952286Y-93124579D01*
X127107469Y-92834251D01*
X127233448Y-92530111D01*
X127329010Y-92215087D01*
X127329012Y-92215077D01*
X127329015Y-92215066D01*
X127372541Y-91996239D01*
X127393233Y-91892213D01*
X127425500Y-91564600D01*
X127425500Y-91235400D01*
X127393233Y-90907787D01*
X127361848Y-90750000D01*
X127329015Y-90584933D01*
X127329012Y-90584922D01*
X127329011Y-90584919D01*
X127329010Y-90584913D01*
X127233448Y-90269889D01*
X127225210Y-90250000D01*
X127198822Y-90186293D01*
X127181185Y-90143713D01*
X131309500Y-90143713D01*
X131309500Y-90356286D01*
X131336213Y-90524949D01*
X131342754Y-90566243D01*
X131348823Y-90584922D01*
X131408444Y-90768414D01*
X131504951Y-90957820D01*
X131629890Y-91129786D01*
X131780213Y-91280109D01*
X131952179Y-91405048D01*
X131952181Y-91405049D01*
X131952184Y-91405051D01*
X132141588Y-91501557D01*
X132343757Y-91567246D01*
X132553713Y-91600500D01*
X132553714Y-91600500D01*
X132766286Y-91600500D01*
X132766287Y-91600500D01*
X132976243Y-91567246D01*
X133178412Y-91501557D01*
X133367816Y-91405051D01*
X133454138Y-91342335D01*
X133539786Y-91280109D01*
X133539788Y-91280106D01*
X133539792Y-91280104D01*
X133690104Y-91129792D01*
X133690106Y-91129788D01*
X133690109Y-91129786D01*
X133775890Y-91011717D01*
X133815051Y-90957816D01*
X133819793Y-90948508D01*
X133867763Y-90897711D01*
X133935583Y-90880911D01*
X134001719Y-90903445D01*
X134040763Y-90948500D01*
X134045373Y-90957547D01*
X134084728Y-91011716D01*
X134717037Y-90379408D01*
X134734075Y-90442993D01*
X134799901Y-90557007D01*
X134892993Y-90650099D01*
X135007007Y-90715925D01*
X135070590Y-90732962D01*
X134438282Y-91365269D01*
X134438282Y-91365270D01*
X134492449Y-91404624D01*
X134681782Y-91501095D01*
X134883870Y-91566757D01*
X135093754Y-91600000D01*
X135306246Y-91600000D01*
X135516127Y-91566757D01*
X135516130Y-91566757D01*
X135718217Y-91501095D01*
X135907554Y-91404622D01*
X135961716Y-91365270D01*
X135961717Y-91365270D01*
X135329408Y-90732962D01*
X135392993Y-90715925D01*
X135507007Y-90650099D01*
X135600099Y-90557007D01*
X135665925Y-90442993D01*
X135682962Y-90379408D01*
X136315270Y-91011717D01*
X136315270Y-91011716D01*
X136354622Y-90957555D01*
X136359232Y-90948507D01*
X136407205Y-90897709D01*
X136475025Y-90880912D01*
X136541161Y-90903447D01*
X136580204Y-90948504D01*
X136584949Y-90957817D01*
X136709890Y-91129786D01*
X136860213Y-91280109D01*
X137032179Y-91405048D01*
X137032181Y-91405049D01*
X137032184Y-91405051D01*
X137221588Y-91501557D01*
X137423757Y-91567246D01*
X137633713Y-91600500D01*
X137633714Y-91600500D01*
X137846286Y-91600500D01*
X137846287Y-91600500D01*
X138056243Y-91567246D01*
X138258412Y-91501557D01*
X138447816Y-91405051D01*
X138534138Y-91342335D01*
X138619786Y-91280109D01*
X138619788Y-91280106D01*
X138619792Y-91280104D01*
X138770104Y-91129792D01*
X138770106Y-91129788D01*
X138770109Y-91129786D01*
X138895048Y-90957820D01*
X138895047Y-90957820D01*
X138895051Y-90957816D01*
X138899514Y-90949054D01*
X138947488Y-90898259D01*
X139015308Y-90881463D01*
X139081444Y-90903999D01*
X139120486Y-90949056D01*
X139124951Y-90957820D01*
X139249890Y-91129786D01*
X139400213Y-91280109D01*
X139572179Y-91405048D01*
X139572181Y-91405049D01*
X139572184Y-91405051D01*
X139761588Y-91501557D01*
X139963757Y-91567246D01*
X140173713Y-91600500D01*
X140173714Y-91600500D01*
X140386286Y-91600500D01*
X140386287Y-91600500D01*
X140596243Y-91567246D01*
X140798412Y-91501557D01*
X140987816Y-91405051D01*
X141074138Y-91342335D01*
X141159786Y-91280109D01*
X141159788Y-91280106D01*
X141159792Y-91280104D01*
X141310104Y-91129792D01*
X141310106Y-91129788D01*
X141310109Y-91129786D01*
X141435048Y-90957820D01*
X141435047Y-90957820D01*
X141435051Y-90957816D01*
X141439514Y-90949054D01*
X141487488Y-90898259D01*
X141555308Y-90881463D01*
X141621444Y-90903999D01*
X141660486Y-90949056D01*
X141664951Y-90957820D01*
X141789890Y-91129786D01*
X141940213Y-91280109D01*
X142112179Y-91405048D01*
X142112181Y-91405049D01*
X142112184Y-91405051D01*
X142301588Y-91501557D01*
X142503757Y-91567246D01*
X142713713Y-91600500D01*
X142713714Y-91600500D01*
X142926286Y-91600500D01*
X142926287Y-91600500D01*
X143136243Y-91567246D01*
X143338412Y-91501557D01*
X143527816Y-91405051D01*
X143614138Y-91342335D01*
X143699786Y-91280109D01*
X143699788Y-91280106D01*
X143699792Y-91280104D01*
X143850104Y-91129792D01*
X143850106Y-91129788D01*
X143850109Y-91129786D01*
X143975048Y-90957820D01*
X143975047Y-90957820D01*
X143975051Y-90957816D01*
X143979514Y-90949054D01*
X144027488Y-90898259D01*
X144095308Y-90881463D01*
X144161444Y-90903999D01*
X144200486Y-90949056D01*
X144204951Y-90957820D01*
X144329890Y-91129786D01*
X144480213Y-91280109D01*
X144652179Y-91405048D01*
X144652181Y-91405049D01*
X144652184Y-91405051D01*
X144841588Y-91501557D01*
X145043757Y-91567246D01*
X145253713Y-91600500D01*
X145253714Y-91600500D01*
X145466286Y-91600500D01*
X145466287Y-91600500D01*
X145676243Y-91567246D01*
X145878412Y-91501557D01*
X146067816Y-91405051D01*
X146239792Y-91280104D01*
X146353329Y-91166566D01*
X146414648Y-91133084D01*
X146484340Y-91138068D01*
X146540274Y-91179939D01*
X146557189Y-91210917D01*
X146606202Y-91342328D01*
X146606206Y-91342335D01*
X146692452Y-91457544D01*
X146692455Y-91457547D01*
X146807664Y-91543793D01*
X146807671Y-91543797D01*
X146942517Y-91594091D01*
X146942516Y-91594091D01*
X146949444Y-91594835D01*
X147002127Y-91600500D01*
X148797872Y-91600499D01*
X148857483Y-91594091D01*
X148992331Y-91543796D01*
X149107546Y-91457546D01*
X149193796Y-91342331D01*
X149244091Y-91207483D01*
X149250500Y-91147873D01*
X149250499Y-89352128D01*
X149244091Y-89292517D01*
X149242810Y-89289083D01*
X149193797Y-89157671D01*
X149193793Y-89157664D01*
X149107547Y-89042455D01*
X149107544Y-89042452D01*
X148992335Y-88956206D01*
X148992328Y-88956202D01*
X148857482Y-88905908D01*
X148857483Y-88905908D01*
X148797883Y-88899501D01*
X148797881Y-88899500D01*
X148797873Y-88899500D01*
X148797864Y-88899500D01*
X147002129Y-88899500D01*
X147002123Y-88899501D01*
X146942516Y-88905908D01*
X146807671Y-88956202D01*
X146807664Y-88956206D01*
X146692455Y-89042452D01*
X146692452Y-89042455D01*
X146606206Y-89157664D01*
X146606203Y-89157669D01*
X146557189Y-89289083D01*
X146515317Y-89345016D01*
X146449853Y-89369433D01*
X146381580Y-89354581D01*
X146353326Y-89333430D01*
X146239786Y-89219890D01*
X146067820Y-89094951D01*
X145878414Y-88998444D01*
X145878413Y-88998443D01*
X145878412Y-88998443D01*
X145676243Y-88932754D01*
X145676241Y-88932753D01*
X145676240Y-88932753D01*
X145514957Y-88907208D01*
X145466287Y-88899500D01*
X145253713Y-88899500D01*
X145205042Y-88907208D01*
X145043760Y-88932753D01*
X144841585Y-88998444D01*
X144652179Y-89094951D01*
X144480213Y-89219890D01*
X144329890Y-89370213D01*
X144204949Y-89542182D01*
X144200484Y-89550946D01*
X144152509Y-89601742D01*
X144084688Y-89618536D01*
X144018553Y-89595998D01*
X143979516Y-89550946D01*
X143975050Y-89542182D01*
X143850109Y-89370213D01*
X143699786Y-89219890D01*
X143527820Y-89094951D01*
X143338414Y-88998444D01*
X143338413Y-88998443D01*
X143338412Y-88998443D01*
X143136243Y-88932754D01*
X143136241Y-88932753D01*
X143136240Y-88932753D01*
X142974957Y-88907208D01*
X142926287Y-88899500D01*
X142713713Y-88899500D01*
X142665042Y-88907208D01*
X142503760Y-88932753D01*
X142301585Y-88998444D01*
X142112179Y-89094951D01*
X141940213Y-89219890D01*
X141789890Y-89370213D01*
X141664949Y-89542182D01*
X141660484Y-89550946D01*
X141612509Y-89601742D01*
X141544688Y-89618536D01*
X141478553Y-89595998D01*
X141439516Y-89550946D01*
X141435050Y-89542182D01*
X141310109Y-89370213D01*
X141159786Y-89219890D01*
X140987820Y-89094951D01*
X140798414Y-88998444D01*
X140798413Y-88998443D01*
X140798412Y-88998443D01*
X140596243Y-88932754D01*
X140596241Y-88932753D01*
X140596240Y-88932753D01*
X140434957Y-88907208D01*
X140386287Y-88899500D01*
X140173713Y-88899500D01*
X140125042Y-88907208D01*
X139963760Y-88932753D01*
X139761585Y-88998444D01*
X139572179Y-89094951D01*
X139400213Y-89219890D01*
X139249890Y-89370213D01*
X139124949Y-89542182D01*
X139120484Y-89550946D01*
X139072509Y-89601742D01*
X139004688Y-89618536D01*
X138938553Y-89595998D01*
X138899516Y-89550946D01*
X138895050Y-89542182D01*
X138770109Y-89370213D01*
X138619786Y-89219890D01*
X138447820Y-89094951D01*
X138258414Y-88998444D01*
X138258413Y-88998443D01*
X138258412Y-88998443D01*
X138056243Y-88932754D01*
X138056241Y-88932753D01*
X138056240Y-88932753D01*
X137894957Y-88907208D01*
X137846287Y-88899500D01*
X137633713Y-88899500D01*
X137585042Y-88907208D01*
X137423760Y-88932753D01*
X137221585Y-88998444D01*
X137032179Y-89094951D01*
X136860213Y-89219890D01*
X136709890Y-89370213D01*
X136584949Y-89542182D01*
X136580202Y-89551499D01*
X136532227Y-89602293D01*
X136464405Y-89619087D01*
X136398271Y-89596548D01*
X136359234Y-89551495D01*
X136354626Y-89542452D01*
X136315270Y-89488282D01*
X136315269Y-89488282D01*
X135682962Y-90120590D01*
X135665925Y-90057007D01*
X135600099Y-89942993D01*
X135507007Y-89849901D01*
X135392993Y-89784075D01*
X135329409Y-89767037D01*
X135961716Y-89134728D01*
X135907550Y-89095375D01*
X135718217Y-88998904D01*
X135516129Y-88933242D01*
X135306246Y-88900000D01*
X135093754Y-88900000D01*
X134883872Y-88933242D01*
X134883869Y-88933242D01*
X134681782Y-88998904D01*
X134492439Y-89095380D01*
X134438282Y-89134727D01*
X134438282Y-89134728D01*
X135070591Y-89767037D01*
X135007007Y-89784075D01*
X134892993Y-89849901D01*
X134799901Y-89942993D01*
X134734075Y-90057007D01*
X134717037Y-90120591D01*
X134084728Y-89488282D01*
X134084727Y-89488282D01*
X134045380Y-89542440D01*
X134045376Y-89542446D01*
X134040760Y-89551505D01*
X133992781Y-89602297D01*
X133924959Y-89619087D01*
X133858826Y-89596543D01*
X133819794Y-89551493D01*
X133815051Y-89542184D01*
X133815049Y-89542181D01*
X133815048Y-89542179D01*
X133690109Y-89370213D01*
X133539786Y-89219890D01*
X133367820Y-89094951D01*
X133178414Y-88998444D01*
X133178413Y-88998443D01*
X133178412Y-88998443D01*
X132976243Y-88932754D01*
X132976241Y-88932753D01*
X132976240Y-88932753D01*
X132814957Y-88907208D01*
X132766287Y-88899500D01*
X132553713Y-88899500D01*
X132505042Y-88907208D01*
X132343760Y-88932753D01*
X132141585Y-88998444D01*
X131952179Y-89094951D01*
X131780213Y-89219890D01*
X131629890Y-89370213D01*
X131504951Y-89542179D01*
X131408444Y-89731585D01*
X131342753Y-89933760D01*
X131309500Y-90143713D01*
X127181185Y-90143713D01*
X127123680Y-90004886D01*
X127107469Y-89965749D01*
X126952286Y-89675421D01*
X126769393Y-89401702D01*
X126560551Y-89147228D01*
X126560550Y-89147227D01*
X126560546Y-89147222D01*
X126327777Y-88914453D01*
X126073303Y-88705611D01*
X126073302Y-88705610D01*
X126073298Y-88705607D01*
X125799579Y-88522714D01*
X125799574Y-88522711D01*
X125799567Y-88522707D01*
X125509258Y-88367535D01*
X125509251Y-88367531D01*
X125250151Y-88260208D01*
X125205112Y-88241552D01*
X124890077Y-88145987D01*
X124890066Y-88145984D01*
X124739906Y-88116117D01*
X124677995Y-88083733D01*
X124643421Y-88023017D01*
X124647160Y-87953248D01*
X124688026Y-87896575D01*
X124753044Y-87870994D01*
X124764097Y-87870500D01*
X155835903Y-87870500D01*
X155902942Y-87890185D01*
X155948697Y-87942989D01*
X155958641Y-88012147D01*
X155929616Y-88075703D01*
X155870838Y-88113477D01*
X155860094Y-88116117D01*
X155709933Y-88145984D01*
X155709922Y-88145987D01*
X155394887Y-88241552D01*
X155090755Y-88367528D01*
X155090741Y-88367535D01*
X154800432Y-88522707D01*
X154800414Y-88522718D01*
X154526710Y-88705601D01*
X154526696Y-88705611D01*
X154272222Y-88914453D01*
X154039453Y-89147222D01*
X153830611Y-89401696D01*
X153830601Y-89401710D01*
X153647718Y-89675414D01*
X153647707Y-89675432D01*
X153492535Y-89965741D01*
X153492528Y-89965755D01*
X153366552Y-90269887D01*
X153270987Y-90584922D01*
X153270984Y-90584933D01*
X153206768Y-90907781D01*
X153206765Y-90907798D01*
X153183121Y-91147872D01*
X153174500Y-91235400D01*
X153174500Y-91564600D01*
X153174761Y-91567246D01*
X153206765Y-91892201D01*
X153206768Y-91892218D01*
X153270984Y-92215066D01*
X153270987Y-92215077D01*
X153366552Y-92530112D01*
X153492528Y-92834244D01*
X153492531Y-92834251D01*
X153520988Y-92887491D01*
X153647707Y-93124567D01*
X153647718Y-93124585D01*
X153830601Y-93398289D01*
X153830611Y-93398303D01*
X154039453Y-93652777D01*
X154272222Y-93885546D01*
X154272227Y-93885550D01*
X154272228Y-93885551D01*
X154526702Y-94094393D01*
X154800421Y-94277286D01*
X155090749Y-94432469D01*
X155394889Y-94558448D01*
X155709913Y-94654010D01*
X155709919Y-94654011D01*
X155709922Y-94654012D01*
X155709933Y-94654015D01*
X155890361Y-94689903D01*
X156032787Y-94718233D01*
X156360400Y-94750500D01*
X156360403Y-94750500D01*
X156689597Y-94750500D01*
X156689600Y-94750500D01*
X157017213Y-94718233D01*
X157194760Y-94682916D01*
X157340066Y-94654015D01*
X157340077Y-94654012D01*
X157340077Y-94654011D01*
X157340087Y-94654010D01*
X157655111Y-94558448D01*
X157959251Y-94432469D01*
X158249579Y-94277286D01*
X158523298Y-94094393D01*
X158777772Y-93885551D01*
X159010551Y-93652772D01*
X159219393Y-93398298D01*
X159402286Y-93124579D01*
X159557469Y-92834251D01*
X159683448Y-92530111D01*
X159779010Y-92215087D01*
X159779012Y-92215077D01*
X159779015Y-92215066D01*
X159822541Y-91996239D01*
X159843233Y-91892213D01*
X159875500Y-91564600D01*
X159875500Y-91235400D01*
X159843233Y-90907787D01*
X159811848Y-90750000D01*
X159779015Y-90584933D01*
X159779012Y-90584922D01*
X159779011Y-90584919D01*
X159779010Y-90584913D01*
X159683448Y-90269889D01*
X159557469Y-89965749D01*
X159402286Y-89675421D01*
X159219393Y-89401702D01*
X159010551Y-89147228D01*
X159010550Y-89147227D01*
X159010546Y-89147222D01*
X158777777Y-88914453D01*
X158523303Y-88705611D01*
X158523302Y-88705610D01*
X158523298Y-88705607D01*
X158249579Y-88522714D01*
X158249574Y-88522711D01*
X158249567Y-88522707D01*
X157959258Y-88367535D01*
X157959251Y-88367531D01*
X157700151Y-88260208D01*
X157655112Y-88241552D01*
X157340077Y-88145987D01*
X157340066Y-88145984D01*
X157189906Y-88116117D01*
X157127995Y-88083733D01*
X157093421Y-88023017D01*
X157097160Y-87953248D01*
X157138026Y-87896575D01*
X157203044Y-87870994D01*
X157214097Y-87870500D01*
X164823075Y-87870500D01*
X164890114Y-87890185D01*
X164935869Y-87942989D01*
X164945813Y-88012147D01*
X164916788Y-88075703D01*
X164895960Y-88094819D01*
X164875207Y-88109896D01*
X164724890Y-88260213D01*
X164599951Y-88432179D01*
X164503444Y-88621585D01*
X164437753Y-88823760D01*
X164404500Y-89033713D01*
X164404500Y-89246286D01*
X164429114Y-89401696D01*
X164437754Y-89456243D01*
X164490665Y-89619087D01*
X164503444Y-89658414D01*
X164599951Y-89847820D01*
X164724890Y-90019786D01*
X164875213Y-90170109D01*
X165047182Y-90295050D01*
X165055946Y-90299516D01*
X165106742Y-90347491D01*
X165123536Y-90415312D01*
X165100998Y-90481447D01*
X165055946Y-90520484D01*
X165047182Y-90524949D01*
X164875213Y-90649890D01*
X164724890Y-90800213D01*
X164599951Y-90972179D01*
X164503444Y-91161585D01*
X164437753Y-91363760D01*
X164404500Y-91573713D01*
X164404500Y-91786286D01*
X164437753Y-91996239D01*
X164503444Y-92198414D01*
X164599951Y-92387820D01*
X164724890Y-92559786D01*
X164875213Y-92710109D01*
X165047182Y-92835050D01*
X165055946Y-92839516D01*
X165106742Y-92887491D01*
X165123536Y-92955312D01*
X165100998Y-93021447D01*
X165055946Y-93060484D01*
X165047182Y-93064949D01*
X164875213Y-93189890D01*
X164724890Y-93340213D01*
X164599951Y-93512179D01*
X164503444Y-93701585D01*
X164437753Y-93903760D01*
X164407561Y-94094388D01*
X164404500Y-94113713D01*
X164404500Y-94326287D01*
X164437754Y-94536243D01*
X164496886Y-94718233D01*
X164503444Y-94738414D01*
X164599951Y-94927820D01*
X164724890Y-95099786D01*
X164875213Y-95250109D01*
X165047182Y-95375050D01*
X165055946Y-95379516D01*
X165106742Y-95427491D01*
X165123536Y-95495312D01*
X165100998Y-95561447D01*
X165055946Y-95600484D01*
X165047182Y-95604949D01*
X164875213Y-95729890D01*
X164724890Y-95880213D01*
X164599951Y-96052179D01*
X164503444Y-96241585D01*
X164437753Y-96443760D01*
X164404500Y-96653713D01*
X164404500Y-96866286D01*
X164437753Y-97076239D01*
X164503444Y-97278414D01*
X164599951Y-97467820D01*
X164724890Y-97639786D01*
X164875213Y-97790109D01*
X165047182Y-97915050D01*
X165055946Y-97919516D01*
X165106742Y-97967491D01*
X165123536Y-98035312D01*
X165100998Y-98101447D01*
X165055946Y-98140484D01*
X165047182Y-98144949D01*
X164875213Y-98269890D01*
X164724890Y-98420213D01*
X164599951Y-98592179D01*
X164503444Y-98781585D01*
X164437753Y-98983760D01*
X164404500Y-99193713D01*
X164404500Y-99406286D01*
X164437753Y-99616239D01*
X164503444Y-99818414D01*
X164599951Y-100007820D01*
X164724890Y-100179786D01*
X164875213Y-100330109D01*
X165047182Y-100455050D01*
X165055946Y-100459516D01*
X165106742Y-100507491D01*
X165123536Y-100575312D01*
X165100998Y-100641447D01*
X165055946Y-100680484D01*
X165047182Y-100684949D01*
X164875213Y-100809890D01*
X164724890Y-100960213D01*
X164599951Y-101132179D01*
X164503444Y-101321585D01*
X164437753Y-101523760D01*
X164413895Y-101674394D01*
X164404500Y-101733713D01*
X164404500Y-101946287D01*
X164437754Y-102156243D01*
X164475425Y-102272183D01*
X164503444Y-102358414D01*
X164599951Y-102547820D01*
X164724890Y-102719786D01*
X164875213Y-102870109D01*
X165047182Y-102995050D01*
X165055946Y-102999516D01*
X165106742Y-103047491D01*
X165123536Y-103115312D01*
X165100998Y-103181447D01*
X165055946Y-103220484D01*
X165047182Y-103224949D01*
X164875213Y-103349890D01*
X164724890Y-103500213D01*
X164599951Y-103672179D01*
X164503444Y-103861585D01*
X164437753Y-104063760D01*
X164421141Y-104168644D01*
X164404500Y-104273713D01*
X164404500Y-104486287D01*
X164437754Y-104696243D01*
X164487713Y-104850001D01*
X164503444Y-104898414D01*
X164599951Y-105087820D01*
X164724890Y-105259786D01*
X164875213Y-105410109D01*
X165047182Y-105535050D01*
X165055946Y-105539516D01*
X165106742Y-105587491D01*
X165123536Y-105655312D01*
X165100998Y-105721447D01*
X165055946Y-105760484D01*
X165047182Y-105764949D01*
X164875213Y-105889890D01*
X164724890Y-106040213D01*
X164599951Y-106212179D01*
X164503444Y-106401585D01*
X164437753Y-106603760D01*
X164404500Y-106813713D01*
X164404500Y-107026286D01*
X164437753Y-107236239D01*
X164503444Y-107438414D01*
X164599951Y-107627820D01*
X164724890Y-107799786D01*
X164875213Y-107950109D01*
X165047182Y-108075050D01*
X165055946Y-108079516D01*
X165106742Y-108127491D01*
X165123536Y-108195312D01*
X165100998Y-108261447D01*
X165055946Y-108300484D01*
X165047182Y-108304949D01*
X164875213Y-108429890D01*
X164724890Y-108580213D01*
X164599951Y-108752179D01*
X164503444Y-108941585D01*
X164437753Y-109143760D01*
X164404500Y-109353713D01*
X164404500Y-109566286D01*
X164437753Y-109776239D01*
X164503444Y-109978414D01*
X164599951Y-110167820D01*
X164724890Y-110339786D01*
X164838430Y-110453326D01*
X164871915Y-110514649D01*
X164866931Y-110584341D01*
X164825059Y-110640274D01*
X164794083Y-110657189D01*
X164662669Y-110706203D01*
X164662664Y-110706206D01*
X164547455Y-110792452D01*
X164547452Y-110792455D01*
X164461206Y-110907664D01*
X164461202Y-110907671D01*
X164410908Y-111042517D01*
X164405856Y-111089515D01*
X164404501Y-111102123D01*
X164404500Y-111102135D01*
X164404500Y-112897870D01*
X164404501Y-112897876D01*
X164410908Y-112957483D01*
X164464303Y-113100641D01*
X164461208Y-113101795D01*
X164472637Y-113154362D01*
X164448211Y-113219823D01*
X164392272Y-113261687D01*
X164348954Y-113269500D01*
X162879569Y-113269500D01*
X162812530Y-113249815D01*
X162766775Y-113197011D01*
X162756831Y-113127853D01*
X162769084Y-113089205D01*
X162830218Y-112969223D01*
X162830218Y-112969222D01*
X162830220Y-112969219D01*
X162893477Y-112774534D01*
X162925500Y-112572352D01*
X162925500Y-112367648D01*
X162908087Y-112257708D01*
X162893477Y-112165465D01*
X162848713Y-112027697D01*
X162830220Y-111970781D01*
X162830218Y-111970778D01*
X162830218Y-111970776D01*
X162772047Y-111856611D01*
X162737287Y-111788390D01*
X162705092Y-111744077D01*
X162616971Y-111622786D01*
X162472213Y-111478028D01*
X162306613Y-111357715D01*
X162306612Y-111357714D01*
X162306610Y-111357713D01*
X162214470Y-111310765D01*
X162124223Y-111264781D01*
X161929534Y-111201522D01*
X161754995Y-111173878D01*
X161727352Y-111169500D01*
X161522648Y-111169500D01*
X161498329Y-111173351D01*
X161320465Y-111201522D01*
X161125776Y-111264781D01*
X160943386Y-111357715D01*
X160777786Y-111478028D01*
X160633028Y-111622786D01*
X160512713Y-111788388D01*
X160465203Y-111881630D01*
X160417228Y-111932426D01*
X160349407Y-111949220D01*
X160283272Y-111926682D01*
X160244234Y-111881628D01*
X160196861Y-111788652D01*
X160164474Y-111744077D01*
X160164474Y-111744076D01*
X159608787Y-112299764D01*
X159597518Y-112257708D01*
X159525110Y-112132292D01*
X159422708Y-112029890D01*
X159297292Y-111957482D01*
X159255233Y-111946212D01*
X159810922Y-111390524D01*
X159810921Y-111390523D01*
X159766359Y-111358147D01*
X159766350Y-111358141D01*
X159673369Y-111310765D01*
X159622573Y-111262790D01*
X159605778Y-111194969D01*
X159628315Y-111128835D01*
X159673370Y-111089795D01*
X159673920Y-111089515D01*
X159766610Y-111042287D01*
X159816144Y-111006298D01*
X159932213Y-110921971D01*
X159932215Y-110921968D01*
X159932219Y-110921966D01*
X160076966Y-110777219D01*
X160076968Y-110777215D01*
X160076971Y-110777213D01*
X160135541Y-110696597D01*
X160197287Y-110611610D01*
X160290220Y-110429219D01*
X160353477Y-110234534D01*
X160385500Y-110032352D01*
X160385500Y-109827648D01*
X160377358Y-109776243D01*
X160353477Y-109625465D01*
X160290218Y-109430776D01*
X160250952Y-109353713D01*
X160197287Y-109248390D01*
X160189556Y-109237749D01*
X160076971Y-109082786D01*
X159932213Y-108938028D01*
X159766613Y-108817715D01*
X159766612Y-108817714D01*
X159766610Y-108817713D01*
X159709653Y-108788691D01*
X159584223Y-108724781D01*
X159389534Y-108661522D01*
X159214995Y-108633878D01*
X159187352Y-108629500D01*
X158982648Y-108629500D01*
X158958329Y-108633351D01*
X158780465Y-108661522D01*
X158585776Y-108724781D01*
X158403386Y-108817715D01*
X158237786Y-108938028D01*
X158093028Y-109082786D01*
X157972715Y-109248386D01*
X157879781Y-109430776D01*
X157816522Y-109625465D01*
X157784500Y-109827648D01*
X157784500Y-110032351D01*
X157816522Y-110234534D01*
X157879781Y-110429223D01*
X157972715Y-110611613D01*
X158093028Y-110777213D01*
X158237786Y-110921971D01*
X158403385Y-111042284D01*
X158403387Y-111042285D01*
X158403390Y-111042287D01*
X158496080Y-111089515D01*
X158496630Y-111089795D01*
X158547426Y-111137770D01*
X158564221Y-111205591D01*
X158541684Y-111271725D01*
X158496630Y-111310765D01*
X158403644Y-111358143D01*
X158359077Y-111390523D01*
X158359077Y-111390524D01*
X158914766Y-111946212D01*
X158872708Y-111957482D01*
X158747292Y-112029890D01*
X158644890Y-112132292D01*
X158572482Y-112257708D01*
X158561212Y-112299765D01*
X158005524Y-111744077D01*
X158005523Y-111744077D01*
X157973143Y-111788644D01*
X157925765Y-111881630D01*
X157877790Y-111932426D01*
X157809969Y-111949221D01*
X157743834Y-111926683D01*
X157704795Y-111881630D01*
X157657284Y-111788385D01*
X157536971Y-111622786D01*
X157392213Y-111478028D01*
X157226613Y-111357715D01*
X157226612Y-111357714D01*
X157226610Y-111357713D01*
X157134470Y-111310765D01*
X157044223Y-111264781D01*
X156849534Y-111201522D01*
X156674995Y-111173878D01*
X156647352Y-111169500D01*
X156442648Y-111169500D01*
X156418329Y-111173351D01*
X156240465Y-111201522D01*
X156045776Y-111264781D01*
X155863386Y-111357715D01*
X155697786Y-111478028D01*
X155553028Y-111622786D01*
X155432715Y-111788386D01*
X155385485Y-111881080D01*
X155337510Y-111931876D01*
X155269689Y-111948671D01*
X155203554Y-111926134D01*
X155164515Y-111881080D01*
X155152047Y-111856610D01*
X155117287Y-111788390D01*
X155085092Y-111744077D01*
X154996971Y-111622786D01*
X154852213Y-111478028D01*
X154686613Y-111357715D01*
X154686612Y-111357714D01*
X154686610Y-111357713D01*
X154594470Y-111310765D01*
X154504223Y-111264781D01*
X154309534Y-111201522D01*
X154134995Y-111173878D01*
X154107352Y-111169500D01*
X153902648Y-111169500D01*
X153878329Y-111173351D01*
X153700465Y-111201522D01*
X153505776Y-111264781D01*
X153323386Y-111357715D01*
X153157786Y-111478028D01*
X153013028Y-111622786D01*
X152892715Y-111788386D01*
X152845485Y-111881080D01*
X152797510Y-111931876D01*
X152729689Y-111948671D01*
X152663554Y-111926134D01*
X152624515Y-111881080D01*
X152612047Y-111856610D01*
X152577287Y-111788390D01*
X152545092Y-111744077D01*
X152456971Y-111622786D01*
X152312213Y-111478028D01*
X152146613Y-111357715D01*
X152146612Y-111357714D01*
X152146610Y-111357713D01*
X152054470Y-111310765D01*
X151964223Y-111264781D01*
X151769534Y-111201522D01*
X151594995Y-111173878D01*
X151567352Y-111169500D01*
X151362648Y-111169500D01*
X151338329Y-111173351D01*
X151160465Y-111201522D01*
X150965776Y-111264781D01*
X150783386Y-111357715D01*
X150617786Y-111478028D01*
X150473028Y-111622786D01*
X150352715Y-111788386D01*
X150305485Y-111881080D01*
X150257510Y-111931876D01*
X150189689Y-111948671D01*
X150123554Y-111926134D01*
X150084515Y-111881080D01*
X150072047Y-111856610D01*
X150037287Y-111788390D01*
X150005092Y-111744077D01*
X149916971Y-111622786D01*
X149772213Y-111478028D01*
X149606613Y-111357715D01*
X149606612Y-111357714D01*
X149606610Y-111357713D01*
X149514470Y-111310765D01*
X149424223Y-111264781D01*
X149229534Y-111201522D01*
X149054995Y-111173878D01*
X149027352Y-111169500D01*
X148822648Y-111169500D01*
X148798329Y-111173351D01*
X148620465Y-111201522D01*
X148425776Y-111264781D01*
X148243386Y-111357715D01*
X148077786Y-111478028D01*
X147933028Y-111622786D01*
X147812715Y-111788386D01*
X147765485Y-111881080D01*
X147717510Y-111931876D01*
X147649689Y-111948671D01*
X147583554Y-111926134D01*
X147544515Y-111881080D01*
X147532047Y-111856610D01*
X147497287Y-111788390D01*
X147465092Y-111744077D01*
X147376971Y-111622786D01*
X147232213Y-111478028D01*
X147066613Y-111357715D01*
X147066612Y-111357714D01*
X147066610Y-111357713D01*
X146974470Y-111310765D01*
X146884223Y-111264781D01*
X146689534Y-111201522D01*
X146514995Y-111173878D01*
X146487352Y-111169500D01*
X146282648Y-111169500D01*
X146258329Y-111173351D01*
X146080465Y-111201522D01*
X145885776Y-111264781D01*
X145703386Y-111357715D01*
X145537786Y-111478028D01*
X145393028Y-111622786D01*
X145272715Y-111788386D01*
X145225485Y-111881080D01*
X145177510Y-111931876D01*
X145109689Y-111948671D01*
X145043554Y-111926134D01*
X145004515Y-111881080D01*
X144992047Y-111856610D01*
X144957287Y-111788390D01*
X144925092Y-111744077D01*
X144836971Y-111622786D01*
X144692213Y-111478028D01*
X144526613Y-111357715D01*
X144526612Y-111357714D01*
X144526610Y-111357713D01*
X144434470Y-111310765D01*
X144344223Y-111264781D01*
X144149534Y-111201522D01*
X143974995Y-111173878D01*
X143947352Y-111169500D01*
X143742648Y-111169500D01*
X143718329Y-111173351D01*
X143540465Y-111201522D01*
X143345776Y-111264781D01*
X143163386Y-111357715D01*
X142997786Y-111478028D01*
X142853028Y-111622786D01*
X142732715Y-111788386D01*
X142685485Y-111881080D01*
X142637510Y-111931876D01*
X142569689Y-111948671D01*
X142503554Y-111926134D01*
X142464515Y-111881080D01*
X142452047Y-111856610D01*
X142417287Y-111788390D01*
X142385092Y-111744077D01*
X142296971Y-111622786D01*
X142152213Y-111478028D01*
X141986613Y-111357715D01*
X141986612Y-111357714D01*
X141986610Y-111357713D01*
X141894470Y-111310765D01*
X141804223Y-111264781D01*
X141609534Y-111201522D01*
X141434995Y-111173878D01*
X141407352Y-111169500D01*
X141202648Y-111169500D01*
X141178329Y-111173351D01*
X141000465Y-111201522D01*
X140805776Y-111264781D01*
X140623386Y-111357715D01*
X140457786Y-111478028D01*
X140313028Y-111622786D01*
X140192715Y-111788386D01*
X140145485Y-111881080D01*
X140097510Y-111931876D01*
X140029689Y-111948671D01*
X139963554Y-111926134D01*
X139924515Y-111881080D01*
X139912047Y-111856610D01*
X139877287Y-111788390D01*
X139845092Y-111744077D01*
X139756971Y-111622786D01*
X139612213Y-111478028D01*
X139446613Y-111357715D01*
X139446612Y-111357714D01*
X139446610Y-111357713D01*
X139354470Y-111310765D01*
X139264223Y-111264781D01*
X139069534Y-111201522D01*
X138894995Y-111173878D01*
X138867352Y-111169500D01*
X138662648Y-111169500D01*
X138638329Y-111173351D01*
X138460465Y-111201522D01*
X138265776Y-111264781D01*
X138083386Y-111357715D01*
X137917786Y-111478028D01*
X137773028Y-111622786D01*
X137652715Y-111788386D01*
X137605485Y-111881080D01*
X137557510Y-111931876D01*
X137489689Y-111948671D01*
X137423554Y-111926134D01*
X137384515Y-111881080D01*
X137372047Y-111856610D01*
X137337287Y-111788390D01*
X137305092Y-111744077D01*
X137216971Y-111622786D01*
X137072213Y-111478028D01*
X136906614Y-111357715D01*
X136886668Y-111347552D01*
X136813917Y-111310483D01*
X136763123Y-111262511D01*
X136746328Y-111194690D01*
X136768865Y-111128555D01*
X136813917Y-111089516D01*
X136906610Y-111042287D01*
X136944360Y-111014860D01*
X137072213Y-110921971D01*
X137072215Y-110921968D01*
X137072219Y-110921966D01*
X137216966Y-110777219D01*
X137216968Y-110777215D01*
X137216971Y-110777213D01*
X137275541Y-110696597D01*
X137337287Y-110611610D01*
X137430220Y-110429219D01*
X137493477Y-110234534D01*
X137525500Y-110032352D01*
X137525500Y-109827648D01*
X137517358Y-109776243D01*
X137493477Y-109625465D01*
X137430218Y-109430776D01*
X137390952Y-109353713D01*
X137337287Y-109248390D01*
X137329556Y-109237749D01*
X137216971Y-109082786D01*
X137072213Y-108938028D01*
X136906614Y-108817715D01*
X136900006Y-108814348D01*
X136813917Y-108770483D01*
X136763123Y-108722511D01*
X136746328Y-108654690D01*
X136768865Y-108588555D01*
X136813917Y-108549516D01*
X136906610Y-108502287D01*
X136962749Y-108461500D01*
X137072213Y-108381971D01*
X137072215Y-108381968D01*
X137072219Y-108381966D01*
X137216966Y-108237219D01*
X137216968Y-108237215D01*
X137216971Y-108237213D01*
X137303179Y-108118556D01*
X137337287Y-108071610D01*
X137430220Y-107889219D01*
X137493477Y-107694534D01*
X137525500Y-107492352D01*
X137525500Y-107287648D01*
X137517358Y-107236243D01*
X137493477Y-107085465D01*
X137430218Y-106890776D01*
X137384515Y-106801080D01*
X137337287Y-106708390D01*
X137329556Y-106697749D01*
X137216971Y-106542786D01*
X137072213Y-106398028D01*
X136906614Y-106277715D01*
X136900006Y-106274348D01*
X136813917Y-106230483D01*
X136763123Y-106182511D01*
X136746328Y-106114690D01*
X136768865Y-106048555D01*
X136813917Y-106009516D01*
X136906610Y-105962287D01*
X136951774Y-105929474D01*
X137072213Y-105841971D01*
X137072215Y-105841968D01*
X137072219Y-105841966D01*
X137216966Y-105697219D01*
X137216968Y-105697215D01*
X137216971Y-105697213D01*
X137269732Y-105624590D01*
X137337287Y-105531610D01*
X137430220Y-105349219D01*
X137493477Y-105154534D01*
X137525500Y-104952352D01*
X137525500Y-104747648D01*
X137517358Y-104696243D01*
X137493477Y-104545465D01*
X137449426Y-104409890D01*
X137430220Y-104350781D01*
X137430218Y-104350778D01*
X137430218Y-104350776D01*
X137349934Y-104193212D01*
X137337287Y-104168390D01*
X137305092Y-104124077D01*
X137216971Y-104002786D01*
X137072213Y-103858028D01*
X136906614Y-103737715D01*
X136825915Y-103696597D01*
X136813917Y-103690483D01*
X136763123Y-103642511D01*
X136746328Y-103574690D01*
X136768865Y-103508555D01*
X136813917Y-103469516D01*
X136906610Y-103422287D01*
X136982467Y-103367174D01*
X137072213Y-103301971D01*
X137072215Y-103301968D01*
X137072219Y-103301966D01*
X137216966Y-103157219D01*
X137216968Y-103157215D01*
X137216971Y-103157213D01*
X137303179Y-103038556D01*
X137337287Y-102991610D01*
X137430220Y-102809219D01*
X137493477Y-102614534D01*
X137525500Y-102412352D01*
X137525500Y-102207648D01*
X137517358Y-102156243D01*
X137493477Y-102005465D01*
X137430218Y-101810776D01*
X137360727Y-101674394D01*
X137337287Y-101628390D01*
X137316603Y-101599920D01*
X137216971Y-101462786D01*
X137072213Y-101318028D01*
X136906614Y-101197715D01*
X136900006Y-101194348D01*
X136813917Y-101150483D01*
X136763123Y-101102511D01*
X136746328Y-101034690D01*
X136768865Y-100968555D01*
X136813917Y-100929516D01*
X136906610Y-100882287D01*
X136931930Y-100863891D01*
X137072213Y-100761971D01*
X137072215Y-100761968D01*
X137072219Y-100761966D01*
X137216966Y-100617219D01*
X137216968Y-100617215D01*
X137216971Y-100617213D01*
X137309093Y-100490416D01*
X137337287Y-100451610D01*
X137430220Y-100269219D01*
X137493477Y-100074534D01*
X137525500Y-99872352D01*
X137525500Y-99667648D01*
X137517358Y-99616243D01*
X137493477Y-99465465D01*
X137430218Y-99270776D01*
X137384515Y-99181080D01*
X137337287Y-99088390D01*
X137329556Y-99077749D01*
X137216971Y-98922786D01*
X137072213Y-98778028D01*
X136906614Y-98657715D01*
X136900006Y-98654348D01*
X136813917Y-98610483D01*
X136763123Y-98562511D01*
X136746328Y-98494690D01*
X136768865Y-98428555D01*
X136813917Y-98389516D01*
X136906610Y-98342287D01*
X136951774Y-98309474D01*
X137072213Y-98221971D01*
X137072215Y-98221968D01*
X137072219Y-98221966D01*
X137216966Y-98077219D01*
X137216968Y-98077215D01*
X137216971Y-98077213D01*
X137337284Y-97911614D01*
X137337286Y-97911611D01*
X137337287Y-97911610D01*
X137384516Y-97818917D01*
X137432489Y-97768123D01*
X137500310Y-97751328D01*
X137566445Y-97773865D01*
X137605485Y-97818919D01*
X137652715Y-97911614D01*
X137773028Y-98077213D01*
X137917786Y-98221971D01*
X138038226Y-98309474D01*
X138083390Y-98342287D01*
X138176080Y-98389515D01*
X138265776Y-98435218D01*
X138265778Y-98435218D01*
X138265781Y-98435220D01*
X138332804Y-98456997D01*
X138460465Y-98498477D01*
X138479697Y-98501523D01*
X138662648Y-98530500D01*
X138662649Y-98530500D01*
X138867351Y-98530500D01*
X138867352Y-98530500D01*
X139069534Y-98498477D01*
X139264219Y-98435220D01*
X139446610Y-98342287D01*
X139539590Y-98274732D01*
X139612213Y-98221971D01*
X139612215Y-98221968D01*
X139612219Y-98221966D01*
X139756966Y-98077219D01*
X139756968Y-98077215D01*
X139756971Y-98077213D01*
X139877284Y-97911614D01*
X139877286Y-97911611D01*
X139877287Y-97911610D01*
X139924516Y-97818917D01*
X139972489Y-97768123D01*
X140040310Y-97751328D01*
X140106445Y-97773865D01*
X140145485Y-97818919D01*
X140192715Y-97911614D01*
X140313028Y-98077213D01*
X140457786Y-98221971D01*
X140578226Y-98309474D01*
X140623390Y-98342287D01*
X140716080Y-98389515D01*
X140805776Y-98435218D01*
X140805778Y-98435218D01*
X140805781Y-98435220D01*
X140872804Y-98456997D01*
X141000465Y-98498477D01*
X141019697Y-98501523D01*
X141202648Y-98530500D01*
X141202649Y-98530500D01*
X141407351Y-98530500D01*
X141407352Y-98530500D01*
X141609534Y-98498477D01*
X141804219Y-98435220D01*
X141986610Y-98342287D01*
X142079590Y-98274732D01*
X142152213Y-98221971D01*
X142152215Y-98221968D01*
X142152219Y-98221966D01*
X142296966Y-98077219D01*
X142296968Y-98077215D01*
X142296971Y-98077213D01*
X142417284Y-97911614D01*
X142417286Y-97911611D01*
X142417287Y-97911610D01*
X142464516Y-97818917D01*
X142512489Y-97768123D01*
X142580310Y-97751328D01*
X142646445Y-97773865D01*
X142685485Y-97818919D01*
X142732715Y-97911614D01*
X142853028Y-98077213D01*
X142997786Y-98221971D01*
X143118226Y-98309474D01*
X143163390Y-98342287D01*
X143256080Y-98389515D01*
X143345776Y-98435218D01*
X143345778Y-98435218D01*
X143345781Y-98435220D01*
X143412804Y-98456997D01*
X143540465Y-98498477D01*
X143559697Y-98501523D01*
X143742648Y-98530500D01*
X143742649Y-98530500D01*
X143947351Y-98530500D01*
X143947352Y-98530500D01*
X144149534Y-98498477D01*
X144344219Y-98435220D01*
X144526610Y-98342287D01*
X144619590Y-98274732D01*
X144692213Y-98221971D01*
X144692215Y-98221968D01*
X144692219Y-98221966D01*
X144836966Y-98077219D01*
X144836968Y-98077215D01*
X144836971Y-98077213D01*
X144957284Y-97911614D01*
X144957286Y-97911611D01*
X144957287Y-97911610D01*
X145004516Y-97818917D01*
X145052489Y-97768123D01*
X145120310Y-97751328D01*
X145186445Y-97773865D01*
X145225485Y-97818919D01*
X145272715Y-97911614D01*
X145393028Y-98077213D01*
X145537786Y-98221971D01*
X145658226Y-98309474D01*
X145703390Y-98342287D01*
X145796080Y-98389515D01*
X145885776Y-98435218D01*
X145885778Y-98435218D01*
X145885781Y-98435220D01*
X145952804Y-98456997D01*
X146080465Y-98498477D01*
X146099697Y-98501523D01*
X146282648Y-98530500D01*
X146282649Y-98530500D01*
X146487351Y-98530500D01*
X146487352Y-98530500D01*
X146689534Y-98498477D01*
X146884219Y-98435220D01*
X147066610Y-98342287D01*
X147159590Y-98274732D01*
X147232213Y-98221971D01*
X147232215Y-98221968D01*
X147232219Y-98221966D01*
X147376966Y-98077219D01*
X147376968Y-98077215D01*
X147376971Y-98077213D01*
X147497284Y-97911614D01*
X147497286Y-97911611D01*
X147497287Y-97911610D01*
X147544516Y-97818917D01*
X147592489Y-97768123D01*
X147660310Y-97751328D01*
X147726445Y-97773865D01*
X147765485Y-97818919D01*
X147812715Y-97911614D01*
X147933028Y-98077213D01*
X148077786Y-98221971D01*
X148198226Y-98309474D01*
X148243390Y-98342287D01*
X148336080Y-98389515D01*
X148425776Y-98435218D01*
X148425778Y-98435218D01*
X148425781Y-98435220D01*
X148492804Y-98456997D01*
X148620465Y-98498477D01*
X148639697Y-98501523D01*
X148822648Y-98530500D01*
X148822649Y-98530500D01*
X149027351Y-98530500D01*
X149027352Y-98530500D01*
X149229534Y-98498477D01*
X149424219Y-98435220D01*
X149606610Y-98342287D01*
X149699590Y-98274732D01*
X149772213Y-98221971D01*
X149772215Y-98221968D01*
X149772219Y-98221966D01*
X149916966Y-98077219D01*
X149916968Y-98077215D01*
X149916971Y-98077213D01*
X150037284Y-97911614D01*
X150037286Y-97911611D01*
X150037287Y-97911610D01*
X150084516Y-97818917D01*
X150132489Y-97768123D01*
X150200310Y-97751328D01*
X150266445Y-97773865D01*
X150305485Y-97818919D01*
X150352715Y-97911614D01*
X150473028Y-98077213D01*
X150617786Y-98221971D01*
X150738226Y-98309474D01*
X150783390Y-98342287D01*
X150876080Y-98389515D01*
X150965776Y-98435218D01*
X150965778Y-98435218D01*
X150965781Y-98435220D01*
X151032804Y-98456997D01*
X151160465Y-98498477D01*
X151179697Y-98501523D01*
X151362648Y-98530500D01*
X151362649Y-98530500D01*
X151567351Y-98530500D01*
X151567352Y-98530500D01*
X151769534Y-98498477D01*
X151964219Y-98435220D01*
X152146610Y-98342287D01*
X152239590Y-98274732D01*
X152312213Y-98221971D01*
X152312215Y-98221968D01*
X152312219Y-98221966D01*
X152456966Y-98077219D01*
X152456968Y-98077215D01*
X152456971Y-98077213D01*
X152577284Y-97911614D01*
X152577286Y-97911611D01*
X152577287Y-97911610D01*
X152624516Y-97818917D01*
X152672489Y-97768123D01*
X152740310Y-97751328D01*
X152806445Y-97773865D01*
X152845485Y-97818919D01*
X152892715Y-97911614D01*
X153013028Y-98077213D01*
X153157786Y-98221971D01*
X153278226Y-98309474D01*
X153323390Y-98342287D01*
X153416080Y-98389515D01*
X153505776Y-98435218D01*
X153505778Y-98435218D01*
X153505781Y-98435220D01*
X153572804Y-98456997D01*
X153700465Y-98498477D01*
X153719697Y-98501523D01*
X153902648Y-98530500D01*
X153902649Y-98530500D01*
X154107351Y-98530500D01*
X154107352Y-98530500D01*
X154309534Y-98498477D01*
X154504219Y-98435220D01*
X154686610Y-98342287D01*
X154779590Y-98274732D01*
X154852213Y-98221971D01*
X154852215Y-98221968D01*
X154852219Y-98221966D01*
X154996966Y-98077219D01*
X154996968Y-98077215D01*
X154996971Y-98077213D01*
X155117284Y-97911614D01*
X155117286Y-97911611D01*
X155117287Y-97911610D01*
X155164516Y-97818917D01*
X155212489Y-97768123D01*
X155280310Y-97751328D01*
X155346445Y-97773865D01*
X155385485Y-97818919D01*
X155432715Y-97911614D01*
X155553028Y-98077213D01*
X155697786Y-98221971D01*
X155818226Y-98309474D01*
X155863390Y-98342287D01*
X155956080Y-98389515D01*
X156045776Y-98435218D01*
X156045778Y-98435218D01*
X156045781Y-98435220D01*
X156112804Y-98456997D01*
X156240465Y-98498477D01*
X156259697Y-98501523D01*
X156442648Y-98530500D01*
X156442649Y-98530500D01*
X156647351Y-98530500D01*
X156647352Y-98530500D01*
X156849534Y-98498477D01*
X157044219Y-98435220D01*
X157226610Y-98342287D01*
X157319590Y-98274732D01*
X157392213Y-98221971D01*
X157392215Y-98221968D01*
X157392219Y-98221966D01*
X157536966Y-98077219D01*
X157536968Y-98077215D01*
X157536971Y-98077213D01*
X157657284Y-97911614D01*
X157657286Y-97911611D01*
X157657287Y-97911610D01*
X157704516Y-97818917D01*
X157752489Y-97768123D01*
X157820310Y-97751328D01*
X157886445Y-97773865D01*
X157925485Y-97818919D01*
X157972715Y-97911614D01*
X158093028Y-98077213D01*
X158237786Y-98221971D01*
X158358226Y-98309474D01*
X158403390Y-98342287D01*
X158496080Y-98389515D01*
X158585776Y-98435218D01*
X158585778Y-98435218D01*
X158585781Y-98435220D01*
X158652804Y-98456997D01*
X158780465Y-98498477D01*
X158799697Y-98501523D01*
X158982648Y-98530500D01*
X158982649Y-98530500D01*
X159187351Y-98530500D01*
X159187352Y-98530500D01*
X159389534Y-98498477D01*
X159584219Y-98435220D01*
X159766610Y-98342287D01*
X159859590Y-98274732D01*
X159932213Y-98221971D01*
X159932215Y-98221968D01*
X159932219Y-98221966D01*
X160076966Y-98077219D01*
X160076968Y-98077215D01*
X160076971Y-98077213D01*
X160194787Y-97915051D01*
X160197287Y-97911610D01*
X160244795Y-97818369D01*
X160292769Y-97767573D01*
X160360590Y-97750778D01*
X160426725Y-97773315D01*
X160465765Y-97818369D01*
X160513141Y-97911350D01*
X160513147Y-97911359D01*
X160545523Y-97955921D01*
X160545524Y-97955922D01*
X161101212Y-97400233D01*
X161112482Y-97442292D01*
X161184890Y-97567708D01*
X161287292Y-97670110D01*
X161412708Y-97742518D01*
X161454765Y-97753787D01*
X160899076Y-98309474D01*
X160943650Y-98341859D01*
X161125968Y-98434755D01*
X161320582Y-98497990D01*
X161522683Y-98530000D01*
X161727317Y-98530000D01*
X161929417Y-98497990D01*
X162124031Y-98434755D01*
X162306349Y-98341859D01*
X162350921Y-98309474D01*
X161795234Y-97753787D01*
X161837292Y-97742518D01*
X161962708Y-97670110D01*
X162065110Y-97567708D01*
X162137518Y-97442292D01*
X162148787Y-97400234D01*
X162704474Y-97955921D01*
X162736859Y-97911349D01*
X162829755Y-97729031D01*
X162892990Y-97534417D01*
X162925000Y-97332317D01*
X162925000Y-97127682D01*
X162892990Y-96925582D01*
X162829755Y-96730968D01*
X162736859Y-96548650D01*
X162704474Y-96504077D01*
X162704474Y-96504076D01*
X162148787Y-97059764D01*
X162137518Y-97017708D01*
X162065110Y-96892292D01*
X161962708Y-96789890D01*
X161837292Y-96717482D01*
X161795233Y-96706212D01*
X162350922Y-96150524D01*
X162350921Y-96150523D01*
X162306359Y-96118147D01*
X162306350Y-96118141D01*
X162124031Y-96025244D01*
X161929417Y-95962009D01*
X161727317Y-95930000D01*
X161522683Y-95930000D01*
X161320582Y-95962009D01*
X161125968Y-96025244D01*
X160943644Y-96118143D01*
X160899077Y-96150523D01*
X160899077Y-96150524D01*
X161454766Y-96706212D01*
X161412708Y-96717482D01*
X161287292Y-96789890D01*
X161184890Y-96892292D01*
X161112482Y-97017708D01*
X161101212Y-97059765D01*
X160545524Y-96504077D01*
X160545523Y-96504077D01*
X160513143Y-96548644D01*
X160465765Y-96641630D01*
X160417790Y-96692426D01*
X160349969Y-96709221D01*
X160283834Y-96686683D01*
X160244795Y-96641630D01*
X160197284Y-96548385D01*
X160076971Y-96382786D01*
X159932213Y-96238028D01*
X159766613Y-96117715D01*
X159766612Y-96117714D01*
X159766610Y-96117713D01*
X159709653Y-96088691D01*
X159584223Y-96024781D01*
X159389534Y-95961522D01*
X159214995Y-95933878D01*
X159187352Y-95929500D01*
X158982648Y-95929500D01*
X158958329Y-95933351D01*
X158780465Y-95961522D01*
X158585776Y-96024781D01*
X158403386Y-96117715D01*
X158237786Y-96238028D01*
X158093028Y-96382786D01*
X157972715Y-96548386D01*
X157925485Y-96641080D01*
X157877510Y-96691876D01*
X157809689Y-96708671D01*
X157743554Y-96686134D01*
X157704515Y-96641080D01*
X157657419Y-96548650D01*
X157657287Y-96548390D01*
X157625092Y-96504077D01*
X157536971Y-96382786D01*
X157392213Y-96238028D01*
X157226613Y-96117715D01*
X157226612Y-96117714D01*
X157226610Y-96117713D01*
X157169653Y-96088691D01*
X157044223Y-96024781D01*
X156849534Y-95961522D01*
X156674995Y-95933878D01*
X156647352Y-95929500D01*
X156442648Y-95929500D01*
X156418329Y-95933351D01*
X156240465Y-95961522D01*
X156045776Y-96024781D01*
X155863386Y-96117715D01*
X155697786Y-96238028D01*
X155553028Y-96382786D01*
X155432715Y-96548386D01*
X155385485Y-96641080D01*
X155337510Y-96691876D01*
X155269689Y-96708671D01*
X155203554Y-96686134D01*
X155164515Y-96641080D01*
X155117419Y-96548650D01*
X155117287Y-96548390D01*
X155085092Y-96504077D01*
X154996971Y-96382786D01*
X154852213Y-96238028D01*
X154686613Y-96117715D01*
X154686612Y-96117714D01*
X154686610Y-96117713D01*
X154629653Y-96088691D01*
X154504223Y-96024781D01*
X154309534Y-95961522D01*
X154134995Y-95933878D01*
X154107352Y-95929500D01*
X153902648Y-95929500D01*
X153878329Y-95933351D01*
X153700465Y-95961522D01*
X153505776Y-96024781D01*
X153323386Y-96117715D01*
X153157786Y-96238028D01*
X153013028Y-96382786D01*
X152892715Y-96548386D01*
X152845485Y-96641080D01*
X152797510Y-96691876D01*
X152729689Y-96708671D01*
X152663554Y-96686134D01*
X152624515Y-96641080D01*
X152577419Y-96548650D01*
X152577287Y-96548390D01*
X152545092Y-96504077D01*
X152456971Y-96382786D01*
X152312213Y-96238028D01*
X152146613Y-96117715D01*
X152146612Y-96117714D01*
X152146610Y-96117713D01*
X152089653Y-96088691D01*
X151964223Y-96024781D01*
X151769534Y-95961522D01*
X151594995Y-95933878D01*
X151567352Y-95929500D01*
X151362648Y-95929500D01*
X151338329Y-95933351D01*
X151160465Y-95961522D01*
X150965776Y-96024781D01*
X150783386Y-96117715D01*
X150617786Y-96238028D01*
X150473028Y-96382786D01*
X150352715Y-96548386D01*
X150305485Y-96641080D01*
X150257510Y-96691876D01*
X150189689Y-96708671D01*
X150123554Y-96686134D01*
X150084515Y-96641080D01*
X150037419Y-96548650D01*
X150037287Y-96548390D01*
X150005092Y-96504077D01*
X149916971Y-96382786D01*
X149772213Y-96238028D01*
X149606613Y-96117715D01*
X149606612Y-96117714D01*
X149606610Y-96117713D01*
X149549653Y-96088691D01*
X149424223Y-96024781D01*
X149229534Y-95961522D01*
X149054995Y-95933878D01*
X149027352Y-95929500D01*
X148822648Y-95929500D01*
X148798329Y-95933351D01*
X148620465Y-95961522D01*
X148425776Y-96024781D01*
X148243386Y-96117715D01*
X148077786Y-96238028D01*
X147933028Y-96382786D01*
X147812715Y-96548386D01*
X147765485Y-96641080D01*
X147717510Y-96691876D01*
X147649689Y-96708671D01*
X147583554Y-96686134D01*
X147544515Y-96641080D01*
X147497419Y-96548650D01*
X147497287Y-96548390D01*
X147465092Y-96504077D01*
X147376971Y-96382786D01*
X147232213Y-96238028D01*
X147066613Y-96117715D01*
X147066612Y-96117714D01*
X147066610Y-96117713D01*
X147009653Y-96088691D01*
X146884223Y-96024781D01*
X146689534Y-95961522D01*
X146514995Y-95933878D01*
X146487352Y-95929500D01*
X146282648Y-95929500D01*
X146258329Y-95933351D01*
X146080465Y-95961522D01*
X145885776Y-96024781D01*
X145703386Y-96117715D01*
X145537786Y-96238028D01*
X145393028Y-96382786D01*
X145272715Y-96548386D01*
X145225485Y-96641080D01*
X145177510Y-96691876D01*
X145109689Y-96708671D01*
X145043554Y-96686134D01*
X145004515Y-96641080D01*
X144957419Y-96548650D01*
X144957287Y-96548390D01*
X144925092Y-96504077D01*
X144836971Y-96382786D01*
X144692213Y-96238028D01*
X144526613Y-96117715D01*
X144526612Y-96117714D01*
X144526610Y-96117713D01*
X144469653Y-96088691D01*
X144344223Y-96024781D01*
X144149534Y-95961522D01*
X143974995Y-95933878D01*
X143947352Y-95929500D01*
X143742648Y-95929500D01*
X143718329Y-95933351D01*
X143540465Y-95961522D01*
X143345776Y-96024781D01*
X143163386Y-96117715D01*
X142997786Y-96238028D01*
X142853028Y-96382786D01*
X142732715Y-96548386D01*
X142685485Y-96641080D01*
X142637510Y-96691876D01*
X142569689Y-96708671D01*
X142503554Y-96686134D01*
X142464515Y-96641080D01*
X142417419Y-96548650D01*
X142417287Y-96548390D01*
X142385092Y-96504077D01*
X142296971Y-96382786D01*
X142152213Y-96238028D01*
X141986613Y-96117715D01*
X141986612Y-96117714D01*
X141986610Y-96117713D01*
X141929653Y-96088691D01*
X141804223Y-96024781D01*
X141609534Y-95961522D01*
X141434995Y-95933878D01*
X141407352Y-95929500D01*
X141202648Y-95929500D01*
X141178329Y-95933351D01*
X141000465Y-95961522D01*
X140805776Y-96024781D01*
X140623386Y-96117715D01*
X140457786Y-96238028D01*
X140313028Y-96382786D01*
X140192715Y-96548386D01*
X140145485Y-96641080D01*
X140097510Y-96691876D01*
X140029689Y-96708671D01*
X139963554Y-96686134D01*
X139924515Y-96641080D01*
X139877419Y-96548650D01*
X139877287Y-96548390D01*
X139845092Y-96504077D01*
X139756971Y-96382786D01*
X139612213Y-96238028D01*
X139446613Y-96117715D01*
X139446612Y-96117714D01*
X139446610Y-96117713D01*
X139389653Y-96088691D01*
X139264223Y-96024781D01*
X139069534Y-95961522D01*
X138894995Y-95933878D01*
X138867352Y-95929500D01*
X138662648Y-95929500D01*
X138638329Y-95933351D01*
X138460465Y-95961522D01*
X138265776Y-96024781D01*
X138083386Y-96117715D01*
X137917786Y-96238028D01*
X137773028Y-96382786D01*
X137652715Y-96548386D01*
X137605485Y-96641080D01*
X137557510Y-96691876D01*
X137489689Y-96708671D01*
X137423554Y-96686134D01*
X137384515Y-96641080D01*
X137337419Y-96548650D01*
X137337287Y-96548390D01*
X137305092Y-96504077D01*
X137216971Y-96382786D01*
X137072213Y-96238028D01*
X136906613Y-96117715D01*
X136906612Y-96117714D01*
X136906610Y-96117713D01*
X136849653Y-96088691D01*
X136724223Y-96024781D01*
X136529534Y-95961522D01*
X136354995Y-95933878D01*
X136327352Y-95929500D01*
X136122648Y-95929500D01*
X136098329Y-95933351D01*
X135920465Y-95961522D01*
X135725776Y-96024781D01*
X135543386Y-96117715D01*
X135377786Y-96238028D01*
X135233028Y-96382786D01*
X135112715Y-96548386D01*
X135065485Y-96641080D01*
X135017510Y-96691876D01*
X134949689Y-96708671D01*
X134883554Y-96686134D01*
X134844515Y-96641080D01*
X134797419Y-96548650D01*
X134797287Y-96548390D01*
X134765092Y-96504077D01*
X134676971Y-96382786D01*
X134532213Y-96238028D01*
X134366613Y-96117715D01*
X134366612Y-96117714D01*
X134366610Y-96117713D01*
X134309653Y-96088691D01*
X134184223Y-96024781D01*
X133989534Y-95961522D01*
X133814995Y-95933878D01*
X133787352Y-95929500D01*
X133582648Y-95929500D01*
X133558329Y-95933351D01*
X133380465Y-95961522D01*
X133185776Y-96024781D01*
X133003386Y-96117715D01*
X132837786Y-96238028D01*
X132693028Y-96382786D01*
X132572715Y-96548386D01*
X132525485Y-96641080D01*
X132477510Y-96691876D01*
X132409689Y-96708671D01*
X132343554Y-96686134D01*
X132304515Y-96641080D01*
X132257419Y-96548650D01*
X132257287Y-96548390D01*
X132225092Y-96504077D01*
X132136971Y-96382786D01*
X131992213Y-96238028D01*
X131826613Y-96117715D01*
X131826612Y-96117714D01*
X131826610Y-96117713D01*
X131769653Y-96088691D01*
X131644223Y-96024781D01*
X131449534Y-95961522D01*
X131274995Y-95933878D01*
X131247352Y-95929500D01*
X131042648Y-95929500D01*
X131018329Y-95933351D01*
X130840465Y-95961522D01*
X130645776Y-96024781D01*
X130463386Y-96117715D01*
X130297786Y-96238028D01*
X130153028Y-96382786D01*
X130032715Y-96548386D01*
X129985485Y-96641080D01*
X129937510Y-96691876D01*
X129869689Y-96708671D01*
X129803554Y-96686134D01*
X129764515Y-96641080D01*
X129717419Y-96548650D01*
X129717287Y-96548390D01*
X129685092Y-96504077D01*
X129596971Y-96382786D01*
X129452213Y-96238028D01*
X129286613Y-96117715D01*
X129286612Y-96117714D01*
X129286610Y-96117713D01*
X129229653Y-96088691D01*
X129104223Y-96024781D01*
X128909534Y-95961522D01*
X128734995Y-95933878D01*
X128707352Y-95929500D01*
X128502648Y-95929500D01*
X128478329Y-95933351D01*
X128300465Y-95961522D01*
X128105776Y-96024781D01*
X127923386Y-96117715D01*
X127757786Y-96238028D01*
X127613028Y-96382786D01*
X127492715Y-96548386D01*
X127399781Y-96730776D01*
X127336522Y-96925465D01*
X127304500Y-97127648D01*
X127304500Y-97332351D01*
X127336522Y-97534534D01*
X127399781Y-97729223D01*
X127463691Y-97854653D01*
X127492585Y-97911359D01*
X127492715Y-97911613D01*
X127613028Y-98077213D01*
X127757786Y-98221971D01*
X127878226Y-98309474D01*
X127923390Y-98342287D01*
X128014840Y-98388883D01*
X128016080Y-98389515D01*
X128066876Y-98437490D01*
X128083671Y-98505311D01*
X128061134Y-98571446D01*
X128016080Y-98610485D01*
X127923386Y-98657715D01*
X127757786Y-98778028D01*
X127613028Y-98922786D01*
X127492715Y-99088386D01*
X127399781Y-99270776D01*
X127336522Y-99465465D01*
X127304500Y-99667648D01*
X127304500Y-99872351D01*
X127336522Y-100074534D01*
X127399781Y-100269223D01*
X127492715Y-100451613D01*
X127613028Y-100617213D01*
X127757786Y-100761971D01*
X127912749Y-100874556D01*
X127923390Y-100882287D01*
X128014840Y-100928883D01*
X128016080Y-100929515D01*
X128066876Y-100977490D01*
X128083671Y-101045311D01*
X128061134Y-101111446D01*
X128016080Y-101150485D01*
X127923386Y-101197715D01*
X127757786Y-101318028D01*
X127613028Y-101462786D01*
X127492715Y-101628386D01*
X127399781Y-101810776D01*
X127336522Y-102005465D01*
X127304500Y-102207648D01*
X127304500Y-102412351D01*
X127336522Y-102614534D01*
X127399781Y-102809223D01*
X127492715Y-102991613D01*
X127613028Y-103157213D01*
X127757786Y-103301971D01*
X127923385Y-103422284D01*
X127923387Y-103422285D01*
X127923390Y-103422287D01*
X127974000Y-103448074D01*
X128016630Y-103469795D01*
X128067426Y-103517770D01*
X128084221Y-103585591D01*
X128061684Y-103651725D01*
X128016630Y-103690765D01*
X127923644Y-103738143D01*
X127879077Y-103770523D01*
X127879077Y-103770524D01*
X128434766Y-104326212D01*
X128392708Y-104337482D01*
X128267292Y-104409890D01*
X128164890Y-104512292D01*
X128092482Y-104637708D01*
X128081212Y-104679765D01*
X127525524Y-104124077D01*
X127525523Y-104124077D01*
X127493143Y-104168644D01*
X127400244Y-104350968D01*
X127337009Y-104545582D01*
X127305000Y-104747682D01*
X127305000Y-104952317D01*
X127337009Y-105154417D01*
X127400244Y-105349031D01*
X127493141Y-105531350D01*
X127493147Y-105531359D01*
X127525523Y-105575921D01*
X127525524Y-105575922D01*
X128081212Y-105020234D01*
X128092482Y-105062292D01*
X128164890Y-105187708D01*
X128267292Y-105290110D01*
X128392708Y-105362518D01*
X128434765Y-105373787D01*
X127879076Y-105929474D01*
X127923652Y-105961861D01*
X128016628Y-106009234D01*
X128067425Y-106057208D01*
X128084220Y-106125029D01*
X128061683Y-106191164D01*
X128016630Y-106230203D01*
X127923388Y-106277713D01*
X127757786Y-106398028D01*
X127613028Y-106542786D01*
X127492715Y-106708386D01*
X127399781Y-106890776D01*
X127336522Y-107085465D01*
X127304500Y-107287648D01*
X127304500Y-107492351D01*
X127336522Y-107694534D01*
X127399781Y-107889223D01*
X127492715Y-108071613D01*
X127613028Y-108237213D01*
X127757786Y-108381971D01*
X127867251Y-108461500D01*
X127923390Y-108502287D01*
X128009344Y-108546083D01*
X128016080Y-108549515D01*
X128066876Y-108597490D01*
X128083671Y-108665311D01*
X128061134Y-108731446D01*
X128016080Y-108770485D01*
X127923386Y-108817715D01*
X127757786Y-108938028D01*
X127613028Y-109082786D01*
X127492715Y-109248386D01*
X127399781Y-109430776D01*
X127336522Y-109625465D01*
X127304500Y-109827648D01*
X127304500Y-110032351D01*
X127336522Y-110234534D01*
X127399781Y-110429223D01*
X127492715Y-110611613D01*
X127613028Y-110777213D01*
X127757786Y-110921971D01*
X127885641Y-111014861D01*
X127923390Y-111042287D01*
X128014840Y-111088883D01*
X128016080Y-111089515D01*
X128066876Y-111137490D01*
X128083671Y-111205311D01*
X128061134Y-111271446D01*
X128016080Y-111310485D01*
X127923386Y-111357715D01*
X127757786Y-111478028D01*
X127613028Y-111622786D01*
X127492715Y-111788386D01*
X127399781Y-111970776D01*
X127336522Y-112165465D01*
X127307804Y-112346788D01*
X127304500Y-112367648D01*
X127304500Y-112572352D01*
X127307704Y-112592580D01*
X127336522Y-112774534D01*
X127399781Y-112969223D01*
X127460916Y-113089205D01*
X127473812Y-113157874D01*
X127447536Y-113222615D01*
X127390429Y-113262872D01*
X127350431Y-113269500D01*
X116251046Y-113269500D01*
X116184007Y-113249815D01*
X116138252Y-113197011D01*
X116128308Y-113127853D01*
X116137179Y-113101193D01*
X116135697Y-113100641D01*
X116165774Y-113020000D01*
X116189091Y-112957483D01*
X116195500Y-112897873D01*
X116195499Y-111102128D01*
X116189091Y-111042517D01*
X116189005Y-111042287D01*
X116138797Y-110907671D01*
X116138793Y-110907664D01*
X116052547Y-110792455D01*
X116052544Y-110792452D01*
X115937335Y-110706206D01*
X115937328Y-110706202D01*
X115805917Y-110657189D01*
X115749983Y-110615318D01*
X115725566Y-110549853D01*
X115740418Y-110481580D01*
X115761563Y-110453332D01*
X115875104Y-110339792D01*
X116000051Y-110167816D01*
X116096557Y-109978412D01*
X116162246Y-109776243D01*
X116195500Y-109566287D01*
X116195500Y-109525139D01*
X117570500Y-109525139D01*
X117570500Y-111014861D01*
X117574844Y-111042286D01*
X117598928Y-111194347D01*
X117598928Y-111194350D01*
X117655081Y-111367171D01*
X117655083Y-111367174D01*
X117737583Y-111529090D01*
X117844397Y-111676106D01*
X117972894Y-111804603D01*
X118119910Y-111911417D01*
X118281826Y-111993917D01*
X118281828Y-111993918D01*
X118392540Y-112029890D01*
X118454654Y-112050072D01*
X118634139Y-112078500D01*
X118634140Y-112078500D01*
X118815860Y-112078500D01*
X118815861Y-112078500D01*
X118995346Y-112050072D01*
X118995349Y-112050071D01*
X118995350Y-112050071D01*
X119168171Y-111993918D01*
X119168171Y-111993917D01*
X119168174Y-111993917D01*
X119330090Y-111911417D01*
X119477106Y-111804603D01*
X119598320Y-111683389D01*
X120924500Y-111683389D01*
X120924500Y-111856611D01*
X120951598Y-112027701D01*
X121005127Y-112192445D01*
X121083768Y-112346788D01*
X121185586Y-112486928D01*
X121308072Y-112609414D01*
X121448212Y-112711232D01*
X121602555Y-112789873D01*
X121767299Y-112843402D01*
X121938389Y-112870500D01*
X121938390Y-112870500D01*
X122111610Y-112870500D01*
X122111611Y-112870500D01*
X122282701Y-112843402D01*
X122447445Y-112789873D01*
X122601788Y-112711232D01*
X122741928Y-112609414D01*
X122864414Y-112486928D01*
X122966232Y-112346788D01*
X123044873Y-112192445D01*
X123098402Y-112027701D01*
X123125500Y-111856611D01*
X123125500Y-111683389D01*
X123098402Y-111512299D01*
X123044873Y-111347555D01*
X122966232Y-111193212D01*
X122864414Y-111053072D01*
X122741928Y-110930586D01*
X122601788Y-110828768D01*
X122447445Y-110750127D01*
X122282701Y-110696598D01*
X122282699Y-110696597D01*
X122282698Y-110696597D01*
X122151271Y-110675781D01*
X122111611Y-110669500D01*
X121938389Y-110669500D01*
X121898728Y-110675781D01*
X121767302Y-110696597D01*
X121602552Y-110750128D01*
X121448211Y-110828768D01*
X121384286Y-110875213D01*
X121308072Y-110930586D01*
X121308070Y-110930588D01*
X121308069Y-110930588D01*
X121185588Y-111053069D01*
X121185588Y-111053070D01*
X121185586Y-111053072D01*
X121159109Y-111089515D01*
X121083768Y-111193211D01*
X121005128Y-111347552D01*
X120951597Y-111512302D01*
X120925653Y-111676107D01*
X120924500Y-111683389D01*
X119598320Y-111683389D01*
X119605603Y-111676106D01*
X119712417Y-111529090D01*
X119794917Y-111367174D01*
X119826021Y-111271446D01*
X119851071Y-111194350D01*
X119851071Y-111194349D01*
X119851072Y-111194346D01*
X119879500Y-111014861D01*
X119879500Y-109525139D01*
X124170500Y-109525139D01*
X124170500Y-111014861D01*
X124174844Y-111042286D01*
X124198928Y-111194347D01*
X124198928Y-111194350D01*
X124255081Y-111367171D01*
X124255083Y-111367174D01*
X124337583Y-111529090D01*
X124444397Y-111676106D01*
X124572894Y-111804603D01*
X124719910Y-111911417D01*
X124881826Y-111993917D01*
X124881828Y-111993918D01*
X124992540Y-112029890D01*
X125054654Y-112050072D01*
X125234139Y-112078500D01*
X125234140Y-112078500D01*
X125415860Y-112078500D01*
X125415861Y-112078500D01*
X125595346Y-112050072D01*
X125595349Y-112050071D01*
X125595350Y-112050071D01*
X125768171Y-111993918D01*
X125768171Y-111993917D01*
X125768174Y-111993917D01*
X125930090Y-111911417D01*
X126077106Y-111804603D01*
X126205603Y-111676106D01*
X126312417Y-111529090D01*
X126394917Y-111367174D01*
X126426021Y-111271446D01*
X126451071Y-111194350D01*
X126451071Y-111194349D01*
X126451072Y-111194346D01*
X126479500Y-111014861D01*
X126479500Y-109525139D01*
X126451072Y-109345654D01*
X126451071Y-109345650D01*
X126451071Y-109345649D01*
X126394918Y-109172828D01*
X126394916Y-109172825D01*
X126380106Y-109143757D01*
X126312417Y-109010910D01*
X126205603Y-108863894D01*
X126077106Y-108735397D01*
X125930090Y-108628583D01*
X125768174Y-108546083D01*
X125768171Y-108546081D01*
X125595348Y-108489928D01*
X125475689Y-108470976D01*
X125415861Y-108461500D01*
X125234139Y-108461500D01*
X125174310Y-108470976D01*
X125054652Y-108489928D01*
X125054649Y-108489928D01*
X124881828Y-108546081D01*
X124881825Y-108546083D01*
X124719909Y-108628583D01*
X124636030Y-108689525D01*
X124572894Y-108735397D01*
X124572892Y-108735399D01*
X124572891Y-108735399D01*
X124444399Y-108863891D01*
X124444399Y-108863892D01*
X124444397Y-108863894D01*
X124398525Y-108927030D01*
X124337583Y-109010909D01*
X124255083Y-109172825D01*
X124255081Y-109172828D01*
X124198928Y-109345649D01*
X124198928Y-109345652D01*
X124191607Y-109391876D01*
X124170500Y-109525139D01*
X119879500Y-109525139D01*
X119851072Y-109345654D01*
X119851071Y-109345650D01*
X119851071Y-109345649D01*
X119794918Y-109172828D01*
X119794916Y-109172825D01*
X119780106Y-109143757D01*
X119712417Y-109010910D01*
X119605603Y-108863894D01*
X119477106Y-108735397D01*
X119330090Y-108628583D01*
X119168174Y-108546083D01*
X119168171Y-108546081D01*
X118995348Y-108489928D01*
X118875689Y-108470976D01*
X118815861Y-108461500D01*
X118634139Y-108461500D01*
X118574310Y-108470976D01*
X118454652Y-108489928D01*
X118454649Y-108489928D01*
X118281828Y-108546081D01*
X118281825Y-108546083D01*
X118119909Y-108628583D01*
X118036030Y-108689525D01*
X117972894Y-108735397D01*
X117972892Y-108735399D01*
X117972891Y-108735399D01*
X117844399Y-108863891D01*
X117844399Y-108863892D01*
X117844397Y-108863894D01*
X117798525Y-108927030D01*
X117737583Y-109010909D01*
X117655083Y-109172825D01*
X117655081Y-109172828D01*
X117598928Y-109345649D01*
X117598928Y-109345652D01*
X117591607Y-109391876D01*
X117570500Y-109525139D01*
X116195500Y-109525139D01*
X116195500Y-109353713D01*
X116162246Y-109143757D01*
X116096557Y-108941588D01*
X116000051Y-108752184D01*
X116000049Y-108752181D01*
X116000048Y-108752179D01*
X115875109Y-108580213D01*
X115724786Y-108429890D01*
X115552820Y-108304951D01*
X115552115Y-108304591D01*
X115544054Y-108300485D01*
X115493259Y-108252512D01*
X115476463Y-108184692D01*
X115498999Y-108118556D01*
X115544054Y-108079515D01*
X115552816Y-108075051D01*
X115574789Y-108059086D01*
X115724786Y-107950109D01*
X115724788Y-107950106D01*
X115724792Y-107950104D01*
X115875104Y-107799792D01*
X115875106Y-107799788D01*
X115875109Y-107799786D01*
X116000048Y-107627820D01*
X116000047Y-107627820D01*
X116000051Y-107627816D01*
X116096557Y-107438412D01*
X116162246Y-107236243D01*
X116195500Y-107026287D01*
X116195500Y-106813713D01*
X116162246Y-106603757D01*
X116096557Y-106401588D01*
X116000051Y-106212184D01*
X116000049Y-106212181D01*
X116000048Y-106212179D01*
X115875109Y-106040213D01*
X115724786Y-105889890D01*
X115552820Y-105764951D01*
X115552115Y-105764591D01*
X115544054Y-105760485D01*
X115493259Y-105712512D01*
X115476463Y-105644692D01*
X115498999Y-105578556D01*
X115544054Y-105539515D01*
X115552816Y-105535051D01*
X115574789Y-105519086D01*
X115724786Y-105410109D01*
X115724788Y-105410106D01*
X115724792Y-105410104D01*
X115875104Y-105259792D01*
X115875106Y-105259788D01*
X115875109Y-105259786D01*
X116000048Y-105087820D01*
X116000047Y-105087820D01*
X116000051Y-105087816D01*
X116096557Y-104898412D01*
X116162246Y-104696243D01*
X116164282Y-104683389D01*
X120924500Y-104683389D01*
X120924500Y-104856611D01*
X120951598Y-105027701D01*
X121005127Y-105192445D01*
X121083768Y-105346788D01*
X121185586Y-105486928D01*
X121308072Y-105609414D01*
X121448212Y-105711232D01*
X121602555Y-105789873D01*
X121767299Y-105843402D01*
X121938389Y-105870500D01*
X121938390Y-105870500D01*
X122111610Y-105870500D01*
X122111611Y-105870500D01*
X122282701Y-105843402D01*
X122447445Y-105789873D01*
X122601788Y-105711232D01*
X122741928Y-105609414D01*
X122864414Y-105486928D01*
X122966232Y-105346788D01*
X123044873Y-105192445D01*
X123098402Y-105027701D01*
X123125500Y-104856611D01*
X123125500Y-104683389D01*
X123098402Y-104512299D01*
X123044873Y-104347555D01*
X122966232Y-104193212D01*
X122864414Y-104053072D01*
X122741928Y-103930586D01*
X122601788Y-103828768D01*
X122447445Y-103750127D01*
X122282701Y-103696598D01*
X122282699Y-103696597D01*
X122282698Y-103696597D01*
X122128557Y-103672184D01*
X122111611Y-103669500D01*
X121938389Y-103669500D01*
X121921443Y-103672184D01*
X121767302Y-103696597D01*
X121602552Y-103750128D01*
X121448211Y-103828768D01*
X121403043Y-103861585D01*
X121308072Y-103930586D01*
X121308070Y-103930588D01*
X121308069Y-103930588D01*
X121185588Y-104053069D01*
X121185588Y-104053070D01*
X121185586Y-104053072D01*
X121141859Y-104113256D01*
X121083768Y-104193211D01*
X121005128Y-104347552D01*
X120951597Y-104512302D01*
X120946326Y-104545582D01*
X120924500Y-104683389D01*
X116164282Y-104683389D01*
X116195500Y-104486287D01*
X116195500Y-104273713D01*
X116162246Y-104063757D01*
X116096557Y-103861588D01*
X116000051Y-103672184D01*
X116000049Y-103672181D01*
X116000048Y-103672179D01*
X115875109Y-103500213D01*
X115724786Y-103349890D01*
X115552820Y-103224951D01*
X115552115Y-103224591D01*
X115544054Y-103220485D01*
X115493259Y-103172512D01*
X115476463Y-103104692D01*
X115498999Y-103038556D01*
X115544054Y-102999515D01*
X115552816Y-102995051D01*
X115628478Y-102940080D01*
X115724786Y-102870109D01*
X115724788Y-102870106D01*
X115724792Y-102870104D01*
X115875104Y-102719792D01*
X115875106Y-102719788D01*
X115875109Y-102719786D01*
X115958564Y-102604918D01*
X116000051Y-102547816D01*
X116096557Y-102358412D01*
X116162246Y-102156243D01*
X116195500Y-101946287D01*
X116195500Y-101733713D01*
X116178818Y-101628386D01*
X116164772Y-101539704D01*
X116162471Y-101525178D01*
X118021000Y-101525178D01*
X118021000Y-102020000D01*
X118775000Y-102020000D01*
X118775000Y-102520000D01*
X118021000Y-102520000D01*
X118021000Y-103014821D01*
X118049415Y-103194225D01*
X118105548Y-103366984D01*
X118188011Y-103528828D01*
X118294780Y-103675781D01*
X118294780Y-103675782D01*
X118423217Y-103804219D01*
X118570171Y-103910988D01*
X118732015Y-103993451D01*
X118904774Y-104049584D01*
X118925000Y-104052788D01*
X118925000Y-102935686D01*
X118929394Y-102940080D01*
X119020606Y-102992741D01*
X119122339Y-103020000D01*
X119227661Y-103020000D01*
X119329394Y-102992741D01*
X119420606Y-102940080D01*
X119425000Y-102935686D01*
X119425000Y-104052787D01*
X119445225Y-104049584D01*
X119617984Y-103993451D01*
X119779828Y-103910988D01*
X119926781Y-103804219D01*
X119926782Y-103804219D01*
X120055219Y-103675782D01*
X120055219Y-103675781D01*
X120161988Y-103528828D01*
X120244451Y-103366984D01*
X120300584Y-103194225D01*
X120329000Y-103014821D01*
X120329000Y-102520000D01*
X119575000Y-102520000D01*
X119575000Y-102020000D01*
X120335000Y-102020000D01*
X120402039Y-102039685D01*
X120447794Y-102092489D01*
X120459000Y-102144000D01*
X120459000Y-102178041D01*
X120490774Y-102221776D01*
X120619217Y-102350219D01*
X120766171Y-102456988D01*
X120928015Y-102539451D01*
X121100774Y-102595584D01*
X121280179Y-102624000D01*
X121775000Y-102624000D01*
X121775000Y-101870000D01*
X122275000Y-101870000D01*
X122275000Y-102624000D01*
X122769821Y-102624000D01*
X122949225Y-102595584D01*
X123121984Y-102539451D01*
X123283828Y-102456988D01*
X123430781Y-102350219D01*
X123430782Y-102350219D01*
X123508819Y-102272183D01*
X123570142Y-102238698D01*
X123639834Y-102243682D01*
X123695767Y-102285554D01*
X123720184Y-102351018D01*
X123720500Y-102359864D01*
X123720500Y-103014860D01*
X123748928Y-103194347D01*
X123748928Y-103194350D01*
X123805081Y-103367171D01*
X123805083Y-103367174D01*
X123887583Y-103529090D01*
X123994397Y-103676106D01*
X124122894Y-103804603D01*
X124269910Y-103911417D01*
X124431826Y-103993917D01*
X124431828Y-103993918D01*
X124593029Y-104046294D01*
X124604654Y-104050072D01*
X124784139Y-104078500D01*
X124784140Y-104078500D01*
X124965860Y-104078500D01*
X124965861Y-104078500D01*
X125145346Y-104050072D01*
X125145349Y-104050071D01*
X125145350Y-104050071D01*
X125318171Y-103993918D01*
X125318171Y-103993917D01*
X125318174Y-103993917D01*
X125480090Y-103911417D01*
X125627106Y-103804603D01*
X125755603Y-103676106D01*
X125862417Y-103529090D01*
X125944917Y-103367174D01*
X125992579Y-103220486D01*
X126001071Y-103194350D01*
X126001071Y-103194349D01*
X126001072Y-103194346D01*
X126029500Y-103014861D01*
X126029500Y-101525139D01*
X126001072Y-101345654D01*
X126001071Y-101345650D01*
X126001071Y-101345649D01*
X125944918Y-101172828D01*
X125944916Y-101172825D01*
X125933534Y-101150485D01*
X125862417Y-101010910D01*
X125755603Y-100863894D01*
X125627106Y-100735397D01*
X125480090Y-100628583D01*
X125318174Y-100546083D01*
X125318171Y-100546081D01*
X125145348Y-100489928D01*
X125025689Y-100470976D01*
X124965861Y-100461500D01*
X124784139Y-100461500D01*
X124724310Y-100470976D01*
X124604652Y-100489928D01*
X124604649Y-100489928D01*
X124431828Y-100546081D01*
X124431825Y-100546083D01*
X124269909Y-100628583D01*
X124186030Y-100689525D01*
X124122894Y-100735397D01*
X124122892Y-100735399D01*
X124122891Y-100735399D01*
X123994399Y-100863891D01*
X123994392Y-100863900D01*
X123919917Y-100966404D01*
X123864587Y-101009070D01*
X123794973Y-101015048D01*
X123733179Y-100982441D01*
X123709115Y-100949812D01*
X123665990Y-100865173D01*
X123559219Y-100718218D01*
X123559219Y-100718217D01*
X123430782Y-100589780D01*
X123283828Y-100483011D01*
X123121984Y-100400548D01*
X122949225Y-100344415D01*
X122769821Y-100316000D01*
X122275000Y-100316000D01*
X122275000Y-101070000D01*
X121775000Y-101070000D01*
X121775000Y-100316000D01*
X121280179Y-100316000D01*
X121100774Y-100344415D01*
X120928015Y-100400548D01*
X120766171Y-100483011D01*
X120619218Y-100589780D01*
X120619217Y-100589780D01*
X120490780Y-100718217D01*
X120490780Y-100718218D01*
X120384007Y-100865176D01*
X120340628Y-100950313D01*
X120292654Y-101001109D01*
X120224833Y-101017904D01*
X120158698Y-100995366D01*
X120129826Y-100966904D01*
X120055219Y-100864218D01*
X120055219Y-100864217D01*
X119926782Y-100735780D01*
X119779828Y-100629011D01*
X119617984Y-100546548D01*
X119445231Y-100490416D01*
X119445224Y-100490415D01*
X119425000Y-100487210D01*
X119425000Y-101604314D01*
X119420606Y-101599920D01*
X119329394Y-101547259D01*
X119227661Y-101520000D01*
X119122339Y-101520000D01*
X119020606Y-101547259D01*
X118929394Y-101599920D01*
X118925000Y-101604314D01*
X118925000Y-100487211D01*
X118924999Y-100487210D01*
X118904775Y-100490415D01*
X118904768Y-100490416D01*
X118732015Y-100546548D01*
X118570171Y-100629011D01*
X118423218Y-100735780D01*
X118423217Y-100735780D01*
X118294780Y-100864217D01*
X118294780Y-100864218D01*
X118188011Y-101011171D01*
X118105548Y-101173015D01*
X118049415Y-101345774D01*
X118021000Y-101525178D01*
X116162471Y-101525178D01*
X116162246Y-101523757D01*
X116096557Y-101321588D01*
X116000051Y-101132184D01*
X116000049Y-101132181D01*
X116000048Y-101132179D01*
X115875109Y-100960213D01*
X115724786Y-100809890D01*
X115552820Y-100684951D01*
X115552115Y-100684591D01*
X115544054Y-100680485D01*
X115493259Y-100632512D01*
X115476463Y-100564692D01*
X115498999Y-100498556D01*
X115544054Y-100459515D01*
X115552816Y-100455051D01*
X115574789Y-100439086D01*
X115724786Y-100330109D01*
X115724788Y-100330106D01*
X115724792Y-100330104D01*
X115875104Y-100179792D01*
X115875106Y-100179788D01*
X115875109Y-100179786D01*
X116000048Y-100007820D01*
X116000047Y-100007820D01*
X116000051Y-100007816D01*
X116096557Y-99818412D01*
X116162246Y-99616243D01*
X116195500Y-99406287D01*
X116195500Y-99193713D01*
X116162246Y-98983757D01*
X116096557Y-98781588D01*
X116000051Y-98592184D01*
X116000049Y-98592181D01*
X116000048Y-98592179D01*
X115875109Y-98420213D01*
X115724786Y-98269890D01*
X115552820Y-98144951D01*
X115552115Y-98144591D01*
X115544054Y-98140485D01*
X115493259Y-98092512D01*
X115476463Y-98024692D01*
X115498999Y-97958556D01*
X115544054Y-97919515D01*
X115552816Y-97915051D01*
X115574789Y-97899086D01*
X115724786Y-97790109D01*
X115724788Y-97790106D01*
X115724792Y-97790104D01*
X115875104Y-97639792D01*
X115875106Y-97639788D01*
X115875109Y-97639786D01*
X116000048Y-97467820D01*
X116000047Y-97467820D01*
X116000051Y-97467816D01*
X116096557Y-97278412D01*
X116162246Y-97076243D01*
X116195500Y-96866287D01*
X116195500Y-96653713D01*
X116162246Y-96443757D01*
X116096557Y-96241588D01*
X116000051Y-96052184D01*
X116000049Y-96052181D01*
X116000048Y-96052179D01*
X115875109Y-95880213D01*
X115724786Y-95729890D01*
X115552820Y-95604951D01*
X115552115Y-95604591D01*
X115544054Y-95600485D01*
X115493259Y-95552512D01*
X115476463Y-95484692D01*
X115498999Y-95418556D01*
X115544054Y-95379515D01*
X115552816Y-95375051D01*
X115574789Y-95359086D01*
X115724786Y-95250109D01*
X115724788Y-95250106D01*
X115724792Y-95250104D01*
X115875104Y-95099792D01*
X115875106Y-95099788D01*
X115875109Y-95099786D01*
X116000048Y-94927820D01*
X116000047Y-94927820D01*
X116000051Y-94927816D01*
X116096557Y-94738412D01*
X116162246Y-94536243D01*
X116195500Y-94326287D01*
X116195500Y-94113713D01*
X116162246Y-93903757D01*
X116096557Y-93701588D01*
X116000051Y-93512184D01*
X116000049Y-93512181D01*
X116000048Y-93512179D01*
X115875109Y-93340213D01*
X115724786Y-93189890D01*
X115552820Y-93064951D01*
X115552115Y-93064591D01*
X115544054Y-93060485D01*
X115493259Y-93012512D01*
X115476463Y-92944692D01*
X115498999Y-92878556D01*
X115544054Y-92839515D01*
X115552816Y-92835051D01*
X115574789Y-92819086D01*
X115724786Y-92710109D01*
X115724788Y-92710106D01*
X115724792Y-92710104D01*
X115875104Y-92559792D01*
X115875106Y-92559788D01*
X115875109Y-92559786D01*
X116000048Y-92387820D01*
X116000047Y-92387820D01*
X116000051Y-92387816D01*
X116096557Y-92198412D01*
X116162246Y-91996243D01*
X116195500Y-91786287D01*
X116195500Y-91573713D01*
X116162246Y-91363757D01*
X116096557Y-91161588D01*
X116000051Y-90972184D01*
X116000049Y-90972181D01*
X116000048Y-90972179D01*
X115875109Y-90800213D01*
X115724786Y-90649890D01*
X115552820Y-90524951D01*
X115552115Y-90524591D01*
X115544054Y-90520485D01*
X115493259Y-90472512D01*
X115476463Y-90404692D01*
X115498999Y-90338556D01*
X115544054Y-90299515D01*
X115552816Y-90295051D01*
X115702510Y-90186293D01*
X115724786Y-90170109D01*
X115724788Y-90170106D01*
X115724792Y-90170104D01*
X115875104Y-90019792D01*
X115875106Y-90019788D01*
X115875109Y-90019786D01*
X116000048Y-89847820D01*
X116000047Y-89847820D01*
X116000051Y-89847816D01*
X116096557Y-89658412D01*
X116162246Y-89456243D01*
X116195500Y-89246287D01*
X116195500Y-89033713D01*
X116162246Y-88823757D01*
X116096557Y-88621588D01*
X116000051Y-88432184D01*
X116000049Y-88432181D01*
X116000048Y-88432179D01*
X115875109Y-88260213D01*
X115724792Y-88109896D01*
X115704040Y-88094819D01*
X115661374Y-88039489D01*
X115655395Y-87969876D01*
X115688000Y-87908080D01*
X115748839Y-87873723D01*
X115776925Y-87870500D01*
X123385903Y-87870500D01*
X123452942Y-87890185D01*
G37*
%TD.AperFunction*%
%TA.AperFunction,Conductor*%
G36*
X132486445Y-97773865D02*
G01*
X132525485Y-97818919D01*
X132572715Y-97911614D01*
X132693028Y-98077213D01*
X132837786Y-98221971D01*
X132958226Y-98309474D01*
X133003390Y-98342287D01*
X133094840Y-98388883D01*
X133096080Y-98389515D01*
X133146876Y-98437490D01*
X133163671Y-98505311D01*
X133141134Y-98571446D01*
X133096080Y-98610485D01*
X133003386Y-98657715D01*
X132837786Y-98778028D01*
X132693028Y-98922786D01*
X132572715Y-99088386D01*
X132479781Y-99270776D01*
X132416522Y-99465465D01*
X132384500Y-99667648D01*
X132384500Y-99872351D01*
X132416522Y-100074534D01*
X132479781Y-100269223D01*
X132572715Y-100451613D01*
X132693028Y-100617213D01*
X132837786Y-100761971D01*
X132992749Y-100874556D01*
X133003390Y-100882287D01*
X133094840Y-100928883D01*
X133096080Y-100929515D01*
X133146876Y-100977490D01*
X133163671Y-101045311D01*
X133141134Y-101111446D01*
X133096080Y-101150485D01*
X133003386Y-101197715D01*
X132837786Y-101318028D01*
X132693028Y-101462786D01*
X132572715Y-101628386D01*
X132479781Y-101810776D01*
X132416522Y-102005465D01*
X132384500Y-102207648D01*
X132384500Y-102412351D01*
X132416522Y-102614534D01*
X132479781Y-102809223D01*
X132572715Y-102991613D01*
X132693028Y-103157213D01*
X132837786Y-103301971D01*
X132992749Y-103414556D01*
X133003390Y-103422287D01*
X133094840Y-103468883D01*
X133096080Y-103469515D01*
X133146876Y-103517490D01*
X133163671Y-103585311D01*
X133141134Y-103651446D01*
X133096080Y-103690485D01*
X133003386Y-103737715D01*
X132837786Y-103858028D01*
X132693028Y-104002786D01*
X132572715Y-104168386D01*
X132479781Y-104350776D01*
X132416522Y-104545465D01*
X132384500Y-104747648D01*
X132384500Y-104952351D01*
X132416522Y-105154534D01*
X132479781Y-105349223D01*
X132543691Y-105474653D01*
X132572585Y-105531359D01*
X132572715Y-105531613D01*
X132693028Y-105697213D01*
X132837786Y-105841971D01*
X132958226Y-105929474D01*
X133003390Y-105962287D01*
X133094840Y-106008883D01*
X133096080Y-106009515D01*
X133146876Y-106057490D01*
X133163671Y-106125311D01*
X133141134Y-106191446D01*
X133096080Y-106230485D01*
X133003386Y-106277715D01*
X132837786Y-106398028D01*
X132693028Y-106542786D01*
X132572715Y-106708386D01*
X132479781Y-106890776D01*
X132416522Y-107085465D01*
X132384500Y-107287648D01*
X132384500Y-107492351D01*
X132416522Y-107694534D01*
X132479781Y-107889223D01*
X132572715Y-108071613D01*
X132693028Y-108237213D01*
X132837786Y-108381971D01*
X132947251Y-108461500D01*
X133003390Y-108502287D01*
X133089344Y-108546083D01*
X133096080Y-108549515D01*
X133146876Y-108597490D01*
X133163671Y-108665311D01*
X133141134Y-108731446D01*
X133096080Y-108770485D01*
X133003386Y-108817715D01*
X132837786Y-108938028D01*
X132693028Y-109082786D01*
X132572715Y-109248386D01*
X132479781Y-109430776D01*
X132416522Y-109625465D01*
X132384500Y-109827648D01*
X132384500Y-110032351D01*
X132416522Y-110234534D01*
X132479781Y-110429223D01*
X132572715Y-110611613D01*
X132693028Y-110777213D01*
X132837786Y-110921971D01*
X132965641Y-111014861D01*
X133003390Y-111042287D01*
X133094840Y-111088883D01*
X133096080Y-111089515D01*
X133146876Y-111137490D01*
X133163671Y-111205311D01*
X133141134Y-111271446D01*
X133096080Y-111310485D01*
X133003386Y-111357715D01*
X132837786Y-111478028D01*
X132693028Y-111622786D01*
X132572715Y-111788386D01*
X132525485Y-111881080D01*
X132477510Y-111931876D01*
X132409689Y-111948671D01*
X132343554Y-111926134D01*
X132304515Y-111881080D01*
X132292047Y-111856610D01*
X132257287Y-111788390D01*
X132225092Y-111744077D01*
X132136971Y-111622786D01*
X131992213Y-111478028D01*
X131826613Y-111357715D01*
X131826612Y-111357714D01*
X131826610Y-111357713D01*
X131734470Y-111310765D01*
X131644223Y-111264781D01*
X131449534Y-111201522D01*
X131274995Y-111173878D01*
X131247352Y-111169500D01*
X131042648Y-111169500D01*
X131018329Y-111173351D01*
X130840465Y-111201522D01*
X130645776Y-111264781D01*
X130463386Y-111357715D01*
X130297786Y-111478028D01*
X130153028Y-111622786D01*
X130032715Y-111788386D01*
X129985485Y-111881080D01*
X129937510Y-111931876D01*
X129869689Y-111948671D01*
X129803554Y-111926134D01*
X129764515Y-111881080D01*
X129752047Y-111856610D01*
X129717287Y-111788390D01*
X129685092Y-111744077D01*
X129596971Y-111622786D01*
X129452213Y-111478028D01*
X129286614Y-111357715D01*
X129266668Y-111347552D01*
X129193917Y-111310483D01*
X129143123Y-111262511D01*
X129126328Y-111194690D01*
X129148865Y-111128555D01*
X129193917Y-111089516D01*
X129286610Y-111042287D01*
X129324360Y-111014860D01*
X129452213Y-110921971D01*
X129452215Y-110921968D01*
X129452219Y-110921966D01*
X129596966Y-110777219D01*
X129596968Y-110777215D01*
X129596971Y-110777213D01*
X129655541Y-110696597D01*
X129717287Y-110611610D01*
X129810220Y-110429219D01*
X129873477Y-110234534D01*
X129905500Y-110032352D01*
X129905500Y-109827648D01*
X129897358Y-109776243D01*
X129873477Y-109625465D01*
X129810218Y-109430776D01*
X129770952Y-109353713D01*
X129717287Y-109248390D01*
X129709556Y-109237749D01*
X129596971Y-109082786D01*
X129452213Y-108938028D01*
X129286614Y-108817715D01*
X129280006Y-108814348D01*
X129193917Y-108770483D01*
X129143123Y-108722511D01*
X129126328Y-108654690D01*
X129148865Y-108588555D01*
X129193917Y-108549516D01*
X129286610Y-108502287D01*
X129342749Y-108461500D01*
X129452213Y-108381971D01*
X129452215Y-108381968D01*
X129452219Y-108381966D01*
X129596966Y-108237219D01*
X129596968Y-108237215D01*
X129596971Y-108237213D01*
X129683179Y-108118556D01*
X129717287Y-108071610D01*
X129810220Y-107889219D01*
X129873477Y-107694534D01*
X129905500Y-107492352D01*
X129905500Y-107287648D01*
X129897358Y-107236243D01*
X129873477Y-107085465D01*
X129810218Y-106890776D01*
X129764515Y-106801080D01*
X129717287Y-106708390D01*
X129709556Y-106697749D01*
X129596971Y-106542786D01*
X129452213Y-106398028D01*
X129286611Y-106277713D01*
X129193369Y-106230203D01*
X129142574Y-106182229D01*
X129125779Y-106114407D01*
X129148317Y-106048273D01*
X129193371Y-106009234D01*
X129286346Y-105961861D01*
X129286347Y-105961861D01*
X129330921Y-105929474D01*
X128775234Y-105373787D01*
X128817292Y-105362518D01*
X128942708Y-105290110D01*
X129045110Y-105187708D01*
X129117518Y-105062292D01*
X129128787Y-105020234D01*
X129684474Y-105575921D01*
X129716859Y-105531349D01*
X129809755Y-105349031D01*
X129872990Y-105154417D01*
X129905000Y-104952317D01*
X129905000Y-104747682D01*
X129872990Y-104545582D01*
X129809755Y-104350968D01*
X129716859Y-104168650D01*
X129684474Y-104124077D01*
X129684474Y-104124076D01*
X129128787Y-104679764D01*
X129117518Y-104637708D01*
X129045110Y-104512292D01*
X128942708Y-104409890D01*
X128817292Y-104337482D01*
X128775233Y-104326212D01*
X129330922Y-103770524D01*
X129330921Y-103770523D01*
X129286359Y-103738147D01*
X129286350Y-103738141D01*
X129193369Y-103690765D01*
X129142573Y-103642790D01*
X129125778Y-103574969D01*
X129148315Y-103508835D01*
X129193370Y-103469795D01*
X129236000Y-103448074D01*
X129286610Y-103422287D01*
X129362729Y-103366984D01*
X129452213Y-103301971D01*
X129452215Y-103301968D01*
X129452219Y-103301966D01*
X129596966Y-103157219D01*
X129596968Y-103157215D01*
X129596971Y-103157213D01*
X129683179Y-103038556D01*
X129717287Y-102991610D01*
X129810220Y-102809219D01*
X129873477Y-102614534D01*
X129905500Y-102412352D01*
X129905500Y-102207648D01*
X129897358Y-102156243D01*
X129873477Y-102005465D01*
X129810218Y-101810776D01*
X129740727Y-101674394D01*
X129717287Y-101628390D01*
X129696603Y-101599920D01*
X129596971Y-101462786D01*
X129452213Y-101318028D01*
X129286614Y-101197715D01*
X129280006Y-101194348D01*
X129193917Y-101150483D01*
X129143123Y-101102511D01*
X129126328Y-101034690D01*
X129148865Y-100968555D01*
X129193917Y-100929516D01*
X129286610Y-100882287D01*
X129311930Y-100863891D01*
X129452213Y-100761971D01*
X129452215Y-100761968D01*
X129452219Y-100761966D01*
X129596966Y-100617219D01*
X129596968Y-100617215D01*
X129596971Y-100617213D01*
X129689093Y-100490416D01*
X129717287Y-100451610D01*
X129810220Y-100269219D01*
X129873477Y-100074534D01*
X129905500Y-99872352D01*
X129905500Y-99667648D01*
X129897358Y-99616243D01*
X129873477Y-99465465D01*
X129810218Y-99270776D01*
X129764515Y-99181080D01*
X129717287Y-99088390D01*
X129709556Y-99077749D01*
X129596971Y-98922786D01*
X129452213Y-98778028D01*
X129286614Y-98657715D01*
X129280006Y-98654348D01*
X129193917Y-98610483D01*
X129143123Y-98562511D01*
X129126328Y-98494690D01*
X129148865Y-98428555D01*
X129193917Y-98389516D01*
X129286610Y-98342287D01*
X129331774Y-98309474D01*
X129452213Y-98221971D01*
X129452215Y-98221968D01*
X129452219Y-98221966D01*
X129596966Y-98077219D01*
X129596968Y-98077215D01*
X129596971Y-98077213D01*
X129717284Y-97911614D01*
X129717286Y-97911611D01*
X129717287Y-97911610D01*
X129764516Y-97818917D01*
X129812489Y-97768123D01*
X129880310Y-97751328D01*
X129946445Y-97773865D01*
X129985485Y-97818919D01*
X130032715Y-97911614D01*
X130153028Y-98077213D01*
X130297786Y-98221971D01*
X130418226Y-98309474D01*
X130463390Y-98342287D01*
X130556080Y-98389515D01*
X130645776Y-98435218D01*
X130645778Y-98435218D01*
X130645781Y-98435220D01*
X130712804Y-98456997D01*
X130840465Y-98498477D01*
X130859697Y-98501523D01*
X131042648Y-98530500D01*
X131042649Y-98530500D01*
X131247351Y-98530500D01*
X131247352Y-98530500D01*
X131449534Y-98498477D01*
X131644219Y-98435220D01*
X131826610Y-98342287D01*
X131919590Y-98274732D01*
X131992213Y-98221971D01*
X131992215Y-98221968D01*
X131992219Y-98221966D01*
X132136966Y-98077219D01*
X132136968Y-98077215D01*
X132136971Y-98077213D01*
X132257284Y-97911614D01*
X132257286Y-97911611D01*
X132257287Y-97911610D01*
X132304516Y-97818917D01*
X132352489Y-97768123D01*
X132420310Y-97751328D01*
X132486445Y-97773865D01*
G37*
%TD.AperFunction*%
%TD*%
M02*
