%TF.GenerationSoftware,KiCad,Pcbnew,9.0.6*%
%TF.CreationDate,2026-06-23T14:02:11-07:00*%
%TF.ProjectId,AudioBoardTeensy,41756469-6f42-46f6-9172-645465656e73,rev?*%
%TF.SameCoordinates,Original*%
%TF.FileFunction,Legend,Top*%
%TF.FilePolarity,Positive*%
%FSLAX46Y46*%
G04 Gerber Fmt 4.6, Leading zero omitted, Abs format (unit mm)*
G04 Created by KiCad (PCBNEW 9.0.6) date 2026-06-23 14:02:11*
%MOMM*%
%LPD*%
G01*
G04 APERTURE LIST*
G04 Aperture macros list*
%AMRoundRect*
0 Rectangle with rounded corners*
0 $1 Rounding radius*
0 $2 $3 $4 $5 $6 $7 $8 $9 X,Y pos of 4 corners*
0 Add a 4 corners polygon primitive as box body*
4,1,4,$2,$3,$4,$5,$6,$7,$8,$9,$2,$3,0*
0 Add four circle primitives for the rounded corners*
1,1,$1+$1,$2,$3*
1,1,$1+$1,$4,$5*
1,1,$1+$1,$6,$7*
1,1,$1+$1,$8,$9*
0 Add four rect primitives between the rounded corners*
20,1,$1+$1,$2,$3,$4,$5,0*
20,1,$1+$1,$4,$5,$6,$7,0*
20,1,$1+$1,$6,$7,$8,$9,0*
20,1,$1+$1,$8,$9,$2,$3,0*%
G04 Aperture macros list end*
%ADD10C,0.000000*%
%ADD11C,0.080000*%
%ADD12C,0.076190*%
%ADD13C,0.063429*%
%ADD14C,0.065186*%
%ADD15C,0.057063*%
%ADD16C,0.150000*%
%ADD17C,0.098425*%
%ADD18C,0.120000*%
%ADD19C,0.200000*%
%ADD20C,0.127000*%
%ADD21C,0.100000*%
%ADD22R,1.700000X1.700000*%
%ADD23C,1.700000*%
%ADD24C,5.700000*%
%ADD25RoundRect,0.102000X-0.430000X-0.490000X0.430000X-0.490000X0.430000X0.490000X-0.430000X0.490000X0*%
%ADD26RoundRect,0.138000X-0.414000X-0.449000X0.414000X-0.449000X0.414000X0.449000X-0.414000X0.449000X0*%
%ADD27RoundRect,0.102000X0.430000X0.490000X-0.430000X0.490000X-0.430000X-0.490000X0.430000X-0.490000X0*%
%ADD28RoundRect,0.102000X-0.490000X0.430000X-0.490000X-0.430000X0.490000X-0.430000X0.490000X0.430000X0*%
%ADD29RoundRect,0.134250X-0.402750X-0.432750X0.402750X-0.432750X0.402750X0.432750X-0.402750X0.432750X0*%
%ADD30O,1.512000X2.820000*%
%ADD31O,2.820000X1.512000*%
%ADD32C,1.200000*%
%ADD33C,1.600000*%
G04 APERTURE END LIST*
D10*
G36*
X142024061Y-117998500D02*
G01*
X144849811Y-116157000D01*
X145008561Y-116411000D01*
X143643313Y-117300000D01*
X145008561Y-118189000D01*
X144849811Y-118411250D01*
X143389311Y-117458750D01*
X141738311Y-118506500D01*
X141738311Y-116125250D01*
X142024061Y-116125250D01*
X142024061Y-117998500D01*
G37*
G36*
X142087562Y-117871500D02*
G01*
X144881559Y-116093500D01*
X145072062Y-116411000D01*
X143770310Y-117300000D01*
X145072062Y-118157250D01*
X144881559Y-118506500D01*
X143389311Y-117554000D01*
X141674811Y-118633500D01*
X141674811Y-116061750D01*
X142087562Y-116061750D01*
X142087562Y-117871500D01*
G37*
G36*
X141211184Y-118391512D02*
G01*
X140798435Y-118391512D01*
X140798435Y-116740512D01*
X140131685Y-117502512D01*
X139623684Y-117502512D01*
X140861934Y-116073762D01*
X141211184Y-116073762D01*
X141211184Y-118391512D01*
G37*
G36*
X151443503Y-116062858D02*
G01*
X151495856Y-116066153D01*
X151547279Y-116071587D01*
X151597679Y-116079113D01*
X151646962Y-116088686D01*
X151695037Y-116100259D01*
X151741809Y-116113786D01*
X151787186Y-116129219D01*
X151831075Y-116146512D01*
X151873382Y-116165620D01*
X151914015Y-116186494D01*
X151952881Y-116209090D01*
X151989886Y-116233360D01*
X152024938Y-116259257D01*
X152057944Y-116286736D01*
X152088810Y-116315750D01*
X152106117Y-116330811D01*
X152122343Y-116346198D01*
X152137522Y-116361863D01*
X152151690Y-116377762D01*
X152164881Y-116393846D01*
X152177130Y-116410070D01*
X152188473Y-116426387D01*
X152198943Y-116442750D01*
X152208576Y-116459113D01*
X152217407Y-116475430D01*
X152225471Y-116491654D01*
X152232802Y-116507738D01*
X152239435Y-116523636D01*
X152245405Y-116539302D01*
X152255498Y-116569750D01*
X152263358Y-116598709D01*
X152269265Y-116625809D01*
X152273497Y-116650675D01*
X152276334Y-116672937D01*
X152278055Y-116692223D01*
X152278938Y-116708160D01*
X152279310Y-116728500D01*
X152279310Y-116792000D01*
X152278938Y-116801860D01*
X152276334Y-116829207D01*
X152273497Y-116848392D01*
X152269265Y-116870693D01*
X152263358Y-116895691D01*
X152255499Y-116922969D01*
X152245407Y-116952106D01*
X152232803Y-116982686D01*
X152217409Y-117014289D01*
X152198946Y-117046496D01*
X152177134Y-117078890D01*
X152164885Y-117095025D01*
X152151695Y-117111050D01*
X152137527Y-117126913D01*
X152122348Y-117142560D01*
X152106123Y-117157940D01*
X152088817Y-117173000D01*
X152025316Y-117236500D01*
X152088817Y-117300000D01*
X152106124Y-117317946D01*
X152122349Y-117336037D01*
X152137528Y-117354232D01*
X152151696Y-117372492D01*
X152164887Y-117390774D01*
X152177136Y-117409040D01*
X152188478Y-117427247D01*
X152198949Y-117445355D01*
X152208582Y-117463324D01*
X152217412Y-117481113D01*
X152225476Y-117498681D01*
X152232807Y-117515987D01*
X152245410Y-117549651D01*
X152255503Y-117581781D01*
X152263363Y-117612051D01*
X152269269Y-117640134D01*
X152273502Y-117665706D01*
X152276339Y-117688441D01*
X152278059Y-117708014D01*
X152278943Y-117724098D01*
X152279315Y-117744500D01*
X152279315Y-118379500D01*
X151866563Y-118379500D01*
X151866563Y-117712750D01*
X151866098Y-117699433D01*
X151864331Y-117683604D01*
X151860703Y-117665729D01*
X151854657Y-117646273D01*
X151845635Y-117625701D01*
X151833078Y-117604477D01*
X151816428Y-117583068D01*
X151806393Y-117572439D01*
X151795127Y-117561937D01*
X151782558Y-117551622D01*
X151768617Y-117541551D01*
X151753234Y-117531782D01*
X151736340Y-117522374D01*
X151717864Y-117513384D01*
X151697738Y-117504871D01*
X151675890Y-117496893D01*
X151652252Y-117489508D01*
X151626754Y-117482774D01*
X151599325Y-117476749D01*
X151569897Y-117471491D01*
X151538399Y-117467059D01*
X151504762Y-117463511D01*
X151468915Y-117460905D01*
X151430789Y-117459298D01*
X151390315Y-117458750D01*
X148913814Y-117458750D01*
X148913814Y-118411250D01*
X148501062Y-118411250D01*
X148501062Y-117046000D01*
X148913809Y-117046000D01*
X151390311Y-117046000D01*
X151430525Y-117045620D01*
X151467949Y-117044450D01*
X151502769Y-117042442D01*
X151535170Y-117039551D01*
X151565339Y-117035729D01*
X151593461Y-117030931D01*
X151619723Y-117025110D01*
X151644310Y-117018219D01*
X151656034Y-117014357D01*
X151667409Y-117010211D01*
X151678459Y-117005775D01*
X151689206Y-117001041D01*
X151699675Y-116996006D01*
X151709887Y-116990662D01*
X151719867Y-116985005D01*
X151729638Y-116979027D01*
X151748644Y-116966090D01*
X151767093Y-116951804D01*
X151785169Y-116936123D01*
X151803060Y-116919000D01*
X151811714Y-116915842D01*
X151819827Y-116912341D01*
X151827416Y-116908527D01*
X151834500Y-116904427D01*
X151841096Y-116900072D01*
X151847221Y-116895490D01*
X151852892Y-116890710D01*
X151858127Y-116885762D01*
X151862944Y-116880674D01*
X151867359Y-116875475D01*
X151871391Y-116870196D01*
X151875057Y-116864864D01*
X151878373Y-116859508D01*
X151881359Y-116854159D01*
X151884030Y-116848844D01*
X151886405Y-116843594D01*
X151888501Y-116838436D01*
X151890335Y-116833400D01*
X151893288Y-116823812D01*
X151895405Y-116815061D01*
X151896823Y-116807379D01*
X151897684Y-116800999D01*
X151898125Y-116796155D01*
X151898311Y-116792000D01*
X151898311Y-116728500D01*
X151897846Y-116715183D01*
X151896079Y-116699354D01*
X151892451Y-116681479D01*
X151886405Y-116662023D01*
X151877382Y-116641451D01*
X151864825Y-116620227D01*
X151848175Y-116598818D01*
X151838141Y-116588189D01*
X151826874Y-116577687D01*
X151814305Y-116567372D01*
X151800364Y-116557301D01*
X151784981Y-116547532D01*
X151768087Y-116538124D01*
X151749611Y-116529134D01*
X151729484Y-116520621D01*
X151707637Y-116512643D01*
X151683999Y-116505258D01*
X151658500Y-116498524D01*
X151631072Y-116492499D01*
X151601643Y-116487241D01*
X151570145Y-116482809D01*
X151536508Y-116479261D01*
X151500661Y-116476655D01*
X151462535Y-116475048D01*
X151422061Y-116474500D01*
X149421810Y-116474500D01*
X149381595Y-116474880D01*
X149344171Y-116476050D01*
X149309351Y-116478058D01*
X149276950Y-116480949D01*
X149246781Y-116484771D01*
X149218659Y-116489569D01*
X149192397Y-116495390D01*
X149167810Y-116502281D01*
X149156085Y-116506142D01*
X149144710Y-116510288D01*
X149133661Y-116514725D01*
X149122913Y-116519458D01*
X149112445Y-116524494D01*
X149102232Y-116529838D01*
X149092252Y-116535495D01*
X149082482Y-116541472D01*
X149063475Y-116554410D01*
X149045027Y-116568696D01*
X149026951Y-116584377D01*
X149009061Y-116601500D01*
X149000407Y-116604658D01*
X148992294Y-116608158D01*
X148984704Y-116611973D01*
X148977620Y-116616073D01*
X148971024Y-116620428D01*
X148964900Y-116625010D01*
X148959229Y-116629790D01*
X148953993Y-116634738D01*
X148949177Y-116639826D01*
X148944761Y-116645024D01*
X148940729Y-116650304D01*
X148937064Y-116655636D01*
X148933747Y-116660991D01*
X148930762Y-116666341D01*
X148928090Y-116671655D01*
X148925716Y-116676906D01*
X148923620Y-116682064D01*
X148921785Y-116687099D01*
X148918832Y-116696688D01*
X148916716Y-116705439D01*
X148915297Y-116713121D01*
X148914437Y-116719500D01*
X148913995Y-116724345D01*
X148913809Y-116728500D01*
X148913809Y-117046000D01*
X148501062Y-117046000D01*
X148501062Y-116728500D01*
X148504038Y-116690797D01*
X148506875Y-116671139D01*
X148511108Y-116648133D01*
X148517014Y-116622150D01*
X148524874Y-116593563D01*
X148534967Y-116562743D01*
X148547571Y-116530062D01*
X148562965Y-116495894D01*
X148581429Y-116460609D01*
X148603242Y-116424581D01*
X148628682Y-116388180D01*
X148658030Y-116351779D01*
X148674255Y-116333695D01*
X148691563Y-116315750D01*
X148722080Y-116286736D01*
X148754132Y-116259257D01*
X148787766Y-116233360D01*
X148823027Y-116209090D01*
X148859963Y-116186494D01*
X148898619Y-116165620D01*
X148939043Y-116146512D01*
X148981281Y-116129219D01*
X149025379Y-116113786D01*
X149071384Y-116100259D01*
X149119342Y-116088686D01*
X149169300Y-116079113D01*
X149221305Y-116071587D01*
X149275402Y-116066153D01*
X149331639Y-116062858D01*
X149390062Y-116061750D01*
X151390313Y-116061750D01*
X151443503Y-116062858D01*
G37*
G36*
X138597376Y-116074870D02*
G01*
X138649729Y-116078165D01*
X138701152Y-116083599D01*
X138751552Y-116091125D01*
X138800836Y-116100698D01*
X138848911Y-116112271D01*
X138895683Y-116125798D01*
X138941060Y-116141231D01*
X138984949Y-116158524D01*
X139027257Y-116177632D01*
X139067890Y-116198506D01*
X139106755Y-116221102D01*
X139143761Y-116245372D01*
X139178813Y-116271269D01*
X139211818Y-116298748D01*
X139242685Y-116327762D01*
X139259992Y-116342823D01*
X139276217Y-116358210D01*
X139291397Y-116373875D01*
X139305564Y-116389774D01*
X139318755Y-116405858D01*
X139331005Y-116422082D01*
X139342347Y-116438399D01*
X139352817Y-116454762D01*
X139362450Y-116471125D01*
X139371281Y-116487442D01*
X139379345Y-116503666D01*
X139386675Y-116519750D01*
X139393309Y-116535648D01*
X139399279Y-116551314D01*
X139409372Y-116581762D01*
X139417232Y-116610721D01*
X139423138Y-116637821D01*
X139427371Y-116662687D01*
X139430208Y-116684949D01*
X139431928Y-116704235D01*
X139432812Y-116720172D01*
X139433184Y-116740512D01*
X139433184Y-116804012D01*
X139432812Y-116824352D01*
X139430208Y-116859574D01*
X139427371Y-116881837D01*
X139423138Y-116906703D01*
X139417232Y-116933802D01*
X139409372Y-116962762D01*
X139399279Y-116993210D01*
X139386675Y-117024774D01*
X139371281Y-117057082D01*
X139352817Y-117089762D01*
X139331005Y-117122442D01*
X139318755Y-117138666D01*
X139305564Y-117154750D01*
X139291397Y-117170648D01*
X139276217Y-117186314D01*
X139259992Y-117201701D01*
X139242685Y-117216762D01*
X139179185Y-117280262D01*
X139242685Y-117343762D01*
X139259992Y-117358823D01*
X139276217Y-117374210D01*
X139291397Y-117389875D01*
X139305564Y-117405774D01*
X139318755Y-117421858D01*
X139331005Y-117438082D01*
X139342347Y-117454399D01*
X139352817Y-117470762D01*
X139362450Y-117487125D01*
X139371281Y-117503442D01*
X139379345Y-117519666D01*
X139386675Y-117535750D01*
X139393309Y-117551648D01*
X139399279Y-117567314D01*
X139409372Y-117597762D01*
X139417232Y-117626721D01*
X139423138Y-117653820D01*
X139427371Y-117678687D01*
X139430208Y-117700949D01*
X139431928Y-117720235D01*
X139432812Y-117736172D01*
X139433184Y-117756512D01*
X139433184Y-118391512D01*
X139020435Y-118391512D01*
X139020435Y-117724762D01*
X139019504Y-117713848D01*
X139017295Y-117701321D01*
X139012993Y-117685074D01*
X139005901Y-117665851D01*
X138995320Y-117644395D01*
X138980553Y-117621450D01*
X138960904Y-117597762D01*
X138949029Y-117585871D01*
X138935673Y-117574073D01*
X138920746Y-117562462D01*
X138904163Y-117551129D01*
X138885836Y-117540168D01*
X138865677Y-117529673D01*
X138843600Y-117519736D01*
X138819517Y-117510449D01*
X138793341Y-117501907D01*
X138764986Y-117494202D01*
X138734362Y-117487427D01*
X138701385Y-117481676D01*
X138665966Y-117477041D01*
X138628017Y-117473614D01*
X138587453Y-117471490D01*
X138544185Y-117470762D01*
X136067684Y-117470762D01*
X136067684Y-118423262D01*
X135654935Y-118423262D01*
X135654935Y-116740512D01*
X135655307Y-116721474D01*
X135656340Y-116708762D01*
X136035935Y-116708762D01*
X136035935Y-117026262D01*
X138512434Y-117026262D01*
X138552649Y-117025882D01*
X138590073Y-117024712D01*
X138624892Y-117022704D01*
X138657294Y-117019813D01*
X138687462Y-117015991D01*
X138715585Y-117011193D01*
X138741847Y-117005372D01*
X138766434Y-116998481D01*
X138778158Y-116994619D01*
X138789534Y-116990473D01*
X138800583Y-116986037D01*
X138811331Y-116981303D01*
X138821799Y-116976268D01*
X138832012Y-116970924D01*
X138841992Y-116965267D01*
X138851762Y-116959289D01*
X138870769Y-116946352D01*
X138889217Y-116932066D01*
X138907294Y-116916385D01*
X138925184Y-116899262D01*
X138933838Y-116896104D01*
X138941951Y-116892603D01*
X138949540Y-116888789D01*
X138956624Y-116884689D01*
X138963219Y-116880334D01*
X138969344Y-116875752D01*
X138975015Y-116870972D01*
X138980250Y-116866024D01*
X138985067Y-116860936D01*
X138989482Y-116855737D01*
X138993514Y-116850458D01*
X138997179Y-116845126D01*
X139000496Y-116839770D01*
X139003481Y-116834421D01*
X139006153Y-116829106D01*
X139008527Y-116823856D01*
X139010623Y-116818698D01*
X139012457Y-116813662D01*
X139015411Y-116804074D01*
X139017527Y-116795322D01*
X139018945Y-116787641D01*
X139019806Y-116781261D01*
X139020247Y-116776417D01*
X139020434Y-116772262D01*
X139020434Y-116708762D01*
X139019503Y-116697848D01*
X139017294Y-116685322D01*
X139012992Y-116669074D01*
X139005900Y-116649851D01*
X138995319Y-116628395D01*
X138980552Y-116605450D01*
X138960902Y-116581762D01*
X138949028Y-116569871D01*
X138935671Y-116558074D01*
X138920745Y-116546462D01*
X138904162Y-116535129D01*
X138885834Y-116524169D01*
X138865676Y-116513673D01*
X138843599Y-116503736D01*
X138819516Y-116494449D01*
X138793340Y-116485907D01*
X138764984Y-116478202D01*
X138734361Y-116471428D01*
X138701384Y-116465676D01*
X138665964Y-116461041D01*
X138628016Y-116457615D01*
X138587452Y-116455491D01*
X138544184Y-116454762D01*
X136543934Y-116454762D01*
X136503719Y-116455142D01*
X136466295Y-116456312D01*
X136431476Y-116458320D01*
X136399075Y-116461211D01*
X136368906Y-116465033D01*
X136340784Y-116469831D01*
X136314522Y-116475652D01*
X136289934Y-116482543D01*
X136278210Y-116486404D01*
X136266835Y-116490550D01*
X136255785Y-116494987D01*
X136245038Y-116499720D01*
X136234569Y-116504756D01*
X136224357Y-116510100D01*
X136214377Y-116515757D01*
X136204606Y-116521735D01*
X136185599Y-116534672D01*
X136167151Y-116548958D01*
X136149075Y-116564639D01*
X136131184Y-116581762D01*
X136125324Y-116587803D01*
X136119650Y-116594001D01*
X136114162Y-116600328D01*
X136108860Y-116606753D01*
X136098814Y-116619783D01*
X136089513Y-116632860D01*
X136080955Y-116645750D01*
X136073141Y-116658222D01*
X136066072Y-116670043D01*
X136059747Y-116680981D01*
X136049329Y-116699274D01*
X136045236Y-116706165D01*
X136041888Y-116711242D01*
X136040492Y-116713028D01*
X136039283Y-116714273D01*
X136038260Y-116714949D01*
X136037423Y-116715025D01*
X136036772Y-116714474D01*
X136036307Y-116713266D01*
X136036028Y-116711371D01*
X136035935Y-116708762D01*
X135656340Y-116708762D01*
X135657912Y-116689414D01*
X135660749Y-116669082D01*
X135664981Y-116646192D01*
X135670887Y-116620977D01*
X135678747Y-116593668D01*
X135688840Y-116564499D01*
X135701444Y-116533703D01*
X135716838Y-116501511D01*
X135735302Y-116468157D01*
X135757115Y-116433872D01*
X135782555Y-116398889D01*
X135811902Y-116363442D01*
X135828128Y-116345617D01*
X135845435Y-116327762D01*
X135875953Y-116298748D01*
X135908005Y-116271269D01*
X135941639Y-116245372D01*
X135976900Y-116221102D01*
X136013836Y-116198506D01*
X136052492Y-116177632D01*
X136092916Y-116158524D01*
X136135154Y-116141231D01*
X136179252Y-116125798D01*
X136225257Y-116112271D01*
X136273215Y-116100698D01*
X136323174Y-116091125D01*
X136375178Y-116083599D01*
X136429276Y-116078165D01*
X136485513Y-116074870D01*
X136543935Y-116073762D01*
X138544185Y-116073762D01*
X138597376Y-116074870D01*
G37*
G36*
X131237321Y-116075250D02*
G01*
X131295573Y-116079715D01*
X131352802Y-116087156D01*
X131408869Y-116097574D01*
X131463633Y-116110969D01*
X131516955Y-116127340D01*
X131568696Y-116146688D01*
X131618716Y-116169012D01*
X131666876Y-116194313D01*
X131690215Y-116208079D01*
X131713036Y-116222590D01*
X131735323Y-116237845D01*
X131757057Y-116253844D01*
X131778221Y-116270587D01*
X131798798Y-116288074D01*
X131818771Y-116306306D01*
X131838121Y-116325281D01*
X131856833Y-116345001D01*
X131874887Y-116365465D01*
X131892266Y-116386673D01*
X131908954Y-116408625D01*
X131924933Y-116431322D01*
X131940185Y-116454762D01*
X131975718Y-116515409D01*
X132010134Y-116576801D01*
X132042318Y-116636704D01*
X132071154Y-116692887D01*
X132095524Y-116743116D01*
X132105687Y-116765301D01*
X132114314Y-116785160D01*
X132121267Y-116802415D01*
X132126406Y-116816786D01*
X132129592Y-116827995D01*
X132130685Y-116835762D01*
X132130685Y-116931012D01*
X131749685Y-117058012D01*
X131717935Y-116931012D01*
X131711485Y-116909184D01*
X131702866Y-116884131D01*
X131690153Y-116851637D01*
X131682146Y-116833064D01*
X131672976Y-116813190D01*
X131662597Y-116792199D01*
X131650962Y-116770277D01*
X131638025Y-116747612D01*
X131623739Y-116724389D01*
X131608058Y-116700793D01*
X131590935Y-116677012D01*
X131567115Y-116648355D01*
X131543248Y-116621883D01*
X131519288Y-116597552D01*
X131495189Y-116575313D01*
X131470903Y-116555120D01*
X131446385Y-116536927D01*
X131421588Y-116520688D01*
X131396466Y-116506356D01*
X131370971Y-116493884D01*
X131345058Y-116483225D01*
X131318680Y-116474334D01*
X131291790Y-116467164D01*
X131264342Y-116461668D01*
X131236290Y-116457801D01*
X131207586Y-116455514D01*
X131178185Y-116454762D01*
X129209685Y-116454762D01*
X129166417Y-116455492D01*
X129125853Y-116457622D01*
X129087905Y-116461067D01*
X129052485Y-116465738D01*
X129019508Y-116471549D01*
X128988884Y-116478412D01*
X128960529Y-116486240D01*
X128934353Y-116494946D01*
X128910270Y-116504442D01*
X128888193Y-116514642D01*
X128868034Y-116525458D01*
X128849707Y-116536803D01*
X128833124Y-116548591D01*
X128818197Y-116560732D01*
X128804840Y-116573141D01*
X128792966Y-116585731D01*
X128782487Y-116598413D01*
X128773316Y-116611101D01*
X128765366Y-116623708D01*
X128758550Y-116636146D01*
X128752780Y-116648329D01*
X128747969Y-116660168D01*
X128744030Y-116671577D01*
X128740876Y-116682469D01*
X128736574Y-116702351D01*
X128734365Y-116719118D01*
X128733435Y-116740512D01*
X128733435Y-116835762D01*
X128734365Y-116846676D01*
X128736574Y-116859202D01*
X128740876Y-116875449D01*
X128747969Y-116894673D01*
X128758550Y-116916129D01*
X128773316Y-116939073D01*
X128792966Y-116962762D01*
X128804840Y-116974653D01*
X128818197Y-116986450D01*
X128833124Y-116998062D01*
X128849707Y-117009395D01*
X128868034Y-117020355D01*
X128888193Y-117030851D01*
X128910270Y-117040788D01*
X128934353Y-117050074D01*
X128960529Y-117058616D01*
X128988884Y-117066321D01*
X129019508Y-117073096D01*
X129052485Y-117078848D01*
X129087905Y-117083483D01*
X129125853Y-117086909D01*
X129166417Y-117089033D01*
X129209685Y-117089762D01*
X131209934Y-117089762D01*
X131263125Y-117090870D01*
X131315478Y-117094165D01*
X131366901Y-117099598D01*
X131417301Y-117107125D01*
X131466585Y-117116698D01*
X131514660Y-117128271D01*
X131561432Y-117141798D01*
X131606809Y-117157231D01*
X131650698Y-117174524D01*
X131693005Y-117193632D01*
X131733639Y-117214506D01*
X131772504Y-117237102D01*
X131809510Y-117261372D01*
X131844562Y-117287269D01*
X131877568Y-117314748D01*
X131908434Y-117343762D01*
X131925741Y-117358823D01*
X131941967Y-117374210D01*
X131957146Y-117389875D01*
X131971314Y-117405774D01*
X131984505Y-117421858D01*
X131996754Y-117438082D01*
X132008097Y-117454399D01*
X132018567Y-117470762D01*
X132028200Y-117487125D01*
X132037031Y-117503442D01*
X132045094Y-117519666D01*
X132052425Y-117535750D01*
X132059059Y-117551648D01*
X132065029Y-117567314D01*
X132075122Y-117597762D01*
X132082982Y-117626721D01*
X132088888Y-117653820D01*
X132093120Y-117678687D01*
X132095958Y-117700949D01*
X132097678Y-117720235D01*
X132098562Y-117736172D01*
X132098934Y-117756512D01*
X132098934Y-117851762D01*
X132098562Y-117870799D01*
X132095958Y-117902859D01*
X132093120Y-117923192D01*
X132088888Y-117946082D01*
X132082982Y-117971297D01*
X132075122Y-117998606D01*
X132065029Y-118027774D01*
X132052425Y-118058571D01*
X132037031Y-118090763D01*
X132018567Y-118124117D01*
X131996755Y-118158402D01*
X131971314Y-118193384D01*
X131941967Y-118228832D01*
X131925742Y-118246657D01*
X131908435Y-118264512D01*
X131877568Y-118293169D01*
X131844562Y-118319640D01*
X131809510Y-118343972D01*
X131772505Y-118366211D01*
X131733639Y-118386403D01*
X131693006Y-118404596D01*
X131650698Y-118420835D01*
X131606809Y-118435168D01*
X131561432Y-118447640D01*
X131514660Y-118458298D01*
X131466585Y-118467189D01*
X131417302Y-118474359D01*
X131366902Y-118479855D01*
X131315478Y-118483723D01*
X131263125Y-118486010D01*
X131209934Y-118486762D01*
X129273185Y-118486762D01*
X129214049Y-118485273D01*
X129155797Y-118480809D01*
X129098568Y-118473367D01*
X129042501Y-118462949D01*
X128987737Y-118449555D01*
X128934415Y-118433184D01*
X128882674Y-118413836D01*
X128832654Y-118391512D01*
X128784494Y-118366211D01*
X128761155Y-118352444D01*
X128738334Y-118337934D01*
X128716047Y-118322679D01*
X128694313Y-118306680D01*
X128673149Y-118289937D01*
X128652572Y-118272449D01*
X128632599Y-118254218D01*
X128613248Y-118235242D01*
X128594537Y-118215523D01*
X128576483Y-118195059D01*
X128559103Y-118173851D01*
X128542415Y-118151899D01*
X128526437Y-118129202D01*
X128511185Y-118105762D01*
X128475652Y-118045114D01*
X128441236Y-117983723D01*
X128409052Y-117923819D01*
X128380216Y-117867637D01*
X128355846Y-117817407D01*
X128345683Y-117795223D01*
X128337056Y-117775363D01*
X128330103Y-117758109D01*
X128324964Y-117743737D01*
X128321778Y-117732529D01*
X128320685Y-117724762D01*
X128320685Y-117661262D01*
X128320685Y-117597762D01*
X128701685Y-117502512D01*
X128733435Y-117629512D01*
X128739884Y-117650844D01*
X128748504Y-117674718D01*
X128754325Y-117689144D01*
X128761216Y-117704918D01*
X128769223Y-117721809D01*
X128778393Y-117739583D01*
X128788773Y-117758008D01*
X128800408Y-117776852D01*
X128813345Y-117795881D01*
X128827631Y-117814865D01*
X128843312Y-117833569D01*
X128860435Y-117851762D01*
X128884255Y-117880419D01*
X128908122Y-117906890D01*
X128932082Y-117931222D01*
X128956181Y-117953461D01*
X128980466Y-117973653D01*
X129004984Y-117991846D01*
X129029781Y-118008085D01*
X129054904Y-118022418D01*
X129080398Y-118034890D01*
X129106311Y-118045548D01*
X129132690Y-118054439D01*
X129159579Y-118061609D01*
X129187027Y-118067105D01*
X129215080Y-118070973D01*
X129243784Y-118073260D01*
X129273185Y-118074012D01*
X131178185Y-118074012D01*
X131218399Y-118073632D01*
X131255823Y-118072461D01*
X131290643Y-118070454D01*
X131323044Y-118067562D01*
X131353213Y-118063741D01*
X131381335Y-118058943D01*
X131407597Y-118053122D01*
X131432185Y-118046230D01*
X131443909Y-118042369D01*
X131455284Y-118038223D01*
X131466334Y-118033786D01*
X131477081Y-118029053D01*
X131487550Y-118024018D01*
X131497762Y-118018674D01*
X131507742Y-118013016D01*
X131517513Y-118007039D01*
X131536520Y-117994102D01*
X131554968Y-117979816D01*
X131573044Y-117964135D01*
X131590935Y-117947012D01*
X131599588Y-117943854D01*
X131607701Y-117940353D01*
X131615291Y-117936539D01*
X131622375Y-117932439D01*
X131628970Y-117928084D01*
X131635095Y-117923502D01*
X131640766Y-117918722D01*
X131646001Y-117913773D01*
X131650818Y-117908686D01*
X131655233Y-117903487D01*
X131659265Y-117898208D01*
X131662930Y-117892876D01*
X131666247Y-117887520D01*
X131669232Y-117882171D01*
X131671904Y-117876856D01*
X131674279Y-117871606D01*
X131676374Y-117866448D01*
X131678209Y-117861412D01*
X131681162Y-117851824D01*
X131683278Y-117843072D01*
X131684697Y-117835391D01*
X131685557Y-117829011D01*
X131685999Y-117824167D01*
X131686185Y-117820012D01*
X131686185Y-117756512D01*
X131685255Y-117745598D01*
X131683046Y-117733072D01*
X131678743Y-117716824D01*
X131671651Y-117697601D01*
X131661070Y-117676145D01*
X131646304Y-117653200D01*
X131626654Y-117629512D01*
X131614779Y-117617621D01*
X131601423Y-117605824D01*
X131586496Y-117594212D01*
X131569913Y-117582879D01*
X131551585Y-117571919D01*
X131531427Y-117561423D01*
X131509350Y-117551486D01*
X131485267Y-117542200D01*
X131459091Y-117533657D01*
X131430735Y-117525952D01*
X131400112Y-117519178D01*
X131367134Y-117513426D01*
X131331715Y-117508791D01*
X131293767Y-117505365D01*
X131253202Y-117503241D01*
X131209935Y-117502512D01*
X129209685Y-117502512D01*
X129156494Y-117501404D01*
X129104141Y-117498109D01*
X129052718Y-117492675D01*
X129002318Y-117485149D01*
X128953034Y-117475576D01*
X128904959Y-117464003D01*
X128858187Y-117450476D01*
X128812810Y-117435043D01*
X128768921Y-117417750D01*
X128726614Y-117398642D01*
X128685980Y-117377768D01*
X128647115Y-117355172D01*
X128610109Y-117330902D01*
X128575057Y-117305005D01*
X128542051Y-117277526D01*
X128511185Y-117248512D01*
X128493878Y-117233451D01*
X128477652Y-117218064D01*
X128462473Y-117202398D01*
X128448305Y-117186500D01*
X128435114Y-117170416D01*
X128422865Y-117154192D01*
X128411522Y-117137875D01*
X128401052Y-117121512D01*
X128391419Y-117105148D01*
X128382588Y-117088832D01*
X128374525Y-117072608D01*
X128367194Y-117056524D01*
X128360560Y-117040625D01*
X128354590Y-117024960D01*
X128344497Y-116994512D01*
X128336637Y-116965552D01*
X128330731Y-116938453D01*
X128326499Y-116913586D01*
X128323661Y-116891324D01*
X128321941Y-116872039D01*
X128321057Y-116856102D01*
X128320685Y-116835762D01*
X128320685Y-116772262D01*
X128321057Y-116742744D01*
X128323661Y-116702809D01*
X128326499Y-116679399D01*
X128330731Y-116653944D01*
X128336637Y-116626627D01*
X128344497Y-116597637D01*
X128354590Y-116567158D01*
X128367194Y-116535377D01*
X128382588Y-116502480D01*
X128401052Y-116468653D01*
X128422865Y-116434081D01*
X128448305Y-116398951D01*
X128477652Y-116363450D01*
X128493878Y-116345617D01*
X128511185Y-116327762D01*
X128541702Y-116298748D01*
X128573755Y-116271269D01*
X128607388Y-116245372D01*
X128642650Y-116221102D01*
X128679586Y-116198506D01*
X128718242Y-116177632D01*
X128758666Y-116158524D01*
X128800904Y-116141231D01*
X128845002Y-116125798D01*
X128891007Y-116112271D01*
X128938965Y-116100698D01*
X128988923Y-116091125D01*
X129040928Y-116083599D01*
X129095025Y-116078165D01*
X129151262Y-116074870D01*
X129209685Y-116073762D01*
X131178185Y-116073762D01*
X131237321Y-116075250D01*
G37*
G36*
X134988185Y-116454762D02*
G01*
X133337185Y-116454762D01*
X135083435Y-118201012D01*
X134829435Y-118486762D01*
X133083185Y-116740512D01*
X133083185Y-118391512D01*
X132670435Y-118391512D01*
X132670435Y-116073762D01*
X134988185Y-116073762D01*
X134988185Y-116454762D01*
G37*
G36*
X146769951Y-115967601D02*
G01*
X146815398Y-115970841D01*
X146859449Y-115976127D01*
X146902152Y-115983367D01*
X146943553Y-115992467D01*
X146983698Y-116003335D01*
X147022633Y-116015877D01*
X147060406Y-116030000D01*
X147097063Y-116045611D01*
X147132650Y-116062618D01*
X147167215Y-116080927D01*
X147200802Y-116100445D01*
X147233459Y-116121080D01*
X147265233Y-116142737D01*
X147296169Y-116165325D01*
X147326315Y-116188750D01*
X147358063Y-116220500D01*
X147421564Y-116252250D01*
X147470677Y-116287783D01*
X147496350Y-116305200D01*
X147522767Y-116322199D01*
X147549928Y-116338640D01*
X147577834Y-116354383D01*
X147606483Y-116369289D01*
X147635876Y-116383219D01*
X147666014Y-116396032D01*
X147696896Y-116407589D01*
X147728522Y-116417751D01*
X147760892Y-116426379D01*
X147794006Y-116433332D01*
X147827864Y-116438471D01*
X147862466Y-116441657D01*
X147897812Y-116442750D01*
X148278809Y-116442750D01*
X148278809Y-116855500D01*
X147897810Y-116855500D01*
X147865528Y-116855041D01*
X147834147Y-116853686D01*
X147803638Y-116851471D01*
X147773972Y-116848431D01*
X147745120Y-116844600D01*
X147717053Y-116840013D01*
X147689742Y-116834705D01*
X147663157Y-116828711D01*
X147637270Y-116822066D01*
X147612052Y-116814805D01*
X147563504Y-116798573D01*
X147517282Y-116780295D01*
X147473153Y-116760250D01*
X147430884Y-116738716D01*
X147390243Y-116715974D01*
X147350998Y-116692301D01*
X147312915Y-116667977D01*
X147167560Y-116569750D01*
X147135810Y-116538000D01*
X147079069Y-116493352D01*
X147052582Y-116473260D01*
X147027165Y-116454656D01*
X147002678Y-116437541D01*
X146978982Y-116421914D01*
X146955937Y-116407775D01*
X146933403Y-116395125D01*
X146911242Y-116383963D01*
X146889313Y-116374289D01*
X146867477Y-116366104D01*
X146845595Y-116359406D01*
X146823527Y-116354197D01*
X146801133Y-116350477D01*
X146778274Y-116348244D01*
X146754811Y-116347500D01*
X146731348Y-116348244D01*
X146708489Y-116350477D01*
X146686095Y-116354197D01*
X146664027Y-116359406D01*
X146642145Y-116366104D01*
X146620309Y-116374289D01*
X146598380Y-116383963D01*
X146576219Y-116395125D01*
X146553685Y-116407775D01*
X146530640Y-116421914D01*
X146506944Y-116437541D01*
X146482457Y-116454656D01*
X146457040Y-116473260D01*
X146430553Y-116493352D01*
X146373812Y-116538000D01*
X146300701Y-116597221D01*
X146262680Y-116626250D01*
X146223496Y-116654582D01*
X146183010Y-116681983D01*
X146141083Y-116708222D01*
X146097574Y-116733066D01*
X146052344Y-116756281D01*
X146005254Y-116777637D01*
X145956164Y-116796899D01*
X145904934Y-116813836D01*
X145851426Y-116828215D01*
X145795499Y-116839803D01*
X145737014Y-116848369D01*
X145675831Y-116853678D01*
X145611812Y-116855500D01*
X145230813Y-116855500D01*
X145230813Y-116442750D01*
X145611812Y-116442750D01*
X145646810Y-116441657D01*
X145680459Y-116438471D01*
X145712899Y-116433332D01*
X145744269Y-116426379D01*
X145774709Y-116417752D01*
X145804358Y-116407589D01*
X145833357Y-116396032D01*
X145861843Y-116383219D01*
X145889958Y-116369289D01*
X145917840Y-116354383D01*
X145945629Y-116338640D01*
X145973464Y-116322199D01*
X146088062Y-116252250D01*
X146119810Y-116220500D01*
X146180892Y-116173123D01*
X146212665Y-116149900D01*
X146245322Y-116127234D01*
X146278909Y-116105313D01*
X146313473Y-116084322D01*
X146349060Y-116064447D01*
X146385717Y-116045875D01*
X146423490Y-116028791D01*
X146462426Y-116013381D01*
X146502571Y-115999831D01*
X146543972Y-115988328D01*
X146586675Y-115979057D01*
X146630727Y-115972205D01*
X146676174Y-115967957D01*
X146723063Y-115966500D01*
X146769951Y-115967601D01*
G37*
G36*
X146746598Y-116601867D02*
G01*
X146769594Y-116602950D01*
X146792066Y-116604718D01*
X146814033Y-116607143D01*
X146835511Y-116610196D01*
X146856519Y-116613848D01*
X146897191Y-116622832D01*
X146936189Y-116633862D01*
X146973652Y-116646707D01*
X147009720Y-116661132D01*
X147044531Y-116676906D01*
X147078227Y-116693797D01*
X147110946Y-116711571D01*
X147142828Y-116729996D01*
X147174012Y-116748840D01*
X147294563Y-116823750D01*
X147326311Y-116855500D01*
X147395082Y-116901513D01*
X147459761Y-116943805D01*
X147491147Y-116963323D01*
X147522207Y-116981632D01*
X147553174Y-116998638D01*
X147584280Y-117014250D01*
X147615759Y-117028373D01*
X147647842Y-117040915D01*
X147680763Y-117051782D01*
X147714753Y-117060883D01*
X147750045Y-117068123D01*
X147786872Y-117073409D01*
X147825466Y-117076649D01*
X147866060Y-117077750D01*
X148278810Y-117077750D01*
X148278810Y-117490500D01*
X147897811Y-117490500D01*
X147865529Y-117490041D01*
X147834148Y-117488686D01*
X147803639Y-117486471D01*
X147773973Y-117483431D01*
X147745120Y-117479600D01*
X147717053Y-117475013D01*
X147689742Y-117469705D01*
X147663157Y-117463711D01*
X147637270Y-117457066D01*
X147612051Y-117449805D01*
X147563504Y-117433573D01*
X147517282Y-117415295D01*
X147473153Y-117395250D01*
X147430884Y-117373716D01*
X147390243Y-117350974D01*
X147350997Y-117327301D01*
X147312914Y-117302977D01*
X147167559Y-117204750D01*
X147135811Y-117173000D01*
X147079070Y-117128352D01*
X147052583Y-117108260D01*
X147027166Y-117089656D01*
X147002679Y-117072541D01*
X146978983Y-117056914D01*
X146955937Y-117042775D01*
X146933404Y-117030125D01*
X146911242Y-117018963D01*
X146889314Y-117009289D01*
X146867478Y-117001103D01*
X146845596Y-116994406D01*
X146823527Y-116989197D01*
X146801134Y-116985477D01*
X146778275Y-116983244D01*
X146754812Y-116982500D01*
X146731348Y-116983244D01*
X146708490Y-116985477D01*
X146686096Y-116989197D01*
X146664028Y-116994406D01*
X146642146Y-117001103D01*
X146620310Y-117009289D01*
X146598381Y-117018963D01*
X146576219Y-117030125D01*
X146553686Y-117042775D01*
X146530641Y-117056914D01*
X146506944Y-117072541D01*
X146482457Y-117089656D01*
X146457040Y-117108260D01*
X146430554Y-117128352D01*
X146373813Y-117173000D01*
X146300701Y-117232221D01*
X146262680Y-117261250D01*
X146223496Y-117289582D01*
X146183010Y-117316983D01*
X146141082Y-117343222D01*
X146097573Y-117368066D01*
X146052343Y-117391281D01*
X146005253Y-117412637D01*
X145956163Y-117431899D01*
X145904933Y-117448836D01*
X145851425Y-117463215D01*
X145795498Y-117474803D01*
X145737014Y-117483369D01*
X145675831Y-117488678D01*
X145611812Y-117490500D01*
X145230813Y-117490500D01*
X145230813Y-117077750D01*
X145611812Y-117077750D01*
X145646810Y-117076657D01*
X145680459Y-117073471D01*
X145712899Y-117068332D01*
X145744269Y-117061379D01*
X145774709Y-117052752D01*
X145804358Y-117042589D01*
X145833356Y-117031032D01*
X145861843Y-117018219D01*
X145889958Y-117004289D01*
X145917840Y-116989383D01*
X145945629Y-116973640D01*
X145973465Y-116957199D01*
X146088063Y-116887250D01*
X146119811Y-116855500D01*
X146180893Y-116808123D01*
X146212666Y-116784900D01*
X146245323Y-116762234D01*
X146278910Y-116740313D01*
X146313474Y-116719322D01*
X146349061Y-116699448D01*
X146385718Y-116680875D01*
X146423491Y-116663791D01*
X146462426Y-116648381D01*
X146502571Y-116634831D01*
X146543972Y-116623328D01*
X146586674Y-116614057D01*
X146630726Y-116607205D01*
X146676173Y-116602957D01*
X146723061Y-116601500D01*
X146746598Y-116601867D01*
G37*
G36*
X148247060Y-118157250D02*
G01*
X147866061Y-118157250D01*
X147831063Y-118158343D01*
X147797414Y-118161529D01*
X147764974Y-118166668D01*
X147733604Y-118173621D01*
X147703164Y-118182248D01*
X147673514Y-118192410D01*
X147644516Y-118203968D01*
X147616030Y-118216781D01*
X147587915Y-118230710D01*
X147560033Y-118245616D01*
X147532244Y-118261360D01*
X147504409Y-118277801D01*
X147389811Y-118347750D01*
X147358060Y-118379500D01*
X147296979Y-118426877D01*
X147265206Y-118450100D01*
X147232549Y-118472766D01*
X147198962Y-118494687D01*
X147164398Y-118515678D01*
X147128811Y-118535553D01*
X147092155Y-118554125D01*
X147054382Y-118571209D01*
X147015446Y-118586619D01*
X146975301Y-118600169D01*
X146933901Y-118611672D01*
X146891198Y-118620943D01*
X146847146Y-118627795D01*
X146801699Y-118632043D01*
X146754810Y-118633500D01*
X146731274Y-118633133D01*
X146708278Y-118632050D01*
X146685805Y-118630282D01*
X146663838Y-118627857D01*
X146642360Y-118624804D01*
X146621352Y-118621152D01*
X146580680Y-118612168D01*
X146541683Y-118601138D01*
X146504220Y-118588293D01*
X146468152Y-118573868D01*
X146433340Y-118558094D01*
X146399644Y-118541203D01*
X146366925Y-118523429D01*
X146335043Y-118505004D01*
X146303859Y-118486160D01*
X146183308Y-118411250D01*
X146151560Y-118379500D01*
X146093269Y-118333487D01*
X146064775Y-118311830D01*
X146036466Y-118291195D01*
X146008158Y-118271677D01*
X145979664Y-118253368D01*
X145950797Y-118236361D01*
X145921373Y-118220750D01*
X145891204Y-118206627D01*
X145860105Y-118194085D01*
X145827890Y-118183217D01*
X145794373Y-118174117D01*
X145759368Y-118166877D01*
X145722688Y-118161591D01*
X145684148Y-118158351D01*
X145643561Y-118157250D01*
X145262562Y-118157250D01*
X145262562Y-117744500D01*
X145643561Y-117744500D01*
X145675934Y-117744959D01*
X145707581Y-117746314D01*
X145738517Y-117748529D01*
X145768763Y-117751569D01*
X145798333Y-117755400D01*
X145827247Y-117759987D01*
X145883174Y-117771289D01*
X145936682Y-117785195D01*
X145987912Y-117801427D01*
X146037002Y-117819705D01*
X146084092Y-117839750D01*
X146129322Y-117861283D01*
X146172831Y-117884026D01*
X146214759Y-117907699D01*
X146255245Y-117932023D01*
X146332450Y-117981509D01*
X146405562Y-118030250D01*
X146462302Y-118074898D01*
X146488789Y-118094990D01*
X146514206Y-118113594D01*
X146538693Y-118130709D01*
X146562389Y-118146336D01*
X146585433Y-118160475D01*
X146607967Y-118173125D01*
X146630128Y-118184287D01*
X146652057Y-118193961D01*
X146673893Y-118202146D01*
X146695775Y-118208844D01*
X146717843Y-118214053D01*
X146740237Y-118217773D01*
X146763097Y-118220006D01*
X146786561Y-118220750D01*
X146810024Y-118220006D01*
X146832883Y-118217773D01*
X146855276Y-118214053D01*
X146877345Y-118208844D01*
X146899227Y-118202146D01*
X146921063Y-118193961D01*
X146942991Y-118184287D01*
X146965153Y-118173125D01*
X146987686Y-118160474D01*
X147010732Y-118146336D01*
X147034428Y-118130709D01*
X147058915Y-118113594D01*
X147084332Y-118094990D01*
X147110819Y-118074898D01*
X147167560Y-118030250D01*
X147240610Y-117971029D01*
X147278483Y-117941999D01*
X147317380Y-117913668D01*
X147357393Y-117886266D01*
X147398615Y-117860028D01*
X147441140Y-117835184D01*
X147485060Y-117811969D01*
X147530468Y-117790613D01*
X147577457Y-117771351D01*
X147626121Y-117754414D01*
X147676552Y-117740035D01*
X147728843Y-117728446D01*
X147783088Y-117719881D01*
X147839379Y-117714571D01*
X147897809Y-117712750D01*
X148247060Y-117712750D01*
X148247060Y-118157250D01*
G37*
D11*
X132173625Y-89837304D02*
X132068738Y-90414887D01*
X132512771Y-92525907D02*
X131877593Y-92589560D01*
D12*
X140390017Y-88898260D02*
X140390017Y-88897533D01*
X135454457Y-88423145D02*
X135442427Y-88423070D01*
D11*
X131701953Y-92880181D02*
X131486021Y-92753245D01*
X129728751Y-93100463D02*
X129072631Y-92349919D01*
X129651750Y-91684435D02*
X129866491Y-92075458D01*
D10*
G36*
X137894444Y-88975402D02*
G01*
X137847534Y-89169998D01*
X137868337Y-89169691D01*
X137892276Y-89169097D01*
X137923407Y-89168024D01*
X137960353Y-89166332D01*
X138001738Y-89163880D01*
X138046188Y-89160529D01*
X138069132Y-89158472D01*
X138092326Y-89156139D01*
X138140050Y-89150257D01*
X138188681Y-89142974D01*
X138235978Y-89134963D01*
X138279701Y-89126898D01*
X138374028Y-89107569D01*
X138389268Y-89350060D01*
X138253061Y-89362920D01*
X138137854Y-89372787D01*
X138084530Y-89376770D01*
X138040178Y-89379429D01*
X137880624Y-89386007D01*
X137797687Y-89388930D01*
X137713152Y-89604750D01*
X137719741Y-89601594D01*
X137738660Y-89593391D01*
X137752345Y-89587989D01*
X137768635Y-89582037D01*
X137787370Y-89575771D01*
X137808392Y-89569429D01*
X137831541Y-89563247D01*
X137856659Y-89557463D01*
X137883585Y-89552315D01*
X137897677Y-89550052D01*
X137912161Y-89548038D01*
X137927018Y-89546301D01*
X137942228Y-89544870D01*
X137957771Y-89543777D01*
X137973626Y-89543049D01*
X137989775Y-89542717D01*
X138006197Y-89542811D01*
X138022872Y-89543360D01*
X138039780Y-89544394D01*
X138108978Y-89550910D01*
X138143924Y-89555679D01*
X138178639Y-89561881D01*
X138212779Y-89569836D01*
X138245998Y-89579862D01*
X138277948Y-89592278D01*
X138293341Y-89599483D01*
X138308286Y-89607405D01*
X138322742Y-89616085D01*
X138336665Y-89625562D01*
X138350012Y-89635876D01*
X138362739Y-89647067D01*
X138374804Y-89659175D01*
X138386162Y-89672240D01*
X138396772Y-89686301D01*
X138406590Y-89701400D01*
X138415571Y-89717575D01*
X138423675Y-89734867D01*
X138430856Y-89753315D01*
X138437072Y-89772959D01*
X138442279Y-89793840D01*
X138446435Y-89815997D01*
X138449496Y-89839470D01*
X138451419Y-89864299D01*
X138451657Y-89889455D01*
X138449736Y-89913872D01*
X138445725Y-89937535D01*
X138439691Y-89960429D01*
X138431701Y-89982538D01*
X138421824Y-90003848D01*
X138410127Y-90024343D01*
X138396677Y-90044008D01*
X138381543Y-90062829D01*
X138364791Y-90080790D01*
X138346490Y-90097876D01*
X138326708Y-90114072D01*
X138305510Y-90129363D01*
X138282967Y-90143734D01*
X138259144Y-90157170D01*
X138234110Y-90169655D01*
X138207932Y-90181175D01*
X138180679Y-90191715D01*
X138152417Y-90201260D01*
X138123214Y-90209794D01*
X138093138Y-90217302D01*
X138062257Y-90223769D01*
X138030638Y-90229181D01*
X137998349Y-90233522D01*
X137965457Y-90236777D01*
X137932030Y-90238931D01*
X137898137Y-90239970D01*
X137863843Y-90239877D01*
X137829218Y-90238637D01*
X137794328Y-90236237D01*
X137759241Y-90232660D01*
X137724026Y-90227892D01*
X137532440Y-90198111D01*
X137477627Y-90188424D01*
X137477092Y-90188160D01*
X137477529Y-90188046D01*
X137480804Y-90188192D01*
X137493328Y-90189474D01*
X137513286Y-90191903D01*
X137492093Y-89957818D01*
X137531120Y-89966333D01*
X137576244Y-89975065D01*
X137635186Y-89985081D01*
X137669076Y-89990172D01*
X137705506Y-89995106D01*
X137744170Y-89999723D01*
X137784763Y-90003865D01*
X137826980Y-90007373D01*
X137870516Y-90010086D01*
X137915067Y-90011845D01*
X137960325Y-90012492D01*
X137981458Y-90011733D01*
X138002126Y-90009491D01*
X138022238Y-90005867D01*
X138041703Y-90000960D01*
X138060427Y-89994872D01*
X138078321Y-89987704D01*
X138095292Y-89979556D01*
X138111249Y-89970529D01*
X138126100Y-89960725D01*
X138139753Y-89950243D01*
X138152117Y-89939185D01*
X138163101Y-89927652D01*
X138172612Y-89915743D01*
X138180560Y-89903562D01*
X138186852Y-89891207D01*
X138191397Y-89878780D01*
X138194103Y-89866381D01*
X138194879Y-89854112D01*
X138193632Y-89842073D01*
X138190273Y-89830366D01*
X138184708Y-89819090D01*
X138176846Y-89808347D01*
X138166596Y-89798237D01*
X138153866Y-89788862D01*
X138138564Y-89780322D01*
X138120599Y-89772718D01*
X138099880Y-89766151D01*
X138076314Y-89760722D01*
X138049810Y-89756530D01*
X138020276Y-89753679D01*
X137987621Y-89752267D01*
X137951753Y-89752396D01*
X137929383Y-89753341D01*
X137907782Y-89755010D01*
X137886947Y-89757355D01*
X137866872Y-89760324D01*
X137828993Y-89767942D01*
X137794112Y-89777468D01*
X137762199Y-89788506D01*
X137733224Y-89800661D01*
X137707155Y-89813537D01*
X137683962Y-89826737D01*
X137663613Y-89839867D01*
X137646077Y-89852531D01*
X137631324Y-89864331D01*
X137619323Y-89874874D01*
X137603452Y-89890602D01*
X137598217Y-89896549D01*
X137361679Y-89816467D01*
X137375073Y-89790509D01*
X137407806Y-89725231D01*
X137427935Y-89683752D01*
X137448710Y-89639529D01*
X137468736Y-89594924D01*
X137478032Y-89573217D01*
X137486616Y-89552299D01*
X137501631Y-89513905D01*
X137514103Y-89480447D01*
X137524200Y-89451983D01*
X137532088Y-89428568D01*
X137541902Y-89397110D01*
X137544877Y-89386525D01*
X137397557Y-89379579D01*
X137356613Y-89377228D01*
X137320633Y-89374740D01*
X137285321Y-89371967D01*
X137289686Y-89143915D01*
X137298922Y-89147369D01*
X137309724Y-89150956D01*
X137316453Y-89153003D01*
X137323986Y-89155137D01*
X137332260Y-89157297D01*
X137341214Y-89159423D01*
X137350785Y-89161455D01*
X137360912Y-89163330D01*
X137371532Y-89164990D01*
X137382583Y-89166372D01*
X137394004Y-89167416D01*
X137399834Y-89167792D01*
X137405733Y-89168061D01*
X137462439Y-89169445D01*
X137525589Y-89170277D01*
X137598059Y-89170791D01*
X137601857Y-89160139D01*
X137605823Y-89147998D01*
X137610471Y-89132358D01*
X137612887Y-89123470D01*
X137615278Y-89114002D01*
X137617579Y-89104050D01*
X137619724Y-89093713D01*
X137621648Y-89083088D01*
X137623286Y-89072273D01*
X137624573Y-89061367D01*
X137625443Y-89050467D01*
X137627404Y-89010658D01*
X137628389Y-88979573D01*
X137628776Y-88952137D01*
X137894444Y-88975402D01*
G37*
G36*
X136339091Y-89013065D02*
G01*
X136311767Y-89115467D01*
X136288460Y-89209583D01*
X136277560Y-89257487D01*
X136268368Y-89302189D01*
X136264371Y-89325214D01*
X136260463Y-89351676D01*
X136253005Y-89412195D01*
X136246182Y-89478312D01*
X136240180Y-89544592D01*
X136231389Y-89655909D01*
X136228126Y-89702675D01*
X136339330Y-89746292D01*
X136322245Y-89818761D01*
X136307585Y-89882642D01*
X136294801Y-89941213D01*
X136292478Y-89955269D01*
X136290658Y-89972108D01*
X136289291Y-89991222D01*
X136288329Y-90012101D01*
X136287425Y-90057117D01*
X136287557Y-90103083D01*
X136288337Y-90145926D01*
X136289375Y-90181572D01*
X136290673Y-90214977D01*
X136046753Y-90223749D01*
X136027793Y-90026771D01*
X136013836Y-89843069D01*
X136008581Y-89748149D01*
X136005557Y-89658130D01*
X136005627Y-89612929D01*
X136007322Y-89563788D01*
X136010419Y-89511653D01*
X136014692Y-89457470D01*
X136025865Y-89346745D01*
X136039044Y-89239181D01*
X136052426Y-89142346D01*
X136064214Y-89063808D01*
X136075804Y-88991896D01*
X136339091Y-89013065D01*
G37*
G36*
X135250781Y-89027543D02*
G01*
X135043453Y-89546918D01*
X135045474Y-89549329D01*
X135047579Y-89550846D01*
X135049793Y-89551530D01*
X135052143Y-89551444D01*
X135054654Y-89550651D01*
X135057352Y-89549212D01*
X135063410Y-89544650D01*
X135078895Y-89530533D01*
X135088731Y-89521977D01*
X135100236Y-89513090D01*
X135113616Y-89504371D01*
X135121073Y-89500230D01*
X135129076Y-89496319D01*
X135137649Y-89492700D01*
X135146819Y-89489435D01*
X135156611Y-89486587D01*
X135167052Y-89484218D01*
X135178166Y-89482391D01*
X135189979Y-89481168D01*
X135202517Y-89480611D01*
X135215805Y-89480784D01*
X135229869Y-89481748D01*
X135244735Y-89483566D01*
X135260429Y-89486301D01*
X135276975Y-89490014D01*
X135300344Y-89497290D01*
X135321085Y-89506713D01*
X135339355Y-89518126D01*
X135355310Y-89531371D01*
X135369106Y-89546291D01*
X135380900Y-89562727D01*
X135390849Y-89580524D01*
X135399110Y-89599521D01*
X135405837Y-89619564D01*
X135411189Y-89640492D01*
X135415322Y-89662150D01*
X135418392Y-89684379D01*
X135421969Y-89729921D01*
X135423174Y-89775858D01*
X135423472Y-89863872D01*
X135425071Y-89903427D01*
X135426780Y-89921541D01*
X135429304Y-89938334D01*
X135432801Y-89953651D01*
X135437426Y-89967332D01*
X135443336Y-89979221D01*
X135450687Y-89989159D01*
X135459636Y-89996990D01*
X135470340Y-90002556D01*
X135482955Y-90005699D01*
X135497637Y-90006261D01*
X135512950Y-90004448D01*
X135527513Y-90000653D01*
X135541342Y-89995009D01*
X135554455Y-89987651D01*
X135566870Y-89978711D01*
X135578603Y-89968324D01*
X135589673Y-89956624D01*
X135600097Y-89943743D01*
X135609891Y-89929817D01*
X135619073Y-89914979D01*
X135627661Y-89899362D01*
X135635672Y-89883101D01*
X135650031Y-89849179D01*
X135662291Y-89814285D01*
X135672588Y-89779487D01*
X135681062Y-89745857D01*
X135687852Y-89714464D01*
X135693097Y-89686379D01*
X135699504Y-89644414D01*
X135701393Y-89628523D01*
X135920071Y-89765628D01*
X135919009Y-89777454D01*
X135917459Y-89791048D01*
X135915030Y-89808705D01*
X135911575Y-89829633D01*
X135906944Y-89853037D01*
X135900989Y-89878125D01*
X135897468Y-89891053D01*
X135893560Y-89904105D01*
X135881300Y-89938673D01*
X135871936Y-89961245D01*
X135860219Y-89986438D01*
X135846000Y-90013574D01*
X135829131Y-90041974D01*
X135809464Y-90070960D01*
X135786850Y-90099855D01*
X135761142Y-90127979D01*
X135747081Y-90141540D01*
X135732191Y-90154654D01*
X135716453Y-90167237D01*
X135699848Y-90179203D01*
X135682359Y-90190468D01*
X135663966Y-90200947D01*
X135644652Y-90210555D01*
X135624397Y-90219207D01*
X135603183Y-90226819D01*
X135580991Y-90233306D01*
X135557804Y-90238583D01*
X135533602Y-90242565D01*
X135508367Y-90245168D01*
X135482080Y-90246307D01*
X135456086Y-90246014D01*
X135431707Y-90244429D01*
X135408892Y-90241620D01*
X135387592Y-90237658D01*
X135367755Y-90232614D01*
X135349330Y-90226558D01*
X135332268Y-90219561D01*
X135316517Y-90211693D01*
X135302027Y-90203024D01*
X135288747Y-90193625D01*
X135276626Y-90183567D01*
X135265615Y-90172919D01*
X135255661Y-90161753D01*
X135246715Y-90150138D01*
X135238725Y-90138145D01*
X135231642Y-90125845D01*
X135225414Y-90113308D01*
X135219991Y-90100604D01*
X135215323Y-90087804D01*
X135211358Y-90074978D01*
X135205336Y-90049531D01*
X135201520Y-90024826D01*
X135199506Y-90001427D01*
X135198888Y-89979897D01*
X135199261Y-89960799D01*
X135200219Y-89944698D01*
X135202054Y-89914599D01*
X135202579Y-89898858D01*
X135202758Y-89882888D01*
X135202527Y-89866861D01*
X135201822Y-89850950D01*
X135200581Y-89835329D01*
X135198741Y-89820171D01*
X135196237Y-89805649D01*
X135193006Y-89791936D01*
X135191099Y-89785437D01*
X135188986Y-89779205D01*
X135186660Y-89773262D01*
X135184112Y-89767630D01*
X135181336Y-89762330D01*
X135178322Y-89757383D01*
X135175063Y-89752812D01*
X135171552Y-89748638D01*
X135167779Y-89744883D01*
X135163738Y-89741568D01*
X135159420Y-89738715D01*
X135154817Y-89736346D01*
X135150087Y-89734416D01*
X135145376Y-89732862D01*
X135140677Y-89731678D01*
X135135988Y-89730860D01*
X135131303Y-89730403D01*
X135126618Y-89730303D01*
X135121929Y-89730554D01*
X135117231Y-89731153D01*
X135112519Y-89732093D01*
X135107790Y-89733370D01*
X135103039Y-89734980D01*
X135098262Y-89736918D01*
X135093453Y-89739179D01*
X135088608Y-89741758D01*
X135078796Y-89747851D01*
X135068787Y-89755161D01*
X135058548Y-89763647D01*
X135048043Y-89773273D01*
X135037235Y-89783999D01*
X135026090Y-89795789D01*
X135014571Y-89808603D01*
X135002644Y-89822404D01*
X134990272Y-89837152D01*
X134983898Y-89845485D01*
X134977380Y-89855198D01*
X134964008Y-89878336D01*
X134950335Y-89905703D01*
X134936543Y-89936435D01*
X134922813Y-89969670D01*
X134909327Y-90004544D01*
X134883811Y-90075757D01*
X134861441Y-90143166D01*
X134843669Y-90199866D01*
X134827712Y-90253514D01*
X134572124Y-90174274D01*
X134992892Y-88955225D01*
X135250781Y-89027543D01*
G37*
G36*
X139598159Y-89034620D02*
G01*
X139595476Y-89084669D01*
X139593307Y-89133422D01*
X139592648Y-89154999D01*
X139592295Y-89175385D01*
X139592236Y-89210504D01*
X139592832Y-89243586D01*
X139627767Y-89236745D01*
X139665999Y-89229458D01*
X139713243Y-89220718D01*
X139737223Y-89215967D01*
X139758515Y-89211059D01*
X139776964Y-89206240D01*
X139792410Y-89201751D01*
X139804698Y-89197836D01*
X139813669Y-89194738D01*
X139821035Y-89191969D01*
X139828416Y-89415639D01*
X139817266Y-89418545D01*
X139804682Y-89421683D01*
X139788629Y-89425506D01*
X139770009Y-89429684D01*
X139749723Y-89433889D01*
X139728675Y-89437792D01*
X139718146Y-89439527D01*
X139707766Y-89441063D01*
X139667207Y-89446416D01*
X139631299Y-89450795D01*
X139595848Y-89454835D01*
X139603070Y-89764143D01*
X139648889Y-89786742D01*
X139670214Y-89797501D01*
X139693350Y-89809367D01*
X139717230Y-89821870D01*
X139740787Y-89834541D01*
X139763627Y-89847532D01*
X139785619Y-89860872D01*
X139806085Y-89873920D01*
X139824348Y-89886033D01*
X139851559Y-89904893D01*
X139861833Y-89912320D01*
X139779997Y-90146469D01*
X139767588Y-90136724D01*
X139738405Y-90113359D01*
X139721296Y-90099318D01*
X139704519Y-90085172D01*
X139689585Y-90072022D01*
X139683279Y-90066163D01*
X139678000Y-90060966D01*
X139673078Y-90056197D01*
X139667755Y-90051548D01*
X139662130Y-90047045D01*
X139656302Y-90042713D01*
X139650371Y-90038580D01*
X139644434Y-90034669D01*
X139632945Y-90027624D01*
X139622628Y-90021783D01*
X139614276Y-90017355D01*
X139606642Y-90013563D01*
X139607055Y-90022473D01*
X139606809Y-90032728D01*
X139605584Y-90046064D01*
X139602872Y-90061894D01*
X139600800Y-90070561D01*
X139598166Y-90079630D01*
X139594906Y-90089028D01*
X139590956Y-90098682D01*
X139586254Y-90108518D01*
X139580736Y-90118462D01*
X139574338Y-90128442D01*
X139566997Y-90138383D01*
X139558649Y-90148212D01*
X139549231Y-90157855D01*
X139538679Y-90167239D01*
X139526930Y-90176290D01*
X139513920Y-90184935D01*
X139499586Y-90193100D01*
X139483865Y-90200712D01*
X139466692Y-90207697D01*
X139448004Y-90213981D01*
X139427739Y-90219491D01*
X139405831Y-90224154D01*
X139382219Y-90227895D01*
X139356837Y-90230642D01*
X139329624Y-90232321D01*
X139302159Y-90232924D01*
X139276058Y-90232524D01*
X139251286Y-90231171D01*
X139227811Y-90228911D01*
X139205596Y-90225793D01*
X139184608Y-90221863D01*
X139164813Y-90217170D01*
X139146177Y-90211762D01*
X139128666Y-90205687D01*
X139112244Y-90198992D01*
X139096879Y-90191725D01*
X139082535Y-90183933D01*
X139069180Y-90175666D01*
X139056777Y-90166970D01*
X139045294Y-90157893D01*
X139034696Y-90148483D01*
X139024949Y-90138788D01*
X139016019Y-90128856D01*
X139000471Y-90108470D01*
X138987780Y-90087709D01*
X138977671Y-90066954D01*
X138969872Y-90046588D01*
X138964108Y-90026994D01*
X138960106Y-90008553D01*
X138957593Y-89991648D01*
X138956885Y-89981026D01*
X139190048Y-89981026D01*
X139190725Y-89987062D01*
X139192258Y-89992909D01*
X139194693Y-89998519D01*
X139198075Y-90003845D01*
X139202451Y-90008841D01*
X139207865Y-90013461D01*
X139214363Y-90017658D01*
X139221990Y-90021384D01*
X139230793Y-90024594D01*
X139240816Y-90027241D01*
X139252106Y-90029278D01*
X139264707Y-90030658D01*
X139278666Y-90031336D01*
X139292708Y-90031303D01*
X139305578Y-90030615D01*
X139317322Y-90029314D01*
X139327989Y-90027442D01*
X139337627Y-90025044D01*
X139346282Y-90022162D01*
X139354004Y-90018840D01*
X139360838Y-90015119D01*
X139366833Y-90011045D01*
X139372038Y-90006659D01*
X139376498Y-90002004D01*
X139380262Y-89997125D01*
X139383379Y-89992063D01*
X139385894Y-89986862D01*
X139387856Y-89981566D01*
X139389314Y-89976216D01*
X139390313Y-89970857D01*
X139390903Y-89965532D01*
X139391130Y-89960283D01*
X139391043Y-89955153D01*
X139390115Y-89945425D01*
X139388500Y-89936693D01*
X139386580Y-89929301D01*
X139384737Y-89923594D01*
X139382805Y-89918615D01*
X139381392Y-89917296D01*
X139379593Y-89915792D01*
X139377037Y-89913856D01*
X139373701Y-89911584D01*
X139371735Y-89910353D01*
X139369565Y-89909074D01*
X139367190Y-89907760D01*
X139364607Y-89906422D01*
X139361812Y-89905074D01*
X139358804Y-89903726D01*
X139355579Y-89902392D01*
X139352135Y-89901083D01*
X139348469Y-89899812D01*
X139344579Y-89898591D01*
X139340461Y-89897431D01*
X139336113Y-89896345D01*
X139331532Y-89895346D01*
X139326715Y-89894445D01*
X139321661Y-89893654D01*
X139316365Y-89892986D01*
X139310826Y-89892452D01*
X139305040Y-89892065D01*
X139299006Y-89891838D01*
X139292719Y-89891781D01*
X139286178Y-89891908D01*
X139279380Y-89892231D01*
X139272432Y-89893019D01*
X139265477Y-89894503D01*
X139258558Y-89896637D01*
X139251722Y-89899373D01*
X139245014Y-89902666D01*
X139238480Y-89906467D01*
X139232165Y-89910732D01*
X139226114Y-89915412D01*
X139220374Y-89920463D01*
X139214990Y-89925835D01*
X139210006Y-89931485D01*
X139205470Y-89937363D01*
X139201426Y-89943425D01*
X139197919Y-89949623D01*
X139194996Y-89955911D01*
X139192702Y-89962242D01*
X139191083Y-89968569D01*
X139190183Y-89974846D01*
X139190048Y-89981026D01*
X138956885Y-89981026D01*
X138956498Y-89975233D01*
X138956911Y-89958118D01*
X138958794Y-89940471D01*
X138962111Y-89922458D01*
X138966825Y-89904246D01*
X138972898Y-89886003D01*
X138980294Y-89867894D01*
X138988976Y-89850089D01*
X138998907Y-89832752D01*
X139010051Y-89816052D01*
X139022370Y-89800156D01*
X139035828Y-89785229D01*
X139050388Y-89771441D01*
X139058069Y-89765025D01*
X139066013Y-89758956D01*
X139074213Y-89753255D01*
X139082665Y-89747943D01*
X139091365Y-89743041D01*
X139100309Y-89738569D01*
X139119279Y-89730720D01*
X139139690Y-89724102D01*
X139161173Y-89718617D01*
X139183362Y-89714162D01*
X139205889Y-89710639D01*
X139228386Y-89707947D01*
X139250485Y-89705987D01*
X139271818Y-89704658D01*
X139310719Y-89703493D01*
X139342147Y-89703651D01*
X139370819Y-89704739D01*
X139364311Y-89471686D01*
X139297061Y-89470790D01*
X139233915Y-89469258D01*
X139201063Y-89468101D01*
X139169683Y-89466638D01*
X139050055Y-89460930D01*
X138990613Y-89458478D01*
X138990216Y-89231299D01*
X139000640Y-89234875D01*
X139012740Y-89238605D01*
X139020240Y-89240738D01*
X139028604Y-89242969D01*
X139037754Y-89245235D01*
X139047612Y-89247474D01*
X139058101Y-89249625D01*
X139069144Y-89251625D01*
X139080662Y-89253414D01*
X139092578Y-89254928D01*
X139104815Y-89256108D01*
X139117296Y-89256889D01*
X139147303Y-89257718D01*
X139184684Y-89258035D01*
X139267543Y-89257630D01*
X139367486Y-89256120D01*
X139362486Y-88987435D01*
X139601404Y-88979823D01*
X139598159Y-89034620D01*
G37*
D11*
X139914825Y-88423070D02*
X139921046Y-88423110D01*
X139927258Y-88423230D01*
X139933459Y-88423429D01*
X139939650Y-88423708D01*
X139945830Y-88424066D01*
X139951998Y-88424504D01*
X139958154Y-88425020D01*
X139964297Y-88425616D01*
X139970427Y-88426291D01*
X139976543Y-88427044D01*
X139982645Y-88427876D01*
X139988731Y-88428787D01*
X139994802Y-88429776D01*
X140000856Y-88430843D01*
X140006894Y-88431989D01*
X140012914Y-88433212D01*
X140018915Y-88434513D01*
X140024897Y-88435892D01*
X140030860Y-88437348D01*
X140036802Y-88438881D01*
X140042724Y-88440491D01*
X140048623Y-88442179D01*
X140054500Y-88443942D01*
X140060353Y-88445783D01*
X140066182Y-88447699D01*
X140071986Y-88449691D01*
X140077764Y-88451759D01*
X140083516Y-88453902D01*
X140089241Y-88456120D01*
X140094937Y-88458413D01*
X140100604Y-88460780D01*
X140106241Y-88463222D01*
X140111848Y-88465737D01*
X140117423Y-88468326D01*
X140122965Y-88470987D01*
X140128474Y-88473722D01*
X140133949Y-88476528D01*
X140139388Y-88479406D01*
X140144791Y-88482356D01*
X140150158Y-88485376D01*
X140155486Y-88488467D01*
X140160776Y-88491628D01*
X140166026Y-88494858D01*
X140171235Y-88498157D01*
X140176403Y-88501524D01*
X140181528Y-88504959D01*
X140186610Y-88508461D01*
X140191647Y-88512030D01*
X140196640Y-88515664D01*
X140201586Y-88519364D01*
X140206484Y-88523128D01*
X140211335Y-88526956D01*
X140216137Y-88530848D01*
X140220889Y-88534802D01*
X140225590Y-88538818D01*
X140230240Y-88542895D01*
X140234837Y-88547032D01*
X140239381Y-88551229D01*
X140243870Y-88555485D01*
X140248304Y-88559799D01*
X140252683Y-88564169D01*
X140254851Y-88566376D01*
X140257004Y-88568596D01*
X140259144Y-88570831D01*
X140261268Y-88573079D01*
X140263378Y-88575341D01*
X140265474Y-88577616D01*
X140267554Y-88579905D01*
X140269620Y-88582208D01*
X140271671Y-88584523D01*
X140273707Y-88586852D01*
X140275727Y-88589193D01*
X140277732Y-88591548D01*
X140279722Y-88593915D01*
X140281696Y-88596295D01*
X140283655Y-88598687D01*
X140285598Y-88601093D01*
X140287525Y-88603510D01*
X140289437Y-88605940D01*
X140291332Y-88608381D01*
X140293212Y-88610835D01*
X140295075Y-88613300D01*
X140296923Y-88615778D01*
X140298753Y-88618267D01*
X140300568Y-88620768D01*
X140302366Y-88623279D01*
X140304148Y-88625803D01*
X140305913Y-88628337D01*
X140307662Y-88630883D01*
X140309393Y-88633440D01*
X140311109Y-88636007D01*
X140312806Y-88638585D01*
X140314488Y-88641175D01*
X140316151Y-88643773D01*
X140317799Y-88646384D01*
X140319428Y-88649003D01*
X140321041Y-88651634D01*
X140322636Y-88654273D01*
X140324214Y-88656924D01*
X140325774Y-88659583D01*
X140327317Y-88662254D01*
X140328841Y-88664932D01*
X140330349Y-88667622D01*
X140331839Y-88670319D01*
X140333311Y-88673027D01*
X140334765Y-88675743D01*
X140336202Y-88678469D01*
X140337620Y-88681202D01*
X140339021Y-88683946D01*
X140340403Y-88686697D01*
X140341767Y-88689458D01*
X140343113Y-88692226D01*
X140344441Y-88695004D01*
X140345750Y-88697789D01*
X140347042Y-88700583D01*
X140348315Y-88703383D01*
X140349570Y-88706194D01*
X140350805Y-88709010D01*
X140352023Y-88711835D01*
X140353222Y-88714667D01*
X140354403Y-88717507D01*
X140355564Y-88720354D01*
X140356708Y-88723209D01*
X140357832Y-88726069D01*
X140358938Y-88728939D01*
X140360024Y-88731813D01*
X140361092Y-88734696D01*
X140362141Y-88737584D01*
X140363172Y-88740481D01*
X140364183Y-88743382D01*
X140365175Y-88746291D01*
X140366148Y-88749205D01*
X140367103Y-88752127D01*
X140368038Y-88755052D01*
X140368954Y-88757987D01*
X140369851Y-88760924D01*
X140370729Y-88763870D01*
X140371587Y-88766819D01*
X140372426Y-88769776D01*
X140373246Y-88772737D01*
X140374047Y-88775705D01*
X140374828Y-88778676D01*
X140375591Y-88781655D01*
X140376333Y-88784636D01*
X140377057Y-88787625D01*
X140377761Y-88790616D01*
X140378445Y-88793615D01*
X140379110Y-88796616D01*
X140379756Y-88799624D01*
X140380382Y-88802635D01*
X140380989Y-88805652D01*
X140381575Y-88808671D01*
X140382143Y-88811697D01*
X140382691Y-88814725D01*
X140383219Y-88817760D01*
X140383728Y-88820796D01*
X140384217Y-88823839D01*
X140384686Y-88826883D01*
X140385136Y-88829933D01*
X140385566Y-88832985D01*
X140385976Y-88836043D01*
X140386366Y-88839102D01*
X140386737Y-88842167D01*
X140387088Y-88845233D01*
X140387419Y-88848305D01*
X140387731Y-88851377D01*
X140388023Y-88854456D01*
X140388294Y-88857535D01*
X140388546Y-88860620D01*
X140388778Y-88863705D01*
X140388991Y-88866796D01*
X140389183Y-88869887D01*
X140389355Y-88872983D01*
X140389508Y-88876080D01*
X140389641Y-88879182D01*
X140389753Y-88882284D01*
X140389846Y-88885391D01*
X140389919Y-88888498D01*
X140389971Y-88891610D01*
X140390004Y-88894722D01*
X140390017Y-88897838D01*
X140390017Y-88898260D01*
X135442427Y-88423070D02*
X139914825Y-88423070D01*
X139914825Y-90572126D02*
X139921046Y-90572086D01*
X139927258Y-90571966D01*
X139933459Y-90571767D01*
X139939650Y-90571488D01*
X139945830Y-90571130D01*
X139951998Y-90570692D01*
X139958154Y-90570176D01*
X139964297Y-90569580D01*
X139970427Y-90568905D01*
X139976543Y-90568152D01*
X139982645Y-90567320D01*
X139988731Y-90566409D01*
X139994802Y-90565420D01*
X140000856Y-90564353D01*
X140006894Y-90563207D01*
X140012914Y-90561984D01*
X140018915Y-90560683D01*
X140024897Y-90559304D01*
X140030860Y-90557848D01*
X140036802Y-90556315D01*
X140042724Y-90554705D01*
X140048623Y-90553017D01*
X140054500Y-90551254D01*
X140060353Y-90549413D01*
X140066182Y-90547497D01*
X140071986Y-90545505D01*
X140077764Y-90543437D01*
X140083516Y-90541294D01*
X140089241Y-90539076D01*
X140094937Y-90536783D01*
X140100604Y-90534416D01*
X140106241Y-90531974D01*
X140111848Y-90529459D01*
X140117423Y-90526870D01*
X140122965Y-90524209D01*
X140128474Y-90521474D01*
X140133949Y-90518668D01*
X140139388Y-90515790D01*
X140144791Y-90512840D01*
X140150158Y-90509820D01*
X140155486Y-90506729D01*
X140160776Y-90503568D01*
X140166026Y-90500338D01*
X140171235Y-90497039D01*
X140176403Y-90493672D01*
X140181528Y-90490237D01*
X140186610Y-90486735D01*
X140191647Y-90483166D01*
X140196640Y-90479532D01*
X140201586Y-90475832D01*
X140206484Y-90472068D01*
X140211335Y-90468240D01*
X140216137Y-90464348D01*
X140220889Y-90460394D01*
X140225590Y-90456378D01*
X140230240Y-90452301D01*
X140234837Y-90448164D01*
X140239381Y-90443967D01*
X140243870Y-90439711D01*
X140248304Y-90435397D01*
X140252683Y-90431027D01*
X140254851Y-90428820D01*
X140257004Y-90426600D01*
X140259144Y-90424365D01*
X140261268Y-90422117D01*
X140263378Y-90419855D01*
X140265474Y-90417580D01*
X140267554Y-90415291D01*
X140269620Y-90412988D01*
X140271671Y-90410673D01*
X140273707Y-90408344D01*
X140275727Y-90406003D01*
X140277732Y-90403648D01*
X140279722Y-90401281D01*
X140281696Y-90398901D01*
X140283655Y-90396509D01*
X140285598Y-90394103D01*
X140287525Y-90391686D01*
X140289437Y-90389256D01*
X140291332Y-90386815D01*
X140293212Y-90384361D01*
X140295075Y-90381896D01*
X140296923Y-90379418D01*
X140298753Y-90376929D01*
X140300568Y-90374428D01*
X140302366Y-90371917D01*
X140304148Y-90369393D01*
X140305913Y-90366859D01*
X140307662Y-90364313D01*
X140309393Y-90361756D01*
X140311109Y-90359189D01*
X140312806Y-90356611D01*
X140314488Y-90354021D01*
X140316151Y-90351423D01*
X140317799Y-90348812D01*
X140319428Y-90346193D01*
X140321041Y-90343562D01*
X140322636Y-90340923D01*
X140324214Y-90338272D01*
X140325774Y-90335613D01*
X140327317Y-90332942D01*
X140328841Y-90330264D01*
X140330349Y-90327574D01*
X140331839Y-90324877D01*
X140333311Y-90322169D01*
X140334765Y-90319453D01*
X140336202Y-90316727D01*
X140337620Y-90313994D01*
X140339021Y-90311250D01*
X140340403Y-90308499D01*
X140341767Y-90305738D01*
X140343113Y-90302970D01*
X140344441Y-90300192D01*
X140345750Y-90297407D01*
X140347042Y-90294613D01*
X140348315Y-90291813D01*
X140349570Y-90289002D01*
X140350805Y-90286186D01*
X140352023Y-90283361D01*
X140353222Y-90280529D01*
X140354403Y-90277689D01*
X140355564Y-90274842D01*
X140356708Y-90271987D01*
X140357832Y-90269127D01*
X140358938Y-90266257D01*
X140360024Y-90263383D01*
X140361092Y-90260500D01*
X140362141Y-90257612D01*
X140363172Y-90254715D01*
X140364183Y-90251814D01*
X140365175Y-90248905D01*
X140366148Y-90245991D01*
X140367103Y-90243069D01*
X140368038Y-90240144D01*
X140368954Y-90237209D01*
X140369851Y-90234272D01*
X140370729Y-90231326D01*
X140371587Y-90228377D01*
X140372426Y-90225420D01*
X140373246Y-90222459D01*
X140374047Y-90219491D01*
X140374828Y-90216520D01*
X140375591Y-90213541D01*
X140376333Y-90210560D01*
X140377057Y-90207571D01*
X140377761Y-90204580D01*
X140378445Y-90201581D01*
X140379110Y-90198580D01*
X140379756Y-90195572D01*
X140380382Y-90192561D01*
X140380989Y-90189544D01*
X140381575Y-90186525D01*
X140382143Y-90183499D01*
X140382691Y-90180471D01*
X140383219Y-90177436D01*
X140383728Y-90174400D01*
X140384217Y-90171357D01*
X140384686Y-90168313D01*
X140385136Y-90165263D01*
X140385566Y-90162211D01*
X140385976Y-90159153D01*
X140386366Y-90156094D01*
X140386737Y-90153029D01*
X140387088Y-90149963D01*
X140387419Y-90146891D01*
X140387731Y-90143819D01*
X140388023Y-90140740D01*
X140388294Y-90137661D01*
X140388546Y-90134576D01*
X140388778Y-90131491D01*
X140388991Y-90128400D01*
X140389183Y-90125309D01*
X140389355Y-90122213D01*
X140389508Y-90119116D01*
X140389641Y-90116014D01*
X140389753Y-90112912D01*
X140389846Y-90109805D01*
X140389919Y-90106698D01*
X140389971Y-90103586D01*
X140390004Y-90100474D01*
X140390017Y-90097358D01*
X140390017Y-90096936D01*
X133803324Y-90572126D02*
X139914825Y-90572126D01*
X132852943Y-88898335D02*
X132852943Y-91522506D01*
X133328134Y-88423145D02*
X133321913Y-88423185D01*
X133315701Y-88423305D01*
X133309500Y-88423504D01*
X133303309Y-88423783D01*
X133297129Y-88424141D01*
X133290961Y-88424579D01*
X133284805Y-88425095D01*
X133278662Y-88425691D01*
X133272532Y-88426366D01*
X133266416Y-88427119D01*
X133260314Y-88427951D01*
X133254228Y-88428862D01*
X133248157Y-88429851D01*
X133242103Y-88430918D01*
X133236065Y-88432064D01*
X133230046Y-88433287D01*
X133224044Y-88434588D01*
X133218062Y-88435967D01*
X133212099Y-88437423D01*
X133206157Y-88438956D01*
X133200236Y-88440566D01*
X133194336Y-88442254D01*
X133188460Y-88444017D01*
X133182607Y-88445858D01*
X133176778Y-88447774D01*
X133170973Y-88449766D01*
X133165195Y-88451834D01*
X133159443Y-88453977D01*
X133153719Y-88456195D01*
X133148023Y-88458488D01*
X133142356Y-88460855D01*
X133136718Y-88463297D01*
X133131112Y-88465812D01*
X133125537Y-88468401D01*
X133119995Y-88471062D01*
X133114486Y-88473797D01*
X133109011Y-88476603D01*
X133103572Y-88479481D01*
X133098168Y-88482431D01*
X133092802Y-88485451D01*
X133087473Y-88488542D01*
X133082184Y-88491703D01*
X133076934Y-88494933D01*
X133071724Y-88498232D01*
X133066557Y-88501599D01*
X133061431Y-88505034D01*
X133056350Y-88508536D01*
X133051312Y-88512105D01*
X133046320Y-88515739D01*
X133041374Y-88519439D01*
X133036475Y-88523203D01*
X133031625Y-88527032D01*
X133026823Y-88530923D01*
X133022071Y-88534877D01*
X133017370Y-88538893D01*
X133012720Y-88542970D01*
X133008123Y-88547107D01*
X133003579Y-88551304D01*
X132999090Y-88555560D01*
X132994655Y-88559874D01*
X132990277Y-88564244D01*
X132988109Y-88566451D01*
X132985955Y-88568672D01*
X132983816Y-88570906D01*
X132981691Y-88573154D01*
X132979581Y-88575416D01*
X132977486Y-88577692D01*
X132975405Y-88579980D01*
X132973340Y-88582283D01*
X132971289Y-88584598D01*
X132969253Y-88586927D01*
X132967233Y-88589268D01*
X132965228Y-88591623D01*
X132963238Y-88593990D01*
X132961264Y-88596370D01*
X132959305Y-88598762D01*
X132957362Y-88601168D01*
X132955435Y-88603585D01*
X132953523Y-88606015D01*
X132951628Y-88608456D01*
X132949748Y-88610910D01*
X132947885Y-88613375D01*
X132946037Y-88615853D01*
X132944206Y-88618342D01*
X132942391Y-88620843D01*
X132940594Y-88623355D01*
X132938811Y-88625878D01*
X132937047Y-88628412D01*
X132935298Y-88630959D01*
X132933566Y-88633515D01*
X132931851Y-88636083D01*
X132930154Y-88638660D01*
X132928472Y-88641250D01*
X132926809Y-88643849D01*
X132925161Y-88646459D01*
X132923532Y-88649078D01*
X132921919Y-88651709D01*
X132920324Y-88654349D01*
X132918746Y-88656999D01*
X132917186Y-88659659D01*
X132915643Y-88662329D01*
X132914118Y-88665008D01*
X132912610Y-88667697D01*
X132911121Y-88670394D01*
X132909649Y-88673102D01*
X132908195Y-88675818D01*
X132906758Y-88678544D01*
X132905340Y-88681278D01*
X132903939Y-88684022D01*
X132902557Y-88686773D01*
X132901193Y-88689534D01*
X132899847Y-88692302D01*
X132898519Y-88695080D01*
X132897209Y-88697864D01*
X132895918Y-88700658D01*
X132894645Y-88703459D01*
X132893390Y-88706269D01*
X132892155Y-88709085D01*
X132890937Y-88711911D01*
X132889738Y-88714742D01*
X132888557Y-88717583D01*
X132887396Y-88720429D01*
X132886252Y-88723284D01*
X132885128Y-88726145D01*
X132884022Y-88729014D01*
X132882936Y-88731888D01*
X132881867Y-88734772D01*
X132880819Y-88737659D01*
X132879788Y-88740556D01*
X132878777Y-88743457D01*
X132877785Y-88746366D01*
X132876812Y-88749280D01*
X132875857Y-88752202D01*
X132874922Y-88755128D01*
X132874006Y-88758062D01*
X132873109Y-88761000D01*
X132872231Y-88763946D01*
X132871373Y-88766895D01*
X132870533Y-88769852D01*
X132869714Y-88772812D01*
X132868913Y-88775780D01*
X132868132Y-88778751D01*
X132867369Y-88781730D01*
X132866627Y-88784712D01*
X132865903Y-88787700D01*
X132865199Y-88790692D01*
X132864515Y-88793691D01*
X132863850Y-88796692D01*
X132863204Y-88799700D01*
X132862578Y-88802710D01*
X132861971Y-88805727D01*
X132861385Y-88808747D01*
X132860817Y-88811773D01*
X132860269Y-88814801D01*
X132859741Y-88817835D01*
X132859232Y-88820871D01*
X132858743Y-88823914D01*
X132858274Y-88826958D01*
X132857824Y-88830008D01*
X132857394Y-88833060D01*
X132856984Y-88836118D01*
X132856594Y-88839177D01*
X132856223Y-88842242D01*
X132855872Y-88845308D01*
X132855540Y-88848380D01*
X132855229Y-88851453D01*
X132854937Y-88854531D01*
X132854666Y-88857610D01*
X132854414Y-88860695D01*
X132854182Y-88863780D01*
X132853969Y-88866871D01*
X132853777Y-88869962D01*
X132853605Y-88873059D01*
X132853452Y-88876155D01*
X132853319Y-88879257D01*
X132853207Y-88882359D01*
X132853114Y-88885466D01*
X132853041Y-88888573D01*
X132852989Y-88891685D01*
X132852956Y-88894797D01*
X132852943Y-88897914D01*
X132852943Y-88898335D01*
X135454457Y-88423145D02*
X133328134Y-88423145D01*
D13*
X133200338Y-92269287D02*
X132996094Y-92753245D01*
X132613354Y-92753245D01*
X132443874Y-92353897D01*
X132553323Y-92150882D01*
X132842716Y-91981086D01*
X133101945Y-91981086D01*
X133200338Y-92269287D01*
D11*
X132493553Y-91050000D02*
X132563304Y-91798576D01*
X132330602Y-91337910D01*
X132324480Y-90877251D01*
X132493553Y-91050000D01*
X132668115Y-90343713D02*
X132443874Y-90877251D01*
D13*
X132497225Y-91050000D02*
X132443874Y-90877251D01*
D11*
X132563304Y-91800914D02*
X132068738Y-92030958D01*
X131998951Y-91524976D01*
X132324480Y-91337910D01*
X132563304Y-91800914D01*
X131998951Y-91524976D02*
X132068738Y-92030958D01*
X131291571Y-91999952D01*
X131535328Y-91415306D01*
X131998951Y-91524976D01*
X131206016Y-91050000D02*
X130765471Y-91415306D01*
X130089594Y-91190709D01*
X130149138Y-90611842D01*
X131206016Y-91050000D01*
X129072631Y-92349919D02*
X129153211Y-91329325D01*
D13*
X129730606Y-93100463D02*
X129072631Y-92349919D01*
D11*
X129866491Y-92096169D02*
X129730606Y-93100463D01*
D13*
X129651750Y-91684435D02*
X129866491Y-92096169D01*
D11*
X129866491Y-92075458D02*
X130575584Y-92521765D01*
X131292944Y-93277518D02*
X131486021Y-92753245D01*
D13*
X131697240Y-92868657D02*
X131486021Y-92753245D01*
D11*
X131697240Y-93100463D02*
X131697240Y-92868657D01*
X132037907Y-93383211D02*
X131697240Y-93100463D01*
D13*
X131697240Y-93639790D02*
X132037907Y-93383211D01*
D11*
X131302887Y-93277518D02*
X131697240Y-93639790D01*
X132822124Y-92753245D02*
X132613354Y-93277518D01*
D14*
X131742705Y-91268471D02*
X131685347Y-91286762D01*
X131291571Y-90850318D01*
X131450846Y-90799525D01*
X131742705Y-91268471D01*
D11*
X129588381Y-90327492D02*
X128655045Y-91339657D01*
X128338984Y-91069658D01*
X128598001Y-89289886D01*
X129588381Y-90327492D01*
X129950615Y-90170615D02*
X129588381Y-90314773D01*
X130425360Y-90399971D02*
X129950615Y-90170615D01*
X130784318Y-88960659D02*
X130424879Y-90401900D01*
X130088299Y-88709452D02*
X130784318Y-88960659D01*
X128602669Y-89289886D02*
X130088299Y-88709452D01*
D13*
X130916437Y-88925121D02*
X130784318Y-88959343D01*
D11*
X130424879Y-90401900D02*
X131622407Y-90109547D01*
X131773075Y-89032047D02*
X132037907Y-89455125D01*
X131027593Y-88828838D02*
X131236549Y-88281211D01*
X130916437Y-88925121D02*
X131027593Y-88828838D01*
X132760335Y-92525910D02*
X132678823Y-92506142D01*
X133012032Y-92410950D02*
X132760335Y-92525910D01*
X132328143Y-93033684D02*
X132391144Y-92973190D01*
X132057376Y-93065962D02*
X132328143Y-93033684D01*
X131977176Y-92981169D02*
X132057376Y-93065962D01*
X132062481Y-92872375D02*
X132333247Y-92840096D01*
X131213491Y-92609540D02*
X131295003Y-92589771D01*
X130961793Y-92494579D02*
X131213491Y-92609540D01*
X130928105Y-92377691D02*
X130961793Y-92494579D01*
X132671989Y-92358659D02*
X132613354Y-92344439D01*
X132923687Y-92243698D02*
X132671989Y-92358659D01*
X131050114Y-92327320D02*
X131301811Y-92442280D01*
X131016426Y-92210432D02*
X131050114Y-92327320D01*
D14*
X132212263Y-91089512D02*
X132154905Y-91107803D01*
X131761130Y-90671359D01*
X131920404Y-90620567D01*
X132212263Y-91089512D01*
D11*
X132491437Y-93513674D02*
X131701953Y-93639790D01*
X132037907Y-93380052D01*
X132613354Y-93277518D01*
X132491437Y-93513674D01*
X131546459Y-88402652D02*
X131773075Y-89032047D01*
X131236549Y-88281211D02*
X131546459Y-88402652D01*
X131486021Y-92200220D02*
X131670415Y-92437852D01*
X131486021Y-92753245D01*
X130968082Y-92753245D01*
X130607381Y-92608344D01*
X130607381Y-92353897D01*
X130901113Y-91981086D01*
X131119383Y-91981086D01*
X131486021Y-92200220D01*
D15*
X131622407Y-90110826D02*
X131622407Y-90109547D01*
D11*
X133045720Y-92294061D02*
X133012032Y-92410950D01*
X132068738Y-90414887D02*
X132324480Y-90877251D01*
X132957376Y-92126810D02*
X132923687Y-92243698D01*
D13*
X131302887Y-93277518D02*
X131292944Y-93277518D01*
D12*
X140390017Y-90096936D02*
X140390017Y-88897533D01*
D10*
G36*
X133583164Y-89034049D02*
G01*
X133625049Y-89040685D01*
X133679731Y-89048247D01*
X133744928Y-89055740D01*
X133780756Y-89059148D01*
X133818357Y-89062165D01*
X133857445Y-89064666D01*
X133897736Y-89066526D01*
X133938942Y-89067621D01*
X133980781Y-89067826D01*
X134064028Y-89065905D01*
X134143989Y-89061775D01*
X134218256Y-89056194D01*
X134284420Y-89049924D01*
X134382806Y-89038355D01*
X134419883Y-89033147D01*
X134419249Y-89249460D01*
X134029041Y-89515763D01*
X133844415Y-89392875D01*
X134017532Y-89294394D01*
X133921588Y-89292177D01*
X133748847Y-89287631D01*
X133710161Y-89285883D01*
X133671825Y-89283204D01*
X133635321Y-89279954D01*
X133602132Y-89276490D01*
X133551624Y-89270358D01*
X133532153Y-89267677D01*
X133546917Y-89027543D01*
X133583164Y-89034049D01*
G37*
D11*
X131535328Y-91415306D02*
X131290755Y-91999952D01*
X130767400Y-91415306D01*
X131206016Y-91050000D01*
X131535328Y-91415306D01*
X129728751Y-93100463D02*
X129808278Y-93109465D01*
X131292944Y-93277518D01*
D14*
X131980362Y-91179920D02*
X131923003Y-91198211D01*
X131529227Y-90761767D01*
X131688503Y-90710974D01*
X131980362Y-91179920D01*
D13*
X132324480Y-90877251D02*
X132497225Y-91050000D01*
D11*
X132037907Y-89455125D02*
X131622407Y-90110826D01*
X131877592Y-92589560D02*
X131701953Y-92880181D01*
X131622407Y-90109547D02*
X130916437Y-88925121D01*
D10*
G36*
X133834017Y-89680053D02*
G01*
X133827089Y-89684780D01*
X133809161Y-89698112D01*
X133797412Y-89707606D01*
X133784520Y-89718774D01*
X133771020Y-89731456D01*
X133757450Y-89745493D01*
X133744343Y-89760726D01*
X133738131Y-89768741D01*
X133732236Y-89776995D01*
X133726725Y-89785469D01*
X133721665Y-89794142D01*
X133717122Y-89802994D01*
X133713164Y-89812006D01*
X133709858Y-89821158D01*
X133707271Y-89830430D01*
X133705469Y-89839801D01*
X133704520Y-89849253D01*
X133704490Y-89858764D01*
X133705447Y-89868316D01*
X133707458Y-89877888D01*
X133710588Y-89887460D01*
X133715251Y-89896682D01*
X133721712Y-89905233D01*
X133729845Y-89913137D01*
X133739521Y-89920420D01*
X133750612Y-89927107D01*
X133762992Y-89933222D01*
X133776532Y-89938790D01*
X133791104Y-89943836D01*
X133822837Y-89952461D01*
X133857169Y-89959296D01*
X133893079Y-89964537D01*
X133929544Y-89968385D01*
X133965545Y-89971037D01*
X134000059Y-89972692D01*
X134060543Y-89973804D01*
X134118735Y-89972789D01*
X134145703Y-89969647D01*
X134210949Y-89961311D01*
X134250587Y-89955706D01*
X134290988Y-89949415D01*
X134329216Y-89942643D01*
X134346598Y-89939140D01*
X134362336Y-89935593D01*
X134390174Y-89928661D01*
X134414527Y-89922196D01*
X134435324Y-89916340D01*
X134452496Y-89911233D01*
X134475687Y-89903830D01*
X134483542Y-89901113D01*
X134500369Y-90171980D01*
X134426029Y-90180326D01*
X134344658Y-90188324D01*
X134244087Y-90196710D01*
X134132020Y-90203861D01*
X134074082Y-90206467D01*
X134016157Y-90208155D01*
X133959210Y-90208724D01*
X133904201Y-90207970D01*
X133852095Y-90205690D01*
X133803854Y-90201682D01*
X133781238Y-90198887D01*
X133759378Y-90195454D01*
X133738271Y-90191405D01*
X133717916Y-90186762D01*
X133698312Y-90181549D01*
X133679457Y-90175786D01*
X133661350Y-90169496D01*
X133643989Y-90162701D01*
X133627373Y-90155423D01*
X133611500Y-90147684D01*
X133596369Y-90139507D01*
X133581978Y-90130914D01*
X133568326Y-90121927D01*
X133555411Y-90112567D01*
X133531786Y-90092820D01*
X133511093Y-90071851D01*
X133493319Y-90049836D01*
X133478452Y-90026953D01*
X133466480Y-90003379D01*
X133457390Y-89979292D01*
X133451172Y-89954867D01*
X133447814Y-89930283D01*
X133447302Y-89905717D01*
X133448661Y-89881915D01*
X133450876Y-89859478D01*
X133453876Y-89838364D01*
X133457591Y-89818530D01*
X133461949Y-89799933D01*
X133466880Y-89782532D01*
X133472313Y-89766284D01*
X133478178Y-89751147D01*
X133484404Y-89737077D01*
X133490921Y-89724033D01*
X133497656Y-89711971D01*
X133504541Y-89700851D01*
X133511503Y-89690628D01*
X133518473Y-89681261D01*
X133532153Y-89664925D01*
X133547467Y-89648505D01*
X133565668Y-89629810D01*
X133604653Y-89591098D01*
X133650423Y-89546918D01*
X133834017Y-89680053D01*
G37*
D11*
X130150288Y-90611842D02*
X130089594Y-91207327D01*
X129638995Y-91684435D01*
X129153211Y-91337910D01*
X130015446Y-90541659D01*
X130150288Y-90611842D01*
X132852943Y-91522506D02*
X133803324Y-90572126D01*
D10*
G36*
X137148717Y-89355450D02*
G01*
X137012062Y-89364214D01*
X136891977Y-89370743D01*
X136833791Y-89373253D01*
X136782480Y-89374769D01*
X136732923Y-89374900D01*
X136679412Y-89373754D01*
X136625200Y-89371719D01*
X136573545Y-89369183D01*
X136490926Y-89364163D01*
X136457599Y-89361799D01*
X136461964Y-89127762D01*
X136588924Y-89137994D01*
X136698913Y-89145349D01*
X136751327Y-89148002D01*
X136796609Y-89149368D01*
X136818189Y-89149162D01*
X136842243Y-89148056D01*
X136868236Y-89146175D01*
X136895635Y-89143647D01*
X136952520Y-89137151D01*
X137008630Y-89129576D01*
X137059698Y-89121929D01*
X137101457Y-89115219D01*
X137139985Y-89108641D01*
X137148717Y-89355450D01*
G37*
G36*
X138929836Y-89008186D02*
G01*
X138902511Y-89110588D01*
X138879205Y-89204704D01*
X138868305Y-89252607D01*
X138859112Y-89297309D01*
X138855116Y-89320334D01*
X138851207Y-89346797D01*
X138843750Y-89407316D01*
X138836927Y-89473432D01*
X138830925Y-89539713D01*
X138822133Y-89651030D01*
X138818870Y-89697796D01*
X138930075Y-89741413D01*
X138912989Y-89813882D01*
X138898329Y-89877762D01*
X138885544Y-89936334D01*
X138883222Y-89950389D01*
X138881402Y-89967229D01*
X138880035Y-89986342D01*
X138879073Y-90007221D01*
X138878169Y-90052238D01*
X138878301Y-90098204D01*
X138879081Y-90141047D01*
X138880119Y-90176693D01*
X138881416Y-90210098D01*
X138637498Y-90218869D01*
X138618537Y-90021892D01*
X138604581Y-89838190D01*
X138599326Y-89743270D01*
X138596302Y-89653251D01*
X138596371Y-89608049D01*
X138598067Y-89558908D01*
X138601164Y-89506773D01*
X138605436Y-89452591D01*
X138616610Y-89341866D01*
X138629788Y-89234302D01*
X138643170Y-89137467D01*
X138654958Y-89058929D01*
X138666548Y-88987017D01*
X138929836Y-89008186D01*
G37*
D11*
X132668115Y-90343713D02*
X132173625Y-89837304D01*
D16*
X149706350Y-94906533D02*
X149706350Y-94206533D01*
X149706350Y-94206533D02*
X149939684Y-94706533D01*
X149939684Y-94706533D02*
X150173017Y-94206533D01*
X150173017Y-94206533D02*
X150173017Y-94906533D01*
X150506350Y-94906533D02*
X150506350Y-94206533D01*
X150806350Y-94873200D02*
X150906350Y-94906533D01*
X150906350Y-94906533D02*
X151073017Y-94906533D01*
X151073017Y-94906533D02*
X151139683Y-94873200D01*
X151139683Y-94873200D02*
X151173017Y-94839866D01*
X151173017Y-94839866D02*
X151206350Y-94773200D01*
X151206350Y-94773200D02*
X151206350Y-94706533D01*
X151206350Y-94706533D02*
X151173017Y-94639866D01*
X151173017Y-94639866D02*
X151139683Y-94606533D01*
X151139683Y-94606533D02*
X151073017Y-94573200D01*
X151073017Y-94573200D02*
X150939683Y-94539866D01*
X150939683Y-94539866D02*
X150873017Y-94506533D01*
X150873017Y-94506533D02*
X150839683Y-94473200D01*
X150839683Y-94473200D02*
X150806350Y-94406533D01*
X150806350Y-94406533D02*
X150806350Y-94339866D01*
X150806350Y-94339866D02*
X150839683Y-94273200D01*
X150839683Y-94273200D02*
X150873017Y-94239866D01*
X150873017Y-94239866D02*
X150939683Y-94206533D01*
X150939683Y-94206533D02*
X151106350Y-94206533D01*
X151106350Y-94206533D02*
X151206350Y-94239866D01*
X139379684Y-94873200D02*
X139479684Y-94906533D01*
X139479684Y-94906533D02*
X139646351Y-94906533D01*
X139646351Y-94906533D02*
X139713017Y-94873200D01*
X139713017Y-94873200D02*
X139746351Y-94839866D01*
X139746351Y-94839866D02*
X139779684Y-94773200D01*
X139779684Y-94773200D02*
X139779684Y-94706533D01*
X139779684Y-94706533D02*
X139746351Y-94639866D01*
X139746351Y-94639866D02*
X139713017Y-94606533D01*
X139713017Y-94606533D02*
X139646351Y-94573200D01*
X139646351Y-94573200D02*
X139513017Y-94539866D01*
X139513017Y-94539866D02*
X139446351Y-94506533D01*
X139446351Y-94506533D02*
X139413017Y-94473200D01*
X139413017Y-94473200D02*
X139379684Y-94406533D01*
X139379684Y-94406533D02*
X139379684Y-94339866D01*
X139379684Y-94339866D02*
X139413017Y-94273200D01*
X139413017Y-94273200D02*
X139446351Y-94239866D01*
X139446351Y-94239866D02*
X139513017Y-94206533D01*
X139513017Y-94206533D02*
X139679684Y-94206533D01*
X139679684Y-94206533D02*
X139779684Y-94239866D01*
X140479684Y-94839866D02*
X140446351Y-94873200D01*
X140446351Y-94873200D02*
X140346351Y-94906533D01*
X140346351Y-94906533D02*
X140279684Y-94906533D01*
X140279684Y-94906533D02*
X140179684Y-94873200D01*
X140179684Y-94873200D02*
X140113018Y-94806533D01*
X140113018Y-94806533D02*
X140079684Y-94739866D01*
X140079684Y-94739866D02*
X140046351Y-94606533D01*
X140046351Y-94606533D02*
X140046351Y-94506533D01*
X140046351Y-94506533D02*
X140079684Y-94373200D01*
X140079684Y-94373200D02*
X140113018Y-94306533D01*
X140113018Y-94306533D02*
X140179684Y-94239866D01*
X140179684Y-94239866D02*
X140279684Y-94206533D01*
X140279684Y-94206533D02*
X140346351Y-94206533D01*
X140346351Y-94206533D02*
X140446351Y-94239866D01*
X140446351Y-94239866D02*
X140479684Y-94273200D01*
X140779684Y-94906533D02*
X140779684Y-94206533D01*
X141179684Y-94906533D02*
X140879684Y-94506533D01*
X141179684Y-94206533D02*
X140779684Y-94606533D01*
X145243017Y-94839866D02*
X145209684Y-94873200D01*
X145209684Y-94873200D02*
X145109684Y-94906533D01*
X145109684Y-94906533D02*
X145043017Y-94906533D01*
X145043017Y-94906533D02*
X144943017Y-94873200D01*
X144943017Y-94873200D02*
X144876351Y-94806533D01*
X144876351Y-94806533D02*
X144843017Y-94739866D01*
X144843017Y-94739866D02*
X144809684Y-94606533D01*
X144809684Y-94606533D02*
X144809684Y-94506533D01*
X144809684Y-94506533D02*
X144843017Y-94373200D01*
X144843017Y-94373200D02*
X144876351Y-94306533D01*
X144876351Y-94306533D02*
X144943017Y-94239866D01*
X144943017Y-94239866D02*
X145043017Y-94206533D01*
X145043017Y-94206533D02*
X145109684Y-94206533D01*
X145109684Y-94206533D02*
X145209684Y-94239866D01*
X145209684Y-94239866D02*
X145243017Y-94273200D01*
X145509684Y-94873200D02*
X145609684Y-94906533D01*
X145609684Y-94906533D02*
X145776351Y-94906533D01*
X145776351Y-94906533D02*
X145843017Y-94873200D01*
X145843017Y-94873200D02*
X145876351Y-94839866D01*
X145876351Y-94839866D02*
X145909684Y-94773200D01*
X145909684Y-94773200D02*
X145909684Y-94706533D01*
X145909684Y-94706533D02*
X145876351Y-94639866D01*
X145876351Y-94639866D02*
X145843017Y-94606533D01*
X145843017Y-94606533D02*
X145776351Y-94573200D01*
X145776351Y-94573200D02*
X145643017Y-94539866D01*
X145643017Y-94539866D02*
X145576351Y-94506533D01*
X145576351Y-94506533D02*
X145543017Y-94473200D01*
X145543017Y-94473200D02*
X145509684Y-94406533D01*
X145509684Y-94406533D02*
X145509684Y-94339866D01*
X145509684Y-94339866D02*
X145543017Y-94273200D01*
X145543017Y-94273200D02*
X145576351Y-94239866D01*
X145576351Y-94239866D02*
X145643017Y-94206533D01*
X145643017Y-94206533D02*
X145809684Y-94206533D01*
X145809684Y-94206533D02*
X145909684Y-94239866D01*
X141886350Y-94906533D02*
X141886350Y-94206533D01*
X141886350Y-94206533D02*
X142119684Y-94706533D01*
X142119684Y-94706533D02*
X142353017Y-94206533D01*
X142353017Y-94206533D02*
X142353017Y-94906533D01*
X142819684Y-94206533D02*
X142953017Y-94206533D01*
X142953017Y-94206533D02*
X143019684Y-94239866D01*
X143019684Y-94239866D02*
X143086350Y-94306533D01*
X143086350Y-94306533D02*
X143119684Y-94439866D01*
X143119684Y-94439866D02*
X143119684Y-94673200D01*
X143119684Y-94673200D02*
X143086350Y-94806533D01*
X143086350Y-94806533D02*
X143019684Y-94873200D01*
X143019684Y-94873200D02*
X142953017Y-94906533D01*
X142953017Y-94906533D02*
X142819684Y-94906533D01*
X142819684Y-94906533D02*
X142753017Y-94873200D01*
X142753017Y-94873200D02*
X142686350Y-94806533D01*
X142686350Y-94806533D02*
X142653017Y-94673200D01*
X142653017Y-94673200D02*
X142653017Y-94439866D01*
X142653017Y-94439866D02*
X142686350Y-94306533D01*
X142686350Y-94306533D02*
X142753017Y-94239866D01*
X142753017Y-94239866D02*
X142819684Y-94206533D01*
X143386350Y-94873200D02*
X143486350Y-94906533D01*
X143486350Y-94906533D02*
X143653017Y-94906533D01*
X143653017Y-94906533D02*
X143719683Y-94873200D01*
X143719683Y-94873200D02*
X143753017Y-94839866D01*
X143753017Y-94839866D02*
X143786350Y-94773200D01*
X143786350Y-94773200D02*
X143786350Y-94706533D01*
X143786350Y-94706533D02*
X143753017Y-94639866D01*
X143753017Y-94639866D02*
X143719683Y-94606533D01*
X143719683Y-94606533D02*
X143653017Y-94573200D01*
X143653017Y-94573200D02*
X143519683Y-94539866D01*
X143519683Y-94539866D02*
X143453017Y-94506533D01*
X143453017Y-94506533D02*
X143419683Y-94473200D01*
X143419683Y-94473200D02*
X143386350Y-94406533D01*
X143386350Y-94406533D02*
X143386350Y-94339866D01*
X143386350Y-94339866D02*
X143419683Y-94273200D01*
X143419683Y-94273200D02*
X143453017Y-94239866D01*
X143453017Y-94239866D02*
X143519683Y-94206533D01*
X143519683Y-94206533D02*
X143686350Y-94206533D01*
X143686350Y-94206533D02*
X143786350Y-94239866D01*
X147516350Y-94906533D02*
X147283017Y-94573200D01*
X147116350Y-94906533D02*
X147116350Y-94206533D01*
X147116350Y-94206533D02*
X147383017Y-94206533D01*
X147383017Y-94206533D02*
X147449684Y-94239866D01*
X147449684Y-94239866D02*
X147483017Y-94273200D01*
X147483017Y-94273200D02*
X147516350Y-94339866D01*
X147516350Y-94339866D02*
X147516350Y-94439866D01*
X147516350Y-94439866D02*
X147483017Y-94506533D01*
X147483017Y-94506533D02*
X147449684Y-94539866D01*
X147449684Y-94539866D02*
X147383017Y-94573200D01*
X147383017Y-94573200D02*
X147116350Y-94573200D01*
X147783017Y-94873200D02*
X147883017Y-94906533D01*
X147883017Y-94906533D02*
X148049684Y-94906533D01*
X148049684Y-94906533D02*
X148116350Y-94873200D01*
X148116350Y-94873200D02*
X148149684Y-94839866D01*
X148149684Y-94839866D02*
X148183017Y-94773200D01*
X148183017Y-94773200D02*
X148183017Y-94706533D01*
X148183017Y-94706533D02*
X148149684Y-94639866D01*
X148149684Y-94639866D02*
X148116350Y-94606533D01*
X148116350Y-94606533D02*
X148049684Y-94573200D01*
X148049684Y-94573200D02*
X147916350Y-94539866D01*
X147916350Y-94539866D02*
X147849684Y-94506533D01*
X147849684Y-94506533D02*
X147816350Y-94473200D01*
X147816350Y-94473200D02*
X147783017Y-94406533D01*
X147783017Y-94406533D02*
X147783017Y-94339866D01*
X147783017Y-94339866D02*
X147816350Y-94273200D01*
X147816350Y-94273200D02*
X147849684Y-94239866D01*
X147849684Y-94239866D02*
X147916350Y-94206533D01*
X147916350Y-94206533D02*
X148083017Y-94206533D01*
X148083017Y-94206533D02*
X148183017Y-94239866D01*
X148383017Y-94206533D02*
X148783017Y-94206533D01*
X148583017Y-94906533D02*
X148583017Y-94206533D01*
X137206351Y-94239866D02*
X137139684Y-94206533D01*
X137139684Y-94206533D02*
X137039684Y-94206533D01*
X137039684Y-94206533D02*
X136939684Y-94239866D01*
X136939684Y-94239866D02*
X136873018Y-94306533D01*
X136873018Y-94306533D02*
X136839684Y-94373200D01*
X136839684Y-94373200D02*
X136806351Y-94506533D01*
X136806351Y-94506533D02*
X136806351Y-94606533D01*
X136806351Y-94606533D02*
X136839684Y-94739866D01*
X136839684Y-94739866D02*
X136873018Y-94806533D01*
X136873018Y-94806533D02*
X136939684Y-94873200D01*
X136939684Y-94873200D02*
X137039684Y-94906533D01*
X137039684Y-94906533D02*
X137106351Y-94906533D01*
X137106351Y-94906533D02*
X137206351Y-94873200D01*
X137206351Y-94873200D02*
X137239684Y-94839866D01*
X137239684Y-94839866D02*
X137239684Y-94606533D01*
X137239684Y-94606533D02*
X137106351Y-94606533D01*
X137539684Y-94906533D02*
X137539684Y-94206533D01*
X137539684Y-94206533D02*
X137939684Y-94906533D01*
X137939684Y-94906533D02*
X137939684Y-94206533D01*
X138273017Y-94906533D02*
X138273017Y-94206533D01*
X138273017Y-94206533D02*
X138439684Y-94206533D01*
X138439684Y-94206533D02*
X138539684Y-94239866D01*
X138539684Y-94239866D02*
X138606351Y-94306533D01*
X138606351Y-94306533D02*
X138639684Y-94373200D01*
X138639684Y-94373200D02*
X138673017Y-94506533D01*
X138673017Y-94506533D02*
X138673017Y-94606533D01*
X138673017Y-94606533D02*
X138639684Y-94739866D01*
X138639684Y-94739866D02*
X138606351Y-94806533D01*
X138606351Y-94806533D02*
X138539684Y-94873200D01*
X138539684Y-94873200D02*
X138439684Y-94906533D01*
X138439684Y-94906533D02*
X138273017Y-94906533D01*
X134333017Y-94206533D02*
X134766350Y-94206533D01*
X134766350Y-94206533D02*
X134533017Y-94473200D01*
X134533017Y-94473200D02*
X134633017Y-94473200D01*
X134633017Y-94473200D02*
X134699683Y-94506533D01*
X134699683Y-94506533D02*
X134733017Y-94539866D01*
X134733017Y-94539866D02*
X134766350Y-94606533D01*
X134766350Y-94606533D02*
X134766350Y-94773200D01*
X134766350Y-94773200D02*
X134733017Y-94839866D01*
X134733017Y-94839866D02*
X134699683Y-94873200D01*
X134699683Y-94873200D02*
X134633017Y-94906533D01*
X134633017Y-94906533D02*
X134433017Y-94906533D01*
X134433017Y-94906533D02*
X134366350Y-94873200D01*
X134366350Y-94873200D02*
X134333017Y-94839866D01*
X134966350Y-94206533D02*
X135199684Y-94906533D01*
X135199684Y-94906533D02*
X135433017Y-94206533D01*
X135599684Y-94206533D02*
X136033017Y-94206533D01*
X136033017Y-94206533D02*
X135799684Y-94473200D01*
X135799684Y-94473200D02*
X135899684Y-94473200D01*
X135899684Y-94473200D02*
X135966350Y-94506533D01*
X135966350Y-94506533D02*
X135999684Y-94539866D01*
X135999684Y-94539866D02*
X136033017Y-94606533D01*
X136033017Y-94606533D02*
X136033017Y-94773200D01*
X136033017Y-94773200D02*
X135999684Y-94839866D01*
X135999684Y-94839866D02*
X135966350Y-94873200D01*
X135966350Y-94873200D02*
X135899684Y-94906533D01*
X135899684Y-94906533D02*
X135699684Y-94906533D01*
X135699684Y-94906533D02*
X135633017Y-94873200D01*
X135633017Y-94873200D02*
X135599684Y-94839866D01*
X116498684Y-106603783D02*
X116932017Y-106603783D01*
X116932017Y-106603783D02*
X116698684Y-106870450D01*
X116698684Y-106870450D02*
X116798684Y-106870450D01*
X116798684Y-106870450D02*
X116865350Y-106903783D01*
X116865350Y-106903783D02*
X116898684Y-106937116D01*
X116898684Y-106937116D02*
X116932017Y-107003783D01*
X116932017Y-107003783D02*
X116932017Y-107170450D01*
X116932017Y-107170450D02*
X116898684Y-107237116D01*
X116898684Y-107237116D02*
X116865350Y-107270450D01*
X116865350Y-107270450D02*
X116798684Y-107303783D01*
X116798684Y-107303783D02*
X116598684Y-107303783D01*
X116598684Y-107303783D02*
X116532017Y-107270450D01*
X116532017Y-107270450D02*
X116498684Y-107237116D01*
X117232017Y-107037116D02*
X117765351Y-107037116D01*
X116565350Y-96877116D02*
X117098684Y-96877116D01*
X116832017Y-97143783D02*
X116832017Y-96610450D01*
X163115350Y-96759866D02*
X163648684Y-96759866D01*
X163382017Y-97026533D02*
X163382017Y-96493200D01*
X116565350Y-99417116D02*
X117098684Y-99417116D01*
X116832017Y-99683783D02*
X116832017Y-99150450D01*
X163482017Y-112266533D02*
X163082017Y-112266533D01*
X163282017Y-112266533D02*
X163282017Y-111566533D01*
X163282017Y-111566533D02*
X163215350Y-111666533D01*
X163215350Y-111666533D02*
X163148684Y-111733200D01*
X163148684Y-111733200D02*
X163082017Y-111766533D01*
X163782017Y-111999866D02*
X164315351Y-111999866D01*
X116565350Y-94337116D02*
X117098684Y-94337116D01*
X116832017Y-94603783D02*
X116832017Y-94070450D01*
X163415350Y-104179866D02*
X163415350Y-104646533D01*
X163248684Y-103913200D02*
X163082017Y-104413200D01*
X163082017Y-104413200D02*
X163515350Y-104413200D01*
X163782017Y-104379866D02*
X164315351Y-104379866D01*
X116865350Y-104297116D02*
X116865350Y-104763783D01*
X116698684Y-104030450D02*
X116532017Y-104530450D01*
X116532017Y-104530450D02*
X116965350Y-104530450D01*
X117232017Y-104497116D02*
X117765351Y-104497116D01*
X163115350Y-91679866D02*
X163648684Y-91679866D01*
X163382017Y-91946533D02*
X163382017Y-91413200D01*
X163115350Y-94219866D02*
X163648684Y-94219866D01*
X163382017Y-94486533D02*
X163382017Y-93953200D01*
X163115350Y-89139866D02*
X163648684Y-89139866D01*
X163382017Y-89406533D02*
X163382017Y-88873200D01*
X163048684Y-106486533D02*
X163482017Y-106486533D01*
X163482017Y-106486533D02*
X163248684Y-106753200D01*
X163248684Y-106753200D02*
X163348684Y-106753200D01*
X163348684Y-106753200D02*
X163415350Y-106786533D01*
X163415350Y-106786533D02*
X163448684Y-106819866D01*
X163448684Y-106819866D02*
X163482017Y-106886533D01*
X163482017Y-106886533D02*
X163482017Y-107053200D01*
X163482017Y-107053200D02*
X163448684Y-107119866D01*
X163448684Y-107119866D02*
X163415350Y-107153200D01*
X163415350Y-107153200D02*
X163348684Y-107186533D01*
X163348684Y-107186533D02*
X163148684Y-107186533D01*
X163148684Y-107186533D02*
X163082017Y-107153200D01*
X163082017Y-107153200D02*
X163048684Y-107119866D01*
X163782017Y-106919866D02*
X164315351Y-106919866D01*
X163115350Y-99299866D02*
X163648684Y-99299866D01*
X163382017Y-99566533D02*
X163382017Y-99033200D01*
X116565350Y-89257116D02*
X117098684Y-89257116D01*
X116832017Y-89523783D02*
X116832017Y-88990450D01*
X163082017Y-109093200D02*
X163115350Y-109059866D01*
X163115350Y-109059866D02*
X163182017Y-109026533D01*
X163182017Y-109026533D02*
X163348684Y-109026533D01*
X163348684Y-109026533D02*
X163415350Y-109059866D01*
X163415350Y-109059866D02*
X163448684Y-109093200D01*
X163448684Y-109093200D02*
X163482017Y-109159866D01*
X163482017Y-109159866D02*
X163482017Y-109226533D01*
X163482017Y-109226533D02*
X163448684Y-109326533D01*
X163448684Y-109326533D02*
X163048684Y-109726533D01*
X163048684Y-109726533D02*
X163482017Y-109726533D01*
X163782017Y-109459866D02*
X164315351Y-109459866D01*
X116532017Y-109210450D02*
X116565350Y-109177116D01*
X116565350Y-109177116D02*
X116632017Y-109143783D01*
X116632017Y-109143783D02*
X116798684Y-109143783D01*
X116798684Y-109143783D02*
X116865350Y-109177116D01*
X116865350Y-109177116D02*
X116898684Y-109210450D01*
X116898684Y-109210450D02*
X116932017Y-109277116D01*
X116932017Y-109277116D02*
X116932017Y-109343783D01*
X116932017Y-109343783D02*
X116898684Y-109443783D01*
X116898684Y-109443783D02*
X116498684Y-109843783D01*
X116498684Y-109843783D02*
X116932017Y-109843783D01*
X117232017Y-109577116D02*
X117765351Y-109577116D01*
X163448684Y-101406533D02*
X163115350Y-101406533D01*
X163115350Y-101406533D02*
X163082017Y-101739866D01*
X163082017Y-101739866D02*
X163115350Y-101706533D01*
X163115350Y-101706533D02*
X163182017Y-101673200D01*
X163182017Y-101673200D02*
X163348684Y-101673200D01*
X163348684Y-101673200D02*
X163415350Y-101706533D01*
X163415350Y-101706533D02*
X163448684Y-101739866D01*
X163448684Y-101739866D02*
X163482017Y-101806533D01*
X163482017Y-101806533D02*
X163482017Y-101973200D01*
X163482017Y-101973200D02*
X163448684Y-102039866D01*
X163448684Y-102039866D02*
X163415350Y-102073200D01*
X163415350Y-102073200D02*
X163348684Y-102106533D01*
X163348684Y-102106533D02*
X163182017Y-102106533D01*
X163182017Y-102106533D02*
X163115350Y-102073200D01*
X163115350Y-102073200D02*
X163082017Y-102039866D01*
X163782017Y-101839866D02*
X164315351Y-101839866D01*
X116932017Y-112383783D02*
X116532017Y-112383783D01*
X116732017Y-112383783D02*
X116732017Y-111683783D01*
X116732017Y-111683783D02*
X116665350Y-111783783D01*
X116665350Y-111783783D02*
X116598684Y-111850450D01*
X116598684Y-111850450D02*
X116532017Y-111883783D01*
X117232017Y-112117116D02*
X117765351Y-112117116D01*
X116565350Y-91797116D02*
X117098684Y-91797116D01*
X116832017Y-92063783D02*
X116832017Y-91530450D01*
X116898684Y-101523783D02*
X116565350Y-101523783D01*
X116565350Y-101523783D02*
X116532017Y-101857116D01*
X116532017Y-101857116D02*
X116565350Y-101823783D01*
X116565350Y-101823783D02*
X116632017Y-101790450D01*
X116632017Y-101790450D02*
X116798684Y-101790450D01*
X116798684Y-101790450D02*
X116865350Y-101823783D01*
X116865350Y-101823783D02*
X116898684Y-101857116D01*
X116898684Y-101857116D02*
X116932017Y-101923783D01*
X116932017Y-101923783D02*
X116932017Y-102090450D01*
X116932017Y-102090450D02*
X116898684Y-102157116D01*
X116898684Y-102157116D02*
X116865350Y-102190450D01*
X116865350Y-102190450D02*
X116798684Y-102223783D01*
X116798684Y-102223783D02*
X116632017Y-102223783D01*
X116632017Y-102223783D02*
X116565350Y-102190450D01*
X116565350Y-102190450D02*
X116532017Y-102157116D01*
X117232017Y-101957116D02*
X117765351Y-101957116D01*
D17*
X124799383Y-95652014D02*
X124668149Y-95464538D01*
X124574411Y-95652014D02*
X124574411Y-95258313D01*
X124574411Y-95258313D02*
X124724392Y-95258313D01*
X124724392Y-95258313D02*
X124761888Y-95277061D01*
X124761888Y-95277061D02*
X124780635Y-95295809D01*
X124780635Y-95295809D02*
X124799383Y-95333304D01*
X124799383Y-95333304D02*
X124799383Y-95389547D01*
X124799383Y-95389547D02*
X124780635Y-95427042D01*
X124780635Y-95427042D02*
X124761888Y-95445790D01*
X124761888Y-95445790D02*
X124724392Y-95464538D01*
X124724392Y-95464538D02*
X124574411Y-95464538D01*
X125136841Y-95389547D02*
X125136841Y-95652014D01*
X125043103Y-95239566D02*
X124949364Y-95520781D01*
X124949364Y-95520781D02*
X125193084Y-95520781D01*
X121474383Y-95652014D02*
X121343149Y-95464538D01*
X121249411Y-95652014D02*
X121249411Y-95258313D01*
X121249411Y-95258313D02*
X121399392Y-95258313D01*
X121399392Y-95258313D02*
X121436888Y-95277061D01*
X121436888Y-95277061D02*
X121455635Y-95295809D01*
X121455635Y-95295809D02*
X121474383Y-95333304D01*
X121474383Y-95333304D02*
X121474383Y-95389547D01*
X121474383Y-95389547D02*
X121455635Y-95427042D01*
X121455635Y-95427042D02*
X121436888Y-95445790D01*
X121436888Y-95445790D02*
X121399392Y-95464538D01*
X121399392Y-95464538D02*
X121249411Y-95464538D01*
X121624364Y-95295809D02*
X121643112Y-95277061D01*
X121643112Y-95277061D02*
X121680607Y-95258313D01*
X121680607Y-95258313D02*
X121774346Y-95258313D01*
X121774346Y-95258313D02*
X121811841Y-95277061D01*
X121811841Y-95277061D02*
X121830589Y-95295809D01*
X121830589Y-95295809D02*
X121849336Y-95333304D01*
X121849336Y-95333304D02*
X121849336Y-95370799D01*
X121849336Y-95370799D02*
X121830589Y-95427042D01*
X121830589Y-95427042D02*
X121605617Y-95652014D01*
X121605617Y-95652014D02*
X121849336Y-95652014D01*
X124784383Y-97927014D02*
X124653149Y-97739538D01*
X124559411Y-97927014D02*
X124559411Y-97533313D01*
X124559411Y-97533313D02*
X124709392Y-97533313D01*
X124709392Y-97533313D02*
X124746888Y-97552061D01*
X124746888Y-97552061D02*
X124765635Y-97570809D01*
X124765635Y-97570809D02*
X124784383Y-97608304D01*
X124784383Y-97608304D02*
X124784383Y-97664547D01*
X124784383Y-97664547D02*
X124765635Y-97702042D01*
X124765635Y-97702042D02*
X124746888Y-97720790D01*
X124746888Y-97720790D02*
X124709392Y-97739538D01*
X124709392Y-97739538D02*
X124559411Y-97739538D01*
X124915617Y-97533313D02*
X125159336Y-97533313D01*
X125159336Y-97533313D02*
X125028103Y-97683295D01*
X125028103Y-97683295D02*
X125084346Y-97683295D01*
X125084346Y-97683295D02*
X125121841Y-97702042D01*
X125121841Y-97702042D02*
X125140589Y-97720790D01*
X125140589Y-97720790D02*
X125159336Y-97758285D01*
X125159336Y-97758285D02*
X125159336Y-97852024D01*
X125159336Y-97852024D02*
X125140589Y-97889519D01*
X125140589Y-97889519D02*
X125121841Y-97908267D01*
X125121841Y-97908267D02*
X125084346Y-97927014D01*
X125084346Y-97927014D02*
X124971860Y-97927014D01*
X124971860Y-97927014D02*
X124934364Y-97908267D01*
X124934364Y-97908267D02*
X124915617Y-97889519D01*
X119099383Y-95643014D02*
X118968149Y-95455538D01*
X118874411Y-95643014D02*
X118874411Y-95249313D01*
X118874411Y-95249313D02*
X119024392Y-95249313D01*
X119024392Y-95249313D02*
X119061888Y-95268061D01*
X119061888Y-95268061D02*
X119080635Y-95286809D01*
X119080635Y-95286809D02*
X119099383Y-95324304D01*
X119099383Y-95324304D02*
X119099383Y-95380547D01*
X119099383Y-95380547D02*
X119080635Y-95418042D01*
X119080635Y-95418042D02*
X119061888Y-95436790D01*
X119061888Y-95436790D02*
X119024392Y-95455538D01*
X119024392Y-95455538D02*
X118874411Y-95455538D01*
X119474336Y-95643014D02*
X119249364Y-95643014D01*
X119361850Y-95643014D02*
X119361850Y-95249313D01*
X119361850Y-95249313D02*
X119324355Y-95305556D01*
X119324355Y-95305556D02*
X119286860Y-95343052D01*
X119286860Y-95343052D02*
X119249364Y-95361799D01*
X121484383Y-97889519D02*
X121465635Y-97908267D01*
X121465635Y-97908267D02*
X121409392Y-97927014D01*
X121409392Y-97927014D02*
X121371897Y-97927014D01*
X121371897Y-97927014D02*
X121315654Y-97908267D01*
X121315654Y-97908267D02*
X121278159Y-97870771D01*
X121278159Y-97870771D02*
X121259411Y-97833276D01*
X121259411Y-97833276D02*
X121240663Y-97758285D01*
X121240663Y-97758285D02*
X121240663Y-97702042D01*
X121240663Y-97702042D02*
X121259411Y-97627052D01*
X121259411Y-97627052D02*
X121278159Y-97589556D01*
X121278159Y-97589556D02*
X121315654Y-97552061D01*
X121315654Y-97552061D02*
X121371897Y-97533313D01*
X121371897Y-97533313D02*
X121409392Y-97533313D01*
X121409392Y-97533313D02*
X121465635Y-97552061D01*
X121465635Y-97552061D02*
X121484383Y-97570809D01*
X121859336Y-97927014D02*
X121634364Y-97927014D01*
X121746850Y-97927014D02*
X121746850Y-97533313D01*
X121746850Y-97533313D02*
X121709355Y-97589556D01*
X121709355Y-97589556D02*
X121671860Y-97627052D01*
X121671860Y-97627052D02*
X121634364Y-97645799D01*
D16*
X121666666Y-108254819D02*
X121666666Y-108969104D01*
X121666666Y-108969104D02*
X121619047Y-109111961D01*
X121619047Y-109111961D02*
X121523809Y-109207200D01*
X121523809Y-109207200D02*
X121380952Y-109254819D01*
X121380952Y-109254819D02*
X121285714Y-109254819D01*
X122666666Y-109254819D02*
X122095238Y-109254819D01*
X122380952Y-109254819D02*
X122380952Y-108254819D01*
X122380952Y-108254819D02*
X122285714Y-108397676D01*
X122285714Y-108397676D02*
X122190476Y-108492914D01*
X122190476Y-108492914D02*
X122095238Y-108540533D01*
X138429819Y-105641904D02*
X139239342Y-105641904D01*
X139239342Y-105641904D02*
X139334580Y-105594285D01*
X139334580Y-105594285D02*
X139382200Y-105546666D01*
X139382200Y-105546666D02*
X139429819Y-105451428D01*
X139429819Y-105451428D02*
X139429819Y-105260952D01*
X139429819Y-105260952D02*
X139382200Y-105165714D01*
X139382200Y-105165714D02*
X139334580Y-105118095D01*
X139334580Y-105118095D02*
X139239342Y-105070476D01*
X139239342Y-105070476D02*
X138429819Y-105070476D01*
X139429819Y-104070476D02*
X139429819Y-104641904D01*
X139429819Y-104356190D02*
X138429819Y-104356190D01*
X138429819Y-104356190D02*
X138572676Y-104451428D01*
X138572676Y-104451428D02*
X138667914Y-104546666D01*
X138667914Y-104546666D02*
X138715533Y-104641904D01*
X145177033Y-107933333D02*
X144477033Y-107933333D01*
X144477033Y-107933333D02*
X144977033Y-107700000D01*
X144977033Y-107700000D02*
X144477033Y-107466666D01*
X144477033Y-107466666D02*
X145177033Y-107466666D01*
X145177033Y-107133333D02*
X144477033Y-107133333D01*
X145177033Y-106800000D02*
X144477033Y-106800000D01*
X144477033Y-106800000D02*
X144977033Y-106566667D01*
X144977033Y-106566667D02*
X144477033Y-106333333D01*
X144477033Y-106333333D02*
X145177033Y-106333333D01*
X144477033Y-106066667D02*
X145177033Y-105600000D01*
X144477033Y-105600000D02*
X145177033Y-106066667D01*
X145177033Y-104933333D02*
X144843700Y-105166666D01*
X145177033Y-105333333D02*
X144477033Y-105333333D01*
X144477033Y-105333333D02*
X144477033Y-105066666D01*
X144477033Y-105066666D02*
X144510366Y-105000000D01*
X144510366Y-105000000D02*
X144543700Y-104966666D01*
X144543700Y-104966666D02*
X144610366Y-104933333D01*
X144610366Y-104933333D02*
X144710366Y-104933333D01*
X144710366Y-104933333D02*
X144777033Y-104966666D01*
X144777033Y-104966666D02*
X144810366Y-105000000D01*
X144810366Y-105000000D02*
X144843700Y-105066666D01*
X144843700Y-105066666D02*
X144843700Y-105333333D01*
X144477033Y-104733333D02*
X144477033Y-104333333D01*
X145177033Y-104533333D02*
X144477033Y-104533333D01*
X145177033Y-103733333D02*
X145177033Y-104133333D01*
X145177033Y-103933333D02*
X144477033Y-103933333D01*
X144477033Y-103933333D02*
X144577033Y-104000000D01*
X144577033Y-104000000D02*
X144643700Y-104066667D01*
X144643700Y-104066667D02*
X144677033Y-104133333D01*
X144477033Y-103300000D02*
X144477033Y-103233333D01*
X144477033Y-103233333D02*
X144510366Y-103166666D01*
X144510366Y-103166666D02*
X144543700Y-103133333D01*
X144543700Y-103133333D02*
X144610366Y-103100000D01*
X144610366Y-103100000D02*
X144743700Y-103066666D01*
X144743700Y-103066666D02*
X144910366Y-103066666D01*
X144910366Y-103066666D02*
X145043700Y-103100000D01*
X145043700Y-103100000D02*
X145110366Y-103133333D01*
X145110366Y-103133333D02*
X145143700Y-103166666D01*
X145143700Y-103166666D02*
X145177033Y-103233333D01*
X145177033Y-103233333D02*
X145177033Y-103300000D01*
X145177033Y-103300000D02*
X145143700Y-103366666D01*
X145143700Y-103366666D02*
X145110366Y-103400000D01*
X145110366Y-103400000D02*
X145043700Y-103433333D01*
X145043700Y-103433333D02*
X144910366Y-103466666D01*
X144910366Y-103466666D02*
X144743700Y-103466666D01*
X144743700Y-103466666D02*
X144610366Y-103433333D01*
X144610366Y-103433333D02*
X144543700Y-103400000D01*
X144543700Y-103400000D02*
X144510366Y-103366666D01*
X144510366Y-103366666D02*
X144477033Y-103300000D01*
X144477033Y-102466666D02*
X144477033Y-102599999D01*
X144477033Y-102599999D02*
X144510366Y-102666666D01*
X144510366Y-102666666D02*
X144543700Y-102699999D01*
X144543700Y-102699999D02*
X144643700Y-102766666D01*
X144643700Y-102766666D02*
X144777033Y-102799999D01*
X144777033Y-102799999D02*
X145043700Y-102799999D01*
X145043700Y-102799999D02*
X145110366Y-102766666D01*
X145110366Y-102766666D02*
X145143700Y-102733333D01*
X145143700Y-102733333D02*
X145177033Y-102666666D01*
X145177033Y-102666666D02*
X145177033Y-102533333D01*
X145177033Y-102533333D02*
X145143700Y-102466666D01*
X145143700Y-102466666D02*
X145110366Y-102433333D01*
X145110366Y-102433333D02*
X145043700Y-102399999D01*
X145043700Y-102399999D02*
X144877033Y-102399999D01*
X144877033Y-102399999D02*
X144810366Y-102433333D01*
X144810366Y-102433333D02*
X144777033Y-102466666D01*
X144777033Y-102466666D02*
X144743700Y-102533333D01*
X144743700Y-102533333D02*
X144743700Y-102666666D01*
X144743700Y-102666666D02*
X144777033Y-102733333D01*
X144777033Y-102733333D02*
X144810366Y-102766666D01*
X144810366Y-102766666D02*
X144877033Y-102799999D01*
X144543700Y-102133332D02*
X144510366Y-102099999D01*
X144510366Y-102099999D02*
X144477033Y-102033332D01*
X144477033Y-102033332D02*
X144477033Y-101866666D01*
X144477033Y-101866666D02*
X144510366Y-101799999D01*
X144510366Y-101799999D02*
X144543700Y-101766666D01*
X144543700Y-101766666D02*
X144610366Y-101733332D01*
X144610366Y-101733332D02*
X144677033Y-101733332D01*
X144677033Y-101733332D02*
X144777033Y-101766666D01*
X144777033Y-101766666D02*
X145177033Y-102166666D01*
X145177033Y-102166666D02*
X145177033Y-101733332D01*
X143653033Y-106250000D02*
X142953033Y-106250000D01*
X142953033Y-106250000D02*
X142953033Y-106083333D01*
X142953033Y-106083333D02*
X142986366Y-105983333D01*
X142986366Y-105983333D02*
X143053033Y-105916667D01*
X143053033Y-105916667D02*
X143119700Y-105883333D01*
X143119700Y-105883333D02*
X143253033Y-105850000D01*
X143253033Y-105850000D02*
X143353033Y-105850000D01*
X143353033Y-105850000D02*
X143486366Y-105883333D01*
X143486366Y-105883333D02*
X143553033Y-105916667D01*
X143553033Y-105916667D02*
X143619700Y-105983333D01*
X143619700Y-105983333D02*
X143653033Y-106083333D01*
X143653033Y-106083333D02*
X143653033Y-106250000D01*
X142953033Y-105650000D02*
X143653033Y-105416667D01*
X143653033Y-105416667D02*
X142953033Y-105183333D01*
X143653033Y-104616667D02*
X143653033Y-104950000D01*
X143653033Y-104950000D02*
X142953033Y-104950000D01*
X142953033Y-104083333D02*
X142953033Y-104216666D01*
X142953033Y-104216666D02*
X142986366Y-104283333D01*
X142986366Y-104283333D02*
X143019700Y-104316666D01*
X143019700Y-104316666D02*
X143119700Y-104383333D01*
X143119700Y-104383333D02*
X143253033Y-104416666D01*
X143253033Y-104416666D02*
X143519700Y-104416666D01*
X143519700Y-104416666D02*
X143586366Y-104383333D01*
X143586366Y-104383333D02*
X143619700Y-104350000D01*
X143619700Y-104350000D02*
X143653033Y-104283333D01*
X143653033Y-104283333D02*
X143653033Y-104150000D01*
X143653033Y-104150000D02*
X143619700Y-104083333D01*
X143619700Y-104083333D02*
X143586366Y-104050000D01*
X143586366Y-104050000D02*
X143519700Y-104016666D01*
X143519700Y-104016666D02*
X143353033Y-104016666D01*
X143353033Y-104016666D02*
X143286366Y-104050000D01*
X143286366Y-104050000D02*
X143253033Y-104083333D01*
X143253033Y-104083333D02*
X143219700Y-104150000D01*
X143219700Y-104150000D02*
X143219700Y-104283333D01*
X143219700Y-104283333D02*
X143253033Y-104350000D01*
X143253033Y-104350000D02*
X143286366Y-104383333D01*
X143286366Y-104383333D02*
X143353033Y-104416666D01*
X143453033Y-103749999D02*
X143453033Y-103416666D01*
X143653033Y-103816666D02*
X142953033Y-103583333D01*
X142953033Y-103583333D02*
X143653033Y-103349999D01*
D18*
%TO.C,J4*%
X133876000Y-90870000D02*
X133876000Y-93630000D01*
X149226000Y-90870000D02*
X133876000Y-90870000D01*
X149226000Y-90870000D02*
X149226000Y-93630000D01*
X149226000Y-93630000D02*
X133876000Y-93630000D01*
X150496000Y-90870000D02*
X151876000Y-90870000D01*
X151876000Y-90870000D02*
X151876000Y-92250000D01*
%TO.C,J2*%
X113465000Y-110730000D02*
X113465000Y-87760000D01*
X116225000Y-87760000D02*
X113465000Y-87760000D01*
X116225000Y-110730000D02*
X113465000Y-110730000D01*
X116225000Y-110730000D02*
X116225000Y-87760000D01*
X116225000Y-112000000D02*
X116225000Y-113380000D01*
X116225000Y-113380000D02*
X114845000Y-113380000D01*
%TO.C,J3*%
X164375000Y-110730000D02*
X164375000Y-87760000D01*
X167135000Y-87760000D02*
X164375000Y-87760000D01*
X167135000Y-110730000D02*
X164375000Y-110730000D01*
X167135000Y-110730000D02*
X167135000Y-87760000D01*
X167135000Y-112000000D02*
X167135000Y-113380000D01*
X167135000Y-113380000D02*
X165755000Y-113380000D01*
D19*
%TO.C,J1*%
X122100000Y-100800000D02*
G75*
G02*
X121900000Y-100800000I-100000J0D01*
G01*
X121900000Y-100800000D02*
G75*
G02*
X122100000Y-100800000I100000J0D01*
G01*
D20*
X125500000Y-114300000D02*
X125500000Y-112428000D01*
X125500000Y-104428000D02*
X125500000Y-109172000D01*
X118500000Y-114300000D02*
X118500000Y-112428000D01*
X118500000Y-104428000D02*
X118500000Y-109172000D01*
D16*
%TO.C,U1*%
X127335000Y-95960000D02*
X162895000Y-95960000D01*
X127335000Y-113740000D02*
X127335000Y-95960000D01*
X130383000Y-103580000D02*
X134955000Y-103580000D01*
X130383000Y-106120000D02*
X130383000Y-103580000D01*
X134955000Y-103580000D02*
X134955000Y-106120000D01*
X134955000Y-106120000D02*
X130383000Y-106120000D01*
X137495000Y-106755000D02*
X140035000Y-106755000D01*
X137495000Y-109930000D02*
X137495000Y-106755000D01*
X140035000Y-106755000D02*
X140035000Y-109930000D01*
X140035000Y-109930000D02*
X137495000Y-109930000D01*
X140670000Y-99770000D02*
X140670000Y-109930000D01*
X140670000Y-99770000D02*
X150830000Y-99770000D01*
X140670000Y-109930000D02*
X150830000Y-109930000D01*
X150830000Y-109930000D02*
X150830000Y-99770000D01*
X157815000Y-101040000D02*
X157815000Y-108660000D01*
X157815000Y-101040000D02*
X162895000Y-101040000D01*
X157815000Y-108660000D02*
X162895000Y-108660000D01*
X162895000Y-95960000D02*
X162895000Y-113740000D01*
X162895000Y-101040000D02*
X164165000Y-101040000D01*
X162895000Y-113740000D02*
X127335000Y-113740000D01*
X164165000Y-101040000D02*
X164165000Y-108660000D01*
X164165000Y-108660000D02*
X162895000Y-108660000D01*
D21*
X146766000Y-104342000D02*
X146512000Y-104596000D01*
X146258000Y-104215000D01*
X146512000Y-103961000D01*
X146766000Y-104342000D01*
G36*
X146766000Y-104342000D02*
G01*
X146512000Y-104596000D01*
X146258000Y-104215000D01*
X146512000Y-103961000D01*
X146766000Y-104342000D01*
G37*
X147147000Y-104850000D02*
X146893000Y-105104000D01*
X146639000Y-104723000D01*
X146893000Y-104469000D01*
X147147000Y-104850000D01*
G36*
X147147000Y-104850000D02*
G01*
X146893000Y-105104000D01*
X146639000Y-104723000D01*
X146893000Y-104469000D01*
X147147000Y-104850000D01*
G37*
X147528000Y-104469000D02*
X147274000Y-104723000D01*
X147020000Y-104342000D01*
X147274000Y-104088000D01*
X147528000Y-104469000D01*
G36*
X147528000Y-104469000D02*
G01*
X147274000Y-104723000D01*
X147020000Y-104342000D01*
X147274000Y-104088000D01*
X147528000Y-104469000D01*
G37*
X147528000Y-105358000D02*
X147274000Y-105612000D01*
X147020000Y-105231000D01*
X147274000Y-104977000D01*
X147528000Y-105358000D01*
G36*
X147528000Y-105358000D02*
G01*
X147274000Y-105612000D01*
X147020000Y-105231000D01*
X147274000Y-104977000D01*
X147528000Y-105358000D01*
G37*
X147909000Y-104977000D02*
X147655000Y-105231000D01*
X147401000Y-104850000D01*
X147655000Y-104596000D01*
X147909000Y-104977000D01*
G36*
X147909000Y-104977000D02*
G01*
X147655000Y-105231000D01*
X147401000Y-104850000D01*
X147655000Y-104596000D01*
X147909000Y-104977000D01*
G37*
X148290000Y-105485000D02*
X148036000Y-105739000D01*
X147782000Y-105358000D01*
X148036000Y-105104000D01*
X148290000Y-105485000D01*
G36*
X148290000Y-105485000D02*
G01*
X148036000Y-105739000D01*
X147782000Y-105358000D01*
X148036000Y-105104000D01*
X148290000Y-105485000D01*
G37*
X148671000Y-105104000D02*
X148417000Y-105358000D01*
X148163000Y-104977000D01*
X148417000Y-104723000D01*
X148671000Y-105104000D01*
G36*
X148671000Y-105104000D02*
G01*
X148417000Y-105358000D01*
X148163000Y-104977000D01*
X148417000Y-104723000D01*
X148671000Y-105104000D01*
G37*
X149052000Y-104723000D02*
X148798000Y-104977000D01*
X148544000Y-104596000D01*
X148798000Y-104342000D01*
X149052000Y-104723000D01*
G36*
X149052000Y-104723000D02*
G01*
X148798000Y-104977000D01*
X148544000Y-104596000D01*
X148798000Y-104342000D01*
X149052000Y-104723000D01*
G37*
%TD*%
%LPC*%
D22*
%TO.C,J4*%
X150496000Y-92250000D03*
D23*
X147956000Y-92250000D03*
X145416000Y-92250000D03*
X142876000Y-92250000D03*
X140336000Y-92250000D03*
X137796000Y-92250000D03*
X135256000Y-92250000D03*
%TD*%
D24*
%TO.C,H1*%
X124075000Y-91400000D03*
%TD*%
%TO.C,H2*%
X156525000Y-91400000D03*
%TD*%
D22*
%TO.C,J2*%
X114845000Y-112000000D03*
D23*
X114845000Y-109460000D03*
X114845000Y-106920000D03*
X114845000Y-104380000D03*
X114845000Y-101840000D03*
X114845000Y-99300000D03*
X114845000Y-96760000D03*
X114845000Y-94220000D03*
X114845000Y-91680000D03*
X114845000Y-89140000D03*
%TD*%
D25*
%TO.C,R4*%
X124085000Y-96650000D03*
X125615000Y-96650000D03*
%TD*%
D26*
%TO.C,R2*%
X120795000Y-96650000D03*
X122365000Y-96650000D03*
%TD*%
D27*
%TO.C,R3*%
X125615000Y-98800000D03*
X124085000Y-98800000D03*
%TD*%
D28*
%TO.C,R1*%
X119200000Y-96585000D03*
X119200000Y-98115000D03*
%TD*%
D29*
%TO.C,C1*%
X120780000Y-98825000D03*
X122340000Y-98825000D03*
%TD*%
D22*
%TO.C,J3*%
X165755000Y-112000000D03*
D23*
X165755000Y-109460000D03*
X165755000Y-106920000D03*
X165755000Y-104380000D03*
X165755000Y-101840000D03*
X165755000Y-99300000D03*
X165755000Y-96760000D03*
X165755000Y-94220000D03*
X165755000Y-91680000D03*
X165755000Y-89140000D03*
%TD*%
D30*
%TO.C,J1*%
X125300000Y-110800000D03*
X118700000Y-110800000D03*
X124850000Y-102800000D03*
X119150000Y-102800000D03*
D31*
X122000000Y-102000000D03*
D32*
X122000000Y-112300000D03*
X122000000Y-105300000D03*
%TD*%
D33*
%TO.C,U1*%
X161625000Y-97230000D03*
X159085000Y-97230000D03*
X156545000Y-97230000D03*
X154005000Y-97230000D03*
X151465000Y-97230000D03*
X148925000Y-97230000D03*
X146385000Y-97230000D03*
X143845000Y-97230000D03*
X141305000Y-97230000D03*
X138765000Y-97230000D03*
X136225000Y-97230000D03*
X133685000Y-97230000D03*
X131145000Y-97230000D03*
X128605000Y-97230000D03*
X128605000Y-99770000D03*
X128605000Y-102310000D03*
X128605000Y-104850000D03*
X128605000Y-107390000D03*
X128605000Y-109930000D03*
X128605000Y-112470000D03*
X131145000Y-112470000D03*
X133685000Y-112470000D03*
X136225000Y-112470000D03*
X138765000Y-112470000D03*
X141305000Y-112470000D03*
X143845000Y-112470000D03*
X146385000Y-112470000D03*
X148925000Y-112470000D03*
X151465000Y-112470000D03*
X154005000Y-112470000D03*
X156545000Y-112470000D03*
X159085000Y-112470000D03*
X161625000Y-112470000D03*
X159085000Y-109930000D03*
X133685000Y-109930000D03*
X136225000Y-109930000D03*
X133685000Y-107390000D03*
X136225000Y-107390000D03*
X133685000Y-104850000D03*
X136225000Y-104850000D03*
X133685000Y-102310000D03*
X136225000Y-102310000D03*
X133685000Y-99770000D03*
X136225000Y-99770000D03*
%TD*%
%LPD*%
M02*
