%TF.GenerationSoftware,KiCad,Pcbnew,9.0.6*%
%TF.CreationDate,2026-06-23T14:02:11-07:00*%
%TF.ProjectId,AudioBoardTeensy,41756469-6f42-46f6-9172-645465656e73,rev?*%
%TF.SameCoordinates,Original*%
%TF.FileFunction,Copper,L2,Bot*%
%TF.FilePolarity,Positive*%
%FSLAX46Y46*%
G04 Gerber Fmt 4.6, Leading zero omitted, Abs format (unit mm)*
G04 Created by KiCad (PCBNEW 9.0.6) date 2026-06-23 14:02:11*
%MOMM*%
%LPD*%
G01*
G04 APERTURE LIST*
%TA.AperFunction,ComponentPad*%
%ADD10R,1.700000X1.700000*%
%TD*%
%TA.AperFunction,ComponentPad*%
%ADD11C,1.700000*%
%TD*%
%TA.AperFunction,ComponentPad*%
%ADD12C,5.700000*%
%TD*%
%TA.AperFunction,ComponentPad*%
%ADD13O,1.308000X2.616000*%
%TD*%
%TA.AperFunction,ComponentPad*%
%ADD14O,2.616000X1.308000*%
%TD*%
%TA.AperFunction,ComponentPad*%
%ADD15C,1.600000*%
%TD*%
%TA.AperFunction,ViaPad*%
%ADD16C,0.600000*%
%TD*%
%TA.AperFunction,Conductor*%
%ADD17C,0.200000*%
%TD*%
G04 APERTURE END LIST*
D10*
%TO.P,J4,1,Pin_1*%
%TO.N,MISO*%
X150496000Y-92250000D03*
D11*
%TO.P,J4,2,Pin_2*%
%TO.N,RST*%
X147956000Y-92250000D03*
%TO.P,J4,3,Pin_3*%
%TO.N,CS*%
X145416000Y-92250000D03*
%TO.P,J4,4,Pin_4*%
%TO.N,MOSI*%
X142876000Y-92250000D03*
%TO.P,J4,5,Pin_5*%
%TO.N,SCK*%
X140336000Y-92250000D03*
%TO.P,J4,6,Pin_6*%
%TO.N,GND*%
X137796000Y-92250000D03*
%TO.P,J4,7,Pin_7*%
%TO.N,+3V3*%
X135256000Y-92250000D03*
%TD*%
D12*
%TO.P,H1,1,1*%
%TO.N,unconnected-(H1-Pad1)*%
X124075000Y-91400000D03*
%TD*%
%TO.P,H2,1,1*%
%TO.N,unconnected-(H2-Pad1)*%
X156525000Y-91400000D03*
%TD*%
D10*
%TO.P,J2,1,Pin_1*%
%TO.N,LED1*%
X114845000Y-112000000D03*
D11*
%TO.P,J2,2,Pin_2*%
%TO.N,LED2*%
X114845000Y-109460000D03*
%TO.P,J2,3,Pin_3*%
%TO.N,LED3*%
X114845000Y-106920000D03*
%TO.P,J2,4,Pin_4*%
%TO.N,LED4*%
X114845000Y-104380000D03*
%TO.P,J2,5,Pin_5*%
%TO.N,LED5*%
X114845000Y-101840000D03*
%TO.P,J2,6,Pin_6*%
%TO.N,+3V3*%
X114845000Y-99300000D03*
%TO.P,J2,7,Pin_7*%
X114845000Y-96760000D03*
%TO.P,J2,8,Pin_8*%
X114845000Y-94220000D03*
%TO.P,J2,9,Pin_9*%
X114845000Y-91680000D03*
%TO.P,J2,10,Pin_10*%
X114845000Y-89140000D03*
%TD*%
D10*
%TO.P,J3,1,Pin_1*%
%TO.N,LED1*%
X165755000Y-112000000D03*
D11*
%TO.P,J3,2,Pin_2*%
%TO.N,LED2*%
X165755000Y-109460000D03*
%TO.P,J3,3,Pin_3*%
%TO.N,LED3*%
X165755000Y-106920000D03*
%TO.P,J3,4,Pin_4*%
%TO.N,LED4*%
X165755000Y-104380000D03*
%TO.P,J3,5,Pin_5*%
%TO.N,LED5*%
X165755000Y-101840000D03*
%TO.P,J3,6,Pin_6*%
%TO.N,+3V3*%
X165755000Y-99300000D03*
%TO.P,J3,7,Pin_7*%
X165755000Y-96760000D03*
%TO.P,J3,8,Pin_8*%
X165755000Y-94220000D03*
%TO.P,J3,9,Pin_9*%
X165755000Y-91680000D03*
%TO.P,J3,10,Pin_10*%
X165755000Y-89140000D03*
%TD*%
D13*
%TO.P,J1,4_2*%
%TO.N,/TIP 2*%
X125300000Y-110800000D03*
%TO.P,J1,4_1*%
%TO.N,/TIP 1*%
X118700000Y-110800000D03*
%TO.P,J1,3*%
%TO.N,GND*%
X124850000Y-102800000D03*
%TO.P,J1,2*%
%TO.N,AUDIO*%
X119150000Y-102800000D03*
D14*
%TO.P,J1,1*%
%TO.N,GND*%
X122000000Y-102000000D03*
%TD*%
D15*
%TO.P,U1,1,GND*%
%TO.N,GND*%
X161625000Y-97230000D03*
%TO.P,U1,2,0_RX1_CRX2_CS1*%
%TO.N,CS*%
X159085000Y-97230000D03*
%TO.P,U1,3,1_TX1_CTX2_MISO1*%
%TO.N,RST*%
X156545000Y-97230000D03*
%TO.P,U1,4,2_OUT2*%
%TO.N,LED1*%
X154005000Y-97230000D03*
%TO.P,U1,5,3_LRCLK2*%
%TO.N,LED2*%
X151465000Y-97230000D03*
%TO.P,U1,6,4_BCLK2*%
%TO.N,LED3*%
X148925000Y-97230000D03*
%TO.P,U1,7,5_IN2*%
%TO.N,LED4*%
X146385000Y-97230000D03*
%TO.P,U1,8,6_OUT1D*%
%TO.N,LED5*%
X143845000Y-97230000D03*
%TO.P,U1,9,7_RX2_OUT1A*%
%TO.N,unconnected-(U1-7_RX2_OUT1A-Pad9)*%
X141305000Y-97230000D03*
%TO.P,U1,10,8_TX2_IN1*%
%TO.N,unconnected-(U1-8_TX2_IN1-Pad10)*%
X138765000Y-97230000D03*
%TO.P,U1,11,9_OUT1C*%
%TO.N,unconnected-(U1-9_OUT1C-Pad11)*%
X136225000Y-97230000D03*
%TO.P,U1,12,10_CS_MQSR*%
%TO.N,unconnected-(U1-10_CS_MQSR-Pad12)*%
X133685000Y-97230000D03*
%TO.P,U1,13,11_MOSI_CTX1*%
%TO.N,MOSI*%
X131145000Y-97230000D03*
%TO.P,U1,14,12_MISO_MQSL*%
%TO.N,MISO*%
X128605000Y-97230000D03*
%TO.P,U1,15,VBAT*%
%TO.N,unconnected-(U1-VBAT-Pad15)*%
X128605000Y-99770000D03*
%TO.P,U1,16,3V3*%
%TO.N,+3V3*%
X128605000Y-102310000D03*
%TO.P,U1,17,GND*%
%TO.N,GND*%
X128605000Y-104850000D03*
%TO.P,U1,18,PROGRAM*%
%TO.N,unconnected-(U1-PROGRAM-Pad18)*%
X128605000Y-107390000D03*
%TO.P,U1,19,ON_OFF*%
%TO.N,unconnected-(U1-ON_OFF-Pad19)*%
X128605000Y-109930000D03*
%TO.P,U1,20,13_SCK_CRX1_LED*%
%TO.N,SCK*%
X128605000Y-112470000D03*
%TO.P,U1,21,14_A0_TX3_SPDIF_OUT*%
%TO.N,A0*%
X131145000Y-112470000D03*
%TO.P,U1,22,15_A1_RX3_SPDIF_IN*%
%TO.N,unconnected-(U1-15_A1_RX3_SPDIF_IN-Pad22)*%
X133685000Y-112470000D03*
%TO.P,U1,23,16_A2_RX4_SCL1*%
%TO.N,unconnected-(U1-16_A2_RX4_SCL1-Pad23)*%
X136225000Y-112470000D03*
%TO.P,U1,24,17_A3_TX4_SDA1*%
%TO.N,unconnected-(U1-17_A3_TX4_SDA1-Pad24)*%
X138765000Y-112470000D03*
%TO.P,U1,25,18_A4_SDA0*%
%TO.N,unconnected-(U1-18_A4_SDA0-Pad25)*%
X141305000Y-112470000D03*
%TO.P,U1,26,19_A5_SCL0*%
%TO.N,unconnected-(U1-19_A5_SCL0-Pad26)*%
X143845000Y-112470000D03*
%TO.P,U1,27,20_A6_TX5_LRCLK1*%
%TO.N,unconnected-(U1-20_A6_TX5_LRCLK1-Pad27)*%
X146385000Y-112470000D03*
%TO.P,U1,28,21_A7_RX5_BCLK1*%
%TO.N,unconnected-(U1-21_A7_RX5_BCLK1-Pad28)*%
X148925000Y-112470000D03*
%TO.P,U1,29,22_A8_CTX1*%
%TO.N,unconnected-(U1-22_A8_CTX1-Pad29)*%
X151465000Y-112470000D03*
%TO.P,U1,30,23_A9_CRX1_MCLK1*%
%TO.N,unconnected-(U1-23_A9_CRX1_MCLK1-Pad30)*%
X154005000Y-112470000D03*
%TO.P,U1,31,3V3*%
%TO.N,+3V3*%
X156545000Y-112470000D03*
%TO.P,U1,32,GND*%
%TO.N,GND*%
X159085000Y-112470000D03*
%TO.P,U1,33,VIN*%
%TO.N,unconnected-(U1-VIN-Pad33)*%
X161625000Y-112470000D03*
%TO.P,U1,34,VUSB*%
%TO.N,unconnected-(U1-VUSB-Pad34)*%
X159085000Y-109930000D03*
%TO.P,U1,35,24_A10_TX6_SCL2*%
%TO.N,unconnected-(U1-24_A10_TX6_SCL2-Pad35)*%
X133685000Y-109930000D03*
%TO.P,U1,36,25_A11_RX6_SDA2*%
%TO.N,unconnected-(U1-25_A11_RX6_SDA2-Pad36)*%
X136225000Y-109930000D03*
%TO.P,U1,37,26_A12_MOSI1*%
%TO.N,unconnected-(U1-26_A12_MOSI1-Pad37)*%
X133685000Y-107390000D03*
%TO.P,U1,38,27_A13_SCK1*%
%TO.N,unconnected-(U1-27_A13_SCK1-Pad38)*%
X136225000Y-107390000D03*
%TO.P,U1,39,28_RX7*%
%TO.N,unconnected-(U1-28_RX7-Pad39)*%
X133685000Y-104850000D03*
%TO.P,U1,40,29_TX7*%
%TO.N,unconnected-(U1-29_TX7-Pad40)*%
X136225000Y-104850000D03*
%TO.P,U1,41,30_CRX3*%
%TO.N,unconnected-(U1-30_CRX3-Pad41)*%
X133685000Y-102310000D03*
%TO.P,U1,42,31_CTX3*%
%TO.N,unconnected-(U1-31_CTX3-Pad42)*%
X136225000Y-102310000D03*
%TO.P,U1,43,32_OUT1B*%
%TO.N,unconnected-(U1-32_OUT1B-Pad43)*%
X133685000Y-99770000D03*
%TO.P,U1,44,33_MCLK2*%
%TO.N,unconnected-(U1-33_MCLK2-Pad44)*%
X136225000Y-99770000D03*
%TD*%
D16*
%TO.N,GND*%
X121000000Y-103400000D03*
X126200000Y-101800000D03*
X163850000Y-112600000D03*
X124850000Y-105400000D03*
X120795000Y-96650000D03*
X124085000Y-96650000D03*
%TO.N,+3V3*%
X130350000Y-109550000D03*
X131950000Y-110400000D03*
X132500000Y-114200000D03*
%TO.N,GND*%
X159000000Y-114950000D03*
%TO.N,LED3*%
X150800000Y-106220000D03*
%TO.N,LED4*%
X146400000Y-100850000D03*
%TO.N,A0*%
X127000000Y-98500000D03*
%TO.N,LED2*%
X148937500Y-107968700D03*
%TD*%
D17*
%TO.N,+3V3*%
X130300000Y-104005000D02*
X130300000Y-109500000D01*
X130300000Y-109500000D02*
X130350000Y-109550000D01*
X130300000Y-104005000D02*
X128605000Y-102310000D01*
X132500000Y-114200000D02*
X132500000Y-110950000D01*
X132500000Y-110950000D02*
X131950000Y-110400000D01*
%TO.N,LED1*%
X154005000Y-97230000D02*
X155394000Y-98619000D01*
X155394000Y-98619000D02*
X155394000Y-112946760D01*
X156068240Y-113621000D02*
X164134000Y-113621000D01*
X155394000Y-112946760D02*
X156068240Y-113621000D01*
X164134000Y-113621000D02*
X165755000Y-112000000D01*
%TO.N,LED2*%
X148937500Y-107968700D02*
X150113375Y-107968700D01*
X152264999Y-105817076D02*
X152264999Y-98029999D01*
X150113375Y-107968700D02*
X152264999Y-105817076D01*
X152264999Y-98029999D02*
X151465000Y-97230000D01*
%TO.N,LED3*%
X148925000Y-97230000D02*
X148925000Y-104345000D01*
X148925000Y-104345000D02*
X150800000Y-106220000D01*
%TO.N,LED4*%
X146385000Y-97230000D02*
X146385000Y-100835000D01*
X146385000Y-100835000D02*
X146400000Y-100850000D01*
%TO.N,A0*%
X127000000Y-112492760D02*
X128128240Y-113621000D01*
X128128240Y-113621000D02*
X129994000Y-113621000D01*
X129994000Y-113621000D02*
X131145000Y-112470000D01*
%TO.N,SCK*%
X140336000Y-92250000D02*
X140154000Y-92432000D01*
X140154000Y-92432000D02*
X140154000Y-105088760D01*
X132296000Y-108779000D02*
X128605000Y-112470000D01*
X140154000Y-105088760D02*
X136463760Y-108779000D01*
X136463760Y-108779000D02*
X132296000Y-108779000D01*
%TO.N,+3V3*%
X156545000Y-108510000D02*
X165755000Y-99300000D01*
X156545000Y-112470000D02*
X156545000Y-108510000D01*
X132415000Y-98500000D02*
X128605000Y-102310000D01*
X132415000Y-95091000D02*
X132415000Y-98500000D01*
X135256000Y-92250000D02*
X132415000Y-95091000D01*
%TO.N,A0*%
X127000000Y-98500000D02*
X127000000Y-112492760D01*
%TD*%
%TA.AperFunction,Conductor*%
%TO.N,GND*%
G36*
X123553491Y-87870185D02*
G01*
X123599246Y-87922989D01*
X123609190Y-87992147D01*
X123580165Y-88055703D01*
X123521387Y-88093477D01*
X123510643Y-88096117D01*
X123259933Y-88145984D01*
X123259922Y-88145987D01*
X122944887Y-88241552D01*
X122640755Y-88367528D01*
X122640741Y-88367535D01*
X122350432Y-88522707D01*
X122350414Y-88522718D01*
X122076710Y-88705601D01*
X122076696Y-88705611D01*
X121822222Y-88914453D01*
X121589453Y-89147222D01*
X121380611Y-89401696D01*
X121380601Y-89401710D01*
X121197718Y-89675414D01*
X121197707Y-89675432D01*
X121042535Y-89965741D01*
X121042528Y-89965755D01*
X120916552Y-90269887D01*
X120820987Y-90584922D01*
X120820984Y-90584933D01*
X120756768Y-90907781D01*
X120756765Y-90907798D01*
X120743503Y-91042454D01*
X120724500Y-91235400D01*
X120724500Y-91564600D01*
X120734987Y-91671078D01*
X120756765Y-91892201D01*
X120756768Y-91892218D01*
X120820984Y-92215066D01*
X120820987Y-92215077D01*
X120916552Y-92530112D01*
X121042528Y-92834244D01*
X121042531Y-92834251D01*
X121067471Y-92880911D01*
X121197707Y-93124567D01*
X121197718Y-93124585D01*
X121380601Y-93398289D01*
X121380611Y-93398303D01*
X121589453Y-93652777D01*
X121822222Y-93885546D01*
X121822227Y-93885550D01*
X121822228Y-93885551D01*
X122076702Y-94094393D01*
X122350421Y-94277286D01*
X122640749Y-94432469D01*
X122944889Y-94558448D01*
X123259913Y-94654010D01*
X123259919Y-94654011D01*
X123259922Y-94654012D01*
X123259933Y-94654015D01*
X123440361Y-94689903D01*
X123582787Y-94718233D01*
X123910400Y-94750500D01*
X123910403Y-94750500D01*
X124239597Y-94750500D01*
X124239600Y-94750500D01*
X124567213Y-94718233D01*
X124744760Y-94682916D01*
X124890066Y-94654015D01*
X124890077Y-94654012D01*
X124890077Y-94654011D01*
X124890087Y-94654010D01*
X125205111Y-94558448D01*
X125509251Y-94432469D01*
X125799579Y-94277286D01*
X126073298Y-94094393D01*
X126327772Y-93885551D01*
X126560551Y-93652772D01*
X126769393Y-93398298D01*
X126952286Y-93124579D01*
X127107469Y-92834251D01*
X127233448Y-92530111D01*
X127329010Y-92215087D01*
X127329012Y-92215077D01*
X127329015Y-92215066D01*
X127383132Y-91942993D01*
X127393233Y-91892213D01*
X127425500Y-91564600D01*
X127425500Y-91235400D01*
X127393233Y-90907787D01*
X127341935Y-90649890D01*
X127329015Y-90584933D01*
X127329012Y-90584922D01*
X127329011Y-90584919D01*
X127329010Y-90584913D01*
X127233448Y-90269889D01*
X127107469Y-89965749D01*
X126952286Y-89675421D01*
X126769393Y-89401702D01*
X126560551Y-89147228D01*
X126560550Y-89147227D01*
X126560546Y-89147222D01*
X126327777Y-88914453D01*
X126073303Y-88705611D01*
X126073302Y-88705610D01*
X126073298Y-88705607D01*
X125799579Y-88522714D01*
X125799574Y-88522711D01*
X125799567Y-88522707D01*
X125509258Y-88367535D01*
X125509251Y-88367531D01*
X125479670Y-88355278D01*
X125205112Y-88241552D01*
X124890077Y-88145987D01*
X124890066Y-88145984D01*
X124639357Y-88096117D01*
X124577446Y-88063733D01*
X124542872Y-88003017D01*
X124546611Y-87933248D01*
X124587477Y-87876575D01*
X124652495Y-87850994D01*
X124663548Y-87850500D01*
X155936452Y-87850500D01*
X156003491Y-87870185D01*
X156049246Y-87922989D01*
X156059190Y-87992147D01*
X156030165Y-88055703D01*
X155971387Y-88093477D01*
X155960643Y-88096117D01*
X155709933Y-88145984D01*
X155709922Y-88145987D01*
X155394887Y-88241552D01*
X155090755Y-88367528D01*
X155090741Y-88367535D01*
X154800432Y-88522707D01*
X154800414Y-88522718D01*
X154526710Y-88705601D01*
X154526696Y-88705611D01*
X154272222Y-88914453D01*
X154039453Y-89147222D01*
X153830611Y-89401696D01*
X153830601Y-89401710D01*
X153647718Y-89675414D01*
X153647707Y-89675432D01*
X153492535Y-89965741D01*
X153492528Y-89965755D01*
X153366552Y-90269887D01*
X153270987Y-90584922D01*
X153270984Y-90584933D01*
X153206768Y-90907781D01*
X153206765Y-90907798D01*
X153193503Y-91042454D01*
X153174500Y-91235400D01*
X153174500Y-91564600D01*
X153184987Y-91671078D01*
X153206765Y-91892201D01*
X153206768Y-91892218D01*
X153270984Y-92215066D01*
X153270987Y-92215077D01*
X153366552Y-92530112D01*
X153492528Y-92834244D01*
X153492531Y-92834251D01*
X153517471Y-92880911D01*
X153647707Y-93124567D01*
X153647718Y-93124585D01*
X153830601Y-93398289D01*
X153830611Y-93398303D01*
X154039453Y-93652777D01*
X154272222Y-93885546D01*
X154272227Y-93885550D01*
X154272228Y-93885551D01*
X154526702Y-94094393D01*
X154800421Y-94277286D01*
X155090749Y-94432469D01*
X155394889Y-94558448D01*
X155709913Y-94654010D01*
X155709919Y-94654011D01*
X155709922Y-94654012D01*
X155709933Y-94654015D01*
X155890361Y-94689903D01*
X156032787Y-94718233D01*
X156360400Y-94750500D01*
X156360403Y-94750500D01*
X156689597Y-94750500D01*
X156689600Y-94750500D01*
X157017213Y-94718233D01*
X157194760Y-94682916D01*
X157340066Y-94654015D01*
X157340077Y-94654012D01*
X157340077Y-94654011D01*
X157340087Y-94654010D01*
X157655111Y-94558448D01*
X157959251Y-94432469D01*
X158249579Y-94277286D01*
X158523298Y-94094393D01*
X158777772Y-93885551D01*
X159010551Y-93652772D01*
X159219393Y-93398298D01*
X159402286Y-93124579D01*
X159557469Y-92834251D01*
X159683448Y-92530111D01*
X159779010Y-92215087D01*
X159779012Y-92215077D01*
X159779015Y-92215066D01*
X159833132Y-91942993D01*
X159843233Y-91892213D01*
X159875500Y-91564600D01*
X159875500Y-91235400D01*
X159843233Y-90907787D01*
X159791935Y-90649890D01*
X159779015Y-90584933D01*
X159779012Y-90584922D01*
X159779011Y-90584919D01*
X159779010Y-90584913D01*
X159683448Y-90269889D01*
X159557469Y-89965749D01*
X159402286Y-89675421D01*
X159219393Y-89401702D01*
X159010551Y-89147228D01*
X159010550Y-89147227D01*
X159010546Y-89147222D01*
X158777777Y-88914453D01*
X158523303Y-88705611D01*
X158523302Y-88705610D01*
X158523298Y-88705607D01*
X158249579Y-88522714D01*
X158249574Y-88522711D01*
X158249567Y-88522707D01*
X157959258Y-88367535D01*
X157959251Y-88367531D01*
X157929670Y-88355278D01*
X157655112Y-88241552D01*
X157340077Y-88145987D01*
X157340066Y-88145984D01*
X157089357Y-88096117D01*
X157027446Y-88063733D01*
X156992872Y-88003017D01*
X156996611Y-87933248D01*
X157037477Y-87876575D01*
X157102495Y-87850994D01*
X157113548Y-87850500D01*
X164850603Y-87850500D01*
X164917642Y-87870185D01*
X164963397Y-87922989D01*
X164973341Y-87992147D01*
X164944316Y-88055703D01*
X164923488Y-88074819D01*
X164875207Y-88109896D01*
X164724890Y-88260213D01*
X164599951Y-88432179D01*
X164503444Y-88621585D01*
X164437753Y-88823760D01*
X164404500Y-89033713D01*
X164404500Y-89246286D01*
X164437753Y-89456239D01*
X164503444Y-89658414D01*
X164599951Y-89847820D01*
X164724890Y-90019786D01*
X164875213Y-90170109D01*
X165047182Y-90295050D01*
X165055946Y-90299516D01*
X165106742Y-90347491D01*
X165123536Y-90415312D01*
X165100998Y-90481447D01*
X165055946Y-90520484D01*
X165047182Y-90524949D01*
X164875213Y-90649890D01*
X164724890Y-90800213D01*
X164599951Y-90972179D01*
X164503444Y-91161585D01*
X164503443Y-91161587D01*
X164503443Y-91161588D01*
X164479460Y-91235400D01*
X164437753Y-91363760D01*
X164404500Y-91573713D01*
X164404500Y-91786286D01*
X164437753Y-91996239D01*
X164503444Y-92198414D01*
X164599951Y-92387820D01*
X164724890Y-92559786D01*
X164875213Y-92710109D01*
X165047182Y-92835050D01*
X165055946Y-92839516D01*
X165106742Y-92887491D01*
X165123536Y-92955312D01*
X165100998Y-93021447D01*
X165055946Y-93060484D01*
X165047182Y-93064949D01*
X164875213Y-93189890D01*
X164724890Y-93340213D01*
X164599951Y-93512179D01*
X164503444Y-93701585D01*
X164437753Y-93903760D01*
X164407561Y-94094388D01*
X164404500Y-94113713D01*
X164404500Y-94326287D01*
X164437754Y-94536243D01*
X164503441Y-94738407D01*
X164503444Y-94738414D01*
X164599951Y-94927820D01*
X164724890Y-95099786D01*
X164875213Y-95250109D01*
X165047182Y-95375050D01*
X165055946Y-95379516D01*
X165106742Y-95427491D01*
X165123536Y-95495312D01*
X165100998Y-95561447D01*
X165055946Y-95600484D01*
X165047182Y-95604949D01*
X164875213Y-95729890D01*
X164724890Y-95880213D01*
X164599951Y-96052179D01*
X164503444Y-96241585D01*
X164437753Y-96443760D01*
X164404500Y-96653713D01*
X164404500Y-96866286D01*
X164437753Y-97076239D01*
X164503444Y-97278414D01*
X164599951Y-97467820D01*
X164724890Y-97639786D01*
X164875213Y-97790109D01*
X165047182Y-97915050D01*
X165055946Y-97919516D01*
X165106742Y-97967491D01*
X165123536Y-98035312D01*
X165100998Y-98101447D01*
X165055946Y-98140484D01*
X165047182Y-98144949D01*
X164875213Y-98269890D01*
X164724890Y-98420213D01*
X164599951Y-98592179D01*
X164503444Y-98781585D01*
X164437753Y-98983760D01*
X164404500Y-99193713D01*
X164404500Y-99406286D01*
X164437754Y-99616244D01*
X164437754Y-99616247D01*
X164451491Y-99658523D01*
X164453486Y-99728364D01*
X164421241Y-99784522D01*
X156206181Y-107999583D01*
X156144858Y-108033068D01*
X156075166Y-108028084D01*
X156019233Y-107986212D01*
X155994816Y-107920748D01*
X155994500Y-107911902D01*
X155994500Y-98708059D01*
X155994500Y-98698060D01*
X155994501Y-98698058D01*
X155994501Y-98589228D01*
X156014186Y-98522189D01*
X156066990Y-98476434D01*
X156127454Y-98467740D01*
X156136148Y-98466491D01*
X156136150Y-98466491D01*
X156156811Y-98471296D01*
X156214909Y-98490173D01*
X156240465Y-98498477D01*
X156259697Y-98501523D01*
X156442648Y-98530500D01*
X156442649Y-98530500D01*
X156647351Y-98530500D01*
X156647352Y-98530500D01*
X156849534Y-98498477D01*
X157044219Y-98435220D01*
X157226610Y-98342287D01*
X157319590Y-98274732D01*
X157392213Y-98221971D01*
X157392215Y-98221968D01*
X157392219Y-98221966D01*
X157536966Y-98077219D01*
X157536968Y-98077215D01*
X157536971Y-98077213D01*
X157657284Y-97911614D01*
X157657286Y-97911611D01*
X157657287Y-97911610D01*
X157704516Y-97818917D01*
X157752489Y-97768123D01*
X157820310Y-97751328D01*
X157886445Y-97773865D01*
X157925483Y-97818917D01*
X157969348Y-97905006D01*
X157972715Y-97911614D01*
X158093028Y-98077213D01*
X158237786Y-98221971D01*
X158358226Y-98309474D01*
X158403390Y-98342287D01*
X158484499Y-98383614D01*
X158585776Y-98435218D01*
X158585778Y-98435218D01*
X158585781Y-98435220D01*
X158631805Y-98450174D01*
X158780465Y-98498477D01*
X158799697Y-98501523D01*
X158982648Y-98530500D01*
X158982649Y-98530500D01*
X159187351Y-98530500D01*
X159187352Y-98530500D01*
X159389534Y-98498477D01*
X159584219Y-98435220D01*
X159766610Y-98342287D01*
X159859590Y-98274732D01*
X159932213Y-98221971D01*
X159932215Y-98221968D01*
X159932219Y-98221966D01*
X160076966Y-98077219D01*
X160076968Y-98077215D01*
X160076971Y-98077213D01*
X160194787Y-97915051D01*
X160197287Y-97911610D01*
X160244795Y-97818369D01*
X160292769Y-97767573D01*
X160360590Y-97750778D01*
X160426725Y-97773315D01*
X160465765Y-97818369D01*
X160513141Y-97911350D01*
X160513147Y-97911359D01*
X160545523Y-97955921D01*
X160545524Y-97955922D01*
X161101212Y-97400233D01*
X161112482Y-97442292D01*
X161184890Y-97567708D01*
X161287292Y-97670110D01*
X161412708Y-97742518D01*
X161454765Y-97753787D01*
X160899076Y-98309474D01*
X160943650Y-98341859D01*
X161125968Y-98434755D01*
X161320582Y-98497990D01*
X161522683Y-98530000D01*
X161727317Y-98530000D01*
X161929417Y-98497990D01*
X162124031Y-98434755D01*
X162306349Y-98341859D01*
X162350921Y-98309474D01*
X161795234Y-97753787D01*
X161837292Y-97742518D01*
X161962708Y-97670110D01*
X162065110Y-97567708D01*
X162137518Y-97442292D01*
X162148787Y-97400234D01*
X162704474Y-97955921D01*
X162736859Y-97911349D01*
X162829755Y-97729031D01*
X162892990Y-97534417D01*
X162925000Y-97332317D01*
X162925000Y-97127682D01*
X162892990Y-96925582D01*
X162829755Y-96730968D01*
X162736859Y-96548650D01*
X162704474Y-96504077D01*
X162704474Y-96504076D01*
X162148787Y-97059764D01*
X162137518Y-97017708D01*
X162065110Y-96892292D01*
X161962708Y-96789890D01*
X161837292Y-96717482D01*
X161795233Y-96706212D01*
X162350922Y-96150524D01*
X162350921Y-96150523D01*
X162306359Y-96118147D01*
X162306350Y-96118141D01*
X162124031Y-96025244D01*
X161929417Y-95962009D01*
X161727317Y-95930000D01*
X161522683Y-95930000D01*
X161320582Y-95962009D01*
X161125968Y-96025244D01*
X160943644Y-96118143D01*
X160899077Y-96150523D01*
X160899077Y-96150524D01*
X161454766Y-96706212D01*
X161412708Y-96717482D01*
X161287292Y-96789890D01*
X161184890Y-96892292D01*
X161112482Y-97017708D01*
X161101212Y-97059765D01*
X160545524Y-96504077D01*
X160545523Y-96504077D01*
X160513143Y-96548644D01*
X160465765Y-96641630D01*
X160417790Y-96692426D01*
X160349969Y-96709221D01*
X160283834Y-96686683D01*
X160244795Y-96641630D01*
X160197284Y-96548385D01*
X160076971Y-96382786D01*
X159932213Y-96238028D01*
X159766613Y-96117715D01*
X159766612Y-96117714D01*
X159766610Y-96117713D01*
X159693205Y-96080311D01*
X159584223Y-96024781D01*
X159389534Y-95961522D01*
X159214995Y-95933878D01*
X159187352Y-95929500D01*
X158982648Y-95929500D01*
X158958329Y-95933351D01*
X158780465Y-95961522D01*
X158585776Y-96024781D01*
X158403386Y-96117715D01*
X158237786Y-96238028D01*
X158093028Y-96382786D01*
X157972715Y-96548386D01*
X157925485Y-96641080D01*
X157877510Y-96691876D01*
X157809689Y-96708671D01*
X157743554Y-96686134D01*
X157704515Y-96641080D01*
X157657419Y-96548650D01*
X157657287Y-96548390D01*
X157625092Y-96504077D01*
X157536971Y-96382786D01*
X157392213Y-96238028D01*
X157226613Y-96117715D01*
X157226612Y-96117714D01*
X157226610Y-96117713D01*
X157153205Y-96080311D01*
X157044223Y-96024781D01*
X156849534Y-95961522D01*
X156674995Y-95933878D01*
X156647352Y-95929500D01*
X156442648Y-95929500D01*
X156418329Y-95933351D01*
X156240465Y-95961522D01*
X156045776Y-96024781D01*
X155863386Y-96117715D01*
X155697786Y-96238028D01*
X155553028Y-96382786D01*
X155432715Y-96548386D01*
X155385485Y-96641080D01*
X155337510Y-96691876D01*
X155269689Y-96708671D01*
X155203554Y-96686134D01*
X155164515Y-96641080D01*
X155117419Y-96548650D01*
X155117287Y-96548390D01*
X155085092Y-96504077D01*
X154996971Y-96382786D01*
X154852213Y-96238028D01*
X154686613Y-96117715D01*
X154686612Y-96117714D01*
X154686610Y-96117713D01*
X154613205Y-96080311D01*
X154504223Y-96024781D01*
X154309534Y-95961522D01*
X154134995Y-95933878D01*
X154107352Y-95929500D01*
X153902648Y-95929500D01*
X153878329Y-95933351D01*
X153700465Y-95961522D01*
X153505776Y-96024781D01*
X153323386Y-96117715D01*
X153157786Y-96238028D01*
X153013028Y-96382786D01*
X152892715Y-96548386D01*
X152845485Y-96641080D01*
X152797510Y-96691876D01*
X152729689Y-96708671D01*
X152663554Y-96686134D01*
X152624515Y-96641080D01*
X152577419Y-96548650D01*
X152577287Y-96548390D01*
X152545092Y-96504077D01*
X152456971Y-96382786D01*
X152312213Y-96238028D01*
X152146613Y-96117715D01*
X152146612Y-96117714D01*
X152146610Y-96117713D01*
X152073205Y-96080311D01*
X151964223Y-96024781D01*
X151769534Y-95961522D01*
X151594995Y-95933878D01*
X151567352Y-95929500D01*
X151362648Y-95929500D01*
X151338329Y-95933351D01*
X151160465Y-95961522D01*
X150965776Y-96024781D01*
X150783386Y-96117715D01*
X150617786Y-96238028D01*
X150473028Y-96382786D01*
X150352715Y-96548386D01*
X150305485Y-96641080D01*
X150257510Y-96691876D01*
X150189689Y-96708671D01*
X150123554Y-96686134D01*
X150084515Y-96641080D01*
X150037419Y-96548650D01*
X150037287Y-96548390D01*
X150005092Y-96504077D01*
X149916971Y-96382786D01*
X149772213Y-96238028D01*
X149606613Y-96117715D01*
X149606612Y-96117714D01*
X149606610Y-96117713D01*
X149533205Y-96080311D01*
X149424223Y-96024781D01*
X149229534Y-95961522D01*
X149054995Y-95933878D01*
X149027352Y-95929500D01*
X148822648Y-95929500D01*
X148798329Y-95933351D01*
X148620465Y-95961522D01*
X148425776Y-96024781D01*
X148243386Y-96117715D01*
X148077786Y-96238028D01*
X147933028Y-96382786D01*
X147812715Y-96548386D01*
X147765485Y-96641080D01*
X147717510Y-96691876D01*
X147649689Y-96708671D01*
X147583554Y-96686134D01*
X147544515Y-96641080D01*
X147497419Y-96548650D01*
X147497287Y-96548390D01*
X147465092Y-96504077D01*
X147376971Y-96382786D01*
X147232213Y-96238028D01*
X147066613Y-96117715D01*
X147066612Y-96117714D01*
X147066610Y-96117713D01*
X146993205Y-96080311D01*
X146884223Y-96024781D01*
X146689534Y-95961522D01*
X146514995Y-95933878D01*
X146487352Y-95929500D01*
X146282648Y-95929500D01*
X146258329Y-95933351D01*
X146080465Y-95961522D01*
X145885776Y-96024781D01*
X145703386Y-96117715D01*
X145537786Y-96238028D01*
X145393028Y-96382786D01*
X145272715Y-96548386D01*
X145225485Y-96641080D01*
X145177510Y-96691876D01*
X145109689Y-96708671D01*
X145043554Y-96686134D01*
X145004515Y-96641080D01*
X144957419Y-96548650D01*
X144957287Y-96548390D01*
X144925092Y-96504077D01*
X144836971Y-96382786D01*
X144692213Y-96238028D01*
X144526613Y-96117715D01*
X144526612Y-96117714D01*
X144526610Y-96117713D01*
X144453205Y-96080311D01*
X144344223Y-96024781D01*
X144149534Y-95961522D01*
X143974995Y-95933878D01*
X143947352Y-95929500D01*
X143742648Y-95929500D01*
X143718329Y-95933351D01*
X143540465Y-95961522D01*
X143345776Y-96024781D01*
X143163386Y-96117715D01*
X142997786Y-96238028D01*
X142853028Y-96382786D01*
X142732715Y-96548386D01*
X142685485Y-96641080D01*
X142637510Y-96691876D01*
X142569689Y-96708671D01*
X142503554Y-96686134D01*
X142464515Y-96641080D01*
X142417419Y-96548650D01*
X142417287Y-96548390D01*
X142385092Y-96504077D01*
X142296971Y-96382786D01*
X142152213Y-96238028D01*
X141986613Y-96117715D01*
X141986612Y-96117714D01*
X141986610Y-96117713D01*
X141913205Y-96080311D01*
X141804223Y-96024781D01*
X141609534Y-95961522D01*
X141434995Y-95933878D01*
X141407352Y-95929500D01*
X141202648Y-95929500D01*
X141165587Y-95935370D01*
X141000464Y-95961523D01*
X141000461Y-95961523D01*
X140916818Y-95988701D01*
X140846977Y-95990696D01*
X140787144Y-95954615D01*
X140756316Y-95891914D01*
X140754500Y-95870770D01*
X140754500Y-93624111D01*
X140774185Y-93557072D01*
X140826989Y-93511317D01*
X140840172Y-93506183D01*
X140854412Y-93501557D01*
X141043816Y-93405051D01*
X141098572Y-93365269D01*
X141215786Y-93280109D01*
X141215788Y-93280106D01*
X141215792Y-93280104D01*
X141366104Y-93129792D01*
X141366106Y-93129788D01*
X141366109Y-93129786D01*
X141491048Y-92957820D01*
X141491047Y-92957820D01*
X141491051Y-92957816D01*
X141495514Y-92949054D01*
X141543488Y-92898259D01*
X141611308Y-92881463D01*
X141677444Y-92903999D01*
X141716486Y-92949056D01*
X141720951Y-92957820D01*
X141845890Y-93129786D01*
X141996213Y-93280109D01*
X142168179Y-93405048D01*
X142168181Y-93405049D01*
X142168184Y-93405051D01*
X142357588Y-93501557D01*
X142559757Y-93567246D01*
X142769713Y-93600500D01*
X142769714Y-93600500D01*
X142982286Y-93600500D01*
X142982287Y-93600500D01*
X143192243Y-93567246D01*
X143394412Y-93501557D01*
X143583816Y-93405051D01*
X143638572Y-93365269D01*
X143755786Y-93280109D01*
X143755788Y-93280106D01*
X143755792Y-93280104D01*
X143906104Y-93129792D01*
X143906106Y-93129788D01*
X143906109Y-93129786D01*
X144031048Y-92957820D01*
X144031047Y-92957820D01*
X144031051Y-92957816D01*
X144035514Y-92949054D01*
X144083488Y-92898259D01*
X144151308Y-92881463D01*
X144217444Y-92903999D01*
X144256486Y-92949056D01*
X144260951Y-92957820D01*
X144385890Y-93129786D01*
X144536213Y-93280109D01*
X144708179Y-93405048D01*
X144708181Y-93405049D01*
X144708184Y-93405051D01*
X144897588Y-93501557D01*
X145099757Y-93567246D01*
X145309713Y-93600500D01*
X145309714Y-93600500D01*
X145522286Y-93600500D01*
X145522287Y-93600500D01*
X145732243Y-93567246D01*
X145934412Y-93501557D01*
X146123816Y-93405051D01*
X146178572Y-93365269D01*
X146295786Y-93280109D01*
X146295788Y-93280106D01*
X146295792Y-93280104D01*
X146446104Y-93129792D01*
X146446106Y-93129788D01*
X146446109Y-93129786D01*
X146571048Y-92957820D01*
X146571047Y-92957820D01*
X146571051Y-92957816D01*
X146575514Y-92949054D01*
X146623488Y-92898259D01*
X146691308Y-92881463D01*
X146757444Y-92903999D01*
X146796486Y-92949056D01*
X146800951Y-92957820D01*
X146925890Y-93129786D01*
X147076213Y-93280109D01*
X147248179Y-93405048D01*
X147248181Y-93405049D01*
X147248184Y-93405051D01*
X147437588Y-93501557D01*
X147639757Y-93567246D01*
X147849713Y-93600500D01*
X147849714Y-93600500D01*
X148062286Y-93600500D01*
X148062287Y-93600500D01*
X148272243Y-93567246D01*
X148474412Y-93501557D01*
X148663816Y-93405051D01*
X148750147Y-93342328D01*
X148835784Y-93280110D01*
X148835784Y-93280109D01*
X148835792Y-93280104D01*
X148949329Y-93166566D01*
X149010648Y-93133084D01*
X149080340Y-93138068D01*
X149136274Y-93179939D01*
X149153189Y-93210917D01*
X149202202Y-93342328D01*
X149202206Y-93342335D01*
X149288452Y-93457544D01*
X149288455Y-93457547D01*
X149403664Y-93543793D01*
X149403671Y-93543797D01*
X149538517Y-93594091D01*
X149538516Y-93594091D01*
X149545444Y-93594835D01*
X149598127Y-93600500D01*
X151393872Y-93600499D01*
X151453483Y-93594091D01*
X151588331Y-93543796D01*
X151703546Y-93457546D01*
X151789796Y-93342331D01*
X151840091Y-93207483D01*
X151846500Y-93147873D01*
X151846499Y-91352128D01*
X151840091Y-91292517D01*
X151838810Y-91289083D01*
X151789797Y-91157671D01*
X151789793Y-91157664D01*
X151703547Y-91042455D01*
X151703544Y-91042452D01*
X151588335Y-90956206D01*
X151588328Y-90956202D01*
X151453482Y-90905908D01*
X151453483Y-90905908D01*
X151393883Y-90899501D01*
X151393881Y-90899500D01*
X151393873Y-90899500D01*
X151393864Y-90899500D01*
X149598129Y-90899500D01*
X149598123Y-90899501D01*
X149538516Y-90905908D01*
X149403671Y-90956202D01*
X149403664Y-90956206D01*
X149288455Y-91042452D01*
X149288452Y-91042455D01*
X149202206Y-91157664D01*
X149202203Y-91157669D01*
X149153189Y-91289083D01*
X149111317Y-91345016D01*
X149045853Y-91369433D01*
X148977580Y-91354581D01*
X148949326Y-91333430D01*
X148835786Y-91219890D01*
X148663820Y-91094951D01*
X148474414Y-90998444D01*
X148474413Y-90998443D01*
X148474412Y-90998443D01*
X148272243Y-90932754D01*
X148272241Y-90932753D01*
X148272240Y-90932753D01*
X148110957Y-90907208D01*
X148062287Y-90899500D01*
X147849713Y-90899500D01*
X147801042Y-90907208D01*
X147639760Y-90932753D01*
X147437585Y-90998444D01*
X147248179Y-91094951D01*
X147076213Y-91219890D01*
X146925890Y-91370213D01*
X146800949Y-91542182D01*
X146796484Y-91550946D01*
X146748509Y-91601742D01*
X146680688Y-91618536D01*
X146614553Y-91595998D01*
X146575516Y-91550946D01*
X146571050Y-91542182D01*
X146446109Y-91370213D01*
X146295786Y-91219890D01*
X146123820Y-91094951D01*
X145934414Y-90998444D01*
X145934413Y-90998443D01*
X145934412Y-90998443D01*
X145732243Y-90932754D01*
X145732241Y-90932753D01*
X145732240Y-90932753D01*
X145570957Y-90907208D01*
X145522287Y-90899500D01*
X145309713Y-90899500D01*
X145261042Y-90907208D01*
X145099760Y-90932753D01*
X144897585Y-90998444D01*
X144708179Y-91094951D01*
X144536213Y-91219890D01*
X144385890Y-91370213D01*
X144260949Y-91542182D01*
X144256484Y-91550946D01*
X144208509Y-91601742D01*
X144140688Y-91618536D01*
X144074553Y-91595998D01*
X144035516Y-91550946D01*
X144031050Y-91542182D01*
X143906109Y-91370213D01*
X143755786Y-91219890D01*
X143583820Y-91094951D01*
X143394414Y-90998444D01*
X143394413Y-90998443D01*
X143394412Y-90998443D01*
X143192243Y-90932754D01*
X143192241Y-90932753D01*
X143192240Y-90932753D01*
X143030957Y-90907208D01*
X142982287Y-90899500D01*
X142769713Y-90899500D01*
X142721042Y-90907208D01*
X142559760Y-90932753D01*
X142357585Y-90998444D01*
X142168179Y-91094951D01*
X141996213Y-91219890D01*
X141845890Y-91370213D01*
X141720949Y-91542182D01*
X141716484Y-91550946D01*
X141668509Y-91601742D01*
X141600688Y-91618536D01*
X141534553Y-91595998D01*
X141495516Y-91550946D01*
X141491050Y-91542182D01*
X141366109Y-91370213D01*
X141215786Y-91219890D01*
X141043820Y-91094951D01*
X140854414Y-90998444D01*
X140854413Y-90998443D01*
X140854412Y-90998443D01*
X140652243Y-90932754D01*
X140652241Y-90932753D01*
X140652240Y-90932753D01*
X140490957Y-90907208D01*
X140442287Y-90899500D01*
X140229713Y-90899500D01*
X140181042Y-90907208D01*
X140019760Y-90932753D01*
X139817585Y-90998444D01*
X139628179Y-91094951D01*
X139456213Y-91219890D01*
X139305890Y-91370213D01*
X139180949Y-91542182D01*
X139176202Y-91551499D01*
X139128227Y-91602293D01*
X139060405Y-91619087D01*
X138994271Y-91596548D01*
X138955234Y-91551495D01*
X138950626Y-91542452D01*
X138911270Y-91488282D01*
X138911269Y-91488282D01*
X138278962Y-92120590D01*
X138261925Y-92057007D01*
X138196099Y-91942993D01*
X138103007Y-91849901D01*
X137988993Y-91784075D01*
X137925409Y-91767037D01*
X138557716Y-91134728D01*
X138503550Y-91095375D01*
X138314217Y-90998904D01*
X138112129Y-90933242D01*
X137902246Y-90900000D01*
X137689754Y-90900000D01*
X137479872Y-90933242D01*
X137479869Y-90933242D01*
X137277782Y-90998904D01*
X137088439Y-91095380D01*
X137034282Y-91134727D01*
X137034282Y-91134728D01*
X137666591Y-91767037D01*
X137603007Y-91784075D01*
X137488993Y-91849901D01*
X137395901Y-91942993D01*
X137330075Y-92057007D01*
X137313037Y-92120591D01*
X136680728Y-91488282D01*
X136680727Y-91488282D01*
X136641380Y-91542440D01*
X136641376Y-91542446D01*
X136636760Y-91551505D01*
X136588781Y-91602297D01*
X136520959Y-91619087D01*
X136454826Y-91596543D01*
X136415794Y-91551493D01*
X136411051Y-91542184D01*
X136411049Y-91542181D01*
X136411048Y-91542179D01*
X136286109Y-91370213D01*
X136135786Y-91219890D01*
X135963820Y-91094951D01*
X135774414Y-90998444D01*
X135774413Y-90998443D01*
X135774412Y-90998443D01*
X135572243Y-90932754D01*
X135572241Y-90932753D01*
X135572240Y-90932753D01*
X135410957Y-90907208D01*
X135362287Y-90899500D01*
X135149713Y-90899500D01*
X135101042Y-90907208D01*
X134939760Y-90932753D01*
X134737585Y-90998444D01*
X134548179Y-91094951D01*
X134376213Y-91219890D01*
X134225890Y-91370213D01*
X134100951Y-91542179D01*
X134004444Y-91731585D01*
X133938753Y-91933760D01*
X133905500Y-92143713D01*
X133905500Y-92356286D01*
X133938754Y-92566244D01*
X133938754Y-92566247D01*
X133952491Y-92608523D01*
X133954486Y-92678364D01*
X133922241Y-92734522D01*
X132955179Y-93701585D01*
X132046286Y-94610478D01*
X132046284Y-94610480D01*
X132002754Y-94654010D01*
X131934479Y-94722284D01*
X131926119Y-94736764D01*
X131925169Y-94738412D01*
X131855423Y-94859215D01*
X131814499Y-95011943D01*
X131814499Y-95011945D01*
X131814499Y-95180046D01*
X131814500Y-95180059D01*
X131814500Y-95909733D01*
X131794815Y-95976772D01*
X131742011Y-96022527D01*
X131672853Y-96032471D01*
X131648971Y-96025919D01*
X131648853Y-96026285D01*
X131449536Y-95961523D01*
X131284413Y-95935370D01*
X131247352Y-95929500D01*
X131042648Y-95929500D01*
X131018329Y-95933351D01*
X130840465Y-95961522D01*
X130645776Y-96024781D01*
X130463386Y-96117715D01*
X130297786Y-96238028D01*
X130153028Y-96382786D01*
X130032715Y-96548386D01*
X129985485Y-96641080D01*
X129937510Y-96691876D01*
X129869689Y-96708671D01*
X129803554Y-96686134D01*
X129764515Y-96641080D01*
X129717419Y-96548650D01*
X129717287Y-96548390D01*
X129685092Y-96504077D01*
X129596971Y-96382786D01*
X129452213Y-96238028D01*
X129286613Y-96117715D01*
X129286612Y-96117714D01*
X129286610Y-96117713D01*
X129213205Y-96080311D01*
X129104223Y-96024781D01*
X128909534Y-95961522D01*
X128734995Y-95933878D01*
X128707352Y-95929500D01*
X128502648Y-95929500D01*
X128478329Y-95933351D01*
X128300465Y-95961522D01*
X128105776Y-96024781D01*
X127923386Y-96117715D01*
X127757786Y-96238028D01*
X127613028Y-96382786D01*
X127492715Y-96548386D01*
X127399781Y-96730776D01*
X127336522Y-96925465D01*
X127304500Y-97127648D01*
X127304500Y-97332351D01*
X127336523Y-97534535D01*
X127336524Y-97534542D01*
X127346254Y-97564487D01*
X127348249Y-97634328D01*
X127312168Y-97694161D01*
X127249467Y-97724988D01*
X127204132Y-97724421D01*
X127078846Y-97699500D01*
X127078842Y-97699500D01*
X126921158Y-97699500D01*
X126921155Y-97699500D01*
X126766510Y-97730261D01*
X126766498Y-97730264D01*
X126620827Y-97790602D01*
X126620814Y-97790609D01*
X126489711Y-97878210D01*
X126489707Y-97878213D01*
X126378213Y-97989707D01*
X126378210Y-97989711D01*
X126290609Y-98120814D01*
X126290602Y-98120827D01*
X126230264Y-98266498D01*
X126230261Y-98266510D01*
X126199500Y-98421153D01*
X126199500Y-98578846D01*
X126230261Y-98733489D01*
X126230264Y-98733501D01*
X126290602Y-98879172D01*
X126290609Y-98879185D01*
X126378602Y-99010874D01*
X126399480Y-99077551D01*
X126399500Y-99079765D01*
X126399500Y-109314073D01*
X126379815Y-109381112D01*
X126327011Y-109426867D01*
X126257853Y-109436811D01*
X126194297Y-109407786D01*
X126181212Y-109394607D01*
X126180603Y-109393894D01*
X126052108Y-109265399D01*
X126052106Y-109265397D01*
X125905090Y-109158583D01*
X125743174Y-109076083D01*
X125743171Y-109076081D01*
X125570348Y-109019928D01*
X125436616Y-108998747D01*
X125390861Y-108991500D01*
X125209139Y-108991500D01*
X125163384Y-108998747D01*
X125029652Y-109019928D01*
X125029649Y-109019928D01*
X124856828Y-109076081D01*
X124856825Y-109076083D01*
X124694909Y-109158583D01*
X124611030Y-109219525D01*
X124547894Y-109265397D01*
X124547892Y-109265399D01*
X124547891Y-109265399D01*
X124419399Y-109393891D01*
X124419399Y-109393892D01*
X124419397Y-109393894D01*
X124409304Y-109407786D01*
X124312583Y-109540909D01*
X124230083Y-109702825D01*
X124230081Y-109702828D01*
X124173928Y-109875649D01*
X124173928Y-109875652D01*
X124145500Y-110055139D01*
X124145500Y-111544860D01*
X124173928Y-111724347D01*
X124173928Y-111724350D01*
X124230081Y-111897171D01*
X124230083Y-111897174D01*
X124312583Y-112059090D01*
X124419397Y-112206106D01*
X124547894Y-112334603D01*
X124694910Y-112441417D01*
X124856826Y-112523917D01*
X124856828Y-112523918D01*
X124965093Y-112559095D01*
X125029654Y-112580072D01*
X125209139Y-112608500D01*
X125209140Y-112608500D01*
X125390860Y-112608500D01*
X125390861Y-112608500D01*
X125570346Y-112580072D01*
X125570349Y-112580071D01*
X125570350Y-112580071D01*
X125743171Y-112523918D01*
X125743171Y-112523917D01*
X125743174Y-112523917D01*
X125905090Y-112441417D01*
X126052106Y-112334603D01*
X126180603Y-112206106D01*
X126180615Y-112206089D01*
X126181203Y-112205402D01*
X126181502Y-112205206D01*
X126184048Y-112202661D01*
X126184582Y-112203195D01*
X126203695Y-112190716D01*
X126223989Y-112173132D01*
X126232502Y-112171907D01*
X126239707Y-112167204D01*
X126266564Y-112167010D01*
X126293147Y-112163188D01*
X126300973Y-112166762D01*
X126309575Y-112166700D01*
X126332270Y-112181055D01*
X126356703Y-112192213D01*
X126361354Y-112199451D01*
X126368624Y-112204049D01*
X126379955Y-112228395D01*
X126394477Y-112250991D01*
X126396266Y-112263439D01*
X126398107Y-112267393D01*
X126399500Y-112285926D01*
X126399500Y-112406090D01*
X126399499Y-112406108D01*
X126399499Y-112571814D01*
X126399498Y-112571814D01*
X126440423Y-112724546D01*
X126440424Y-112724547D01*
X126469284Y-112774534D01*
X126519480Y-112861476D01*
X126519482Y-112861478D01*
X126638349Y-112980345D01*
X126638355Y-112980350D01*
X127643379Y-113985374D01*
X127643389Y-113985385D01*
X127647719Y-113989715D01*
X127647720Y-113989716D01*
X127759524Y-114101520D01*
X127838115Y-114146894D01*
X127896455Y-114180577D01*
X128049182Y-114221500D01*
X128049183Y-114221500D01*
X129907331Y-114221500D01*
X129907347Y-114221501D01*
X129914943Y-114221501D01*
X130073054Y-114221501D01*
X130073057Y-114221501D01*
X130225785Y-114180577D01*
X130284125Y-114146894D01*
X130362716Y-114101520D01*
X130474520Y-113989716D01*
X130474520Y-113989714D01*
X130484724Y-113979511D01*
X130484728Y-113979506D01*
X130700158Y-113764075D01*
X130761479Y-113730592D01*
X130826151Y-113733825D01*
X130840466Y-113738477D01*
X130840471Y-113738477D01*
X130840472Y-113738478D01*
X130888744Y-113746123D01*
X131042648Y-113770500D01*
X131042649Y-113770500D01*
X131247351Y-113770500D01*
X131247352Y-113770500D01*
X131449534Y-113738477D01*
X131627252Y-113680732D01*
X131697088Y-113678737D01*
X131756921Y-113714817D01*
X131787750Y-113777518D01*
X131780128Y-113846115D01*
X131730263Y-113966503D01*
X131730261Y-113966510D01*
X131699500Y-114121153D01*
X131699500Y-114278846D01*
X131730261Y-114433489D01*
X131730264Y-114433501D01*
X131790602Y-114579172D01*
X131790609Y-114579185D01*
X131878210Y-114710288D01*
X131878213Y-114710292D01*
X131989707Y-114821786D01*
X131989711Y-114821789D01*
X132120814Y-114909390D01*
X132120827Y-114909397D01*
X132266498Y-114969735D01*
X132266503Y-114969737D01*
X132421153Y-115000499D01*
X132421156Y-115000500D01*
X132421158Y-115000500D01*
X132578844Y-115000500D01*
X132578845Y-115000499D01*
X132733497Y-114969737D01*
X132879179Y-114909394D01*
X133010289Y-114821789D01*
X133121789Y-114710289D01*
X133209394Y-114579179D01*
X133269737Y-114433497D01*
X133300500Y-114278842D01*
X133300500Y-114121158D01*
X133300500Y-114121155D01*
X133300499Y-114121153D01*
X133297746Y-114107314D01*
X133269737Y-113966503D01*
X133245611Y-113908259D01*
X133238143Y-113838792D01*
X133269418Y-113776312D01*
X133329507Y-113740660D01*
X133379571Y-113738335D01*
X133380464Y-113738476D01*
X133380466Y-113738477D01*
X133582648Y-113770500D01*
X133582649Y-113770500D01*
X133787351Y-113770500D01*
X133787352Y-113770500D01*
X133989534Y-113738477D01*
X134184219Y-113675220D01*
X134366610Y-113582287D01*
X134476076Y-113502756D01*
X134532213Y-113461971D01*
X134532215Y-113461968D01*
X134532219Y-113461966D01*
X134676966Y-113317219D01*
X134676968Y-113317215D01*
X134676971Y-113317213D01*
X134797284Y-113151614D01*
X134797283Y-113151614D01*
X134797287Y-113151610D01*
X134844516Y-113058917D01*
X134892489Y-113008123D01*
X134960310Y-112991328D01*
X135026445Y-113013865D01*
X135065483Y-113058917D01*
X135082509Y-113092331D01*
X135112715Y-113151614D01*
X135233028Y-113317213D01*
X135377786Y-113461971D01*
X135487171Y-113541442D01*
X135543390Y-113582287D01*
X135640500Y-113631767D01*
X135725776Y-113675218D01*
X135725778Y-113675218D01*
X135725781Y-113675220D01*
X135770380Y-113689711D01*
X135920465Y-113738477D01*
X136021557Y-113754488D01*
X136122648Y-113770500D01*
X136122649Y-113770500D01*
X136327351Y-113770500D01*
X136327352Y-113770500D01*
X136529534Y-113738477D01*
X136724219Y-113675220D01*
X136906610Y-113582287D01*
X137016076Y-113502756D01*
X137072213Y-113461971D01*
X137072215Y-113461968D01*
X137072219Y-113461966D01*
X137216966Y-113317219D01*
X137216968Y-113317215D01*
X137216971Y-113317213D01*
X137337284Y-113151614D01*
X137337283Y-113151614D01*
X137337287Y-113151610D01*
X137384516Y-113058917D01*
X137432489Y-113008123D01*
X137500310Y-112991328D01*
X137566445Y-113013865D01*
X137605483Y-113058917D01*
X137622509Y-113092331D01*
X137652715Y-113151614D01*
X137773028Y-113317213D01*
X137917786Y-113461971D01*
X138027171Y-113541442D01*
X138083390Y-113582287D01*
X138180500Y-113631767D01*
X138265776Y-113675218D01*
X138265778Y-113675218D01*
X138265781Y-113675220D01*
X138310380Y-113689711D01*
X138460465Y-113738477D01*
X138561557Y-113754488D01*
X138662648Y-113770500D01*
X138662649Y-113770500D01*
X138867351Y-113770500D01*
X138867352Y-113770500D01*
X139069534Y-113738477D01*
X139264219Y-113675220D01*
X139446610Y-113582287D01*
X139556076Y-113502756D01*
X139612213Y-113461971D01*
X139612215Y-113461968D01*
X139612219Y-113461966D01*
X139756966Y-113317219D01*
X139756968Y-113317215D01*
X139756971Y-113317213D01*
X139877284Y-113151614D01*
X139877283Y-113151614D01*
X139877287Y-113151610D01*
X139924516Y-113058917D01*
X139972489Y-113008123D01*
X140040310Y-112991328D01*
X140106445Y-113013865D01*
X140145483Y-113058917D01*
X140162509Y-113092331D01*
X140192715Y-113151614D01*
X140313028Y-113317213D01*
X140457786Y-113461971D01*
X140567171Y-113541442D01*
X140623390Y-113582287D01*
X140720500Y-113631767D01*
X140805776Y-113675218D01*
X140805778Y-113675218D01*
X140805781Y-113675220D01*
X140850380Y-113689711D01*
X141000465Y-113738477D01*
X141101557Y-113754488D01*
X141202648Y-113770500D01*
X141202649Y-113770500D01*
X141407351Y-113770500D01*
X141407352Y-113770500D01*
X141609534Y-113738477D01*
X141804219Y-113675220D01*
X141986610Y-113582287D01*
X142096076Y-113502756D01*
X142152213Y-113461971D01*
X142152215Y-113461968D01*
X142152219Y-113461966D01*
X142296966Y-113317219D01*
X142296968Y-113317215D01*
X142296971Y-113317213D01*
X142417284Y-113151614D01*
X142417283Y-113151614D01*
X142417287Y-113151610D01*
X142464516Y-113058917D01*
X142512489Y-113008123D01*
X142580310Y-112991328D01*
X142646445Y-113013865D01*
X142685483Y-113058917D01*
X142702509Y-113092331D01*
X142732715Y-113151614D01*
X142853028Y-113317213D01*
X142997786Y-113461971D01*
X143107171Y-113541442D01*
X143163390Y-113582287D01*
X143260500Y-113631767D01*
X143345776Y-113675218D01*
X143345778Y-113675218D01*
X143345781Y-113675220D01*
X143390380Y-113689711D01*
X143540465Y-113738477D01*
X143641557Y-113754488D01*
X143742648Y-113770500D01*
X143742649Y-113770500D01*
X143947351Y-113770500D01*
X143947352Y-113770500D01*
X144149534Y-113738477D01*
X144344219Y-113675220D01*
X144526610Y-113582287D01*
X144636076Y-113502756D01*
X144692213Y-113461971D01*
X144692215Y-113461968D01*
X144692219Y-113461966D01*
X144836966Y-113317219D01*
X144836968Y-113317215D01*
X144836971Y-113317213D01*
X144957284Y-113151614D01*
X144957283Y-113151614D01*
X144957287Y-113151610D01*
X145004516Y-113058917D01*
X145052489Y-113008123D01*
X145120310Y-112991328D01*
X145186445Y-113013865D01*
X145225483Y-113058917D01*
X145242509Y-113092331D01*
X145272715Y-113151614D01*
X145393028Y-113317213D01*
X145537786Y-113461971D01*
X145647171Y-113541442D01*
X145703390Y-113582287D01*
X145800500Y-113631767D01*
X145885776Y-113675218D01*
X145885778Y-113675218D01*
X145885781Y-113675220D01*
X145930380Y-113689711D01*
X146080465Y-113738477D01*
X146181557Y-113754488D01*
X146282648Y-113770500D01*
X146282649Y-113770500D01*
X146487351Y-113770500D01*
X146487352Y-113770500D01*
X146689534Y-113738477D01*
X146884219Y-113675220D01*
X147066610Y-113582287D01*
X147176076Y-113502756D01*
X147232213Y-113461971D01*
X147232215Y-113461968D01*
X147232219Y-113461966D01*
X147376966Y-113317219D01*
X147376968Y-113317215D01*
X147376971Y-113317213D01*
X147497284Y-113151614D01*
X147497283Y-113151614D01*
X147497287Y-113151610D01*
X147544516Y-113058917D01*
X147592489Y-113008123D01*
X147660310Y-112991328D01*
X147726445Y-113013865D01*
X147765483Y-113058917D01*
X147782509Y-113092331D01*
X147812715Y-113151614D01*
X147933028Y-113317213D01*
X148077786Y-113461971D01*
X148187171Y-113541442D01*
X148243390Y-113582287D01*
X148340500Y-113631767D01*
X148425776Y-113675218D01*
X148425778Y-113675218D01*
X148425781Y-113675220D01*
X148470380Y-113689711D01*
X148620465Y-113738477D01*
X148721557Y-113754488D01*
X148822648Y-113770500D01*
X148822649Y-113770500D01*
X149027351Y-113770500D01*
X149027352Y-113770500D01*
X149229534Y-113738477D01*
X149424219Y-113675220D01*
X149606610Y-113582287D01*
X149716076Y-113502756D01*
X149772213Y-113461971D01*
X149772215Y-113461968D01*
X149772219Y-113461966D01*
X149916966Y-113317219D01*
X149916968Y-113317215D01*
X149916971Y-113317213D01*
X150037284Y-113151614D01*
X150037283Y-113151614D01*
X150037287Y-113151610D01*
X150084516Y-113058917D01*
X150132489Y-113008123D01*
X150200310Y-112991328D01*
X150266445Y-113013865D01*
X150305483Y-113058917D01*
X150322509Y-113092331D01*
X150352715Y-113151614D01*
X150473028Y-113317213D01*
X150617786Y-113461971D01*
X150727171Y-113541442D01*
X150783390Y-113582287D01*
X150880500Y-113631767D01*
X150965776Y-113675218D01*
X150965778Y-113675218D01*
X150965781Y-113675220D01*
X151010380Y-113689711D01*
X151160465Y-113738477D01*
X151261557Y-113754488D01*
X151362648Y-113770500D01*
X151362649Y-113770500D01*
X151567351Y-113770500D01*
X151567352Y-113770500D01*
X151769534Y-113738477D01*
X151964219Y-113675220D01*
X152146610Y-113582287D01*
X152256076Y-113502756D01*
X152312213Y-113461971D01*
X152312215Y-113461968D01*
X152312219Y-113461966D01*
X152456966Y-113317219D01*
X152456968Y-113317215D01*
X152456971Y-113317213D01*
X152577284Y-113151614D01*
X152577283Y-113151614D01*
X152577287Y-113151610D01*
X152624516Y-113058917D01*
X152672489Y-113008123D01*
X152740310Y-112991328D01*
X152806445Y-113013865D01*
X152845483Y-113058917D01*
X152862509Y-113092331D01*
X152892715Y-113151614D01*
X153013028Y-113317213D01*
X153157786Y-113461971D01*
X153267171Y-113541442D01*
X153323390Y-113582287D01*
X153420500Y-113631767D01*
X153505776Y-113675218D01*
X153505778Y-113675218D01*
X153505781Y-113675220D01*
X153550380Y-113689711D01*
X153700465Y-113738477D01*
X153801557Y-113754488D01*
X153902648Y-113770500D01*
X153902649Y-113770500D01*
X154107351Y-113770500D01*
X154107352Y-113770500D01*
X154309534Y-113738477D01*
X154504219Y-113675220D01*
X154686610Y-113582287D01*
X154796076Y-113502756D01*
X154852213Y-113461971D01*
X154852215Y-113461968D01*
X154852219Y-113461966D01*
X154868414Y-113445771D01*
X154929737Y-113412286D01*
X154999429Y-113417270D01*
X155043776Y-113445771D01*
X155583379Y-113985374D01*
X155583389Y-113985385D01*
X155587719Y-113989715D01*
X155587720Y-113989716D01*
X155699524Y-114101520D01*
X155699526Y-114101521D01*
X155699530Y-114101524D01*
X155821879Y-114172161D01*
X155836456Y-114180577D01*
X155948259Y-114210534D01*
X155989182Y-114221500D01*
X155989183Y-114221500D01*
X164047331Y-114221500D01*
X164047347Y-114221501D01*
X164054943Y-114221501D01*
X164213054Y-114221501D01*
X164213057Y-114221501D01*
X164365785Y-114180577D01*
X164424125Y-114146894D01*
X164502716Y-114101520D01*
X164614520Y-113989716D01*
X164614520Y-113989714D01*
X164624724Y-113979511D01*
X164624728Y-113979506D01*
X165217416Y-113386818D01*
X165278739Y-113353333D01*
X165305097Y-113350499D01*
X166652871Y-113350499D01*
X166652872Y-113350499D01*
X166712483Y-113344091D01*
X166847331Y-113293796D01*
X166851185Y-113290910D01*
X166863808Y-113286201D01*
X166873989Y-113277380D01*
X166895900Y-113274229D01*
X166916647Y-113266490D01*
X166929812Y-113269353D01*
X166943147Y-113267436D01*
X166963287Y-113276633D01*
X166984921Y-113281339D01*
X166994447Y-113290863D01*
X167006703Y-113296461D01*
X167018673Y-113315087D01*
X167034329Y-113330741D01*
X167038016Y-113345185D01*
X167044477Y-113355239D01*
X167049500Y-113390174D01*
X167049500Y-113502756D01*
X167029815Y-113569795D01*
X167003696Y-113598991D01*
X159406470Y-119771739D01*
X159342029Y-119798735D01*
X159328279Y-119799500D01*
X121271721Y-119799500D01*
X121204682Y-119779815D01*
X121193539Y-119771747D01*
X113596305Y-113598992D01*
X113595150Y-113597315D01*
X113593297Y-113596469D01*
X113575430Y-113568668D01*
X113556689Y-113541442D01*
X113556276Y-113538863D01*
X113555523Y-113537691D01*
X113550500Y-113502756D01*
X113550500Y-113390174D01*
X113570185Y-113323135D01*
X113622989Y-113277380D01*
X113692147Y-113267436D01*
X113748814Y-113290910D01*
X113752669Y-113293796D01*
X113752670Y-113293796D01*
X113752671Y-113293797D01*
X113887517Y-113344091D01*
X113887516Y-113344091D01*
X113894444Y-113344835D01*
X113947127Y-113350500D01*
X115742872Y-113350499D01*
X115802483Y-113344091D01*
X115937331Y-113293796D01*
X116052546Y-113207546D01*
X116138796Y-113092331D01*
X116189091Y-112957483D01*
X116195500Y-112897873D01*
X116195499Y-111102128D01*
X116189091Y-111042517D01*
X116189005Y-111042287D01*
X116138797Y-110907671D01*
X116138793Y-110907664D01*
X116052547Y-110792455D01*
X116052544Y-110792452D01*
X115937335Y-110706206D01*
X115937328Y-110706202D01*
X115805917Y-110657189D01*
X115749983Y-110615318D01*
X115725566Y-110549853D01*
X115740418Y-110481580D01*
X115761563Y-110453332D01*
X115875104Y-110339792D01*
X116000051Y-110167816D01*
X116057463Y-110055139D01*
X117545500Y-110055139D01*
X117545500Y-111544860D01*
X117573928Y-111724347D01*
X117573928Y-111724350D01*
X117630081Y-111897171D01*
X117630083Y-111897174D01*
X117712583Y-112059090D01*
X117819397Y-112206106D01*
X117947894Y-112334603D01*
X118094910Y-112441417D01*
X118256826Y-112523917D01*
X118256828Y-112523918D01*
X118365093Y-112559095D01*
X118429654Y-112580072D01*
X118609139Y-112608500D01*
X118609140Y-112608500D01*
X118790860Y-112608500D01*
X118790861Y-112608500D01*
X118970346Y-112580072D01*
X118970349Y-112580071D01*
X118970350Y-112580071D01*
X119143171Y-112523918D01*
X119143171Y-112523917D01*
X119143174Y-112523917D01*
X119305090Y-112441417D01*
X119452106Y-112334603D01*
X119573320Y-112213389D01*
X120899500Y-112213389D01*
X120899500Y-112386610D01*
X120923411Y-112537583D01*
X120926598Y-112557701D01*
X120967080Y-112682292D01*
X120980128Y-112722447D01*
X120981198Y-112724547D01*
X121058768Y-112876788D01*
X121160586Y-113016928D01*
X121283072Y-113139414D01*
X121423212Y-113241232D01*
X121577555Y-113319873D01*
X121742299Y-113373402D01*
X121913389Y-113400500D01*
X121913390Y-113400500D01*
X122086610Y-113400500D01*
X122086611Y-113400500D01*
X122257701Y-113373402D01*
X122422445Y-113319873D01*
X122576788Y-113241232D01*
X122716928Y-113139414D01*
X122839414Y-113016928D01*
X122941232Y-112876788D01*
X123019873Y-112722445D01*
X123073402Y-112557701D01*
X123100500Y-112386611D01*
X123100500Y-112213389D01*
X123073402Y-112042299D01*
X123019873Y-111877555D01*
X122941232Y-111723212D01*
X122839414Y-111583072D01*
X122716928Y-111460586D01*
X122576788Y-111358768D01*
X122422445Y-111280127D01*
X122257701Y-111226598D01*
X122257699Y-111226597D01*
X122257698Y-111226597D01*
X122123300Y-111205311D01*
X122086611Y-111199500D01*
X121913389Y-111199500D01*
X121876700Y-111205311D01*
X121742302Y-111226597D01*
X121742299Y-111226598D01*
X121603414Y-111271725D01*
X121577552Y-111280128D01*
X121423211Y-111358768D01*
X121357092Y-111406807D01*
X121283072Y-111460586D01*
X121283070Y-111460588D01*
X121283069Y-111460588D01*
X121160588Y-111583069D01*
X121160588Y-111583070D01*
X121160586Y-111583072D01*
X121131736Y-111622781D01*
X121058768Y-111723211D01*
X120980128Y-111877552D01*
X120926597Y-112042302D01*
X120899500Y-112213389D01*
X119573320Y-112213389D01*
X119580603Y-112206106D01*
X119687417Y-112059090D01*
X119769917Y-111897174D01*
X119805178Y-111788652D01*
X119826071Y-111724350D01*
X119826071Y-111724349D01*
X119826072Y-111724346D01*
X119854500Y-111544861D01*
X119854500Y-110055139D01*
X119826072Y-109875654D01*
X119826071Y-109875650D01*
X119826071Y-109875649D01*
X119769918Y-109702828D01*
X119769916Y-109702825D01*
X119763691Y-109690606D01*
X119687417Y-109540910D01*
X119580603Y-109393894D01*
X119452106Y-109265397D01*
X119305090Y-109158583D01*
X119143174Y-109076083D01*
X119143171Y-109076081D01*
X118970348Y-109019928D01*
X118836616Y-108998747D01*
X118790861Y-108991500D01*
X118609139Y-108991500D01*
X118563384Y-108998747D01*
X118429652Y-109019928D01*
X118429649Y-109019928D01*
X118256828Y-109076081D01*
X118256825Y-109076083D01*
X118094909Y-109158583D01*
X118011030Y-109219525D01*
X117947894Y-109265397D01*
X117947892Y-109265399D01*
X117947891Y-109265399D01*
X117819399Y-109393891D01*
X117819399Y-109393892D01*
X117819397Y-109393894D01*
X117809304Y-109407786D01*
X117712583Y-109540909D01*
X117630083Y-109702825D01*
X117630081Y-109702828D01*
X117573928Y-109875649D01*
X117573928Y-109875652D01*
X117545500Y-110055139D01*
X116057463Y-110055139D01*
X116096557Y-109978412D01*
X116162246Y-109776243D01*
X116195500Y-109566287D01*
X116195500Y-109353713D01*
X116162246Y-109143757D01*
X116096557Y-108941588D01*
X116000051Y-108752184D01*
X116000049Y-108752181D01*
X116000048Y-108752179D01*
X115875109Y-108580213D01*
X115724786Y-108429890D01*
X115552820Y-108304951D01*
X115552115Y-108304591D01*
X115544054Y-108300485D01*
X115493259Y-108252512D01*
X115476463Y-108184692D01*
X115498999Y-108118556D01*
X115544054Y-108079515D01*
X115552816Y-108075051D01*
X115615540Y-108029480D01*
X115724786Y-107950109D01*
X115724788Y-107950106D01*
X115724792Y-107950104D01*
X115875104Y-107799792D01*
X115875106Y-107799788D01*
X115875109Y-107799786D01*
X116000048Y-107627820D01*
X116000047Y-107627820D01*
X116000051Y-107627816D01*
X116096557Y-107438412D01*
X116162246Y-107236243D01*
X116195500Y-107026287D01*
X116195500Y-106813713D01*
X116162246Y-106603757D01*
X116096557Y-106401588D01*
X116000051Y-106212184D01*
X116000049Y-106212181D01*
X116000048Y-106212179D01*
X115875109Y-106040213D01*
X115724786Y-105889890D01*
X115552820Y-105764951D01*
X115552115Y-105764591D01*
X115544054Y-105760485D01*
X115493259Y-105712512D01*
X115476463Y-105644692D01*
X115498999Y-105578556D01*
X115544054Y-105539515D01*
X115552816Y-105535051D01*
X115586467Y-105510602D01*
X115724786Y-105410109D01*
X115724788Y-105410106D01*
X115724792Y-105410104D01*
X115875104Y-105259792D01*
X115908818Y-105213389D01*
X120899500Y-105213389D01*
X120899500Y-105386611D01*
X120900649Y-105393865D01*
X120923717Y-105539516D01*
X120926598Y-105557701D01*
X120980127Y-105722445D01*
X121058768Y-105876788D01*
X121160586Y-106016928D01*
X121283072Y-106139414D01*
X121423212Y-106241232D01*
X121577555Y-106319873D01*
X121742299Y-106373402D01*
X121913389Y-106400500D01*
X121913390Y-106400500D01*
X122086610Y-106400500D01*
X122086611Y-106400500D01*
X122257701Y-106373402D01*
X122422445Y-106319873D01*
X122576788Y-106241232D01*
X122716928Y-106139414D01*
X122839414Y-106016928D01*
X122941232Y-105876788D01*
X123019873Y-105722445D01*
X123073402Y-105557701D01*
X123100500Y-105386611D01*
X123100500Y-105213389D01*
X123073402Y-105042299D01*
X123019873Y-104877555D01*
X122941232Y-104723212D01*
X122839414Y-104583072D01*
X122716928Y-104460586D01*
X122576788Y-104358768D01*
X122422445Y-104280127D01*
X122257701Y-104226598D01*
X122257699Y-104226597D01*
X122257698Y-104226597D01*
X122126271Y-104205781D01*
X122086611Y-104199500D01*
X121913389Y-104199500D01*
X121873728Y-104205781D01*
X121742302Y-104226597D01*
X121577552Y-104280128D01*
X121423211Y-104358768D01*
X121352849Y-104409890D01*
X121283072Y-104460586D01*
X121283070Y-104460588D01*
X121283069Y-104460588D01*
X121160588Y-104583069D01*
X121160588Y-104583070D01*
X121160586Y-104583072D01*
X121116859Y-104643256D01*
X121058768Y-104723211D01*
X120980128Y-104877552D01*
X120926597Y-105042302D01*
X120911815Y-105135635D01*
X120899500Y-105213389D01*
X115908818Y-105213389D01*
X115950524Y-105155985D01*
X115965309Y-105135635D01*
X115965311Y-105135632D01*
X115980695Y-105114457D01*
X116000051Y-105087816D01*
X116096557Y-104898412D01*
X116162246Y-104696243D01*
X116195500Y-104486287D01*
X116195500Y-104273713D01*
X116162246Y-104063757D01*
X116096557Y-103861588D01*
X116000051Y-103672184D01*
X116000049Y-103672181D01*
X116000048Y-103672179D01*
X115875109Y-103500213D01*
X115724786Y-103349890D01*
X115552820Y-103224951D01*
X115552115Y-103224591D01*
X115544054Y-103220485D01*
X115493259Y-103172512D01*
X115476463Y-103104692D01*
X115498999Y-103038556D01*
X115544054Y-102999515D01*
X115552816Y-102995051D01*
X115574789Y-102979086D01*
X115724786Y-102870109D01*
X115724788Y-102870106D01*
X115724792Y-102870104D01*
X115875104Y-102719792D01*
X115875106Y-102719788D01*
X115875109Y-102719786D01*
X116000048Y-102547820D01*
X116000047Y-102547820D01*
X116000051Y-102547816D01*
X116096557Y-102358412D01*
X116162246Y-102156243D01*
X116178259Y-102055139D01*
X117995500Y-102055139D01*
X117995500Y-103544861D01*
X117999705Y-103571408D01*
X118023928Y-103724347D01*
X118023928Y-103724350D01*
X118080081Y-103897171D01*
X118080083Y-103897174D01*
X118162583Y-104059090D01*
X118269397Y-104206106D01*
X118397894Y-104334603D01*
X118544910Y-104441417D01*
X118706826Y-104523917D01*
X118706828Y-104523918D01*
X118773144Y-104545465D01*
X118879654Y-104580072D01*
X119059139Y-104608500D01*
X119059140Y-104608500D01*
X119240860Y-104608500D01*
X119240861Y-104608500D01*
X119420346Y-104580072D01*
X119420349Y-104580071D01*
X119420350Y-104580071D01*
X119593171Y-104523918D01*
X119593171Y-104523917D01*
X119593174Y-104523917D01*
X119755090Y-104441417D01*
X119902106Y-104334603D01*
X120030603Y-104206106D01*
X120137417Y-104059090D01*
X120219917Y-103897174D01*
X120260194Y-103773214D01*
X120276071Y-103724350D01*
X120276071Y-103724349D01*
X120276072Y-103724346D01*
X120304500Y-103544861D01*
X120304500Y-102889864D01*
X120324185Y-102822825D01*
X120376989Y-102777070D01*
X120446147Y-102767126D01*
X120509703Y-102796151D01*
X120516181Y-102802183D01*
X120594217Y-102880219D01*
X120741171Y-102986988D01*
X120903015Y-103069451D01*
X121075774Y-103125584D01*
X121255179Y-103154000D01*
X121750000Y-103154000D01*
X121750000Y-102400000D01*
X122250000Y-102400000D01*
X122250000Y-103154000D01*
X122744821Y-103154000D01*
X122924225Y-103125584D01*
X123096984Y-103069451D01*
X123258828Y-102986988D01*
X123380869Y-102898320D01*
X123380870Y-102898319D01*
X123405776Y-102880224D01*
X123405782Y-102880219D01*
X123534225Y-102751776D01*
X123565999Y-102708041D01*
X123566000Y-102708040D01*
X123566000Y-102674000D01*
X123585685Y-102606961D01*
X123638489Y-102561206D01*
X123690000Y-102550000D01*
X124450000Y-102550000D01*
X124450000Y-103050000D01*
X123696000Y-103050000D01*
X123696000Y-103544821D01*
X123724415Y-103724225D01*
X123780548Y-103896984D01*
X123863011Y-104058828D01*
X123969780Y-104205781D01*
X123969780Y-104205782D01*
X124098217Y-104334219D01*
X124245171Y-104440988D01*
X124407015Y-104523451D01*
X124579774Y-104579584D01*
X124600000Y-104582788D01*
X124600000Y-103465686D01*
X124604394Y-103470080D01*
X124695606Y-103522741D01*
X124797339Y-103550000D01*
X124902661Y-103550000D01*
X125004394Y-103522741D01*
X125095606Y-103470080D01*
X125100000Y-103465686D01*
X125100000Y-104582787D01*
X125120225Y-104579584D01*
X125292984Y-104523451D01*
X125454828Y-104440988D01*
X125601781Y-104334219D01*
X125601782Y-104334219D01*
X125730219Y-104205782D01*
X125730219Y-104205781D01*
X125836988Y-104058828D01*
X125919451Y-103896984D01*
X125975584Y-103724225D01*
X126004000Y-103544821D01*
X126004000Y-103050000D01*
X125250000Y-103050000D01*
X125250000Y-102550000D01*
X126004000Y-102550000D01*
X126004000Y-102055178D01*
X125975584Y-101875774D01*
X125919451Y-101703015D01*
X125836988Y-101541171D01*
X125730219Y-101394218D01*
X125730219Y-101394217D01*
X125601782Y-101265780D01*
X125454828Y-101159011D01*
X125292984Y-101076548D01*
X125120231Y-101020416D01*
X125120224Y-101020415D01*
X125100000Y-101017210D01*
X125100000Y-102134314D01*
X125095606Y-102129920D01*
X125004394Y-102077259D01*
X124902661Y-102050000D01*
X124797339Y-102050000D01*
X124695606Y-102077259D01*
X124604394Y-102129920D01*
X124600000Y-102134314D01*
X124600000Y-101017211D01*
X124599999Y-101017210D01*
X124579775Y-101020415D01*
X124579768Y-101020416D01*
X124407015Y-101076548D01*
X124245171Y-101159011D01*
X124098218Y-101265780D01*
X124098217Y-101265780D01*
X123969780Y-101394217D01*
X123969773Y-101394226D01*
X123895172Y-101496904D01*
X123839842Y-101539570D01*
X123770229Y-101545548D01*
X123708434Y-101512942D01*
X123684370Y-101480312D01*
X123640990Y-101395173D01*
X123534219Y-101248218D01*
X123534219Y-101248217D01*
X123405782Y-101119780D01*
X123258828Y-101013011D01*
X123096984Y-100930548D01*
X122924225Y-100874415D01*
X122744821Y-100846000D01*
X122250000Y-100846000D01*
X122250000Y-101600000D01*
X121750000Y-101600000D01*
X121750000Y-100846000D01*
X121255179Y-100846000D01*
X121075774Y-100874415D01*
X120903015Y-100930548D01*
X120741171Y-101013011D01*
X120594218Y-101119780D01*
X120594217Y-101119780D01*
X120465780Y-101248217D01*
X120465780Y-101248218D01*
X120359011Y-101395171D01*
X120315884Y-101479813D01*
X120267909Y-101530609D01*
X120200088Y-101547404D01*
X120133953Y-101524866D01*
X120105081Y-101496404D01*
X120030603Y-101393894D01*
X119902106Y-101265397D01*
X119755090Y-101158583D01*
X119593174Y-101076083D01*
X119593171Y-101076081D01*
X119420348Y-101019928D01*
X119300689Y-101000976D01*
X119240861Y-100991500D01*
X119059139Y-100991500D01*
X118999310Y-101000976D01*
X118879652Y-101019928D01*
X118879649Y-101019928D01*
X118706828Y-101076081D01*
X118706825Y-101076083D01*
X118544909Y-101158583D01*
X118461030Y-101219525D01*
X118397894Y-101265397D01*
X118397892Y-101265399D01*
X118397891Y-101265399D01*
X118269399Y-101393891D01*
X118269399Y-101393892D01*
X118269397Y-101393894D01*
X118268468Y-101395173D01*
X118162583Y-101540909D01*
X118080083Y-101702825D01*
X118080081Y-101702828D01*
X118023928Y-101875649D01*
X118023928Y-101875652D01*
X118001845Y-102015081D01*
X117995500Y-102055139D01*
X116178259Y-102055139D01*
X116195500Y-101946287D01*
X116195500Y-101733713D01*
X116162246Y-101523757D01*
X116096557Y-101321588D01*
X116000051Y-101132184D01*
X116000049Y-101132181D01*
X116000048Y-101132179D01*
X115875109Y-100960213D01*
X115724786Y-100809890D01*
X115552820Y-100684951D01*
X115552115Y-100684591D01*
X115544054Y-100680485D01*
X115493259Y-100632512D01*
X115476463Y-100564692D01*
X115498999Y-100498556D01*
X115544054Y-100459515D01*
X115552816Y-100455051D01*
X115574789Y-100439086D01*
X115724786Y-100330109D01*
X115724788Y-100330106D01*
X115724792Y-100330104D01*
X115875104Y-100179792D01*
X115875106Y-100179788D01*
X115875109Y-100179786D01*
X116000048Y-100007820D01*
X116000047Y-100007820D01*
X116000051Y-100007816D01*
X116096557Y-99818412D01*
X116162246Y-99616243D01*
X116195500Y-99406287D01*
X116195500Y-99193713D01*
X116162246Y-98983757D01*
X116096557Y-98781588D01*
X116000051Y-98592184D01*
X116000049Y-98592181D01*
X116000048Y-98592179D01*
X115875109Y-98420213D01*
X115724786Y-98269890D01*
X115552820Y-98144951D01*
X115552115Y-98144591D01*
X115544054Y-98140485D01*
X115493259Y-98092512D01*
X115476463Y-98024692D01*
X115498999Y-97958556D01*
X115544054Y-97919515D01*
X115552816Y-97915051D01*
X115603524Y-97878210D01*
X115724786Y-97790109D01*
X115724788Y-97790106D01*
X115724792Y-97790104D01*
X115875104Y-97639792D01*
X115875106Y-97639788D01*
X115875109Y-97639786D01*
X116000048Y-97467820D01*
X116000047Y-97467820D01*
X116000051Y-97467816D01*
X116096557Y-97278412D01*
X116162246Y-97076243D01*
X116195500Y-96866287D01*
X116195500Y-96653713D01*
X116162246Y-96443757D01*
X116096557Y-96241588D01*
X116000051Y-96052184D01*
X116000049Y-96052181D01*
X116000048Y-96052179D01*
X115875109Y-95880213D01*
X115724786Y-95729890D01*
X115552820Y-95604951D01*
X115552115Y-95604591D01*
X115544054Y-95600485D01*
X115493259Y-95552512D01*
X115476463Y-95484692D01*
X115498999Y-95418556D01*
X115544054Y-95379515D01*
X115552816Y-95375051D01*
X115623004Y-95324057D01*
X115724786Y-95250109D01*
X115724788Y-95250106D01*
X115724792Y-95250104D01*
X115875104Y-95099792D01*
X115875106Y-95099788D01*
X115875109Y-95099786D01*
X116000048Y-94927820D01*
X116000047Y-94927820D01*
X116000051Y-94927816D01*
X116096557Y-94738412D01*
X116162246Y-94536243D01*
X116195500Y-94326287D01*
X116195500Y-94113713D01*
X116162246Y-93903757D01*
X116096557Y-93701588D01*
X116000051Y-93512184D01*
X116000049Y-93512181D01*
X116000048Y-93512179D01*
X115875109Y-93340213D01*
X115724786Y-93189890D01*
X115552820Y-93064951D01*
X115552115Y-93064591D01*
X115544054Y-93060485D01*
X115493259Y-93012512D01*
X115476463Y-92944692D01*
X115498999Y-92878556D01*
X115544054Y-92839515D01*
X115552816Y-92835051D01*
X115574789Y-92819086D01*
X115724786Y-92710109D01*
X115724788Y-92710106D01*
X115724792Y-92710104D01*
X115875104Y-92559792D01*
X115875106Y-92559788D01*
X115875109Y-92559786D01*
X116000048Y-92387820D01*
X116000047Y-92387820D01*
X116000051Y-92387816D01*
X116096557Y-92198412D01*
X116162246Y-91996243D01*
X116195500Y-91786287D01*
X116195500Y-91573713D01*
X116162246Y-91363757D01*
X116096557Y-91161588D01*
X116000051Y-90972184D01*
X116000049Y-90972181D01*
X116000048Y-90972179D01*
X115875109Y-90800213D01*
X115724786Y-90649890D01*
X115552820Y-90524951D01*
X115552115Y-90524591D01*
X115544054Y-90520485D01*
X115493259Y-90472512D01*
X115476463Y-90404692D01*
X115498999Y-90338556D01*
X115544054Y-90299515D01*
X115552816Y-90295051D01*
X115587452Y-90269887D01*
X115724786Y-90170109D01*
X115724788Y-90170106D01*
X115724792Y-90170104D01*
X115875104Y-90019792D01*
X115875106Y-90019788D01*
X115875109Y-90019786D01*
X116000048Y-89847820D01*
X116000047Y-89847820D01*
X116000051Y-89847816D01*
X116096557Y-89658412D01*
X116162246Y-89456243D01*
X116195500Y-89246287D01*
X116195500Y-89033713D01*
X116162246Y-88823757D01*
X116096557Y-88621588D01*
X116000051Y-88432184D01*
X116000049Y-88432181D01*
X116000048Y-88432179D01*
X115875109Y-88260213D01*
X115724792Y-88109896D01*
X115676512Y-88074819D01*
X115633846Y-88019489D01*
X115627867Y-87949876D01*
X115660472Y-87888080D01*
X115721311Y-87853723D01*
X115749397Y-87850500D01*
X123486452Y-87850500D01*
X123553491Y-87870185D01*
G37*
%TD.AperFunction*%
%TA.AperFunction,Conductor*%
G36*
X164323834Y-101682914D02*
G01*
X164379767Y-101724786D01*
X164404184Y-101790250D01*
X164404500Y-101799096D01*
X164404500Y-101946286D01*
X164421740Y-102055139D01*
X164437754Y-102156243D01*
X164453399Y-102204394D01*
X164503444Y-102358414D01*
X164599951Y-102547820D01*
X164724890Y-102719786D01*
X164875213Y-102870109D01*
X165047182Y-102995050D01*
X165055946Y-102999516D01*
X165106742Y-103047491D01*
X165123536Y-103115312D01*
X165100998Y-103181447D01*
X165055946Y-103220484D01*
X165047182Y-103224949D01*
X164875213Y-103349890D01*
X164724890Y-103500213D01*
X164599951Y-103672179D01*
X164503444Y-103861585D01*
X164437753Y-104063760D01*
X164411962Y-104226597D01*
X164404500Y-104273713D01*
X164404500Y-104486287D01*
X164437754Y-104696243D01*
X164496272Y-104876343D01*
X164503444Y-104898414D01*
X164599951Y-105087820D01*
X164724890Y-105259786D01*
X164875213Y-105410109D01*
X165047182Y-105535050D01*
X165055946Y-105539516D01*
X165106742Y-105587491D01*
X165123536Y-105655312D01*
X165100998Y-105721447D01*
X165055946Y-105760484D01*
X165047182Y-105764949D01*
X164875213Y-105889890D01*
X164724890Y-106040213D01*
X164599951Y-106212179D01*
X164503444Y-106401585D01*
X164437753Y-106603760D01*
X164404500Y-106813713D01*
X164404500Y-107026286D01*
X164431849Y-107198964D01*
X164437754Y-107236243D01*
X164473839Y-107347302D01*
X164503444Y-107438414D01*
X164599951Y-107627820D01*
X164724890Y-107799786D01*
X164875213Y-107950109D01*
X165047182Y-108075050D01*
X165055946Y-108079516D01*
X165106742Y-108127491D01*
X165123536Y-108195312D01*
X165100998Y-108261447D01*
X165055946Y-108300484D01*
X165047182Y-108304949D01*
X164875213Y-108429890D01*
X164724890Y-108580213D01*
X164599951Y-108752179D01*
X164503444Y-108941585D01*
X164437753Y-109143760D01*
X164404500Y-109353713D01*
X164404500Y-109566286D01*
X164426125Y-109702825D01*
X164437754Y-109776243D01*
X164443482Y-109793873D01*
X164503444Y-109978414D01*
X164599951Y-110167820D01*
X164724890Y-110339786D01*
X164838430Y-110453326D01*
X164871915Y-110514649D01*
X164866931Y-110584341D01*
X164825059Y-110640274D01*
X164794083Y-110657189D01*
X164662669Y-110706203D01*
X164662664Y-110706206D01*
X164547455Y-110792452D01*
X164547452Y-110792455D01*
X164461206Y-110907664D01*
X164461202Y-110907671D01*
X164410908Y-111042517D01*
X164405856Y-111089515D01*
X164404501Y-111102123D01*
X164404500Y-111102135D01*
X164404500Y-112449902D01*
X164384815Y-112516941D01*
X164368181Y-112537583D01*
X163921584Y-112984181D01*
X163860261Y-113017666D01*
X163833903Y-113020500D01*
X162984229Y-113020500D01*
X162917190Y-113000815D01*
X162871435Y-112948011D01*
X162861491Y-112878853D01*
X162866298Y-112858181D01*
X162893477Y-112774534D01*
X162908087Y-112682292D01*
X162925500Y-112572352D01*
X162925500Y-112367648D01*
X162903444Y-112228395D01*
X162893477Y-112165465D01*
X162858913Y-112059090D01*
X162830220Y-111970781D01*
X162830218Y-111970778D01*
X162830218Y-111970776D01*
X162782717Y-111877552D01*
X162737287Y-111788390D01*
X162705092Y-111744077D01*
X162616971Y-111622786D01*
X162472213Y-111478028D01*
X162306613Y-111357715D01*
X162306612Y-111357714D01*
X162306610Y-111357713D01*
X162233205Y-111320311D01*
X162124223Y-111264781D01*
X161929534Y-111201522D01*
X161754995Y-111173878D01*
X161727352Y-111169500D01*
X161522648Y-111169500D01*
X161498329Y-111173351D01*
X161320465Y-111201522D01*
X161125776Y-111264781D01*
X160943386Y-111357715D01*
X160777786Y-111478028D01*
X160633028Y-111622786D01*
X160512713Y-111788388D01*
X160465203Y-111881630D01*
X160417228Y-111932426D01*
X160349407Y-111949220D01*
X160283272Y-111926682D01*
X160244234Y-111881628D01*
X160196861Y-111788652D01*
X160164474Y-111744077D01*
X160164474Y-111744076D01*
X159608787Y-112299764D01*
X159597518Y-112257708D01*
X159525110Y-112132292D01*
X159422708Y-112029890D01*
X159297292Y-111957482D01*
X159255233Y-111946212D01*
X159810922Y-111390524D01*
X159810921Y-111390523D01*
X159766359Y-111358147D01*
X159766350Y-111358141D01*
X159673369Y-111310765D01*
X159622573Y-111262790D01*
X159605778Y-111194969D01*
X159628315Y-111128835D01*
X159673370Y-111089795D01*
X159673920Y-111089515D01*
X159766610Y-111042287D01*
X159909787Y-110938264D01*
X159932213Y-110921971D01*
X159932215Y-110921968D01*
X159932219Y-110921966D01*
X160076966Y-110777219D01*
X160076968Y-110777215D01*
X160076971Y-110777213D01*
X160145146Y-110683376D01*
X160197287Y-110611610D01*
X160290220Y-110429219D01*
X160353477Y-110234534D01*
X160385500Y-110032352D01*
X160385500Y-109827648D01*
X160353477Y-109625465D01*
X160290218Y-109430776D01*
X160230754Y-109314073D01*
X160197287Y-109248390D01*
X160138992Y-109168153D01*
X160076971Y-109082786D01*
X159932213Y-108938028D01*
X159766613Y-108817715D01*
X159766612Y-108817714D01*
X159766610Y-108817713D01*
X159709653Y-108788691D01*
X159584223Y-108724781D01*
X159389534Y-108661522D01*
X159214995Y-108633878D01*
X159187352Y-108629500D01*
X158982648Y-108629500D01*
X158958329Y-108633351D01*
X158780465Y-108661522D01*
X158585776Y-108724781D01*
X158403386Y-108817715D01*
X158237786Y-108938028D01*
X158093028Y-109082786D01*
X157972715Y-109248386D01*
X157879781Y-109430776D01*
X157816522Y-109625465D01*
X157784500Y-109827648D01*
X157784500Y-110032351D01*
X157816522Y-110234534D01*
X157879781Y-110429223D01*
X157939996Y-110547399D01*
X157971803Y-110609825D01*
X157972715Y-110611613D01*
X158093028Y-110777213D01*
X158237786Y-110921971D01*
X158403385Y-111042284D01*
X158403387Y-111042285D01*
X158403390Y-111042287D01*
X158496080Y-111089515D01*
X158496630Y-111089795D01*
X158547426Y-111137770D01*
X158564221Y-111205591D01*
X158541684Y-111271725D01*
X158496630Y-111310765D01*
X158403644Y-111358143D01*
X158359077Y-111390523D01*
X158359077Y-111390524D01*
X158914766Y-111946212D01*
X158872708Y-111957482D01*
X158747292Y-112029890D01*
X158644890Y-112132292D01*
X158572482Y-112257708D01*
X158561212Y-112299765D01*
X158005524Y-111744077D01*
X158005523Y-111744077D01*
X157973143Y-111788644D01*
X157925765Y-111881630D01*
X157877790Y-111932426D01*
X157809969Y-111949221D01*
X157743834Y-111926683D01*
X157704795Y-111881630D01*
X157657284Y-111788385D01*
X157536971Y-111622786D01*
X157392213Y-111478028D01*
X157226610Y-111357712D01*
X157213200Y-111350879D01*
X157162406Y-111302903D01*
X157145500Y-111240397D01*
X157145500Y-108810096D01*
X157165185Y-108743057D01*
X157181814Y-108722420D01*
X164192819Y-101711414D01*
X164254142Y-101677930D01*
X164323834Y-101682914D01*
G37*
%TD.AperFunction*%
%TA.AperFunction,Conductor*%
G36*
X129663181Y-105554628D02*
G01*
X129696666Y-105615951D01*
X129699500Y-105642309D01*
X129699500Y-106345953D01*
X129679815Y-106412992D01*
X129627011Y-106458747D01*
X129557853Y-106468691D01*
X129494297Y-106439666D01*
X129487819Y-106433634D01*
X129452213Y-106398028D01*
X129286611Y-106277713D01*
X129193369Y-106230203D01*
X129142574Y-106182229D01*
X129125779Y-106114407D01*
X129148317Y-106048273D01*
X129193371Y-106009234D01*
X129286346Y-105961861D01*
X129286347Y-105961861D01*
X129330921Y-105929474D01*
X128775234Y-105373787D01*
X128817292Y-105362518D01*
X128942708Y-105290110D01*
X129045110Y-105187708D01*
X129117518Y-105062292D01*
X129128787Y-105020234D01*
X129663181Y-105554628D01*
G37*
%TD.AperFunction*%
%TA.AperFunction,Conductor*%
G36*
X138911270Y-93011717D02*
G01*
X138911270Y-93011716D01*
X138950622Y-92957555D01*
X138955232Y-92948507D01*
X139003205Y-92897709D01*
X139071025Y-92880912D01*
X139137161Y-92903447D01*
X139176204Y-92948504D01*
X139180949Y-92957817D01*
X139305890Y-93129786D01*
X139305896Y-93129792D01*
X139456208Y-93280104D01*
X139456209Y-93280105D01*
X139456208Y-93280105D01*
X139482850Y-93299460D01*
X139502384Y-93313652D01*
X139545050Y-93368980D01*
X139553500Y-93413971D01*
X139553500Y-95969826D01*
X139533815Y-96036865D01*
X139481011Y-96082620D01*
X139411853Y-96092564D01*
X139373205Y-96080311D01*
X139264223Y-96024781D01*
X139069534Y-95961522D01*
X138894995Y-95933878D01*
X138867352Y-95929500D01*
X138662648Y-95929500D01*
X138638329Y-95933351D01*
X138460465Y-95961522D01*
X138265776Y-96024781D01*
X138083386Y-96117715D01*
X137917786Y-96238028D01*
X137773028Y-96382786D01*
X137652715Y-96548386D01*
X137605485Y-96641080D01*
X137557510Y-96691876D01*
X137489689Y-96708671D01*
X137423554Y-96686134D01*
X137384515Y-96641080D01*
X137337419Y-96548650D01*
X137337287Y-96548390D01*
X137305092Y-96504077D01*
X137216971Y-96382786D01*
X137072213Y-96238028D01*
X136906613Y-96117715D01*
X136906612Y-96117714D01*
X136906610Y-96117713D01*
X136833205Y-96080311D01*
X136724223Y-96024781D01*
X136529534Y-95961522D01*
X136354995Y-95933878D01*
X136327352Y-95929500D01*
X136122648Y-95929500D01*
X136098329Y-95933351D01*
X135920465Y-95961522D01*
X135725776Y-96024781D01*
X135543386Y-96117715D01*
X135377786Y-96238028D01*
X135233028Y-96382786D01*
X135112715Y-96548386D01*
X135065485Y-96641080D01*
X135017510Y-96691876D01*
X134949689Y-96708671D01*
X134883554Y-96686134D01*
X134844515Y-96641080D01*
X134797419Y-96548650D01*
X134797287Y-96548390D01*
X134765092Y-96504077D01*
X134676971Y-96382786D01*
X134532213Y-96238028D01*
X134366613Y-96117715D01*
X134366612Y-96117714D01*
X134366610Y-96117713D01*
X134293205Y-96080311D01*
X134184223Y-96024781D01*
X133989534Y-95961522D01*
X133814995Y-95933878D01*
X133787352Y-95929500D01*
X133582648Y-95929500D01*
X133545587Y-95935370D01*
X133380464Y-95961523D01*
X133380461Y-95961523D01*
X133181147Y-96026285D01*
X133180717Y-96024963D01*
X133117486Y-96031763D01*
X133055006Y-96000490D01*
X133019352Y-95940402D01*
X133015500Y-95909733D01*
X133015500Y-95391096D01*
X133035185Y-95324057D01*
X133051814Y-95303420D01*
X134771478Y-93583755D01*
X134832799Y-93550272D01*
X134897473Y-93553506D01*
X134939757Y-93567246D01*
X135149713Y-93600500D01*
X135149714Y-93600500D01*
X135362286Y-93600500D01*
X135362287Y-93600500D01*
X135572243Y-93567246D01*
X135774412Y-93501557D01*
X135963816Y-93405051D01*
X136018572Y-93365269D01*
X136135786Y-93280109D01*
X136135788Y-93280106D01*
X136135792Y-93280104D01*
X136286104Y-93129792D01*
X136286106Y-93129788D01*
X136286109Y-93129786D01*
X136371890Y-93011717D01*
X136411051Y-92957816D01*
X136415793Y-92948508D01*
X136463763Y-92897711D01*
X136531583Y-92880911D01*
X136597719Y-92903445D01*
X136636763Y-92948500D01*
X136641373Y-92957547D01*
X136680728Y-93011716D01*
X137313037Y-92379408D01*
X137330075Y-92442993D01*
X137395901Y-92557007D01*
X137488993Y-92650099D01*
X137603007Y-92715925D01*
X137666590Y-92732962D01*
X137034282Y-93365269D01*
X137034282Y-93365270D01*
X137088449Y-93404624D01*
X137277782Y-93501095D01*
X137479870Y-93566757D01*
X137689754Y-93600000D01*
X137902246Y-93600000D01*
X138112127Y-93566757D01*
X138112130Y-93566757D01*
X138314217Y-93501095D01*
X138503554Y-93404622D01*
X138557716Y-93365270D01*
X138557717Y-93365270D01*
X137925408Y-92732962D01*
X137988993Y-92715925D01*
X138103007Y-92650099D01*
X138196099Y-92557007D01*
X138261925Y-92442993D01*
X138278962Y-92379408D01*
X138911270Y-93011717D01*
G37*
%TD.AperFunction*%
%TD*%
M02*
