%TF.GenerationSoftware,KiCad,Pcbnew,9.0.6*%
%TF.CreationDate,2026-06-23T14:02:11-07:00*%
%TF.ProjectId,AudioBoardTeensy,41756469-6f42-46f6-9172-645465656e73,rev?*%
%TF.SameCoordinates,Original*%
%TF.FileFunction,Copper,L1,Top*%
%TF.FilePolarity,Positive*%
%FSLAX46Y46*%
G04 Gerber Fmt 4.6, Leading zero omitted, Abs format (unit mm)*
G04 Created by KiCad (PCBNEW 9.0.6) date 2026-06-23 14:02:11*
%MOMM*%
%LPD*%
G01*
G04 APERTURE LIST*
G04 Aperture macros list*
%AMRoundRect*
0 Rectangle with rounded corners*
0 $1 Rounding radius*
0 $2 $3 $4 $5 $6 $7 $8 $9 X,Y pos of 4 corners*
0 Add a 4 corners polygon primitive as box body*
4,1,4,$2,$3,$4,$5,$6,$7,$8,$9,$2,$3,0*
0 Add four circle primitives for the rounded corners*
1,1,$1+$1,$2,$3*
1,1,$1+$1,$4,$5*
1,1,$1+$1,$6,$7*
1,1,$1+$1,$8,$9*
0 Add four rect primitives between the rounded corners*
20,1,$1+$1,$2,$3,$4,$5,0*
20,1,$1+$1,$4,$5,$6,$7,0*
20,1,$1+$1,$6,$7,$8,$9,0*
20,1,$1+$1,$8,$9,$2,$3,0*%
G04 Aperture macros list end*
%TA.AperFunction,ComponentPad*%
%ADD10R,1.700000X1.700000*%
%TD*%
%TA.AperFunction,ComponentPad*%
%ADD11C,1.700000*%
%TD*%
%TA.AperFunction,ComponentPad*%
%ADD12C,5.700000*%
%TD*%
%TA.AperFunction,SMDPad,CuDef*%
%ADD13R,0.860000X0.980000*%
%TD*%
%TA.AperFunction,SMDPad,CuDef*%
%ADD14RoundRect,0.112500X-0.337500X-0.372500X0.337500X-0.372500X0.337500X0.372500X-0.337500X0.372500X0*%
%TD*%
%TA.AperFunction,SMDPad,CuDef*%
%ADD15R,0.980000X0.860000*%
%TD*%
%TA.AperFunction,SMDPad,CuDef*%
%ADD16RoundRect,0.108750X-0.326250X-0.356250X0.326250X-0.356250X0.326250X0.356250X-0.326250X0.356250X0*%
%TD*%
%TA.AperFunction,ComponentPad*%
%ADD17O,1.308000X2.616000*%
%TD*%
%TA.AperFunction,ComponentPad*%
%ADD18O,2.616000X1.308000*%
%TD*%
%TA.AperFunction,ComponentPad*%
%ADD19C,1.600000*%
%TD*%
%TA.AperFunction,ViaPad*%
%ADD20C,0.600000*%
%TD*%
%TA.AperFunction,Conductor*%
%ADD21C,0.200000*%
%TD*%
G04 APERTURE END LIST*
D10*
%TO.P,J4,1,Pin_1*%
%TO.N,MISO*%
X150496000Y-92250000D03*
D11*
%TO.P,J4,2,Pin_2*%
%TO.N,RST*%
X147956000Y-92250000D03*
%TO.P,J4,3,Pin_3*%
%TO.N,CS*%
X145416000Y-92250000D03*
%TO.P,J4,4,Pin_4*%
%TO.N,MOSI*%
X142876000Y-92250000D03*
%TO.P,J4,5,Pin_5*%
%TO.N,SCK*%
X140336000Y-92250000D03*
%TO.P,J4,6,Pin_6*%
%TO.N,GND*%
X137796000Y-92250000D03*
%TO.P,J4,7,Pin_7*%
%TO.N,+3V3*%
X135256000Y-92250000D03*
%TD*%
D12*
%TO.P,H1,1,1*%
%TO.N,unconnected-(H1-Pad1)*%
X124075000Y-91400000D03*
%TD*%
%TO.P,H2,1,1*%
%TO.N,unconnected-(H2-Pad1)*%
X156525000Y-91400000D03*
%TD*%
D10*
%TO.P,J2,1,Pin_1*%
%TO.N,LED1*%
X114845000Y-112000000D03*
D11*
%TO.P,J2,2,Pin_2*%
%TO.N,LED2*%
X114845000Y-109460000D03*
%TO.P,J2,3,Pin_3*%
%TO.N,LED3*%
X114845000Y-106920000D03*
%TO.P,J2,4,Pin_4*%
%TO.N,LED4*%
X114845000Y-104380000D03*
%TO.P,J2,5,Pin_5*%
%TO.N,LED5*%
X114845000Y-101840000D03*
%TO.P,J2,6,Pin_6*%
%TO.N,+3V3*%
X114845000Y-99300000D03*
%TO.P,J2,7,Pin_7*%
X114845000Y-96760000D03*
%TO.P,J2,8,Pin_8*%
X114845000Y-94220000D03*
%TO.P,J2,9,Pin_9*%
X114845000Y-91680000D03*
%TO.P,J2,10,Pin_10*%
X114845000Y-89140000D03*
%TD*%
D13*
%TO.P,R4,1*%
%TO.N,GND*%
X124085000Y-96650000D03*
%TO.P,R4,2*%
%TO.N,A0*%
X125615000Y-96650000D03*
%TD*%
D14*
%TO.P,R2,1*%
%TO.N,GND*%
X120795000Y-96650000D03*
%TO.P,R2,2*%
%TO.N,Net-(C1-Pad2)*%
X122365000Y-96650000D03*
%TD*%
D13*
%TO.P,R3,1*%
%TO.N,A0*%
X125615000Y-98800000D03*
%TO.P,R3,2*%
%TO.N,+3V3*%
X124085000Y-98800000D03*
%TD*%
D15*
%TO.P,R1,1*%
%TO.N,Net-(C1-Pad2)*%
X119200000Y-96585000D03*
%TO.P,R1,2*%
%TO.N,AUDIO*%
X119200000Y-98115000D03*
%TD*%
D16*
%TO.P,C1,1*%
%TO.N,A0*%
X120780000Y-98825000D03*
%TO.P,C1,2*%
%TO.N,Net-(C1-Pad2)*%
X122340000Y-98825000D03*
%TD*%
D10*
%TO.P,J3,1,Pin_1*%
%TO.N,LED1*%
X165755000Y-112000000D03*
D11*
%TO.P,J3,2,Pin_2*%
%TO.N,LED2*%
X165755000Y-109460000D03*
%TO.P,J3,3,Pin_3*%
%TO.N,LED3*%
X165755000Y-106920000D03*
%TO.P,J3,4,Pin_4*%
%TO.N,LED4*%
X165755000Y-104380000D03*
%TO.P,J3,5,Pin_5*%
%TO.N,LED5*%
X165755000Y-101840000D03*
%TO.P,J3,6,Pin_6*%
%TO.N,+3V3*%
X165755000Y-99300000D03*
%TO.P,J3,7,Pin_7*%
X165755000Y-96760000D03*
%TO.P,J3,8,Pin_8*%
X165755000Y-94220000D03*
%TO.P,J3,9,Pin_9*%
X165755000Y-91680000D03*
%TO.P,J3,10,Pin_10*%
X165755000Y-89140000D03*
%TD*%
D17*
%TO.P,J1,4_2*%
%TO.N,/TIP 2*%
X125300000Y-110800000D03*
%TO.P,J1,4_1*%
%TO.N,/TIP 1*%
X118700000Y-110800000D03*
%TO.P,J1,3*%
%TO.N,GND*%
X124850000Y-102800000D03*
%TO.P,J1,2*%
%TO.N,AUDIO*%
X119150000Y-102800000D03*
D18*
%TO.P,J1,1*%
%TO.N,GND*%
X122000000Y-102000000D03*
%TD*%
D19*
%TO.P,U1,1,GND*%
%TO.N,GND*%
X161625000Y-97230000D03*
%TO.P,U1,2,0_RX1_CRX2_CS1*%
%TO.N,CS*%
X159085000Y-97230000D03*
%TO.P,U1,3,1_TX1_CTX2_MISO1*%
%TO.N,RST*%
X156545000Y-97230000D03*
%TO.P,U1,4,2_OUT2*%
%TO.N,LED1*%
X154005000Y-97230000D03*
%TO.P,U1,5,3_LRCLK2*%
%TO.N,LED2*%
X151465000Y-97230000D03*
%TO.P,U1,6,4_BCLK2*%
%TO.N,LED3*%
X148925000Y-97230000D03*
%TO.P,U1,7,5_IN2*%
%TO.N,LED4*%
X146385000Y-97230000D03*
%TO.P,U1,8,6_OUT1D*%
%TO.N,LED5*%
X143845000Y-97230000D03*
%TO.P,U1,9,7_RX2_OUT1A*%
%TO.N,unconnected-(U1-7_RX2_OUT1A-Pad9)*%
X141305000Y-97230000D03*
%TO.P,U1,10,8_TX2_IN1*%
%TO.N,unconnected-(U1-8_TX2_IN1-Pad10)*%
X138765000Y-97230000D03*
%TO.P,U1,11,9_OUT1C*%
%TO.N,unconnected-(U1-9_OUT1C-Pad11)*%
X136225000Y-97230000D03*
%TO.P,U1,12,10_CS_MQSR*%
%TO.N,unconnected-(U1-10_CS_MQSR-Pad12)*%
X133685000Y-97230000D03*
%TO.P,U1,13,11_MOSI_CTX1*%
%TO.N,MOSI*%
X131145000Y-97230000D03*
%TO.P,U1,14,12_MISO_MQSL*%
%TO.N,MISO*%
X128605000Y-97230000D03*
%TO.P,U1,15,VBAT*%
%TO.N,unconnected-(U1-VBAT-Pad15)*%
X128605000Y-99770000D03*
%TO.P,U1,16,3V3*%
%TO.N,+3V3*%
X128605000Y-102310000D03*
%TO.P,U1,17,GND*%
%TO.N,GND*%
X128605000Y-104850000D03*
%TO.P,U1,18,PROGRAM*%
%TO.N,unconnected-(U1-PROGRAM-Pad18)*%
X128605000Y-107390000D03*
%TO.P,U1,19,ON_OFF*%
%TO.N,unconnected-(U1-ON_OFF-Pad19)*%
X128605000Y-109930000D03*
%TO.P,U1,20,13_SCK_CRX1_LED*%
%TO.N,SCK*%
X128605000Y-112470000D03*
%TO.P,U1,21,14_A0_TX3_SPDIF_OUT*%
%TO.N,A0*%
X131145000Y-112470000D03*
%TO.P,U1,22,15_A1_RX3_SPDIF_IN*%
%TO.N,unconnected-(U1-15_A1_RX3_SPDIF_IN-Pad22)*%
X133685000Y-112470000D03*
%TO.P,U1,23,16_A2_RX4_SCL1*%
%TO.N,unconnected-(U1-16_A2_RX4_SCL1-Pad23)*%
X136225000Y-112470000D03*
%TO.P,U1,24,17_A3_TX4_SDA1*%
%TO.N,unconnected-(U1-17_A3_TX4_SDA1-Pad24)*%
X138765000Y-112470000D03*
%TO.P,U1,25,18_A4_SDA0*%
%TO.N,unconnected-(U1-18_A4_SDA0-Pad25)*%
X141305000Y-112470000D03*
%TO.P,U1,26,19_A5_SCL0*%
%TO.N,unconnected-(U1-19_A5_SCL0-Pad26)*%
X143845000Y-112470000D03*
%TO.P,U1,27,20_A6_TX5_LRCLK1*%
%TO.N,unconnected-(U1-20_A6_TX5_LRCLK1-Pad27)*%
X146385000Y-112470000D03*
%TO.P,U1,28,21_A7_RX5_BCLK1*%
%TO.N,unconnected-(U1-21_A7_RX5_BCLK1-Pad28)*%
X148925000Y-112470000D03*
%TO.P,U1,29,22_A8_CTX1*%
%TO.N,unconnected-(U1-22_A8_CTX1-Pad29)*%
X151465000Y-112470000D03*
%TO.P,U1,30,23_A9_CRX1_MCLK1*%
%TO.N,unconnected-(U1-23_A9_CRX1_MCLK1-Pad30)*%
X154005000Y-112470000D03*
%TO.P,U1,31,3V3*%
%TO.N,+3V3*%
X156545000Y-112470000D03*
%TO.P,U1,32,GND*%
%TO.N,GND*%
X159085000Y-112470000D03*
%TO.P,U1,33,VIN*%
%TO.N,unconnected-(U1-VIN-Pad33)*%
X161625000Y-112470000D03*
%TO.P,U1,34,VUSB*%
%TO.N,unconnected-(U1-VUSB-Pad34)*%
X159085000Y-109930000D03*
%TO.P,U1,35,24_A10_TX6_SCL2*%
%TO.N,unconnected-(U1-24_A10_TX6_SCL2-Pad35)*%
X133685000Y-109930000D03*
%TO.P,U1,36,25_A11_RX6_SDA2*%
%TO.N,unconnected-(U1-25_A11_RX6_SDA2-Pad36)*%
X136225000Y-109930000D03*
%TO.P,U1,37,26_A12_MOSI1*%
%TO.N,unconnected-(U1-26_A12_MOSI1-Pad37)*%
X133685000Y-107390000D03*
%TO.P,U1,38,27_A13_SCK1*%
%TO.N,unconnected-(U1-27_A13_SCK1-Pad38)*%
X136225000Y-107390000D03*
%TO.P,U1,39,28_RX7*%
%TO.N,unconnected-(U1-28_RX7-Pad39)*%
X133685000Y-104850000D03*
%TO.P,U1,40,29_TX7*%
%TO.N,unconnected-(U1-29_TX7-Pad40)*%
X136225000Y-104850000D03*
%TO.P,U1,41,30_CRX3*%
%TO.N,unconnected-(U1-30_CRX3-Pad41)*%
X133685000Y-102310000D03*
%TO.P,U1,42,31_CTX3*%
%TO.N,unconnected-(U1-31_CTX3-Pad42)*%
X136225000Y-102310000D03*
%TO.P,U1,43,32_OUT1B*%
%TO.N,unconnected-(U1-32_OUT1B-Pad43)*%
X133685000Y-99770000D03*
%TO.P,U1,44,33_MCLK2*%
%TO.N,unconnected-(U1-33_MCLK2-Pad44)*%
X136225000Y-99770000D03*
%TD*%
D20*
%TO.N,GND*%
X121000000Y-103400000D03*
X126200000Y-101800000D03*
X163850000Y-112600000D03*
X124850000Y-105400000D03*
X120795000Y-96650000D03*
X124085000Y-96650000D03*
%TO.N,+3V3*%
X130350000Y-109550000D03*
X131950000Y-110400000D03*
X132500000Y-114200000D03*
%TO.N,GND*%
X159000000Y-114950000D03*
%TO.N,LED3*%
X150800000Y-106220000D03*
%TO.N,LED4*%
X146400000Y-100850000D03*
%TO.N,A0*%
X127000000Y-98500000D03*
%TO.N,LED2*%
X148937500Y-107968700D03*
%TD*%
D21*
%TO.N,LED3*%
X114845000Y-106920000D02*
X127447240Y-106920000D01*
X128147240Y-106220000D02*
X150800000Y-106220000D01*
X127447240Y-106920000D02*
X128147240Y-106220000D01*
%TO.N,GND*%
X128605000Y-104850000D02*
X128055000Y-105400000D01*
X128055000Y-105400000D02*
X124850000Y-105400000D01*
%TO.N,LED4*%
X114845000Y-104380000D02*
X115695000Y-105230000D01*
X124550000Y-104600000D02*
X127227240Y-104600000D01*
X128128240Y-103699000D02*
X143551000Y-103699000D01*
X115695000Y-105230000D02*
X120371530Y-105230000D01*
X120371530Y-105230000D02*
X121502530Y-104099000D01*
X121502530Y-104099000D02*
X124049000Y-104099000D01*
X127227240Y-104600000D02*
X128128240Y-103699000D01*
X124049000Y-104099000D02*
X124550000Y-104600000D01*
X143551000Y-103699000D02*
X146400000Y-100850000D01*
%TO.N,LED5*%
X143845000Y-97230000D02*
X140080000Y-100995000D01*
X117464000Y-104459000D02*
X114845000Y-101840000D01*
X140080000Y-100995000D02*
X120889715Y-100995000D01*
X120155000Y-103870285D02*
X119566285Y-104459000D01*
X120889715Y-100995000D02*
X120155000Y-101729715D01*
X119566285Y-104459000D02*
X117464000Y-104459000D01*
X120155000Y-101729715D02*
X120155000Y-103870285D01*
%TO.N,LED1*%
X115996700Y-112000000D02*
X117497700Y-113501000D01*
X124982700Y-113501000D02*
X127183700Y-111300000D01*
X127183700Y-111300000D02*
X163903300Y-111300000D01*
X117497700Y-113501000D02*
X124982700Y-113501000D01*
X114845000Y-112000000D02*
X115996700Y-112000000D01*
X163903300Y-111300000D02*
X164603300Y-112000000D01*
X164603300Y-112000000D02*
X165755000Y-112000000D01*
%TO.N,Net-(C1-Pad2)*%
X122365000Y-96650000D02*
X122365000Y-98800000D01*
X122365000Y-98800000D02*
X122340000Y-98825000D01*
X119200000Y-96585000D02*
X120100000Y-97485000D01*
X120100000Y-97485000D02*
X121000000Y-97485000D01*
X121000000Y-97485000D02*
X122340000Y-98825000D01*
%TO.N,+3V3*%
X114845000Y-94220000D02*
X121850394Y-94220000D01*
X121850394Y-94220000D02*
X123439394Y-95809000D01*
X123304000Y-96220394D02*
X123304000Y-95944394D01*
X123304000Y-95944394D02*
X123439394Y-95809000D01*
X123439394Y-95809000D02*
X126073300Y-95809000D01*
X126073300Y-95809000D02*
X129632300Y-92250000D01*
X124085000Y-98800000D02*
X123304000Y-98019000D01*
X123304000Y-98019000D02*
X123304000Y-96220394D01*
%TO.N,AUDIO*%
X119200000Y-98115000D02*
X119200000Y-102750000D01*
X119200000Y-102750000D02*
X119150000Y-102800000D01*
%TO.N,+3V3*%
X131950000Y-110400000D02*
X131200000Y-110400000D01*
X131200000Y-110400000D02*
X130350000Y-109550000D01*
X154815000Y-114200000D02*
X132500000Y-114200000D01*
X156545000Y-112470000D02*
X154815000Y-114200000D01*
%TO.N,LED2*%
X114845000Y-109460000D02*
X115695000Y-108610000D01*
X148923300Y-108610000D02*
X148937500Y-108624200D01*
X115695000Y-108610000D02*
X148923300Y-108610000D01*
%TO.N,+3V3*%
X165755000Y-96760000D02*
X165755000Y-99300000D01*
X165755000Y-94220000D02*
X165755000Y-96760000D01*
X165755000Y-91680000D02*
X165755000Y-94220000D01*
X165755000Y-89140000D02*
X165755000Y-91680000D01*
X114845000Y-96760000D02*
X114845000Y-99300000D01*
X114845000Y-91680000D02*
X114845000Y-94220000D01*
X114845000Y-89140000D02*
X114845000Y-91680000D01*
X114845000Y-94220000D02*
X114845000Y-96760000D01*
%TO.N,GND*%
X159085000Y-112470000D02*
X159085000Y-114865000D01*
X159085000Y-114865000D02*
X159000000Y-114950000D01*
%TO.N,LED3*%
X150800000Y-106220000D02*
X165055000Y-106220000D01*
%TO.N,CS*%
X159085000Y-97230000D02*
X157934000Y-98381000D01*
X157934000Y-98381000D02*
X153528240Y-98381000D01*
X153528240Y-98381000D02*
X152750000Y-97602760D01*
X152750000Y-97602760D02*
X152750000Y-96887240D01*
X152750000Y-96887240D02*
X150485760Y-94623000D01*
X150485760Y-94623000D02*
X147789000Y-94623000D01*
X147789000Y-94623000D02*
X145416000Y-92250000D01*
%TO.N,LED4*%
X149930000Y-104380000D02*
X146400000Y-100850000D01*
X165755000Y-104380000D02*
X149930000Y-104380000D01*
%TO.N,A0*%
X120780000Y-98825000D02*
X121596000Y-99641000D01*
X121596000Y-99641000D02*
X124774000Y-99641000D01*
X124774000Y-99641000D02*
X125615000Y-98800000D01*
X125615000Y-98800000D02*
X126700000Y-98800000D01*
X126700000Y-98800000D02*
X127000000Y-98500000D01*
%TO.N,MISO*%
X128605000Y-97230000D02*
X132384000Y-93451000D01*
X132384000Y-93451000D02*
X140833471Y-93451000D01*
X140833471Y-93451000D02*
X141650000Y-92634471D01*
X141650000Y-92634471D02*
X141650000Y-91777529D01*
X141650000Y-91777529D02*
X142378529Y-91049000D01*
X142378529Y-91049000D02*
X149295000Y-91049000D01*
X149295000Y-91049000D02*
X150496000Y-92250000D01*
%TO.N,LED3*%
X165055000Y-106220000D02*
X165755000Y-106920000D01*
%TO.N,LED5*%
X148455000Y-101840000D02*
X143845000Y-97230000D01*
X165755000Y-101840000D02*
X148455000Y-101840000D01*
%TO.N,LED2*%
X148937500Y-108624200D02*
X148937500Y-107968700D01*
X164919200Y-108624200D02*
X165755000Y-109460000D01*
X148937500Y-108624200D02*
X164919200Y-108624200D01*
%TO.N,RST*%
X149878000Y-94172000D02*
X147956000Y-92250000D01*
X153487000Y-94172000D02*
X149878000Y-94172000D01*
X156545000Y-97230000D02*
X153487000Y-94172000D01*
%TO.N,MOSI*%
X140981000Y-94145000D02*
X142876000Y-92250000D01*
X134230000Y-94145000D02*
X140981000Y-94145000D01*
X131145000Y-97230000D02*
X134230000Y-94145000D01*
%TO.N,+3V3*%
X135256000Y-92250000D02*
X129632300Y-92250000D01*
%TO.N,A0*%
X125615000Y-96650000D02*
X125615000Y-98800000D01*
%TO.N,Net-(C1-Pad2)*%
X122043400Y-98825000D02*
X122043400Y-98824900D01*
%TD*%
%TA.AperFunction,Conductor*%
%TO.N,GND*%
G36*
X163670242Y-111920185D02*
G01*
X163690884Y-111936819D01*
X164118439Y-112364374D01*
X164118449Y-112364385D01*
X164122779Y-112368715D01*
X164122780Y-112368716D01*
X164234584Y-112480520D01*
X164234586Y-112480521D01*
X164234590Y-112480524D01*
X164342499Y-112542825D01*
X164390715Y-112593391D01*
X164404500Y-112650212D01*
X164404500Y-112897869D01*
X164404501Y-112897876D01*
X164410908Y-112957483D01*
X164461202Y-113092328D01*
X164461206Y-113092335D01*
X164547452Y-113207544D01*
X164547455Y-113207547D01*
X164662664Y-113293793D01*
X164662671Y-113293797D01*
X164797517Y-113344091D01*
X164797516Y-113344091D01*
X164804444Y-113344835D01*
X164857127Y-113350500D01*
X166652872Y-113350499D01*
X166712483Y-113344091D01*
X166847331Y-113293796D01*
X166851185Y-113290910D01*
X166863808Y-113286201D01*
X166873989Y-113277380D01*
X166895900Y-113274229D01*
X166916647Y-113266490D01*
X166929812Y-113269353D01*
X166943147Y-113267436D01*
X166963287Y-113276633D01*
X166984921Y-113281339D01*
X166994447Y-113290863D01*
X167006703Y-113296461D01*
X167018673Y-113315087D01*
X167034329Y-113330741D01*
X167038016Y-113345185D01*
X167044477Y-113355239D01*
X167049500Y-113390174D01*
X167049500Y-113502756D01*
X167029815Y-113569795D01*
X167003696Y-113598991D01*
X159406470Y-119771739D01*
X159342029Y-119798735D01*
X159328279Y-119799500D01*
X121271721Y-119799500D01*
X121204682Y-119779815D01*
X121193539Y-119771747D01*
X113596305Y-113598992D01*
X113595150Y-113597315D01*
X113593297Y-113596469D01*
X113575430Y-113568668D01*
X113556689Y-113541442D01*
X113556276Y-113538863D01*
X113555523Y-113537691D01*
X113550500Y-113502756D01*
X113550500Y-113390174D01*
X113570185Y-113323135D01*
X113622989Y-113277380D01*
X113692147Y-113267436D01*
X113748814Y-113290910D01*
X113752669Y-113293796D01*
X113752670Y-113293796D01*
X113752671Y-113293797D01*
X113887517Y-113344091D01*
X113887516Y-113344091D01*
X113894444Y-113344835D01*
X113947127Y-113350500D01*
X115742872Y-113350499D01*
X115802483Y-113344091D01*
X115937331Y-113293796D01*
X116052546Y-113207546D01*
X116096278Y-113149127D01*
X116152210Y-113107258D01*
X116221901Y-113102274D01*
X116283223Y-113135758D01*
X117128984Y-113981520D01*
X117128986Y-113981521D01*
X117128990Y-113981524D01*
X117265909Y-114060573D01*
X117265912Y-114060575D01*
X117265916Y-114060577D01*
X117418643Y-114101501D01*
X117418645Y-114101501D01*
X117584354Y-114101501D01*
X117584370Y-114101500D01*
X124896031Y-114101500D01*
X124896047Y-114101501D01*
X124903643Y-114101501D01*
X125061754Y-114101501D01*
X125061757Y-114101501D01*
X125214485Y-114060577D01*
X125301643Y-114010256D01*
X125351416Y-113981520D01*
X125463220Y-113869716D01*
X125463220Y-113869714D01*
X125473424Y-113859511D01*
X125473427Y-113859506D01*
X127098483Y-112234451D01*
X127159805Y-112200967D01*
X127229497Y-112205951D01*
X127285430Y-112247823D01*
X127309847Y-112313287D01*
X127308636Y-112341528D01*
X127304500Y-112367648D01*
X127304500Y-112572352D01*
X127307832Y-112593391D01*
X127336522Y-112774534D01*
X127399781Y-112969223D01*
X127461547Y-113090443D01*
X127492585Y-113151359D01*
X127492715Y-113151613D01*
X127613028Y-113317213D01*
X127757786Y-113461971D01*
X127867171Y-113541442D01*
X127923390Y-113582287D01*
X128039607Y-113641503D01*
X128105776Y-113675218D01*
X128105778Y-113675218D01*
X128105781Y-113675220D01*
X128150380Y-113689711D01*
X128300465Y-113738477D01*
X128401557Y-113754488D01*
X128502648Y-113770500D01*
X128502649Y-113770500D01*
X128707351Y-113770500D01*
X128707352Y-113770500D01*
X128909534Y-113738477D01*
X129104219Y-113675220D01*
X129286610Y-113582287D01*
X129396076Y-113502756D01*
X129452213Y-113461971D01*
X129452215Y-113461968D01*
X129452219Y-113461966D01*
X129596966Y-113317219D01*
X129596968Y-113317215D01*
X129596971Y-113317213D01*
X129717284Y-113151614D01*
X129717286Y-113151611D01*
X129717287Y-113151610D01*
X129764516Y-113058917D01*
X129812489Y-113008123D01*
X129880310Y-112991328D01*
X129946445Y-113013865D01*
X129985483Y-113058917D01*
X130029348Y-113145006D01*
X130032715Y-113151614D01*
X130153028Y-113317213D01*
X130297786Y-113461971D01*
X130407171Y-113541442D01*
X130463390Y-113582287D01*
X130579607Y-113641503D01*
X130645776Y-113675218D01*
X130645778Y-113675218D01*
X130645781Y-113675220D01*
X130690380Y-113689711D01*
X130840465Y-113738477D01*
X130941557Y-113754488D01*
X131042648Y-113770500D01*
X131042649Y-113770500D01*
X131247351Y-113770500D01*
X131247352Y-113770500D01*
X131449534Y-113738477D01*
X131627252Y-113680732D01*
X131697088Y-113678737D01*
X131756921Y-113714817D01*
X131787750Y-113777518D01*
X131780128Y-113846115D01*
X131730263Y-113966503D01*
X131730261Y-113966510D01*
X131699500Y-114121153D01*
X131699500Y-114278846D01*
X131730261Y-114433489D01*
X131730264Y-114433501D01*
X131790602Y-114579172D01*
X131790609Y-114579185D01*
X131878210Y-114710288D01*
X131878213Y-114710292D01*
X131989707Y-114821786D01*
X131989711Y-114821789D01*
X132120814Y-114909390D01*
X132120827Y-114909397D01*
X132266498Y-114969735D01*
X132266503Y-114969737D01*
X132421153Y-115000499D01*
X132421156Y-115000500D01*
X132421158Y-115000500D01*
X132578844Y-115000500D01*
X132578845Y-115000499D01*
X132733497Y-114969737D01*
X132879179Y-114909394D01*
X132879185Y-114909390D01*
X133010875Y-114821398D01*
X133077553Y-114800520D01*
X133079766Y-114800500D01*
X154728331Y-114800500D01*
X154728347Y-114800501D01*
X154735943Y-114800501D01*
X154894054Y-114800501D01*
X154894057Y-114800501D01*
X155046785Y-114759577D01*
X155096904Y-114730639D01*
X155183716Y-114680520D01*
X155295520Y-114568716D01*
X155295520Y-114568714D01*
X155305728Y-114558507D01*
X155305730Y-114558504D01*
X156100158Y-113764075D01*
X156161479Y-113730592D01*
X156226151Y-113733825D01*
X156240466Y-113738477D01*
X156442648Y-113770500D01*
X156442649Y-113770500D01*
X156647351Y-113770500D01*
X156647352Y-113770500D01*
X156849534Y-113738477D01*
X157044219Y-113675220D01*
X157226610Y-113582287D01*
X157336076Y-113502756D01*
X157392213Y-113461971D01*
X157392215Y-113461968D01*
X157392219Y-113461966D01*
X157536966Y-113317219D01*
X157536968Y-113317215D01*
X157536971Y-113317213D01*
X157657286Y-113151611D01*
X157657415Y-113151359D01*
X157704795Y-113058369D01*
X157752769Y-113007573D01*
X157820590Y-112990778D01*
X157886725Y-113013315D01*
X157925765Y-113058369D01*
X157973141Y-113151350D01*
X157973147Y-113151359D01*
X158005523Y-113195921D01*
X158005524Y-113195922D01*
X158561212Y-112640233D01*
X158572482Y-112682292D01*
X158644890Y-112807708D01*
X158747292Y-112910110D01*
X158872708Y-112982518D01*
X158914765Y-112993787D01*
X158359076Y-113549474D01*
X158403650Y-113581859D01*
X158585968Y-113674755D01*
X158780582Y-113737990D01*
X158982683Y-113770000D01*
X159187317Y-113770000D01*
X159389417Y-113737990D01*
X159584031Y-113674755D01*
X159766349Y-113581859D01*
X159810921Y-113549474D01*
X159255234Y-112993787D01*
X159297292Y-112982518D01*
X159422708Y-112910110D01*
X159525110Y-112807708D01*
X159597518Y-112682292D01*
X159608787Y-112640234D01*
X160164474Y-113195921D01*
X160196861Y-113151347D01*
X160196861Y-113151346D01*
X160244234Y-113058371D01*
X160292208Y-113007575D01*
X160360028Y-112990779D01*
X160426164Y-113013316D01*
X160465203Y-113058369D01*
X160512713Y-113151611D01*
X160633028Y-113317213D01*
X160777786Y-113461971D01*
X160887171Y-113541442D01*
X160943390Y-113582287D01*
X161059607Y-113641503D01*
X161125776Y-113675218D01*
X161125778Y-113675218D01*
X161125781Y-113675220D01*
X161170380Y-113689711D01*
X161320465Y-113738477D01*
X161421557Y-113754488D01*
X161522648Y-113770500D01*
X161522649Y-113770500D01*
X161727351Y-113770500D01*
X161727352Y-113770500D01*
X161929534Y-113738477D01*
X162124219Y-113675220D01*
X162306610Y-113582287D01*
X162416076Y-113502756D01*
X162472213Y-113461971D01*
X162472215Y-113461968D01*
X162472219Y-113461966D01*
X162616966Y-113317219D01*
X162616968Y-113317215D01*
X162616971Y-113317213D01*
X162696646Y-113207548D01*
X162737287Y-113151610D01*
X162830220Y-112969219D01*
X162893477Y-112774534D01*
X162925500Y-112572352D01*
X162925500Y-112367648D01*
X162893477Y-112165466D01*
X162893476Y-112165462D01*
X162893476Y-112165461D01*
X162860125Y-112062818D01*
X162858130Y-111992977D01*
X162894210Y-111933144D01*
X162956911Y-111902316D01*
X162978056Y-111900500D01*
X163603203Y-111900500D01*
X163670242Y-111920185D01*
G37*
%TD.AperFunction*%
%TA.AperFunction,Conductor*%
G36*
X123815942Y-104719185D02*
G01*
X123836584Y-104735819D01*
X124065139Y-104964374D01*
X124065149Y-104964385D01*
X124069479Y-104968715D01*
X124069480Y-104968716D01*
X124181284Y-105080520D01*
X124268095Y-105130639D01*
X124268097Y-105130641D01*
X124306151Y-105152611D01*
X124318215Y-105159577D01*
X124470943Y-105200501D01*
X124470946Y-105200501D01*
X124636653Y-105200501D01*
X124636669Y-105200500D01*
X127140572Y-105200500D01*
X127148179Y-105200500D01*
X127148183Y-105200501D01*
X127261894Y-105200501D01*
X127328933Y-105220186D01*
X127374688Y-105272990D01*
X127374688Y-105272994D01*
X127379824Y-105286183D01*
X127400244Y-105349029D01*
X127493141Y-105531350D01*
X127493147Y-105531359D01*
X127525523Y-105575921D01*
X127525524Y-105575922D01*
X128081212Y-105020233D01*
X128092482Y-105062292D01*
X128164890Y-105187708D01*
X128267292Y-105290110D01*
X128392708Y-105362518D01*
X128434765Y-105373787D01*
X128225372Y-105583181D01*
X128164049Y-105616666D01*
X128137691Y-105619500D01*
X128068180Y-105619500D01*
X128027259Y-105630464D01*
X128027259Y-105630465D01*
X127994324Y-105639290D01*
X127915454Y-105660423D01*
X127915449Y-105660426D01*
X127778530Y-105739475D01*
X127778522Y-105739481D01*
X127666718Y-105851286D01*
X127234824Y-106283181D01*
X127173501Y-106316666D01*
X127147143Y-106319500D01*
X122836204Y-106319500D01*
X122769165Y-106299815D01*
X122723410Y-106247011D01*
X122713466Y-106177853D01*
X122742491Y-106114297D01*
X122748523Y-106107819D01*
X122766819Y-106089523D01*
X122839414Y-106016928D01*
X122941232Y-105876788D01*
X123019873Y-105722445D01*
X123073402Y-105557701D01*
X123100500Y-105386611D01*
X123100500Y-105213389D01*
X123073402Y-105042299D01*
X123019873Y-104877555D01*
X123019871Y-104877552D01*
X123019870Y-104877547D01*
X123018006Y-104873046D01*
X123019626Y-104872374D01*
X123008116Y-104811148D01*
X123034380Y-104746403D01*
X123091479Y-104706136D01*
X123131499Y-104699500D01*
X123748903Y-104699500D01*
X123815942Y-104719185D01*
G37*
%TD.AperFunction*%
%TA.AperFunction,Conductor*%
G36*
X127374160Y-101615185D02*
G01*
X127419915Y-101667989D01*
X127429859Y-101737147D01*
X127417606Y-101775795D01*
X127399782Y-101810776D01*
X127336522Y-102005465D01*
X127304500Y-102207648D01*
X127304500Y-102412351D01*
X127336522Y-102614534D01*
X127399781Y-102809223D01*
X127430805Y-102870109D01*
X127475003Y-102956853D01*
X127492715Y-102991613D01*
X127613028Y-103157213D01*
X127629228Y-103173413D01*
X127662713Y-103234736D01*
X127657729Y-103304428D01*
X127629228Y-103348775D01*
X127014824Y-103963181D01*
X126953501Y-103996666D01*
X126927143Y-103999500D01*
X126056814Y-103999500D01*
X125989775Y-103979815D01*
X125944020Y-103927011D01*
X125934076Y-103857853D01*
X125938883Y-103837182D01*
X125975584Y-103724226D01*
X125975584Y-103724225D01*
X126004000Y-103544821D01*
X126004000Y-103050000D01*
X125250000Y-103050000D01*
X125250000Y-102550000D01*
X126004000Y-102550000D01*
X126004000Y-102055178D01*
X125975584Y-101875774D01*
X125937258Y-101757818D01*
X125935263Y-101687977D01*
X125971343Y-101628144D01*
X126034044Y-101597316D01*
X126055189Y-101595500D01*
X127307121Y-101595500D01*
X127374160Y-101615185D01*
G37*
%TD.AperFunction*%
%TA.AperFunction,Conductor*%
G36*
X121617336Y-94840185D02*
G01*
X121637978Y-94856819D01*
X122233978Y-95452819D01*
X122267463Y-95514142D01*
X122262479Y-95583834D01*
X122220607Y-95639767D01*
X122155143Y-95664184D01*
X122146298Y-95664500D01*
X121965606Y-95664500D01*
X121965584Y-95664501D01*
X121930847Y-95667234D01*
X121929126Y-95667734D01*
X121782113Y-95710445D01*
X121782111Y-95710445D01*
X121782111Y-95710446D01*
X121642629Y-95792935D01*
X121574905Y-95810118D01*
X121516387Y-95792935D01*
X121377684Y-95710907D01*
X121377681Y-95710906D01*
X121229084Y-95667734D01*
X121229073Y-95667732D01*
X121194359Y-95665000D01*
X121045000Y-95665000D01*
X121045000Y-96526000D01*
X121025315Y-96593039D01*
X120972511Y-96638794D01*
X120921000Y-96650000D01*
X120669000Y-96650000D01*
X120601961Y-96630315D01*
X120556206Y-96577511D01*
X120545000Y-96526000D01*
X120545000Y-95665000D01*
X120395659Y-95665000D01*
X120395635Y-95665001D01*
X120360921Y-95667733D01*
X120212318Y-95710906D01*
X120212317Y-95710906D01*
X120126883Y-95761431D01*
X120059159Y-95778612D01*
X119992896Y-95756452D01*
X119989452Y-95753965D01*
X119932330Y-95711203D01*
X119932328Y-95711202D01*
X119797482Y-95660908D01*
X119797483Y-95660908D01*
X119737883Y-95654501D01*
X119737881Y-95654500D01*
X119737873Y-95654500D01*
X119737864Y-95654500D01*
X118662129Y-95654500D01*
X118662123Y-95654501D01*
X118602516Y-95660908D01*
X118467671Y-95711202D01*
X118467664Y-95711206D01*
X118352455Y-95797452D01*
X118352452Y-95797455D01*
X118266206Y-95912664D01*
X118266202Y-95912671D01*
X118215908Y-96047517D01*
X118209501Y-96107116D01*
X118209500Y-96107135D01*
X118209500Y-97062870D01*
X118209501Y-97062876D01*
X118215908Y-97122483D01*
X118266202Y-97257328D01*
X118266205Y-97257334D01*
X118279947Y-97275691D01*
X118304363Y-97341156D01*
X118289510Y-97409429D01*
X118279947Y-97424309D01*
X118266205Y-97442665D01*
X118266202Y-97442671D01*
X118215908Y-97577517D01*
X118209501Y-97637116D01*
X118209500Y-97637135D01*
X118209500Y-98592870D01*
X118209501Y-98592876D01*
X118215908Y-98652483D01*
X118266202Y-98787328D01*
X118266206Y-98787335D01*
X118352451Y-98902543D01*
X118352454Y-98902546D01*
X118467666Y-98988794D01*
X118467667Y-98988794D01*
X118467669Y-98988796D01*
X118518833Y-99007878D01*
X118574766Y-99049748D01*
X118599184Y-99115212D01*
X118599500Y-99124060D01*
X118599500Y-101055739D01*
X118579815Y-101122778D01*
X118548386Y-101156057D01*
X118397892Y-101265398D01*
X118269399Y-101393891D01*
X118269399Y-101393892D01*
X118269397Y-101393894D01*
X118225907Y-101453752D01*
X118162583Y-101540909D01*
X118080083Y-101702825D01*
X118080081Y-101702828D01*
X118023928Y-101875649D01*
X118023928Y-101875652D01*
X118002458Y-102011206D01*
X117995500Y-102055139D01*
X117995500Y-103544861D01*
X118019665Y-103697432D01*
X118022464Y-103715102D01*
X118020068Y-103733642D01*
X118022729Y-103752147D01*
X118015683Y-103767574D01*
X118013510Y-103784395D01*
X118001470Y-103798696D01*
X117993704Y-103815703D01*
X117979434Y-103824873D01*
X117968513Y-103837847D01*
X117950654Y-103843369D01*
X117934926Y-103853477D01*
X117903222Y-103858035D01*
X117901762Y-103858487D01*
X117899991Y-103858500D01*
X117764097Y-103858500D01*
X117697058Y-103838815D01*
X117676416Y-103822181D01*
X116178757Y-102324522D01*
X116145272Y-102263199D01*
X116148507Y-102198523D01*
X116162246Y-102156243D01*
X116195500Y-101946287D01*
X116195500Y-101733713D01*
X116162246Y-101523757D01*
X116096557Y-101321588D01*
X116000051Y-101132184D01*
X116000049Y-101132181D01*
X116000048Y-101132179D01*
X115875109Y-100960213D01*
X115724786Y-100809890D01*
X115552820Y-100684951D01*
X115552115Y-100684591D01*
X115544054Y-100680485D01*
X115493259Y-100632512D01*
X115476463Y-100564692D01*
X115498999Y-100498556D01*
X115544054Y-100459515D01*
X115552816Y-100455051D01*
X115636158Y-100394500D01*
X115724786Y-100330109D01*
X115724788Y-100330106D01*
X115724792Y-100330104D01*
X115875104Y-100179792D01*
X115875106Y-100179788D01*
X115875109Y-100179786D01*
X115984086Y-100029789D01*
X116000051Y-100007816D01*
X116096557Y-99818412D01*
X116162246Y-99616243D01*
X116195500Y-99406287D01*
X116195500Y-99193713D01*
X116162246Y-98983757D01*
X116096557Y-98781588D01*
X116000051Y-98592184D01*
X116000049Y-98592181D01*
X116000048Y-98592179D01*
X115875109Y-98420213D01*
X115724786Y-98269890D01*
X115552820Y-98144951D01*
X115552205Y-98144637D01*
X115544054Y-98140484D01*
X115493259Y-98092512D01*
X115476463Y-98024692D01*
X115498999Y-97958556D01*
X115544054Y-97919515D01*
X115552816Y-97915051D01*
X115578943Y-97896069D01*
X115724786Y-97790109D01*
X115724788Y-97790106D01*
X115724792Y-97790104D01*
X115875104Y-97639792D01*
X115875106Y-97639788D01*
X115875109Y-97639786D01*
X116000048Y-97467820D01*
X116000047Y-97467820D01*
X116000051Y-97467816D01*
X116096557Y-97278412D01*
X116162246Y-97076243D01*
X116195500Y-96866287D01*
X116195500Y-96653713D01*
X116162246Y-96443757D01*
X116096557Y-96241588D01*
X116000051Y-96052184D01*
X116000049Y-96052181D01*
X116000048Y-96052179D01*
X115875109Y-95880213D01*
X115724786Y-95729890D01*
X115552820Y-95604951D01*
X115552205Y-95604637D01*
X115544054Y-95600484D01*
X115493259Y-95552512D01*
X115476463Y-95484692D01*
X115498999Y-95418556D01*
X115544054Y-95379515D01*
X115552816Y-95375051D01*
X115574789Y-95359086D01*
X115724786Y-95250109D01*
X115724788Y-95250106D01*
X115724792Y-95250104D01*
X115875104Y-95099792D01*
X115875106Y-95099788D01*
X115875109Y-95099786D01*
X115946180Y-95001964D01*
X116000051Y-94927816D01*
X116002577Y-94922858D01*
X116020235Y-94888205D01*
X116068209Y-94837409D01*
X116130719Y-94820500D01*
X121550297Y-94820500D01*
X121617336Y-94840185D01*
G37*
%TD.AperFunction*%
%TA.AperFunction,Conductor*%
G36*
X122250000Y-103154000D02*
G01*
X122744821Y-103154000D01*
X122924225Y-103125584D01*
X123096984Y-103069451D01*
X123258828Y-102986988D01*
X123405781Y-102880219D01*
X123405782Y-102880219D01*
X123534225Y-102751776D01*
X123565999Y-102708041D01*
X123566000Y-102708040D01*
X123566000Y-102674000D01*
X123585685Y-102606961D01*
X123638489Y-102561206D01*
X123690000Y-102550000D01*
X124450000Y-102550000D01*
X124450000Y-103050000D01*
X123696000Y-103050000D01*
X123696000Y-103374500D01*
X123676315Y-103441539D01*
X123623511Y-103487294D01*
X123572000Y-103498500D01*
X121589200Y-103498500D01*
X121589184Y-103498499D01*
X121581588Y-103498499D01*
X121423473Y-103498499D01*
X121347109Y-103518961D01*
X121270744Y-103539423D01*
X121270739Y-103539426D01*
X121133820Y-103618475D01*
X121133812Y-103618481D01*
X120967181Y-103785113D01*
X120905858Y-103818598D01*
X120836166Y-103813614D01*
X120780233Y-103771742D01*
X120755816Y-103706278D01*
X120755500Y-103697432D01*
X120755500Y-103192192D01*
X120775185Y-103125153D01*
X120827989Y-103079398D01*
X120897147Y-103069454D01*
X120917819Y-103074261D01*
X121075776Y-103125584D01*
X121255179Y-103154000D01*
X121750000Y-103154000D01*
X121750000Y-102400000D01*
X122250000Y-102400000D01*
X122250000Y-103154000D01*
G37*
%TD.AperFunction*%
%TA.AperFunction,Conductor*%
G36*
X164880856Y-87859383D02*
G01*
X164911579Y-87866528D01*
X164914131Y-87869154D01*
X164917642Y-87870185D01*
X164938286Y-87894009D01*
X164960273Y-87916634D01*
X164961000Y-87920222D01*
X164963397Y-87922989D01*
X164967884Y-87954201D01*
X164974148Y-87985112D01*
X164972819Y-87988523D01*
X164973341Y-87992147D01*
X164960237Y-88020839D01*
X164948798Y-88050221D01*
X164945240Y-88053678D01*
X164944316Y-88055703D01*
X164923488Y-88074819D01*
X164875207Y-88109896D01*
X164724890Y-88260213D01*
X164599951Y-88432179D01*
X164503444Y-88621585D01*
X164437753Y-88823760D01*
X164404500Y-89033713D01*
X164404500Y-89246286D01*
X164437753Y-89456239D01*
X164503444Y-89658414D01*
X164599951Y-89847820D01*
X164724890Y-90019786D01*
X164875213Y-90170109D01*
X165047182Y-90295050D01*
X165055946Y-90299516D01*
X165106742Y-90347491D01*
X165123536Y-90415312D01*
X165100998Y-90481447D01*
X165055946Y-90520484D01*
X165047182Y-90524949D01*
X164875213Y-90649890D01*
X164724890Y-90800213D01*
X164599951Y-90972179D01*
X164503444Y-91161585D01*
X164503443Y-91161587D01*
X164503443Y-91161588D01*
X164480071Y-91233518D01*
X164437753Y-91363760D01*
X164404500Y-91573713D01*
X164404500Y-91786286D01*
X164437753Y-91996239D01*
X164503444Y-92198414D01*
X164599951Y-92387820D01*
X164724890Y-92559786D01*
X164875213Y-92710109D01*
X165047182Y-92835050D01*
X165055946Y-92839516D01*
X165106742Y-92887491D01*
X165123536Y-92955312D01*
X165100998Y-93021447D01*
X165055946Y-93060484D01*
X165047182Y-93064949D01*
X164875213Y-93189890D01*
X164724890Y-93340213D01*
X164599951Y-93512179D01*
X164503444Y-93701585D01*
X164437753Y-93903760D01*
X164404500Y-94113713D01*
X164404500Y-94326286D01*
X164434185Y-94513713D01*
X164437754Y-94536243D01*
X164496886Y-94718233D01*
X164503444Y-94738414D01*
X164599951Y-94927820D01*
X164724890Y-95099786D01*
X164875213Y-95250109D01*
X165047182Y-95375050D01*
X165055946Y-95379516D01*
X165106742Y-95427491D01*
X165123536Y-95495312D01*
X165100998Y-95561447D01*
X165055946Y-95600484D01*
X165047182Y-95604949D01*
X164875213Y-95729890D01*
X164724890Y-95880213D01*
X164599951Y-96052179D01*
X164503444Y-96241585D01*
X164437753Y-96443760D01*
X164421141Y-96548644D01*
X164404500Y-96653713D01*
X164404500Y-96866287D01*
X164437754Y-97076243D01*
X164496594Y-97257334D01*
X164503444Y-97278414D01*
X164599951Y-97467820D01*
X164724890Y-97639786D01*
X164875213Y-97790109D01*
X165047182Y-97915050D01*
X165055946Y-97919516D01*
X165106742Y-97967491D01*
X165123536Y-98035312D01*
X165100998Y-98101447D01*
X165055946Y-98140484D01*
X165047182Y-98144949D01*
X164875213Y-98269890D01*
X164724890Y-98420213D01*
X164599951Y-98592179D01*
X164503444Y-98781585D01*
X164437753Y-98983760D01*
X164404500Y-99193713D01*
X164404500Y-99406286D01*
X164435385Y-99601291D01*
X164437754Y-99616243D01*
X164500769Y-99810183D01*
X164503444Y-99818414D01*
X164599951Y-100007820D01*
X164724890Y-100179786D01*
X164875213Y-100330109D01*
X165047182Y-100455050D01*
X165055946Y-100459516D01*
X165106742Y-100507491D01*
X165123536Y-100575312D01*
X165100998Y-100641447D01*
X165055946Y-100680484D01*
X165047182Y-100684949D01*
X164875213Y-100809890D01*
X164724890Y-100960213D01*
X164599948Y-101132184D01*
X164599947Y-101132185D01*
X164579765Y-101171795D01*
X164531791Y-101222591D01*
X164469281Y-101239500D01*
X148755098Y-101239500D01*
X148688059Y-101219815D01*
X148667417Y-101203181D01*
X147463737Y-99999501D01*
X146206415Y-98742180D01*
X146172931Y-98680858D01*
X146177915Y-98611166D01*
X146219787Y-98555233D01*
X146285251Y-98530816D01*
X146294097Y-98530500D01*
X146487351Y-98530500D01*
X146487352Y-98530500D01*
X146689534Y-98498477D01*
X146884219Y-98435220D01*
X147066610Y-98342287D01*
X147159590Y-98274732D01*
X147232213Y-98221971D01*
X147232215Y-98221968D01*
X147232219Y-98221966D01*
X147376966Y-98077219D01*
X147376968Y-98077215D01*
X147376971Y-98077213D01*
X147497284Y-97911614D01*
X147497286Y-97911611D01*
X147497287Y-97911610D01*
X147544516Y-97818917D01*
X147592489Y-97768123D01*
X147660310Y-97751328D01*
X147726445Y-97773865D01*
X147765483Y-97818917D01*
X147805669Y-97897786D01*
X147812715Y-97911614D01*
X147933028Y-98077213D01*
X148077786Y-98221971D01*
X148198226Y-98309474D01*
X148243390Y-98342287D01*
X148336080Y-98389515D01*
X148425776Y-98435218D01*
X148425778Y-98435218D01*
X148425781Y-98435220D01*
X148530137Y-98469127D01*
X148620465Y-98498477D01*
X148639697Y-98501523D01*
X148822648Y-98530500D01*
X148822649Y-98530500D01*
X149027351Y-98530500D01*
X149027352Y-98530500D01*
X149229534Y-98498477D01*
X149424219Y-98435220D01*
X149606610Y-98342287D01*
X149699590Y-98274732D01*
X149772213Y-98221971D01*
X149772215Y-98221968D01*
X149772219Y-98221966D01*
X149916966Y-98077219D01*
X149916968Y-98077215D01*
X149916971Y-98077213D01*
X150037284Y-97911614D01*
X150037286Y-97911611D01*
X150037287Y-97911610D01*
X150084516Y-97818917D01*
X150132489Y-97768123D01*
X150200310Y-97751328D01*
X150266445Y-97773865D01*
X150305483Y-97818917D01*
X150345669Y-97897786D01*
X150352715Y-97911614D01*
X150473028Y-98077213D01*
X150617786Y-98221971D01*
X150738226Y-98309474D01*
X150783390Y-98342287D01*
X150876080Y-98389515D01*
X150965776Y-98435218D01*
X150965778Y-98435218D01*
X150965781Y-98435220D01*
X151070137Y-98469127D01*
X151160465Y-98498477D01*
X151179697Y-98501523D01*
X151362648Y-98530500D01*
X151362649Y-98530500D01*
X151567351Y-98530500D01*
X151567352Y-98530500D01*
X151769534Y-98498477D01*
X151964219Y-98435220D01*
X152146610Y-98342287D01*
X152239590Y-98274732D01*
X152312213Y-98221971D01*
X152312215Y-98221968D01*
X152312219Y-98221966D01*
X152328412Y-98205771D01*
X152389733Y-98172286D01*
X152459425Y-98177269D01*
X152503775Y-98205771D01*
X153159524Y-98861520D01*
X153159526Y-98861521D01*
X153159530Y-98861524D01*
X153296449Y-98940573D01*
X153296452Y-98940575D01*
X153296456Y-98940577D01*
X153449183Y-98981501D01*
X153449185Y-98981501D01*
X153614894Y-98981501D01*
X153614910Y-98981500D01*
X157847331Y-98981500D01*
X157847347Y-98981501D01*
X157854943Y-98981501D01*
X158013054Y-98981501D01*
X158013057Y-98981501D01*
X158165785Y-98940577D01*
X158231656Y-98902546D01*
X158302716Y-98861520D01*
X158414520Y-98749716D01*
X158414520Y-98749714D01*
X158424724Y-98739511D01*
X158424728Y-98739506D01*
X158640158Y-98524075D01*
X158701479Y-98490592D01*
X158766151Y-98493825D01*
X158780466Y-98498477D01*
X158780471Y-98498477D01*
X158780472Y-98498478D01*
X158799697Y-98501523D01*
X158982648Y-98530500D01*
X158982649Y-98530500D01*
X159187351Y-98530500D01*
X159187352Y-98530500D01*
X159389534Y-98498477D01*
X159584219Y-98435220D01*
X159766610Y-98342287D01*
X159859590Y-98274732D01*
X159932213Y-98221971D01*
X159932215Y-98221968D01*
X159932219Y-98221966D01*
X160076966Y-98077219D01*
X160076968Y-98077215D01*
X160076971Y-98077213D01*
X160191544Y-97919514D01*
X160197287Y-97911610D01*
X160244795Y-97818369D01*
X160292769Y-97767573D01*
X160360590Y-97750778D01*
X160426725Y-97773315D01*
X160465765Y-97818369D01*
X160513141Y-97911350D01*
X160513147Y-97911359D01*
X160545523Y-97955921D01*
X160545524Y-97955922D01*
X161101212Y-97400233D01*
X161112482Y-97442292D01*
X161184890Y-97567708D01*
X161287292Y-97670110D01*
X161412708Y-97742518D01*
X161454765Y-97753787D01*
X160899076Y-98309474D01*
X160943650Y-98341859D01*
X161125968Y-98434755D01*
X161320582Y-98497990D01*
X161522683Y-98530000D01*
X161727317Y-98530000D01*
X161929417Y-98497990D01*
X162124031Y-98434755D01*
X162306349Y-98341859D01*
X162350921Y-98309474D01*
X161795234Y-97753787D01*
X161837292Y-97742518D01*
X161962708Y-97670110D01*
X162065110Y-97567708D01*
X162137518Y-97442292D01*
X162148787Y-97400234D01*
X162704474Y-97955921D01*
X162736859Y-97911349D01*
X162829755Y-97729031D01*
X162892990Y-97534417D01*
X162925000Y-97332317D01*
X162925000Y-97127682D01*
X162892990Y-96925582D01*
X162829755Y-96730968D01*
X162736859Y-96548650D01*
X162704474Y-96504077D01*
X162704474Y-96504076D01*
X162148787Y-97059764D01*
X162137518Y-97017708D01*
X162065110Y-96892292D01*
X161962708Y-96789890D01*
X161837292Y-96717482D01*
X161795233Y-96706212D01*
X162350922Y-96150524D01*
X162350921Y-96150523D01*
X162306359Y-96118147D01*
X162306350Y-96118141D01*
X162124031Y-96025244D01*
X161929417Y-95962009D01*
X161727317Y-95930000D01*
X161522683Y-95930000D01*
X161320582Y-95962009D01*
X161125968Y-96025244D01*
X160943644Y-96118143D01*
X160899077Y-96150523D01*
X160899077Y-96150524D01*
X161454766Y-96706212D01*
X161412708Y-96717482D01*
X161287292Y-96789890D01*
X161184890Y-96892292D01*
X161112482Y-97017708D01*
X161101212Y-97059765D01*
X160545524Y-96504077D01*
X160545523Y-96504077D01*
X160513143Y-96548644D01*
X160465765Y-96641630D01*
X160417790Y-96692426D01*
X160349969Y-96709221D01*
X160283834Y-96686683D01*
X160244795Y-96641630D01*
X160239030Y-96630315D01*
X160197287Y-96548390D01*
X160197285Y-96548387D01*
X160197284Y-96548385D01*
X160076971Y-96382786D01*
X159932213Y-96238028D01*
X159766613Y-96117715D01*
X159766612Y-96117714D01*
X159766610Y-96117713D01*
X159666227Y-96066565D01*
X159584223Y-96024781D01*
X159389534Y-95961522D01*
X159214995Y-95933878D01*
X159187352Y-95929500D01*
X158982648Y-95929500D01*
X158958329Y-95933351D01*
X158780465Y-95961522D01*
X158585776Y-96024781D01*
X158403386Y-96117715D01*
X158237786Y-96238028D01*
X158093028Y-96382786D01*
X157972715Y-96548386D01*
X157925485Y-96641080D01*
X157877510Y-96691876D01*
X157809689Y-96708671D01*
X157743554Y-96686134D01*
X157704515Y-96641080D01*
X157699030Y-96630315D01*
X157657287Y-96548390D01*
X157625092Y-96504077D01*
X157536971Y-96382786D01*
X157392213Y-96238028D01*
X157226613Y-96117715D01*
X157226612Y-96117714D01*
X157226610Y-96117713D01*
X157126227Y-96066565D01*
X157044223Y-96024781D01*
X156849534Y-95961522D01*
X156674995Y-95933878D01*
X156647352Y-95929500D01*
X156442648Y-95929500D01*
X156405587Y-95935370D01*
X156240468Y-95961522D01*
X156231717Y-95964365D01*
X156226154Y-95966173D01*
X156156313Y-95968167D01*
X156100157Y-95935922D01*
X154609055Y-94444820D01*
X154575570Y-94383497D01*
X154580554Y-94313805D01*
X154622426Y-94257872D01*
X154687890Y-94233455D01*
X154756163Y-94248307D01*
X154765620Y-94254032D01*
X154800421Y-94277286D01*
X155090749Y-94432469D01*
X155394889Y-94558448D01*
X155709913Y-94654010D01*
X155709917Y-94654010D01*
X155709918Y-94654011D01*
X155709933Y-94654015D01*
X155890361Y-94689903D01*
X156032787Y-94718233D01*
X156360400Y-94750500D01*
X156360403Y-94750500D01*
X156689597Y-94750500D01*
X156689600Y-94750500D01*
X157017213Y-94718233D01*
X157194760Y-94682916D01*
X157340066Y-94654015D01*
X157340082Y-94654011D01*
X157340082Y-94654010D01*
X157340087Y-94654010D01*
X157655111Y-94558448D01*
X157959251Y-94432469D01*
X158249579Y-94277286D01*
X158523298Y-94094393D01*
X158777772Y-93885551D01*
X159010551Y-93652772D01*
X159219393Y-93398298D01*
X159402286Y-93124579D01*
X159557469Y-92834251D01*
X159683448Y-92530111D01*
X159779010Y-92215087D01*
X159779012Y-92215077D01*
X159779015Y-92215066D01*
X159834969Y-91933757D01*
X159843233Y-91892213D01*
X159875500Y-91564600D01*
X159875500Y-91235400D01*
X159843233Y-90907787D01*
X159799387Y-90687355D01*
X159779015Y-90584933D01*
X159779012Y-90584922D01*
X159779011Y-90584919D01*
X159779010Y-90584913D01*
X159683448Y-90269889D01*
X159557469Y-89965749D01*
X159402286Y-89675421D01*
X159219393Y-89401702D01*
X159010551Y-89147228D01*
X159010550Y-89147227D01*
X159010546Y-89147222D01*
X158777777Y-88914453D01*
X158523303Y-88705611D01*
X158523302Y-88705610D01*
X158523298Y-88705607D01*
X158249579Y-88522714D01*
X158249574Y-88522711D01*
X158249567Y-88522707D01*
X157959258Y-88367535D01*
X157959251Y-88367531D01*
X157929670Y-88355278D01*
X157655112Y-88241552D01*
X157340077Y-88145987D01*
X157340066Y-88145984D01*
X157089357Y-88096117D01*
X157027446Y-88063733D01*
X156992872Y-88003017D01*
X156996611Y-87933248D01*
X157037477Y-87876575D01*
X157102495Y-87850994D01*
X157113548Y-87850500D01*
X164850603Y-87850500D01*
X164880856Y-87859383D01*
G37*
%TD.AperFunction*%
%TA.AperFunction,Conductor*%
G36*
X156003491Y-87870185D02*
G01*
X156049246Y-87922989D01*
X156059190Y-87992147D01*
X156030165Y-88055703D01*
X155971387Y-88093477D01*
X155960643Y-88096117D01*
X155709933Y-88145984D01*
X155709922Y-88145987D01*
X155394887Y-88241552D01*
X155090755Y-88367528D01*
X155090741Y-88367535D01*
X154800432Y-88522707D01*
X154800414Y-88522718D01*
X154526710Y-88705601D01*
X154526696Y-88705611D01*
X154272222Y-88914453D01*
X154039453Y-89147222D01*
X153830611Y-89401696D01*
X153830601Y-89401710D01*
X153647718Y-89675414D01*
X153647707Y-89675432D01*
X153492535Y-89965741D01*
X153492528Y-89965755D01*
X153366552Y-90269887D01*
X153270987Y-90584922D01*
X153270984Y-90584933D01*
X153206768Y-90907781D01*
X153206765Y-90907798D01*
X153193503Y-91042454D01*
X153174500Y-91235400D01*
X153174500Y-91564600D01*
X153181197Y-91632591D01*
X153206765Y-91892201D01*
X153206768Y-91892218D01*
X153270984Y-92215066D01*
X153270987Y-92215077D01*
X153366552Y-92530112D01*
X153492528Y-92834244D01*
X153492531Y-92834251D01*
X153517766Y-92881463D01*
X153647707Y-93124567D01*
X153647718Y-93124585D01*
X153830601Y-93398289D01*
X153830616Y-93398310D01*
X153842564Y-93412869D01*
X153869876Y-93477179D01*
X153858083Y-93546046D01*
X153810929Y-93597605D01*
X153743386Y-93615486D01*
X153714617Y-93611306D01*
X153566057Y-93571499D01*
X153407943Y-93571499D01*
X153400347Y-93571499D01*
X153400331Y-93571500D01*
X151865962Y-93571500D01*
X151798923Y-93551815D01*
X151753168Y-93499011D01*
X151743224Y-93429853D01*
X151766696Y-93373188D01*
X151789796Y-93342331D01*
X151840091Y-93207483D01*
X151846500Y-93147873D01*
X151846499Y-91352128D01*
X151840091Y-91292517D01*
X151812169Y-91217655D01*
X151789797Y-91157671D01*
X151789793Y-91157664D01*
X151703547Y-91042455D01*
X151703544Y-91042452D01*
X151588335Y-90956206D01*
X151588328Y-90956202D01*
X151453482Y-90905908D01*
X151453483Y-90905908D01*
X151393883Y-90899501D01*
X151393881Y-90899500D01*
X151393873Y-90899500D01*
X151393865Y-90899500D01*
X150046097Y-90899500D01*
X150016656Y-90890855D01*
X149986670Y-90884332D01*
X149981654Y-90880577D01*
X149979058Y-90879815D01*
X149958416Y-90863181D01*
X149782590Y-90687355D01*
X149782588Y-90687352D01*
X149663717Y-90568481D01*
X149663716Y-90568480D01*
X149576904Y-90518360D01*
X149576904Y-90518359D01*
X149576900Y-90518358D01*
X149526785Y-90489423D01*
X149374057Y-90448499D01*
X149215943Y-90448499D01*
X149208347Y-90448499D01*
X149208331Y-90448500D01*
X142465199Y-90448500D01*
X142465183Y-90448499D01*
X142457587Y-90448499D01*
X142299472Y-90448499D01*
X142223108Y-90468961D01*
X142146743Y-90489423D01*
X142146738Y-90489426D01*
X142009819Y-90568475D01*
X142009811Y-90568481D01*
X141373274Y-91205017D01*
X141311951Y-91238502D01*
X141242259Y-91233518D01*
X141212708Y-91217655D01*
X141043815Y-91094948D01*
X140854414Y-90998444D01*
X140854413Y-90998443D01*
X140854412Y-90998443D01*
X140652243Y-90932754D01*
X140652241Y-90932753D01*
X140652240Y-90932753D01*
X140490957Y-90907208D01*
X140442287Y-90899500D01*
X140229713Y-90899500D01*
X140181042Y-90907208D01*
X140019760Y-90932753D01*
X139817585Y-90998444D01*
X139628179Y-91094951D01*
X139456213Y-91219890D01*
X139305890Y-91370213D01*
X139180949Y-91542182D01*
X139176202Y-91551499D01*
X139128227Y-91602293D01*
X139060405Y-91619087D01*
X138994271Y-91596548D01*
X138955234Y-91551495D01*
X138950626Y-91542452D01*
X138911270Y-91488282D01*
X138911269Y-91488282D01*
X138278962Y-92120589D01*
X138261925Y-92057007D01*
X138196099Y-91942993D01*
X138103007Y-91849901D01*
X137988993Y-91784075D01*
X137925409Y-91767037D01*
X138557716Y-91134728D01*
X138503550Y-91095375D01*
X138314217Y-90998904D01*
X138112129Y-90933242D01*
X137902246Y-90900000D01*
X137689754Y-90900000D01*
X137479872Y-90933242D01*
X137479869Y-90933242D01*
X137277782Y-90998904D01*
X137088439Y-91095380D01*
X137034282Y-91134727D01*
X137034282Y-91134728D01*
X137666591Y-91767037D01*
X137603007Y-91784075D01*
X137488993Y-91849901D01*
X137395901Y-91942993D01*
X137330075Y-92057007D01*
X137313037Y-92120591D01*
X136680728Y-91488282D01*
X136680727Y-91488282D01*
X136641380Y-91542440D01*
X136641376Y-91542446D01*
X136636760Y-91551505D01*
X136588781Y-91602297D01*
X136520959Y-91619087D01*
X136454826Y-91596543D01*
X136415794Y-91551493D01*
X136411051Y-91542184D01*
X136411049Y-91542181D01*
X136411048Y-91542179D01*
X136286109Y-91370213D01*
X136135786Y-91219890D01*
X135963820Y-91094951D01*
X135774414Y-90998444D01*
X135774413Y-90998443D01*
X135774412Y-90998443D01*
X135572243Y-90932754D01*
X135572241Y-90932753D01*
X135572240Y-90932753D01*
X135410957Y-90907208D01*
X135362287Y-90899500D01*
X135149713Y-90899500D01*
X135101042Y-90907208D01*
X134939760Y-90932753D01*
X134737585Y-90998444D01*
X134548179Y-91094951D01*
X134376213Y-91219890D01*
X134225890Y-91370213D01*
X134100948Y-91542184D01*
X134100947Y-91542185D01*
X134080765Y-91581795D01*
X134032791Y-91632591D01*
X133970281Y-91649500D01*
X129711357Y-91649500D01*
X129553243Y-91649500D01*
X129400515Y-91690423D01*
X129400514Y-91690423D01*
X129400512Y-91690424D01*
X129400509Y-91690425D01*
X129350396Y-91719359D01*
X129350395Y-91719360D01*
X129306989Y-91744420D01*
X129263585Y-91769479D01*
X129263582Y-91769481D01*
X129183163Y-91849901D01*
X129151780Y-91881284D01*
X129151778Y-91881286D01*
X127489269Y-93543796D01*
X125860884Y-95172181D01*
X125799561Y-95205666D01*
X125773203Y-95208500D01*
X123739491Y-95208500D01*
X123672452Y-95188815D01*
X123651810Y-95172181D01*
X123391329Y-94911700D01*
X123357844Y-94850377D01*
X123362828Y-94780685D01*
X123404700Y-94724752D01*
X123470164Y-94700335D01*
X123503196Y-94702401D01*
X123582787Y-94718233D01*
X123910400Y-94750500D01*
X123910403Y-94750500D01*
X124239597Y-94750500D01*
X124239600Y-94750500D01*
X124567213Y-94718233D01*
X124744760Y-94682916D01*
X124890066Y-94654015D01*
X124890082Y-94654011D01*
X124890082Y-94654010D01*
X124890087Y-94654010D01*
X125205111Y-94558448D01*
X125509251Y-94432469D01*
X125799579Y-94277286D01*
X126073298Y-94094393D01*
X126327772Y-93885551D01*
X126560551Y-93652772D01*
X126769393Y-93398298D01*
X126952286Y-93124579D01*
X127107469Y-92834251D01*
X127233448Y-92530111D01*
X127329010Y-92215087D01*
X127329012Y-92215077D01*
X127329015Y-92215066D01*
X127384969Y-91933757D01*
X127393233Y-91892213D01*
X127425500Y-91564600D01*
X127425500Y-91235400D01*
X127393233Y-90907787D01*
X127349387Y-90687355D01*
X127329015Y-90584933D01*
X127329012Y-90584922D01*
X127329011Y-90584919D01*
X127329010Y-90584913D01*
X127233448Y-90269889D01*
X127107469Y-89965749D01*
X126952286Y-89675421D01*
X126769393Y-89401702D01*
X126560551Y-89147228D01*
X126560550Y-89147227D01*
X126560546Y-89147222D01*
X126327777Y-88914453D01*
X126073303Y-88705611D01*
X126073302Y-88705610D01*
X126073298Y-88705607D01*
X125799579Y-88522714D01*
X125799574Y-88522711D01*
X125799567Y-88522707D01*
X125509258Y-88367535D01*
X125509251Y-88367531D01*
X125479670Y-88355278D01*
X125205112Y-88241552D01*
X124890077Y-88145987D01*
X124890066Y-88145984D01*
X124639357Y-88096117D01*
X124577446Y-88063733D01*
X124542872Y-88003017D01*
X124546611Y-87933248D01*
X124587477Y-87876575D01*
X124652495Y-87850994D01*
X124663548Y-87850500D01*
X155936452Y-87850500D01*
X156003491Y-87870185D01*
G37*
%TD.AperFunction*%
%TD*%
M02*
