M48
; DRILL file {KiCad 9.0.6} date 2026-04-25T16:58:17-0700
; FORMAT={-:-/ absolute / inch / decimal}
; #@! TF.CreationDate,2026-04-25T16:58:17-07:00
; #@! TF.GenerationSoftware,Kicad,Pcbnew,9.0.6
; #@! TF.FileFunction,Plated,1,2,PTH
FMAT,2
INCH
; #@! TA.AperFunction,Plated,PTH,ViaDrill
T1C0.0118
; #@! TA.AperFunction,Plated,PTH,ComponentDrill
T2C0.0315
; #@! TA.AperFunction,Plated,PTH,ComponentDrill
T3C0.0394
; #@! TA.AperFunction,Plated,PTH,ComponentDrill
T4C0.0433
; #@! TA.AperFunction,Plated,PTH,ComponentDrill
T5C0.1260
%
G90
G05
T1
X5.6654Y-3.4035
X5.813Y-2.9764
X5.8715Y-3.0502
T3
X5.4052Y-3.3484
X5.5052Y-3.3484
X5.6052Y-3.3484
X5.7052Y-3.3484
X5.8052Y-3.3484
X5.9052Y-3.3484
X6.0052Y-3.3484
X6.2098Y-2.9057
X6.2098Y-3.0057
X6.2098Y-3.1057
X6.2098Y-3.2057
X6.2098Y-3.3057
X6.2098Y-3.4057
X6.2098Y-3.5057
X6.2098Y-3.6057
X6.2098Y-3.7057
X6.2098Y-3.8057
X6.2098Y-3.9057
X6.2098Y-4.0057
X6.2098Y-4.1057
X6.2098Y-4.2057
X6.2098Y-4.3057
X6.2098Y-4.4057
X6.2098Y-4.5057
X6.2098Y-4.6057
X6.2098Y-4.7057
X6.2098Y-4.8057
T4
X5.4Y-3.5228
X5.4Y-3.6228
X5.4Y-3.7228
X5.4Y-3.8228
X5.4Y-3.9228
X5.4Y-4.0228
X5.4Y-4.1228
X5.4Y-4.2228
X5.4Y-4.3228
X5.4Y-4.4228
X5.4Y-4.5228
X5.4Y-4.6228
X5.4Y-4.7228
X5.4Y-4.8228
X5.5Y-3.5228
X5.5Y-3.7228
X5.5Y-3.8228
X5.5Y-4.7228
X5.6Y-3.5228
X5.6Y-3.7228
X5.6Y-3.8228
X5.7Y-3.5228
X5.7Y-3.7228
X5.7Y-3.8228
X5.8Y-3.5228
X5.8Y-3.7228
X5.8Y-3.8228
X5.9Y-3.5228
X5.9Y-3.7228
X5.9Y-3.8228
X6.0Y-3.5228
X6.0Y-3.6228
X6.0Y-3.7228
X6.0Y-3.8228
X6.0Y-3.9228
X6.0Y-4.0228
X6.0Y-4.1228
X6.0Y-4.2228
X6.0Y-4.3228
X6.0Y-4.4228
X6.0Y-4.5228
X6.0Y-4.6228
X6.0Y-4.7228
X6.0Y-4.8228
T5
X5.1783Y-3.4242
X5.1783Y-4.7018
T2
G00X5.1665Y-2.9557
M15
G01X5.139Y-2.9557
M16
G05
G00X5.1665Y-3.2156
M15
G01X5.139Y-3.2156
M16
G05
G00X5.4815Y-2.9734
M15
G01X5.4539Y-2.9734
M16
G05
G00X5.4815Y-3.1978
M15
G01X5.4539Y-3.1978
M16
G05
G00X5.4992Y-3.0719
M15
G01X5.4992Y-3.0994
M16
G05
M30
