%TF.GenerationSoftware,KiCad,Pcbnew,9.0.6*%
%TF.CreationDate,2026-04-25T16:30:35-07:00*%
%TF.ProjectId,AudioBoardTeensy,41756469-6f42-46f6-9172-645465656e73,rev?*%
%TF.SameCoordinates,Original*%
%TF.FileFunction,Copper,L2,Bot*%
%TF.FilePolarity,Positive*%
%FSLAX46Y46*%
G04 Gerber Fmt 4.6, Leading zero omitted, Abs format (unit mm)*
G04 Created by KiCad (PCBNEW 9.0.6) date 2026-04-25 16:30:35*
%MOMM*%
%LPD*%
G01*
G04 APERTURE LIST*
%TA.AperFunction,ComponentPad*%
%ADD10O,1.308000X2.616000*%
%TD*%
%TA.AperFunction,ComponentPad*%
%ADD11O,2.616000X1.308000*%
%TD*%
%TA.AperFunction,ComponentPad*%
%ADD12C,5.700000*%
%TD*%
%TA.AperFunction,ComponentPad*%
%ADD13C,1.600000*%
%TD*%
%TA.AperFunction,ComponentPad*%
%ADD14R,1.700000X1.700000*%
%TD*%
%TA.AperFunction,ComponentPad*%
%ADD15C,1.700000*%
%TD*%
%TA.AperFunction,ViaPad*%
%ADD16C,0.600000*%
%TD*%
%TA.AperFunction,Conductor*%
%ADD17C,0.200000*%
%TD*%
G04 APERTURE END LIST*
D10*
%TO.P,J1,1*%
%TO.N,AUDIO*%
X139680000Y-78375000D03*
D11*
%TO.P,J1,2*%
%TO.N,GND*%
X138880000Y-75525000D03*
%TO.P,J1,3*%
%TO.N,unconnected-(J1-Pad3)*%
X138880000Y-81225000D03*
%TO.P,J1,4_1*%
%TO.N,unconnected-(J1-Pad4_1)*%
X130880000Y-75075000D03*
%TO.P,J1,4_2*%
%TO.N,unconnected-(J1-Pad4_2)*%
X130880000Y-81675000D03*
%TD*%
D12*
%TO.P,H1,1,1*%
%TO.N,unconnected-(H1-Pad1)*%
X131530000Y-86975000D03*
%TD*%
D13*
%TO.P,U1,1,GND*%
%TO.N,GND*%
X152400000Y-122500000D03*
%TO.P,U1,2,0_RX1_CRX2_CS1*%
%TO.N,CS*%
X152400000Y-119960000D03*
%TO.P,U1,3,1_TX1_CTX2_MISO1*%
%TO.N,RST*%
X152400000Y-117420000D03*
%TO.P,U1,4,2_OUT2*%
%TO.N,LED1*%
X152400000Y-114880000D03*
%TO.P,U1,5,3_LRCLK2*%
%TO.N,LED2*%
X152400000Y-112340000D03*
%TO.P,U1,6,4_BCLK2*%
%TO.N,LED3*%
X152400000Y-109800000D03*
%TO.P,U1,7,5_IN2*%
%TO.N,LED4*%
X152400000Y-107260000D03*
%TO.P,U1,8,6_OUT1D*%
%TO.N,LED5*%
X152400000Y-104720000D03*
%TO.P,U1,9,7_RX2_OUT1A*%
%TO.N,unconnected-(U1-7_RX2_OUT1A-Pad9)*%
X152400000Y-102180000D03*
%TO.P,U1,10,8_TX2_IN1*%
%TO.N,unconnected-(U1-8_TX2_IN1-Pad10)*%
X152400000Y-99640000D03*
%TO.P,U1,11,9_OUT1C*%
%TO.N,unconnected-(U1-9_OUT1C-Pad11)*%
X152400000Y-97100000D03*
%TO.P,U1,12,10_CS_MQSR*%
%TO.N,unconnected-(U1-10_CS_MQSR-Pad12)*%
X152400000Y-94560000D03*
%TO.P,U1,13,11_MOSI_CTX1*%
%TO.N,MOSI*%
X152400000Y-92020000D03*
%TO.P,U1,14,12_MISO_MQSL*%
%TO.N,MISO*%
X152400000Y-89480000D03*
%TO.P,U1,15,VBAT*%
%TO.N,unconnected-(U1-VBAT-Pad15)*%
X149860000Y-89480000D03*
%TO.P,U1,16,3V3*%
%TO.N,+3V3*%
X147320000Y-89480000D03*
%TO.P,U1,17,GND*%
%TO.N,GND*%
X144780000Y-89480000D03*
%TO.P,U1,18,PROGRAM*%
%TO.N,unconnected-(U1-PROGRAM-Pad18)*%
X142240000Y-89480000D03*
%TO.P,U1,19,ON_OFF*%
%TO.N,unconnected-(U1-ON_OFF-Pad19)*%
X139700000Y-89480000D03*
%TO.P,U1,20,13_SCK_CRX1_LED*%
%TO.N,SCK*%
X137160000Y-89480000D03*
%TO.P,U1,21,14_A0_TX3_SPDIF_OUT*%
%TO.N,A0*%
X137160000Y-92020000D03*
%TO.P,U1,22,15_A1_RX3_SPDIF_IN*%
%TO.N,unconnected-(U1-15_A1_RX3_SPDIF_IN-Pad22)*%
X137160000Y-94560000D03*
%TO.P,U1,23,16_A2_RX4_SCL1*%
%TO.N,unconnected-(U1-16_A2_RX4_SCL1-Pad23)*%
X137160000Y-97100000D03*
%TO.P,U1,24,17_A3_TX4_SDA1*%
%TO.N,unconnected-(U1-17_A3_TX4_SDA1-Pad24)*%
X137160000Y-99640000D03*
%TO.P,U1,25,18_A4_SDA0*%
%TO.N,unconnected-(U1-18_A4_SDA0-Pad25)*%
X137160000Y-102180000D03*
%TO.P,U1,26,19_A5_SCL0*%
%TO.N,unconnected-(U1-19_A5_SCL0-Pad26)*%
X137160000Y-104720000D03*
%TO.P,U1,27,20_A6_TX5_LRCLK1*%
%TO.N,unconnected-(U1-20_A6_TX5_LRCLK1-Pad27)*%
X137160000Y-107260000D03*
%TO.P,U1,28,21_A7_RX5_BCLK1*%
%TO.N,unconnected-(U1-21_A7_RX5_BCLK1-Pad28)*%
X137160000Y-109800000D03*
%TO.P,U1,29,22_A8_CTX1*%
%TO.N,unconnected-(U1-22_A8_CTX1-Pad29)*%
X137160000Y-112340000D03*
%TO.P,U1,30,23_A9_CRX1_MCLK1*%
%TO.N,unconnected-(U1-23_A9_CRX1_MCLK1-Pad30)*%
X137160000Y-114880000D03*
%TO.P,U1,31,3V3*%
%TO.N,+3V3*%
X137160000Y-117420000D03*
%TO.P,U1,32,GND*%
%TO.N,GND*%
X137160000Y-119960000D03*
%TO.P,U1,33,VIN*%
%TO.N,unconnected-(U1-VIN-Pad33)*%
X137160000Y-122500000D03*
%TO.P,U1,34,VUSB*%
%TO.N,unconnected-(U1-VUSB-Pad34)*%
X139700000Y-119960000D03*
%TO.P,U1,35,24_A10_TX6_SCL2*%
%TO.N,unconnected-(U1-24_A10_TX6_SCL2-Pad35)*%
X139700000Y-94560000D03*
%TO.P,U1,36,25_A11_RX6_SDA2*%
%TO.N,unconnected-(U1-25_A11_RX6_SDA2-Pad36)*%
X139700000Y-97100000D03*
%TO.P,U1,37,26_A12_MOSI1*%
%TO.N,unconnected-(U1-26_A12_MOSI1-Pad37)*%
X142240000Y-94560000D03*
%TO.P,U1,38,27_A13_SCK1*%
%TO.N,unconnected-(U1-27_A13_SCK1-Pad38)*%
X142240000Y-97100000D03*
%TO.P,U1,39,28_RX7*%
%TO.N,unconnected-(U1-28_RX7-Pad39)*%
X144780000Y-94560000D03*
%TO.P,U1,40,29_TX7*%
%TO.N,unconnected-(U1-29_TX7-Pad40)*%
X144780000Y-97100000D03*
%TO.P,U1,41,30_CRX3*%
%TO.N,unconnected-(U1-30_CRX3-Pad41)*%
X147320000Y-94560000D03*
%TO.P,U1,42,31_CTX3*%
%TO.N,unconnected-(U1-31_CTX3-Pad42)*%
X147320000Y-97100000D03*
%TO.P,U1,43,32_OUT1B*%
%TO.N,unconnected-(U1-32_OUT1B-Pad43)*%
X149860000Y-94560000D03*
%TO.P,U1,44,33_MCLK2*%
%TO.N,unconnected-(U1-33_MCLK2-Pad44)*%
X149860000Y-97100000D03*
%TD*%
D14*
%TO.P,DISP1,1,Pin_1*%
%TO.N,MISO*%
X152520000Y-85050000D03*
D15*
%TO.P,DISP1,2,Pin_2*%
%TO.N,RST*%
X149980000Y-85050000D03*
%TO.P,DISP1,3,Pin_3*%
%TO.N,CS*%
X147440000Y-85050000D03*
%TO.P,DISP1,4,Pin_4*%
%TO.N,MOSI*%
X144900000Y-85050000D03*
%TO.P,DISP1,5,Pin_5*%
%TO.N,SCK*%
X142360000Y-85050000D03*
%TO.P,DISP1,6,Pin_6*%
%TO.N,GND*%
X139820000Y-85050000D03*
%TO.P,DISP1,7,Pin_7*%
%TO.N,+3V3*%
X137280000Y-85050000D03*
%TD*%
D12*
%TO.P,H2,1,1*%
%TO.N,unconnected-(H2-Pad1)*%
X131530000Y-119425000D03*
%TD*%
D14*
%TO.P,J3,1,Pin_1*%
%TO.N,LED1*%
X157730000Y-122065000D03*
D15*
%TO.P,J3,2,Pin_2*%
%TO.N,LED2*%
X157730000Y-119525000D03*
%TO.P,J3,3,Pin_3*%
%TO.N,LED3*%
X157730000Y-116985000D03*
%TO.P,J3,4,Pin_4*%
%TO.N,LED4*%
X157730000Y-114445000D03*
%TO.P,J3,5,Pin_5*%
%TO.N,LED5*%
X157730000Y-111905000D03*
%TO.P,J3,6,Pin_6*%
%TO.N,LED1*%
X157730000Y-109365000D03*
%TO.P,J3,7,Pin_7*%
%TO.N,LED2*%
X157730000Y-106825000D03*
%TO.P,J3,8,Pin_8*%
%TO.N,LED3*%
X157730000Y-104285000D03*
%TO.P,J3,9,Pin_9*%
%TO.N,LED4*%
X157730000Y-101745000D03*
%TO.P,J3,10,Pin_10*%
%TO.N,LED5*%
X157730000Y-99205000D03*
%TO.P,J3,11,Pin_11*%
%TO.N,+3V3*%
X157730000Y-96665000D03*
%TO.P,J3,12,Pin_12*%
X157730000Y-94125000D03*
%TO.P,J3,13,Pin_13*%
X157730000Y-91585000D03*
%TO.P,J3,14,Pin_14*%
X157730000Y-89045000D03*
%TO.P,J3,15,Pin_15*%
X157730000Y-86505000D03*
%TO.P,J3,16,Pin_16*%
X157730000Y-83965000D03*
%TO.P,J3,17,Pin_17*%
X157730000Y-81425000D03*
%TO.P,J3,18,Pin_18*%
X157730000Y-78885000D03*
%TO.P,J3,19,Pin_19*%
X157730000Y-76345000D03*
%TO.P,J3,20,Pin_20*%
X157730000Y-73805000D03*
%TD*%
D16*
%TO.N,GND*%
X149135000Y-77475000D03*
X147650000Y-75600000D03*
X143900000Y-86450000D03*
%TD*%
D17*
%TO.N,LED4*%
X152400000Y-107075000D02*
X152400000Y-107260000D01*
X157730000Y-101745000D02*
X152400000Y-107075000D01*
%TO.N,LED1*%
X152400000Y-114695000D02*
X152400000Y-114880000D01*
X157730000Y-109365000D02*
X152400000Y-114695000D01*
%TO.N,LED3*%
X152400000Y-109615000D02*
X152400000Y-109800000D01*
X157730000Y-104285000D02*
X152400000Y-109615000D01*
%TO.N,LED5*%
X157730000Y-99390000D02*
X157730000Y-99205000D01*
X152400000Y-104720000D02*
X157730000Y-99390000D01*
%TO.N,LED2*%
X157730000Y-107010000D02*
X157730000Y-106825000D01*
X152400000Y-112340000D02*
X157730000Y-107010000D01*
X151295000Y-113445000D02*
X152400000Y-112340000D01*
X151295000Y-115338100D02*
X151295000Y-113445000D01*
X152106900Y-116150000D02*
X151295000Y-115338100D01*
X154355000Y-116150000D02*
X152106900Y-116150000D01*
X157730000Y-119525000D02*
X154355000Y-116150000D01*
%TO.N,MOSI*%
X146810100Y-86960100D02*
X144900000Y-85050000D01*
X148965000Y-86960100D02*
X146810100Y-86960100D01*
X151130000Y-89125100D02*
X148965000Y-86960100D01*
X151130000Y-90750000D02*
X151130000Y-89125100D01*
X152400000Y-92020000D02*
X151130000Y-90750000D01*
%TO.N,+3V3*%
X145200300Y-87360300D02*
X147320000Y-89480000D01*
X139590300Y-87360300D02*
X145200300Y-87360300D01*
X137280000Y-85050000D02*
X139590300Y-87360300D01*
X156895000Y-93290000D02*
X157730000Y-94125000D01*
X151130000Y-93290000D02*
X156895000Y-93290000D01*
X147320000Y-89480000D02*
X151130000Y-93290000D01*
%TD*%
%TA.AperFunction,Conductor*%
%TO.N,GND*%
G36*
X156947698Y-72495185D02*
G01*
X156993453Y-72547989D01*
X157003397Y-72617147D01*
X156974372Y-72680703D01*
X156953546Y-72699816D01*
X156912888Y-72729356D01*
X156850207Y-72774896D01*
X156699890Y-72925213D01*
X156574951Y-73097179D01*
X156478444Y-73286585D01*
X156412753Y-73488760D01*
X156379500Y-73698713D01*
X156379500Y-73911286D01*
X156407422Y-74087583D01*
X156412754Y-74121243D01*
X156436523Y-74194397D01*
X156478444Y-74323414D01*
X156574951Y-74512820D01*
X156699890Y-74684786D01*
X156850213Y-74835109D01*
X157022182Y-74960050D01*
X157030946Y-74964516D01*
X157081742Y-75012491D01*
X157098536Y-75080312D01*
X157075998Y-75146447D01*
X157030946Y-75185484D01*
X157022182Y-75189949D01*
X156850213Y-75314890D01*
X156699890Y-75465213D01*
X156574951Y-75637179D01*
X156478444Y-75826585D01*
X156412753Y-76028760D01*
X156379500Y-76238713D01*
X156379500Y-76451286D01*
X156411144Y-76651083D01*
X156412754Y-76661243D01*
X156435328Y-76730719D01*
X156478444Y-76863414D01*
X156574951Y-77052820D01*
X156699890Y-77224786D01*
X156850213Y-77375109D01*
X157022182Y-77500050D01*
X157030946Y-77504516D01*
X157081742Y-77552491D01*
X157098536Y-77620312D01*
X157075998Y-77686447D01*
X157030946Y-77725484D01*
X157022182Y-77729949D01*
X156850213Y-77854890D01*
X156699890Y-78005213D01*
X156574951Y-78177179D01*
X156478444Y-78366585D01*
X156412753Y-78568760D01*
X156380500Y-78772399D01*
X156379500Y-78778713D01*
X156379500Y-78991287D01*
X156412754Y-79201243D01*
X156420635Y-79225499D01*
X156478444Y-79403414D01*
X156574951Y-79592820D01*
X156699890Y-79764786D01*
X156850213Y-79915109D01*
X157022182Y-80040050D01*
X157030946Y-80044516D01*
X157081742Y-80092491D01*
X157098536Y-80160312D01*
X157075998Y-80226447D01*
X157030946Y-80265484D01*
X157022182Y-80269949D01*
X156850213Y-80394890D01*
X156699890Y-80545213D01*
X156574951Y-80717179D01*
X156478444Y-80906585D01*
X156478443Y-80906587D01*
X156478443Y-80906588D01*
X156473145Y-80922894D01*
X156412753Y-81108760D01*
X156393261Y-81231828D01*
X156379500Y-81318713D01*
X156379500Y-81531287D01*
X156412754Y-81741243D01*
X156441622Y-81830090D01*
X156478444Y-81943414D01*
X156574951Y-82132820D01*
X156699890Y-82304786D01*
X156850213Y-82455109D01*
X157022182Y-82580050D01*
X157030946Y-82584516D01*
X157081742Y-82632491D01*
X157098536Y-82700312D01*
X157075998Y-82766447D01*
X157030946Y-82805484D01*
X157022182Y-82809949D01*
X156850213Y-82934890D01*
X156699890Y-83085213D01*
X156574951Y-83257179D01*
X156478444Y-83446585D01*
X156412753Y-83648760D01*
X156382075Y-83842454D01*
X156379500Y-83858713D01*
X156379500Y-84071287D01*
X156412754Y-84281243D01*
X156457542Y-84419087D01*
X156478444Y-84483414D01*
X156574951Y-84672820D01*
X156699890Y-84844786D01*
X156850213Y-84995109D01*
X157022182Y-85120050D01*
X157030946Y-85124516D01*
X157081742Y-85172491D01*
X157098536Y-85240312D01*
X157075998Y-85306447D01*
X157030946Y-85345484D01*
X157022182Y-85349949D01*
X156850213Y-85474890D01*
X156699890Y-85625213D01*
X156574951Y-85797179D01*
X156478444Y-85986585D01*
X156412753Y-86188760D01*
X156388198Y-86343796D01*
X156379500Y-86398713D01*
X156379500Y-86611287D01*
X156380500Y-86617600D01*
X156411036Y-86810400D01*
X156412754Y-86821243D01*
X156468101Y-86991584D01*
X156478444Y-87023414D01*
X156574951Y-87212820D01*
X156699890Y-87384786D01*
X156850213Y-87535109D01*
X157022182Y-87660050D01*
X157030946Y-87664516D01*
X157081742Y-87712491D01*
X157098536Y-87780312D01*
X157075998Y-87846447D01*
X157030946Y-87885484D01*
X157022182Y-87889949D01*
X156850213Y-88014890D01*
X156699890Y-88165213D01*
X156574951Y-88337179D01*
X156478444Y-88526585D01*
X156412753Y-88728760D01*
X156401725Y-88798390D01*
X156379500Y-88938713D01*
X156379500Y-89151287D01*
X156412754Y-89361243D01*
X156451340Y-89479999D01*
X156478444Y-89563414D01*
X156574951Y-89752820D01*
X156699890Y-89924786D01*
X156850213Y-90075109D01*
X157022182Y-90200050D01*
X157030946Y-90204516D01*
X157081742Y-90252491D01*
X157098536Y-90320312D01*
X157075998Y-90386447D01*
X157030946Y-90425484D01*
X157022182Y-90429949D01*
X156850213Y-90554890D01*
X156699890Y-90705213D01*
X156574951Y-90877179D01*
X156478444Y-91066585D01*
X156412753Y-91268760D01*
X156401725Y-91338390D01*
X156379500Y-91478713D01*
X156379500Y-91691287D01*
X156412754Y-91901243D01*
X156418084Y-91917648D01*
X156478444Y-92103414D01*
X156574951Y-92292820D01*
X156699890Y-92464786D01*
X156712923Y-92477819D01*
X156746408Y-92539142D01*
X156741424Y-92608834D01*
X156699552Y-92664767D01*
X156634088Y-92689184D01*
X156625242Y-92689500D01*
X153720266Y-92689500D01*
X153653227Y-92669815D01*
X153607472Y-92617011D01*
X153597528Y-92547853D01*
X153604080Y-92523970D01*
X153603714Y-92523852D01*
X153605218Y-92519222D01*
X153605220Y-92519219D01*
X153668477Y-92324534D01*
X153700500Y-92122352D01*
X153700500Y-91917648D01*
X153668477Y-91715466D01*
X153660620Y-91691286D01*
X153605218Y-91520776D01*
X153571503Y-91454607D01*
X153512287Y-91338390D01*
X153504556Y-91327749D01*
X153391971Y-91172786D01*
X153247213Y-91028028D01*
X153081614Y-90907715D01*
X153075006Y-90904348D01*
X152988917Y-90860483D01*
X152938123Y-90812511D01*
X152921328Y-90744690D01*
X152943865Y-90678555D01*
X152988917Y-90639516D01*
X153081610Y-90592287D01*
X153133083Y-90554890D01*
X153247213Y-90471971D01*
X153247215Y-90471968D01*
X153247219Y-90471966D01*
X153391966Y-90327219D01*
X153391968Y-90327215D01*
X153391971Y-90327213D01*
X153463318Y-90229010D01*
X153512287Y-90161610D01*
X153605220Y-89979219D01*
X153668477Y-89784534D01*
X153700500Y-89582352D01*
X153700500Y-89377648D01*
X153668477Y-89175466D01*
X153660620Y-89151286D01*
X153605218Y-88980776D01*
X153559515Y-88891080D01*
X153512287Y-88798390D01*
X153480092Y-88754077D01*
X153391971Y-88632786D01*
X153247213Y-88488028D01*
X153081613Y-88367715D01*
X153081612Y-88367714D01*
X153081610Y-88367713D01*
X153005135Y-88328747D01*
X152899223Y-88274781D01*
X152704534Y-88211522D01*
X152529995Y-88183878D01*
X152502352Y-88179500D01*
X152297648Y-88179500D01*
X152273329Y-88183351D01*
X152095465Y-88211522D01*
X151900776Y-88274781D01*
X151718386Y-88367715D01*
X151552786Y-88488028D01*
X151552782Y-88488032D01*
X151535156Y-88505659D01*
X151473833Y-88539144D01*
X151404141Y-88534160D01*
X151359794Y-88505659D01*
X149452590Y-86598455D01*
X149445521Y-86591386D01*
X149445520Y-86591384D01*
X149373678Y-86519542D01*
X149342031Y-86461582D01*
X149340196Y-86458222D01*
X149345180Y-86388530D01*
X149372893Y-86351511D01*
X149387052Y-86332596D01*
X149439872Y-86312896D01*
X149452516Y-86308180D01*
X149452518Y-86308180D01*
X149499674Y-86313932D01*
X149663757Y-86367246D01*
X149873713Y-86400500D01*
X149873714Y-86400500D01*
X150086286Y-86400500D01*
X150086287Y-86400500D01*
X150296243Y-86367246D01*
X150498412Y-86301557D01*
X150687816Y-86205051D01*
X150774147Y-86142328D01*
X150859784Y-86080110D01*
X150859784Y-86080109D01*
X150859792Y-86080104D01*
X150973329Y-85966566D01*
X151034648Y-85933084D01*
X151104340Y-85938068D01*
X151160274Y-85979939D01*
X151177189Y-86010917D01*
X151226202Y-86142328D01*
X151226206Y-86142335D01*
X151312452Y-86257544D01*
X151312455Y-86257547D01*
X151427664Y-86343793D01*
X151427671Y-86343797D01*
X151562517Y-86394091D01*
X151562516Y-86394091D01*
X151569444Y-86394835D01*
X151622127Y-86400500D01*
X153417872Y-86400499D01*
X153477483Y-86394091D01*
X153612331Y-86343796D01*
X153727546Y-86257546D01*
X153813796Y-86142331D01*
X153864091Y-86007483D01*
X153870500Y-85947873D01*
X153870499Y-84152128D01*
X153864091Y-84092517D01*
X153862810Y-84089083D01*
X153813797Y-83957671D01*
X153813793Y-83957664D01*
X153727547Y-83842455D01*
X153727544Y-83842452D01*
X153612335Y-83756206D01*
X153612328Y-83756202D01*
X153477482Y-83705908D01*
X153477483Y-83705908D01*
X153417883Y-83699501D01*
X153417881Y-83699500D01*
X153417873Y-83699500D01*
X153417864Y-83699500D01*
X151622129Y-83699500D01*
X151622123Y-83699501D01*
X151562516Y-83705908D01*
X151427671Y-83756202D01*
X151427664Y-83756206D01*
X151312455Y-83842452D01*
X151312452Y-83842455D01*
X151226206Y-83957664D01*
X151226203Y-83957669D01*
X151177189Y-84089083D01*
X151135317Y-84145016D01*
X151069853Y-84169433D01*
X151001580Y-84154581D01*
X150973326Y-84133430D01*
X150859786Y-84019890D01*
X150687820Y-83894951D01*
X150498414Y-83798444D01*
X150498413Y-83798443D01*
X150498412Y-83798443D01*
X150296243Y-83732754D01*
X150296241Y-83732753D01*
X150296240Y-83732753D01*
X150134957Y-83707208D01*
X150086287Y-83699500D01*
X149873713Y-83699500D01*
X149825042Y-83707208D01*
X149663760Y-83732753D01*
X149461585Y-83798444D01*
X149272179Y-83894951D01*
X149100213Y-84019890D01*
X148949890Y-84170213D01*
X148824949Y-84342182D01*
X148820484Y-84350946D01*
X148772509Y-84401742D01*
X148704688Y-84418536D01*
X148638553Y-84395998D01*
X148599516Y-84350946D01*
X148595050Y-84342182D01*
X148470109Y-84170213D01*
X148319786Y-84019890D01*
X148147820Y-83894951D01*
X147958414Y-83798444D01*
X147958413Y-83798443D01*
X147958412Y-83798443D01*
X147756243Y-83732754D01*
X147756241Y-83732753D01*
X147756240Y-83732753D01*
X147594957Y-83707208D01*
X147546287Y-83699500D01*
X147333713Y-83699500D01*
X147285042Y-83707208D01*
X147123760Y-83732753D01*
X146921585Y-83798444D01*
X146732179Y-83894951D01*
X146560213Y-84019890D01*
X146409890Y-84170213D01*
X146284949Y-84342182D01*
X146280484Y-84350946D01*
X146232509Y-84401742D01*
X146164688Y-84418536D01*
X146098553Y-84395998D01*
X146059516Y-84350946D01*
X146055050Y-84342182D01*
X145930109Y-84170213D01*
X145779786Y-84019890D01*
X145607820Y-83894951D01*
X145418414Y-83798444D01*
X145418413Y-83798443D01*
X145418412Y-83798443D01*
X145216243Y-83732754D01*
X145216241Y-83732753D01*
X145216240Y-83732753D01*
X145054957Y-83707208D01*
X145006287Y-83699500D01*
X144793713Y-83699500D01*
X144745042Y-83707208D01*
X144583760Y-83732753D01*
X144381585Y-83798444D01*
X144192179Y-83894951D01*
X144020213Y-84019890D01*
X143869890Y-84170213D01*
X143744949Y-84342182D01*
X143740484Y-84350946D01*
X143692509Y-84401742D01*
X143624688Y-84418536D01*
X143558553Y-84395998D01*
X143519516Y-84350946D01*
X143515050Y-84342182D01*
X143390109Y-84170213D01*
X143239786Y-84019890D01*
X143067820Y-83894951D01*
X142878414Y-83798444D01*
X142878413Y-83798443D01*
X142878412Y-83798443D01*
X142676243Y-83732754D01*
X142676241Y-83732753D01*
X142676240Y-83732753D01*
X142514957Y-83707208D01*
X142466287Y-83699500D01*
X142253713Y-83699500D01*
X142205042Y-83707208D01*
X142043760Y-83732753D01*
X141841585Y-83798444D01*
X141652179Y-83894951D01*
X141480213Y-84019890D01*
X141329890Y-84170213D01*
X141204949Y-84342182D01*
X141200202Y-84351499D01*
X141152227Y-84402293D01*
X141084405Y-84419087D01*
X141018271Y-84396548D01*
X140979234Y-84351495D01*
X140974626Y-84342452D01*
X140935270Y-84288282D01*
X140935269Y-84288282D01*
X140302962Y-84920590D01*
X140285925Y-84857007D01*
X140220099Y-84742993D01*
X140127007Y-84649901D01*
X140012993Y-84584075D01*
X139949409Y-84567037D01*
X140581716Y-83934728D01*
X140527550Y-83895375D01*
X140338217Y-83798904D01*
X140136129Y-83733242D01*
X139926246Y-83700000D01*
X139713754Y-83700000D01*
X139503872Y-83733242D01*
X139503869Y-83733242D01*
X139301782Y-83798904D01*
X139112439Y-83895380D01*
X139058282Y-83934727D01*
X139058282Y-83934728D01*
X139690591Y-84567037D01*
X139627007Y-84584075D01*
X139512993Y-84649901D01*
X139419901Y-84742993D01*
X139354075Y-84857007D01*
X139337037Y-84920591D01*
X138704728Y-84288282D01*
X138704727Y-84288282D01*
X138665380Y-84342440D01*
X138665376Y-84342446D01*
X138660760Y-84351505D01*
X138612781Y-84402297D01*
X138544959Y-84419087D01*
X138478826Y-84396543D01*
X138439794Y-84351493D01*
X138435051Y-84342184D01*
X138435049Y-84342181D01*
X138435048Y-84342179D01*
X138310109Y-84170213D01*
X138159786Y-84019890D01*
X137987820Y-83894951D01*
X137798414Y-83798444D01*
X137798413Y-83798443D01*
X137798412Y-83798443D01*
X137596243Y-83732754D01*
X137596241Y-83732753D01*
X137596240Y-83732753D01*
X137434957Y-83707208D01*
X137386287Y-83699500D01*
X137173713Y-83699500D01*
X137125042Y-83707208D01*
X136963760Y-83732753D01*
X136761585Y-83798444D01*
X136572179Y-83894951D01*
X136400213Y-84019890D01*
X136249890Y-84170213D01*
X136124951Y-84342179D01*
X136028444Y-84531585D01*
X135962753Y-84733760D01*
X135943233Y-84857007D01*
X135929500Y-84943713D01*
X135929500Y-85156287D01*
X135939046Y-85216557D01*
X135962753Y-85366239D01*
X136028444Y-85568414D01*
X136124951Y-85757820D01*
X136249890Y-85929786D01*
X136400213Y-86080109D01*
X136572179Y-86205048D01*
X136572181Y-86205049D01*
X136572184Y-86205051D01*
X136761588Y-86301557D01*
X136963757Y-86367246D01*
X137173713Y-86400500D01*
X137173714Y-86400500D01*
X137386286Y-86400500D01*
X137386287Y-86400500D01*
X137596243Y-86367246D01*
X137638523Y-86353507D01*
X137708362Y-86351511D01*
X137764521Y-86383756D01*
X139221584Y-87840820D01*
X139221586Y-87840821D01*
X139221590Y-87840824D01*
X139306682Y-87889951D01*
X139358516Y-87919877D01*
X139492827Y-87955866D01*
X139552485Y-87992230D01*
X139583014Y-88055078D01*
X139574719Y-88124453D01*
X139530234Y-88178331D01*
X139480130Y-88198113D01*
X139395464Y-88211523D01*
X139200776Y-88274781D01*
X139018386Y-88367715D01*
X138852786Y-88488028D01*
X138708028Y-88632786D01*
X138587715Y-88798386D01*
X138540485Y-88891080D01*
X138492510Y-88941876D01*
X138424689Y-88958671D01*
X138358554Y-88936134D01*
X138319515Y-88891080D01*
X138318883Y-88889840D01*
X138272287Y-88798390D01*
X138240092Y-88754077D01*
X138151971Y-88632786D01*
X138007213Y-88488028D01*
X137841613Y-88367715D01*
X137841612Y-88367714D01*
X137841610Y-88367713D01*
X137765135Y-88328747D01*
X137659223Y-88274781D01*
X137464534Y-88211522D01*
X137289995Y-88183878D01*
X137262352Y-88179500D01*
X137057648Y-88179500D01*
X137033329Y-88183351D01*
X136855465Y-88211522D01*
X136660776Y-88274781D01*
X136478386Y-88367715D01*
X136312786Y-88488028D01*
X136168028Y-88632786D01*
X136047715Y-88798386D01*
X135954781Y-88980776D01*
X135891522Y-89175465D01*
X135859500Y-89377648D01*
X135859500Y-89582351D01*
X135891522Y-89784534D01*
X135954781Y-89979223D01*
X136003636Y-90075104D01*
X136047585Y-90161359D01*
X136047715Y-90161613D01*
X136168028Y-90327213D01*
X136312786Y-90471971D01*
X136426917Y-90554890D01*
X136478390Y-90592287D01*
X136569840Y-90638883D01*
X136571080Y-90639515D01*
X136621876Y-90687490D01*
X136638671Y-90755311D01*
X136616134Y-90821446D01*
X136571080Y-90860485D01*
X136478386Y-90907715D01*
X136312786Y-91028028D01*
X136168028Y-91172786D01*
X136047715Y-91338386D01*
X135954781Y-91520776D01*
X135891522Y-91715465D01*
X135859500Y-91917648D01*
X135859500Y-92122351D01*
X135891522Y-92324534D01*
X135954781Y-92519223D01*
X136047715Y-92701613D01*
X136168028Y-92867213D01*
X136312786Y-93011971D01*
X136426917Y-93094890D01*
X136478390Y-93132287D01*
X136569743Y-93178834D01*
X136571080Y-93179515D01*
X136621876Y-93227490D01*
X136638671Y-93295311D01*
X136616134Y-93361446D01*
X136571080Y-93400485D01*
X136478386Y-93447715D01*
X136312786Y-93568028D01*
X136168028Y-93712786D01*
X136047715Y-93878386D01*
X135954781Y-94060776D01*
X135891522Y-94255465D01*
X135859500Y-94457648D01*
X135859500Y-94662351D01*
X135891522Y-94864534D01*
X135954781Y-95059223D01*
X136047715Y-95241613D01*
X136168028Y-95407213D01*
X136312786Y-95551971D01*
X136426917Y-95634890D01*
X136478390Y-95672287D01*
X136569840Y-95718883D01*
X136571080Y-95719515D01*
X136621876Y-95767490D01*
X136638671Y-95835311D01*
X136616134Y-95901446D01*
X136571080Y-95940485D01*
X136478386Y-95987715D01*
X136312786Y-96108028D01*
X136168028Y-96252786D01*
X136047715Y-96418386D01*
X135954781Y-96600776D01*
X135891522Y-96795465D01*
X135859500Y-96997648D01*
X135859500Y-97202351D01*
X135891522Y-97404534D01*
X135954781Y-97599223D01*
X136047715Y-97781613D01*
X136168028Y-97947213D01*
X136312786Y-98091971D01*
X136426917Y-98174890D01*
X136478390Y-98212287D01*
X136569840Y-98258883D01*
X136571080Y-98259515D01*
X136621876Y-98307490D01*
X136638671Y-98375311D01*
X136616134Y-98441446D01*
X136571080Y-98480485D01*
X136478386Y-98527715D01*
X136312786Y-98648028D01*
X136168028Y-98792786D01*
X136047715Y-98958386D01*
X135954781Y-99140776D01*
X135891522Y-99335465D01*
X135859500Y-99537648D01*
X135859500Y-99742351D01*
X135891522Y-99944534D01*
X135954781Y-100139223D01*
X136047715Y-100321613D01*
X136168028Y-100487213D01*
X136312786Y-100631971D01*
X136426917Y-100714890D01*
X136478390Y-100752287D01*
X136569840Y-100798883D01*
X136571080Y-100799515D01*
X136621876Y-100847490D01*
X136638671Y-100915311D01*
X136616134Y-100981446D01*
X136571080Y-101020485D01*
X136478386Y-101067715D01*
X136312786Y-101188028D01*
X136168028Y-101332786D01*
X136047715Y-101498386D01*
X135954781Y-101680776D01*
X135891522Y-101875465D01*
X135859500Y-102077648D01*
X135859500Y-102282351D01*
X135891522Y-102484534D01*
X135954781Y-102679223D01*
X136047715Y-102861613D01*
X136168028Y-103027213D01*
X136312786Y-103171971D01*
X136426917Y-103254890D01*
X136478390Y-103292287D01*
X136569840Y-103338883D01*
X136571080Y-103339515D01*
X136621876Y-103387490D01*
X136638671Y-103455311D01*
X136616134Y-103521446D01*
X136571080Y-103560485D01*
X136478386Y-103607715D01*
X136312786Y-103728028D01*
X136168028Y-103872786D01*
X136047715Y-104038386D01*
X135954781Y-104220776D01*
X135891522Y-104415465D01*
X135859500Y-104617648D01*
X135859500Y-104822351D01*
X135891522Y-105024534D01*
X135954781Y-105219223D01*
X136047715Y-105401613D01*
X136168028Y-105567213D01*
X136312786Y-105711971D01*
X136426917Y-105794890D01*
X136478390Y-105832287D01*
X136569840Y-105878883D01*
X136571080Y-105879515D01*
X136621876Y-105927490D01*
X136638671Y-105995311D01*
X136616134Y-106061446D01*
X136571080Y-106100485D01*
X136478386Y-106147715D01*
X136312786Y-106268028D01*
X136168028Y-106412786D01*
X136047715Y-106578386D01*
X135954781Y-106760776D01*
X135891522Y-106955465D01*
X135859500Y-107157648D01*
X135859500Y-107362351D01*
X135891522Y-107564534D01*
X135954781Y-107759223D01*
X136047715Y-107941613D01*
X136168028Y-108107213D01*
X136312786Y-108251971D01*
X136426917Y-108334890D01*
X136478390Y-108372287D01*
X136569840Y-108418883D01*
X136571080Y-108419515D01*
X136621876Y-108467490D01*
X136638671Y-108535311D01*
X136616134Y-108601446D01*
X136571080Y-108640485D01*
X136478386Y-108687715D01*
X136312786Y-108808028D01*
X136168028Y-108952786D01*
X136047715Y-109118386D01*
X135954781Y-109300776D01*
X135891522Y-109495465D01*
X135859500Y-109697648D01*
X135859500Y-109902351D01*
X135891522Y-110104534D01*
X135954781Y-110299223D01*
X136047715Y-110481613D01*
X136168028Y-110647213D01*
X136312786Y-110791971D01*
X136426917Y-110874890D01*
X136478390Y-110912287D01*
X136569840Y-110958883D01*
X136571080Y-110959515D01*
X136621876Y-111007490D01*
X136638671Y-111075311D01*
X136616134Y-111141446D01*
X136571080Y-111180485D01*
X136478386Y-111227715D01*
X136312786Y-111348028D01*
X136168028Y-111492786D01*
X136047715Y-111658386D01*
X135954781Y-111840776D01*
X135891522Y-112035465D01*
X135859500Y-112237648D01*
X135859500Y-112442351D01*
X135891522Y-112644534D01*
X135954781Y-112839223D01*
X136047715Y-113021613D01*
X136168028Y-113187213D01*
X136312786Y-113331971D01*
X136426917Y-113414890D01*
X136478390Y-113452287D01*
X136569840Y-113498883D01*
X136571080Y-113499515D01*
X136621876Y-113547490D01*
X136638671Y-113615311D01*
X136616134Y-113681446D01*
X136571080Y-113720485D01*
X136478386Y-113767715D01*
X136312786Y-113888028D01*
X136168028Y-114032786D01*
X136047715Y-114198386D01*
X135954781Y-114380776D01*
X135891522Y-114575465D01*
X135859500Y-114777648D01*
X135859500Y-114982351D01*
X135891522Y-115184534D01*
X135954781Y-115379223D01*
X136047715Y-115561613D01*
X136168028Y-115727213D01*
X136312786Y-115871971D01*
X136426917Y-115954890D01*
X136478390Y-115992287D01*
X136569840Y-116038883D01*
X136571080Y-116039515D01*
X136621876Y-116087490D01*
X136638671Y-116155311D01*
X136616134Y-116221446D01*
X136571080Y-116260485D01*
X136478386Y-116307715D01*
X136312786Y-116428028D01*
X136168028Y-116572786D01*
X136047715Y-116738386D01*
X135954781Y-116920776D01*
X135891522Y-117115465D01*
X135859500Y-117317648D01*
X135859500Y-117522351D01*
X135891522Y-117724534D01*
X135954781Y-117919223D01*
X136047715Y-118101613D01*
X136168028Y-118267213D01*
X136312786Y-118411971D01*
X136478385Y-118532284D01*
X136478387Y-118532285D01*
X136478390Y-118532287D01*
X136571080Y-118579515D01*
X136571630Y-118579795D01*
X136622426Y-118627770D01*
X136639221Y-118695591D01*
X136616684Y-118761725D01*
X136571630Y-118800765D01*
X136478644Y-118848143D01*
X136434077Y-118880523D01*
X136434077Y-118880524D01*
X136989766Y-119436212D01*
X136947708Y-119447482D01*
X136822292Y-119519890D01*
X136719890Y-119622292D01*
X136647482Y-119747708D01*
X136636212Y-119789765D01*
X136080524Y-119234077D01*
X136080523Y-119234077D01*
X136048143Y-119278644D01*
X135955244Y-119460968D01*
X135892009Y-119655582D01*
X135860000Y-119857682D01*
X135860000Y-120062317D01*
X135892009Y-120264417D01*
X135955244Y-120459031D01*
X136048141Y-120641350D01*
X136048147Y-120641359D01*
X136080523Y-120685921D01*
X136080524Y-120685922D01*
X136636212Y-120130234D01*
X136647482Y-120172292D01*
X136719890Y-120297708D01*
X136822292Y-120400110D01*
X136947708Y-120472518D01*
X136989765Y-120483787D01*
X136434076Y-121039474D01*
X136478652Y-121071861D01*
X136571628Y-121119234D01*
X136622425Y-121167208D01*
X136639220Y-121235029D01*
X136616683Y-121301164D01*
X136571630Y-121340203D01*
X136478388Y-121387713D01*
X136312786Y-121508028D01*
X136168028Y-121652786D01*
X136047715Y-121818386D01*
X135954781Y-122000776D01*
X135891522Y-122195465D01*
X135874604Y-122302286D01*
X135859500Y-122397648D01*
X135859500Y-122602352D01*
X135862704Y-122622580D01*
X135891522Y-122804534D01*
X135954781Y-122999223D01*
X136047714Y-123181612D01*
X136050226Y-123185711D01*
X136068470Y-123253157D01*
X136047353Y-123319759D01*
X135993581Y-123364372D01*
X135944498Y-123374500D01*
X128004500Y-123374500D01*
X127937461Y-123354815D01*
X127891706Y-123302011D01*
X127880500Y-123250500D01*
X127880500Y-119260400D01*
X128179500Y-119260400D01*
X128179500Y-119589600D01*
X128182720Y-119622292D01*
X128211765Y-119917201D01*
X128211768Y-119917218D01*
X128275984Y-120240066D01*
X128275987Y-120240077D01*
X128371552Y-120555112D01*
X128497528Y-120859244D01*
X128497535Y-120859258D01*
X128652707Y-121149567D01*
X128652718Y-121149585D01*
X128835601Y-121423289D01*
X128835611Y-121423303D01*
X129044453Y-121677777D01*
X129277222Y-121910546D01*
X129277227Y-121910550D01*
X129277228Y-121910551D01*
X129531702Y-122119393D01*
X129805421Y-122302286D01*
X130095749Y-122457469D01*
X130399889Y-122583448D01*
X130714913Y-122679010D01*
X130714919Y-122679011D01*
X130714922Y-122679012D01*
X130714933Y-122679015D01*
X130895361Y-122714903D01*
X131037787Y-122743233D01*
X131365400Y-122775500D01*
X131365403Y-122775500D01*
X131694597Y-122775500D01*
X131694600Y-122775500D01*
X132022213Y-122743233D01*
X132199760Y-122707916D01*
X132345066Y-122679015D01*
X132345077Y-122679012D01*
X132345077Y-122679011D01*
X132345087Y-122679010D01*
X132660111Y-122583448D01*
X132964251Y-122457469D01*
X133254579Y-122302286D01*
X133528298Y-122119393D01*
X133782772Y-121910551D01*
X134015551Y-121677772D01*
X134224393Y-121423298D01*
X134407286Y-121149579D01*
X134562469Y-120859251D01*
X134688448Y-120555111D01*
X134784010Y-120240087D01*
X134784012Y-120240077D01*
X134784015Y-120240066D01*
X134819363Y-120062352D01*
X134848233Y-119917213D01*
X134851151Y-119887591D01*
X134855773Y-119840662D01*
X134877280Y-119622292D01*
X134880500Y-119589600D01*
X134880500Y-119260400D01*
X134848233Y-118932787D01*
X134814207Y-118761725D01*
X134784015Y-118609933D01*
X134784012Y-118609922D01*
X134784011Y-118609919D01*
X134784010Y-118609913D01*
X134688448Y-118294889D01*
X134562469Y-117990749D01*
X134407286Y-117700421D01*
X134224393Y-117426702D01*
X134015551Y-117172228D01*
X134015550Y-117172227D01*
X134015546Y-117172222D01*
X133782777Y-116939453D01*
X133528303Y-116730611D01*
X133528302Y-116730610D01*
X133528298Y-116730607D01*
X133254579Y-116547714D01*
X133254574Y-116547711D01*
X133254567Y-116547707D01*
X132964258Y-116392535D01*
X132964251Y-116392531D01*
X132964244Y-116392528D01*
X132660112Y-116266552D01*
X132345077Y-116170987D01*
X132345066Y-116170984D01*
X132022218Y-116106768D01*
X132022213Y-116106767D01*
X132022211Y-116106766D01*
X132022201Y-116106765D01*
X131781522Y-116083061D01*
X131694600Y-116074500D01*
X131365400Y-116074500D01*
X131285540Y-116082365D01*
X131037798Y-116106765D01*
X131037781Y-116106768D01*
X130714933Y-116170984D01*
X130714922Y-116170987D01*
X130399887Y-116266552D01*
X130095755Y-116392528D01*
X130095741Y-116392535D01*
X129805432Y-116547707D01*
X129805414Y-116547718D01*
X129531710Y-116730601D01*
X129531696Y-116730611D01*
X129277222Y-116939453D01*
X129044453Y-117172222D01*
X128835611Y-117426696D01*
X128835601Y-117426710D01*
X128652718Y-117700414D01*
X128652707Y-117700432D01*
X128497535Y-117990741D01*
X128497528Y-117990755D01*
X128371552Y-118294887D01*
X128275987Y-118609922D01*
X128275984Y-118609933D01*
X128211768Y-118932781D01*
X128211765Y-118932798D01*
X128188751Y-119166473D01*
X128179500Y-119260400D01*
X127880500Y-119260400D01*
X127880500Y-86810403D01*
X128179500Y-86810403D01*
X128179500Y-87139596D01*
X128211765Y-87467201D01*
X128211768Y-87467218D01*
X128275984Y-87790066D01*
X128275987Y-87790077D01*
X128371552Y-88105112D01*
X128497528Y-88409244D01*
X128497535Y-88409258D01*
X128652707Y-88699567D01*
X128652718Y-88699585D01*
X128835601Y-88973289D01*
X128835611Y-88973303D01*
X129044453Y-89227777D01*
X129277222Y-89460546D01*
X129277227Y-89460550D01*
X129277228Y-89460551D01*
X129531702Y-89669393D01*
X129805421Y-89852286D01*
X130095749Y-90007469D01*
X130399889Y-90133448D01*
X130714913Y-90229010D01*
X130714919Y-90229011D01*
X130714922Y-90229012D01*
X130714933Y-90229015D01*
X130895361Y-90264903D01*
X131037787Y-90293233D01*
X131365400Y-90325500D01*
X131365403Y-90325500D01*
X131694597Y-90325500D01*
X131694600Y-90325500D01*
X132022213Y-90293233D01*
X132199760Y-90257916D01*
X132345066Y-90229015D01*
X132345077Y-90229012D01*
X132345077Y-90229011D01*
X132345087Y-90229010D01*
X132660111Y-90133448D01*
X132964251Y-90007469D01*
X133254579Y-89852286D01*
X133528298Y-89669393D01*
X133782772Y-89460551D01*
X134015551Y-89227772D01*
X134224393Y-88973298D01*
X134407286Y-88699579D01*
X134562469Y-88409251D01*
X134688448Y-88105111D01*
X134784010Y-87790087D01*
X134784012Y-87790077D01*
X134784015Y-87790066D01*
X134822433Y-87596919D01*
X134848233Y-87467213D01*
X134880500Y-87139600D01*
X134880500Y-86810400D01*
X134848233Y-86482787D01*
X134813502Y-86308180D01*
X134784015Y-86159933D01*
X134784012Y-86159922D01*
X134784011Y-86159919D01*
X134784010Y-86159913D01*
X134688448Y-85844889D01*
X134562469Y-85540749D01*
X134407286Y-85250421D01*
X134224393Y-84976702D01*
X134015551Y-84722228D01*
X134015550Y-84722227D01*
X134015546Y-84722222D01*
X133782777Y-84489453D01*
X133528303Y-84280611D01*
X133528302Y-84280610D01*
X133528298Y-84280607D01*
X133254579Y-84097714D01*
X133254574Y-84097711D01*
X133254567Y-84097707D01*
X132964258Y-83942535D01*
X132964251Y-83942531D01*
X132945413Y-83934728D01*
X132660112Y-83816552D01*
X132345077Y-83720987D01*
X132345066Y-83720984D01*
X132022218Y-83656768D01*
X132022213Y-83656767D01*
X132022211Y-83656766D01*
X132022201Y-83656765D01*
X131781522Y-83633061D01*
X131694600Y-83624500D01*
X131365400Y-83624500D01*
X131285540Y-83632365D01*
X131037798Y-83656765D01*
X131037781Y-83656768D01*
X130714933Y-83720984D01*
X130714922Y-83720987D01*
X130399887Y-83816552D01*
X130095755Y-83942528D01*
X130095741Y-83942535D01*
X129805432Y-84097707D01*
X129805414Y-84097718D01*
X129531710Y-84280601D01*
X129531696Y-84280611D01*
X129277222Y-84489453D01*
X129044453Y-84722222D01*
X128835611Y-84976696D01*
X128835601Y-84976710D01*
X128652718Y-85250414D01*
X128652707Y-85250432D01*
X128497535Y-85540741D01*
X128497528Y-85540755D01*
X128371552Y-85844887D01*
X128275987Y-86159922D01*
X128275984Y-86159933D01*
X128211768Y-86482781D01*
X128211765Y-86482798D01*
X128179500Y-86810403D01*
X127880500Y-86810403D01*
X127880500Y-81584139D01*
X129071500Y-81584139D01*
X129071500Y-81765860D01*
X129099928Y-81945347D01*
X129099928Y-81945350D01*
X129156081Y-82118171D01*
X129156083Y-82118174D01*
X129238583Y-82280090D01*
X129345397Y-82427106D01*
X129473894Y-82555603D01*
X129620910Y-82662417D01*
X129782826Y-82744917D01*
X129782828Y-82744918D01*
X129944029Y-82797294D01*
X129955654Y-82801072D01*
X130135139Y-82829500D01*
X130135140Y-82829500D01*
X131624860Y-82829500D01*
X131624861Y-82829500D01*
X131804346Y-82801072D01*
X131804349Y-82801071D01*
X131804350Y-82801071D01*
X131977171Y-82744918D01*
X131977171Y-82744917D01*
X131977174Y-82744917D01*
X132139090Y-82662417D01*
X132286106Y-82555603D01*
X132414603Y-82427106D01*
X132521417Y-82280090D01*
X132603917Y-82118174D01*
X132649752Y-81977108D01*
X132660071Y-81945350D01*
X132660071Y-81945349D01*
X132660072Y-81945346D01*
X132688500Y-81765861D01*
X132688500Y-81584139D01*
X132660072Y-81404654D01*
X132660071Y-81404650D01*
X132660071Y-81404649D01*
X132603918Y-81231828D01*
X132603915Y-81231820D01*
X132580345Y-81185563D01*
X132580344Y-81185561D01*
X132554143Y-81134139D01*
X137071500Y-81134139D01*
X137071500Y-81315860D01*
X137099928Y-81495347D01*
X137099928Y-81495350D01*
X137156081Y-81668171D01*
X137156083Y-81668174D01*
X137238583Y-81830090D01*
X137345397Y-81977106D01*
X137473894Y-82105603D01*
X137620910Y-82212417D01*
X137782826Y-82294917D01*
X137782828Y-82294918D01*
X137944029Y-82347294D01*
X137955654Y-82351072D01*
X138135139Y-82379500D01*
X138135140Y-82379500D01*
X139624860Y-82379500D01*
X139624861Y-82379500D01*
X139804346Y-82351072D01*
X139804349Y-82351071D01*
X139804350Y-82351071D01*
X139977171Y-82294918D01*
X139977171Y-82294917D01*
X139977174Y-82294917D01*
X140139090Y-82212417D01*
X140286106Y-82105603D01*
X140414603Y-81977106D01*
X140521417Y-81830090D01*
X140603917Y-81668174D01*
X140648394Y-81531287D01*
X140660071Y-81495350D01*
X140660071Y-81495349D01*
X140660072Y-81495346D01*
X140688500Y-81315861D01*
X140688500Y-81134139D01*
X140660072Y-80954654D01*
X140660071Y-80954650D01*
X140660071Y-80954649D01*
X140603918Y-80781828D01*
X140603916Y-80781825D01*
X140575434Y-80725924D01*
X140521417Y-80619910D01*
X140414603Y-80472894D01*
X140286106Y-80344397D01*
X140184048Y-80270247D01*
X140141384Y-80214917D01*
X140135405Y-80145304D01*
X140168011Y-80083509D01*
X140200637Y-80059447D01*
X140285090Y-80016417D01*
X140432106Y-79909603D01*
X140560603Y-79781106D01*
X140667417Y-79634090D01*
X140749917Y-79472174D01*
X140749918Y-79472171D01*
X140806071Y-79299350D01*
X140806071Y-79299349D01*
X140806072Y-79299346D01*
X140834500Y-79119861D01*
X140834500Y-77630139D01*
X140806072Y-77450654D01*
X140806071Y-77450650D01*
X140806071Y-77450649D01*
X140749918Y-77277828D01*
X140749916Y-77277825D01*
X140722895Y-77224792D01*
X140667417Y-77115910D01*
X140560603Y-76968894D01*
X140432106Y-76840397D01*
X140285090Y-76733583D01*
X140200139Y-76690298D01*
X140149344Y-76642324D01*
X140132549Y-76574504D01*
X140155086Y-76508369D01*
X140183550Y-76479496D01*
X140285776Y-76405224D01*
X140285782Y-76405219D01*
X140414219Y-76276782D01*
X140414219Y-76276781D01*
X140520988Y-76129828D01*
X140603451Y-75967984D01*
X140659584Y-75795225D01*
X140662788Y-75775000D01*
X139545686Y-75775000D01*
X139550080Y-75770606D01*
X139602741Y-75679394D01*
X139630000Y-75577661D01*
X139630000Y-75472339D01*
X139602741Y-75370606D01*
X139550080Y-75279394D01*
X139545686Y-75275000D01*
X140662788Y-75275000D01*
X140659584Y-75254774D01*
X140603451Y-75082015D01*
X140520988Y-74920171D01*
X140414219Y-74773218D01*
X140414219Y-74773217D01*
X140285782Y-74644780D01*
X140138828Y-74538011D01*
X139976984Y-74455548D01*
X139804225Y-74399415D01*
X139624821Y-74371000D01*
X139130000Y-74371000D01*
X139130000Y-75125000D01*
X138630000Y-75125000D01*
X138630000Y-74371000D01*
X138135179Y-74371000D01*
X137955774Y-74399415D01*
X137783015Y-74455548D01*
X137621171Y-74538011D01*
X137474218Y-74644780D01*
X137474217Y-74644780D01*
X137345780Y-74773217D01*
X137345780Y-74773218D01*
X137239011Y-74920171D01*
X137156548Y-75082015D01*
X137100415Y-75254774D01*
X137097212Y-75275000D01*
X138214314Y-75275000D01*
X138209920Y-75279394D01*
X138157259Y-75370606D01*
X138130000Y-75472339D01*
X138130000Y-75577661D01*
X138157259Y-75679394D01*
X138209920Y-75770606D01*
X138214314Y-75775000D01*
X137097212Y-75775000D01*
X137100415Y-75795225D01*
X137156548Y-75967984D01*
X137239011Y-76129828D01*
X137345780Y-76276781D01*
X137345780Y-76276782D01*
X137474217Y-76405219D01*
X137621171Y-76511988D01*
X137783015Y-76594451D01*
X137955774Y-76650584D01*
X138135179Y-76679000D01*
X138630000Y-76679000D01*
X138630000Y-75925000D01*
X139130000Y-75925000D01*
X139130000Y-76630380D01*
X139110315Y-76697419D01*
X139077836Y-76729321D01*
X139078852Y-76730719D01*
X139074910Y-76733582D01*
X139074910Y-76733583D01*
X138927894Y-76840397D01*
X138927892Y-76840399D01*
X138927891Y-76840399D01*
X138799399Y-76968891D01*
X138799399Y-76968892D01*
X138799397Y-76968894D01*
X138753525Y-77032030D01*
X138692583Y-77115909D01*
X138610083Y-77277825D01*
X138610081Y-77277828D01*
X138553928Y-77450649D01*
X138553928Y-77450652D01*
X138527898Y-77615000D01*
X138525500Y-77630139D01*
X138525500Y-79119861D01*
X138526901Y-79128704D01*
X138553928Y-79299347D01*
X138553928Y-79299350D01*
X138610081Y-79472171D01*
X138610083Y-79472174D01*
X138692583Y-79634090D01*
X138799397Y-79781106D01*
X138799399Y-79781108D01*
X138877110Y-79858819D01*
X138910595Y-79920142D01*
X138905611Y-79989834D01*
X138863739Y-80045767D01*
X138798275Y-80070184D01*
X138789429Y-80070500D01*
X138135139Y-80070500D01*
X138075310Y-80079976D01*
X137955652Y-80098928D01*
X137955649Y-80098928D01*
X137782828Y-80155081D01*
X137782825Y-80155083D01*
X137620909Y-80237583D01*
X137537030Y-80298525D01*
X137473894Y-80344397D01*
X137473892Y-80344399D01*
X137473891Y-80344399D01*
X137345399Y-80472891D01*
X137345399Y-80472892D01*
X137345397Y-80472894D01*
X137310809Y-80520500D01*
X137238583Y-80619909D01*
X137156083Y-80781825D01*
X137156081Y-80781828D01*
X137099928Y-80954649D01*
X137099928Y-80954652D01*
X137071500Y-81134139D01*
X132554143Y-81134139D01*
X132521418Y-81069911D01*
X132505371Y-81047825D01*
X132414603Y-80922894D01*
X132286106Y-80794397D01*
X132139090Y-80687583D01*
X131977174Y-80605083D01*
X131977171Y-80605081D01*
X131804348Y-80548928D01*
X131684689Y-80529976D01*
X131624861Y-80520500D01*
X130135139Y-80520500D01*
X130075310Y-80529976D01*
X129955652Y-80548928D01*
X129955649Y-80548928D01*
X129782828Y-80605081D01*
X129782825Y-80605083D01*
X129620909Y-80687583D01*
X129568138Y-80725924D01*
X129473894Y-80794397D01*
X129473892Y-80794399D01*
X129473891Y-80794399D01*
X129345399Y-80922891D01*
X129345399Y-80922892D01*
X129345397Y-80922894D01*
X129322322Y-80954654D01*
X129238583Y-81069909D01*
X129156083Y-81231825D01*
X129156081Y-81231828D01*
X129099928Y-81404649D01*
X129099928Y-81404652D01*
X129071500Y-81584139D01*
X127880500Y-81584139D01*
X127880500Y-78291228D01*
X128529500Y-78291228D01*
X128529500Y-78458771D01*
X128562182Y-78623074D01*
X128562184Y-78623082D01*
X128626295Y-78777860D01*
X128719373Y-78917162D01*
X128837837Y-79035626D01*
X128930494Y-79097537D01*
X128977137Y-79128703D01*
X129131918Y-79192816D01*
X129296228Y-79225499D01*
X129296232Y-79225500D01*
X129296233Y-79225500D01*
X129463768Y-79225500D01*
X129463769Y-79225499D01*
X129628082Y-79192816D01*
X129782863Y-79128703D01*
X129922162Y-79035626D01*
X130040626Y-78917162D01*
X130133703Y-78777863D01*
X130197816Y-78623082D01*
X130230500Y-78458767D01*
X130230500Y-78291233D01*
X130230499Y-78291228D01*
X135529500Y-78291228D01*
X135529500Y-78458771D01*
X135562182Y-78623074D01*
X135562184Y-78623082D01*
X135626295Y-78777860D01*
X135719373Y-78917162D01*
X135837837Y-79035626D01*
X135930494Y-79097537D01*
X135977137Y-79128703D01*
X136131918Y-79192816D01*
X136296228Y-79225499D01*
X136296232Y-79225500D01*
X136296233Y-79225500D01*
X136463768Y-79225500D01*
X136463769Y-79225499D01*
X136628082Y-79192816D01*
X136782863Y-79128703D01*
X136922162Y-79035626D01*
X137040626Y-78917162D01*
X137133703Y-78777863D01*
X137197816Y-78623082D01*
X137230500Y-78458767D01*
X137230500Y-78291233D01*
X137197816Y-78126918D01*
X137133703Y-77972137D01*
X137055361Y-77854890D01*
X137040626Y-77832837D01*
X136922162Y-77714373D01*
X136782860Y-77621295D01*
X136628082Y-77557184D01*
X136628074Y-77557182D01*
X136463771Y-77524500D01*
X136463767Y-77524500D01*
X136296233Y-77524500D01*
X136296228Y-77524500D01*
X136131925Y-77557182D01*
X136131917Y-77557184D01*
X135977139Y-77621295D01*
X135837837Y-77714373D01*
X135719373Y-77832837D01*
X135626295Y-77972139D01*
X135562184Y-78126917D01*
X135562182Y-78126925D01*
X135529500Y-78291228D01*
X130230499Y-78291228D01*
X130197816Y-78126918D01*
X130133703Y-77972137D01*
X130055361Y-77854890D01*
X130040626Y-77832837D01*
X129922162Y-77714373D01*
X129782860Y-77621295D01*
X129628082Y-77557184D01*
X129628074Y-77557182D01*
X129463771Y-77524500D01*
X129463767Y-77524500D01*
X129296233Y-77524500D01*
X129296228Y-77524500D01*
X129131925Y-77557182D01*
X129131917Y-77557184D01*
X128977139Y-77621295D01*
X128837837Y-77714373D01*
X128719373Y-77832837D01*
X128626295Y-77972139D01*
X128562184Y-78126917D01*
X128562182Y-78126925D01*
X128529500Y-78291228D01*
X127880500Y-78291228D01*
X127880500Y-74984139D01*
X129071500Y-74984139D01*
X129071500Y-75165861D01*
X129085583Y-75254774D01*
X129099928Y-75345347D01*
X129099928Y-75345350D01*
X129156081Y-75518171D01*
X129156083Y-75518174D01*
X129238583Y-75680090D01*
X129345397Y-75827106D01*
X129473894Y-75955603D01*
X129620910Y-76062417D01*
X129782826Y-76144917D01*
X129782828Y-76144918D01*
X129944029Y-76197294D01*
X129955654Y-76201072D01*
X130135139Y-76229500D01*
X130135140Y-76229500D01*
X131624860Y-76229500D01*
X131624861Y-76229500D01*
X131804346Y-76201072D01*
X131804349Y-76201071D01*
X131804350Y-76201071D01*
X131977171Y-76144918D01*
X131977171Y-76144917D01*
X131977174Y-76144917D01*
X132139090Y-76062417D01*
X132286106Y-75955603D01*
X132414603Y-75827106D01*
X132521417Y-75680090D01*
X132603917Y-75518174D01*
X132660072Y-75345346D01*
X132688500Y-75165861D01*
X132688500Y-74984139D01*
X132660072Y-74804654D01*
X132660071Y-74804650D01*
X132660071Y-74804649D01*
X132603918Y-74631828D01*
X132603916Y-74631825D01*
X132601363Y-74626813D01*
X132521417Y-74469910D01*
X132414603Y-74322894D01*
X132286106Y-74194397D01*
X132139090Y-74087583D01*
X131977174Y-74005083D01*
X131977171Y-74005081D01*
X131804348Y-73948928D01*
X131684689Y-73929976D01*
X131624861Y-73920500D01*
X130135139Y-73920500D01*
X130075310Y-73929976D01*
X129955652Y-73948928D01*
X129955649Y-73948928D01*
X129782828Y-74005081D01*
X129782825Y-74005083D01*
X129620909Y-74087583D01*
X129574581Y-74121243D01*
X129473894Y-74194397D01*
X129473892Y-74194399D01*
X129473891Y-74194399D01*
X129345399Y-74322891D01*
X129345399Y-74322892D01*
X129345397Y-74322894D01*
X129310446Y-74371000D01*
X129238583Y-74469909D01*
X129156083Y-74631825D01*
X129156081Y-74631828D01*
X129099928Y-74804649D01*
X129099928Y-74804652D01*
X129099928Y-74804654D01*
X129071500Y-74984139D01*
X127880500Y-74984139D01*
X127880500Y-72599500D01*
X127900185Y-72532461D01*
X127952989Y-72486706D01*
X128004500Y-72475500D01*
X156880659Y-72475500D01*
X156947698Y-72495185D01*
G37*
%TD.AperFunction*%
%TA.AperFunction,Conductor*%
G36*
X151201445Y-97643865D02*
G01*
X151240483Y-97688917D01*
X151284348Y-97775006D01*
X151287715Y-97781614D01*
X151408028Y-97947213D01*
X151552786Y-98091971D01*
X151666917Y-98174890D01*
X151718390Y-98212287D01*
X151809840Y-98258883D01*
X151811080Y-98259515D01*
X151861876Y-98307490D01*
X151878671Y-98375311D01*
X151856134Y-98441446D01*
X151811080Y-98480485D01*
X151718386Y-98527715D01*
X151552786Y-98648028D01*
X151408028Y-98792786D01*
X151287715Y-98958386D01*
X151194781Y-99140776D01*
X151131522Y-99335465D01*
X151099500Y-99537648D01*
X151099500Y-99742351D01*
X151131522Y-99944534D01*
X151194781Y-100139223D01*
X151287715Y-100321613D01*
X151408028Y-100487213D01*
X151552786Y-100631971D01*
X151666917Y-100714890D01*
X151718390Y-100752287D01*
X151809840Y-100798883D01*
X151811080Y-100799515D01*
X151861876Y-100847490D01*
X151878671Y-100915311D01*
X151856134Y-100981446D01*
X151811080Y-101020485D01*
X151718386Y-101067715D01*
X151552786Y-101188028D01*
X151408028Y-101332786D01*
X151287715Y-101498386D01*
X151194781Y-101680776D01*
X151131522Y-101875465D01*
X151099500Y-102077648D01*
X151099500Y-102282351D01*
X151131522Y-102484534D01*
X151194781Y-102679223D01*
X151287715Y-102861613D01*
X151408028Y-103027213D01*
X151552786Y-103171971D01*
X151666917Y-103254890D01*
X151718390Y-103292287D01*
X151809840Y-103338883D01*
X151811080Y-103339515D01*
X151861876Y-103387490D01*
X151878671Y-103455311D01*
X151856134Y-103521446D01*
X151811080Y-103560485D01*
X151718386Y-103607715D01*
X151552786Y-103728028D01*
X151408028Y-103872786D01*
X151287715Y-104038386D01*
X151194781Y-104220776D01*
X151131522Y-104415465D01*
X151099500Y-104617648D01*
X151099500Y-104822351D01*
X151131522Y-105024534D01*
X151194781Y-105219223D01*
X151287715Y-105401613D01*
X151408028Y-105567213D01*
X151552786Y-105711971D01*
X151666917Y-105794890D01*
X151718390Y-105832287D01*
X151809840Y-105878883D01*
X151811080Y-105879515D01*
X151861876Y-105927490D01*
X151878671Y-105995311D01*
X151856134Y-106061446D01*
X151811080Y-106100485D01*
X151718386Y-106147715D01*
X151552786Y-106268028D01*
X151408028Y-106412786D01*
X151287715Y-106578386D01*
X151194781Y-106760776D01*
X151131522Y-106955465D01*
X151099500Y-107157648D01*
X151099500Y-107362351D01*
X151131522Y-107564534D01*
X151194781Y-107759223D01*
X151287715Y-107941613D01*
X151408028Y-108107213D01*
X151552786Y-108251971D01*
X151666917Y-108334890D01*
X151718390Y-108372287D01*
X151809840Y-108418883D01*
X151811080Y-108419515D01*
X151861876Y-108467490D01*
X151878671Y-108535311D01*
X151856134Y-108601446D01*
X151811080Y-108640485D01*
X151718386Y-108687715D01*
X151552786Y-108808028D01*
X151408028Y-108952786D01*
X151287715Y-109118386D01*
X151194781Y-109300776D01*
X151131522Y-109495465D01*
X151099500Y-109697648D01*
X151099500Y-109902351D01*
X151131522Y-110104534D01*
X151194781Y-110299223D01*
X151287715Y-110481613D01*
X151408028Y-110647213D01*
X151552786Y-110791971D01*
X151666917Y-110874890D01*
X151718390Y-110912287D01*
X151809840Y-110958883D01*
X151811080Y-110959515D01*
X151861876Y-111007490D01*
X151878671Y-111075311D01*
X151856134Y-111141446D01*
X151811080Y-111180485D01*
X151718386Y-111227715D01*
X151552786Y-111348028D01*
X151408028Y-111492786D01*
X151287715Y-111658386D01*
X151194781Y-111840776D01*
X151131522Y-112035465D01*
X151099500Y-112237648D01*
X151099500Y-112442351D01*
X151131522Y-112644534D01*
X151136173Y-112658848D01*
X151138165Y-112728690D01*
X151105921Y-112784842D01*
X150929753Y-112961010D01*
X150929747Y-112961016D01*
X150926286Y-112964478D01*
X150926284Y-112964480D01*
X150814480Y-113076284D01*
X150784764Y-113127754D01*
X150779084Y-113137591D01*
X150779083Y-113137593D01*
X150750435Y-113187213D01*
X150735423Y-113213215D01*
X150694499Y-113365943D01*
X150694499Y-113365945D01*
X150694499Y-113534046D01*
X150694500Y-113534059D01*
X150694500Y-115251430D01*
X150694499Y-115251448D01*
X150694499Y-115417154D01*
X150694498Y-115417154D01*
X150735423Y-115569886D01*
X150747279Y-115590419D01*
X150747280Y-115590424D01*
X150747281Y-115590424D01*
X150814475Y-115706809D01*
X150814481Y-115706817D01*
X150933349Y-115825685D01*
X150933355Y-115825690D01*
X151456559Y-116348894D01*
X151490044Y-116410217D01*
X151485060Y-116479909D01*
X151456559Y-116524256D01*
X151408032Y-116572782D01*
X151408028Y-116572786D01*
X151287715Y-116738386D01*
X151194781Y-116920776D01*
X151131522Y-117115465D01*
X151099500Y-117317648D01*
X151099500Y-117522351D01*
X151131522Y-117724534D01*
X151194781Y-117919223D01*
X151287715Y-118101613D01*
X151408028Y-118267213D01*
X151552786Y-118411971D01*
X151666917Y-118494890D01*
X151718390Y-118532287D01*
X151809840Y-118578883D01*
X151811080Y-118579515D01*
X151861876Y-118627490D01*
X151878671Y-118695311D01*
X151856134Y-118761446D01*
X151811080Y-118800485D01*
X151718386Y-118847715D01*
X151552786Y-118968028D01*
X151408028Y-119112786D01*
X151287715Y-119278386D01*
X151194781Y-119460776D01*
X151131522Y-119655465D01*
X151099500Y-119857648D01*
X151099500Y-120062351D01*
X151131522Y-120264534D01*
X151194781Y-120459223D01*
X151256142Y-120579649D01*
X151287585Y-120641359D01*
X151287715Y-120641613D01*
X151408028Y-120807213D01*
X151552786Y-120951971D01*
X151718385Y-121072284D01*
X151718387Y-121072285D01*
X151718390Y-121072287D01*
X151787533Y-121107517D01*
X151811630Y-121119795D01*
X151862426Y-121167770D01*
X151879221Y-121235591D01*
X151856684Y-121301725D01*
X151811630Y-121340765D01*
X151718644Y-121388143D01*
X151674077Y-121420523D01*
X151674077Y-121420524D01*
X152229766Y-121976212D01*
X152187708Y-121987482D01*
X152062292Y-122059890D01*
X151959890Y-122162292D01*
X151887482Y-122287708D01*
X151876212Y-122329765D01*
X151320524Y-121774077D01*
X151320523Y-121774077D01*
X151288143Y-121818644D01*
X151195244Y-122000968D01*
X151132009Y-122195582D01*
X151100000Y-122397682D01*
X151100000Y-122602317D01*
X151132009Y-122804417D01*
X151195244Y-122999031D01*
X151288144Y-123181357D01*
X151290686Y-123185505D01*
X151288707Y-123186717D01*
X151308915Y-123243575D01*
X151293004Y-123311610D01*
X151242838Y-123360242D01*
X151185108Y-123374500D01*
X138375502Y-123374500D01*
X138308463Y-123354815D01*
X138262708Y-123302011D01*
X138252764Y-123232853D01*
X138269774Y-123185711D01*
X138272282Y-123181616D01*
X138272287Y-123181610D01*
X138365220Y-122999219D01*
X138428477Y-122804534D01*
X138460500Y-122602352D01*
X138460500Y-122397648D01*
X138443087Y-122287708D01*
X138428477Y-122195465D01*
X138384426Y-122059890D01*
X138365220Y-122000781D01*
X138365218Y-122000778D01*
X138365218Y-122000776D01*
X138272419Y-121818650D01*
X138272287Y-121818390D01*
X138240092Y-121774077D01*
X138151971Y-121652786D01*
X138007213Y-121508028D01*
X137841611Y-121387713D01*
X137748369Y-121340203D01*
X137697574Y-121292229D01*
X137680779Y-121224407D01*
X137703317Y-121158273D01*
X137748371Y-121119234D01*
X137841346Y-121071861D01*
X137841347Y-121071861D01*
X137885921Y-121039474D01*
X137330234Y-120483787D01*
X137372292Y-120472518D01*
X137497708Y-120400110D01*
X137600110Y-120297708D01*
X137672518Y-120172292D01*
X137683787Y-120130235D01*
X138239474Y-120685922D01*
X138239474Y-120685921D01*
X138271861Y-120641347D01*
X138271861Y-120641346D01*
X138319234Y-120548371D01*
X138367208Y-120497575D01*
X138435028Y-120480779D01*
X138501164Y-120503316D01*
X138540203Y-120548369D01*
X138587713Y-120641611D01*
X138708028Y-120807213D01*
X138852786Y-120951971D01*
X138973226Y-121039474D01*
X139018390Y-121072287D01*
X139087533Y-121107517D01*
X139200776Y-121165218D01*
X139200778Y-121165218D01*
X139200781Y-121165220D01*
X139305137Y-121199127D01*
X139395465Y-121228477D01*
X139440381Y-121235591D01*
X139597648Y-121260500D01*
X139597649Y-121260500D01*
X139802351Y-121260500D01*
X139802352Y-121260500D01*
X140004534Y-121228477D01*
X140199219Y-121165220D01*
X140381610Y-121072287D01*
X140518724Y-120972669D01*
X140547213Y-120951971D01*
X140547215Y-120951968D01*
X140547219Y-120951966D01*
X140691966Y-120807219D01*
X140691968Y-120807215D01*
X140691971Y-120807213D01*
X140766033Y-120705274D01*
X140812287Y-120641610D01*
X140905220Y-120459219D01*
X140968477Y-120264534D01*
X141000500Y-120062352D01*
X141000500Y-119857648D01*
X140983087Y-119747708D01*
X140968477Y-119655465D01*
X140924426Y-119519890D01*
X140905220Y-119460781D01*
X140905218Y-119460778D01*
X140905218Y-119460776D01*
X140812420Y-119278652D01*
X140812287Y-119278390D01*
X140780092Y-119234077D01*
X140691971Y-119112786D01*
X140547213Y-118968028D01*
X140381613Y-118847715D01*
X140381612Y-118847714D01*
X140381610Y-118847713D01*
X140289470Y-118800765D01*
X140199223Y-118754781D01*
X140004534Y-118691522D01*
X139829995Y-118663878D01*
X139802352Y-118659500D01*
X139597648Y-118659500D01*
X139573329Y-118663351D01*
X139395465Y-118691522D01*
X139200776Y-118754781D01*
X139018386Y-118847715D01*
X138852786Y-118968028D01*
X138708028Y-119112786D01*
X138587713Y-119278388D01*
X138540203Y-119371630D01*
X138492228Y-119422426D01*
X138424407Y-119439220D01*
X138358272Y-119416682D01*
X138319234Y-119371628D01*
X138271861Y-119278652D01*
X138239474Y-119234077D01*
X138239474Y-119234076D01*
X137683787Y-119789764D01*
X137672518Y-119747708D01*
X137600110Y-119622292D01*
X137497708Y-119519890D01*
X137372292Y-119447482D01*
X137330233Y-119436212D01*
X137885922Y-118880524D01*
X137885921Y-118880523D01*
X137841359Y-118848147D01*
X137841350Y-118848141D01*
X137748369Y-118800765D01*
X137697573Y-118752790D01*
X137680778Y-118684969D01*
X137703315Y-118618835D01*
X137748370Y-118579795D01*
X137748920Y-118579515D01*
X137841610Y-118532287D01*
X137893083Y-118494890D01*
X138007213Y-118411971D01*
X138007215Y-118411968D01*
X138007219Y-118411966D01*
X138151966Y-118267219D01*
X138151968Y-118267215D01*
X138151971Y-118267213D01*
X138212750Y-118183556D01*
X138272287Y-118101610D01*
X138365220Y-117919219D01*
X138428477Y-117724534D01*
X138460500Y-117522352D01*
X138460500Y-117317648D01*
X138437467Y-117172228D01*
X138428477Y-117115465D01*
X138371287Y-116939453D01*
X138365220Y-116920781D01*
X138365218Y-116920778D01*
X138365218Y-116920776D01*
X138330422Y-116852486D01*
X138272287Y-116738390D01*
X138264556Y-116727749D01*
X138151971Y-116572786D01*
X138007213Y-116428028D01*
X137841614Y-116307715D01*
X137835006Y-116304348D01*
X137748917Y-116260483D01*
X137698123Y-116212511D01*
X137681328Y-116144690D01*
X137703865Y-116078555D01*
X137748917Y-116039516D01*
X137841610Y-115992287D01*
X137893083Y-115954890D01*
X138007213Y-115871971D01*
X138007215Y-115871968D01*
X138007219Y-115871966D01*
X138151966Y-115727219D01*
X138151968Y-115727215D01*
X138151971Y-115727213D01*
X138212750Y-115643556D01*
X138272287Y-115561610D01*
X138365220Y-115379219D01*
X138428477Y-115184534D01*
X138460500Y-114982352D01*
X138460500Y-114777648D01*
X138428477Y-114575466D01*
X138420620Y-114551286D01*
X138399127Y-114485137D01*
X138365220Y-114380781D01*
X138365218Y-114380778D01*
X138365218Y-114380776D01*
X138321780Y-114295525D01*
X138272287Y-114198390D01*
X138264556Y-114187749D01*
X138151971Y-114032786D01*
X138007213Y-113888028D01*
X137841614Y-113767715D01*
X137835006Y-113764348D01*
X137748917Y-113720483D01*
X137698123Y-113672511D01*
X137681328Y-113604690D01*
X137703865Y-113538555D01*
X137748917Y-113499516D01*
X137841610Y-113452287D01*
X137960451Y-113365945D01*
X138007213Y-113331971D01*
X138007215Y-113331968D01*
X138007219Y-113331966D01*
X138151966Y-113187219D01*
X138151968Y-113187215D01*
X138151971Y-113187213D01*
X138241114Y-113064516D01*
X138272287Y-113021610D01*
X138365220Y-112839219D01*
X138428477Y-112644534D01*
X138460500Y-112442352D01*
X138460500Y-112237648D01*
X138428477Y-112035466D01*
X138420620Y-112011286D01*
X138399127Y-111945137D01*
X138365220Y-111840781D01*
X138365218Y-111840778D01*
X138365218Y-111840776D01*
X138315362Y-111742930D01*
X138272287Y-111658390D01*
X138264556Y-111647749D01*
X138151971Y-111492786D01*
X138007213Y-111348028D01*
X137841614Y-111227715D01*
X137835006Y-111224348D01*
X137748917Y-111180483D01*
X137698123Y-111132511D01*
X137681328Y-111064690D01*
X137703865Y-110998555D01*
X137748917Y-110959516D01*
X137841610Y-110912287D01*
X137893083Y-110874890D01*
X138007213Y-110791971D01*
X138007215Y-110791968D01*
X138007219Y-110791966D01*
X138151966Y-110647219D01*
X138151968Y-110647215D01*
X138151971Y-110647213D01*
X138212750Y-110563556D01*
X138272287Y-110481610D01*
X138365220Y-110299219D01*
X138428477Y-110104534D01*
X138460500Y-109902352D01*
X138460500Y-109697648D01*
X138428477Y-109495466D01*
X138425356Y-109485862D01*
X138392290Y-109384094D01*
X138365220Y-109300781D01*
X138365218Y-109300778D01*
X138365218Y-109300776D01*
X138314133Y-109200517D01*
X138272287Y-109118390D01*
X138264556Y-109107749D01*
X138151971Y-108952786D01*
X138007213Y-108808028D01*
X137841614Y-108687715D01*
X137835006Y-108684348D01*
X137748917Y-108640483D01*
X137698123Y-108592511D01*
X137681328Y-108524690D01*
X137703865Y-108458555D01*
X137748917Y-108419516D01*
X137841610Y-108372287D01*
X137893083Y-108334890D01*
X138007213Y-108251971D01*
X138007215Y-108251968D01*
X138007219Y-108251966D01*
X138151966Y-108107219D01*
X138151968Y-108107215D01*
X138151971Y-108107213D01*
X138212750Y-108023556D01*
X138272287Y-107941610D01*
X138365220Y-107759219D01*
X138428477Y-107564534D01*
X138460500Y-107362352D01*
X138460500Y-107157648D01*
X138428477Y-106955466D01*
X138420620Y-106931286D01*
X138399127Y-106865137D01*
X138365220Y-106760781D01*
X138365218Y-106760778D01*
X138365218Y-106760776D01*
X138315362Y-106662930D01*
X138272287Y-106578390D01*
X138264556Y-106567749D01*
X138151971Y-106412786D01*
X138007213Y-106268028D01*
X137841614Y-106147715D01*
X137835006Y-106144348D01*
X137748917Y-106100483D01*
X137698123Y-106052511D01*
X137681328Y-105984690D01*
X137703865Y-105918555D01*
X137748917Y-105879516D01*
X137841610Y-105832287D01*
X137893083Y-105794890D01*
X138007213Y-105711971D01*
X138007215Y-105711968D01*
X138007219Y-105711966D01*
X138151966Y-105567219D01*
X138151968Y-105567215D01*
X138151971Y-105567213D01*
X138212750Y-105483556D01*
X138272287Y-105401610D01*
X138365220Y-105219219D01*
X138428477Y-105024534D01*
X138460500Y-104822352D01*
X138460500Y-104617648D01*
X138428477Y-104415466D01*
X138420620Y-104391286D01*
X138399127Y-104325137D01*
X138365220Y-104220781D01*
X138365218Y-104220778D01*
X138365218Y-104220776D01*
X138315362Y-104122930D01*
X138272287Y-104038390D01*
X138264556Y-104027749D01*
X138151971Y-103872786D01*
X138007213Y-103728028D01*
X137841614Y-103607715D01*
X137835006Y-103604348D01*
X137748917Y-103560483D01*
X137698123Y-103512511D01*
X137681328Y-103444690D01*
X137703865Y-103378555D01*
X137748917Y-103339516D01*
X137841610Y-103292287D01*
X137893083Y-103254890D01*
X138007213Y-103171971D01*
X138007215Y-103171968D01*
X138007219Y-103171966D01*
X138151966Y-103027219D01*
X138151968Y-103027215D01*
X138151971Y-103027213D01*
X138212750Y-102943556D01*
X138272287Y-102861610D01*
X138365220Y-102679219D01*
X138428477Y-102484534D01*
X138460500Y-102282352D01*
X138460500Y-102077648D01*
X138428477Y-101875466D01*
X138425356Y-101865862D01*
X138365218Y-101680776D01*
X138314133Y-101580517D01*
X138272287Y-101498390D01*
X138264556Y-101487749D01*
X138151971Y-101332786D01*
X138007213Y-101188028D01*
X137841614Y-101067715D01*
X137835006Y-101064348D01*
X137748917Y-101020483D01*
X137698123Y-100972511D01*
X137681328Y-100904690D01*
X137703865Y-100838555D01*
X137748917Y-100799516D01*
X137841610Y-100752287D01*
X137893083Y-100714890D01*
X138007213Y-100631971D01*
X138007215Y-100631968D01*
X138007219Y-100631966D01*
X138151966Y-100487219D01*
X138151968Y-100487215D01*
X138151971Y-100487213D01*
X138212750Y-100403556D01*
X138272287Y-100321610D01*
X138365220Y-100139219D01*
X138428477Y-99944534D01*
X138460500Y-99742352D01*
X138460500Y-99537648D01*
X138428477Y-99335466D01*
X138420620Y-99311286D01*
X138365218Y-99140776D01*
X138331503Y-99074607D01*
X138272287Y-98958390D01*
X138264556Y-98947749D01*
X138151971Y-98792786D01*
X138007213Y-98648028D01*
X137841614Y-98527715D01*
X137835006Y-98524348D01*
X137748917Y-98480483D01*
X137698123Y-98432511D01*
X137681328Y-98364690D01*
X137703865Y-98298555D01*
X137748917Y-98259516D01*
X137841610Y-98212287D01*
X137893083Y-98174890D01*
X138007213Y-98091971D01*
X138007215Y-98091968D01*
X138007219Y-98091966D01*
X138151966Y-97947219D01*
X138151968Y-97947215D01*
X138151971Y-97947213D01*
X138272284Y-97781614D01*
X138272285Y-97781613D01*
X138272287Y-97781610D01*
X138319516Y-97688917D01*
X138367489Y-97638123D01*
X138435310Y-97621328D01*
X138501445Y-97643865D01*
X138540483Y-97688917D01*
X138584348Y-97775006D01*
X138587715Y-97781614D01*
X138708028Y-97947213D01*
X138852786Y-98091971D01*
X138966917Y-98174890D01*
X139018390Y-98212287D01*
X139111080Y-98259515D01*
X139200776Y-98305218D01*
X139200778Y-98305218D01*
X139200781Y-98305220D01*
X139305137Y-98339127D01*
X139395465Y-98368477D01*
X139414697Y-98371523D01*
X139597648Y-98400500D01*
X139597649Y-98400500D01*
X139802351Y-98400500D01*
X139802352Y-98400500D01*
X140004534Y-98368477D01*
X140199219Y-98305220D01*
X140381610Y-98212287D01*
X140474590Y-98144732D01*
X140547213Y-98091971D01*
X140547215Y-98091968D01*
X140547219Y-98091966D01*
X140691966Y-97947219D01*
X140691968Y-97947215D01*
X140691971Y-97947213D01*
X140812284Y-97781614D01*
X140812285Y-97781613D01*
X140812287Y-97781610D01*
X140859516Y-97688917D01*
X140907489Y-97638123D01*
X140975310Y-97621328D01*
X141041445Y-97643865D01*
X141080483Y-97688917D01*
X141124348Y-97775006D01*
X141127715Y-97781614D01*
X141248028Y-97947213D01*
X141392786Y-98091971D01*
X141506917Y-98174890D01*
X141558390Y-98212287D01*
X141651080Y-98259515D01*
X141740776Y-98305218D01*
X141740778Y-98305218D01*
X141740781Y-98305220D01*
X141845137Y-98339127D01*
X141935465Y-98368477D01*
X141954697Y-98371523D01*
X142137648Y-98400500D01*
X142137649Y-98400500D01*
X142342351Y-98400500D01*
X142342352Y-98400500D01*
X142544534Y-98368477D01*
X142739219Y-98305220D01*
X142921610Y-98212287D01*
X143014590Y-98144732D01*
X143087213Y-98091971D01*
X143087215Y-98091968D01*
X143087219Y-98091966D01*
X143231966Y-97947219D01*
X143231968Y-97947215D01*
X143231971Y-97947213D01*
X143352284Y-97781614D01*
X143352285Y-97781613D01*
X143352287Y-97781610D01*
X143399516Y-97688917D01*
X143447489Y-97638123D01*
X143515310Y-97621328D01*
X143581445Y-97643865D01*
X143620483Y-97688917D01*
X143664348Y-97775006D01*
X143667715Y-97781614D01*
X143788028Y-97947213D01*
X143932786Y-98091971D01*
X144046917Y-98174890D01*
X144098390Y-98212287D01*
X144191080Y-98259515D01*
X144280776Y-98305218D01*
X144280778Y-98305218D01*
X144280781Y-98305220D01*
X144385137Y-98339127D01*
X144475465Y-98368477D01*
X144494697Y-98371523D01*
X144677648Y-98400500D01*
X144677649Y-98400500D01*
X144882351Y-98400500D01*
X144882352Y-98400500D01*
X145084534Y-98368477D01*
X145279219Y-98305220D01*
X145461610Y-98212287D01*
X145554590Y-98144732D01*
X145627213Y-98091971D01*
X145627215Y-98091968D01*
X145627219Y-98091966D01*
X145771966Y-97947219D01*
X145771968Y-97947215D01*
X145771971Y-97947213D01*
X145892284Y-97781614D01*
X145892285Y-97781613D01*
X145892287Y-97781610D01*
X145939516Y-97688917D01*
X145987489Y-97638123D01*
X146055310Y-97621328D01*
X146121445Y-97643865D01*
X146160483Y-97688917D01*
X146204348Y-97775006D01*
X146207715Y-97781614D01*
X146328028Y-97947213D01*
X146472786Y-98091971D01*
X146586917Y-98174890D01*
X146638390Y-98212287D01*
X146731080Y-98259515D01*
X146820776Y-98305218D01*
X146820778Y-98305218D01*
X146820781Y-98305220D01*
X146925137Y-98339127D01*
X147015465Y-98368477D01*
X147034697Y-98371523D01*
X147217648Y-98400500D01*
X147217649Y-98400500D01*
X147422351Y-98400500D01*
X147422352Y-98400500D01*
X147624534Y-98368477D01*
X147819219Y-98305220D01*
X148001610Y-98212287D01*
X148094590Y-98144732D01*
X148167213Y-98091971D01*
X148167215Y-98091968D01*
X148167219Y-98091966D01*
X148311966Y-97947219D01*
X148311968Y-97947215D01*
X148311971Y-97947213D01*
X148432284Y-97781614D01*
X148432285Y-97781613D01*
X148432287Y-97781610D01*
X148479516Y-97688917D01*
X148527489Y-97638123D01*
X148595310Y-97621328D01*
X148661445Y-97643865D01*
X148700483Y-97688917D01*
X148744348Y-97775006D01*
X148747715Y-97781614D01*
X148868028Y-97947213D01*
X149012786Y-98091971D01*
X149126917Y-98174890D01*
X149178390Y-98212287D01*
X149271080Y-98259515D01*
X149360776Y-98305218D01*
X149360778Y-98305218D01*
X149360781Y-98305220D01*
X149465137Y-98339127D01*
X149555465Y-98368477D01*
X149574697Y-98371523D01*
X149757648Y-98400500D01*
X149757649Y-98400500D01*
X149962351Y-98400500D01*
X149962352Y-98400500D01*
X150164534Y-98368477D01*
X150359219Y-98305220D01*
X150541610Y-98212287D01*
X150634590Y-98144732D01*
X150707213Y-98091971D01*
X150707215Y-98091968D01*
X150707219Y-98091966D01*
X150851966Y-97947219D01*
X150851968Y-97947215D01*
X150851971Y-97947213D01*
X150972284Y-97781614D01*
X150972285Y-97781613D01*
X150972287Y-97781610D01*
X151019516Y-97688917D01*
X151067489Y-97638123D01*
X151135310Y-97621328D01*
X151201445Y-97643865D01*
G37*
%TD.AperFunction*%
%TA.AperFunction,Conductor*%
G36*
X154121942Y-116770185D02*
G01*
X154142584Y-116786819D01*
X156396241Y-119040476D01*
X156429726Y-119101799D01*
X156426492Y-119166473D01*
X156412753Y-119208757D01*
X156386957Y-119371630D01*
X156379500Y-119418713D01*
X156379500Y-119631287D01*
X156412754Y-119841243D01*
X156451340Y-119959999D01*
X156478444Y-120043414D01*
X156574951Y-120232820D01*
X156699890Y-120404786D01*
X156813430Y-120518326D01*
X156846915Y-120579649D01*
X156841931Y-120649341D01*
X156800059Y-120705274D01*
X156769083Y-120722189D01*
X156637669Y-120771203D01*
X156637664Y-120771206D01*
X156522455Y-120857452D01*
X156522452Y-120857455D01*
X156436206Y-120972664D01*
X156436202Y-120972671D01*
X156385908Y-121107517D01*
X156379501Y-121167116D01*
X156379500Y-121167135D01*
X156379500Y-122962870D01*
X156379501Y-122962876D01*
X156385908Y-123022483D01*
X156436202Y-123157328D01*
X156436204Y-123157331D01*
X156450321Y-123176189D01*
X156474738Y-123241654D01*
X156459886Y-123309927D01*
X156410481Y-123359332D01*
X156351054Y-123374500D01*
X153614892Y-123374500D01*
X153547853Y-123354815D01*
X153502098Y-123302011D01*
X153492154Y-123232853D01*
X153510934Y-123186498D01*
X153509314Y-123185505D01*
X153511855Y-123181357D01*
X153604755Y-122999031D01*
X153667990Y-122804417D01*
X153700000Y-122602317D01*
X153700000Y-122397682D01*
X153667990Y-122195582D01*
X153604755Y-122000968D01*
X153511859Y-121818650D01*
X153479474Y-121774077D01*
X153479474Y-121774076D01*
X152923787Y-122329764D01*
X152912518Y-122287708D01*
X152840110Y-122162292D01*
X152737708Y-122059890D01*
X152612292Y-121987482D01*
X152570233Y-121976212D01*
X153125922Y-121420524D01*
X153125921Y-121420523D01*
X153081359Y-121388147D01*
X153081350Y-121388141D01*
X152988369Y-121340765D01*
X152937573Y-121292790D01*
X152920778Y-121224969D01*
X152943315Y-121158835D01*
X152988370Y-121119795D01*
X153012467Y-121107517D01*
X153081610Y-121072287D01*
X153218724Y-120972669D01*
X153247213Y-120951971D01*
X153247215Y-120951968D01*
X153247219Y-120951966D01*
X153391966Y-120807219D01*
X153391968Y-120807215D01*
X153391971Y-120807213D01*
X153466033Y-120705274D01*
X153512287Y-120641610D01*
X153605220Y-120459219D01*
X153668477Y-120264534D01*
X153700500Y-120062352D01*
X153700500Y-119857648D01*
X153683087Y-119747708D01*
X153668477Y-119655465D01*
X153624426Y-119519890D01*
X153605220Y-119460781D01*
X153605218Y-119460778D01*
X153605218Y-119460776D01*
X153512420Y-119278652D01*
X153512287Y-119278390D01*
X153480092Y-119234077D01*
X153391971Y-119112786D01*
X153247213Y-118968028D01*
X153081614Y-118847715D01*
X153075006Y-118844348D01*
X152988917Y-118800483D01*
X152938123Y-118752511D01*
X152921328Y-118684690D01*
X152943865Y-118618555D01*
X152988917Y-118579516D01*
X153081610Y-118532287D01*
X153133083Y-118494890D01*
X153247213Y-118411971D01*
X153247215Y-118411968D01*
X153247219Y-118411966D01*
X153391966Y-118267219D01*
X153391968Y-118267215D01*
X153391971Y-118267213D01*
X153452750Y-118183556D01*
X153512287Y-118101610D01*
X153605220Y-117919219D01*
X153668477Y-117724534D01*
X153700500Y-117522352D01*
X153700500Y-117317648D01*
X153677467Y-117172228D01*
X153668477Y-117115465D01*
X153639376Y-117025902D01*
X153605220Y-116920781D01*
X153605218Y-116920777D01*
X153603714Y-116916148D01*
X153605035Y-116915718D01*
X153598236Y-116852486D01*
X153629509Y-116790006D01*
X153689597Y-116754352D01*
X153720266Y-116750500D01*
X154054903Y-116750500D01*
X154121942Y-116770185D01*
G37*
%TD.AperFunction*%
%TA.AperFunction,Conductor*%
G36*
X145859474Y-90205921D02*
G01*
X145891861Y-90161347D01*
X145891861Y-90161346D01*
X145939234Y-90068371D01*
X145987208Y-90017575D01*
X146055028Y-90000779D01*
X146121164Y-90023316D01*
X146160203Y-90068369D01*
X146207713Y-90161611D01*
X146328028Y-90327213D01*
X146472786Y-90471971D01*
X146586917Y-90554890D01*
X146638390Y-90592287D01*
X146731080Y-90639515D01*
X146820776Y-90685218D01*
X146820778Y-90685218D01*
X146820781Y-90685220D01*
X146895507Y-90709500D01*
X147015465Y-90748477D01*
X147034697Y-90751523D01*
X147217648Y-90780500D01*
X147217649Y-90780500D01*
X147422351Y-90780500D01*
X147422352Y-90780500D01*
X147624534Y-90748477D01*
X147638842Y-90743827D01*
X147708682Y-90741831D01*
X147764842Y-90774077D01*
X150038583Y-93047819D01*
X150072068Y-93109142D01*
X150067084Y-93178834D01*
X150025212Y-93234767D01*
X149959748Y-93259184D01*
X149950902Y-93259500D01*
X149757648Y-93259500D01*
X149733329Y-93263351D01*
X149555465Y-93291522D01*
X149360776Y-93354781D01*
X149178386Y-93447715D01*
X149012786Y-93568028D01*
X148868028Y-93712786D01*
X148747715Y-93878386D01*
X148700485Y-93971080D01*
X148652510Y-94021876D01*
X148584689Y-94038671D01*
X148518554Y-94016134D01*
X148479515Y-93971080D01*
X148475392Y-93962989D01*
X148432287Y-93878390D01*
X148424198Y-93867257D01*
X148311971Y-93712786D01*
X148167213Y-93568028D01*
X148001613Y-93447715D01*
X148001612Y-93447714D01*
X148001610Y-93447713D01*
X147939331Y-93415980D01*
X147819223Y-93354781D01*
X147624534Y-93291522D01*
X147449995Y-93263878D01*
X147422352Y-93259500D01*
X147217648Y-93259500D01*
X147193329Y-93263351D01*
X147015465Y-93291522D01*
X146820776Y-93354781D01*
X146638386Y-93447715D01*
X146472786Y-93568028D01*
X146328028Y-93712786D01*
X146207715Y-93878386D01*
X146160485Y-93971080D01*
X146112510Y-94021876D01*
X146044689Y-94038671D01*
X145978554Y-94016134D01*
X145939515Y-93971080D01*
X145935392Y-93962989D01*
X145892287Y-93878390D01*
X145884198Y-93867257D01*
X145771971Y-93712786D01*
X145627213Y-93568028D01*
X145461613Y-93447715D01*
X145461612Y-93447714D01*
X145461610Y-93447713D01*
X145399331Y-93415980D01*
X145279223Y-93354781D01*
X145084534Y-93291522D01*
X144909995Y-93263878D01*
X144882352Y-93259500D01*
X144677648Y-93259500D01*
X144653329Y-93263351D01*
X144475465Y-93291522D01*
X144280776Y-93354781D01*
X144098386Y-93447715D01*
X143932786Y-93568028D01*
X143788028Y-93712786D01*
X143667715Y-93878386D01*
X143620485Y-93971080D01*
X143572510Y-94021876D01*
X143504689Y-94038671D01*
X143438554Y-94016134D01*
X143399515Y-93971080D01*
X143395392Y-93962989D01*
X143352287Y-93878390D01*
X143344198Y-93867257D01*
X143231971Y-93712786D01*
X143087213Y-93568028D01*
X142921613Y-93447715D01*
X142921612Y-93447714D01*
X142921610Y-93447713D01*
X142859331Y-93415980D01*
X142739223Y-93354781D01*
X142544534Y-93291522D01*
X142369995Y-93263878D01*
X142342352Y-93259500D01*
X142137648Y-93259500D01*
X142113329Y-93263351D01*
X141935465Y-93291522D01*
X141740776Y-93354781D01*
X141558386Y-93447715D01*
X141392786Y-93568028D01*
X141248028Y-93712786D01*
X141127715Y-93878386D01*
X141080485Y-93971080D01*
X141032510Y-94021876D01*
X140964689Y-94038671D01*
X140898554Y-94016134D01*
X140859515Y-93971080D01*
X140855392Y-93962989D01*
X140812287Y-93878390D01*
X140804198Y-93867257D01*
X140691971Y-93712786D01*
X140547213Y-93568028D01*
X140381613Y-93447715D01*
X140381612Y-93447714D01*
X140381610Y-93447713D01*
X140319331Y-93415980D01*
X140199223Y-93354781D01*
X140004534Y-93291522D01*
X139829995Y-93263878D01*
X139802352Y-93259500D01*
X139597648Y-93259500D01*
X139573329Y-93263351D01*
X139395465Y-93291522D01*
X139200776Y-93354781D01*
X139018386Y-93447715D01*
X138852786Y-93568028D01*
X138708028Y-93712786D01*
X138587715Y-93878386D01*
X138540485Y-93971080D01*
X138492510Y-94021876D01*
X138424689Y-94038671D01*
X138358554Y-94016134D01*
X138319515Y-93971080D01*
X138315392Y-93962989D01*
X138272287Y-93878390D01*
X138264198Y-93867257D01*
X138151971Y-93712786D01*
X138007213Y-93568028D01*
X137841614Y-93447715D01*
X137835006Y-93444348D01*
X137748917Y-93400483D01*
X137698123Y-93352511D01*
X137681328Y-93284690D01*
X137703865Y-93218555D01*
X137748917Y-93179516D01*
X137841610Y-93132287D01*
X137893083Y-93094890D01*
X138007213Y-93011971D01*
X138007215Y-93011968D01*
X138007219Y-93011966D01*
X138151966Y-92867219D01*
X138151968Y-92867215D01*
X138151971Y-92867213D01*
X138212750Y-92783556D01*
X138272287Y-92701610D01*
X138365220Y-92519219D01*
X138428477Y-92324534D01*
X138460500Y-92122352D01*
X138460500Y-91917648D01*
X138428477Y-91715466D01*
X138420620Y-91691286D01*
X138365218Y-91520776D01*
X138331503Y-91454607D01*
X138272287Y-91338390D01*
X138264556Y-91327749D01*
X138151971Y-91172786D01*
X138007213Y-91028028D01*
X137841614Y-90907715D01*
X137835006Y-90904348D01*
X137748917Y-90860483D01*
X137698123Y-90812511D01*
X137681328Y-90744690D01*
X137703865Y-90678555D01*
X137748917Y-90639516D01*
X137841610Y-90592287D01*
X137893083Y-90554890D01*
X138007213Y-90471971D01*
X138007215Y-90471968D01*
X138007219Y-90471966D01*
X138151966Y-90327219D01*
X138151968Y-90327215D01*
X138151971Y-90327213D01*
X138272284Y-90161614D01*
X138272286Y-90161611D01*
X138272287Y-90161610D01*
X138319516Y-90068917D01*
X138367489Y-90018123D01*
X138435310Y-90001328D01*
X138501445Y-90023865D01*
X138540483Y-90068917D01*
X138573363Y-90133447D01*
X138587715Y-90161614D01*
X138708028Y-90327213D01*
X138852786Y-90471971D01*
X138966917Y-90554890D01*
X139018390Y-90592287D01*
X139111080Y-90639515D01*
X139200776Y-90685218D01*
X139200778Y-90685218D01*
X139200781Y-90685220D01*
X139275507Y-90709500D01*
X139395465Y-90748477D01*
X139414697Y-90751523D01*
X139597648Y-90780500D01*
X139597649Y-90780500D01*
X139802351Y-90780500D01*
X139802352Y-90780500D01*
X140004534Y-90748477D01*
X140199219Y-90685220D01*
X140381610Y-90592287D01*
X140474590Y-90524732D01*
X140547213Y-90471971D01*
X140547215Y-90471968D01*
X140547219Y-90471966D01*
X140691966Y-90327219D01*
X140691968Y-90327215D01*
X140691971Y-90327213D01*
X140812284Y-90161614D01*
X140812286Y-90161611D01*
X140812287Y-90161610D01*
X140859516Y-90068917D01*
X140907489Y-90018123D01*
X140975310Y-90001328D01*
X141041445Y-90023865D01*
X141080483Y-90068917D01*
X141113363Y-90133447D01*
X141127715Y-90161614D01*
X141248028Y-90327213D01*
X141392786Y-90471971D01*
X141506917Y-90554890D01*
X141558390Y-90592287D01*
X141651080Y-90639515D01*
X141740776Y-90685218D01*
X141740778Y-90685218D01*
X141740781Y-90685220D01*
X141815507Y-90709500D01*
X141935465Y-90748477D01*
X141954697Y-90751523D01*
X142137648Y-90780500D01*
X142137649Y-90780500D01*
X142342351Y-90780500D01*
X142342352Y-90780500D01*
X142544534Y-90748477D01*
X142739219Y-90685220D01*
X142921610Y-90592287D01*
X143014590Y-90524732D01*
X143087213Y-90471971D01*
X143087215Y-90471968D01*
X143087219Y-90471966D01*
X143231966Y-90327219D01*
X143231968Y-90327215D01*
X143231971Y-90327213D01*
X143352286Y-90161611D01*
X143352415Y-90161359D01*
X143399795Y-90068369D01*
X143447769Y-90017573D01*
X143515590Y-90000778D01*
X143581725Y-90023315D01*
X143620765Y-90068369D01*
X143668141Y-90161350D01*
X143668147Y-90161359D01*
X143700523Y-90205921D01*
X143700524Y-90205922D01*
X144256212Y-89650233D01*
X144267482Y-89692292D01*
X144339890Y-89817708D01*
X144442292Y-89920110D01*
X144567708Y-89992518D01*
X144609765Y-90003787D01*
X144054076Y-90559474D01*
X144098650Y-90591859D01*
X144280968Y-90684755D01*
X144475582Y-90747990D01*
X144677683Y-90780000D01*
X144882317Y-90780000D01*
X145084417Y-90747990D01*
X145279031Y-90684755D01*
X145461349Y-90591859D01*
X145505921Y-90559474D01*
X144950234Y-90003787D01*
X144992292Y-89992518D01*
X145117708Y-89920110D01*
X145220110Y-89817708D01*
X145292518Y-89692292D01*
X145303787Y-89650233D01*
X145859474Y-90205921D01*
G37*
%TD.AperFunction*%
%TA.AperFunction,Conductor*%
G36*
X144553131Y-87980485D02*
G01*
X144598886Y-88033289D01*
X144608830Y-88102447D01*
X144579805Y-88166003D01*
X144521027Y-88203777D01*
X144505490Y-88207273D01*
X144475582Y-88212009D01*
X144280968Y-88275244D01*
X144098644Y-88368143D01*
X144054077Y-88400523D01*
X144054077Y-88400524D01*
X144609766Y-88956212D01*
X144567708Y-88967482D01*
X144442292Y-89039890D01*
X144339890Y-89142292D01*
X144267482Y-89267708D01*
X144256212Y-89309765D01*
X143700524Y-88754077D01*
X143700523Y-88754077D01*
X143668143Y-88798644D01*
X143620765Y-88891630D01*
X143572790Y-88942426D01*
X143504969Y-88959221D01*
X143438834Y-88936683D01*
X143399795Y-88891630D01*
X143352284Y-88798385D01*
X143231971Y-88632786D01*
X143087213Y-88488028D01*
X142921613Y-88367715D01*
X142921612Y-88367714D01*
X142921610Y-88367713D01*
X142845135Y-88328747D01*
X142739223Y-88274781D01*
X142544534Y-88211522D01*
X142517702Y-88207273D01*
X142454567Y-88177344D01*
X142417636Y-88118032D01*
X142418634Y-88048169D01*
X142457244Y-87989937D01*
X142521208Y-87961823D01*
X142537100Y-87960800D01*
X144486092Y-87960800D01*
X144553131Y-87980485D01*
G37*
%TD.AperFunction*%
%TA.AperFunction,Conductor*%
G36*
X140935270Y-85811717D02*
G01*
X140935270Y-85811716D01*
X140974622Y-85757555D01*
X140979232Y-85748507D01*
X141027205Y-85697709D01*
X141095025Y-85680912D01*
X141161161Y-85703447D01*
X141200204Y-85748504D01*
X141204949Y-85757817D01*
X141329890Y-85929786D01*
X141480213Y-86080109D01*
X141652179Y-86205048D01*
X141652181Y-86205049D01*
X141652184Y-86205051D01*
X141841588Y-86301557D01*
X142043757Y-86367246D01*
X142253713Y-86400500D01*
X142253714Y-86400500D01*
X142466286Y-86400500D01*
X142466287Y-86400500D01*
X142676243Y-86367246D01*
X142878412Y-86301557D01*
X143067816Y-86205051D01*
X143154138Y-86142335D01*
X143239786Y-86080109D01*
X143239788Y-86080106D01*
X143239792Y-86080104D01*
X143390104Y-85929792D01*
X143390106Y-85929788D01*
X143390109Y-85929786D01*
X143515048Y-85757820D01*
X143515050Y-85757817D01*
X143515051Y-85757816D01*
X143519514Y-85749054D01*
X143567488Y-85698259D01*
X143635308Y-85681463D01*
X143701444Y-85703999D01*
X143740484Y-85749054D01*
X143744060Y-85756071D01*
X143744951Y-85757820D01*
X143869890Y-85929786D01*
X144020213Y-86080109D01*
X144192179Y-86205048D01*
X144192181Y-86205049D01*
X144192184Y-86205051D01*
X144381588Y-86301557D01*
X144583757Y-86367246D01*
X144793713Y-86400500D01*
X144793714Y-86400500D01*
X145006286Y-86400500D01*
X145006287Y-86400500D01*
X145216243Y-86367246D01*
X145258523Y-86353507D01*
X145268274Y-86353229D01*
X145277082Y-86349022D01*
X145302627Y-86352246D01*
X145328362Y-86351511D01*
X145336719Y-86356550D01*
X145346402Y-86357773D01*
X145384522Y-86383757D01*
X145640098Y-86639333D01*
X145673583Y-86700656D01*
X145668599Y-86770348D01*
X145626727Y-86826281D01*
X145561263Y-86850698D01*
X145492990Y-86835846D01*
X145490418Y-86834402D01*
X145476352Y-86826281D01*
X145467626Y-86821243D01*
X145467625Y-86821242D01*
X145432083Y-86800722D01*
X145376181Y-86785743D01*
X145279357Y-86759799D01*
X145121243Y-86759799D01*
X145113647Y-86759799D01*
X145113631Y-86759800D01*
X139890398Y-86759800D01*
X139823359Y-86740115D01*
X139802717Y-86723481D01*
X139690917Y-86611681D01*
X139657432Y-86550358D01*
X139662416Y-86480666D01*
X139704288Y-86424733D01*
X139769752Y-86400316D01*
X139778598Y-86400000D01*
X139926246Y-86400000D01*
X140136127Y-86366757D01*
X140136130Y-86366757D01*
X140338217Y-86301095D01*
X140527554Y-86204622D01*
X140581716Y-86165270D01*
X140581717Y-86165270D01*
X139949408Y-85532962D01*
X140012993Y-85515925D01*
X140127007Y-85450099D01*
X140220099Y-85357007D01*
X140285925Y-85242993D01*
X140302962Y-85179408D01*
X140935270Y-85811717D01*
G37*
%TD.AperFunction*%
%TD*%
M02*
