%TF.GenerationSoftware,KiCad,Pcbnew,9.0.6*%
%TF.CreationDate,2026-06-23T14:02:11-07:00*%
%TF.ProjectId,AudioBoardTeensy,41756469-6f42-46f6-9172-645465656e73,rev?*%
%TF.SameCoordinates,Original*%
%TF.FileFunction,Legend,Bot*%
%TF.FilePolarity,Positive*%
%FSLAX46Y46*%
G04 Gerber Fmt 4.6, Leading zero omitted, Abs format (unit mm)*
G04 Created by KiCad (PCBNEW 9.0.6) date 2026-06-23 14:02:11*
%MOMM*%
%LPD*%
G01*
G04 APERTURE LIST*
%ADD10R,1.700000X1.700000*%
%ADD11C,1.700000*%
%ADD12C,5.700000*%
%ADD13O,1.512000X2.820000*%
%ADD14O,2.820000X1.512000*%
%ADD15C,1.200000*%
%ADD16C,1.600000*%
G04 APERTURE END LIST*
%LPC*%
D10*
%TO.C,J4*%
X150496000Y-92250000D03*
D11*
X147956000Y-92250000D03*
X145416000Y-92250000D03*
X142876000Y-92250000D03*
X140336000Y-92250000D03*
X137796000Y-92250000D03*
X135256000Y-92250000D03*
%TD*%
D12*
%TO.C,H1*%
X124075000Y-91400000D03*
%TD*%
%TO.C,H2*%
X156525000Y-91400000D03*
%TD*%
D10*
%TO.C,J2*%
X114845000Y-112000000D03*
D11*
X114845000Y-109460000D03*
X114845000Y-106920000D03*
X114845000Y-104380000D03*
X114845000Y-101840000D03*
X114845000Y-99300000D03*
X114845000Y-96760000D03*
X114845000Y-94220000D03*
X114845000Y-91680000D03*
X114845000Y-89140000D03*
%TD*%
D10*
%TO.C,J3*%
X165755000Y-112000000D03*
D11*
X165755000Y-109460000D03*
X165755000Y-106920000D03*
X165755000Y-104380000D03*
X165755000Y-101840000D03*
X165755000Y-99300000D03*
X165755000Y-96760000D03*
X165755000Y-94220000D03*
X165755000Y-91680000D03*
X165755000Y-89140000D03*
%TD*%
D13*
%TO.C,J1*%
X125300000Y-110800000D03*
X118700000Y-110800000D03*
X124850000Y-102800000D03*
X119150000Y-102800000D03*
D14*
X122000000Y-102000000D03*
D15*
X122000000Y-112300000D03*
X122000000Y-105300000D03*
%TD*%
D16*
%TO.C,U1*%
X161625000Y-97230000D03*
X159085000Y-97230000D03*
X156545000Y-97230000D03*
X154005000Y-97230000D03*
X151465000Y-97230000D03*
X148925000Y-97230000D03*
X146385000Y-97230000D03*
X143845000Y-97230000D03*
X141305000Y-97230000D03*
X138765000Y-97230000D03*
X136225000Y-97230000D03*
X133685000Y-97230000D03*
X131145000Y-97230000D03*
X128605000Y-97230000D03*
X128605000Y-99770000D03*
X128605000Y-102310000D03*
X128605000Y-104850000D03*
X128605000Y-107390000D03*
X128605000Y-109930000D03*
X128605000Y-112470000D03*
X131145000Y-112470000D03*
X133685000Y-112470000D03*
X136225000Y-112470000D03*
X138765000Y-112470000D03*
X141305000Y-112470000D03*
X143845000Y-112470000D03*
X146385000Y-112470000D03*
X148925000Y-112470000D03*
X151465000Y-112470000D03*
X154005000Y-112470000D03*
X156545000Y-112470000D03*
X159085000Y-112470000D03*
X161625000Y-112470000D03*
X159085000Y-109930000D03*
X133685000Y-109930000D03*
X136225000Y-109930000D03*
X133685000Y-107390000D03*
X136225000Y-107390000D03*
X133685000Y-104850000D03*
X136225000Y-104850000D03*
X133685000Y-102310000D03*
X136225000Y-102310000D03*
X133685000Y-99770000D03*
X136225000Y-99770000D03*
%TD*%
%LPD*%
M02*
