M48
; DRILL file {KiCad 9.0.6} date 2026-06-23T14:02:11-0700
; FORMAT={-:-/ absolute / inch / decimal}
; #@! TF.CreationDate,2026-06-23T14:02:11-07:00
; #@! TF.GenerationSoftware,Kicad,Pcbnew,9.0.6
; #@! TF.FileFunction,Plated,1,2,PTH
FMAT,2
INCH
; #@! TA.AperFunction,Plated,PTH,ViaDrill
T1C0.0118
; #@! TA.AperFunction,Plated,PTH,ComponentDrill
T2C0.0315
; #@! TA.AperFunction,Plated,PTH,ComponentDrill
T3C0.0394
; #@! TA.AperFunction,Plated,PTH,ComponentDrill
T4C0.0433
; #@! TA.AperFunction,Plated,PTH,ComponentDrill
T5C0.1260
%
G90
G05
T1
X4.7557Y-3.8051
X4.7638Y-4.0709
X4.8852Y-3.8051
X4.9154Y-4.1496
X4.9685Y-4.0079
X5.0Y-3.878
X5.1319Y-4.313
X5.1949Y-4.3465
X5.2165Y-4.4961
X5.7638Y-3.9705
X5.8637Y-4.2507
X5.937Y-4.1819
X6.2598Y-4.5256
X6.4508Y-4.4331
T3
X4.5215Y-3.5094
X4.5215Y-3.6094
X4.5215Y-3.7094
X4.5215Y-3.8094
X4.5215Y-3.9094
X4.5215Y-4.0094
X4.5215Y-4.1094
X4.5215Y-4.2094
X4.5215Y-4.3094
X4.5215Y-4.4094
X5.325Y-3.6319
X5.425Y-3.6319
X5.525Y-3.6319
X5.625Y-3.6319
X5.725Y-3.6319
X5.825Y-3.6319
X5.925Y-3.6319
X6.5258Y-3.5094
X6.5258Y-3.6094
X6.5258Y-3.7094
X6.5258Y-3.8094
X6.5258Y-3.9094
X6.5258Y-4.0094
X6.5258Y-4.1094
X6.5258Y-4.2094
X6.5258Y-4.3094
X6.5258Y-4.4094
T4
X5.0632Y-3.828
X5.0632Y-3.928
X5.0632Y-4.028
X5.0632Y-4.128
X5.0632Y-4.228
X5.0632Y-4.328
X5.0632Y-4.428
X5.1632Y-3.828
X5.1632Y-4.428
X5.2632Y-3.828
X5.2632Y-3.928
X5.2632Y-4.028
X5.2632Y-4.128
X5.2632Y-4.228
X5.2632Y-4.328
X5.2632Y-4.428
X5.3632Y-3.828
X5.3632Y-3.928
X5.3632Y-4.028
X5.3632Y-4.128
X5.3632Y-4.228
X5.3632Y-4.328
X5.3632Y-4.428
X5.4632Y-3.828
X5.4632Y-4.428
X5.5632Y-3.828
X5.5632Y-4.428
X5.6632Y-3.828
X5.6632Y-4.428
X5.7632Y-3.828
X5.7632Y-4.428
X5.8632Y-3.828
X5.8632Y-4.428
X5.9632Y-3.828
X5.9632Y-4.428
X6.0632Y-3.828
X6.0632Y-4.428
X6.1632Y-3.828
X6.1632Y-4.428
X6.2632Y-3.828
X6.2632Y-4.328
X6.2632Y-4.428
X6.3632Y-3.828
X6.3632Y-4.428
T5
X4.8848Y-3.5984
X6.1624Y-3.5984
T2
G00X4.6732Y-4.3484
M15
G01X4.6732Y-4.376
M16
G05
G00X4.6909Y-4.0335
M15
G01X4.6909Y-4.061
M16
G05
G00X4.7894Y-4.0157
M15
G01X4.8169Y-4.0157
M16
G05
G00X4.9154Y-4.0335
M15
G01X4.9154Y-4.061
M16
G05
G00X4.9331Y-4.3484
M15
G01X4.9331Y-4.376
M16
G05
M30
