M48
; DRILL file {KiCad 9.0.6} date 2026-05-15T08:49:34-0700
; FORMAT={-:-/ absolute / inch / decimal}
; #@! TF.CreationDate,2026-05-15T08:49:34-07:00
; #@! TF.GenerationSoftware,Kicad,Pcbnew,9.0.6
; #@! TF.FileFunction,Plated,1,2,PTH
FMAT,2
INCH
; #@! TA.AperFunction,Plated,PTH,ViaDrill
T1C0.0118
; #@! TA.AperFunction,Plated,PTH,ComponentDrill
T2C0.0315
; #@! TA.AperFunction,Plated,PTH,ComponentDrill
T3C0.0394
; #@! TA.AperFunction,Plated,PTH,ComponentDrill
T4C0.0433
; #@! TA.AperFunction,Plated,PTH,ComponentDrill
T5C0.1260
%
G90
G05
T1
X4.6641Y-3.7038
X4.7557Y-3.8051
X4.8852Y-3.8051
X5.0589Y-3.6936
X5.1594Y-3.9311
X5.2196Y-4.0619
X5.7501Y-3.7045
X6.1063Y-4.3885
X6.1772Y-4.3406
X6.3543Y-4.3327
X6.3642Y-3.9075
T3
X4.5215Y-3.5094
X4.5215Y-3.6094
X4.5215Y-3.7094
X4.5215Y-3.8094
X4.5215Y-3.9094
X4.5215Y-4.0094
X4.5215Y-4.1094
X4.5215Y-4.2094
X4.5215Y-4.3094
X4.5215Y-4.4094
X5.2236Y-3.5531
X5.3236Y-3.5531
X5.4236Y-3.5531
X5.5236Y-3.5531
X5.6236Y-3.5531
X5.7236Y-3.5531
X5.8236Y-3.5531
X6.5258Y-3.5094
X6.5258Y-3.6094
X6.5258Y-3.7094
X6.5258Y-3.8094
X6.5258Y-3.9094
X6.5258Y-4.0094
X6.5258Y-4.1094
X6.5258Y-4.2094
X6.5258Y-4.3094
X6.5258Y-4.4094
T4
X5.0632Y-3.828
X5.0632Y-3.928
X5.0632Y-4.028
X5.0632Y-4.128
X5.0632Y-4.228
X5.0632Y-4.328
X5.0632Y-4.428
X5.1632Y-3.828
X5.1632Y-4.428
X5.2632Y-3.828
X5.2632Y-3.928
X5.2632Y-4.028
X5.2632Y-4.128
X5.2632Y-4.228
X5.2632Y-4.328
X5.2632Y-4.428
X5.3632Y-3.828
X5.3632Y-3.928
X5.3632Y-4.028
X5.3632Y-4.128
X5.3632Y-4.228
X5.3632Y-4.328
X5.3632Y-4.428
X5.4632Y-3.828
X5.4632Y-4.428
X5.5632Y-3.828
X5.5632Y-4.428
X5.6632Y-3.828
X5.6632Y-4.428
X5.7632Y-3.828
X5.7632Y-4.428
X5.8632Y-3.828
X5.8632Y-4.428
X5.9632Y-3.828
X5.9632Y-4.428
X6.0632Y-3.828
X6.0632Y-4.428
X6.1632Y-3.828
X6.1632Y-4.428
X6.2632Y-3.828
X6.2632Y-4.328
X6.2632Y-4.428
X6.3632Y-3.828
X6.3632Y-4.428
T5
X4.8848Y-3.5984
X6.1624Y-3.5984
T2
G00X4.6742Y-4.3276
M15
G01X4.6742Y-4.3551
M16
G05
G00X4.6919Y-4.0126
M15
G01X4.6919Y-4.0402
M16
G05
G00X4.7904Y-3.9949
M15
G01X4.8179Y-3.9949
M16
G05
G00X4.9163Y-4.0126
M15
G01X4.9163Y-4.0402
M16
G05
G00X4.9341Y-4.3276
M15
G01X4.9341Y-4.3551
M16
G05
M30
