<?xml version="1.0" encoding="UTF-8"?>
<svg id="Layer_1" xmlns="http://www.w3.org/2000/svg" version="1.1" viewBox="0 0 172.1 102.3">
  <!-- Generator: Adobe Illustrator 29.4.0, SVG Export Plug-In . SVG Version: 2.1.0 Build 152)  -->
  <defs>
    <style>
      .st0 {
        fill: #3f3f3f;
      }

      .st1 {
        fill: #bfbfbf;
      }

      .st2 {
        fill: #7f7f7f;
      }
    </style>
  </defs>
  <polygon class="st1" points="53.5 33.4 58.7 38 34.9 44.8 29.6 40.3 53.5 33.4"/>
  <polyline class="st1" points="34.9 73.6 34.9 44.8 29.6 40.3 29.6 69.1 34.9 73.6"/>
  <polygon class="st1" points="68.7 68.9 68.8 35.1 63.6 30.5 63.5 64.4 68.7 68.9"/>
  <polyline class="st0" points="39.5 77.6 39.5 72.3 34.9 73.6 39.5 77.6"/>
  <polygon class="st2" points="34.9 44.8 34.9 73.6 39.5 72.3 39.5 77.6 58.7 72.1 58.7 66.8 58.7 38 34.9 44.8"/>
  <polygon class="st1" points="44.9 66.1 49.5 64.8 44.9 60.8 44.9 66.1"/>
  <polygon class="st0" points="44.9 52 44.9 60.8 49.5 64.8 49.5 56 49.5 50.6 44.9 52"/>
  <polyline class="st2" points="78.4 32.3 78.3 66.2 68.7 68.9 68.8 35.1"/>
  <polygon class="st1" points="68.8 35.1 63.6 30.5 73.2 27.7 78.4 32.3 68.8 35.1"/>
  <g>
    <path class="st0" d="M88.8,50.9c0-.5.3-.8.8-.8s.8.3.8.8-.3.8-.8.8-.8-.3-.8-.8ZM91.5,46.7c0-.4.3-.8.8-.8s.8.4.8.8-.3.8-.8.8-.8-.3-.8-.8ZM93.9,50.9c0-.5.3-.8.8-.8s.8.3.8.8-.4.8-.8.8-.8-.3-.8-.8Z"/>
    <path class="st0" d="M100.1,46.7h1.3v-2.4h1.6v2.4h1.3v1.6h-1.3v5.4h-1.6v-5.4h-1.3v-1.6Z"/>
    <path class="st0" d="M104.9,49.2c0-1.3,1.1-2.5,2.3-2.5h1.6c1.4,0,2.3,1.3,2.3,2.4v1.8h-4.5v.4c0,.7.4.9,1,.9h3.2v1.5h-3.6c-1.2,0-2.3-1-2.3-2.4v-2.1ZM106.6,49.6h2.8c0-.8-.4-1.3-1-1.3h-.9c-.6,0-1,.6-1,1.2h0Z"/>
    <path class="st0" d="M115.8,51.5h1.6c-.2,1.3-1.1,2.2-2.5,2.2h-.6c-1.6,0-2.6-1-2.6-2.6v-1.9c0-1.6,1-2.6,2.6-2.6h.6c1.5,0,2.4.8,2.5,2.2h-1.6c0-.4-.4-.6-.9-.6h-.6c-.6,0-1,.4-1,1v1.8c0,.6.4,1,1,1h.6c.4,0,.8-.2.9-.6Z"/>
    <path class="st0" d="M120.9,48.3c-1,0-1.2.5-1.2,1.2v4.3h-1.5v-9.4h1.5v2.5c.3,0,.6-.1.9-.1h.8c1.6,0,2.5,1.2,2.5,2.4v4.6h-1.6v-4.3c0-.7-.2-1.2-1.1-1.2h-.3Z"/>
    <path class="st0" d="M128.4,48.9c0-1.2.9-2.2,2.5-2.2h.8c1.6,0,2.5,1.2,2.5,2.4v4.6h-3.9c-1.2,0-1.9-1-1.9-2.1s.7-2,1.9-2h2.4c0-.8-.1-1.3-1.1-1.3h-.3c-.7,0-1,.2-1.1.6h-1.6ZM130.3,52.3h2.3v-1.4h-2.3c-.2,0-.5.2-.5.7s.2.7.5.7Z"/>
    <path class="st0" d="M139.9,46.8h.2v1.7h-.2c-1.3,0-2.9,1.2-2.9,2.2v2.9h-1.7v-7.1h1.7v1.5c.5-.9,1.8-1.3,2.9-1.3Z"/>
    <path class="st0" d="M140.7,46.7h1.3v-2.4h1.6v2.4h1.3v1.6h-1.3v5.4h-1.6v-5.4h-1.3v-1.6Z"/>
  </g>
</svg>