<?xml version="1.0" encoding="utf-8"?>
<!-- Generator: Adobe Illustrator 27.7.0, SVG Export Plug-In . SVG Version: 6.00 Build 0)  -->
<svg version="1.1" id="Layer_1" xmlns="http://www.w3.org/2000/svg" xmlns:xlink="http://www.w3.org/1999/xlink" x="0px" y="0px"
	 width="188.3px" height="32.8px" viewBox="0 0 188.3 32.8" style="enable-background:new 0 0 188.3 32.8;" xml:space="preserve">
<style type="text/css">
	.st0{fill:#231F20;}
</style>
<path class="st0" d="M102.8,22.3c-1.4,1.1-2.5,1.8-3.8,1.8c-1.4,0-2.5-0.8-3.8-1.8c-1.7-1.2-3.7-2.8-6.8-2.8h-2.9v2.6h2.9
	c2.2,0,3.5,1.1,5.1,2.3c1.5,1.1,3.1,2.3,5.4,2.3c2.3,0,3.8-1.1,5.4-2.3c1.5-1.1,3.1-2.3,5.1-2.3h2.9v-2.6h-2.9
	C106.5,19.6,104.5,21.1,102.8,22.3z"/>
<path class="st0" d="M104.4,12.6c-1.5-1.1-3.1-2.3-5.4-2.3c-2.3,0-3.8,1.1-5.4,2.3c-1.5,1.1-3.1,2.3-5.1,2.3h-2.9v2.6h2.9
	c3.1,0,5.1-1.5,6.8-2.9c1.4-1.1,2.5-1.8,3.8-1.8c1.4,0,2.5,0.8,3.8,1.8c1.7,1.2,3.7,2.9,6.8,2.9h2.9v-2.6h-2.9
	C107.4,14.9,106,13.9,104.4,12.6z"/>
<path class="st0" d="M104.4,8.3C102.8,7.2,101.3,6,99,6c-2.3,0-3.8,1.1-5.4,2.3c-1.5,1.1-3.1,2.3-5.1,2.3h-2.9v2.6h2.9
	c3.1,0,5.1-1.5,6.8-2.9c1.4-1.1,2.5-1.8,3.8-1.8c1.4,0,2.5,0.8,3.8,1.8c1.7,1.2,3.7,2.9,6.8,2.9h2.9v-2.6h-2.9
	C107.4,10.5,106,9.4,104.4,8.3z"/>
</svg>
