<?xml version="1.0" encoding="utf-8"?>
<!-- Generator: Adobe Illustrator 27.7.0, SVG Export Plug-In . SVG Version: 6.00 Build 0)  -->
<svg version="1.1" id="Layer_1" xmlns="http://www.w3.org/2000/svg" xmlns:xlink="http://www.w3.org/1999/xlink" x="0px" y="0px"
	 width="188.3px" height="32.8px" viewBox="0 0 188.3 32.8" style="enable-background:new 0 0 188.3 32.8;" xml:space="preserve">
<style type="text/css">
	.st0{fill:#231F20;}
</style>
<path class="st0" d="M143.3,20.3c-0.9,0.7-1.6,1.2-2.5,1.2s-1.6-0.5-2.5-1.2c-1.1-0.8-2.4-1.8-4.4-1.8h-1.9v1.7h1.9
	c1.4,0,2.3,0.7,3.3,1.5c1,0.7,2,1.5,3.5,1.5s2.5-0.7,3.5-1.5c1-0.7,2-1.5,3.3-1.5h1.9v-1.7h-1.9C145.7,18.5,144.4,19.5,143.3,20.3z"
	/>
<path class="st0" d="M144.3,14c-1-0.7-2-1.5-3.5-1.5s-2.5,0.7-3.5,1.5c-1,0.7-2,1.5-3.3,1.5h-1.9v1.7h1.9c2,0,3.3-1,4.4-1.9
	c0.9-0.7,1.6-1.2,2.5-1.2s1.6,0.5,2.5,1.2c1.1,0.8,2.4,1.9,4.4,1.9h1.9v-1.7h-1.9C146.3,15.5,145.4,14.8,144.3,14z"/>
<path class="st0" d="M144.3,11.2c-1-0.7-2-1.5-3.5-1.5s-2.5,0.7-3.5,1.5c-1,0.7-2,1.5-3.3,1.5h-1.9v1.7h1.9c2,0,3.3-1,4.4-1.9
	c0.9-0.7,1.6-1.2,2.5-1.2s1.6,0.5,2.5,1.2c1.1,0.8,2.4,1.9,4.4,1.9h1.9v-1.7h-1.9C146.3,12.6,145.4,11.9,144.3,11.2z"/>
<path class="st0" d="M86,10.2c0,0.1,0.4,3.3,3.3,6.5c1.7,1.9,3.8,3.3,6.5,4.4c3.3,1.3,7.2,2,11.6,2h0.4v-1.7h-0.4
	c-4.3,0-7.9-0.7-11-1.9c-2.4-0.9-4.4-2.2-5.9-3.9c-1.7-1.9-2.4-3.7-2.7-4.7h19.9V9.4H85.9L86,10.2z"/>
<polygon class="st0" points="44.5,11 44.5,9.4 32.3,9.4 32.3,9.3 32.3,9.4 31.2,9.4 31.2,10.5 31.2,10.5 31.2,10.5 31.2,22.7 
	32.9,22.7 32.9,12.2 43.9,23.1 45,21.9 34,11 "/>
<path class="st0" d="M10,11h11.9c1.1,0,2,0.5,2.8,1.5c0.6,0.7,0.8,1.6,0.8,1.6l0.1,0.4l1.6-0.5l0-0.3c0-0.1-0.4-1.1-1.1-2.1
	c-1-1.4-2.5-2.1-4.2-2.1H10c-1.8,0-3.1,0.5-4,1.4c-1,1-1,2.2-1,2.3v0.4c0,0.1,0,1.3,1,2.3c0.9,0.9,2.2,1.4,4,1.4h12
	c3.3,0,3.3,2,3.3,2v0.4c0,0,0,0.7-0.6,1.1c-0.6,0.6-1.5,0.8-2.8,0.8H10.4c-1.1,0-2-0.5-2.8-1.5c-0.6-0.7-0.8-1.6-0.8-1.6l-0.1-0.4
	L5,18.5l0.1,0.4C5.1,19,5.5,20,6.2,21c1,1.4,2.5,2.1,4.2,2.1h11.7c1.8,0,3.1-0.5,4-1.3c1-1,1-2.2,1-2.3v-0.4c0-0.1,0-1.3-1-2.3
	c-0.8-0.9-2.2-1.4-4-1.4H10c-3.3,0-3.3-2-3.3-2V13C6.7,12.9,6.8,11,10,11z"/>
<path class="st0" d="M71.3,13.4V13c0-0.1,0-1.3-1-2.3c-0.8-0.9-2.2-1.4-4-1.4h-12c-1.8,0-3.1,0.5-4,1.4c-1,1-1,2.2-1,2.3v9.7h1.7
	v-5.6h15.3c3.3,0,3.3,2,3.3,2v3.6h1.7v-3.6c0-0.1,0-1.3-1-2.3c-0.2-0.2-0.4-0.4-0.7-0.6c0.3-0.2,0.5-0.4,0.7-0.6
	C71.3,14.7,71.3,13.5,71.3,13.4z M51.5,11.9c0.6-0.6,1.5-0.8,2.8-0.8h12c3.3,0,3.3,2,3.3,2v0.4c0,0,0,0.7-0.6,1.1
	c-0.6,0.6-1.5,0.8-2.8,0.8H50.9V13C50.9,13,51,12.4,51.5,11.9z"/>
<path class="st0" d="M173.5,13.4V13c0-0.1,0-1.3-1-2.3c-0.9-0.9-2.2-1.4-4-1.4h-12c-1.8,0-3.1,0.5-4,1.4c-1,1-1,2.3-1,2.3v9.7h1.7
	v-5.6h15.3c3.3,0,3.3,1.8,3.3,2v3.6h1.7v-3.6c0-0.1,0-1.3-1-2.3c-0.2-0.2-0.4-0.4-0.7-0.6c0.3-0.2,0.5-0.4,0.7-0.6
	C173.5,14.7,173.5,13.4,173.5,13.4z M153.2,13c0,0,0-0.7,0.6-1.1c0.6-0.6,1.5-0.8,2.8-0.8h12c3.3,0,3.3,1.8,3.3,2v0.4
	c0,0,0,0.7-0.6,1.1c-0.6,0.6-1.5,0.8-2.8,0.8h-15.3V13z"/>
<polygon class="st0" points="73.6,17.3 75.8,17.3 80.3,12.1 80.3,22.7 82,22.7 82,9.4 80.5,9.4 "/>
<polygon class="st0" points="129,9.7 112,20.7 112,9.4 110.3,9.4 110.3,23.8 120.2,17.5 129,23.2 129.9,21.8 121.7,16.5 129.9,11.1 
	"/>
</svg>
