M48
; DRILL file {KiCad 9.0.6} date 2026-04-29T13:41:34-0700
; FORMAT={-:-/ absolute / inch / decimal}
; #@! TF.CreationDate,2026-04-29T13:41:34-07:00
; #@! TF.GenerationSoftware,Kicad,Pcbnew,9.0.6
; #@! TF.FileFunction,Plated,1,2,PTH
FMAT,2
INCH
; #@! TA.AperFunction,Plated,PTH,ViaDrill
T1C0.0118
; #@! TA.AperFunction,Plated,PTH,ComponentDrill
T2C0.0374
; #@! TA.AperFunction,Plated,PTH,ComponentDrill
T3C0.0394
; #@! TA.AperFunction,Plated,PTH,ComponentDrill
T4C0.0433
; #@! TA.AperFunction,Plated,PTH,ComponentDrill
T5C0.1260
%
G90
G05
T1
X2.2283Y-5.0728
X2.337Y-2.0399
X2.3496Y-3.2789
X2.3603Y-2.1053
X2.4249Y-3.2789
X2.4362Y-4.7124
X2.4381Y-3.1337
X2.4691Y-3.1358
X2.4776Y-1.9546
X2.5254Y-5.0374
X2.5315Y-3.3701
X2.543Y-3.1963
X2.5886Y-2.2579
X2.5975Y-4.8129
X2.6683Y-2.5227
X2.7174Y-2.5691
X2.7183Y-3.1411
X2.7841Y-4.6141
X2.7892Y-2.8271
X2.7949Y-5.0374
X2.8003Y-4.4839
X2.8429Y-1.8464
X2.843Y-4.9987
X2.8493Y-3.1566
X2.8719Y-1.6577
X2.9409Y-4.6083
X2.9423Y-2.2635
X2.9704Y-3.1412
X2.9735Y-4.2611
X3.0325Y-4.6654
X3.0629Y-4.3246
X3.0643Y-2.8908
X3.0643Y-4.2074
X3.0643Y-5.0
X3.0644Y-5.0374
X3.0951Y-2.5656
X3.0951Y-2.7193
X3.1365Y-4.8129
X3.1387Y-2.7193
X3.1508Y-2.8706
X3.1508Y-3.1154
X3.1816Y-1.875
X3.1816Y-3.3055
X3.2205Y-2.9311
X3.2627Y-4.6032
X3.3622Y-2.1358
X3.4055Y-5.0079
X3.4163Y-3.7167
X3.419Y-4.544
X3.4471Y-2.918
X3.4882Y-2.1358
X3.6509Y-4.2922
X3.6559Y-4.5443
X3.6956Y-3.2061
X3.6989Y-2.6466
X3.733Y-2.3385
X3.7404Y-3.1034
X3.7409Y-2.8802
X3.7579Y-1.5846
X3.7732Y-3.1204
X3.7752Y-2.4437
X3.8071Y-4.7343
X3.8563Y-2.9626
X3.8738Y-2.4151
X3.8808Y-2.6969
X3.8823Y-4.9829
X3.8856Y-4.5301
X3.8878Y-4.395
X3.9094Y-4.7343
X3.9595Y-2.7777
X3.9602Y-4.3652
X3.9615Y-5.0374
X3.9648Y-3.1687
X3.9651Y-3.2061
X3.9777Y-4.3924
X3.9804Y-2.4253
X3.9928Y-4.7443
X3.9969Y-2.9079
X4.0096Y-4.9987
X4.0146Y-4.6057
X4.0462Y-2.8744
X4.0524Y-3.3595
X4.0585Y-3.1209
X4.0787Y-4.5547
X4.0899Y-3.6303
X4.1078Y-3.8318
X4.1159Y-4.539
X4.1232Y-3.6971
X4.1496Y-2.9528
X4.157Y-3.6819
X4.1594Y-4.7244
X4.1896Y-4.2671
X4.1911Y-4.3928
X4.2013Y-4.5376
X4.2031Y-2.6961
X4.2289Y-3.6881
X4.231Y-5.0374
X4.2376Y-5.0
X4.2376Y-5.1064
X4.2391Y-3.3516
X4.2393Y-4.2225
X4.2435Y-3.9769
X4.2467Y-2.7776
X4.247Y-2.4403
X4.2517Y-3.0984
X4.2547Y-2.4838
X4.2618Y-3.4665
X4.2829Y-3.1769
X4.3008Y-3.6969
X4.3074Y-3.369
X4.3082Y-4.8787
X4.3799Y-3.0315
X4.3858Y-2.4547
X4.3858Y-3.124
X4.3878Y-3.2008
X4.3898Y-4.7008
X4.3957Y-3.3248
X4.4323Y-2.3637
X4.4723Y-4.8897
X4.4902Y-3.628
X4.4902Y-4.3465
X4.5019Y-3.2802
X4.5227Y-3.5984
X4.5276Y-3.0177
X4.5394Y-2.9016
X4.5396Y-3.2763
X4.5482Y-4.157
X4.5868Y-1.8778
X4.5962Y-3.6016
X4.6245Y-4.2546
X4.6401Y-4.2254
X4.6517Y-2.5905
X4.6594Y-3.3701
X4.6594Y-3.5394
X4.6757Y-4.4394
X4.681Y-2.5254
X4.6849Y-2.8948
X4.7029Y-2.1092
X4.7149Y-4.4152
X4.7305Y-2.3083
X4.7343Y-4.065
X4.7417Y-4.3467
X4.7465Y-3.2433
X4.7579Y-3.8661
X4.7753Y-2.9291
X4.788Y-2.7927
X4.8445Y-3.3957
X4.8481Y-2.8774
X4.8512Y-3.4607
X4.8541Y-3.0493
X4.8583Y-3.5177
X4.8622Y-3.2542
X4.8622Y-2.9685
X4.8624Y-2.5713
X4.8647Y-2.6176
X4.8671Y-2.5255
X4.8748Y-2.6946
X4.8819Y-2.4232
X4.8839Y-3.8839
X4.8936Y-2.4787
X4.8963Y-3.5995
X4.9036Y-4.0421
X4.9073Y-2.5962
X4.9184Y-2.6414
X4.9295Y-3.4799
X4.9357Y-2.544
X4.9439Y-3.5473
X4.951Y-2.9137
X4.9972Y-3.2544
X5.0197Y-2.1319
X5.0539Y-2.6236
X5.0553Y-3.5129
X5.059Y-1.6447
X5.061Y-2.5705
X5.0629Y-2.4895
X5.063Y-2.4272
X5.0649Y-2.5252
X5.0969Y-3.8535
X5.1095Y-3.361
X5.1284Y-3.6858
X5.1319Y-3.1754
X5.1417Y-2.689
X5.1478Y-3.8354
X5.1545Y-2.8065
X5.1636Y-3.5522
X5.1734Y-3.717
X5.1803Y-3.2621
X5.1816Y-3.4771
X5.1835Y-2.7815
X5.1869Y-3.6821
X5.2Y-2.5866
X5.2028Y-3.1457
X5.2253Y-2.9065
X5.2254Y-3.4745
X5.2311Y-3.8317
X5.2322Y-4.0701
X5.2429Y-3.0756
X5.2452Y-3.6299
X5.253Y-4.5655
X5.2614Y-3.5609
X5.2936Y-1.6448
X5.3011Y-2.8019
X5.3026Y-3.3538
X5.3077Y-3.1727
X5.313Y-5.0906
X5.3134Y-3.4065
X5.3169Y-2.5463
X5.3169Y-2.6807
X5.317Y-3.1404
X5.3189Y-5.0079
X5.3206Y-3.4751
X5.3248Y-2.9587
X5.3349Y-3.4461
X5.3406Y-2.4547
X5.3466Y-3.231
X5.3486Y-3.9888
X5.3559Y-3.1904
X5.3638Y-2.5398
X5.3783Y-2.4184
X5.3834Y-3.9703
X5.3851Y-4.4044
X5.4014Y-4.7443
X5.411Y-2.4505
X5.4232Y-2.3287
X5.4409Y-1.8091
X5.4492Y-2.6417
X5.5019Y-3.1165
X5.5083Y-2.9718
X5.5138Y-4.6675
X5.5183Y-2.4505
X5.5239Y-3.4129
X5.54Y-3.8417
X5.5447Y-4.3979
X5.5459Y-3.6149
X5.556Y-2.9798
X5.5624Y-3.0371
X5.5787Y-3.25
X5.6074Y-4.2389
X5.6179Y-2.6757
X5.6456Y-4.4078
X5.6456Y-4.5881
X5.6456Y-4.6475
X5.6654Y-4.7283
X5.6767Y-2.8267
X5.6772Y-3.0236
X5.6857Y-3.8081
X5.7083Y-5.0
X5.7111Y-5.0374
X5.7205Y-3.8878
X5.7224Y-3.3307
X5.7354Y-4.5607
X5.7407Y-4.9306
X5.7427Y-2.5443
X5.7476Y-2.6416
X5.7515Y-4.6141
X5.7557Y-3.1556
X5.7778Y-2.9718
X5.78Y-4.4073
X5.7953Y-3.0669
X5.8039Y-4.9568
X5.8071Y-4.2714
X5.8111Y-2.5464
X5.8386Y-4.6083
X5.8563Y-1.4488
X5.8563Y-1.5551
X5.8917Y-5.0138
X5.8937Y-2.3406
X5.8957Y-3.0039
X5.8968Y-2.5398
X5.8983Y-3.6761
X5.9016Y-3.8878
X5.9055Y-3.3346
X5.9429Y-2.876
X5.9602Y-2.5464
X5.9603Y-2.6417
X5.9751Y-3.1963
X5.9778Y-3.0265
X5.9808Y-2.7821
X6.0091Y-4.403
X6.0287Y-4.9987
X6.0335Y-3.1201
X6.0403Y-3.0669
X6.0528Y-4.8129
X6.0768Y-2.1358
X6.0886Y-4.0394
X6.1024Y-2.9311
X6.1569Y-2.8702
X6.1811Y-1.6516
X6.1927Y-2.6951
X6.1969Y-4.7277
X6.2576Y-4.8374
X6.2598Y-2.3819
X6.3159Y-4.627
X6.3418Y-2.9095
X6.3442Y-2.6848
X6.3496Y-3.3713
X6.3525Y-4.5502
X6.3529Y-4.5852
X6.3541Y-3.6766
X6.3694Y-4.7263
X6.3699Y-3.7288
X6.3797Y-2.88
X6.467Y-4.062
X6.5315Y-4.1024
X6.5843Y-3.8318
X6.6282Y-4.7576
X6.6555Y-3.0276
X6.6719Y-4.8787
X6.6776Y-4.7212
X6.689Y-4.0984
X6.6914Y-5.0
X6.6965Y-4.405
X6.7003Y-4.2923
X6.7038Y-4.614
X6.7213Y-4.8814
X6.7232Y-2.9718
X6.7303Y-4.7417
X6.753Y-4.8917
X6.819Y-2.5464
X6.8257Y-3.1411
X6.8307Y-4.8996
X6.8531Y-2.6757
X6.8542Y-2.5312
X6.8661Y-4.5591
X6.8966Y-2.8273
X6.9007Y-2.5464
X6.9016Y-3.4862
X6.9166Y-4.4839
X6.9195Y-2.4254
X6.9267Y-2.6425
X6.9363Y-4.4077
X6.9363Y-4.8916
X6.9473Y-4.5607
X6.9604Y-4.9987
X6.9684Y-3.1576
X6.9927Y-2.9718
X7.0178Y-3.7485
X7.0298Y-4.2671
X7.0336Y-2.421
X7.0472Y-3.3248
X7.0537Y-1.5082
X7.0537Y-4.2074
X7.0778Y-3.1411
X7.0925Y-1.6713
X7.0965Y-2.6652
X7.1247Y-2.7863
X7.126Y-4.626
X7.1319Y-4.7598
X7.1822Y-3.1963
X7.1926Y-2.4505
X7.2022Y-2.7193
X7.2445Y-5.0247
X7.2461Y-3.4075
X7.2539Y-4.6675
X7.2543Y-2.9718
X7.2636Y-4.1771
X7.3089Y-2.9029
X7.315Y-4.8051
X7.3212Y-3.2082
X7.3386Y-3.0512
X7.3804Y-2.5398
X7.4038Y-3.3714
X7.4409Y-5.0807
X7.5233Y-3.2563
X7.6488Y-3.2909
X7.6529Y-4.6375
X7.6614Y-4.7028
T2
X2.7389Y-3.4059
X2.7461Y-1.5827
X2.8374Y-3.4059
X2.8445Y-1.5827
X2.9358Y-3.4059
X2.9429Y-1.5827
X6.8504Y-1.5827
X6.8504Y-3.4059
X6.9488Y-1.5827
X6.9488Y-3.4059
X7.0472Y-1.5827
X7.0472Y-3.4059
T3
X2.2028Y-4.561
X2.2028Y-4.661
X2.2028Y-4.761
X2.2028Y-4.861
X2.2028Y-4.961
X2.2054Y-2.7189
X2.2054Y-2.8189
X2.2054Y-2.9189
X2.2054Y-3.0189
X2.2054Y-3.1189
X2.3425Y-4.561
X2.3425Y-4.661
X2.3425Y-4.761
X2.3425Y-4.861
X2.3425Y-4.961
X2.3452Y-2.7189
X2.3452Y-2.8189
X2.3452Y-2.9189
X2.3452Y-3.0189
X2.3452Y-3.1189
X2.6961Y-3.9916
X2.6961Y-4.0916
X2.6996Y-2.1303
X2.6996Y-2.2303
X2.7961Y-3.9916
X2.7961Y-4.0916
X2.7996Y-2.1303
X2.7996Y-2.2303
X2.8961Y-3.9916
X2.8961Y-4.0916
X2.8996Y-2.1303
X2.8996Y-2.2303
X2.9961Y-3.9916
X2.9961Y-4.0916
X2.9996Y-2.1303
X2.9996Y-2.2303
X3.8571Y-1.6154
X3.8571Y-1.7154
X3.8571Y-2.1303
X3.8571Y-2.2303
X3.8571Y-3.4386
X3.8571Y-3.5386
X3.8571Y-3.9916
X3.8571Y-4.0916
X3.9571Y-1.6154
X3.9571Y-1.7154
X3.9571Y-2.1303
X3.9571Y-2.2303
X3.9571Y-3.4386
X3.9571Y-3.5386
X3.9571Y-3.9916
X3.9571Y-4.0916
X4.0571Y-1.6154
X4.0571Y-1.7154
X4.0571Y-2.1303
X4.0571Y-2.2303
X4.0571Y-3.4386
X4.0571Y-3.5386
X4.0571Y-3.9916
X4.0571Y-4.0916
X4.1571Y-1.6154
X4.1571Y-1.7154
X4.1571Y-2.1303
X4.1571Y-2.2303
X4.1571Y-3.4386
X4.1571Y-3.5386
X4.1571Y-3.9916
X4.1571Y-4.0916
X4.528Y-1.7278
X4.528Y-1.8278
X4.528Y-1.9278
X4.528Y-2.0278
X4.528Y-2.1278
X4.528Y-2.2278
X5.228Y-1.8278
X5.228Y-1.9278
X5.228Y-2.0278
X5.228Y-2.1278
X5.5976Y-2.1303
X5.5976Y-2.2303
X5.6031Y-3.9916
X5.6031Y-4.0916
X5.6075Y-1.6154
X5.6075Y-1.7154
X5.6075Y-3.4386
X5.6075Y-3.5386
X5.6976Y-2.1303
X5.6976Y-2.2303
X5.7031Y-3.9916
X5.7031Y-4.0916
X5.7075Y-1.6154
X5.7075Y-1.7154
X5.7075Y-3.4386
X5.7075Y-3.5386
X5.7976Y-2.1303
X5.7976Y-2.2303
X5.8031Y-3.9916
X5.8031Y-4.0916
X5.8075Y-1.6154
X5.8075Y-1.7154
X5.8075Y-3.4386
X5.8075Y-3.5386
X5.8976Y-2.1303
X5.8976Y-2.2303
X5.9031Y-3.9916
X5.9031Y-4.0916
X5.9075Y-1.6154
X5.9075Y-1.7154
X5.9075Y-3.4386
X5.9075Y-3.5386
X6.8043Y-3.9916
X6.8043Y-4.0916
X6.8087Y-2.1303
X6.8087Y-2.2303
X6.9043Y-3.9916
X6.9043Y-4.0916
X6.9087Y-2.1303
X6.9087Y-2.2303
X7.0043Y-3.9916
X7.0043Y-4.0916
X7.0087Y-2.1303
X7.0087Y-2.2303
X7.1043Y-3.9916
X7.1043Y-4.0916
X7.1087Y-2.1303
X7.1087Y-2.2303
X7.4213Y-2.7189
X7.4213Y-2.8189
X7.4213Y-2.9189
X7.4213Y-3.0189
X7.4213Y-3.1189
X7.4213Y-4.561
X7.4213Y-4.661
X7.4213Y-4.761
X7.4213Y-4.861
X7.4213Y-4.961
X7.561Y-2.7189
X7.561Y-2.8189
X7.561Y-2.9189
X7.561Y-3.0189
X7.561Y-3.1189
X7.561Y-4.561
X7.561Y-4.661
X7.561Y-4.761
X7.561Y-4.861
X7.561Y-4.961
T4
X4.5831Y-3.7921
X4.5831Y-3.8921
X4.5831Y-3.9921
X4.5831Y-4.0921
X4.5831Y-4.1921
X4.5831Y-4.2921
X4.5831Y-4.3921
X4.5831Y-4.4921
X4.5831Y-4.5921
X4.5831Y-4.6921
X4.5831Y-4.7921
X4.5831Y-4.8921
X4.5831Y-4.9921
X4.5831Y-5.0921
X4.6831Y-3.7921
X4.6831Y-3.9921
X4.6831Y-4.0921
X4.6831Y-4.9921
X4.7831Y-3.7921
X4.7831Y-3.9921
X4.7831Y-4.0921
X4.8831Y-3.7921
X4.8831Y-3.9921
X4.8831Y-4.0921
X4.9831Y-3.7921
X4.9831Y-3.9921
X4.9831Y-4.0921
X5.0831Y-3.7921
X5.0831Y-3.9921
X5.0831Y-4.0921
X5.1831Y-3.7921
X5.1831Y-3.8921
X5.1831Y-3.9921
X5.1831Y-4.0921
X5.1831Y-4.1921
X5.1831Y-4.2921
X5.1831Y-4.3921
X5.1831Y-4.4921
X5.1831Y-4.5921
X5.1831Y-4.6921
X5.1831Y-4.7921
X5.1831Y-4.8921
X5.1831Y-4.9921
X5.1831Y-5.0921
T5
X2.2792Y-1.8917
X2.2792Y-4.3248
X7.4869Y-1.8917
X7.4869Y-4.3248
M30
