M48
; DRILL file {KiCad 9.0.6} date 2026-04-13T18:55:27-0700
; FORMAT={-:-/ absolute / inch / decimal}
; #@! TF.CreationDate,2026-04-13T18:55:27-07:00
; #@! TF.GenerationSoftware,Kicad,Pcbnew,9.0.6
; #@! TF.FileFunction,Plated,1,2,PTH
FMAT,2
INCH
; #@! TA.AperFunction,Plated,PTH,ViaDrill
T1C0.0118
; #@! TA.AperFunction,Plated,PTH,ComponentDrill
T2C0.0374
; #@! TA.AperFunction,Plated,PTH,ComponentDrill
T3C0.0394
; #@! TA.AperFunction,Plated,PTH,ComponentDrill
T4C0.0433
; #@! TA.AperFunction,Plated,PTH,ComponentDrill
T5C0.1260
%
G90
G05
T1
X0.3445Y-2.1909
X0.748Y-1.8839
X2.5748Y-5.0155
X2.5925Y-4.284
X2.6752Y-2.8976
X2.6988Y-4.8701
X2.8131Y-2.6296
X2.8291Y-4.6114
X2.8315Y-4.4002
X2.8443Y-5.0342
X2.8506Y-3.1654
X2.8777Y-2.7612
X2.9464Y-2.5497
X2.9464Y-5.0952
X2.9521Y-4.5164
X2.9702Y-3.1654
X2.9724Y-4.2627
X3.0157Y-4.7362
X3.0197Y-2.8976
X3.1063Y-3.0315
X3.1812Y-2.7612
X3.1988Y-4.7579
X3.2059Y-4.6223
X3.2631Y-2.877
X3.2644Y-4.7181
X3.3254Y-2.9811
X3.3307Y-3.124
X3.3862Y-3.6229
X3.4188Y-4.5474
X3.4309Y-2.8841
X3.4724Y-3.9882
X3.5254Y-3.0119
X3.6319Y-3.122
X3.7001Y-5.0
X3.7269Y-2.9016
X3.7463Y-3.1415
X3.7581Y-4.2924
X3.7598Y-2.4248
X3.8118Y-2.6633
X3.8661Y-4.7362
X3.884Y-3.2382
X3.8854Y-2.8078
X3.8858Y-2.8996
X3.8916Y-4.4104
X3.9724Y-4.3909
X3.9865Y-3.1662
X4.0Y-4.189
X4.0028Y-2.5454
X4.0028Y-3.6313
X4.0109Y-5.0155
X4.0336Y-2.7663
X4.0336Y-2.9016
X4.0689Y-2.9311
X4.0894Y-4.2627
X4.1035Y-4.0416
X4.1077Y-2.6509
X4.1113Y-2.7716
X4.1202Y-4.6326
X4.1282Y-3.6354
X4.1315Y-4.9812
X4.138Y-3.3554
X4.1535Y-3.2346
X4.1654Y-4.7382
X4.1664Y-4.5523
X4.1905Y-4.6032
X4.2085Y-3.9235
X4.2249Y-3.3952
X4.2411Y-3.5267
X4.2882Y-4.9191
X4.3417Y-3.4789
X4.3667Y-1.96
X4.3669Y-4.865
X4.4094Y-3.1909
X4.4193Y-4.7382
X4.4646Y-4.8898
X4.5Y-2.9823
X4.5897Y-2.0762
X4.634Y-4.5576
X4.6824Y-2.9598
X4.696Y-3.5014
X4.7136Y-4.5413
X4.7972Y-3.8799
X4.8292Y-3.472
X4.8386Y-3.5354
X4.891Y-3.2677
X4.8976Y-3.0512
X4.9159Y-3.4435
X4.9229Y-3.2569
X4.9275Y-3.1945
X5.0253Y-3.3151
X5.061Y-3.2262
X5.0685Y-3.7058
X5.0745Y-4.6164
X5.0967Y-3.2199
X5.1103Y-3.2892
X5.1224Y-2.7485
X5.2776Y-3.2874
X5.2874Y-4.315
X5.3287Y-4.748
X5.3489Y-4.1141
X5.4162Y-2.4297
X5.4381Y-3.0275
X5.4933Y-5.0155
X5.4968Y-3.3343
X5.5571Y-2.3346
X5.5748Y-2.9016
X5.5827Y-4.7402
X5.5981Y-3.6647
X5.6078Y-1.1815
X5.6166Y-4.4738
X5.6201Y-3.1594
X5.646Y-4.6526
X5.6461Y-3.0058
X5.6554Y-4.4197
X5.745Y-2.5454
X5.7489Y-3.1893
X5.7605Y-5.0325
X5.7634Y-4.1755
X5.7854Y-2.3287
X5.7928Y-4.6113
X5.8051Y-2.9016
X5.8307Y-4.7402
X5.8808Y-3.2382
X5.8808Y-5.0952
X5.8948Y-4.4888
X5.8972Y-3.6085
X5.8972Y-3.2797
X5.8987Y-2.6527
X5.9116Y-4.5639
X5.9311Y-4.7303
X6.0292Y-3.1691
X6.0315Y-3.7756
X6.0846Y-4.4134
X6.118Y-2.8882
X6.126Y-4.7323
X6.1417Y-3.1654
X6.193Y-2.7427
X6.1964Y-4.7336
X6.2329Y-3.4514
X6.2972Y-3.8031
X6.3362Y-3.0073
X6.3395Y-4.4964
X6.3425Y-3.1319
X6.3451Y-4.7523
X6.3785Y-4.652
X6.3853Y-4.6015
X6.5138Y-3.6516
X6.5815Y-4.6326
X6.585Y-3.4706
X6.5868Y-4.8352
X6.6395Y-4.7414
X6.6576Y-3.2521
X6.6665Y-4.7742
X6.6909Y-4.9987
X6.6953Y-4.4806
X6.6953Y-4.6114
X6.6955Y-4.9507
X6.7024Y-2.4248
X6.7146Y-3.6516
X6.7358Y-4.3261
X6.752Y-3.2087
X6.8209Y-4.5177
X6.9055Y-2.3976
X6.9171Y-4.8736
X6.9341Y-2.6304
X6.9348Y-4.2847
X6.9505Y-2.8967
X6.9554Y-4.3976
X6.9579Y-4.7422
X6.9587Y-3.1654
X6.9624Y-4.8844
X6.9784Y-4.6114
X7.0545Y-4.4739
X7.0582Y-2.7645
X7.0728Y-4.6083
X7.0748Y-4.7382
X7.0753Y-2.6848
X7.0807Y-2.8642
X7.0866Y-3.4862
X7.1281Y-2.7259
X7.1322Y-4.2627
X7.1356Y-5.0342
X7.1358Y-3.194
X7.1565Y-4.8195
T2
X2.7389Y-3.4059
X2.7461Y-1.5827
X2.8374Y-3.4059
X2.8445Y-1.5827
X2.9358Y-3.4059
X2.9429Y-1.5827
X6.8504Y-1.5827
X6.8504Y-3.4059
X6.9488Y-1.5827
X6.9488Y-3.4059
X7.0472Y-1.5827
X7.0472Y-3.4059
T3
X2.6961Y-3.9916
X2.6961Y-4.0916
X2.6996Y-2.1303
X2.6996Y-2.2303
X2.7961Y-3.9916
X2.7961Y-4.0916
X2.7996Y-2.1303
X2.7996Y-2.2303
X2.8961Y-3.9916
X2.8961Y-4.0916
X2.8996Y-2.1303
X2.8996Y-2.2303
X2.9961Y-3.9916
X2.9961Y-4.0916
X2.9996Y-2.1303
X2.9996Y-2.2303
X3.8571Y-1.6154
X3.8571Y-1.7154
X3.8571Y-2.1303
X3.8571Y-2.2303
X3.8571Y-3.4386
X3.8571Y-3.5386
X3.8571Y-3.9916
X3.8571Y-4.0916
X3.9571Y-1.6154
X3.9571Y-1.7154
X3.9571Y-2.1303
X3.9571Y-2.2303
X3.9571Y-3.4386
X3.9571Y-3.5386
X3.9571Y-3.9916
X3.9571Y-4.0916
X4.0571Y-1.6154
X4.0571Y-1.7154
X4.0571Y-2.1303
X4.0571Y-2.2303
X4.0571Y-3.4386
X4.0571Y-3.5386
X4.0571Y-3.9916
X4.0571Y-4.0916
X4.1571Y-1.6154
X4.1571Y-1.7154
X4.1571Y-2.1303
X4.1571Y-2.2303
X4.1571Y-3.4386
X4.1571Y-3.5386
X4.1571Y-3.9916
X4.1571Y-4.0916
X4.7298Y-2.2949
X4.8298Y-1.5949
X4.8298Y-2.2949
X4.9298Y-1.5949
X4.9298Y-2.2949
X5.0298Y-1.5949
X5.0298Y-2.2949
X5.1298Y-1.5949
X5.1298Y-2.2949
X5.2298Y-2.2949
X5.5976Y-2.1303
X5.5976Y-2.2303
X5.6031Y-3.9916
X5.6031Y-4.0916
X5.6075Y-1.6154
X5.6075Y-1.7154
X5.6075Y-3.4386
X5.6075Y-3.5386
X5.6976Y-2.1303
X5.6976Y-2.2303
X5.7031Y-3.9916
X5.7031Y-4.0916
X5.7075Y-1.6154
X5.7075Y-1.7154
X5.7075Y-3.4386
X5.7075Y-3.5386
X5.7976Y-2.1303
X5.7976Y-2.2303
X5.8031Y-3.9916
X5.8031Y-4.0916
X5.8075Y-1.6154
X5.8075Y-1.7154
X5.8075Y-3.4386
X5.8075Y-3.5386
X5.8976Y-2.1303
X5.8976Y-2.2303
X5.9031Y-3.9916
X5.9031Y-4.0916
X5.9075Y-1.6154
X5.9075Y-1.7154
X5.9075Y-3.4386
X5.9075Y-3.5386
X6.8043Y-3.9916
X6.8043Y-4.0916
X6.8087Y-2.1303
X6.8087Y-2.2303
X6.9043Y-3.9916
X6.9043Y-4.0916
X6.9087Y-2.1303
X6.9087Y-2.2303
X7.0043Y-3.9916
X7.0043Y-4.0916
X7.0087Y-2.1303
X7.0087Y-2.2303
X7.1043Y-3.9916
X7.1043Y-4.0916
X7.1087Y-2.1303
X7.1087Y-2.2303
T4
X4.5831Y-3.7921
X4.5831Y-3.8921
X4.5831Y-3.9921
X4.5831Y-4.0921
X4.5831Y-4.1921
X4.5831Y-4.2921
X4.5831Y-4.3921
X4.5831Y-4.4921
X4.5831Y-4.5921
X4.5831Y-4.6921
X4.5831Y-4.7921
X4.5831Y-4.8921
X4.5831Y-4.9921
X4.5831Y-5.0921
X4.6831Y-3.7921
X4.6831Y-3.9921
X4.6831Y-4.0921
X4.6831Y-4.9921
X4.7831Y-3.7921
X4.7831Y-3.9921
X4.7831Y-4.0921
X4.8831Y-3.7921
X4.8831Y-3.9921
X4.8831Y-4.0921
X4.9831Y-3.7921
X4.9831Y-3.9921
X4.9831Y-4.0921
X5.0831Y-3.7921
X5.0831Y-3.9921
X5.0831Y-4.0921
X5.1831Y-3.7921
X5.1831Y-3.8921
X5.1831Y-3.9921
X5.1831Y-4.0921
X5.1831Y-4.1921
X5.1831Y-4.2921
X5.1831Y-4.3921
X5.1831Y-4.4921
X5.1831Y-4.5921
X5.1831Y-4.6921
X5.1831Y-4.7921
X5.1831Y-4.8921
X5.1831Y-4.9921
X5.1831Y-5.0921
T5
X2.2792Y-1.8917
X2.2792Y-4.4193
X7.4869Y-1.8917
X7.4869Y-4.4193
M30
