%TF.GenerationSoftware,KiCad,Pcbnew,9.0.6*%
%TF.CreationDate,2026-03-20T08:51:39-07:00*%
%TF.ProjectId,LegRobotBoardTeensy,4c656752-6f62-46f7-9442-6f6172645465,rev?*%
%TF.SameCoordinates,Original*%
%TF.FileFunction,Legend,Bot*%
%TF.FilePolarity,Positive*%
%FSLAX46Y46*%
G04 Gerber Fmt 4.6, Leading zero omitted, Abs format (unit mm)*
G04 Created by KiCad (PCBNEW 9.0.6) date 2026-03-20 08:51:39*
%MOMM*%
%LPD*%
G01*
G04 APERTURE LIST*
G04 Aperture macros list*
%AMRoundRect*
0 Rectangle with rounded corners*
0 $1 Rounding radius*
0 $2 $3 $4 $5 $6 $7 $8 $9 X,Y pos of 4 corners*
0 Add a 4 corners polygon primitive as box body*
4,1,4,$2,$3,$4,$5,$6,$7,$8,$9,$2,$3,0*
0 Add four circle primitives for the rounded corners*
1,1,$1+$1,$2,$3*
1,1,$1+$1,$4,$5*
1,1,$1+$1,$6,$7*
1,1,$1+$1,$8,$9*
0 Add four rect primitives between the rounded corners*
20,1,$1+$1,$2,$3,$4,$5,0*
20,1,$1+$1,$4,$5,$6,$7,0*
20,1,$1+$1,$6,$7,$8,$9,0*
20,1,$1+$1,$8,$9,$2,$3,0*%
G04 Aperture macros list end*
%ADD10RoundRect,0.250000X-0.600000X-0.725000X0.600000X-0.725000X0.600000X0.725000X-0.600000X0.725000X0*%
%ADD11O,1.700000X1.950000*%
%ADD12RoundRect,0.250000X-0.600000X-0.600000X0.600000X-0.600000X0.600000X0.600000X-0.600000X0.600000X0*%
%ADD13C,1.700000*%
%ADD14C,1.905000*%
%ADD15R,1.905000X1.905000*%
%ADD16C,5.700000*%
%ADD17C,1.600000*%
G04 APERTURE END LIST*
%LPC*%
D10*
%TO.C,J5*%
X181862500Y-98110000D03*
D11*
X184362500Y-98110000D03*
X186862500Y-98110000D03*
%TD*%
D12*
%TO.C,J1*%
X110160000Y-77860000D03*
D13*
X112700000Y-77860000D03*
X110160000Y-80400000D03*
X112700000Y-80400000D03*
X110160000Y-82940000D03*
X112700000Y-82940000D03*
X110160000Y-85480000D03*
X112700000Y-85480000D03*
%TD*%
D14*
%TO.C,U8*%
X146480000Y-51680000D03*
X154100000Y-33900000D03*
X149020000Y-51680000D03*
X151560000Y-33900000D03*
X146480000Y-33900000D03*
X149020000Y-33900000D03*
X156640000Y-51680000D03*
X154100000Y-51680000D03*
X151560000Y-51680000D03*
D15*
X143940000Y-51680000D03*
%TD*%
D10*
%TO.C,J4*%
X109050000Y-98110000D03*
D11*
X111550000Y-98110000D03*
X114050000Y-98110000D03*
%TD*%
D10*
%TO.C,J8*%
X181862500Y-53170000D03*
D11*
X184362500Y-53170000D03*
X186862500Y-53170000D03*
%TD*%
D12*
%TO.C,J15*%
X110260000Y-133770000D03*
D13*
X112800000Y-133770000D03*
X110260000Y-136310000D03*
X112800000Y-136310000D03*
X110260000Y-138850000D03*
X112800000Y-138850000D03*
X110260000Y-141390000D03*
X112800000Y-141390000D03*
%TD*%
D16*
%TO.C,MH2*%
X196800000Y-34050000D03*
%TD*%
D10*
%TO.C,J11*%
X109050000Y-120050000D03*
D11*
X111550000Y-120050000D03*
X114050000Y-120050000D03*
%TD*%
D10*
%TO.C,J2*%
X108689300Y-42200000D03*
D11*
X111189300Y-42200000D03*
X113689300Y-42200000D03*
%TD*%
D16*
%TO.C,MH4*%
X196800000Y-152255100D03*
%TD*%
D12*
%TO.C,J16*%
X183210000Y-133770000D03*
D13*
X185750000Y-133770000D03*
X183210000Y-136310000D03*
X185750000Y-136310000D03*
X183210000Y-138850000D03*
X185750000Y-138850000D03*
X183210000Y-141390000D03*
X185750000Y-141390000D03*
%TD*%
D10*
%TO.C,J9*%
X181862500Y-64140000D03*
D11*
X184362500Y-64140000D03*
X186862500Y-64140000D03*
%TD*%
D16*
%TO.C,MH1*%
X99350000Y-34050000D03*
%TD*%
D10*
%TO.C,J13*%
X181862500Y-120050000D03*
D11*
X184362500Y-120050000D03*
X186862500Y-120050000D03*
%TD*%
D10*
%TO.C,J10*%
X109050000Y-109080000D03*
D11*
X111550000Y-109080000D03*
X114050000Y-109080000D03*
%TD*%
D10*
%TO.C,J3*%
X181862500Y-42200000D03*
D11*
X184362500Y-42200000D03*
X186862500Y-42200000D03*
%TD*%
D10*
%TO.C,J7*%
X108689400Y-64140000D03*
D11*
X111189400Y-64140000D03*
X113689400Y-64140000D03*
%TD*%
D17*
%TO.C,U1*%
X155107500Y-155350000D03*
X155107500Y-152810000D03*
X155107500Y-150270000D03*
X155107500Y-147730000D03*
X155107500Y-145190000D03*
X155107500Y-142650000D03*
X155107500Y-140110000D03*
X155107500Y-137570000D03*
X155107500Y-135030000D03*
X155107500Y-132490000D03*
X155107500Y-129950000D03*
X155107500Y-127410000D03*
X155107500Y-124870000D03*
X155107500Y-122330000D03*
X152567500Y-122330000D03*
X150027500Y-122330000D03*
X147487500Y-122330000D03*
X144947500Y-122330000D03*
X142407500Y-122330000D03*
X139867500Y-122330000D03*
X139867500Y-124870000D03*
X139867500Y-127410000D03*
X139867500Y-129950000D03*
X139867500Y-132490000D03*
X139867500Y-135030000D03*
X139867500Y-137570000D03*
X139867500Y-140110000D03*
X139867500Y-142650000D03*
X139867500Y-145190000D03*
X139867500Y-147730000D03*
X139867500Y-150270000D03*
X139867500Y-152810000D03*
X139867500Y-155350000D03*
X142407500Y-152810000D03*
X142407500Y-127410000D03*
X142407500Y-129950000D03*
X144947500Y-127410000D03*
X144947500Y-129950000D03*
X147487500Y-127410000D03*
X147487500Y-129950000D03*
X150027500Y-127410000D03*
X150027500Y-129950000D03*
X152567500Y-127410000D03*
X152567500Y-129950000D03*
%TD*%
D10*
%TO.C,J12*%
X181862500Y-109080000D03*
D11*
X184362500Y-109080000D03*
X186862500Y-109080000D03*
%TD*%
D16*
%TO.C,MH3*%
X99350000Y-152255100D03*
%TD*%
D10*
%TO.C,J6*%
X108689300Y-53170000D03*
D11*
X111189300Y-53170000D03*
X113689300Y-53170000D03*
%TD*%
D12*
%TO.C,J14*%
X183610000Y-77860000D03*
D13*
X186150000Y-77860000D03*
X183610000Y-80400000D03*
X186150000Y-80400000D03*
X183610000Y-82940000D03*
X186150000Y-82940000D03*
X183610000Y-85480000D03*
X186150000Y-85480000D03*
%TD*%
%LPD*%
M02*
