M48
; DRILL file {KiCad 9.0.6} date 2026-03-20T08:51:39-0700
; FORMAT={-:-/ absolute / inch / decimal}
; #@! TF.CreationDate,2026-03-20T08:51:39-07:00
; #@! TF.GenerationSoftware,Kicad,Pcbnew,9.0.6
; #@! TF.FileFunction,Plated,1,2,PTH
FMAT,2
INCH
; #@! TA.AperFunction,Plated,PTH,ViaDrill
T1C0.0118
; #@! TA.AperFunction,Plated,PTH,ComponentDrill
T2C0.0374
; #@! TA.AperFunction,Plated,PTH,ComponentDrill
T3C0.0394
; #@! TA.AperFunction,Plated,PTH,ComponentDrill
T4C0.0433
; #@! TA.AperFunction,Plated,PTH,ComponentDrill
T5C0.1260
%
G90
G05
T1
X4.1953Y-4.422
X4.1953Y-4.8834
X4.2959Y-4.8834
X4.3071Y-4.5766
X4.3324Y-4.4707
X4.3585Y-5.0213
X4.4259Y-4.4896
X4.4259Y-4.88
X4.4396Y-2.6863
X4.4813Y-2.2621
X4.5108Y-2.7081
X4.5191Y-4.889
X4.5221Y-4.341
X4.546Y-2.6835
X4.5462Y-2.2183
X4.5569Y-2.5117
X4.57Y-4.8924
X4.5767Y-4.5766
X4.5925Y-2.0433
X4.6142Y-2.4232
X4.6358Y-4.6732
X4.6358Y-4.752
X4.6526Y-2.4862
X4.6732Y-2.063
X4.6968Y-4.5517
X4.7056Y-4.9335
X4.7264Y-2.561
X4.7283Y-4.7517
X4.7797Y-4.5021
X4.7911Y-2.1109
X4.797Y-2.0196
X4.8076Y-4.8164
X4.8169Y-4.3583
X4.8339Y-2.2586
X4.8654Y-4.3897
X4.866Y-2.3691
X4.8743Y-4.8606
X4.8819Y-4.2992
X4.8917Y-4.2165
X4.897Y-2.4656
X4.9047Y-4.5269
X4.9047Y-5.2171
X4.9136Y-2.7238
X4.9276Y-4.4896
X4.9409Y-4.3563
X4.9469Y-2.561
X4.9469Y-4.7517
X4.9716Y-4.8004
X4.981Y-3.4582
X4.989Y-3.3023
X4.9916Y-4.4592
X4.9928Y-3.2592
X5.0113Y-5.004
X5.0232Y-2.5649
X5.0384Y-3.2061
X5.04Y-4.4334
X5.0542Y-4.7525
X5.0621Y-2.7921
X5.0931Y-2.7089
X5.099Y-4.8947
X5.1024Y-4.8366
X5.1185Y-2.535
X5.1304Y-2.3265
X5.1304Y-3.0106
X5.1339Y-4.9587
X5.1383Y-2.7074
X5.1673Y-2.5906
X5.1708Y-3.2558
X5.1999Y-4.4895
X5.2296Y-2.3053
X5.2473Y-4.9182
X5.2493Y-1.9773
X5.2493Y-4.3227
X5.2599Y-2.3262
X5.2617Y-5.2512
X5.313Y-4.4803
X5.3382Y-4.7634
X5.3687Y-3.6871
X5.3949Y-3.9563
X5.3972Y-3.4601
X5.4081Y-3.2835
X5.4427Y-4.0577
X5.4609Y-2.4237
X5.4609Y-3.3742
X5.4811Y-1.8609
X5.4811Y-3.6071
X5.5079Y-4.1516
X5.5197Y-4.4724
X5.5519Y-1.9467
X5.5866Y-3.7244
X5.5866Y-4.1496
X5.5939Y-3.231
X5.5944Y-4.4034
X5.5967Y-4.3419
X5.6415Y-3.7235
X5.6437Y-3.9685
X5.6437Y-4.4724
X5.6555Y-4.0709
X5.6555Y-4.2283
X5.6619Y-3.2311
X5.6649Y-3.5124
X5.677Y-4.5359
X5.6811Y-3.0965
X5.7081Y-3.3749
X5.7087Y-3.6161
X5.7146Y-4.7343
X5.7149Y-4.1892
X5.7184Y-4.5349
X5.7205Y-4.9114
X5.7381Y-3.0177
X5.7549Y-4.0422
X5.777Y-3.91
X5.7836Y-3.5257
X5.7871Y-3.2292
X5.7965Y-3.4907
X5.8014Y-3.2653
X5.8189Y-4.6299
X5.8318Y-5.3533
X5.8497Y-3.9247
X5.8681Y-2.1693
X5.8681Y-2.2618
X5.878Y-3.9626
X5.9114Y-4.5374
X5.9326Y-4.1038
X5.9355Y-3.6977
X5.9413Y-3.814
X5.9486Y-4.3056
X5.9718Y-4.2197
X6.0295Y-3.8104
X6.0385Y-4.3514
X6.0433Y-3.3858
X6.0729Y-4.4159
X6.0982Y-2.9866
X6.1342Y-2.5594
X6.144Y-2.1768
X6.1909Y-4.628
X6.1949Y-4.4685
X6.1956Y-4.8463
X6.2054Y-2.2177
X6.2054Y-3.3455
X6.257Y-3.5082
X6.276Y-3.1795
X6.2961Y-2.2101
X6.3059Y-5.4399
X6.3237Y-4.2903
X6.341Y-4.2637
X6.3819Y-4.3661
X6.3834Y-4.4592
X6.3839Y-2.5301
X6.3839Y-4.7312
X6.3922Y-2.5836
X6.3922Y-4.7902
X6.3997Y-5.3941
X6.4156Y-5.4416
X6.4163Y-3.9564
X6.4232Y-2.1594
X6.4274Y-3.2269
X6.4462Y-4.7366
X6.4536Y-4.7715
X6.5051Y-2.7616
X6.5226Y-2.1796
X6.5252Y-4.3361
X6.5615Y-3.1188
X6.5674Y-5.3945
X6.5702Y-2.7014
X6.5713Y-3.2987
X6.5977Y-3.2147
X6.6033Y-2.0982
X6.6033Y-2.5301
X6.6033Y-4.7312
X6.6136Y-2.7463
X6.6136Y-4.9185
X6.6141Y-2.4142
X6.6181Y-4.463
X6.6181Y-4.6167
X6.6181Y-4.7805
X6.65Y-3.84
X6.6697Y-2.1162
X6.6795Y-2.5729
X6.6865Y-4.8414
X6.6969Y-4.2028
X6.7215Y-2.2261
X6.7472Y-2.0523
X6.7528Y-4.2873
X6.7598Y-2.2657
X6.7637Y-4.8904
X6.7657Y-4.7579
X6.7756Y-2.1437
X6.7813Y-2.8075
X6.7813Y-4.8012
X6.8228Y-2.561
X6.8327Y-4.8012
X6.8454Y-2.1643
X6.8454Y-2.7192
X6.8878Y-5.4075
X6.8898Y-5.2618
X6.8957Y-5.7244
X6.8957Y-5.815
X6.9035Y-4.8012
X6.9156Y-4.4219
X6.9764Y-4.3819
X6.9879Y-4.8189
X7.0006Y-2.4429
X7.0156Y-2.7281
X7.0347Y-4.4952
X7.0567Y-4.8565
X7.0801Y-2.2863
X7.1175Y-2.4296
X7.1175Y-2.635
X7.1221Y-4.866
X7.2161Y-2.5891
X7.2345Y-2.6758
X7.2404Y-4.5724
X7.2709Y-2.2827
X7.2804Y-5.0211
X7.3708Y-5.6148
X7.386Y-3.2838
X7.439Y-4.0906
X7.4681Y-2.2101
X7.4682Y-2.6758
X7.4682Y-4.422
X7.5103Y-3.025
T2
X4.2791Y-1.6614
X4.2791Y-2.0933
X4.2791Y-2.5252
X4.2933Y-3.8626
X4.2933Y-4.2945
X4.2933Y-4.7264
X4.3775Y-1.6614
X4.3775Y-2.0933
X4.3775Y-2.5252
X4.3917Y-3.8626
X4.3917Y-4.2945
X4.3917Y-4.7264
X4.476Y-1.6614
X4.476Y-2.0933
X4.476Y-2.5252
X4.4902Y-3.8626
X4.4902Y-4.2945
X4.4902Y-4.7264
X7.1599Y-1.6614
X7.1599Y-2.0933
X7.1599Y-2.5252
X7.1599Y-3.8626
X7.1599Y-4.2945
X7.1599Y-4.7264
X7.2584Y-1.6614
X7.2584Y-2.0933
X7.2584Y-2.5252
X7.2584Y-3.8626
X7.2584Y-4.2945
X7.2584Y-4.7264
X7.3568Y-1.6614
X7.3568Y-2.0933
X7.3568Y-2.5252
X7.3568Y-3.8626
X7.3568Y-4.2945
X7.3568Y-4.7264
T3
X4.337Y-3.0654
X4.337Y-3.1654
X4.337Y-3.2654
X4.337Y-3.3654
X4.3409Y-5.2665
X4.3409Y-5.3665
X4.3409Y-5.4665
X4.3409Y-5.5665
X4.437Y-3.0654
X4.437Y-3.1654
X4.437Y-3.2654
X4.437Y-3.3654
X4.4409Y-5.2665
X4.4409Y-5.3665
X4.4409Y-5.4665
X4.4409Y-5.5665
X5.6669Y-2.0346
X5.7669Y-1.3346
X5.7669Y-2.0346
X5.8669Y-1.3346
X5.8669Y-2.0346
X5.9669Y-1.3346
X5.9669Y-2.0346
X6.0669Y-1.3346
X6.0669Y-2.0346
X6.1669Y-2.0346
X7.213Y-5.2665
X7.213Y-5.3665
X7.213Y-5.4665
X7.213Y-5.5665
X7.2287Y-3.0654
X7.2287Y-3.1654
X7.2287Y-3.2654
X7.2287Y-3.3654
X7.313Y-5.2665
X7.313Y-5.3665
X7.313Y-5.4665
X7.313Y-5.5665
X7.3287Y-3.0654
X7.3287Y-3.1654
X7.3287Y-3.2654
X7.3287Y-3.3654
T4
X5.5066Y-4.8161
X5.5066Y-4.9161
X5.5066Y-5.0161
X5.5066Y-5.1161
X5.5066Y-5.2161
X5.5066Y-5.3161
X5.5066Y-5.4161
X5.5066Y-5.5161
X5.5066Y-5.6161
X5.5066Y-5.7161
X5.5066Y-5.8161
X5.5066Y-5.9161
X5.5066Y-6.0161
X5.5066Y-6.1161
X5.6066Y-4.8161
X5.6066Y-5.0161
X5.6066Y-5.1161
X5.6066Y-6.0161
X5.7066Y-4.8161
X5.7066Y-5.0161
X5.7066Y-5.1161
X5.8066Y-4.8161
X5.8066Y-5.0161
X5.8066Y-5.1161
X5.9066Y-4.8161
X5.9066Y-5.0161
X5.9066Y-5.1161
X6.0066Y-4.8161
X6.0066Y-5.0161
X6.0066Y-5.1161
X6.1066Y-4.8161
X6.1066Y-4.9161
X6.1066Y-5.0161
X6.1066Y-5.1161
X6.1066Y-5.2161
X6.1066Y-5.3161
X6.1066Y-5.4161
X6.1066Y-5.5161
X6.1066Y-5.6161
X6.1066Y-5.7161
X6.1066Y-5.8161
X6.1066Y-5.9161
X6.1066Y-6.0161
X6.1066Y-6.1161
T5
X3.9114Y-1.3406
X3.9114Y-5.9943
X7.748Y-1.3406
X7.748Y-5.9943
M30
