M48
; DRILL file {KiCad 9.0.6} date 2026-05-19T15:58:15-0700
; FORMAT={-:-/ absolute / inch / decimal}
; #@! TF.CreationDate,2026-05-19T15:58:15-07:00
; #@! TF.GenerationSoftware,Kicad,Pcbnew,9.0.6
; #@! TF.FileFunction,Plated,1,2,PTH
FMAT,2
INCH
; #@! TA.AperFunction,Plated,PTH,ViaDrill
T1C0.0118
; #@! TA.AperFunction,Plated,PTH,ComponentDrill
T2C0.0374
; #@! TA.AperFunction,Plated,PTH,ComponentDrill
T3C0.0394
; #@! TA.AperFunction,Plated,PTH,ComponentDrill
T4C0.0433
; #@! TA.AperFunction,Plated,PTH,ComponentDrill
T5C0.1260
%
G90
G05
T1
X2.1445Y-3.3714
X2.1657Y-4.062
X2.2429Y-1.5297
X2.2429Y-2.2203
X2.2638Y-2.3858
X2.3603Y-2.2203
X2.3802Y-3.1794
X2.3879Y-2.7494
X2.3976Y-2.3799
X2.4473Y-1.9886
X2.4578Y-2.911
X2.4598Y-3.2563
X2.4746Y-4.5419
X2.4822Y-4.6375
X2.5254Y-5.0374
X2.543Y-3.1963
X2.5931Y-2.5638
X2.5975Y-4.8129
X2.6152Y-2.9718
X2.6949Y-1.6594
X2.7183Y-3.1412
X2.7947Y-4.4022
X2.7949Y-5.0374
X2.7988Y-4.5607
X2.8104Y-2.4272
X2.8114Y-3.1651
X2.8125Y-3.1963
X2.8218Y-2.7812
X2.8296Y-4.4076
X2.8357Y-3.7167
X2.8429Y-1.8464
X2.843Y-4.9987
X2.8543Y-2.3937
X2.867Y-4.8129
X2.8719Y-1.6577
X2.8783Y-4.6141
X2.9396Y-4.393
X2.9572Y-2.6627
X2.9704Y-3.1411
X2.9722Y-4.3951
X3.0079Y-3.6181
X3.0261Y-4.5417
X3.0643Y-5.0
X3.0644Y-5.0374
X3.0925Y-3.4409
X3.1102Y-3.0315
X3.1365Y-4.8129
X3.1476Y-4.5607
X3.1847Y-3.4757
X3.2069Y-2.7025
X3.2293Y-2.8643
X3.2539Y-3.0846
X3.254Y-2.7252
X3.2627Y-4.7357
X3.3241Y-4.8374
X3.4261Y-2.9105
X3.5269Y-4.9896
X3.5295Y-4.4034
X3.5797Y-4.6298
X3.6414Y-2.8545
X3.6432Y-4.0889
X3.6509Y-3.7167
X3.692Y-5.0374
X3.6988Y-3.2579
X3.7539Y-1.5906
X3.7557Y-3.2126
X3.7582Y-4.2993
X3.7587Y-4.0452
X3.7683Y-4.8787
X3.7733Y-4.164
X3.7742Y-4.1953
X3.7933Y-3.2324
X3.7972Y-3.0827
X3.802Y-4.1809
X3.8327Y-4.7047
X3.8485Y-3.176
X3.8571Y-2.5424
X3.876Y-4.9941
X3.8856Y-4.6678
X3.9055Y-3.0945
X3.9615Y-5.0374
X3.9651Y-3.2061
X3.9773Y-2.786
X4.0002Y-2.5656
X4.0031Y-4.2714
X4.0097Y-4.9987
X4.0132Y-3.1675
X4.0337Y-4.8129
X4.0345Y-3.2959
X4.0792Y-2.8262
X4.083Y-4.2672
X4.0945Y-5.1043
X4.0951Y-4.5996
X4.0997Y-3.3971
X4.1115Y-3.3357
X4.1316Y-4.9829
X4.1319Y-3.3583
X4.1408Y-2.5656
X4.1567Y-4.6488
X4.1693Y-3.1358
X4.189Y-4.7205
X4.1909Y-2.937
X4.1909Y-3.0256
X4.1949Y-3.2067
X4.231Y-5.0374
X4.2356Y-4.058
X4.2377Y-2.7753
X4.2717Y-4.4073
X4.2773Y-3.2141
X4.2835Y-2.4154
X4.285Y-3.1691
X4.2855Y-3.8422
X4.2874Y-2.9016
X4.3031Y-4.8129
X4.3087Y-3.5097
X4.3146Y-4.5624
X4.3241Y-4.8585
X4.3851Y-2.3267
X4.3898Y-2.8996
X4.4397Y-1.9555
X4.442Y-2.4175
X4.4585Y-2.5423
X4.4671Y-3.9143
X4.4685Y-3.0138
X4.4723Y-1.4994
X4.4723Y-2.7116
X4.4724Y-3.1713
X4.4753Y-2.7806
X4.478Y-2.5899
X4.4844Y-5.0062
X4.5896Y-3.1411
X4.6024Y-1.5925
X4.6173Y-2.4648
X4.6381Y-3.6777
X4.6398Y-1.9291
X4.6496Y-3.626
X4.6892Y-3.596
X4.6969Y-3.3661
X4.7148Y-3.7434
X4.7239Y-1.9959
X4.7296Y-1.8287
X4.7668Y-3.626
X4.7717Y-2.9055
X4.8012Y-3.8878
X4.8228Y-2.315
X4.8243Y-1.6448
X4.8243Y-2.4505
X4.8251Y-2.9216
X4.8312Y-2.6773
X4.8396Y-2.7958
X4.8451Y-3.1598
X4.8565Y-3.5573
X4.8565Y-3.6397
X4.8586Y-3.6086
X4.8622Y-3.0415
X4.8641Y-3.6777
X4.867Y-2.646
X4.8679Y-2.7016
X4.8701Y-3.872
X4.9297Y-3.6986
X4.9352Y-3.3761
X4.9393Y-3.3015
X4.9428Y-4.8883
X4.9471Y-3.4512
X4.9536Y-2.5316
X4.9536Y-2.7958
X4.9536Y-3.1598
X4.9665Y-4.6663
X4.9685Y-2.4409
X4.9706Y-3.7156
X4.9783Y-2.5827
X4.98Y-3.6853
X4.9849Y-2.3289
X5.0359Y-3.918
X5.059Y-4.1942
X5.059Y-5.0958
X5.0591Y-3.248
X5.0591Y-3.3346
X5.0606Y-3.5282
X5.0757Y-3.653
X5.098Y-2.8912
X5.098Y-3.0025
X5.1152Y-3.7215
X5.124Y-2.1358
X5.1256Y-3.6897
X5.1274Y-2.6361
X5.134Y-3.5991
X5.137Y-3.7638
X5.1593Y-2.6412
X5.1641Y-2.7958
X5.1642Y-2.6807
X5.1642Y-3.5537
X5.1664Y-3.712
X5.1693Y-3.2028
X5.1732Y-3.1063
X5.2118Y-3.7078
X5.2272Y-3.6448
X5.2298Y-2.4554
X5.2489Y-3.3354
X5.2539Y-3.2028
X5.2565Y-3.3723
X5.258Y-3.6727
X5.2598Y-3.4764
X5.2598Y-3.5061
X5.2612Y-2.5482
X5.2639Y-3.1576
X5.2677Y-3.1083
X5.2697Y-3.4065
X5.2711Y-4.073
X5.2933Y-5.1024
X5.3078Y-2.4648
X5.3131Y-3.9394
X5.3369Y-3.2325
X5.3405Y-2.4287
X5.3446Y-3.3706
X5.3446Y-3.8096
X5.3694Y-2.232
X5.4014Y-4.7443
X5.4068Y-2.2161
X5.4228Y-2.2557
X5.4278Y-4.1784
X5.4416Y-5.0374
X5.4481Y-3.2602
X5.4494Y-2.3838
X5.4519Y-4.4831
X5.452Y-4.145
X5.461Y-2.3244
X5.4764Y-3.0256
X5.4768Y-3.5027
X5.4792Y-4.6161
X5.4843Y-3.9159
X5.5131Y-3.9519
X5.5138Y-4.6675
X5.5183Y-2.4506
X5.5236Y-2.2756
X5.5283Y-3.2923
X5.5374Y-3.1929
X5.5547Y-4.1799
X5.5714Y-4.1466
X5.5715Y-3.1167
X5.5776Y-3.3026
X5.6371Y-4.9772
X5.6456Y-4.4078
X5.659Y-4.1921
X5.665Y-3.1411
X5.6756Y-2.6639
X5.6829Y-3.3808
X5.7111Y-5.0374
X5.7295Y-2.7728
X5.7321Y-4.6286
X5.7376Y-3.7275
X5.7593Y-4.9987
X5.763Y-4.4073
X5.7638Y-3.1161
X5.8051Y-4.9567
X5.8071Y-4.2714
X5.8495Y-2.6962
X5.8676Y-2.5656
X5.8864Y-4.9829
X5.8937Y-4.9232
X5.8975Y-3.9109
X5.9032Y-2.6881
X5.9576Y-3.155
X5.9806Y-5.0374
X5.9976Y-2.5656
X6.0217Y-1.5709
X6.0528Y-4.8129
X6.0827Y-3.2067
X6.1299Y-3.0787
X6.1927Y-2.8867
X6.1961Y-4.6032
X6.1961Y-4.7357
X6.2323Y-3.7433
X6.2576Y-4.8374
X6.3483Y-2.9109
X6.3496Y-2.4548
X6.3524Y-4.5502
X6.3803Y-2.8789
X6.3819Y-3.7515
X6.3863Y-4.5437
X6.467Y-3.7866
X6.5085Y-4.627
X6.5805Y-4.8677
X6.5843Y-2.4548
X6.5843Y-2.6853
X6.5843Y-3.4865
X6.5843Y-4.2922
X6.6007Y-4.7284
X6.6092Y-4.5505
X6.7003Y-4.2922
X6.7151Y-2.7193
X6.7228Y-4.4731
X6.7232Y-2.9718
X6.7253Y-3.6075
X6.743Y-4.5607
X6.75Y-5.0531
X6.7915Y-3.026
X6.819Y-2.5656
X6.8216Y-4.9829
X6.8257Y-3.1411
X6.8287Y-4.7854
X6.8366Y-4.4055
X6.8406Y-3.6961
X6.8529Y-4.9508
X6.8989Y-2.7636
X6.9035Y-4.5648
X6.9058Y-2.421
X6.9093Y-3.155
X6.9242Y-4.4839
X6.9267Y-2.7867
X6.933Y-4.8896
X6.9604Y-4.9987
X6.9792Y-4.8866
X6.9927Y-2.9718
X6.9982Y-4.3811
X7.002Y-4.5607
X7.012Y-4.9568
X7.0183Y-3.7381
X7.0217Y-5.0512
X7.0778Y-3.1411
X7.0807Y-4.3976
X7.0813Y-2.6819
X7.0866Y-1.6654
X7.0945Y-4.7815
X7.1546Y-4.6717
X7.171Y-3.3191
X7.1804Y-3.1981
X7.2323Y-4.5807
X7.2382Y-4.7244
X7.2543Y-2.9718
X7.2874Y-5.0492
X7.3101Y-3.2445
X7.3164Y-4.5525
X7.33Y-3.3517
X7.3893Y-2.3185
X7.4041Y-3.2695
X7.523Y-2.4505
X7.5244Y-3.2563
X7.6666Y-3.1411
T2
X2.7389Y-3.4059
X2.7461Y-1.5827
X2.8374Y-3.4059
X2.8445Y-1.5827
X2.9358Y-3.4059
X2.9429Y-1.5827
X6.8504Y-1.5827
X6.8504Y-3.4059
X6.9488Y-1.5827
X6.9488Y-3.4059
X7.0472Y-1.5827
X7.0472Y-3.4059
T3
X2.2028Y-4.561
X2.2028Y-4.661
X2.2028Y-4.761
X2.2028Y-4.861
X2.2028Y-4.961
X2.2054Y-2.7189
X2.2054Y-2.8189
X2.2054Y-2.9189
X2.2054Y-3.0189
X2.2054Y-3.1189
X2.3425Y-4.561
X2.3425Y-4.661
X2.3425Y-4.761
X2.3425Y-4.861
X2.3425Y-4.961
X2.3452Y-2.7189
X2.3452Y-2.8189
X2.3452Y-2.9189
X2.3452Y-3.0189
X2.3452Y-3.1189
X2.6961Y-3.9916
X2.6961Y-4.0916
X2.6996Y-2.1303
X2.6996Y-2.2303
X2.7961Y-3.9916
X2.7961Y-4.0916
X2.7996Y-2.1303
X2.7996Y-2.2303
X2.8961Y-3.9916
X2.8961Y-4.0916
X2.8996Y-2.1303
X2.8996Y-2.2303
X2.9961Y-3.9916
X2.9961Y-4.0916
X2.9996Y-2.1303
X2.9996Y-2.2303
X3.8571Y-1.6154
X3.8571Y-1.7154
X3.8571Y-2.1303
X3.8571Y-2.2303
X3.8571Y-3.4386
X3.8571Y-3.5386
X3.8571Y-3.9916
X3.8571Y-4.0916
X3.9571Y-1.6154
X3.9571Y-1.7154
X3.9571Y-2.1303
X3.9571Y-2.2303
X3.9571Y-3.4386
X3.9571Y-3.5386
X3.9571Y-3.9916
X3.9571Y-4.0916
X4.0571Y-1.6154
X4.0571Y-1.7154
X4.0571Y-2.1303
X4.0571Y-2.2303
X4.0571Y-3.4386
X4.0571Y-3.5386
X4.0571Y-3.9916
X4.0571Y-4.0916
X4.1571Y-1.6154
X4.1571Y-1.7154
X4.1571Y-2.1303
X4.1571Y-2.2303
X4.1571Y-3.4386
X4.1571Y-3.5386
X4.1571Y-3.9916
X4.1571Y-4.0916
X4.528Y-1.7278
X4.528Y-1.8278
X4.528Y-1.9278
X4.528Y-2.0278
X4.528Y-2.1278
X4.528Y-2.2278
X5.228Y-1.8278
X5.228Y-1.9278
X5.228Y-2.0278
X5.228Y-2.1278
X5.5976Y-2.1303
X5.5976Y-2.2303
X5.6031Y-3.9916
X5.6031Y-4.0916
X5.6075Y-1.6154
X5.6075Y-1.7154
X5.6075Y-3.4386
X5.6075Y-3.5386
X5.6976Y-2.1303
X5.6976Y-2.2303
X5.7031Y-3.9916
X5.7031Y-4.0916
X5.7075Y-1.6154
X5.7075Y-1.7154
X5.7075Y-3.4386
X5.7075Y-3.5386
X5.7976Y-2.1303
X5.7976Y-2.2303
X5.8031Y-3.9916
X5.8031Y-4.0916
X5.8075Y-1.6154
X5.8075Y-1.7154
X5.8075Y-3.4386
X5.8075Y-3.5386
X5.8976Y-2.1303
X5.8976Y-2.2303
X5.9031Y-3.9916
X5.9031Y-4.0916
X5.9075Y-1.6154
X5.9075Y-1.7154
X5.9075Y-3.4386
X5.9075Y-3.5386
X6.8043Y-3.9916
X6.8043Y-4.0916
X6.8087Y-2.1303
X6.8087Y-2.2303
X6.9043Y-3.9916
X6.9043Y-4.0916
X6.9087Y-2.1303
X6.9087Y-2.2303
X7.0043Y-3.9916
X7.0043Y-4.0916
X7.0087Y-2.1303
X7.0087Y-2.2303
X7.1043Y-3.9916
X7.1043Y-4.0916
X7.1087Y-2.1303
X7.1087Y-2.2303
X7.4213Y-2.7189
X7.4213Y-2.8189
X7.4213Y-2.9189
X7.4213Y-3.0189
X7.4213Y-3.1189
X7.4213Y-4.561
X7.4213Y-4.661
X7.4213Y-4.761
X7.4213Y-4.861
X7.4213Y-4.961
X7.561Y-2.7189
X7.561Y-2.8189
X7.561Y-2.9189
X7.561Y-3.0189
X7.561Y-3.1189
X7.561Y-4.561
X7.561Y-4.661
X7.561Y-4.761
X7.561Y-4.861
X7.561Y-4.961
T4
X4.5831Y-3.7921
X4.5831Y-3.8921
X4.5831Y-3.9921
X4.5831Y-4.0921
X4.5831Y-4.1921
X4.5831Y-4.2921
X4.5831Y-4.3921
X4.5831Y-4.4921
X4.5831Y-4.5921
X4.5831Y-4.6921
X4.5831Y-4.7921
X4.5831Y-4.8921
X4.5831Y-4.9921
X4.5831Y-5.0921
X4.6831Y-3.7921
X4.6831Y-3.9921
X4.6831Y-4.0921
X4.6831Y-4.9921
X4.7831Y-3.7921
X4.7831Y-3.9921
X4.7831Y-4.0921
X4.8831Y-3.7921
X4.8831Y-3.9921
X4.8831Y-4.0921
X4.9831Y-3.7921
X4.9831Y-3.9921
X4.9831Y-4.0921
X5.0831Y-3.7921
X5.0831Y-3.9921
X5.0831Y-4.0921
X5.1831Y-3.7921
X5.1831Y-3.8921
X5.1831Y-3.9921
X5.1831Y-4.0921
X5.1831Y-4.1921
X5.1831Y-4.2921
X5.1831Y-4.3921
X5.1831Y-4.4921
X5.1831Y-4.5921
X5.1831Y-4.6921
X5.1831Y-4.7921
X5.1831Y-4.8921
X5.1831Y-4.9921
X5.1831Y-5.0921
T5
X2.2792Y-1.8917
X2.2792Y-4.3248
X7.4869Y-1.8917
X7.4869Y-4.3248
M30
