M48
; DRILL file {KiCad 9.0.6} date 2026-07-24T15:14:22-0700
; FORMAT={-:-/ absolute / inch / decimal}
; #@! TF.CreationDate,2026-07-24T15:14:22-07:00
; #@! TF.GenerationSoftware,Kicad,Pcbnew,9.0.6
; #@! TF.FileFunction,Plated,1,2,PTH
FMAT,2
INCH
; #@! TA.AperFunction,Plated,PTH,ViaDrill
T1C0.0118
; #@! TA.AperFunction,Plated,PTH,ComponentDrill
T2C0.0315
; #@! TA.AperFunction,Plated,PTH,ComponentDrill
T3C0.0374
; #@! TA.AperFunction,Plated,PTH,ComponentDrill
T4C0.0394
; #@! TA.AperFunction,Plated,PTH,ComponentDrill
T5C0.0433
; #@! TA.AperFunction,Plated,PTH,ComponentDrill
T6C0.1260
%
G90
G05
T1
X2.8409Y-1.843
X2.9579Y-1.827
X2.9579Y-2.0733
X3.075Y-1.8302
X3.075Y-5.641
X3.1921Y-1.8733
X3.1921Y-5.5281
X3.2598Y-3.5984
X3.3091Y-1.917
X3.3443Y-1.9073
X3.3504Y-3.4055
X3.39Y-2.8794
X3.39Y-3.3676
X3.4064Y-4.4916
X3.4152Y-3.6832
X3.4262Y-2.6491
X3.4498Y-3.1584
X3.4688Y-3.3401
X3.4921Y-3.4961
X3.4921Y-3.6732
X3.4921Y-3.811
X3.4993Y-3.1269
X3.5032Y-3.1775
X3.5433Y-1.796
X3.5433Y-4.3765
X3.5433Y-4.4614
X3.5433Y-2.6097
X3.5614Y-3.3906
X3.5866Y-3.3701
X3.6092Y-3.5451
X3.6299Y-5.5827
X3.6347Y-2.6097
X3.6427Y-3.1097
X3.6603Y-1.9219
X3.6603Y-4.2613
X3.6705Y-3.7472
X3.6962Y-3.5996
X3.7677Y-5.4961
X3.7913Y-3.4528
X3.811Y-4.4134
X3.8133Y-5.2006
X3.8467Y-3.0663
X3.8583Y-5.5669
X3.8684Y-4.9383
X3.8916Y-5.5281
X3.8974Y-3.6855
X3.9055Y-3.7638
X3.9644Y-3.606
X3.9711Y-5.5807
X3.9788Y-3.1097
X4.0115Y-3.5812
X4.0115Y-1.9582
X4.0115Y-4.724
X4.0167Y-3.8072
X4.0192Y-5.542
X4.0282Y-2.0389
X4.0551Y-3.437
X4.0633Y-3.7396
X4.0752Y-3.5699
X4.1031Y-2.9647
X4.108Y-3.8167
X4.1181Y-2.2087
X4.1536Y-3.7676
X4.1575Y-5.5433
X4.189Y-3.7323
X4.2177Y-3.2165
X4.2369Y-3.7
X4.2406Y-5.5807
X4.2456Y-3.4467
X4.2456Y-3.8534
X4.2456Y-5.5433
X4.2616Y-4.8225
X4.2787Y-3.3179
X4.2804Y-4.9523
X4.2992Y-3.4134
X4.3031Y-5.5
X4.311Y-3.7362
X4.3254Y-3.59
X4.3307Y-5.2835
X4.3532Y-3.4448
X4.3627Y-3.6593
X4.3898Y-3.2717
X4.3997Y-3.7058
X4.4055Y-5.0866
X4.4291Y-4.9055
X4.4346Y-3.5899
X4.437Y-3.7913
X4.4409Y-5.6181
X4.4477Y-5.0597
X4.4477Y-5.3922
X4.4497Y-3.217
X4.451Y-3.6579
X4.4945Y-5.2596
X4.5784Y-4.031
X4.5853Y-4.9521
X4.5866Y-5.5906
X4.5911Y-5.3422
X4.5913Y-4.9969
X4.6003Y-3.1094
X4.607Y-3.4555
X4.6181Y-3.0354
X4.619Y-5.0703
X4.6198Y-3.8233
X4.631Y-5.1658
X4.6327Y-3.2249
X4.6327Y-3.421
X4.6329Y-5.445
X4.6793Y-5.2596
X4.7078Y-4.4674
X4.7754Y-3.3279
X4.7788Y-3.6149
X4.7913Y-4.9331
X4.7992Y-5.5984
X4.8062Y-3.5435
X4.8079Y-4.5138
X4.8084Y-5.5198
X4.8307Y-2.9764
X4.9005Y-5.4343
X4.9094Y-3.9449
X4.9134Y-4.7402
X4.9173Y-3.1063
X4.9252Y-5.5079
X4.9276Y-5.5618
X4.9331Y-3.7598
X4.9418Y-4.9298
X4.9542Y-3.6682
X4.9594Y-3.0298
X4.9619Y-5.1421
X4.9819Y-5.2006
X4.9986Y-2.9668
X5.0157Y-3.4449
X5.0315Y-4.4134
X5.0473Y-4.937
X5.0603Y-5.528
X5.0938Y-5.0327
X5.1011Y-4.9266
X5.1011Y-5.0674
X5.1377Y-5.5807
X5.1545Y-4.9171
X5.1759Y-4.0392
X5.1821Y-2.3937
X5.1821Y-3.0795
X5.1891Y-5.5147
X5.1894Y-3.7107
X5.1989Y-5.1585
X5.2205Y-4.4134
X5.2208Y-5.4911
X5.2244Y-3.437
X5.2362Y-3.752
X5.2626Y-4.9267
X5.2634Y-2.9648
X5.2777Y-4.5673
X5.2992Y-3.7628
X5.311Y-5.2047
X5.3281Y-5.0674
X5.3284Y-5.5486
X5.3455Y-4.8111
X5.3819Y-4.4331
X5.4053Y-4.6164
X5.4055Y-3.9449
X5.4072Y-5.5807
X5.4163Y-3.7121
X5.4646Y-3.748
X5.4656Y-5.2885
X5.4724Y-3.6693
X5.4882Y-5.4291
X5.5101Y-4.9919
X5.5333Y-4.6323
X5.5333Y-5.6375
X5.6227Y-3.3401
X5.6299Y-5.3898
X5.6504Y-5.6361
X5.6608Y-3.8289
X5.6664Y-4.722
X5.6693Y-4.3937
X5.6732Y-4.4882
X5.6758Y-3.5944
X5.6778Y-4.1546
X5.8024Y-5.6084
X5.8046Y-3.8783
X5.8173Y-4.0307
X5.8495Y-4.9716
X5.8616Y-5.3235
X5.8814Y-3.9304
X5.8819Y-2.9961
X5.8845Y-4.8371
X5.8845Y-5.2207
X5.8966Y-5.309
X5.9152Y-4.5938
X5.9186Y-5.0021
X5.9319Y-3.7772
X5.937Y-2.6929
X5.9528Y-2.3189
X5.9584Y-3.9382
X5.9685Y-4.122
X5.9958Y-3.9184
X5.9992Y-3.2338
X6.0016Y-3.5473
X6.0166Y-2.5595
X6.0186Y-2.4331
X6.0384Y-2.6399
X6.0394Y-3.7603
X6.0404Y-3.9185
X6.0439Y-3.0859
X6.0446Y-2.534
X6.0469Y-2.4188
X6.0541Y-3.1376
X6.0909Y-2.2024
X6.1186Y-4.9523
X6.1319Y-3.9314
X6.1416Y-3.5357
X6.1432Y-2.4126
X6.1432Y-3.6079
X6.1541Y-3.1037
X6.1587Y-3.3054
X6.1666Y-3.7856
X6.1822Y-2.5642
X6.189Y-4.0118
X6.2246Y-3.5555
X6.2362Y-4.1417
X6.2676Y-3.556
X6.2717Y-5.6417
X6.2986Y-3.8913
X6.3189Y-2.5669
X6.3189Y-2.6654
X6.3528Y-2.1707
X6.4295Y-4.8507
X6.4409Y-3.185
X6.4618Y-4.8349
X6.4685Y-3.5691
X6.4744Y-3.34
X6.4759Y-4.3973
X6.4853Y-3.6838
X6.4883Y-3.6472
X6.4921Y-4.4488
X6.5Y-4.815
X6.5008Y-3.7691
X6.5276Y-2.8701
X6.563Y-3.7165
X6.5691Y-4.7168
X6.5725Y-3.9231
X6.5916Y-4.3717
X6.5993Y-4.7233
X6.6178Y-5.5807
X6.6252Y-3.1854
X6.6255Y-4.465
X6.6535Y-2.1102
X6.6557Y-3.0556
X6.6844Y-4.6689
X6.689Y-2.3031
X6.689Y-3.9567
X6.6956Y-4.5086
X6.6965Y-4.5762
X6.6987Y-4.8482
X6.704Y-3.6593
X6.7047Y-4.1378
X6.7058Y-2.5358
X6.713Y-5.5011
X6.7151Y-3.0285
X6.7222Y-4.6327
X6.7474Y-3.6786
X6.7756Y-2.878
X6.7795Y-3.4331
X6.7913Y-3.8377
X6.811Y-5.2913
X6.8247Y-3.8215
X6.8465Y-3.4252
X6.8649Y-4.9266
X6.8767Y-5.1051
X6.8769Y-5.0278
X6.8818Y-3.7396
X6.8873Y-5.5807
X6.9044Y-2.9691
X6.9263Y-3.9408
X6.9355Y-5.542
X6.9381Y-3.085
X6.9381Y-4.724
X6.9382Y-2.0259
X6.9382Y-4.9266
X6.9677Y-3.2651
X6.9724Y-3.4291
X6.9733Y-3.0692
X6.9921Y-3.874
X6.9961Y-5.2835
X7.0264Y-3.2249
X7.0394Y-4.7362
X7.0396Y-3.0933
X7.0433Y-4.1457
X7.0541Y-5.5548
X7.0552Y-4.9266
X7.0591Y-3.6924
X7.0906Y-3.6457
X7.0984Y-3.7396
X7.0984Y-5.4094
X7.1281Y-5.0674
X7.1387Y-3.0833
X7.1417Y-3.874
X7.1568Y-5.5807
X7.1654Y-3.9646
X7.1784Y-4.8371
X7.2244Y-5.2795
X7.2323Y-4.5236
X7.2837Y-3.4942
X7.2893Y-4.4256
X7.2894Y-5.19
X7.3583Y-3.1772
X7.3583Y-5.0039
X7.3697Y-5.1522
X7.3756Y-5.4994
X7.3763Y-3.5053
X7.3763Y-3.6924
X7.4369Y-4.8504
X7.4383Y-3.3667
X7.4954Y-5.1074
X7.5098Y-4.8923
X7.5171Y-3.726
X7.5197Y-3.2992
X7.5215Y-3.3479
X7.5235Y-5.2786
X7.5317Y-5.634
X7.532Y-3.2273
X7.5324Y-3.6878
X7.5347Y-3.5868
X7.5394Y-3.0276
X7.5479Y-5.4338
X7.5577Y-5.156
X7.5609Y-3.5425
X7.5787Y-3.2283
X7.7161Y-3.1048
X7.7228Y-3.7866
X7.7316Y-4.9272
X7.7517Y-5.3225
X7.7536Y-3.336
X7.7677Y-3.6378
X7.7718Y-3.5704
X7.7727Y-3.7999
X7.7839Y-5.315
X7.7903Y-5.213
X7.7992Y-3.2756
X7.8073Y-5.5433
X7.815Y-5.1049
X7.8307Y-3.0669
X7.8403Y-5.3148
X7.8583Y-5.5433
X7.8684Y-5.4923
X7.8692Y-2.183
X7.8746Y-2.9946
X7.8752Y-3.9155
X7.8754Y-3.7009
X7.8864Y-5.1049
X7.9104Y-5.028
X7.9295Y-3.3338
X7.9528Y-4.9882
X7.9528Y-5.1535
X7.9646Y-4.7362
X7.9803Y-4.0394
X7.9917Y-3.5704
X7.9917Y-4.9523
X7.9959Y-5.5281
X8.0245Y-5.4547
X8.0591Y-3.563
X8.0636Y-5.2017
X8.08Y-5.3174
X8.0827Y-2.8622
X8.0916Y-4.8137
X8.0959Y-2.9673
X8.1108Y-4.0381
X8.1132Y-1.9585
X8.1305Y-5.028
X8.132Y-5.1583
X8.1379Y-5.4923
X8.1636Y-5.4567
X8.2049Y-4.8111
X8.2087Y-3.7559
X8.235Y-5.3223
X8.2477Y-5.5281
X8.2638Y-5.2126
X8.2874Y-3.9016
X8.3094Y-3.7472
X8.3643Y-4.8371
X8.3697Y-3.7022
X8.3725Y-3.0345
X8.4213Y-5.126
X8.577Y-1.9582
X8.577Y-4.2613
X8.577Y-5.6336
X8.6339Y-3.0472
X8.6575Y-5.6339
X8.694Y-1.8127
X8.752Y-3.1693
X8.7877Y-3.7013
X8.8111Y-1.7279
X8.8111Y-3.3401
X8.8463Y-3.3431
X8.8504Y-2.811
X8.8532Y-3.5987
X8.8622Y-3.5512
X8.885Y-2.9141
X8.8922Y-1.8139
X8.8975Y-2.8794
X8.9055Y-3.8228
X8.9282Y-1.8331
X8.9512Y-3.4442
X8.9515Y-3.7225
X8.9607Y-1.8603
X8.9764Y-3.0394
X9.0452Y-5.5281
X9.0736Y-3.3354
X9.0736Y-3.7907
X9.0736Y-3.8983
X9.1468Y-3.7076
X9.1623Y-4.031
X9.1756Y-3.805
X9.2794Y-2.0733
X9.2797Y-4.0314
X9.2926Y-3.805
X9.3964Y-4.031
X9.4355Y-3.6436
X9.4426Y-3.4489
T2
X2.7803Y-2.5067
X2.7803Y-2.9067
X2.7803Y-4.5126
X2.7803Y-4.9126
X2.8803Y-2.5067
X2.8803Y-2.9067
X2.8803Y-4.5126
X2.8803Y-4.9126
X2.9803Y-2.5067
X2.9803Y-2.9067
X2.9803Y-4.5126
X2.9803Y-4.9126
X3.0803Y-2.5067
X3.0803Y-2.9067
X3.0803Y-4.5126
X3.0803Y-4.9126
X3.1803Y-2.5067
X3.1803Y-2.9067
X3.1803Y-4.5126
X3.1803Y-4.9126
X5.856Y-5.052
X5.856Y-5.1307
X5.9348Y-5.052
X5.9348Y-5.1307
X6.01Y-5.6126
X6.0135Y-5.052
X6.0135Y-5.1307
X6.11Y-5.6126
X8.985Y-2.5067
X8.985Y-2.9067
X8.985Y-4.5126
X8.985Y-4.9126
X9.085Y-2.5067
X9.085Y-2.9067
X9.085Y-4.5126
X9.085Y-4.9126
X9.185Y-2.5067
X9.185Y-2.9067
X9.185Y-4.5126
X9.185Y-4.9126
X9.285Y-2.5067
X9.285Y-2.9067
X9.285Y-4.5126
X9.285Y-4.9126
X9.385Y-2.5067
X9.385Y-2.9067
X9.385Y-4.5126
X9.385Y-4.9126
T3
X3.9151Y-3.9492
X3.9222Y-2.126
X4.0135Y-3.9492
X4.0207Y-2.126
X4.112Y-3.9492
X4.1191Y-2.126
X8.0266Y-2.126
X8.0266Y-3.9492
X8.125Y-2.126
X8.125Y-3.9492
X8.2234Y-2.126
X8.2234Y-3.9492
T4
X3.8722Y-4.5349
X3.8722Y-4.6349
X3.8758Y-2.6736
X3.8758Y-2.7736
X3.9722Y-4.5349
X3.9722Y-4.6349
X3.9758Y-2.6736
X3.9758Y-2.7736
X4.0722Y-4.5349
X4.0722Y-4.6349
X4.0758Y-2.6736
X4.0758Y-2.7736
X4.1722Y-4.5349
X4.1722Y-4.6349
X4.1758Y-2.6736
X4.1758Y-2.7736
X5.0333Y-2.1587
X5.0333Y-2.2587
X5.0333Y-2.6736
X5.0333Y-2.7736
X5.0333Y-3.9819
X5.0333Y-4.0819
X5.0333Y-4.5349
X5.0333Y-4.6349
X5.1333Y-2.1587
X5.1333Y-2.2587
X5.1333Y-2.6736
X5.1333Y-2.7736
X5.1333Y-3.9819
X5.1333Y-4.0819
X5.1333Y-4.5349
X5.1333Y-4.6349
X5.2333Y-2.1587
X5.2333Y-2.2587
X5.2333Y-2.6736
X5.2333Y-2.7736
X5.2333Y-3.9819
X5.2333Y-4.0819
X5.2333Y-4.5349
X5.2333Y-4.6349
X5.3333Y-2.1587
X5.3333Y-2.2587
X5.3333Y-2.6736
X5.3333Y-2.7736
X5.3333Y-3.9819
X5.3333Y-4.0819
X5.3333Y-4.5349
X5.3333Y-4.6349
X5.7041Y-2.2711
X5.7041Y-2.3711
X5.7041Y-2.4711
X5.7041Y-2.5711
X5.7041Y-2.6711
X5.7041Y-2.7711
X5.76Y-3.3413
X5.76Y-3.4413
X5.76Y-3.5413
X5.76Y-3.6413
X5.76Y-3.7413
X5.76Y-3.8413
X5.76Y-3.9413
X5.76Y-4.0413
X5.76Y-4.1413
X5.76Y-4.2413
X5.76Y-4.3413
X5.76Y-4.4413
X5.76Y-4.5413
X5.76Y-4.6413
X5.76Y-4.7413
X5.76Y-4.8413
X5.76Y-4.9413
X5.76Y-5.0413
X5.76Y-5.1413
X5.76Y-5.2413
X5.76Y-5.3413
X5.76Y-5.4413
X5.76Y-5.5413
X5.76Y-5.6413
X5.86Y-3.8413
X5.96Y-3.8413
X6.06Y-3.8413
X6.16Y-3.8413
X6.26Y-3.8413
X6.36Y-3.3413
X6.36Y-3.4413
X6.36Y-3.5413
X6.36Y-3.6413
X6.36Y-3.7413
X6.36Y-3.8413
X6.36Y-3.9413
X6.36Y-4.0413
X6.36Y-4.1413
X6.36Y-4.2413
X6.36Y-4.3413
X6.36Y-4.4413
X6.36Y-4.5413
X6.36Y-4.6413
X6.36Y-4.7413
X6.36Y-4.8413
X6.36Y-4.9413
X6.36Y-5.0413
X6.36Y-5.1413
X6.36Y-5.2413
X6.36Y-5.3413
X6.36Y-5.4413
X6.36Y-5.5413
X6.36Y-5.6413
X6.4041Y-2.3711
X6.4041Y-2.4711
X6.4041Y-2.5711
X6.4041Y-2.6711
X6.7734Y-2.1587
X6.7734Y-2.2587
X6.7738Y-2.6736
X6.7738Y-2.7736
X6.7793Y-4.5349
X6.7793Y-4.6349
X6.7837Y-3.9819
X6.7837Y-4.0819
X6.8734Y-2.1587
X6.8734Y-2.2587
X6.8738Y-2.6736
X6.8738Y-2.7736
X6.8793Y-4.5349
X6.8793Y-4.6349
X6.8837Y-3.9819
X6.8837Y-4.0819
X6.9734Y-2.1587
X6.9734Y-2.2587
X6.9738Y-2.6736
X6.9738Y-2.7736
X6.9793Y-4.5349
X6.9793Y-4.6349
X6.9837Y-3.9819
X6.9837Y-4.0819
X7.0734Y-2.1587
X7.0734Y-2.2587
X7.0738Y-2.6736
X7.0738Y-2.7736
X7.0793Y-4.5349
X7.0793Y-4.6349
X7.0837Y-3.9819
X7.0837Y-4.0819
X7.9805Y-4.5349
X7.9805Y-4.6349
X7.9848Y-2.6736
X7.9848Y-2.7736
X8.0805Y-4.5349
X8.0805Y-4.6349
X8.0848Y-2.6736
X8.0848Y-2.7736
X8.1805Y-4.5349
X8.1805Y-4.6349
X8.1848Y-2.6736
X8.1848Y-2.7736
X8.2805Y-4.5349
X8.2805Y-4.6349
X8.2848Y-2.6736
X8.2848Y-2.7736
T5
X5.86Y-5.5413
X6.2399Y-4.9933
X6.2399Y-5.0933
X6.2399Y-5.1933
X6.2399Y-5.2933
X6.2399Y-5.3933
T6
X2.7972Y-1.5768
X2.7972Y-5.4469
X9.3228Y-1.5768
X9.3228Y-5.4469
M30
