M48
; DRILL file {KiCad 9.0.6} date 2026-05-29T20:57:00-0700
; FORMAT={-:-/ absolute / inch / decimal}
; #@! TF.CreationDate,2026-05-29T20:57:00-07:00
; #@! TF.GenerationSoftware,Kicad,Pcbnew,9.0.6
; #@! TF.FileFunction,Plated,1,2,PTH
FMAT,2
INCH
; #@! TA.AperFunction,Plated,PTH,ViaDrill
T1C0.0118
; #@! TA.AperFunction,Plated,PTH,ComponentDrill
T2C0.0315
; #@! TA.AperFunction,Plated,PTH,ComponentDrill
T3C0.0374
; #@! TA.AperFunction,Plated,PTH,ComponentDrill
T4C0.0394
; #@! TA.AperFunction,Plated,PTH,ComponentDrill
T5C0.0433
; #@! TA.AperFunction,Plated,PTH,ComponentDrill
T6C0.1260
%
G90
G05
T1
X2.6977Y-4.031
X2.733Y-3.3401
X2.8837Y-3.8672
X3.075Y-3.9158
X3.075Y-4.7219
X3.1921Y-5.5281
X3.2103Y-4.3765
X3.4191Y-2.073
X3.5433Y-3.1097
X3.6234Y-2.5319
X3.7016Y-5.5807
X3.7192Y-3.7396
X3.7693Y-3.1071
X3.7737Y-5.3562
X3.7913Y-3.5151
X3.8711Y-2.2028
X3.8945Y-3.6845
X3.9709Y-4.9455
X3.9711Y-5.5807
X3.975Y-5.104
X3.9866Y-2.9705
X3.9876Y-3.7084
X3.9887Y-3.7396
X3.998Y-3.3245
X4.0058Y-4.9509
X4.0119Y-4.26
X4.0191Y-2.3897
X4.0192Y-5.542
X4.0305Y-2.937
X4.0432Y-5.3562
X4.0481Y-2.201
X4.0544Y-5.1574
X4.1157Y-4.9363
X4.1334Y-3.206
X4.1466Y-3.6845
X4.1484Y-4.9383
X4.1841Y-4.1614
X4.2023Y-5.085
X4.2405Y-5.5433
X4.2406Y-5.5807
X4.2687Y-3.9843
X4.2864Y-3.5748
X4.3127Y-5.3562
X4.3238Y-5.104
X4.3609Y-4.019
X4.3831Y-3.2459
X4.4055Y-3.4076
X4.4301Y-3.628
X4.4302Y-3.2685
X4.4389Y-5.2791
X4.5002Y-5.3807
X4.6023Y-3.4538
X4.7031Y-5.5329
X4.7056Y-4.9467
X4.7559Y-5.1731
X4.8176Y-3.3978
X4.8194Y-4.6322
X4.8271Y-4.26
X4.8682Y-5.5807
X4.875Y-3.8012
X4.9301Y-2.1339
X4.9319Y-3.7559
X4.9344Y-4.8426
X4.9349Y-4.5885
X4.9444Y-5.422
X4.9495Y-4.7073
X4.9504Y-4.7386
X4.9694Y-3.7757
X4.9734Y-3.626
X4.9782Y-4.7242
X5.0089Y-5.248
X5.0246Y-3.7193
X5.0333Y-3.0857
X5.0522Y-5.5374
X5.0618Y-5.2111
X5.0817Y-3.6378
X5.1377Y-5.5807
X5.1413Y-3.7495
X5.1534Y-3.3294
X5.1764Y-3.1089
X5.1793Y-4.8147
X5.1859Y-5.542
X5.1894Y-3.7108
X5.2098Y-5.3562
X5.2106Y-3.8392
X5.2554Y-3.3695
X5.2592Y-4.8105
X5.2707Y-5.6476
X5.2713Y-5.143
X5.2759Y-3.9404
X5.2876Y-3.879
X5.3078Y-5.5261
X5.308Y-3.9016
X5.317Y-3.1089
X5.3329Y-5.1922
X5.3455Y-3.6791
X5.3652Y-5.2638
X5.3671Y-3.4803
X5.3671Y-3.5689
X5.3711Y-3.75
X5.4072Y-5.5807
X5.4118Y-4.6013
X5.4139Y-3.3186
X5.4478Y-4.9506
X5.4535Y-3.7574
X5.4596Y-2.9587
X5.4612Y-3.7124
X5.4617Y-4.3855
X5.4636Y-3.4449
X5.4793Y-5.3562
X5.4849Y-4.053
X5.4908Y-5.1057
X5.5003Y-5.4019
X5.5613Y-2.87
X5.5659Y-3.4429
X5.6158Y-2.4988
X5.6182Y-2.9608
X5.6346Y-3.0856
X5.6432Y-4.4576
X5.6447Y-3.5571
X5.6485Y-2.0427
X5.6485Y-3.2549
X5.6486Y-3.7146
X5.6515Y-3.3239
X5.6542Y-3.1332
X5.6606Y-5.5495
X5.7658Y-3.6844
X5.7785Y-2.1358
X5.7935Y-3.0082
X5.8143Y-4.221
X5.8159Y-2.4724
X5.8258Y-4.1693
X5.8654Y-4.1393
X5.873Y-3.9094
X5.891Y-4.2867
X5.9001Y-2.5392
X5.9058Y-2.372
X5.943Y-4.1693
X5.9478Y-3.4488
X5.9774Y-4.4311
X5.999Y-2.8583
X6.0005Y-2.1881
X6.0005Y-2.9938
X6.0013Y-3.4649
X6.0074Y-3.2207
X6.0158Y-3.3391
X6.0213Y-3.7031
X6.0327Y-4.1006
X6.0327Y-4.1831
X6.0348Y-4.1519
X6.0384Y-3.5848
X6.0403Y-4.221
X6.0431Y-3.1894
X6.0441Y-3.2449
X6.0463Y-4.4154
X6.1059Y-4.2419
X6.1113Y-3.9195
X6.1154Y-3.8448
X6.119Y-5.4317
X6.1233Y-3.9945
X6.1298Y-3.0749
X6.1298Y-3.3391
X6.1298Y-3.7031
X6.1426Y-5.2096
X6.1447Y-2.9843
X6.1468Y-4.2589
X6.1545Y-3.126
X6.1561Y-4.2286
X6.1611Y-2.8722
X6.2121Y-4.4613
X6.2352Y-4.7376
X6.2352Y-5.6391
X6.2352Y-3.7913
X6.2352Y-3.878
X6.2368Y-4.0715
X6.2519Y-4.1963
X6.2742Y-3.4345
X6.2742Y-3.5458
X6.2914Y-4.2648
X6.3002Y-2.6791
X6.3018Y-4.233
X6.3036Y-3.1794
X6.3102Y-4.1424
X6.3132Y-4.3071
X6.3354Y-3.1845
X6.3403Y-3.3391
X6.3404Y-3.224
X6.3404Y-4.097
X6.3426Y-4.2553
X6.3455Y-3.7461
X6.3494Y-3.6496
X6.388Y-4.2511
X6.4034Y-4.1881
X6.4059Y-2.9987
X6.4251Y-3.8787
X6.4301Y-3.7461
X6.4327Y-3.9156
X6.4342Y-4.216
X6.436Y-4.0198
X6.436Y-4.0494
X6.4374Y-3.0915
X6.44Y-3.7009
X6.4439Y-3.6516
X6.4459Y-3.9498
X6.4473Y-4.6163
X6.4695Y-5.6457
X6.484Y-3.0081
X6.4893Y-4.4827
X6.5131Y-3.7759
X6.5167Y-2.972
X6.5207Y-3.9139
X6.5207Y-4.3529
X6.5456Y-2.7753
X6.5776Y-5.2876
X6.583Y-2.7594
X6.5989Y-2.799
X6.604Y-4.7217
X6.6178Y-5.5807
X6.6243Y-3.8035
X6.6256Y-2.9272
X6.6281Y-5.0264
X6.6282Y-4.6883
X6.6372Y-2.8677
X6.6526Y-3.5689
X6.653Y-4.046
X6.6554Y-5.1594
X6.6604Y-4.4592
X6.6893Y-4.4952
X6.69Y-5.2108
X6.6945Y-2.9939
X6.6998Y-2.8189
X6.7045Y-3.8356
X6.7136Y-3.7362
X6.7309Y-4.7232
X6.7476Y-3.66
X6.7476Y-4.6899
X6.7538Y-3.8459
X6.8133Y-5.5206
X6.8218Y-4.9511
X6.8352Y-4.7354
X6.8412Y-3.6845
X6.8518Y-3.2072
X6.8591Y-3.9241
X6.8873Y-5.5807
X6.9057Y-3.3161
X6.9083Y-5.1719
X6.9138Y-4.2708
X6.9354Y-5.542
X6.9391Y-4.9506
X6.94Y-3.6594
X6.9813Y-5.5
X6.9833Y-4.8146
X7.0257Y-3.2396
X7.0438Y-3.1089
X7.0626Y-5.5261
X7.0699Y-5.4665
X7.0737Y-4.4543
X7.0794Y-3.2315
X7.1338Y-3.6983
X7.1568Y-5.5807
X7.1738Y-3.1089
X7.1978Y-2.1142
X7.2289Y-5.3562
X7.2589Y-3.75
X7.3061Y-3.622
X7.3689Y-3.4301
X7.3723Y-5.1465
X7.3723Y-5.2791
X7.4085Y-4.2867
X7.4337Y-5.3807
X7.5245Y-3.4542
X7.5258Y-2.9981
X7.5286Y-5.0935
X7.5565Y-3.4222
X7.558Y-4.2948
X7.5625Y-5.087
X7.6431Y-4.3299
X7.6847Y-5.1703
X7.7567Y-5.4111
X7.7605Y-2.9981
X7.7605Y-3.2286
X7.7605Y-4.0298
X7.7605Y-4.8355
X7.7769Y-5.2717
X7.7854Y-5.0938
X7.8765Y-4.8355
X7.8913Y-3.2626
X7.8989Y-5.0165
X7.8994Y-3.5151
X7.9015Y-4.1508
X7.9192Y-5.104
X7.9262Y-5.5965
X7.9677Y-3.5694
X7.9952Y-3.1089
X7.9978Y-5.5261
X8.0019Y-3.6845
X8.0049Y-5.3287
X8.0128Y-4.9488
X8.0168Y-4.2394
X8.0291Y-5.4941
X8.075Y-3.3069
X8.0797Y-5.1081
X8.082Y-2.9644
X8.0855Y-3.6983
X8.1004Y-5.0272
X8.1029Y-3.33
X8.1092Y-5.4329
X8.1366Y-5.542
X8.1554Y-5.4299
X8.1689Y-3.5151
X8.1744Y-4.9244
X8.1781Y-5.104
X8.1881Y-5.5001
X8.1945Y-4.2814
X8.1978Y-5.5945
X8.2539Y-3.6845
X8.2569Y-4.9409
X8.2575Y-3.2252
X8.2628Y-2.2087
X8.2707Y-5.3248
X8.3308Y-5.215
X8.3472Y-3.8624
X8.3566Y-3.7414
X8.3637Y-4.4916
X8.4085Y-5.124
X8.4144Y-5.2677
X8.4305Y-3.5151
X8.4636Y-5.5925
X8.4862Y-3.7878
X8.5062Y-3.895
X8.5655Y-2.8618
X8.5678Y-3.0035
X9.1623Y-3.9158
X9.181Y-3.6855
X9.2898Y-3.8008
X9.3873Y-3.8007
T2
X2.7244Y-2.5795
X2.7244Y-3.1701
X2.7244Y-4.4408
X2.7244Y-5.0314
X2.8244Y-2.5795
X2.8244Y-3.1701
X2.8244Y-4.4408
X2.8244Y-5.0314
X2.9244Y-2.5795
X2.9244Y-3.1701
X2.9244Y-4.4408
X2.9244Y-5.0314
X3.0244Y-2.5795
X3.0244Y-3.1701
X3.0244Y-4.4408
X3.0244Y-5.0314
X3.1244Y-2.5795
X3.1244Y-3.1701
X3.1244Y-4.4408
X3.1244Y-5.0314
X8.9976Y-2.5795
X8.9976Y-3.1701
X8.9976Y-4.4408
X8.9976Y-5.0314
X9.0976Y-2.5795
X9.0976Y-3.1701
X9.0976Y-4.4408
X9.0976Y-5.0314
X9.1976Y-2.5795
X9.1976Y-3.1701
X9.1976Y-4.4408
X9.1976Y-5.0314
X9.2976Y-2.5795
X9.2976Y-3.1701
X9.2976Y-4.4408
X9.2976Y-5.0314
X9.3976Y-2.5795
X9.3976Y-3.1701
X9.3976Y-4.4408
X9.3976Y-5.0314
T3
X3.9151Y-3.9492
X3.9222Y-2.126
X4.0135Y-3.9492
X4.0207Y-2.126
X4.112Y-3.9492
X4.1191Y-2.126
X8.0266Y-2.126
X8.0266Y-3.9492
X8.125Y-2.126
X8.125Y-3.9492
X8.2234Y-2.126
X8.2234Y-3.9492
T4
X3.8722Y-4.5349
X3.8722Y-4.6349
X3.8758Y-2.6736
X3.8758Y-2.7736
X3.9722Y-4.5349
X3.9722Y-4.6349
X3.9758Y-2.6736
X3.9758Y-2.7736
X4.0722Y-4.5349
X4.0722Y-4.6349
X4.0758Y-2.6736
X4.0758Y-2.7736
X4.1722Y-4.5349
X4.1722Y-4.6349
X4.1758Y-2.6736
X4.1758Y-2.7736
X5.0333Y-2.1587
X5.0333Y-2.2587
X5.0333Y-2.6736
X5.0333Y-2.7736
X5.0333Y-3.9819
X5.0333Y-4.0819
X5.0333Y-4.5349
X5.0333Y-4.6349
X5.1333Y-2.1587
X5.1333Y-2.2587
X5.1333Y-2.6736
X5.1333Y-2.7736
X5.1333Y-3.9819
X5.1333Y-4.0819
X5.1333Y-4.5349
X5.1333Y-4.6349
X5.2333Y-2.1587
X5.2333Y-2.2587
X5.2333Y-2.6736
X5.2333Y-2.7736
X5.2333Y-3.9819
X5.2333Y-4.0819
X5.2333Y-4.5349
X5.2333Y-4.6349
X5.3333Y-2.1587
X5.3333Y-2.2587
X5.3333Y-2.6736
X5.3333Y-2.7736
X5.3333Y-3.9819
X5.3333Y-4.0819
X5.3333Y-4.5349
X5.3333Y-4.6349
X5.7041Y-2.2711
X5.7041Y-2.3711
X5.7041Y-2.4711
X5.7041Y-2.5711
X5.7041Y-2.6711
X5.7041Y-2.7711
X6.4041Y-2.3711
X6.4041Y-2.4711
X6.4041Y-2.5711
X6.4041Y-2.6711
X6.7738Y-2.6736
X6.7738Y-2.7736
X6.7793Y-4.5349
X6.7793Y-4.6349
X6.7837Y-2.1587
X6.7837Y-2.2587
X6.7837Y-3.9819
X6.7837Y-4.0819
X6.8738Y-2.6736
X6.8738Y-2.7736
X6.8793Y-4.5349
X6.8793Y-4.6349
X6.8837Y-2.1587
X6.8837Y-2.2587
X6.8837Y-3.9819
X6.8837Y-4.0819
X6.9738Y-2.6736
X6.9738Y-2.7736
X6.9793Y-4.5349
X6.9793Y-4.6349
X6.9837Y-2.1587
X6.9837Y-2.2587
X6.9837Y-3.9819
X6.9837Y-4.0819
X7.0738Y-2.6736
X7.0738Y-2.7736
X7.0793Y-4.5349
X7.0793Y-4.6349
X7.0837Y-2.1587
X7.0837Y-2.2587
X7.0837Y-3.9819
X7.0837Y-4.0819
X7.9805Y-4.5349
X7.9805Y-4.6349
X7.9848Y-2.6736
X7.9848Y-2.7736
X8.0805Y-4.5349
X8.0805Y-4.6349
X8.0848Y-2.6736
X8.0848Y-2.7736
X8.1805Y-4.5349
X8.1805Y-4.6349
X8.1848Y-2.6736
X8.1848Y-2.7736
X8.2805Y-4.5349
X8.2805Y-4.6349
X8.2848Y-2.6736
X8.2848Y-2.7736
T5
X5.7593Y-4.3354
X5.7593Y-4.4354
X5.7593Y-4.5354
X5.7593Y-4.6354
X5.7593Y-4.7354
X5.7593Y-4.8354
X5.7593Y-4.9354
X5.7593Y-5.0354
X5.7593Y-5.1354
X5.7593Y-5.2354
X5.7593Y-5.3354
X5.7593Y-5.4354
X5.7593Y-5.5354
X5.7593Y-5.6354
X5.8593Y-4.3354
X5.8593Y-4.5354
X5.8593Y-4.6354
X5.8593Y-5.5354
X5.9593Y-4.3354
X5.9593Y-4.5354
X5.9593Y-4.6354
X6.0593Y-4.3354
X6.0593Y-4.5354
X6.0593Y-4.6354
X6.1593Y-4.3354
X6.1593Y-4.5354
X6.1593Y-4.6354
X6.2593Y-4.3354
X6.2593Y-4.5354
X6.2593Y-4.6354
X6.3593Y-4.3354
X6.3593Y-4.4354
X6.3593Y-4.5354
X6.3593Y-4.6354
X6.3593Y-4.7354
X6.3593Y-4.8354
X6.3593Y-4.9354
X6.3593Y-5.0354
X6.3593Y-5.1354
X6.3593Y-5.2354
X6.3593Y-5.3354
X6.3593Y-5.4354
X6.3593Y-5.5354
X6.3593Y-5.6354
T6
X2.7972Y-1.5768
X2.7972Y-5.4469
X9.3228Y-1.5768
X9.3228Y-5.4469
M30
