%TF.GenerationSoftware,KiCad,Pcbnew,9.0.6*%
%TF.CreationDate,2026-04-29T21:36:41-07:00*%
%TF.ProjectId,LegRobotBoardTeensy,4c656752-6f62-46f7-9442-6f6172645465,rev?*%
%TF.SameCoordinates,Original*%
%TF.FileFunction,Legend,Bot*%
%TF.FilePolarity,Positive*%
%FSLAX46Y46*%
G04 Gerber Fmt 4.6, Leading zero omitted, Abs format (unit mm)*
G04 Created by KiCad (PCBNEW 9.0.6) date 2026-04-29 21:36:41*
%MOMM*%
%LPD*%
G01*
G04 APERTURE LIST*
G04 Aperture macros list*
%AMRoundRect*
0 Rectangle with rounded corners*
0 $1 Rounding radius*
0 $2 $3 $4 $5 $6 $7 $8 $9 X,Y pos of 4 corners*
0 Add a 4 corners polygon primitive as box body*
4,1,4,$2,$3,$4,$5,$6,$7,$8,$9,$2,$3,0*
0 Add four circle primitives for the rounded corners*
1,1,$1+$1,$2,$3*
1,1,$1+$1,$4,$5*
1,1,$1+$1,$6,$7*
1,1,$1+$1,$8,$9*
0 Add four rect primitives between the rounded corners*
20,1,$1+$1,$2,$3,$4,$5,0*
20,1,$1+$1,$4,$5,$6,$7,0*
20,1,$1+$1,$6,$7,$8,$9,0*
20,1,$1+$1,$8,$9,$2,$3,0*%
G04 Aperture macros list end*
%ADD10RoundRect,0.250000X-0.600000X-0.725000X0.600000X-0.725000X0.600000X0.725000X-0.600000X0.725000X0*%
%ADD11O,1.700000X1.950000*%
%ADD12RoundRect,0.250000X0.600000X-0.600000X0.600000X0.600000X-0.600000X0.600000X-0.600000X-0.600000X0*%
%ADD13C,1.700000*%
%ADD14C,1.905000*%
%ADD15R,1.905000X1.905000*%
%ADD16R,1.700000X1.700000*%
%ADD17C,5.700000*%
%ADD18C,1.600000*%
G04 APERTURE END LIST*
%LPC*%
D10*
%TO.C,J5*%
X174000000Y-86510000D03*
D11*
X176500000Y-86510000D03*
X179000000Y-86510000D03*
%TD*%
D12*
%TO.C,J1*%
X97970000Y-43570000D03*
D13*
X97970000Y-41030000D03*
X100510000Y-43570000D03*
X100510000Y-41030000D03*
X103050000Y-43570000D03*
X103050000Y-41030000D03*
X105590000Y-43570000D03*
X105590000Y-41030000D03*
%TD*%
D14*
%TO.C,U8*%
X115010000Y-46427000D03*
X132790000Y-54047000D03*
X115010000Y-48967000D03*
X132790000Y-51507000D03*
X132790000Y-46427000D03*
X132790000Y-48967000D03*
X115010000Y-56587000D03*
X115010000Y-54047000D03*
X115010000Y-51507000D03*
D15*
X115010000Y-43887000D03*
%TD*%
D16*
%TO.C,J17*%
X56017700Y-69060000D03*
D13*
X56017700Y-71600000D03*
X56017700Y-74140000D03*
X56017700Y-76680000D03*
X56017700Y-79220000D03*
%TD*%
D10*
%TO.C,J4*%
X69568900Y-86510000D03*
D11*
X72068900Y-86510000D03*
X74568900Y-86510000D03*
%TD*%
D12*
%TO.C,J8*%
X142180000Y-56650000D03*
D13*
X142180000Y-54110000D03*
X144720000Y-56650000D03*
X144720000Y-54110000D03*
X147260000Y-56650000D03*
X147260000Y-54110000D03*
X149800000Y-56650000D03*
X149800000Y-54110000D03*
%TD*%
D12*
%TO.C,J15*%
X97970000Y-89880000D03*
D13*
X97970000Y-87340000D03*
X100510000Y-89880000D03*
X100510000Y-87340000D03*
X103050000Y-89880000D03*
X103050000Y-87340000D03*
X105590000Y-89880000D03*
X105590000Y-87340000D03*
%TD*%
D17*
%TO.C,MH2*%
X190167500Y-48050000D03*
%TD*%
D12*
%TO.C,J11*%
X97970000Y-103927500D03*
D13*
X97970000Y-101387500D03*
X100510000Y-103927500D03*
X100510000Y-101387500D03*
X103050000Y-103927500D03*
X103050000Y-101387500D03*
X105590000Y-103927500D03*
X105590000Y-101387500D03*
%TD*%
D10*
%TO.C,J2*%
X69750000Y-40200000D03*
D11*
X72250000Y-40200000D03*
X74750000Y-40200000D03*
%TD*%
D16*
%TO.C,J20*%
X192050000Y-79220000D03*
D13*
X192050000Y-76680000D03*
X192050000Y-74140000D03*
X192050000Y-71600000D03*
X192050000Y-69060000D03*
%TD*%
D17*
%TO.C,MH4*%
X190167500Y-109850000D03*
%TD*%
D16*
%TO.C,J21*%
X55950000Y-115850000D03*
D13*
X55950000Y-118390000D03*
X55950000Y-120930000D03*
X55950000Y-123470000D03*
X55950000Y-126010000D03*
%TD*%
D12*
%TO.C,J16*%
X142430000Y-89880000D03*
D13*
X142430000Y-87340000D03*
X144970000Y-89880000D03*
X144970000Y-87340000D03*
X147510000Y-89880000D03*
X147510000Y-87340000D03*
X150050000Y-89880000D03*
X150050000Y-87340000D03*
%TD*%
D12*
%TO.C,J9*%
X172940000Y-56650000D03*
D13*
X172940000Y-54110000D03*
X175480000Y-56650000D03*
X175480000Y-54110000D03*
X178020000Y-56650000D03*
X178020000Y-54110000D03*
X180560000Y-56650000D03*
X180560000Y-54110000D03*
%TD*%
D17*
%TO.C,MH1*%
X57892500Y-48050000D03*
%TD*%
D12*
%TO.C,J13*%
X172830000Y-103927500D03*
D13*
X172830000Y-101387500D03*
X175370000Y-103927500D03*
X175370000Y-101387500D03*
X177910000Y-103927500D03*
X177910000Y-101387500D03*
X180450000Y-103927500D03*
X180450000Y-101387500D03*
%TD*%
D12*
%TO.C,J10*%
X68480000Y-103927500D03*
D13*
X68480000Y-101387500D03*
X71020000Y-103927500D03*
X71020000Y-101387500D03*
X73560000Y-103927500D03*
X73560000Y-101387500D03*
X76100000Y-103927500D03*
X76100000Y-101387500D03*
%TD*%
D16*
%TO.C,J18*%
X59567700Y-79220000D03*
D13*
X59567700Y-76680000D03*
X59567700Y-74140000D03*
X59567700Y-71600000D03*
X59567700Y-69060000D03*
%TD*%
D10*
%TO.C,J3*%
X174000000Y-40200000D03*
D11*
X176500000Y-40200000D03*
X179000000Y-40200000D03*
%TD*%
D12*
%TO.C,J7*%
X97970000Y-56650000D03*
D13*
X97970000Y-54110000D03*
X100510000Y-56650000D03*
X100510000Y-54110000D03*
X103050000Y-56650000D03*
X103050000Y-54110000D03*
X105590000Y-56650000D03*
X105590000Y-54110000D03*
%TD*%
D16*
%TO.C,J19*%
X188500000Y-69060000D03*
D13*
X188500000Y-71600000D03*
X188500000Y-74140000D03*
X188500000Y-76680000D03*
X188500000Y-79220000D03*
%TD*%
D16*
%TO.C,J24*%
X192050000Y-126010000D03*
D13*
X192050000Y-123470000D03*
X192050000Y-120930000D03*
X192050000Y-118390000D03*
X192050000Y-115850000D03*
%TD*%
D18*
%TO.C,U1*%
X131650000Y-129340000D03*
X131650000Y-126800000D03*
X131650000Y-124260000D03*
X131650000Y-121720000D03*
X131650000Y-119180000D03*
X131650000Y-116640000D03*
X131650000Y-114100000D03*
X131650000Y-111560000D03*
X131650000Y-109020000D03*
X131650000Y-106480000D03*
X131650000Y-103940000D03*
X131650000Y-101400000D03*
X131650000Y-98860000D03*
X131650000Y-96320000D03*
X129110000Y-96320000D03*
X126570000Y-96320000D03*
X124030000Y-96320000D03*
X121490000Y-96320000D03*
X118950000Y-96320000D03*
X116410000Y-96320000D03*
X116410000Y-98860000D03*
X116410000Y-101400000D03*
X116410000Y-103940000D03*
X116410000Y-106480000D03*
X116410000Y-109020000D03*
X116410000Y-111560000D03*
X116410000Y-114100000D03*
X116410000Y-116640000D03*
X116410000Y-119180000D03*
X116410000Y-121720000D03*
X116410000Y-124260000D03*
X116410000Y-126800000D03*
X116410000Y-129340000D03*
X118950000Y-126800000D03*
X118950000Y-101400000D03*
X118950000Y-103940000D03*
X121490000Y-101400000D03*
X121490000Y-103940000D03*
X124030000Y-101400000D03*
X124030000Y-103940000D03*
X126570000Y-101400000D03*
X126570000Y-103940000D03*
X129110000Y-101400000D03*
X129110000Y-103940000D03*
%TD*%
D12*
%TO.C,J12*%
X142320000Y-103927500D03*
D13*
X142320000Y-101387500D03*
X144860000Y-103927500D03*
X144860000Y-101387500D03*
X147400000Y-103927500D03*
X147400000Y-101387500D03*
X149940000Y-103927500D03*
X149940000Y-101387500D03*
%TD*%
D17*
%TO.C,MH3*%
X57892500Y-109850000D03*
%TD*%
D12*
%TO.C,J6*%
X68570000Y-56650000D03*
D13*
X68570000Y-54110000D03*
X71110000Y-56650000D03*
X71110000Y-54110000D03*
X73650000Y-56650000D03*
X73650000Y-54110000D03*
X76190000Y-56650000D03*
X76190000Y-54110000D03*
%TD*%
D16*
%TO.C,J22*%
X59500000Y-126010000D03*
D13*
X59500000Y-123470000D03*
X59500000Y-120930000D03*
X59500000Y-118390000D03*
X59500000Y-115850000D03*
%TD*%
D16*
%TO.C,J23*%
X188500000Y-115850000D03*
D13*
X188500000Y-118390000D03*
X188500000Y-120930000D03*
X188500000Y-123470000D03*
X188500000Y-126010000D03*
%TD*%
D12*
%TO.C,J14*%
X142430000Y-43570000D03*
D13*
X142430000Y-41030000D03*
X144970000Y-43570000D03*
X144970000Y-41030000D03*
X147510000Y-43570000D03*
X147510000Y-41030000D03*
X150050000Y-43570000D03*
X150050000Y-41030000D03*
%TD*%
%LPD*%
M02*
