%TF.GenerationSoftware,KiCad,Pcbnew,9.0.6*%
%TF.CreationDate,2026-05-29T20:57:00-07:00*%
%TF.ProjectId,LegRobotBoardTeensy,4c656752-6f62-46f7-9442-6f6172645465,rev?*%
%TF.SameCoordinates,Original*%
%TF.FileFunction,Legend,Bot*%
%TF.FilePolarity,Positive*%
%FSLAX46Y46*%
G04 Gerber Fmt 4.6, Leading zero omitted, Abs format (unit mm)*
G04 Created by KiCad (PCBNEW 9.0.6) date 2026-05-29 20:57:00*
%MOMM*%
%LPD*%
G01*
G04 APERTURE LIST*
G04 Aperture macros list*
%AMRoundRect*
0 Rectangle with rounded corners*
0 $1 Rounding radius*
0 $2 $3 $4 $5 $6 $7 $8 $9 X,Y pos of 4 corners*
0 Add a 4 corners polygon primitive as box body*
4,1,4,$2,$3,$4,$5,$6,$7,$8,$9,$2,$3,0*
0 Add four circle primitives for the rounded corners*
1,1,$1+$1,$2,$3*
1,1,$1+$1,$4,$5*
1,1,$1+$1,$6,$7*
1,1,$1+$1,$8,$9*
0 Add four rect primitives between the rounded corners*
20,1,$1+$1,$2,$3,$4,$5,0*
20,1,$1+$1,$4,$5,$6,$7,0*
20,1,$1+$1,$6,$7,$8,$9,0*
20,1,$1+$1,$8,$9,$2,$3,0*%
G04 Aperture macros list end*
%ADD10RoundRect,0.250000X-0.600000X-0.725000X0.600000X-0.725000X0.600000X0.725000X-0.600000X0.725000X0*%
%ADD11O,1.700000X1.950000*%
%ADD12RoundRect,0.250000X0.600000X-0.600000X0.600000X0.600000X-0.600000X0.600000X-0.600000X-0.600000X0*%
%ADD13C,1.700000*%
%ADD14C,1.905000*%
%ADD15R,1.905000X1.905000*%
%ADD16RoundRect,0.250000X0.550000X-0.550000X0.550000X0.550000X-0.550000X0.550000X-0.550000X-0.550000X0*%
%ADD17C,1.600000*%
%ADD18C,5.700000*%
G04 APERTURE END LIST*
%LPC*%
D10*
%TO.C,J2*%
X99625000Y-54000000D03*
D11*
X102125000Y-54000000D03*
X104625000Y-54000000D03*
%TD*%
D10*
%TO.C,J5*%
X203875000Y-100310000D03*
D11*
X206375000Y-100310000D03*
X208875000Y-100310000D03*
%TD*%
D12*
%TO.C,J1*%
X127845000Y-57370000D03*
D13*
X127845000Y-54830000D03*
X130385000Y-57370000D03*
X130385000Y-54830000D03*
X132925000Y-57370000D03*
X132925000Y-54830000D03*
X135465000Y-57370000D03*
X135465000Y-54830000D03*
%TD*%
D14*
%TO.C,U8*%
X144885000Y-60227000D03*
X162665000Y-67847000D03*
X144885000Y-62767000D03*
X162665000Y-65307000D03*
X162665000Y-60227000D03*
X162665000Y-62767000D03*
X144885000Y-70387000D03*
X144885000Y-67847000D03*
X144885000Y-65307000D03*
D15*
X144885000Y-57687000D03*
%TD*%
D16*
%TO.C,J18*%
X228540000Y-80520000D03*
D17*
X231080000Y-80520000D03*
X233620000Y-80520000D03*
X236160000Y-80520000D03*
X238700000Y-80520000D03*
X238700000Y-65520000D03*
X236160000Y-65520000D03*
X233620000Y-65520000D03*
X231080000Y-65520000D03*
X228540000Y-65520000D03*
%TD*%
D10*
%TO.C,J4*%
X99443900Y-100310000D03*
D11*
X101943900Y-100310000D03*
X104443900Y-100310000D03*
%TD*%
D12*
%TO.C,J8*%
X172055000Y-70450000D03*
D13*
X172055000Y-67910000D03*
X174595000Y-70450000D03*
X174595000Y-67910000D03*
X177135000Y-70450000D03*
X177135000Y-67910000D03*
X179675000Y-70450000D03*
X179675000Y-67910000D03*
%TD*%
D12*
%TO.C,J15*%
X127845000Y-103680000D03*
D13*
X127845000Y-101140000D03*
X130385000Y-103680000D03*
X130385000Y-101140000D03*
X132925000Y-103680000D03*
X132925000Y-101140000D03*
X135465000Y-103680000D03*
X135465000Y-101140000D03*
%TD*%
D18*
%TO.C,MH2*%
X236800000Y-40050000D03*
%TD*%
D12*
%TO.C,J11*%
X127845000Y-117727500D03*
D13*
X127845000Y-115187500D03*
X130385000Y-117727500D03*
X130385000Y-115187500D03*
X132925000Y-117727500D03*
X132925000Y-115187500D03*
X135465000Y-117727500D03*
X135465000Y-115187500D03*
%TD*%
D18*
%TO.C,MH4*%
X236800000Y-138350000D03*
%TD*%
D12*
%TO.C,J16*%
X172305000Y-103680000D03*
D13*
X172305000Y-101140000D03*
X174845000Y-103680000D03*
X174845000Y-101140000D03*
X177385000Y-103680000D03*
X177385000Y-101140000D03*
X179925000Y-103680000D03*
X179925000Y-101140000D03*
%TD*%
D12*
%TO.C,J9*%
X202815000Y-70450000D03*
D13*
X202815000Y-67910000D03*
X205355000Y-70450000D03*
X205355000Y-67910000D03*
X207895000Y-70450000D03*
X207895000Y-67910000D03*
X210435000Y-70450000D03*
X210435000Y-67910000D03*
%TD*%
D18*
%TO.C,MH1*%
X71050000Y-40050000D03*
%TD*%
D12*
%TO.C,J13*%
X202705000Y-117727500D03*
D13*
X202705000Y-115187500D03*
X205245000Y-117727500D03*
X205245000Y-115187500D03*
X207785000Y-117727500D03*
X207785000Y-115187500D03*
X210325000Y-117727500D03*
X210325000Y-115187500D03*
%TD*%
D12*
%TO.C,J10*%
X98355000Y-117727500D03*
D13*
X98355000Y-115187500D03*
X100895000Y-117727500D03*
X100895000Y-115187500D03*
X103435000Y-117727500D03*
X103435000Y-115187500D03*
X105975000Y-117727500D03*
X105975000Y-115187500D03*
%TD*%
D10*
%TO.C,J3*%
X203875000Y-54000000D03*
D11*
X206375000Y-54000000D03*
X208875000Y-54000000D03*
%TD*%
D12*
%TO.C,J7*%
X127845000Y-70450000D03*
D13*
X127845000Y-67910000D03*
X130385000Y-70450000D03*
X130385000Y-67910000D03*
X132925000Y-70450000D03*
X132925000Y-67910000D03*
X135465000Y-70450000D03*
X135465000Y-67910000D03*
%TD*%
D16*
%TO.C,J19*%
X69200000Y-127797500D03*
D17*
X71740000Y-127797500D03*
X74280000Y-127797500D03*
X76820000Y-127797500D03*
X79360000Y-127797500D03*
X79360000Y-112797500D03*
X76820000Y-112797500D03*
X74280000Y-112797500D03*
X71740000Y-112797500D03*
X69200000Y-112797500D03*
%TD*%
%TO.C,U1*%
X161525000Y-143140000D03*
X161525000Y-140600000D03*
X161525000Y-138060000D03*
X161525000Y-135520000D03*
X161525000Y-132980000D03*
X161525000Y-130440000D03*
X161525000Y-127900000D03*
X161525000Y-125360000D03*
X161525000Y-122820000D03*
X161525000Y-120280000D03*
X161525000Y-117740000D03*
X161525000Y-115200000D03*
X161525000Y-112660000D03*
X161525000Y-110120000D03*
X158985000Y-110120000D03*
X156445000Y-110120000D03*
X153905000Y-110120000D03*
X151365000Y-110120000D03*
X148825000Y-110120000D03*
X146285000Y-110120000D03*
X146285000Y-112660000D03*
X146285000Y-115200000D03*
X146285000Y-117740000D03*
X146285000Y-120280000D03*
X146285000Y-122820000D03*
X146285000Y-125360000D03*
X146285000Y-127900000D03*
X146285000Y-130440000D03*
X146285000Y-132980000D03*
X146285000Y-135520000D03*
X146285000Y-138060000D03*
X146285000Y-140600000D03*
X146285000Y-143140000D03*
X148825000Y-140600000D03*
X148825000Y-115200000D03*
X148825000Y-117740000D03*
X151365000Y-115200000D03*
X151365000Y-117740000D03*
X153905000Y-115200000D03*
X153905000Y-117740000D03*
X156445000Y-115200000D03*
X156445000Y-117740000D03*
X158985000Y-115200000D03*
X158985000Y-117740000D03*
%TD*%
D12*
%TO.C,J12*%
X172195000Y-117727500D03*
D13*
X172195000Y-115187500D03*
X174735000Y-117727500D03*
X174735000Y-115187500D03*
X177275000Y-117727500D03*
X177275000Y-115187500D03*
X179815000Y-117727500D03*
X179815000Y-115187500D03*
%TD*%
D16*
%TO.C,J20*%
X228540000Y-127797500D03*
D17*
X231080000Y-127797500D03*
X233620000Y-127797500D03*
X236160000Y-127797500D03*
X238700000Y-127797500D03*
X238700000Y-112797500D03*
X236160000Y-112797500D03*
X233620000Y-112797500D03*
X231080000Y-112797500D03*
X228540000Y-112797500D03*
%TD*%
D18*
%TO.C,MH3*%
X71050000Y-138350000D03*
%TD*%
D16*
%TO.C,J17*%
X69200000Y-80520000D03*
D17*
X71740000Y-80520000D03*
X74280000Y-80520000D03*
X76820000Y-80520000D03*
X79360000Y-80520000D03*
X79360000Y-65520000D03*
X76820000Y-65520000D03*
X74280000Y-65520000D03*
X71740000Y-65520000D03*
X69200000Y-65520000D03*
%TD*%
D12*
%TO.C,J6*%
X98445000Y-70450000D03*
D13*
X98445000Y-67910000D03*
X100985000Y-70450000D03*
X100985000Y-67910000D03*
X103525000Y-70450000D03*
X103525000Y-67910000D03*
X106065000Y-70450000D03*
X106065000Y-67910000D03*
%TD*%
D12*
%TO.C,J14*%
X172305000Y-57370000D03*
D13*
X172305000Y-54830000D03*
X174845000Y-57370000D03*
X174845000Y-54830000D03*
X177385000Y-57370000D03*
X177385000Y-54830000D03*
X179925000Y-57370000D03*
X179925000Y-54830000D03*
%TD*%
%LPD*%
M02*
