M48
; DRILL file {KiCad 9.0.6} date 2026-06-22T13:56:12-0700
; FORMAT={-:-/ absolute / inch / decimal}
; #@! TF.CreationDate,2026-06-22T13:56:12-07:00
; #@! TF.GenerationSoftware,Kicad,Pcbnew,9.0.6
; #@! TF.FileFunction,Plated,1,2,PTH
FMAT,2
INCH
; #@! TA.AperFunction,Plated,PTH,ViaDrill
T1C0.0118
; #@! TA.AperFunction,Plated,PTH,ComponentDrill
T2C0.0315
; #@! TA.AperFunction,Plated,PTH,ComponentDrill
T3C0.0374
; #@! TA.AperFunction,Plated,PTH,ComponentDrill
T4C0.0394
; #@! TA.AperFunction,Plated,PTH,ComponentDrill
T5C0.0433
; #@! TA.AperFunction,Plated,PTH,ComponentDrill
T6C0.1260
%
G90
G05
T1
X2.7238Y-3.9158
X2.9384Y-1.9529
X2.9384Y-2.0733
X3.075Y-1.8165
X3.1921Y-1.9582
X3.1921Y-5.5281
X3.2101Y-2.0467
X3.3091Y-1.928
X3.3427Y-1.91
X3.4262Y-1.986
X3.7722Y-4.8421
X3.7826Y-5.503
X3.8945Y-5.212
X3.8945Y-3.0898
X3.8974Y-3.6855
X3.9252Y-3.3698
X3.9882Y-3.7972
X3.9921Y-4.8132
X3.9949Y-2.9691
X4.0084Y-3.1852
X4.0087Y-4.2581
X4.0375Y-2.9783
X4.0653Y-5.4183
X4.0654Y-4.8132
X4.0689Y-5.5945
X4.0739Y-3.5812
X4.1031Y-2.9647
X4.1191Y-4.1998
X4.1408Y-3.782
X4.2101Y-5.0514
X4.2391Y-4.8687
X4.2414Y-5.2885
X4.2456Y-3.7022
X4.2456Y-5.5433
X4.2621Y-5.1049
X4.2737Y-3.5798
X4.2781Y-3.3139
X4.2803Y-3.2651
X4.2831Y-2.9946
X4.3012Y-5.4272
X4.3105Y-3.2631
X4.374Y-5.3248
X4.3922Y-5.5604
X4.4247Y-3.4389
X4.4391Y-3.3805
X4.5792Y-5.0588
X4.5925Y-5.378
X4.5946Y-3.4552
X4.5968Y-2.4188
X4.5991Y-5.1837
X4.7139Y-4.031
X4.8091Y-5.5413
X4.8266Y-3.4523
X4.8819Y-4.9744
X4.9075Y-3.7933
X4.9114Y-3.9646
X4.9409Y-3.6634
X4.9446Y-4.6263
X4.948Y-3.0901
X4.9961Y-3.7717
X5.0098Y-4.9744
X5.0464Y-5.1299
X5.0464Y-5.2118
X5.052Y-3.6954
X5.0602Y-5.5281
X5.0651Y-3.3849
X5.0747Y-5.0588
X5.0761Y-3.2361
X5.083Y-3.0901
X5.0934Y-4.76
X5.0934Y-4.8111
X5.11Y-5.1905
X5.111Y-5.0319
X5.1383Y-4.1457
X5.1395Y-4.7463
X5.176Y-3.0901
X5.1858Y-5.542
X5.1893Y-3.7212
X5.2007Y-2.8971
X5.2029Y-3.7503
X5.2087Y-5.4961
X5.2314Y-2.9673
X5.2831Y-5.1359
X5.2981Y-3.0901
X5.2989Y-3.2248
X5.3429Y-3.357
X5.3449Y-5.0645
X5.3805Y-3.2284
X5.3858Y-4.8111
X5.3917Y-2.2376
X5.4027Y-3.0901
X5.4163Y-3.8096
X5.4163Y-3.8771
X5.4163Y-5.5433
X5.4257Y-4.8371
X5.4427Y-3.7031
X5.4665Y-3.7894
X5.4724Y-5.5
X5.4783Y-3.6634
X5.498Y-4.2343
X5.5177Y-3.7598
X5.5441Y-5.4129
X5.5699Y-5.0966
X5.5709Y-3.5177
X5.6548Y-4.8519
X5.6833Y-3.4805
X5.6833Y-4.7301
X5.6883Y-2.9896
X5.7973Y-2.5776
X5.8024Y-4.9086
X5.8461Y-4.5247
X5.8611Y-4.8351
X5.866Y-3.5879
X5.8665Y-3.9371
X5.8845Y-1.9431
X5.8845Y-4.4642
X5.9045Y-5.086
X5.9226Y-4.6193
X5.9547Y-3.9291
X5.9707Y-4.5137
X6.0138Y-2.5571
X6.0138Y-2.6772
X6.0186Y-4.5076
X6.0217Y-3.3467
X6.0398Y-4.4693
X6.0591Y-3.9291
X6.1187Y-2.3037
X6.1486Y-4.4054
X6.149Y-3.1848
X6.1895Y-3.5312
X6.2357Y-2.1717
X6.2407Y-2.0713
X6.306Y-4.1371
X6.4439Y-4.2039
X6.4622Y-4.2845
X6.4744Y-3.8248
X6.484Y-4.1617
X6.5537Y-4.0074
X6.5972Y-4.9626
X6.6042Y-4.1842
X6.6142Y-4.2933
X6.6255Y-4.84
X6.6502Y-4.4814
X6.6626Y-4.3616
X6.6654Y-5.6339
X6.689Y-5.2835
X6.6897Y-3.0955
X6.7314Y-3.9423
X6.7335Y-3.4774
X6.7433Y-3.1352
X6.7618Y-4.3071
X6.7657Y-4.7343
X6.7756Y-3.7205
X6.7776Y-3.5906
X6.7776Y-5.561
X6.7795Y-3.5098
X6.8102Y-3.678
X6.813Y-5.5215
X6.8344Y-4.9286
X6.8451Y-5.0674
X6.8477Y-5.1411
X6.8478Y-5.1986
X6.8563Y-5.2717
X6.8629Y-4.9123
X6.8701Y-4.7323
X6.8727Y-5.0278
X6.8852Y-3.4467
X6.8909Y-4.8137
X6.9263Y-3.9318
X6.9299Y-3.7009
X6.9354Y-5.542
X6.9388Y-3.6528
X6.9895Y-4.9286
X7.0001Y-4.173
X7.0244Y-4.9286
X7.0337Y-3.1097
X7.0552Y-3.5704
X7.0552Y-4.724
X7.061Y-5.5492
X7.0689Y-3.7067
X7.0718Y-5.2099
X7.0827Y-5.3996
X7.0904Y-5.0644
X7.1102Y-3.3406
X7.1261Y-4.9286
X7.137Y-3.4467
X7.1415Y-5.1178
X7.1455Y-5.5433
X7.1722Y-5.2825
X7.1811Y-3.9488
X7.2028Y-5.5787
X7.2283Y-5.4331
X7.2303Y-3.5984
X7.2992Y-3.4783
X7.3051Y-5.3563
X7.3622Y-3.9547
X7.3673Y-3.2729
X7.5089Y-5.1718
X7.5138Y-3.813
X7.5173Y-5.2977
X7.5234Y-4.3765
X7.5666Y-5.231
X7.5674Y-3.2974
X7.6083Y-3.813
X7.6405Y-4.9523
X7.673Y-4.9844
X7.6789Y-3.3284
X7.6789Y-3.4741
X7.6807Y-5.1667
X7.7549Y-5.0503
X7.7549Y-5.1826
X7.8268Y-3.815
X7.8296Y-4.938
X7.8296Y-5.2967
X7.8671Y-5.1651
X7.8684Y-5.4923
X7.8687Y-5.4171
X7.8746Y-2.9946
X7.8746Y-4.8394
X7.876Y-5.2697
X7.9469Y-5.1181
X7.9917Y-3.2345
X7.9917Y-5.0674
X7.9941Y-5.5807
X8.001Y-2.9647
X8.0059Y-3.4114
X8.0059Y-3.7441
X8.077Y-4.9522
X8.0893Y-3.5965
X8.0902Y-5.4214
X8.0959Y-2.9673
X8.1195Y-3.4467
X8.1234Y-4.232
X8.1331Y-3.3105
X8.1335Y-4.9608
X8.1366Y-5.542
X8.1437Y-5.124
X8.1752Y-3.8819
X8.1915Y-4.9154
X8.204Y-4.8111
X8.2086Y-2.0308
X8.2258Y-3.2706
X8.2494Y-3.7161
X8.2579Y-5.5807
X8.2598Y-5.2421
X8.2618Y-3.5177
X8.2633Y-2.059
X8.2677Y-5.4134
X8.2953Y-3.9803
X8.2972Y-3.7638
X8.3076Y-4.8111
X8.3105Y-5.542
X8.3175Y-5.3654
X8.339Y-3.1136
X8.3906Y-3.7096
X8.4213Y-5.1358
X8.4291Y-5.252
X8.5002Y-1.9894
X8.5423Y-3.3401
X8.5692Y-3.4504
X8.5742Y-2.0761
X8.5807Y-1.9696
X8.7722Y-3.5624
X8.7947Y-3.5993
X8.8504Y-3.6004
X8.8642Y-3.5433
X8.8839Y-3.8406
X8.915Y-1.8505
X8.9282Y-4.2613
X8.9282Y-5.5281
X8.9515Y-3.7225
X8.9541Y-1.8146
X9.0142Y-3.3354
X9.0736Y-3.7134
X9.0902Y-3.6647
X9.1168Y-3.8737
X9.1176Y-3.946
X9.1791Y-3.9035
X9.1811Y-3.7972
X9.1929Y-3.5256
X9.2303Y-2.0624
X9.2483Y-3.8802
X9.2766Y-3.805
X9.2909Y-3.9319
X9.3964Y-3.3354
X9.4355Y-3.7012
X9.4562Y-3.9414
T2
X2.7803Y-2.5067
X2.7803Y-2.9067
X2.7803Y-4.3866
X2.7803Y-4.7866
X2.8803Y-2.5067
X2.8803Y-2.9067
X2.8803Y-4.3866
X2.8803Y-4.7866
X2.9803Y-2.5067
X2.9803Y-2.9067
X2.9803Y-4.3866
X2.9803Y-4.7866
X3.0803Y-2.5067
X3.0803Y-2.9067
X3.0803Y-4.3866
X3.0803Y-4.7866
X3.1803Y-2.5067
X3.1803Y-2.9067
X3.1803Y-4.3866
X3.1803Y-4.7866
X5.856Y-5.052
X5.856Y-5.1307
X5.9348Y-5.052
X5.9348Y-5.1307
X6.01Y-5.6126
X6.0135Y-5.052
X6.0135Y-5.1307
X6.11Y-5.6126
X8.985Y-2.5067
X8.985Y-2.9067
X8.985Y-4.3866
X8.985Y-4.7866
X9.085Y-2.5067
X9.085Y-2.9067
X9.085Y-4.3866
X9.085Y-4.7866
X9.185Y-2.5067
X9.185Y-2.9067
X9.185Y-4.3866
X9.185Y-4.7866
X9.285Y-2.5067
X9.285Y-2.9067
X9.285Y-4.3866
X9.285Y-4.7866
X9.385Y-2.5067
X9.385Y-2.9067
X9.385Y-4.3866
X9.385Y-4.7866
T3
X3.9151Y-3.9492
X3.9222Y-2.126
X4.0135Y-3.9492
X4.0207Y-2.126
X4.112Y-3.9492
X4.1191Y-2.126
X8.0266Y-2.126
X8.0266Y-3.9492
X8.125Y-2.126
X8.125Y-3.9492
X8.2234Y-2.126
X8.2234Y-3.9492
T4
X3.8722Y-4.5349
X3.8722Y-4.6349
X3.8758Y-2.6736
X3.8758Y-2.7736
X3.9722Y-4.5349
X3.9722Y-4.6349
X3.9758Y-2.6736
X3.9758Y-2.7736
X4.0722Y-4.5349
X4.0722Y-4.6349
X4.0758Y-2.6736
X4.0758Y-2.7736
X4.1722Y-4.5349
X4.1722Y-4.6349
X4.1758Y-2.6736
X4.1758Y-2.7736
X5.0333Y-2.1587
X5.0333Y-2.2587
X5.0333Y-2.6736
X5.0333Y-2.7736
X5.0333Y-3.9819
X5.0333Y-4.0819
X5.0333Y-4.5349
X5.0333Y-4.6349
X5.1333Y-2.1587
X5.1333Y-2.2587
X5.1333Y-2.6736
X5.1333Y-2.7736
X5.1333Y-3.9819
X5.1333Y-4.0819
X5.1333Y-4.5349
X5.1333Y-4.6349
X5.2333Y-2.1587
X5.2333Y-2.2587
X5.2333Y-2.6736
X5.2333Y-2.7736
X5.2333Y-3.9819
X5.2333Y-4.0819
X5.2333Y-4.5349
X5.2333Y-4.6349
X5.3333Y-2.1587
X5.3333Y-2.2587
X5.3333Y-2.6736
X5.3333Y-2.7736
X5.3333Y-3.9819
X5.3333Y-4.0819
X5.3333Y-4.5349
X5.3333Y-4.6349
X5.7041Y-2.2711
X5.7041Y-2.3711
X5.7041Y-2.4711
X5.7041Y-2.5711
X5.7041Y-2.6711
X5.7041Y-2.7711
X5.76Y-3.3413
X5.76Y-3.4413
X5.76Y-3.5413
X5.76Y-3.6413
X5.76Y-3.7413
X5.76Y-3.8413
X5.76Y-3.9413
X5.76Y-4.0413
X5.76Y-4.1413
X5.76Y-4.2413
X5.76Y-4.3413
X5.76Y-4.4413
X5.76Y-4.5413
X5.76Y-4.6413
X5.76Y-4.7413
X5.76Y-4.8413
X5.76Y-4.9413
X5.76Y-5.0413
X5.76Y-5.1413
X5.76Y-5.2413
X5.76Y-5.3413
X5.76Y-5.4413
X5.76Y-5.5413
X5.76Y-5.6413
X5.86Y-3.8413
X5.96Y-3.8413
X6.06Y-3.8413
X6.16Y-3.8413
X6.26Y-3.8413
X6.36Y-3.3413
X6.36Y-3.4413
X6.36Y-3.5413
X6.36Y-3.6413
X6.36Y-3.7413
X6.36Y-3.8413
X6.36Y-3.9413
X6.36Y-4.0413
X6.36Y-4.1413
X6.36Y-4.2413
X6.36Y-4.3413
X6.36Y-4.4413
X6.36Y-4.5413
X6.36Y-4.6413
X6.36Y-4.7413
X6.36Y-4.8413
X6.36Y-4.9413
X6.36Y-5.0413
X6.36Y-5.1413
X6.36Y-5.2413
X6.36Y-5.3413
X6.36Y-5.4413
X6.36Y-5.5413
X6.36Y-5.6413
X6.4041Y-2.3711
X6.4041Y-2.4711
X6.4041Y-2.5711
X6.4041Y-2.6711
X6.7734Y-2.1587
X6.7734Y-2.2587
X6.7738Y-2.6736
X6.7738Y-2.7736
X6.7793Y-4.5349
X6.7793Y-4.6349
X6.7837Y-3.9819
X6.7837Y-4.0819
X6.8734Y-2.1587
X6.8734Y-2.2587
X6.8738Y-2.6736
X6.8738Y-2.7736
X6.8793Y-4.5349
X6.8793Y-4.6349
X6.8837Y-3.9819
X6.8837Y-4.0819
X6.9734Y-2.1587
X6.9734Y-2.2587
X6.9738Y-2.6736
X6.9738Y-2.7736
X6.9793Y-4.5349
X6.9793Y-4.6349
X6.9837Y-3.9819
X6.9837Y-4.0819
X7.0734Y-2.1587
X7.0734Y-2.2587
X7.0738Y-2.6736
X7.0738Y-2.7736
X7.0793Y-4.5349
X7.0793Y-4.6349
X7.0837Y-3.9819
X7.0837Y-4.0819
X7.9805Y-4.5349
X7.9805Y-4.6349
X7.9848Y-2.6736
X7.9848Y-2.7736
X8.0805Y-4.5349
X8.0805Y-4.6349
X8.0848Y-2.6736
X8.0848Y-2.7736
X8.1805Y-4.5349
X8.1805Y-4.6349
X8.1848Y-2.6736
X8.1848Y-2.7736
X8.2805Y-4.5349
X8.2805Y-4.6349
X8.2848Y-2.6736
X8.2848Y-2.7736
T5
X5.86Y-5.5413
X6.2399Y-4.9933
X6.2399Y-5.0933
X6.2399Y-5.1933
X6.2399Y-5.2933
X6.2399Y-5.3933
T6
X2.7972Y-1.5768
X2.7972Y-5.4469
X9.3228Y-1.5768
X9.3228Y-5.4469
M30
