%TF.GenerationSoftware,KiCad,Pcbnew,9.0.6*%
%TF.CreationDate,2026-03-20T08:51:39-07:00*%
%TF.ProjectId,LegRobotBoardTeensy,4c656752-6f62-46f7-9442-6f6172645465,rev?*%
%TF.SameCoordinates,Original*%
%TF.FileFunction,Soldermask,Top*%
%TF.FilePolarity,Negative*%
%FSLAX46Y46*%
G04 Gerber Fmt 4.6, Leading zero omitted, Abs format (unit mm)*
G04 Created by KiCad (PCBNEW 9.0.6) date 2026-03-20 08:51:39*
%MOMM*%
%LPD*%
G01*
G04 APERTURE LIST*
G04 Aperture macros list*
%AMRoundRect*
0 Rectangle with rounded corners*
0 $1 Rounding radius*
0 $2 $3 $4 $5 $6 $7 $8 $9 X,Y pos of 4 corners*
0 Add a 4 corners polygon primitive as box body*
4,1,4,$2,$3,$4,$5,$6,$7,$8,$9,$2,$3,0*
0 Add four circle primitives for the rounded corners*
1,1,$1+$1,$2,$3*
1,1,$1+$1,$4,$5*
1,1,$1+$1,$6,$7*
1,1,$1+$1,$8,$9*
0 Add four rect primitives between the rounded corners*
20,1,$1+$1,$2,$3,$4,$5,0*
20,1,$1+$1,$4,$5,$6,$7,0*
20,1,$1+$1,$6,$7,$8,$9,0*
20,1,$1+$1,$8,$9,$2,$3,0*%
G04 Aperture macros list end*
%ADD10RoundRect,0.102000X-0.700000X-0.500000X0.700000X-0.500000X0.700000X0.500000X-0.700000X0.500000X0*%
%ADD11RoundRect,0.102000X-0.520000X-0.510000X0.520000X-0.510000X0.520000X0.510000X-0.520000X0.510000X0*%
%ADD12R,1.100000X1.300000*%
%ADD13R,1.981200X0.558800*%
%ADD14RoundRect,0.250000X-0.600000X-0.725000X0.600000X-0.725000X0.600000X0.725000X-0.600000X0.725000X0*%
%ADD15O,1.700000X1.950000*%
%ADD16R,0.653199X0.549999*%
%ADD17RoundRect,0.250000X-0.600000X-0.600000X0.600000X-0.600000X0.600000X0.600000X-0.600000X0.600000X0*%
%ADD18C,1.700000*%
%ADD19C,1.905000*%
%ADD20R,1.905000X1.905000*%
%ADD21R,0.762000X0.863600*%
%ADD22RoundRect,0.102000X-0.430000X-0.490000X0.430000X-0.490000X0.430000X0.490000X-0.430000X0.490000X0*%
%ADD23C,5.700000*%
%ADD24R,1.409700X0.355600*%
%ADD25RoundRect,0.102000X-0.395000X-0.465000X0.395000X-0.465000X0.395000X0.465000X-0.395000X0.465000X0*%
%ADD26RoundRect,0.102000X0.490000X-0.430000X0.490000X0.430000X-0.490000X0.430000X-0.490000X-0.430000X0*%
%ADD27R,0.812800X0.889000*%
%ADD28C,1.600000*%
G04 APERTURE END LIST*
D10*
%TO.C,Q18*%
X120100000Y-107303400D03*
X120100000Y-109203400D03*
X122300000Y-108253400D03*
%TD*%
D11*
%TO.C,R20*%
X119789600Y-112219000D03*
X121259600Y-112219000D03*
%TD*%
D12*
%TO.C,D10*%
X106740500Y-59180000D03*
X108840500Y-59180000D03*
%TD*%
D11*
%TO.C,R22*%
X119789600Y-123709000D03*
X121259600Y-123709000D03*
%TD*%
D13*
%TO.C,U2*%
X145096200Y-80170900D03*
X145096200Y-81440900D03*
X145096200Y-82710900D03*
X145096200Y-83980900D03*
X150023800Y-83980900D03*
X150023800Y-82710900D03*
X150023800Y-81440900D03*
X150023800Y-80170900D03*
%TD*%
D10*
%TO.C,Q22*%
X162150000Y-107303400D03*
X162150000Y-109203400D03*
X164350000Y-108253400D03*
%TD*%
D11*
%TO.C,R13*%
X130889600Y-67279000D03*
X132359600Y-67279000D03*
%TD*%
D14*
%TO.C,J5*%
X181862500Y-98110000D03*
D15*
X184362500Y-98110000D03*
X186862500Y-98110000D03*
%TD*%
D16*
%TO.C,C2*%
X152670601Y-84870900D03*
X153473799Y-84870900D03*
%TD*%
D17*
%TO.C,J1*%
X110160000Y-77860000D03*
D18*
X112700000Y-77860000D03*
X110160000Y-80400000D03*
X112700000Y-80400000D03*
X110160000Y-82940000D03*
X112700000Y-82940000D03*
X110160000Y-85480000D03*
X112700000Y-85480000D03*
%TD*%
D19*
%TO.C,U8*%
X146480000Y-51680000D03*
X154100000Y-33900000D03*
X149020000Y-51680000D03*
X151560000Y-33900000D03*
X146480000Y-33900000D03*
X149020000Y-33900000D03*
X156640000Y-51680000D03*
X154100000Y-51680000D03*
X151560000Y-51680000D03*
D20*
X143940000Y-51680000D03*
%TD*%
D10*
%TO.C,Q4*%
X167725000Y-62363400D03*
X167725000Y-64263400D03*
X169925000Y-63313400D03*
%TD*%
D13*
%TO.C,U6*%
X124961100Y-133770000D03*
X124961100Y-135040000D03*
X124961100Y-136310000D03*
X124961100Y-137580000D03*
X124961100Y-138850000D03*
X124961100Y-140120000D03*
X124961100Y-141390000D03*
X129888700Y-141390000D03*
X129888700Y-140120000D03*
X129888700Y-138850000D03*
X129888700Y-137580000D03*
X129888700Y-136310000D03*
X129888700Y-135040000D03*
X129888700Y-133770000D03*
%TD*%
D11*
%TO.C,R16*%
X161839600Y-56309000D03*
X163309600Y-56309000D03*
%TD*%
D21*
%TO.C,D8*%
X183740200Y-126060000D03*
X184984800Y-126060000D03*
%TD*%
D13*
%TO.C,U3*%
X124961100Y-77860000D03*
X124961100Y-79130000D03*
X124961100Y-80400000D03*
X124961100Y-81670000D03*
X124961100Y-82940000D03*
X124961100Y-84210000D03*
X124961100Y-85480000D03*
X129888700Y-85480000D03*
X129888700Y-84210000D03*
X129888700Y-82940000D03*
X129888700Y-81670000D03*
X129888700Y-80400000D03*
X129888700Y-79130000D03*
X129888700Y-77860000D03*
%TD*%
D14*
%TO.C,J4*%
X109050000Y-98110000D03*
D15*
X111550000Y-98110000D03*
X114050000Y-98110000D03*
%TD*%
D22*
%TO.C,R10*%
X167320600Y-123210000D03*
X168850600Y-123210000D03*
%TD*%
D10*
%TO.C,Q13*%
X173300000Y-51393400D03*
X173300000Y-53293400D03*
X175500000Y-52343400D03*
%TD*%
D14*
%TO.C,J8*%
X181862500Y-53170000D03*
D15*
X184362500Y-53170000D03*
X186862500Y-53170000D03*
%TD*%
D10*
%TO.C,Q15*%
X173300000Y-62363400D03*
X173300000Y-64263400D03*
X175500000Y-63313400D03*
%TD*%
D17*
%TO.C,J15*%
X110260000Y-133770000D03*
D18*
X112800000Y-133770000D03*
X110260000Y-136310000D03*
X112800000Y-136310000D03*
X110260000Y-138850000D03*
X112800000Y-138850000D03*
X110260000Y-141390000D03*
X112800000Y-141390000D03*
%TD*%
D21*
%TO.C,D6*%
X110927700Y-126060000D03*
X112172300Y-126060000D03*
%TD*%
D11*
%TO.C,R26*%
X161839600Y-123189000D03*
X163309600Y-123189000D03*
%TD*%
D23*
%TO.C,MH2*%
X196800000Y-34050000D03*
%TD*%
D10*
%TO.C,Q14*%
X162150000Y-51393400D03*
X162150000Y-53293400D03*
X164350000Y-52343400D03*
%TD*%
D22*
%TO.C,R5*%
X167320600Y-56330000D03*
X168850600Y-56330000D03*
%TD*%
D21*
%TO.C,D4*%
X183740200Y-70150000D03*
X184984800Y-70150000D03*
%TD*%
D24*
%TO.C,U5*%
X145003550Y-94925000D03*
X145003550Y-95575001D03*
X145003550Y-96225000D03*
X145003550Y-96875001D03*
X145003550Y-97524999D03*
X145003550Y-98175001D03*
X145003550Y-98824999D03*
X145003550Y-99474998D03*
X145003550Y-100124999D03*
X145003550Y-100774998D03*
X145003550Y-101424999D03*
X145003550Y-102074998D03*
X145003550Y-102724999D03*
X145003550Y-103374998D03*
X150909050Y-103375000D03*
X150909050Y-102724999D03*
X150909050Y-102075000D03*
X150909050Y-101424999D03*
X150909050Y-100775001D03*
X150909050Y-100124999D03*
X150909050Y-99475001D03*
X150909050Y-98824999D03*
X150909050Y-98175001D03*
X150909050Y-97524999D03*
X150909050Y-96875001D03*
X150909050Y-96225000D03*
X150909050Y-95575001D03*
X150909050Y-94925000D03*
%TD*%
D12*
%TO.C,D15*%
X186711300Y-70150000D03*
X188811300Y-70150000D03*
%TD*%
D22*
%TO.C,R2*%
X152793800Y-79920900D03*
X154323800Y-79920900D03*
%TD*%
D14*
%TO.C,J11*%
X109050000Y-120050000D03*
D15*
X111550000Y-120050000D03*
X114050000Y-120050000D03*
%TD*%
D14*
%TO.C,J2*%
X108689300Y-42200000D03*
D15*
X111189300Y-42200000D03*
X113689300Y-42200000D03*
%TD*%
D11*
%TO.C,R19*%
X132240400Y-112219000D03*
X133710400Y-112219000D03*
%TD*%
D23*
%TO.C,MH4*%
X196800000Y-152255100D03*
%TD*%
D11*
%TO.C,R17*%
X172989600Y-67279000D03*
X174459600Y-67279000D03*
%TD*%
D12*
%TO.C,D14*%
X179913700Y-59180000D03*
X182013700Y-59180000D03*
%TD*%
D10*
%TO.C,Q11*%
X131200000Y-62363400D03*
X131200000Y-64263400D03*
X133400000Y-63313400D03*
%TD*%
D21*
%TO.C,D7*%
X183740200Y-115090200D03*
X184984800Y-115090200D03*
%TD*%
D12*
%TO.C,D17*%
X113898800Y-115090000D03*
X115998800Y-115090000D03*
%TD*%
D11*
%TO.C,R14*%
X119789600Y-67279000D03*
X121259600Y-67279000D03*
%TD*%
D25*
%TO.C,R1*%
X152783800Y-82520900D03*
X154423800Y-82520900D03*
%TD*%
D10*
%TO.C,Q16*%
X162150000Y-62363400D03*
X162150000Y-64263400D03*
X164350000Y-63313400D03*
%TD*%
D21*
%TO.C,D2*%
X110567100Y-70150000D03*
X111811700Y-70150000D03*
%TD*%
D17*
%TO.C,J16*%
X183210000Y-133770000D03*
D18*
X185750000Y-133770000D03*
X183210000Y-136310000D03*
X185750000Y-136310000D03*
X183210000Y-138850000D03*
X185750000Y-138850000D03*
X183210000Y-141390000D03*
X185750000Y-141390000D03*
%TD*%
D12*
%TO.C,D20*%
X107101200Y-126060000D03*
X109201200Y-126060000D03*
%TD*%
D14*
%TO.C,J9*%
X181862500Y-64140000D03*
D15*
X184362500Y-64140000D03*
X186862500Y-64140000D03*
%TD*%
D12*
%TO.C,D23*%
X186711300Y-126060000D03*
X188811300Y-126060000D03*
%TD*%
D10*
%TO.C,Q20*%
X120100000Y-118793400D03*
X120100000Y-120693400D03*
X122300000Y-119743400D03*
%TD*%
D22*
%TO.C,R7*%
X125245600Y-112240000D03*
X126775600Y-112240000D03*
%TD*%
D10*
%TO.C,Q2*%
X125650000Y-62363400D03*
X125650000Y-64263400D03*
X127850000Y-63313400D03*
%TD*%
D23*
%TO.C,MH1*%
X99350000Y-34050000D03*
%TD*%
D26*
%TO.C,R27*%
X153150000Y-98315000D03*
X153150000Y-96785000D03*
%TD*%
D27*
%TO.C,C3*%
X144330000Y-56750000D03*
X145625400Y-56750000D03*
%TD*%
D13*
%TO.C,U7*%
X164908600Y-133770000D03*
X164908600Y-135040000D03*
X164908600Y-136310000D03*
X164908600Y-137580000D03*
X164908600Y-138850000D03*
X164908600Y-140120000D03*
X164908600Y-141390000D03*
X169836200Y-141390000D03*
X169836200Y-140120000D03*
X169836200Y-138850000D03*
X169836200Y-137580000D03*
X169836200Y-136310000D03*
X169836200Y-135040000D03*
X169836200Y-133770000D03*
%TD*%
D14*
%TO.C,J13*%
X181862500Y-120050000D03*
D15*
X184362500Y-120050000D03*
X186862500Y-120050000D03*
%TD*%
D22*
%TO.C,R28*%
X159270000Y-47700000D03*
X160800000Y-47700000D03*
%TD*%
D11*
%TO.C,R15*%
X172989600Y-56309000D03*
X174459600Y-56309000D03*
%TD*%
D10*
%TO.C,Q23*%
X173300000Y-118273400D03*
X173300000Y-120173400D03*
X175500000Y-119223400D03*
%TD*%
D14*
%TO.C,J10*%
X109050000Y-109080000D03*
D15*
X111550000Y-109080000D03*
X114050000Y-109080000D03*
%TD*%
D11*
%TO.C,R23*%
X172989600Y-112219000D03*
X174459600Y-112219000D03*
%TD*%
D21*
%TO.C,D1*%
X110567000Y-59180200D03*
X111811600Y-59180200D03*
%TD*%
D12*
%TO.C,D18*%
X107101200Y-115090000D03*
X109201200Y-115090000D03*
%TD*%
D11*
%TO.C,R21*%
X132240400Y-123709000D03*
X133710400Y-123709000D03*
%TD*%
D21*
%TO.C,C4*%
X144355400Y-59700000D03*
X145600000Y-59700000D03*
%TD*%
%TO.C,D3*%
X183740200Y-59180200D03*
X184984800Y-59180200D03*
%TD*%
D12*
%TO.C,D9*%
X113538100Y-59180000D03*
X115638100Y-59180000D03*
%TD*%
%TO.C,D11*%
X113538200Y-70150000D03*
X115638200Y-70150000D03*
%TD*%
%TO.C,D13*%
X186711300Y-59180000D03*
X188811300Y-59180000D03*
%TD*%
%TO.C,D16*%
X179913700Y-70150000D03*
X182013700Y-70150000D03*
%TD*%
%TO.C,D19*%
X113898800Y-126060000D03*
X115998800Y-126060000D03*
%TD*%
D10*
%TO.C,Q6*%
X125650000Y-118793400D03*
X125650000Y-120693400D03*
X127850000Y-119743400D03*
%TD*%
%TO.C,Q8*%
X167725000Y-118273400D03*
X167725000Y-120173400D03*
X169925000Y-119223400D03*
%TD*%
D11*
%TO.C,R24*%
X161839600Y-112219000D03*
X163309600Y-112219000D03*
%TD*%
D22*
%TO.C,R8*%
X125245600Y-123730000D03*
X126775600Y-123730000D03*
%TD*%
D21*
%TO.C,D5*%
X110927700Y-115090200D03*
X112172300Y-115090200D03*
%TD*%
D10*
%TO.C,Q17*%
X131200000Y-107303400D03*
X131200000Y-109203400D03*
X133400000Y-108253400D03*
%TD*%
D11*
%TO.C,R12*%
X119789600Y-56309000D03*
X121259600Y-56309000D03*
%TD*%
D10*
%TO.C,Q7*%
X167725000Y-107303400D03*
X167725000Y-109203400D03*
X169925000Y-108253400D03*
%TD*%
%TO.C,Q19*%
X131200000Y-118793400D03*
X131200000Y-120693400D03*
X133400000Y-119743400D03*
%TD*%
D14*
%TO.C,J3*%
X181862500Y-42200000D03*
D15*
X184362500Y-42200000D03*
X186862500Y-42200000D03*
%TD*%
D14*
%TO.C,J7*%
X108689400Y-64140000D03*
D15*
X111189400Y-64140000D03*
X113689400Y-64140000D03*
%TD*%
D10*
%TO.C,Q24*%
X162150000Y-118273400D03*
X162150000Y-120173400D03*
X164350000Y-119223400D03*
%TD*%
D11*
%TO.C,R25*%
X172989600Y-123189000D03*
X174459600Y-123189000D03*
%TD*%
%TO.C,R18*%
X161839600Y-67279000D03*
X163309600Y-67279000D03*
%TD*%
D12*
%TO.C,D24*%
X179913700Y-126060000D03*
X182013700Y-126060000D03*
%TD*%
D10*
%TO.C,Q1*%
X125650000Y-51393400D03*
X125650000Y-53293400D03*
X127850000Y-52343400D03*
%TD*%
%TO.C,Q10*%
X120100000Y-51393400D03*
X120100000Y-53293400D03*
X122300000Y-52343400D03*
%TD*%
D22*
%TO.C,R3*%
X125245600Y-56330000D03*
X126775600Y-56330000D03*
%TD*%
D10*
%TO.C,Q9*%
X131200000Y-51393400D03*
X131200000Y-53293400D03*
X133400000Y-52343400D03*
%TD*%
D12*
%TO.C,D22*%
X179913700Y-115090000D03*
X182013700Y-115090000D03*
%TD*%
D27*
%TO.C,C1*%
X144452300Y-76650000D03*
X145747700Y-76650000D03*
%TD*%
D22*
%TO.C,R4*%
X125245600Y-67300000D03*
X126775600Y-67300000D03*
%TD*%
%TO.C,R6*%
X167320600Y-67300000D03*
X168850600Y-67300000D03*
%TD*%
D11*
%TO.C,R11*%
X130889600Y-56309000D03*
X132359600Y-56309000D03*
%TD*%
D28*
%TO.C,U1*%
X155107500Y-155350000D03*
X155107500Y-152810000D03*
X155107500Y-150270000D03*
X155107500Y-147730000D03*
X155107500Y-145190000D03*
X155107500Y-142650000D03*
X155107500Y-140110000D03*
X155107500Y-137570000D03*
X155107500Y-135030000D03*
X155107500Y-132490000D03*
X155107500Y-129950000D03*
X155107500Y-127410000D03*
X155107500Y-124870000D03*
X155107500Y-122330000D03*
X152567500Y-122330000D03*
X150027500Y-122330000D03*
X147487500Y-122330000D03*
X144947500Y-122330000D03*
X142407500Y-122330000D03*
X139867500Y-122330000D03*
X139867500Y-124870000D03*
X139867500Y-127410000D03*
X139867500Y-129950000D03*
X139867500Y-132490000D03*
X139867500Y-135030000D03*
X139867500Y-137570000D03*
X139867500Y-140110000D03*
X139867500Y-142650000D03*
X139867500Y-145190000D03*
X139867500Y-147730000D03*
X139867500Y-150270000D03*
X139867500Y-152810000D03*
X139867500Y-155350000D03*
X142407500Y-152810000D03*
X142407500Y-127410000D03*
X142407500Y-129950000D03*
X144947500Y-127410000D03*
X144947500Y-129950000D03*
X147487500Y-127410000D03*
X147487500Y-129950000D03*
X150027500Y-127410000D03*
X150027500Y-129950000D03*
X152567500Y-127410000D03*
X152567500Y-129950000D03*
%TD*%
D22*
%TO.C,R9*%
X167320600Y-112240000D03*
X168850600Y-112240000D03*
%TD*%
D14*
%TO.C,J12*%
X181862500Y-109080000D03*
D15*
X184362500Y-109080000D03*
X186862500Y-109080000D03*
%TD*%
D23*
%TO.C,MH3*%
X99350000Y-152255100D03*
%TD*%
D10*
%TO.C,Q12*%
X120100000Y-62363400D03*
X120100000Y-64263400D03*
X122300000Y-63313400D03*
%TD*%
%TO.C,Q5*%
X125650000Y-107303400D03*
X125650000Y-109203400D03*
X127850000Y-108253400D03*
%TD*%
D13*
%TO.C,U4*%
X164908600Y-77860000D03*
X164908600Y-79130000D03*
X164908600Y-80400000D03*
X164908600Y-81670000D03*
X164908600Y-82940000D03*
X164908600Y-84210000D03*
X164908600Y-85480000D03*
X169836200Y-85480000D03*
X169836200Y-84210000D03*
X169836200Y-82940000D03*
X169836200Y-81670000D03*
X169836200Y-80400000D03*
X169836200Y-79130000D03*
X169836200Y-77860000D03*
%TD*%
D10*
%TO.C,Q21*%
X173300000Y-107303400D03*
X173300000Y-109203400D03*
X175500000Y-108253400D03*
%TD*%
D12*
%TO.C,D12*%
X106740600Y-70150000D03*
X108840600Y-70150000D03*
%TD*%
D14*
%TO.C,J6*%
X108689300Y-53170000D03*
D15*
X111189300Y-53170000D03*
X113689300Y-53170000D03*
%TD*%
D10*
%TO.C,Q3*%
X167725000Y-51393400D03*
X167725000Y-53293400D03*
X169925000Y-52343400D03*
%TD*%
D17*
%TO.C,J14*%
X183610000Y-77860000D03*
D18*
X186150000Y-77860000D03*
X183610000Y-80400000D03*
X186150000Y-80400000D03*
X183610000Y-82940000D03*
X186150000Y-82940000D03*
X183610000Y-85480000D03*
X186150000Y-85480000D03*
%TD*%
D12*
%TO.C,D21*%
X186711300Y-115090000D03*
X188811300Y-115090000D03*
%TD*%
M02*
