%TF.GenerationSoftware,KiCad,Pcbnew,9.0.6*%
%TF.CreationDate,2026-06-22T13:56:12-07:00*%
%TF.ProjectId,LegRobotBoardTeensy,4c656752-6f62-46f7-9442-6f6172645465,rev?*%
%TF.SameCoordinates,Original*%
%TF.FileFunction,Soldermask,Top*%
%TF.FilePolarity,Negative*%
%FSLAX46Y46*%
G04 Gerber Fmt 4.6, Leading zero omitted, Abs format (unit mm)*
G04 Created by KiCad (PCBNEW 9.0.6) date 2026-06-22 13:56:12*
%MOMM*%
%LPD*%
G01*
G04 APERTURE LIST*
G04 Aperture macros list*
%AMRoundRect*
0 Rectangle with rounded corners*
0 $1 Rounding radius*
0 $2 $3 $4 $5 $6 $7 $8 $9 X,Y pos of 4 corners*
0 Add a 4 corners polygon primitive as box body*
4,1,4,$2,$3,$4,$5,$6,$7,$8,$9,$2,$3,0*
0 Add four circle primitives for the rounded corners*
1,1,$1+$1,$2,$3*
1,1,$1+$1,$4,$5*
1,1,$1+$1,$6,$7*
1,1,$1+$1,$8,$9*
0 Add four rect primitives between the rounded corners*
20,1,$1+$1,$2,$3,$4,$5,0*
20,1,$1+$1,$4,$5,$6,$7,0*
20,1,$1+$1,$6,$7,$8,$9,0*
20,1,$1+$1,$8,$9,$2,$3,0*%
G04 Aperture macros list end*
%ADD10C,1.600000*%
%ADD11RoundRect,0.250000X0.550000X-0.550000X0.550000X0.550000X-0.550000X0.550000X-0.550000X-0.550000X0*%
%ADD12RoundRect,0.102000X-0.430000X-0.490000X0.430000X-0.490000X0.430000X0.490000X-0.430000X0.490000X0*%
%ADD13RoundRect,0.198500X-0.508500X-0.198500X0.508500X-0.198500X0.508500X0.198500X-0.508500X0.198500X0*%
%ADD14RoundRect,0.102000X-0.520000X-0.510000X0.520000X-0.510000X0.520000X0.510000X-0.520000X0.510000X0*%
%ADD15R,1.100000X1.300000*%
%ADD16R,1.981200X0.558800*%
%ADD17RoundRect,0.250000X-0.600000X-0.725000X0.600000X-0.725000X0.600000X0.725000X-0.600000X0.725000X0*%
%ADD18O,1.700000X1.950000*%
%ADD19R,0.653199X0.549999*%
%ADD20RoundRect,0.134250X-0.402750X-0.432750X0.402750X-0.432750X0.402750X0.432750X-0.402750X0.432750X0*%
%ADD21RoundRect,0.250000X0.600000X-0.600000X0.600000X0.600000X-0.600000X0.600000X-0.600000X-0.600000X0*%
%ADD22C,1.700000*%
%ADD23C,1.905000*%
%ADD24R,1.905000X1.905000*%
%ADD25R,0.749300X1.041400*%
%ADD26RoundRect,0.102000X-0.550000X-0.500000X0.550000X-0.500000X0.550000X0.500000X-0.550000X0.500000X0*%
%ADD27C,5.700000*%
%ADD28RoundRect,0.102000X-0.395000X-0.465000X0.395000X-0.465000X0.395000X0.465000X-0.395000X0.465000X0*%
%ADD29R,0.711200X0.889000*%
%ADD30R,0.812800X0.889000*%
%ADD31R,0.762000X0.863600*%
%ADD32R,1.866900X0.533400*%
%ADD33R,0.863600X0.762000*%
%ADD34R,0.889000X0.812800*%
%ADD35RoundRect,0.250000X0.550000X-0.600000X0.550000X0.600000X-0.550000X0.600000X-0.550000X-0.600000X0*%
%ADD36R,1.600000X1.600000*%
%ADD37R,1.300000X1.300000*%
%ADD38C,1.300000*%
G04 APERTURE END LIST*
D10*
%TO.C,J17*%
X70620000Y-63670000D03*
X73160000Y-63670000D03*
X75700000Y-63670000D03*
X78240000Y-63670000D03*
X80780000Y-63670000D03*
X80780000Y-73830000D03*
X78240000Y-73830000D03*
X75700000Y-73830000D03*
X73160000Y-73830000D03*
D11*
X70620000Y-73830000D03*
%TD*%
D12*
%TO.C,R65*%
X212605000Y-85591400D03*
X214135000Y-85591400D03*
%TD*%
D13*
%TO.C,Q18*%
X94020000Y-139850000D03*
X94020000Y-141750000D03*
X96530000Y-140800000D03*
%TD*%
D14*
%TO.C,R20*%
X94352500Y-128642000D03*
X95822500Y-128642000D03*
%TD*%
D15*
%TO.C,D10*%
X97806200Y-76657900D03*
X99906200Y-76657900D03*
%TD*%
D14*
%TO.C,R22*%
X123985000Y-128642000D03*
X125455000Y-128642000D03*
%TD*%
D12*
%TO.C,R84*%
X224885000Y-92636500D03*
X226415000Y-92636500D03*
%TD*%
D16*
%TO.C,U2*%
X151386200Y-76295000D03*
X151386200Y-77565000D03*
X151386200Y-78835000D03*
X151386200Y-80105000D03*
X156313800Y-80105000D03*
X156313800Y-78835000D03*
X156313800Y-77565000D03*
X156313800Y-76295000D03*
%TD*%
D13*
%TO.C,Q22*%
X168092500Y-139850000D03*
X168092500Y-141750000D03*
X170602500Y-140800000D03*
%TD*%
D14*
%TO.C,R13*%
X137765000Y-82128100D03*
X139235000Y-82128100D03*
%TD*%
D17*
%TO.C,J5*%
X203875000Y-100310000D03*
D18*
X206375000Y-100310000D03*
X208875000Y-100310000D03*
%TD*%
D19*
%TO.C,C2*%
X159391201Y-80950000D03*
X160194399Y-80950000D03*
%TD*%
D20*
%TO.C,C5*%
X99376000Y-60925000D03*
X100936000Y-60925000D03*
%TD*%
D12*
%TO.C,R49*%
X94770000Y-85591400D03*
X96300000Y-85591400D03*
%TD*%
D21*
%TO.C,J1*%
X127845000Y-57370000D03*
D22*
X127845000Y-54830000D03*
X130385000Y-57370000D03*
X130385000Y-54830000D03*
X132925000Y-57370000D03*
X132925000Y-54830000D03*
X135465000Y-57370000D03*
X135465000Y-54830000D03*
%TD*%
D23*
%TO.C,U8*%
X144885000Y-60227000D03*
X162665000Y-67847000D03*
X144885000Y-62767000D03*
X162665000Y-65307000D03*
X162665000Y-60227000D03*
X162665000Y-62767000D03*
X144885000Y-70387000D03*
X144885000Y-67847000D03*
X144885000Y-65307000D03*
D24*
X144885000Y-57687000D03*
%TD*%
D13*
%TO.C,Q4*%
X205657500Y-93086100D03*
X205657500Y-94986100D03*
X208167500Y-94036100D03*
%TD*%
D11*
%TO.C,J18*%
X228220000Y-73830000D03*
D10*
X230760000Y-73830000D03*
X233300000Y-73830000D03*
X235840000Y-73830000D03*
X238380000Y-73830000D03*
X238380000Y-63670000D03*
X235840000Y-63670000D03*
X233300000Y-63670000D03*
X230760000Y-63670000D03*
X228220000Y-63670000D03*
%TD*%
D14*
%TO.C,R31*%
X103384900Y-107702500D03*
X104854900Y-107702500D03*
%TD*%
D12*
%TO.C,R46*%
X212595000Y-132355300D03*
X214125000Y-132355300D03*
%TD*%
D16*
%TO.C,U6*%
X114196100Y-129050000D03*
X114196100Y-130320000D03*
X114196100Y-131590000D03*
X114196100Y-132860000D03*
X114196100Y-134130000D03*
X114196100Y-135400000D03*
X114196100Y-136670000D03*
X119123700Y-136670000D03*
X119123700Y-135400000D03*
X119123700Y-134130000D03*
X119123700Y-132860000D03*
X119123700Y-131590000D03*
X119123700Y-130320000D03*
X119123700Y-129050000D03*
%TD*%
D14*
%TO.C,R16*%
X168285000Y-81878100D03*
X169755000Y-81878100D03*
%TD*%
D25*
%TO.C,D8*%
X205911750Y-123656100D03*
X207118250Y-123656100D03*
%TD*%
D12*
%TO.C,R61*%
X175240000Y-132355300D03*
X176770000Y-132355300D03*
%TD*%
D16*
%TO.C,U3*%
X114196100Y-81900000D03*
X114196100Y-83170000D03*
X114196100Y-84440000D03*
X114196100Y-85710000D03*
X114196100Y-86980000D03*
X114196100Y-88250000D03*
X114196100Y-89520000D03*
X119123700Y-89520000D03*
X119123700Y-88250000D03*
X119123700Y-86980000D03*
X119123700Y-85710000D03*
X119123700Y-84440000D03*
X119123700Y-83170000D03*
X119123700Y-81900000D03*
%TD*%
D17*
%TO.C,J4*%
X99443900Y-100310000D03*
D18*
X101943900Y-100310000D03*
X104443900Y-100310000D03*
%TD*%
D26*
%TO.C,R10*%
X205665000Y-136047700D03*
X207365000Y-136047700D03*
%TD*%
D13*
%TO.C,Q13*%
X181642500Y-93086100D03*
X181642500Y-94986100D03*
X184152500Y-94036100D03*
%TD*%
D21*
%TO.C,J8*%
X172055000Y-70450000D03*
D22*
X172055000Y-67910000D03*
X174595000Y-70450000D03*
X174595000Y-67910000D03*
X177135000Y-70450000D03*
X177135000Y-67910000D03*
X179675000Y-70450000D03*
X179675000Y-67910000D03*
%TD*%
D12*
%TO.C,R75*%
X124045000Y-85841400D03*
X125575000Y-85841400D03*
%TD*%
D13*
%TO.C,Q15*%
X212302500Y-93086100D03*
X212302500Y-94986100D03*
X214812500Y-94036100D03*
%TD*%
D21*
%TO.C,J15*%
X127845000Y-103680000D03*
D22*
X127845000Y-101140000D03*
X130385000Y-103680000D03*
X130385000Y-101140000D03*
X132925000Y-103680000D03*
X132925000Y-101140000D03*
X135465000Y-103680000D03*
X135465000Y-101140000D03*
%TD*%
D25*
%TO.C,D6*%
X130961750Y-123656100D03*
X132168250Y-123656100D03*
%TD*%
D14*
%TO.C,R26*%
X198935000Y-136026700D03*
X200405000Y-136026700D03*
%TD*%
D27*
%TO.C,MH2*%
X236800000Y-40050000D03*
%TD*%
D13*
%TO.C,Q14*%
X167952500Y-93086100D03*
X167952500Y-94986100D03*
X170462500Y-94036100D03*
%TD*%
D26*
%TO.C,R5*%
X175015000Y-81857100D03*
X176715000Y-81857100D03*
%TD*%
D12*
%TO.C,R54*%
X168255000Y-89283800D03*
X169785000Y-89283800D03*
%TD*%
%TO.C,R72*%
X123955000Y-136047700D03*
X125485000Y-136047700D03*
%TD*%
D25*
%TO.C,D4*%
X206021750Y-76657900D03*
X207228250Y-76657900D03*
%TD*%
D12*
%TO.C,R57*%
X198905000Y-128663000D03*
X200435000Y-128663000D03*
%TD*%
D15*
%TO.C,D15*%
X208973800Y-76657900D03*
X211073800Y-76657900D03*
%TD*%
D12*
%TO.C,R2*%
X159540000Y-76000000D03*
X161070000Y-76000000D03*
%TD*%
D21*
%TO.C,J11*%
X127845000Y-117727500D03*
D22*
X127845000Y-115187500D03*
X130385000Y-117727500D03*
X130385000Y-115187500D03*
X132925000Y-117727500D03*
X132925000Y-115187500D03*
X135465000Y-117727500D03*
X135465000Y-115187500D03*
%TD*%
D17*
%TO.C,J2*%
X99625000Y-54000000D03*
D18*
X102125000Y-54000000D03*
X104625000Y-54000000D03*
%TD*%
D14*
%TO.C,R19*%
X108042500Y-128642000D03*
X109512500Y-128642000D03*
%TD*%
D27*
%TO.C,MH4*%
X236800000Y-138350000D03*
%TD*%
D14*
%TO.C,R17*%
X212635000Y-81878100D03*
X214105000Y-81878100D03*
%TD*%
D20*
%TO.C,C6*%
X203626000Y-60925000D03*
X205186000Y-60925000D03*
%TD*%
D12*
%TO.C,R37*%
X181945000Y-85591400D03*
X183475000Y-85591400D03*
%TD*%
D15*
%TO.C,D14*%
X171826200Y-76657900D03*
X173926200Y-76657900D03*
%TD*%
D13*
%TO.C,Q11*%
X137432500Y-93336100D03*
X137432500Y-95236100D03*
X139942500Y-94286100D03*
%TD*%
D25*
%TO.C,D7*%
X175401750Y-123656300D03*
X176608250Y-123656300D03*
%TD*%
D12*
%TO.C,R50*%
X130800000Y-136047700D03*
X132330000Y-136047700D03*
%TD*%
D15*
%TO.C,D17*%
X104513800Y-123656100D03*
X106613800Y-123656100D03*
%TD*%
D14*
%TO.C,R14*%
X124075000Y-82128100D03*
X125545000Y-82128100D03*
%TD*%
D28*
%TO.C,R1*%
X159506000Y-78600000D03*
X161146000Y-78600000D03*
%TD*%
D13*
%TO.C,Q16*%
X198812500Y-93086100D03*
X198812500Y-94986100D03*
X201322500Y-94036100D03*
%TD*%
D12*
%TO.C,R42*%
X108012500Y-136047700D03*
X109542500Y-136047700D03*
%TD*%
D25*
%TO.C,D2*%
X131051750Y-76657900D03*
X132258250Y-76657900D03*
%TD*%
D21*
%TO.C,J16*%
X172305000Y-103680000D03*
D22*
X172305000Y-101140000D03*
X174845000Y-103680000D03*
X174845000Y-101140000D03*
X177385000Y-103680000D03*
X177385000Y-101140000D03*
X179925000Y-103680000D03*
X179925000Y-101140000D03*
%TD*%
D12*
%TO.C,R38*%
X108460000Y-89283800D03*
X109990000Y-89283800D03*
%TD*%
%TO.C,R77*%
X205750000Y-128663000D03*
X207280000Y-128663000D03*
%TD*%
D15*
%TO.C,D20*%
X127116200Y-123656100D03*
X129216200Y-123656100D03*
%TD*%
D12*
%TO.C,R52*%
X94770000Y-89283800D03*
X96300000Y-89283800D03*
%TD*%
D21*
%TO.C,J9*%
X202815000Y-70450000D03*
D22*
X202815000Y-67910000D03*
X205355000Y-70450000D03*
X205355000Y-67910000D03*
X207895000Y-70450000D03*
X207895000Y-67910000D03*
X210435000Y-70450000D03*
X210435000Y-67910000D03*
%TD*%
D12*
%TO.C,R76*%
X124045000Y-89533800D03*
X125575000Y-89533800D03*
%TD*%
D15*
%TO.C,D23*%
X208863800Y-123656100D03*
X210963800Y-123656100D03*
%TD*%
D13*
%TO.C,Q20*%
X123652500Y-139850000D03*
X123652500Y-141750000D03*
X126162500Y-140800000D03*
%TD*%
D26*
%TO.C,R7*%
X101082500Y-128663000D03*
X102782500Y-128663000D03*
%TD*%
D29*
%TO.C,R79*%
X221651500Y-95286500D03*
X223048500Y-95286500D03*
%TD*%
D13*
%TO.C,Q2*%
X130587500Y-93336100D03*
X130587500Y-95236100D03*
X133097500Y-94286100D03*
%TD*%
D27*
%TO.C,MH1*%
X71050000Y-40050000D03*
%TD*%
D30*
%TO.C,C3*%
X148712000Y-60250000D03*
X150007400Y-60250000D03*
%TD*%
D12*
%TO.C,R43*%
X212595000Y-128663000D03*
X214125000Y-128663000D03*
%TD*%
%TO.C,R59*%
X175100000Y-85591400D03*
X176630000Y-85591400D03*
%TD*%
D16*
%TO.C,U7*%
X188707300Y-129050000D03*
X188707300Y-130320000D03*
X188707300Y-131590000D03*
X188707300Y-132860000D03*
X188707300Y-134130000D03*
X188707300Y-135400000D03*
X188707300Y-136670000D03*
X193634900Y-136670000D03*
X193634900Y-135400000D03*
X193634900Y-134130000D03*
X193634900Y-132860000D03*
X193634900Y-131590000D03*
X193634900Y-130320000D03*
X193634900Y-129050000D03*
%TD*%
D21*
%TO.C,J13*%
X202705000Y-117727500D03*
D22*
X202705000Y-115187500D03*
X205245000Y-117727500D03*
X205245000Y-115187500D03*
X207785000Y-117727500D03*
X207785000Y-115187500D03*
X210325000Y-117727500D03*
X210325000Y-115187500D03*
%TD*%
D12*
%TO.C,R28*%
X148510000Y-66600000D03*
X150040000Y-66600000D03*
%TD*%
%TO.C,R80*%
X205960000Y-89283800D03*
X207490000Y-89283800D03*
%TD*%
D20*
%TO.C,C7*%
X98944900Y-107702500D03*
X100504900Y-107702500D03*
%TD*%
D14*
%TO.C,R15*%
X181975000Y-81878100D03*
X183445000Y-81878100D03*
%TD*%
D12*
%TO.C,R71*%
X123955000Y-132355300D03*
X125485000Y-132355300D03*
%TD*%
D13*
%TO.C,Q23*%
X212292500Y-139850000D03*
X212292500Y-141750000D03*
X214802500Y-140800000D03*
%TD*%
D21*
%TO.C,J10*%
X98355000Y-117727500D03*
D22*
X98355000Y-115187500D03*
X100895000Y-117727500D03*
X100895000Y-115187500D03*
X103435000Y-117727500D03*
X103435000Y-115187500D03*
X105975000Y-117727500D03*
X105975000Y-115187500D03*
%TD*%
D14*
%TO.C,R23*%
X182115000Y-128642000D03*
X183585000Y-128642000D03*
%TD*%
D25*
%TO.C,D1*%
X101651750Y-76750000D03*
X102858250Y-76750000D03*
%TD*%
D15*
%TO.C,D18*%
X97716200Y-123656100D03*
X99816200Y-123656100D03*
%TD*%
D12*
%TO.C,R39*%
X108012500Y-132355300D03*
X109542500Y-132355300D03*
%TD*%
D14*
%TO.C,R21*%
X137675000Y-128642000D03*
X139145000Y-128642000D03*
%TD*%
D12*
%TO.C,R41*%
X182085000Y-132355300D03*
X183615000Y-132355300D03*
%TD*%
%TO.C,R45*%
X130890000Y-85841400D03*
X132420000Y-85841400D03*
%TD*%
%TO.C,R60*%
X198905000Y-132355300D03*
X200435000Y-132355300D03*
%TD*%
%TO.C,R40*%
X181945000Y-89283800D03*
X183475000Y-89283800D03*
%TD*%
%TO.C,R73*%
X199115000Y-85591400D03*
X200645000Y-85591400D03*
%TD*%
D31*
%TO.C,C4*%
X154206200Y-74200000D03*
X152961600Y-74200000D03*
%TD*%
D25*
%TO.C,D3*%
X175671750Y-76658100D03*
X176878250Y-76658100D03*
%TD*%
D12*
%TO.C,R81*%
X101615000Y-85591400D03*
X103145000Y-85591400D03*
%TD*%
%TO.C,R69*%
X205960000Y-85591400D03*
X207490000Y-85591400D03*
%TD*%
D20*
%TO.C,C8*%
X203626000Y-107680500D03*
X205186000Y-107680500D03*
%TD*%
D15*
%TO.C,D9*%
X104603800Y-76657900D03*
X106703800Y-76657900D03*
%TD*%
D12*
%TO.C,R68*%
X212605000Y-89283800D03*
X214135000Y-89283800D03*
%TD*%
D15*
%TO.C,D11*%
X134003800Y-76657900D03*
X136103800Y-76657900D03*
%TD*%
%TO.C,D13*%
X178623800Y-76657900D03*
X180723800Y-76657900D03*
%TD*%
%TO.C,D16*%
X202176200Y-76657900D03*
X204276200Y-76657900D03*
%TD*%
D12*
%TO.C,R62*%
X175100000Y-89283800D03*
X176630000Y-89283800D03*
%TD*%
D15*
%TO.C,D19*%
X133913800Y-123656100D03*
X136013800Y-123656100D03*
%TD*%
D32*
%TO.C,U11*%
X228772050Y-86330800D03*
X228772050Y-87600800D03*
X228772050Y-88870800D03*
X228772050Y-90140800D03*
X228772050Y-91410800D03*
X228772050Y-92680800D03*
X228772050Y-93950800D03*
X228772050Y-95220800D03*
X228772050Y-96490800D03*
X228772050Y-97760800D03*
X228772050Y-99030800D03*
X228772050Y-100300800D03*
X238233550Y-100300800D03*
X238233550Y-99030800D03*
X238233550Y-97760800D03*
X238233550Y-96490800D03*
X238233550Y-95220800D03*
X238233550Y-93950800D03*
X238233550Y-92680800D03*
X238233550Y-91410800D03*
X238233550Y-90140800D03*
X238233550Y-88870800D03*
X238233550Y-87600800D03*
X238233550Y-86330800D03*
%TD*%
D13*
%TO.C,Q6*%
X130497500Y-139850000D03*
X130497500Y-141750000D03*
X133007500Y-140800000D03*
%TD*%
%TO.C,Q8*%
X205447500Y-139850000D03*
X205447500Y-141750000D03*
X207957500Y-140800000D03*
%TD*%
D14*
%TO.C,R24*%
X168425000Y-128642000D03*
X169895000Y-128642000D03*
%TD*%
D26*
%TO.C,R8*%
X130715000Y-128621000D03*
X132415000Y-128621000D03*
%TD*%
D14*
%TO.C,R30*%
X207566000Y-60925000D03*
X209036000Y-60925000D03*
%TD*%
D25*
%TO.C,D5*%
X101561750Y-123630200D03*
X102768250Y-123630200D03*
%TD*%
D12*
%TO.C,R66*%
X137735000Y-89533800D03*
X139265000Y-89533800D03*
%TD*%
%TO.C,R36*%
X108460000Y-85591400D03*
X109990000Y-85591400D03*
%TD*%
D13*
%TO.C,Q17*%
X107710000Y-139850000D03*
X107710000Y-141750000D03*
X110220000Y-140800000D03*
%TD*%
D14*
%TO.C,R12*%
X94736000Y-81878100D03*
X96206000Y-81878100D03*
%TD*%
D13*
%TO.C,Q7*%
X174937500Y-139850000D03*
X174937500Y-141750000D03*
X177447500Y-140800000D03*
%TD*%
%TO.C,Q19*%
X137342500Y-139850000D03*
X137342500Y-141750000D03*
X139852500Y-140800000D03*
%TD*%
D17*
%TO.C,J3*%
X203875000Y-54000000D03*
D18*
X206375000Y-54000000D03*
X208875000Y-54000000D03*
%TD*%
D33*
%TO.C,C9*%
X226450000Y-88941900D03*
X226450000Y-90186500D03*
%TD*%
D21*
%TO.C,J7*%
X127845000Y-70450000D03*
D22*
X127845000Y-67910000D03*
X130385000Y-70450000D03*
X130385000Y-67910000D03*
X132925000Y-70450000D03*
X132925000Y-67910000D03*
X135465000Y-70450000D03*
X135465000Y-67910000D03*
%TD*%
D12*
%TO.C,R35*%
X101167500Y-136047700D03*
X102697500Y-136047700D03*
%TD*%
D13*
%TO.C,Q24*%
X198602500Y-139850000D03*
X198602500Y-141750000D03*
X201112500Y-140800000D03*
%TD*%
D14*
%TO.C,R25*%
X212625000Y-136026700D03*
X214095000Y-136026700D03*
%TD*%
%TO.C,R18*%
X199145000Y-81878100D03*
X200615000Y-81878100D03*
%TD*%
D12*
%TO.C,R64*%
X175240000Y-136047700D03*
X176770000Y-136047700D03*
%TD*%
D15*
%TO.C,D24*%
X202066200Y-123656100D03*
X204166200Y-123656100D03*
%TD*%
D11*
%TO.C,J19*%
X70620000Y-121580000D03*
D10*
X73160000Y-121580000D03*
X75700000Y-121580000D03*
X78240000Y-121580000D03*
X80780000Y-121580000D03*
X80780000Y-111420000D03*
X78240000Y-111420000D03*
X75700000Y-111420000D03*
X73160000Y-111420000D03*
X70620000Y-111420000D03*
%TD*%
D34*
%TO.C,C10*%
X223800000Y-88966500D03*
X223800000Y-90261900D03*
%TD*%
D13*
%TO.C,Q1*%
X101312500Y-93086100D03*
X101312500Y-94986100D03*
X103822500Y-94036100D03*
%TD*%
%TO.C,Q10*%
X94467500Y-93086100D03*
X94467500Y-94986100D03*
X96977500Y-94036100D03*
%TD*%
D26*
%TO.C,R3*%
X101530000Y-81857100D03*
X103230000Y-81857100D03*
%TD*%
D13*
%TO.C,Q9*%
X108157500Y-93086100D03*
X108157500Y-94986100D03*
X110667500Y-94036100D03*
%TD*%
D12*
%TO.C,R34*%
X101615000Y-89283800D03*
X103145000Y-89283800D03*
%TD*%
D15*
%TO.C,D22*%
X171556200Y-123656100D03*
X173656200Y-123656100D03*
%TD*%
D14*
%TO.C,R29*%
X103316000Y-60925000D03*
X104786000Y-60925000D03*
%TD*%
D12*
%TO.C,R44*%
X182085000Y-136047700D03*
X183615000Y-136047700D03*
%TD*%
D34*
%TO.C,C1*%
X148056200Y-77395400D03*
X148056200Y-76100000D03*
%TD*%
D12*
%TO.C,R55*%
X168395000Y-136047700D03*
X169925000Y-136047700D03*
%TD*%
%TO.C,R70*%
X137645000Y-136047700D03*
X139175000Y-136047700D03*
%TD*%
%TO.C,R53*%
X94322500Y-132355300D03*
X95852500Y-132355300D03*
%TD*%
%TO.C,R48*%
X130890000Y-89533800D03*
X132420000Y-89533800D03*
%TD*%
D26*
%TO.C,R4*%
X130805000Y-82149100D03*
X132505000Y-82149100D03*
%TD*%
%TO.C,R6*%
X205875000Y-81899100D03*
X207575000Y-81899100D03*
%TD*%
D14*
%TO.C,R11*%
X108426000Y-81878100D03*
X109896000Y-81878100D03*
%TD*%
D12*
%TO.C,R67*%
X137645000Y-132355300D03*
X139175000Y-132355300D03*
%TD*%
%TO.C,R78*%
X205750000Y-132355300D03*
X207280000Y-132355300D03*
%TD*%
%TO.C,R58*%
X168395000Y-132355300D03*
X169925000Y-132355300D03*
%TD*%
D35*
%TO.C,U1*%
X161545000Y-143290000D03*
D22*
X161545000Y-140750000D03*
X161545000Y-138210000D03*
X161545000Y-135670000D03*
X161545000Y-133130000D03*
X161545000Y-130590000D03*
X161545000Y-128050000D03*
X161545000Y-125510000D03*
X161545000Y-122970000D03*
X161545000Y-120430000D03*
X161545000Y-117890000D03*
X161545000Y-115350000D03*
X161545000Y-112810000D03*
X161545000Y-110270000D03*
X161545000Y-107730000D03*
X161545000Y-105190000D03*
X161545000Y-102650000D03*
X161545000Y-100110000D03*
X161545000Y-97570000D03*
X161545000Y-95030000D03*
X161545000Y-92490000D03*
X161545000Y-89950000D03*
X161545000Y-87410000D03*
X161545000Y-84870000D03*
X146305000Y-84870000D03*
X146305000Y-87410000D03*
X146305000Y-89950000D03*
X146305000Y-92490000D03*
X146305000Y-95030000D03*
X146305000Y-97570000D03*
X146305000Y-100110000D03*
X146305000Y-102650000D03*
X146305000Y-105190000D03*
X146305000Y-107730000D03*
X146305000Y-110270000D03*
X146305000Y-112810000D03*
X146305000Y-115350000D03*
X146305000Y-117890000D03*
X146305000Y-120430000D03*
X146305000Y-122970000D03*
X146305000Y-125510000D03*
X146305000Y-128050000D03*
X146305000Y-130590000D03*
X146305000Y-133130000D03*
X146305000Y-135670000D03*
X146305000Y-138210000D03*
X146305000Y-140750000D03*
X146305000Y-143290000D03*
D10*
X148845000Y-140750000D03*
D22*
X159005000Y-97570000D03*
X156465000Y-97570000D03*
X153925000Y-97570000D03*
X151385000Y-97570000D03*
X148845000Y-97570000D03*
D36*
X158494200Y-136990800D03*
D10*
X158494200Y-134450800D03*
X158494200Y-131910800D03*
X158494200Y-129370800D03*
X158494200Y-126830800D03*
D37*
X148743400Y-130320000D03*
D38*
X150743400Y-130320000D03*
X152743400Y-130320000D03*
X152743400Y-128320000D03*
X150743400Y-128320000D03*
X148743400Y-128320000D03*
X152655000Y-142560000D03*
X155195000Y-142560000D03*
%TD*%
D26*
%TO.C,R9*%
X175155000Y-128663000D03*
X176855000Y-128663000D03*
%TD*%
D12*
%TO.C,R63*%
X137735000Y-85841400D03*
X139265000Y-85841400D03*
%TD*%
%TO.C,R33*%
X101167500Y-132355300D03*
X102697500Y-132355300D03*
%TD*%
D21*
%TO.C,J12*%
X172195000Y-117727500D03*
D22*
X172195000Y-115187500D03*
X174735000Y-117727500D03*
X174735000Y-115187500D03*
X177275000Y-117727500D03*
X177275000Y-115187500D03*
X179815000Y-117727500D03*
X179815000Y-115187500D03*
%TD*%
D11*
%TO.C,J20*%
X228220000Y-121580000D03*
D10*
X230760000Y-121580000D03*
X233300000Y-121580000D03*
X235840000Y-121580000D03*
X238380000Y-121580000D03*
X238380000Y-111420000D03*
X235840000Y-111420000D03*
X233300000Y-111420000D03*
X230760000Y-111420000D03*
X228220000Y-111420000D03*
%TD*%
D27*
%TO.C,MH3*%
X71050000Y-138350000D03*
%TD*%
D14*
%TO.C,R32*%
X207566000Y-107702500D03*
X209036000Y-107702500D03*
%TD*%
D12*
%TO.C,R56*%
X94322500Y-136047700D03*
X95852500Y-136047700D03*
%TD*%
D13*
%TO.C,Q12*%
X123742500Y-93336100D03*
X123742500Y-95236100D03*
X126252500Y-94286100D03*
%TD*%
%TO.C,Q5*%
X100865000Y-139850000D03*
X100865000Y-141750000D03*
X103375000Y-140800000D03*
%TD*%
D16*
%TO.C,U4*%
X188617300Y-81900000D03*
X188617300Y-83170000D03*
X188617300Y-84440000D03*
X188617300Y-85710000D03*
X188617300Y-86980000D03*
X188617300Y-88250000D03*
X188617300Y-89520000D03*
X193544900Y-89520000D03*
X193544900Y-88250000D03*
X193544900Y-86980000D03*
X193544900Y-85710000D03*
X193544900Y-84440000D03*
X193544900Y-83170000D03*
X193544900Y-81900000D03*
%TD*%
D12*
%TO.C,R74*%
X199115000Y-89283800D03*
X200645000Y-89283800D03*
%TD*%
%TO.C,R51*%
X168255000Y-85591400D03*
X169785000Y-85591400D03*
%TD*%
D29*
%TO.C,R82*%
X221701500Y-92686500D03*
X223098500Y-92686500D03*
%TD*%
D12*
%TO.C,R47*%
X130800000Y-132355300D03*
X132330000Y-132355300D03*
%TD*%
D13*
%TO.C,Q21*%
X181782500Y-139850000D03*
X181782500Y-141750000D03*
X184292500Y-140800000D03*
%TD*%
D15*
%TO.C,D12*%
X127206200Y-76657900D03*
X129306200Y-76657900D03*
%TD*%
D12*
%TO.C,R83*%
X224935000Y-95286500D03*
X226465000Y-95286500D03*
%TD*%
D21*
%TO.C,J6*%
X98445000Y-70450000D03*
D22*
X98445000Y-67910000D03*
X100985000Y-70450000D03*
X100985000Y-67910000D03*
X103525000Y-70450000D03*
X103525000Y-67910000D03*
X106065000Y-70450000D03*
X106065000Y-67910000D03*
%TD*%
D13*
%TO.C,Q3*%
X174797500Y-93086100D03*
X174797500Y-94986100D03*
X177307500Y-94036100D03*
%TD*%
D21*
%TO.C,J14*%
X172043500Y-57370000D03*
D22*
X172043500Y-54830000D03*
X174583500Y-57370000D03*
X174583500Y-54830000D03*
X177123500Y-57370000D03*
X177123500Y-54830000D03*
X179663500Y-57370000D03*
X179663500Y-54830000D03*
%TD*%
D15*
%TO.C,D21*%
X178353800Y-123656100D03*
X180453800Y-123656100D03*
%TD*%
M02*
