M48
; DRILL file {KiCad 9.0.6} date 2026-01-31T10:20:15-0800
; FORMAT={-:-/ absolute / inch / decimal}
; #@! TF.CreationDate,2026-01-31T10:20:15-08:00
; #@! TF.GenerationSoftware,Kicad,Pcbnew,9.0.6
; #@! TF.FileFunction,Plated,1,2,PTH
FMAT,2
INCH
; #@! TA.AperFunction,Plated,PTH,ViaDrill
T1C0.0118
; #@! TA.AperFunction,Plated,PTH,ComponentDrill
T2C0.0197
; #@! TA.AperFunction,Plated,PTH,ComponentDrill
T3C0.0374
; #@! TA.AperFunction,Plated,PTH,ComponentDrill
T4C0.0394
; #@! TA.AperFunction,Plated,PTH,ComponentDrill
T5C0.0433
; #@! TA.AperFunction,Plated,PTH,ComponentDrill
T6C0.1260
%
G90
G05
T1
X4.3179Y-3.6645
X4.5709Y-4.4679
X4.5734Y-4.5974
X4.8051Y-4.6535
X4.9894Y-4.601
X5.2916Y-4.5555
X5.3579Y-4.601
X5.3718Y-3.9164
X5.5152Y-4.4445
X5.5689Y-3.6075
X5.5827Y-4.5585
X5.5854Y-3.9531
X5.6157Y-3.5728
X5.624Y-4.1319
X5.6708Y-4.4093
X5.6877Y-3.9198
X5.7185Y-3.7301
X5.7218Y-3.766
X5.7598Y-4.1319
X5.7677Y-4.5555
X5.7698Y-3.924
X5.7756Y-3.9862
X5.812Y-4.3511
X5.8215Y-4.1988
X5.835Y-4.1241
X5.8626Y-3.9181
X5.8654Y-4.3776
X5.8776Y-3.6764
X5.9065Y-4.5984
X6.004Y-4.4445
X6.0399Y-3.5042
X6.0828Y-4.601
X6.1485Y-4.7967
X6.1575Y-4.3917
X6.2106Y-4.7362
X6.2185Y-4.4528
X6.2758Y-4.5824
X6.2856Y-4.6771
X6.2894Y-4.4705
X6.3773Y-4.6823
X6.4567Y-4.6673
X6.4841Y-4.5539
X6.5587Y-4.4455
X6.5748Y-4.6673
X6.6437Y-4.6673
X6.7638Y-4.6693
X6.7824Y-4.4261
X7.0177Y-3.4429
X7.0931Y-4.5438
X7.1024Y-3.4724
X7.2292Y-4.4304
X7.2657Y-3.5728
X7.2657Y-3.7441
X7.3465Y-3.5728
X7.3484Y-3.7441
T2
X6.9884Y-3.8224
X6.9884Y-3.8618
X6.9884Y-3.9012
X6.9884Y-3.9405
X6.9884Y-3.9799
X6.9884Y-4.0193
X6.9884Y-4.0586
X6.9884Y-4.098
T3
X4.1635Y-3.3849
X4.2619Y-3.3849
X4.3603Y-3.3849
X4.4587Y-3.3849
X4.5572Y-3.3849
X4.8031Y-3.3858
X4.9016Y-3.3858
X5.0Y-3.3858
X5.0984Y-3.3858
X5.1083Y-4.8022
X5.2067Y-4.8022
X5.3051Y-4.8022
X5.4035Y-4.8022
X5.6594Y-4.8022
X5.689Y-3.3858
X5.7579Y-4.8022
X5.7874Y-3.3858
X5.8563Y-4.8022
X5.8858Y-3.3858
X5.9547Y-4.8022
X6.1417Y-3.3858
X6.2106Y-4.8022
X6.2402Y-3.3858
X6.3091Y-4.8022
X6.3386Y-3.3858
X6.4075Y-4.8022
X6.5059Y-4.8022
X6.9291Y-3.3858
X7.0276Y-3.3858
X7.0276Y-4.8022
X7.126Y-3.3858
X7.126Y-4.8022
X7.2244Y-3.3858
X7.2244Y-4.8022
T4
X4.1634Y-4.8022
X4.2618Y-4.8022
X4.5177Y-4.8022
X4.6161Y-4.8022
X6.1695Y-3.7602
X6.1695Y-3.8602
X6.1695Y-3.9602
X6.1695Y-4.0602
X6.1695Y-4.1602
X6.2695Y-3.7602
X6.2695Y-3.8602
X6.2695Y-3.9602
X6.2695Y-4.0602
X6.2695Y-4.1602
X7.2195Y-3.9102
X7.2195Y-4.0102
T5
X5.9695Y-3.6602
X5.9695Y-3.7602
X5.9695Y-3.8602
X5.9695Y-3.9602
X5.9695Y-4.0602
X5.9695Y-4.1602
X5.9695Y-4.2602
X6.0695Y-3.6602
X6.0695Y-4.2602
X6.1695Y-3.6602
X6.1695Y-4.2602
X6.2695Y-3.6602
X6.2695Y-4.2602
X6.3695Y-3.6602
X6.3695Y-4.2602
X6.4695Y-3.6602
X6.4695Y-4.2602
X6.5695Y-3.6602
X6.5695Y-4.2602
X6.6695Y-3.6602
X6.6695Y-4.2602
X6.7695Y-3.6602
X6.7695Y-4.2602
X6.8695Y-3.6602
X6.8695Y-4.2602
X6.9695Y-3.6602
X6.9695Y-4.2602
X7.0695Y-3.6602
X7.0695Y-4.2602
X7.1695Y-3.6602
X7.1695Y-4.1602
X7.1695Y-4.2602
X7.2695Y-3.6602
X7.2695Y-4.2602
T6
X4.8622Y-4.8197
X5.3937Y-3.4055
X6.6339Y-3.4055
X6.7681Y-4.8228
M30
