M48
; DRILL file {KiCad 9.0.5} date 2025-12-05T21:51:27-0800
; FORMAT={-:-/ absolute / inch / decimal}
; #@! TF.CreationDate,2025-12-05T21:51:27-08:00
; #@! TF.GenerationSoftware,Kicad,Pcbnew,9.0.5
; #@! TF.FileFunction,Plated,1,2,PTH
FMAT,2
INCH
; #@! TA.AperFunction,Plated,PTH,ViaDrill
T1C0.0118
; #@! TA.AperFunction,Plated,PTH,ComponentDrill
T2C0.0197
; #@! TA.AperFunction,Plated,PTH,ComponentDrill
T3C0.0374
; #@! TA.AperFunction,Plated,PTH,ComponentDrill
T4C0.0394
; #@! TA.AperFunction,Plated,PTH,ComponentDrill
T5C0.0433
; #@! TA.AperFunction,Plated,PTH,ComponentDrill
T6C0.1260
%
G90
G05
T1
X4.2054Y-4.5087
X4.2208Y-3.2922
X4.2208Y-4.9111
X4.2717Y-3.6024
X4.5669Y-4.626
X4.5701Y-4.4365
X4.6642Y-4.5079
X5.1644Y-4.5554
X5.1686Y-4.6372
X5.2567Y-4.2445
X5.3513Y-4.5564
X5.3718Y-3.6529
X5.3718Y-4.3392
X5.4023Y-4.464
X5.4824Y-3.996
X5.5169Y-4.4827
X5.5475Y-4.623
X5.6084Y-4.1322
X5.6336Y-3.9739
X5.6373Y-3.9181
X5.6544Y-4.1432
X5.7087Y-4.3701
X5.7187Y-4.6187
X5.7539Y-4.1796
X5.805Y-3.9181
X5.8071Y-4.4742
X5.8736Y-3.8084
X5.8789Y-3.8724
X5.9Y-4.5564
X5.9Y-4.2539
X5.9055Y-4.3701
X5.9055Y-4.4742
X6.0393Y-4.7617
X6.0827Y-4.5276
X6.1443Y-4.8009
X6.17Y-3.2926
X6.2761Y-4.5078
X6.2795Y-4.6358
X6.2925Y-4.9111
X6.3112Y-4.4232
X6.3778Y-4.4197
X6.4076Y-3.7673
X6.4188Y-4.0042
X6.4336Y-4.5829
X6.6246Y-4.6885
X6.7119Y-4.6473
X6.8338Y-4.1443
X6.9291Y-4.3504
X7.0472Y-4.5866
X7.0866Y-4.5079
T2
X6.9884Y-3.8224
X6.9884Y-3.8618
X6.9884Y-3.9012
X6.9884Y-3.9405
X6.9884Y-3.9799
X6.9884Y-4.0193
X6.9884Y-4.0586
X6.9884Y-4.098
T3
X4.1635Y-3.3849
X4.2619Y-3.3849
X4.3603Y-3.3849
X4.4587Y-3.3849
X4.5572Y-3.3849
X4.8031Y-3.3858
X4.9016Y-3.3858
X5.0Y-3.3858
X5.0984Y-3.3858
X5.1083Y-4.8022
X5.2067Y-4.8022
X5.3051Y-4.8022
X5.4035Y-4.8022
X5.6594Y-4.8022
X5.689Y-3.3858
X5.7579Y-4.8022
X5.7874Y-3.3858
X5.8563Y-4.8022
X5.8858Y-3.3858
X5.9547Y-4.8022
X6.1417Y-3.3858
X6.2106Y-4.8022
X6.2402Y-3.3858
X6.3091Y-4.8022
X6.3386Y-3.3858
X6.4075Y-4.8022
X6.5059Y-4.8022
X6.9291Y-3.3858
X7.0276Y-3.3858
X7.0276Y-4.8022
X7.126Y-3.3858
X7.126Y-4.8022
X7.2244Y-3.3858
X7.2244Y-4.8022
T4
X4.1634Y-4.8022
X4.2618Y-4.8022
X4.5177Y-4.8022
X4.6161Y-4.8022
X6.1695Y-3.7602
X6.1695Y-3.8602
X6.1695Y-3.9602
X6.1695Y-4.0602
X6.1695Y-4.1602
X6.2695Y-3.7602
X6.2695Y-3.8602
X6.2695Y-3.9602
X6.2695Y-4.0602
X6.2695Y-4.1602
X7.2195Y-3.9102
X7.2195Y-4.0102
T5
X5.9695Y-3.6602
X5.9695Y-3.7602
X5.9695Y-3.8602
X5.9695Y-3.9602
X5.9695Y-4.0602
X5.9695Y-4.1602
X5.9695Y-4.2602
X6.0695Y-3.6602
X6.0695Y-4.2602
X6.1695Y-3.6602
X6.1695Y-4.2602
X6.2695Y-3.6602
X6.2695Y-4.2602
X6.3695Y-3.6602
X6.3695Y-4.2602
X6.4695Y-3.6602
X6.4695Y-4.2602
X6.5695Y-3.6602
X6.5695Y-4.2602
X6.6695Y-3.6602
X6.6695Y-4.2602
X6.7695Y-3.6602
X6.7695Y-4.2602
X6.8695Y-3.6602
X6.8695Y-4.2602
X6.9695Y-3.6602
X6.9695Y-4.2602
X7.0695Y-3.6602
X7.0695Y-4.2602
X7.1695Y-3.6602
X7.1695Y-4.1602
X7.1695Y-4.2602
X7.2695Y-3.6602
X7.2695Y-4.2602
T6
X4.8622Y-4.8197
X5.3937Y-3.4055
X6.6339Y-3.4055
X6.7681Y-4.8228
M30
