%TF.GenerationSoftware,KiCad,Pcbnew,9.0.6*%
%TF.CreationDate,2026-01-08T12:32:39-08:00*%
%TF.ProjectId,ArmRobotBoardTeensy,41726d52-6f62-46f7-9442-6f6172645465,rev?*%
%TF.SameCoordinates,Original*%
%TF.FileFunction,Copper,L2,Bot*%
%TF.FilePolarity,Positive*%
%FSLAX46Y46*%
G04 Gerber Fmt 4.6, Leading zero omitted, Abs format (unit mm)*
G04 Created by KiCad (PCBNEW 9.0.6) date 2026-01-08 12:32:39*
%MOMM*%
%LPD*%
G01*
G04 APERTURE LIST*
G04 Aperture macros list*
%AMRoundRect*
0 Rectangle with rounded corners*
0 $1 Rounding radius*
0 $2 $3 $4 $5 $6 $7 $8 $9 X,Y pos of 4 corners*
0 Add a 4 corners polygon primitive as box body*
4,1,4,$2,$3,$4,$5,$6,$7,$8,$9,$2,$3,0*
0 Add four circle primitives for the rounded corners*
1,1,$1+$1,$2,$3*
1,1,$1+$1,$4,$5*
1,1,$1+$1,$6,$7*
1,1,$1+$1,$8,$9*
0 Add four rect primitives between the rounded corners*
20,1,$1+$1,$2,$3,$4,$5,0*
20,1,$1+$1,$4,$5,$6,$7,0*
20,1,$1+$1,$6,$7,$8,$9,0*
20,1,$1+$1,$8,$9,$2,$3,0*%
G04 Aperture macros list end*
%TA.AperFunction,ComponentPad*%
%ADD10RoundRect,0.250000X-0.600000X-0.750000X0.600000X-0.750000X0.600000X0.750000X-0.600000X0.750000X0*%
%TD*%
%TA.AperFunction,ComponentPad*%
%ADD11O,1.700000X2.000000*%
%TD*%
%TA.AperFunction,ComponentPad*%
%ADD12RoundRect,0.250000X-0.600000X-0.725000X0.600000X-0.725000X0.600000X0.725000X-0.600000X0.725000X0*%
%TD*%
%TA.AperFunction,ComponentPad*%
%ADD13O,1.700000X1.950000*%
%TD*%
%TA.AperFunction,ComponentPad*%
%ADD14C,1.404000*%
%TD*%
%TA.AperFunction,ComponentPad*%
%ADD15C,1.304000*%
%TD*%
%TA.AperFunction,ComponentPad*%
%ADD16C,0.804000*%
%TD*%
%TA.AperFunction,ComponentPad*%
%ADD17C,5.700000*%
%TD*%
%TA.AperFunction,ViaPad*%
%ADD18C,0.600000*%
%TD*%
%TA.AperFunction,Conductor*%
%ADD19C,0.150000*%
%TD*%
G04 APERTURE END LIST*
D10*
%TO.P,J7,1,Pin_1*%
%TO.N,+3.3V*%
X114750000Y-121975000D03*
D11*
%TO.P,J7,2,Pin_2*%
%TO.N,/PWM1EN_LIMIT_KILL*%
X117250000Y-121975000D03*
%TD*%
D12*
%TO.P,J8,1,Pin_1*%
%TO.N,PWM1EN*%
X129750000Y-121975000D03*
D13*
%TO.P,J8,2,Pin_2*%
%TO.N,RPWM1*%
X132250000Y-121975000D03*
%TO.P,J8,3,Pin_3*%
%TO.N,LPWM1*%
X134750000Y-121975000D03*
%TO.P,J8,4,Pin_4*%
%TO.N,PWM1VT*%
X137250000Y-121975000D03*
%TD*%
D10*
%TO.P,J6,1,Pin_1*%
%TO.N,+3.3V*%
X105750000Y-121975000D03*
D11*
%TO.P,J6,2,Pin_2*%
%TO.N,/PWM1EN_LIMIT_KILL*%
X108250000Y-121975000D03*
%TD*%
D12*
%TO.P,J5,1,Pin_1*%
%TO.N,+3.3V*%
X176000000Y-86000000D03*
D13*
%TO.P,J5,2,Pin_2*%
%TO.N,GND*%
X178500000Y-86000000D03*
%TO.P,J5,3,Pin_3*%
%TO.N,SCL*%
X181000000Y-86000000D03*
%TO.P,J5,4,Pin_4*%
%TO.N,SDA*%
X183500000Y-86000000D03*
%TD*%
D12*
%TO.P,J11,1,Pin_1*%
%TO.N,SIG*%
X178500000Y-121975000D03*
D13*
%TO.P,J11,2,Pin_2*%
%TO.N,+3.3V*%
X181000000Y-121975000D03*
%TO.P,J11,3,Pin_3*%
%TO.N,GND*%
X183500000Y-121975000D03*
%TD*%
D12*
%TO.P,J9,1,Pin_1*%
%TO.N,PWM2EN*%
X143750000Y-121975000D03*
D13*
%TO.P,J9,2,Pin_2*%
%TO.N,RPWM2*%
X146250000Y-121975000D03*
%TO.P,J9,3,Pin_3*%
%TO.N,LPWM2*%
X148750000Y-121975000D03*
%TO.P,J9,4,Pin_4*%
%TO.N,PWM2VT*%
X151250000Y-121975000D03*
%TD*%
D12*
%TO.P,J10,1,Pin_1*%
%TO.N,PWM3EN*%
X157750000Y-121975000D03*
D13*
%TO.P,J10,2,Pin_2*%
%TO.N,RPWM3*%
X160250000Y-121975000D03*
%TO.P,J10,3,Pin_3*%
%TO.N,LPWM3*%
X162750000Y-121975000D03*
%TO.P,J10,4,Pin_4*%
%TO.N,PWM3VT*%
X165250000Y-121975000D03*
%TD*%
D12*
%TO.P,J3,1,Pin_1*%
%TO.N,+3.3V*%
X144500000Y-86000000D03*
D13*
%TO.P,J3,2,Pin_2*%
%TO.N,A0*%
X147000000Y-86000000D03*
%TO.P,J3,3,Pin_3*%
%TO.N,GND*%
X149500000Y-86000000D03*
%TD*%
D14*
%TO.P,U1,1,GND*%
%TO.N,GND*%
X184644300Y-92969400D03*
%TO.P,U1,2,0_RX1_CRX2_CS1*%
%TO.N,PWM1ENSIG*%
X182104300Y-92969400D03*
%TO.P,U1,3,1_TX1_CTX2_MISO1*%
%TO.N,RPWM1*%
X179564300Y-92969400D03*
%TO.P,U1,4,2_OUT2*%
%TO.N,A*%
X177024300Y-92969400D03*
%TO.P,U1,5,3_LRCLK2*%
%TO.N,LPWM1*%
X174484300Y-92969400D03*
%TO.P,U1,6,4_BCLK2*%
%TO.N,PWM2VT*%
X171944300Y-92969400D03*
%TO.P,U1,7,5_IN2*%
%TO.N,B*%
X169404300Y-92969400D03*
%TO.P,U1,8,6_OUT1D*%
%TO.N,PWM2EN*%
X166864300Y-92969400D03*
%TO.P,U1,9,7_RX2_OUT1A*%
%TO.N,RPWM2*%
X164324300Y-92969400D03*
%TO.P,U1,10,8_TX2_IN1*%
%TO.N,LPWM2*%
X161784300Y-92969400D03*
%TO.P,U1,11,9_OUT1C*%
%TO.N,SPIS*%
X159244300Y-92969400D03*
%TO.P,U1,12,10_CS_MQSR*%
%TO.N,CS*%
X156704300Y-92969400D03*
%TO.P,U1,13,11_MOSI_CTX1*%
%TO.N,unconnected-(U1-11_MOSI_CTX1-Pad13)*%
X154164300Y-92969400D03*
%TO.P,U1,14,12_MISO_MQSL*%
%TO.N,MISO*%
X151624300Y-92969400D03*
%TO.P,U1,15,VBAT*%
%TO.N,unconnected-(U1-VBAT-Pad15)*%
X151624300Y-95509400D03*
%TO.P,U1,16,3V3*%
%TO.N,+3.3V*%
X151624300Y-98049400D03*
%TO.P,U1,17,GND*%
%TO.N,unconnected-(U1-GND-Pad17)*%
X151624300Y-100589400D03*
%TO.P,U1,18,PROGRAM*%
%TO.N,unconnected-(U1-PROGRAM-Pad18)*%
X151624300Y-103129400D03*
%TO.P,U1,19,ON_OFF*%
%TO.N,unconnected-(U1-ON_OFF-Pad19)*%
X151624300Y-105669400D03*
%TO.P,U1,20,13_SCK_CRX1_LED*%
%TO.N,SCK*%
X151624300Y-108209400D03*
%TO.P,U1,21,14_A0_TX3_SPDIF_OUT*%
%TO.N,A0*%
X154164300Y-108209400D03*
%TO.P,U1,22,15_A1_RX3_SPDIF_IN*%
%TO.N,A1*%
X156704300Y-108209400D03*
%TO.P,U1,23,16_A2_RX4_SCL1*%
%TO.N,PWM1VT*%
X159244300Y-108209400D03*
%TO.P,U1,24,17_A3_TX4_SDA1*%
%TO.N,SIG*%
X161784300Y-108209400D03*
%TO.P,U1,25,18_A4_SDA0*%
%TO.N,SDA*%
X164324300Y-108209400D03*
%TO.P,U1,26,19_A5_SCL0*%
%TO.N,SCL*%
X166864300Y-108209400D03*
%TO.P,U1,27,20_A6_TX5_LRCLK1*%
%TO.N,PWM3VT*%
X169404300Y-108209400D03*
%TO.P,U1,28,21_A7_RX5_BCLK1*%
%TO.N,PWM3EN*%
X171944300Y-108209400D03*
%TO.P,U1,29,22_A8_CTX1*%
%TO.N,RPWM3*%
X174484300Y-108209400D03*
%TO.P,U1,30,23_A9_CRX1_MCLK1*%
%TO.N,LPWM3*%
X177024300Y-108209400D03*
%TO.P,U1,31,3V3*%
%TO.N,unconnected-(U1-3V3-Pad31)*%
X179564300Y-108209400D03*
%TO.P,U1,32,GND*%
%TO.N,unconnected-(U1-GND-Pad32)*%
X182104300Y-108209400D03*
%TO.P,U1,33,VIN*%
%TO.N,unconnected-(U1-VIN-Pad33)*%
X184644300Y-108209400D03*
%TO.P,U1,34,VUSB*%
%TO.N,unconnected-(U1-VUSB-Pad34)*%
X182104300Y-105669400D03*
D15*
%TO.P,U1,35,24_A10_TX6_SCL2*%
%TO.N,unconnected-(U1-24_A10_TX6_SCL2-Pad35)*%
X156704300Y-105669400D03*
%TO.P,U1,36,25_A11_RX6_SDA2*%
%TO.N,unconnected-(U1-25_A11_RX6_SDA2-Pad36)*%
X159244300Y-105669400D03*
%TO.P,U1,37,26_A12_MOSI1*%
%TO.N,unconnected-(U1-26_A12_MOSI1-Pad37)*%
X156704300Y-103129400D03*
%TO.P,U1,38,27_A13_SCK1*%
%TO.N,unconnected-(U1-27_A13_SCK1-Pad38)*%
X159244300Y-103129400D03*
%TO.P,U1,39,28_RX7*%
%TO.N,unconnected-(U1-28_RX7-Pad39)*%
X156704300Y-100589400D03*
%TO.P,U1,40,29_TX7*%
%TO.N,unconnected-(U1-29_TX7-Pad40)*%
X159244300Y-100589400D03*
%TO.P,U1,41,30_CRX3*%
%TO.N,unconnected-(U1-30_CRX3-Pad41)*%
X156704300Y-98049400D03*
%TO.P,U1,42,31_CTX3*%
%TO.N,unconnected-(U1-31_CTX3-Pad42)*%
X159244300Y-98049400D03*
%TO.P,U1,43,32_OUT1B*%
%TO.N,unconnected-(U1-32_OUT1B-Pad43)*%
X156704300Y-95509400D03*
%TO.P,U1,44,33_MCLK2*%
%TO.N,unconnected-(U1-33_MCLK2-Pad44)*%
X159244300Y-95509400D03*
D16*
%TO.P,U1,45,34_DAT1_MISO2*%
%TO.N,unconnected-(U1-34_DAT1_MISO2-Pad45)*%
X177505900Y-104089400D03*
%TO.P,U1,46,35_DAT0_MOSI2*%
%TO.N,unconnected-(U1-35_DAT0_MOSI2-Pad46)*%
X177505900Y-103089400D03*
%TO.P,U1,47,GND*%
%TO.N,unconnected-(U1-GND-Pad47)*%
X177505900Y-102089400D03*
%TO.P,U1,48,36_CLK_CS2*%
%TO.N,unconnected-(U1-36_CLK_CS2-Pad48)*%
X177505900Y-101089400D03*
%TO.P,U1,49,3V3*%
%TO.N,unconnected-(U1-3V3-Pad49)*%
X177505900Y-100089400D03*
%TO.P,U1,50,37_CMD_SCK2*%
%TO.N,unconnected-(U1-37_CMD_SCK2-Pad50)*%
X177505900Y-99089400D03*
%TO.P,U1,51,38_DAT3_RX5*%
%TO.N,unconnected-(U1-38_DAT3_RX5-Pad51)*%
X177505900Y-98089400D03*
%TO.P,U1,52,39_DAT2_TX5*%
%TO.N,unconnected-(U1-39_DAT2_TX5-Pad52)*%
X177505900Y-97089400D03*
D15*
%TO.P,U1,53,D-*%
%TO.N,unconnected-(U1-D--Pad53)*%
X183374300Y-101859400D03*
%TO.P,U1,54,D+*%
%TO.N,unconnected-(U1-D+-Pad54)*%
X183374300Y-99319400D03*
%TD*%
D17*
%TO.P,MH4,1,1*%
%TO.N,unconnected-(MH4-Pad1)*%
X171908500Y-122500000D03*
%TD*%
%TO.P,MH3,1,1*%
%TO.N,unconnected-(MH3-Pad1)*%
X123500000Y-122420000D03*
%TD*%
D12*
%TO.P,J1,1,Pin_1*%
%TO.N,+3.3V*%
X105752200Y-85977500D03*
D13*
%TO.P,J1,2,Pin_2*%
%TO.N,CS*%
X108252200Y-85977500D03*
%TO.P,J1,3,Pin_3*%
%TO.N,SCK*%
X110752200Y-85977500D03*
%TO.P,J1,4,Pin_4*%
%TO.N,MISO*%
X113252200Y-85977500D03*
%TO.P,J1,5,Pin_5*%
%TO.N,GND*%
X115752200Y-85977500D03*
%TD*%
D12*
%TO.P,J4,1,Pin_1*%
%TO.N,+3.3V*%
X156000000Y-86000000D03*
D13*
%TO.P,J4,2,Pin_2*%
%TO.N,A1*%
X158500000Y-86000000D03*
%TO.P,J4,3,Pin_3*%
%TO.N,GND*%
X161000000Y-86000000D03*
%TD*%
D12*
%TO.P,J2,1,Pin_1*%
%TO.N,+3.3V*%
X122000000Y-86000000D03*
D13*
%TO.P,J2,2,Pin_2*%
%TO.N,GND*%
X124500000Y-86000000D03*
%TO.P,J2,3,Pin_3*%
%TO.N,A*%
X127000000Y-86000000D03*
%TO.P,J2,4,Pin_4*%
%TO.N,B*%
X129500000Y-86000000D03*
%TD*%
D17*
%TO.P,MH1,1,1*%
%TO.N,unconnected-(MH1-Pad1)*%
X137000000Y-86500000D03*
%TD*%
%TO.P,MH2,1,1*%
%TO.N,unconnected-(MH2-Pad1)*%
X168500000Y-86500000D03*
%TD*%
D18*
%TO.N,+3.3V*%
X141451300Y-91630600D03*
X183622500Y-112531500D03*
%TO.N,A0*%
X153413700Y-89006100D03*
%TO.N,GND*%
X167000000Y-118550000D03*
X184550000Y-95100000D03*
X180165900Y-115411700D03*
X159404500Y-116392700D03*
X178250000Y-87450000D03*
X171800000Y-118600000D03*
X184550000Y-90750000D03*
X172274000Y-112422800D03*
X168750000Y-118550000D03*
X154502300Y-116864400D03*
X166590500Y-112914700D03*
X180400000Y-88200000D03*
X116100000Y-113483900D03*
X142850000Y-104950000D03*
X146499700Y-115709200D03*
X136090900Y-116864400D03*
X126730900Y-116864400D03*
X141801200Y-115784900D03*
X148909200Y-99518800D03*
X156400000Y-111550000D03*
X116164700Y-116773600D03*
X146300000Y-104950000D03*
X157950000Y-113100000D03*
X146700000Y-101250000D03*
X186650000Y-95100000D03*
X109673700Y-93078900D03*
X164694900Y-115670000D03*
X150024900Y-116798800D03*
X134407900Y-115709200D03*
X186600000Y-90750000D03*
X164000000Y-118550000D03*
X147866600Y-106650300D03*
%TO.N,LPWM1*%
X144468300Y-99562400D03*
%TO.N,PWM1VT*%
X156171800Y-121836700D03*
%TO.N,RPWM1*%
X136442500Y-99475400D03*
%TO.N,PWM2EN*%
X159653900Y-118797400D03*
%TO.N,RPWM2*%
X145334000Y-95657500D03*
%TO.N,PWM3EN*%
X159750000Y-113550000D03*
X157750000Y-120300000D03*
%TO.N,SIG*%
X161983200Y-118931400D03*
%TO.N,SCK*%
X142638700Y-90750200D03*
%TO.N,LPWM2A*%
X145250000Y-94743900D03*
X144037100Y-111995100D03*
%TO.N,RPWM1A*%
X140085700Y-112890700D03*
X141870300Y-100409900D03*
%TO.N,RPWM2A*%
X149290800Y-93380400D03*
X152502500Y-112889100D03*
%TO.N,LPWM1A*%
X148981700Y-111192200D03*
X146552100Y-99669600D03*
%TO.N,PWM1ENSIG*%
X148208100Y-104752800D03*
X147623800Y-110516800D03*
%TD*%
D19*
%TO.N,+3.3V*%
X185573000Y-110581000D02*
X183622500Y-112531500D01*
X144500000Y-86000000D02*
X141451300Y-89048700D01*
X177553400Y-84446600D02*
X183607700Y-84446600D01*
X185573000Y-86411900D02*
X185573000Y-110581000D01*
X181000000Y-121975000D02*
X182076700Y-121975000D01*
X176000000Y-86000000D02*
X177553400Y-84446600D01*
X155675000Y-86000000D02*
X152887000Y-88788000D01*
X182076700Y-120898300D02*
X182076700Y-121975000D01*
X152887000Y-96786700D02*
X151624300Y-98049400D01*
X141451300Y-89048700D02*
X141451300Y-91630600D01*
X105750000Y-121975000D02*
X105752200Y-121972800D01*
X105752200Y-121972800D02*
X105752200Y-85977500D01*
X183622500Y-112531500D02*
X183622500Y-119352500D01*
X156000000Y-86000000D02*
X155675000Y-86000000D01*
X183607700Y-84446600D02*
X185573000Y-86411900D01*
X183622500Y-119352500D02*
X182076700Y-120898300D01*
X152887000Y-88788000D02*
X152887000Y-96786700D01*
%TO.N,A0*%
X153194600Y-89225200D02*
X153194600Y-107239700D01*
X153194600Y-107239700D02*
X154164300Y-108209400D01*
X153413700Y-89006100D02*
X153194600Y-89225200D01*
%TO.N,A1*%
X158500000Y-87201700D02*
X157672700Y-88029000D01*
X157672700Y-107241000D02*
X156704300Y-108209400D01*
X158500000Y-86000000D02*
X158500000Y-87201700D01*
X157672700Y-88029000D02*
X157672700Y-107241000D01*
%TO.N,SDA*%
X183500000Y-86000000D02*
X182423300Y-86000000D01*
X182423300Y-85714400D02*
X182423300Y-86000000D01*
X178085600Y-84754700D02*
X181463600Y-84754700D01*
X173108100Y-99425600D02*
X173108100Y-91901600D01*
X177301000Y-87708700D02*
X177301000Y-85539300D01*
X177301000Y-85539300D02*
X178085600Y-84754700D01*
X173108100Y-91901600D02*
X177301000Y-87708700D01*
X181463600Y-84754700D02*
X182423300Y-85714400D01*
X164324300Y-108209400D02*
X173108100Y-99425600D01*
%TO.N,SCL*%
X166864300Y-108209400D02*
X175754400Y-99319300D01*
X179923300Y-87076700D02*
X179923300Y-86000000D01*
X175754400Y-99319300D02*
X175754400Y-91245600D01*
X175754400Y-91245600D02*
X179923300Y-87076700D01*
X181000000Y-86000000D02*
X179923300Y-86000000D01*
%TO.N,LPWM1*%
X135826700Y-121975000D02*
X135826700Y-120950400D01*
X135826700Y-120950400D02*
X144563800Y-112213300D01*
X144563800Y-112213300D02*
X144563800Y-99657900D01*
X134750000Y-121975000D02*
X135826700Y-121975000D01*
X144563800Y-99657900D02*
X144468300Y-99562400D01*
%TO.N,PWM1VT*%
X159244300Y-108209400D02*
X159244300Y-113321900D01*
X156171800Y-116394400D02*
X156171800Y-121836700D01*
X159244300Y-113321900D02*
X156171800Y-116394400D01*
%TO.N,RPWM1*%
X136442500Y-99475400D02*
X133326700Y-102591200D01*
X132250000Y-121975000D02*
X133326700Y-121975000D01*
X133326700Y-102591200D02*
X133326700Y-121975000D01*
%TO.N,PWM2EN*%
X166864300Y-99861900D02*
X160324200Y-106402000D01*
X166864300Y-92969400D02*
X166864300Y-99861900D01*
X160324200Y-118127100D02*
X159653900Y-118797400D01*
X160324200Y-106402000D02*
X160324200Y-118127100D01*
%TO.N,LPWM2*%
X148750000Y-121975000D02*
X148750000Y-120773300D01*
X159212000Y-107021100D02*
X159093000Y-107021100D01*
X161784300Y-92969400D02*
X161784300Y-104448800D01*
X161784300Y-104448800D02*
X159212000Y-107021100D01*
X157633000Y-108481100D02*
X157633000Y-111890300D01*
X159093000Y-107021100D02*
X157633000Y-108481100D01*
X157633000Y-111890300D02*
X148750000Y-120773300D01*
%TO.N,PWM2VT*%
X159103800Y-121045700D02*
X159103800Y-122698100D01*
X159103800Y-122698100D02*
X158621900Y-123180000D01*
X160806500Y-119343000D02*
X159103800Y-121045700D01*
X160806500Y-106713300D02*
X160806500Y-119343000D01*
X171944300Y-95575500D02*
X160806500Y-106713300D01*
X153531700Y-123180000D02*
X152326700Y-121975000D01*
X171944300Y-92969400D02*
X171944300Y-95575500D01*
X151250000Y-121975000D02*
X152326700Y-121975000D01*
X158621900Y-123180000D02*
X153531700Y-123180000D01*
%TO.N,RPWM2*%
X145173300Y-95818200D02*
X145173300Y-121975000D01*
X146250000Y-121975000D02*
X145173300Y-121975000D01*
X145334000Y-95657500D02*
X145173300Y-95818200D01*
%TO.N,LPWM3*%
X182489000Y-93898100D02*
X183033000Y-93354100D01*
X181175600Y-101381300D02*
X175885600Y-106671300D01*
X181175600Y-92584800D02*
X181175600Y-101381300D01*
X177024300Y-108209400D02*
X182488900Y-102744800D01*
X183033000Y-93354100D02*
X183033000Y-92584700D01*
X182488900Y-102744800D02*
X182488900Y-93898100D01*
X181719700Y-92040700D02*
X181175600Y-92584800D01*
X169569000Y-106671300D02*
X168134400Y-108105900D01*
X182488900Y-93898100D02*
X182489000Y-93898100D01*
X168134400Y-108105900D02*
X168134400Y-108380600D01*
X182489000Y-92040700D02*
X181719700Y-92040700D01*
X168134400Y-108380600D02*
X162750000Y-113765000D01*
X162750000Y-113765000D02*
X162750000Y-121975000D01*
X183033000Y-92584700D02*
X182489000Y-92040700D01*
X175885600Y-106671300D02*
X169569000Y-106671300D01*
%TO.N,PWM3EN*%
X157750000Y-115306123D02*
X159532123Y-113524000D01*
X159532123Y-113524000D02*
X159967877Y-113524000D01*
X157750000Y-120300000D02*
X157750000Y-115306123D01*
%TO.N,RPWM3*%
X161326700Y-121975000D02*
X161326700Y-122244200D01*
X165724400Y-123204500D02*
X174484300Y-114444600D01*
X161326700Y-122244200D02*
X162287000Y-123204500D01*
X160250000Y-121975000D02*
X161326700Y-121975000D01*
X162287000Y-123204500D02*
X165724400Y-123204500D01*
X174484300Y-114444600D02*
X174484300Y-108209400D01*
%TO.N,PWM3VT*%
X165250000Y-121975000D02*
X165250000Y-112363700D01*
X165250000Y-112363700D02*
X169404300Y-108209400D01*
%TO.N,SIG*%
X161983200Y-108408300D02*
X161784300Y-108209400D01*
X161983200Y-118931400D02*
X161983200Y-108408300D01*
%TO.N,SCK*%
X150215600Y-98327100D02*
X150215600Y-106800700D01*
X142638700Y-90750200D02*
X150215600Y-98327100D01*
X150215600Y-106800700D02*
X151624300Y-108209400D01*
%TO.N,LPWM2A*%
X145250000Y-94743900D02*
X143876100Y-96117800D01*
X143876100Y-111834100D02*
X144037100Y-111995100D01*
X143876100Y-96117800D02*
X143876100Y-111834100D01*
%TO.N,RPWM1A*%
X141870300Y-100409900D02*
X140085700Y-102194500D01*
X140085700Y-102194500D02*
X140085700Y-112890700D01*
%TO.N,RPWM2A*%
X151432400Y-101753100D02*
X150545600Y-100866300D01*
X152596000Y-112795600D02*
X152596000Y-102747700D01*
X152596000Y-102747700D02*
X151601400Y-101753100D01*
X150545600Y-100866300D02*
X150545600Y-94635200D01*
X152502500Y-112889100D02*
X152596000Y-112795600D01*
X151601400Y-101753100D02*
X151432400Y-101753100D01*
X150545600Y-94635200D02*
X149290800Y-93380400D01*
%TO.N,LPWM1A*%
X148981700Y-111192200D02*
X148981700Y-102099200D01*
X148981700Y-102099200D02*
X146552100Y-99669600D01*
%TO.N,PWM1ENSIG*%
X148400600Y-109740000D02*
X148400600Y-104945300D01*
X147623800Y-110516800D02*
X148400600Y-109740000D01*
X148400600Y-104945300D02*
X148208100Y-104752800D01*
%TD*%
%TA.AperFunction,Conductor*%
%TO.N,GND*%
G36*
X158413703Y-109079840D02*
G01*
X158420181Y-109085872D01*
X158460924Y-109126615D01*
X158614053Y-109237870D01*
X158614055Y-109237871D01*
X158617686Y-109240509D01*
X158660351Y-109295839D01*
X158668800Y-109340827D01*
X158668800Y-113032157D01*
X158649115Y-113099196D01*
X158632481Y-113119838D01*
X155800993Y-115951325D01*
X155800994Y-115951326D01*
X155711285Y-116041035D01*
X155635519Y-116172263D01*
X155596300Y-116318634D01*
X155596300Y-121228759D01*
X155576615Y-121295798D01*
X155559981Y-121316440D01*
X155550013Y-121326407D01*
X155550010Y-121326411D01*
X155462409Y-121457514D01*
X155462402Y-121457527D01*
X155402064Y-121603198D01*
X155402061Y-121603210D01*
X155371300Y-121757853D01*
X155371300Y-121915546D01*
X155402061Y-122070189D01*
X155402064Y-122070201D01*
X155462402Y-122215872D01*
X155462409Y-122215885D01*
X155550010Y-122346988D01*
X155550013Y-122346992D01*
X155595840Y-122392819D01*
X155629325Y-122454142D01*
X155624341Y-122523834D01*
X155582469Y-122579767D01*
X155517005Y-122604184D01*
X155508159Y-122604500D01*
X153821442Y-122604500D01*
X153754403Y-122584815D01*
X153733761Y-122568181D01*
X152680067Y-121514487D01*
X152680065Y-121514485D01*
X152574707Y-121453656D01*
X152526492Y-121403090D01*
X152518779Y-121384592D01*
X152501557Y-121331588D01*
X152405051Y-121142184D01*
X152405049Y-121142181D01*
X152405048Y-121142179D01*
X152280109Y-120970213D01*
X152129786Y-120819890D01*
X151957820Y-120694951D01*
X151768414Y-120598444D01*
X151768413Y-120598443D01*
X151768412Y-120598443D01*
X151566243Y-120532754D01*
X151566241Y-120532753D01*
X151566240Y-120532753D01*
X151370240Y-120501710D01*
X151356287Y-120499500D01*
X151143713Y-120499500D01*
X151129760Y-120501710D01*
X150933760Y-120532753D01*
X150731585Y-120598444D01*
X150542179Y-120694951D01*
X150370213Y-120819890D01*
X150219894Y-120970209D01*
X150219890Y-120970214D01*
X150100318Y-121134793D01*
X150044989Y-121177459D01*
X149975375Y-121183438D01*
X149913580Y-121150833D01*
X149899682Y-121134793D01*
X149780109Y-120970214D01*
X149780105Y-120970209D01*
X149661218Y-120851322D01*
X149627733Y-120789999D01*
X149632717Y-120720307D01*
X149661216Y-120675962D01*
X158093515Y-112243665D01*
X158169281Y-112112435D01*
X158208500Y-111966067D01*
X158208500Y-111814534D01*
X158208500Y-109173553D01*
X158228185Y-109106514D01*
X158280989Y-109060759D01*
X158350147Y-109050815D01*
X158413703Y-109079840D01*
G37*
%TD.AperFunction*%
%TA.AperFunction,Conductor*%
G36*
X173269012Y-108482108D02*
G01*
X173320487Y-108529352D01*
X173332231Y-108555067D01*
X173369900Y-108671000D01*
X173455830Y-108839647D01*
X173567085Y-108992776D01*
X173700924Y-109126615D01*
X173854053Y-109237870D01*
X173854055Y-109237871D01*
X173857686Y-109240509D01*
X173900351Y-109295839D01*
X173908800Y-109340827D01*
X173908800Y-114154857D01*
X173889115Y-114221896D01*
X173872481Y-114242538D01*
X166713765Y-121401253D01*
X166652442Y-121434738D01*
X166582750Y-121429754D01*
X166526817Y-121387882D01*
X166508153Y-121351889D01*
X166501557Y-121331588D01*
X166405051Y-121142184D01*
X166405049Y-121142181D01*
X166405048Y-121142179D01*
X166280109Y-120970213D01*
X166129786Y-120819890D01*
X165957817Y-120694949D01*
X165893204Y-120662026D01*
X165842408Y-120614051D01*
X165825500Y-120551542D01*
X165825500Y-112653441D01*
X165845185Y-112586402D01*
X165861814Y-112565765D01*
X169011201Y-109416377D01*
X169072522Y-109382894D01*
X169118278Y-109381587D01*
X169122711Y-109382289D01*
X169122714Y-109382290D01*
X169309661Y-109411900D01*
X169309662Y-109411900D01*
X169498938Y-109411900D01*
X169498939Y-109411900D01*
X169685886Y-109382290D01*
X169865900Y-109323800D01*
X170034547Y-109237870D01*
X170187676Y-109126615D01*
X170321515Y-108992776D01*
X170432770Y-108839647D01*
X170518700Y-108671000D01*
X170556369Y-108555067D01*
X170595807Y-108497391D01*
X170660165Y-108470193D01*
X170729012Y-108482108D01*
X170780487Y-108529352D01*
X170792231Y-108555067D01*
X170829900Y-108671000D01*
X170915830Y-108839647D01*
X171027085Y-108992776D01*
X171160924Y-109126615D01*
X171314053Y-109237870D01*
X171368800Y-109265765D01*
X171482695Y-109323798D01*
X171482697Y-109323798D01*
X171482700Y-109323800D01*
X171535104Y-109340827D01*
X171662713Y-109382290D01*
X171734494Y-109393659D01*
X171849661Y-109411900D01*
X171849662Y-109411900D01*
X172038938Y-109411900D01*
X172038939Y-109411900D01*
X172225886Y-109382290D01*
X172405900Y-109323800D01*
X172574547Y-109237870D01*
X172727676Y-109126615D01*
X172861515Y-108992776D01*
X172972770Y-108839647D01*
X173058700Y-108671000D01*
X173096369Y-108555067D01*
X173135807Y-108497391D01*
X173200165Y-108470193D01*
X173269012Y-108482108D01*
G37*
%TD.AperFunction*%
%TA.AperFunction,Conductor*%
G36*
X145954003Y-100204028D02*
G01*
X145960481Y-100210060D01*
X146041807Y-100291386D01*
X146041811Y-100291389D01*
X146172914Y-100378990D01*
X146172927Y-100378997D01*
X146297312Y-100430518D01*
X146318603Y-100439337D01*
X146473253Y-100470099D01*
X146473256Y-100470100D01*
X146473258Y-100470100D01*
X146487358Y-100470100D01*
X146554397Y-100489785D01*
X146575039Y-100506419D01*
X148369881Y-102301260D01*
X148403366Y-102362583D01*
X148406200Y-102388941D01*
X148406200Y-103828300D01*
X148386515Y-103895339D01*
X148333711Y-103941094D01*
X148282200Y-103952300D01*
X148129255Y-103952300D01*
X147974610Y-103983061D01*
X147974598Y-103983064D01*
X147828927Y-104043402D01*
X147828914Y-104043409D01*
X147697811Y-104131010D01*
X147697807Y-104131013D01*
X147586313Y-104242507D01*
X147586310Y-104242511D01*
X147498709Y-104373614D01*
X147498702Y-104373627D01*
X147438364Y-104519298D01*
X147438361Y-104519310D01*
X147407600Y-104673953D01*
X147407600Y-104831646D01*
X147438361Y-104986289D01*
X147438364Y-104986301D01*
X147498702Y-105131972D01*
X147498709Y-105131985D01*
X147586310Y-105263088D01*
X147586313Y-105263092D01*
X147697806Y-105374585D01*
X147697809Y-105374587D01*
X147697811Y-105374589D01*
X147769991Y-105422818D01*
X147814795Y-105476428D01*
X147825100Y-105525919D01*
X147825100Y-109450258D01*
X147816455Y-109479698D01*
X147809932Y-109509685D01*
X147806177Y-109514700D01*
X147805415Y-109517297D01*
X147788781Y-109537939D01*
X147646739Y-109679981D01*
X147585416Y-109713466D01*
X147559058Y-109716300D01*
X147544955Y-109716300D01*
X147390310Y-109747061D01*
X147390298Y-109747064D01*
X147244627Y-109807402D01*
X147244614Y-109807409D01*
X147113511Y-109895010D01*
X147113507Y-109895013D01*
X147002013Y-110006507D01*
X147002010Y-110006511D01*
X146914409Y-110137614D01*
X146914402Y-110137627D01*
X146854064Y-110283298D01*
X146854061Y-110283310D01*
X146823300Y-110437953D01*
X146823300Y-110595646D01*
X146854061Y-110750289D01*
X146854064Y-110750301D01*
X146914402Y-110895972D01*
X146914409Y-110895985D01*
X147002010Y-111027088D01*
X147002013Y-111027092D01*
X147113507Y-111138586D01*
X147113511Y-111138589D01*
X147244614Y-111226190D01*
X147244627Y-111226197D01*
X147352894Y-111271042D01*
X147390303Y-111286537D01*
X147499989Y-111308355D01*
X147544953Y-111317299D01*
X147544956Y-111317300D01*
X147544958Y-111317300D01*
X147702644Y-111317300D01*
X147702645Y-111317299D01*
X147857297Y-111286537D01*
X148002979Y-111226194D01*
X148002984Y-111226190D01*
X148008354Y-111223321D01*
X148009728Y-111225892D01*
X148064347Y-111208575D01*
X148131793Y-111226819D01*
X148178669Y-111278631D01*
X148188621Y-111308355D01*
X148211961Y-111425691D01*
X148211964Y-111425701D01*
X148272302Y-111571372D01*
X148272309Y-111571385D01*
X148359910Y-111702488D01*
X148359913Y-111702492D01*
X148471407Y-111813986D01*
X148471411Y-111813989D01*
X148602514Y-111901590D01*
X148602527Y-111901597D01*
X148748198Y-111961935D01*
X148748203Y-111961937D01*
X148902853Y-111992699D01*
X148902856Y-111992700D01*
X148902858Y-111992700D01*
X149060544Y-111992700D01*
X149060545Y-111992699D01*
X149215197Y-111961937D01*
X149360879Y-111901594D01*
X149491989Y-111813989D01*
X149603489Y-111702489D01*
X149691094Y-111571379D01*
X149751437Y-111425697D01*
X149782200Y-111271042D01*
X149782200Y-111113358D01*
X149782200Y-111113355D01*
X149782199Y-111113353D01*
X149776767Y-111086045D01*
X149751437Y-110958703D01*
X149691094Y-110813021D01*
X149691093Y-110813019D01*
X149691090Y-110813014D01*
X149603489Y-110681911D01*
X149603486Y-110681907D01*
X149593519Y-110671940D01*
X149560034Y-110610617D01*
X149557200Y-110584259D01*
X149557200Y-107255542D01*
X149576885Y-107188503D01*
X149629689Y-107142748D01*
X149698847Y-107132804D01*
X149762403Y-107161829D01*
X149768881Y-107167861D01*
X150417320Y-107816300D01*
X150450805Y-107877623D01*
X150452112Y-107923379D01*
X150421800Y-108114761D01*
X150421800Y-108304038D01*
X150451409Y-108490986D01*
X150509901Y-108671004D01*
X150588500Y-108825261D01*
X150595830Y-108839647D01*
X150707085Y-108992776D01*
X150840924Y-109126615D01*
X150994053Y-109237870D01*
X151048800Y-109265765D01*
X151162695Y-109323798D01*
X151162697Y-109323798D01*
X151162700Y-109323800D01*
X151215104Y-109340827D01*
X151342713Y-109382290D01*
X151414494Y-109393659D01*
X151529661Y-109411900D01*
X151529662Y-109411900D01*
X151718938Y-109411900D01*
X151718939Y-109411900D01*
X151877102Y-109386849D01*
X151946395Y-109395803D01*
X151999847Y-109440800D01*
X152020487Y-109507551D01*
X152020500Y-109509322D01*
X152020500Y-112187659D01*
X152000815Y-112254698D01*
X151984181Y-112275340D01*
X151880713Y-112378807D01*
X151880710Y-112378811D01*
X151793109Y-112509914D01*
X151793102Y-112509927D01*
X151732764Y-112655598D01*
X151732761Y-112655610D01*
X151702000Y-112810253D01*
X151702000Y-112967946D01*
X151732761Y-113122589D01*
X151732764Y-113122601D01*
X151793102Y-113268272D01*
X151793109Y-113268285D01*
X151880710Y-113399388D01*
X151880713Y-113399392D01*
X151992207Y-113510886D01*
X151992211Y-113510889D01*
X152123314Y-113598490D01*
X152123327Y-113598497D01*
X152268998Y-113658835D01*
X152269003Y-113658837D01*
X152423653Y-113689599D01*
X152423656Y-113689600D01*
X152423658Y-113689600D01*
X152581344Y-113689600D01*
X152581345Y-113689599D01*
X152735997Y-113658837D01*
X152881679Y-113598494D01*
X153012789Y-113510889D01*
X153124289Y-113399389D01*
X153211894Y-113268279D01*
X153272237Y-113122597D01*
X153303000Y-112967942D01*
X153303000Y-112810258D01*
X153303000Y-112810255D01*
X153302999Y-112810253D01*
X153293995Y-112764989D01*
X153272237Y-112655603D01*
X153271730Y-112654380D01*
X153211895Y-112509922D01*
X153211893Y-112509919D01*
X153192398Y-112480742D01*
X153171520Y-112414065D01*
X153171500Y-112411852D01*
X153171500Y-109216553D01*
X153191185Y-109149514D01*
X153243989Y-109103759D01*
X153313147Y-109093815D01*
X153376703Y-109122840D01*
X153378901Y-109124887D01*
X153380915Y-109126606D01*
X153380924Y-109126615D01*
X153534053Y-109237870D01*
X153588800Y-109265765D01*
X153702695Y-109323798D01*
X153702697Y-109323798D01*
X153702700Y-109323800D01*
X153755104Y-109340827D01*
X153882713Y-109382290D01*
X153954494Y-109393659D01*
X154069661Y-109411900D01*
X154069662Y-109411900D01*
X154258938Y-109411900D01*
X154258939Y-109411900D01*
X154445886Y-109382290D01*
X154625900Y-109323800D01*
X154794547Y-109237870D01*
X154947676Y-109126615D01*
X155081515Y-108992776D01*
X155192770Y-108839647D01*
X155278700Y-108671000D01*
X155316369Y-108555067D01*
X155355807Y-108497391D01*
X155420165Y-108470193D01*
X155489012Y-108482108D01*
X155540487Y-108529352D01*
X155552231Y-108555067D01*
X155589900Y-108671000D01*
X155675830Y-108839647D01*
X155787085Y-108992776D01*
X155920924Y-109126615D01*
X156074053Y-109237870D01*
X156128800Y-109265765D01*
X156242695Y-109323798D01*
X156242697Y-109323798D01*
X156242700Y-109323800D01*
X156295104Y-109340827D01*
X156422713Y-109382290D01*
X156494494Y-109393659D01*
X156609661Y-109411900D01*
X156609662Y-109411900D01*
X156798937Y-109411900D01*
X156798939Y-109411900D01*
X156914103Y-109393659D01*
X156983395Y-109402613D01*
X157036847Y-109447609D01*
X157057487Y-109514361D01*
X157057500Y-109516132D01*
X157057500Y-111600558D01*
X157037815Y-111667597D01*
X157021181Y-111688239D01*
X148289487Y-120419932D01*
X148289485Y-120419935D01*
X148213718Y-120551165D01*
X148213718Y-120551166D01*
X148210509Y-120563141D01*
X148174141Y-120622799D01*
X148147032Y-120641524D01*
X148042182Y-120694949D01*
X147870213Y-120819890D01*
X147719894Y-120970209D01*
X147719890Y-120970214D01*
X147600318Y-121134793D01*
X147544989Y-121177459D01*
X147475375Y-121183438D01*
X147413580Y-121150833D01*
X147399682Y-121134793D01*
X147280109Y-120970214D01*
X147280105Y-120970209D01*
X147129786Y-120819890D01*
X146957820Y-120694951D01*
X146768414Y-120598444D01*
X146768413Y-120598443D01*
X146768412Y-120598443D01*
X146566243Y-120532754D01*
X146566241Y-120532753D01*
X146566240Y-120532753D01*
X146370240Y-120501710D01*
X146356287Y-120499500D01*
X146143713Y-120499500D01*
X146124387Y-120502561D01*
X145933755Y-120532754D01*
X145933748Y-120532755D01*
X145911117Y-120540109D01*
X145841276Y-120542104D01*
X145781444Y-120506023D01*
X145750616Y-120443322D01*
X145748800Y-120422178D01*
X145748800Y-100297741D01*
X145768485Y-100230702D01*
X145821289Y-100184947D01*
X145890447Y-100175003D01*
X145954003Y-100204028D01*
G37*
%TD.AperFunction*%
%TA.AperFunction,Conductor*%
G36*
X164593834Y-112837560D02*
G01*
X164649767Y-112879432D01*
X164674184Y-112944896D01*
X164674500Y-112953742D01*
X164674500Y-120551542D01*
X164654815Y-120618581D01*
X164606796Y-120662026D01*
X164542182Y-120694949D01*
X164370213Y-120819890D01*
X164219894Y-120970209D01*
X164219890Y-120970214D01*
X164100318Y-121134793D01*
X164044989Y-121177459D01*
X163975375Y-121183438D01*
X163913580Y-121150833D01*
X163899682Y-121134793D01*
X163780109Y-120970214D01*
X163780105Y-120970209D01*
X163629786Y-120819890D01*
X163457817Y-120694949D01*
X163393204Y-120662026D01*
X163342408Y-120614051D01*
X163325500Y-120551542D01*
X163325500Y-114054742D01*
X163345185Y-113987703D01*
X163361819Y-113967061D01*
X164462819Y-112866061D01*
X164524142Y-112832576D01*
X164593834Y-112837560D01*
G37*
%TD.AperFunction*%
%TA.AperFunction,Conductor*%
G36*
X159648891Y-114346071D02*
G01*
X159710802Y-114378456D01*
X159745376Y-114439172D01*
X159748700Y-114467688D01*
X159748700Y-117837358D01*
X159740055Y-117866798D01*
X159733532Y-117896785D01*
X159729777Y-117901800D01*
X159729015Y-117904397D01*
X159712381Y-117925039D01*
X159676839Y-117960581D01*
X159615516Y-117994066D01*
X159589158Y-117996900D01*
X159575055Y-117996900D01*
X159420410Y-118027661D01*
X159420398Y-118027664D01*
X159274727Y-118088002D01*
X159274714Y-118088009D01*
X159143611Y-118175610D01*
X159143607Y-118175613D01*
X159032113Y-118287107D01*
X159032110Y-118287111D01*
X158944509Y-118418214D01*
X158944502Y-118418227D01*
X158884164Y-118563898D01*
X158884161Y-118563910D01*
X158853400Y-118718553D01*
X158853400Y-118876246D01*
X158884161Y-119030889D01*
X158884164Y-119030901D01*
X158944502Y-119176572D01*
X158944509Y-119176585D01*
X159032110Y-119307688D01*
X159032113Y-119307692D01*
X159143607Y-119419186D01*
X159143611Y-119419189D01*
X159274714Y-119506790D01*
X159274727Y-119506797D01*
X159371756Y-119546987D01*
X159420403Y-119567137D01*
X159450819Y-119573187D01*
X159483202Y-119579629D01*
X159545113Y-119612014D01*
X159579687Y-119672729D01*
X159575948Y-119742499D01*
X159546692Y-119788927D01*
X158799353Y-120536266D01*
X158785684Y-120543729D01*
X158775085Y-120555144D01*
X158755643Y-120560133D01*
X158738030Y-120569751D01*
X158721563Y-120568879D01*
X158707409Y-120572512D01*
X158672667Y-120566291D01*
X158669335Y-120565187D01*
X158669334Y-120565186D01*
X158627056Y-120551176D01*
X158569613Y-120511404D01*
X158542790Y-120446888D01*
X158544444Y-120409283D01*
X158550500Y-120378842D01*
X158550500Y-120221158D01*
X158550500Y-120221155D01*
X158550499Y-120221153D01*
X158519737Y-120066503D01*
X158514139Y-120052987D01*
X158459397Y-119920827D01*
X158459390Y-119920814D01*
X158371789Y-119789711D01*
X158371786Y-119789707D01*
X158361819Y-119779740D01*
X158328334Y-119718417D01*
X158325500Y-119692059D01*
X158325500Y-115595864D01*
X158345185Y-115528825D01*
X158361814Y-115508187D01*
X159497798Y-114372203D01*
X159559119Y-114338720D01*
X159609668Y-114338269D01*
X159648891Y-114346071D01*
G37*
%TD.AperFunction*%
%TA.AperFunction,Conductor*%
G36*
X184131782Y-93181692D02*
G01*
X184204190Y-93307108D01*
X184306592Y-93409510D01*
X184432008Y-93481918D01*
X184474064Y-93493187D01*
X183988537Y-93978714D01*
X184014308Y-93997439D01*
X184014312Y-93997441D01*
X184182887Y-94083335D01*
X184362830Y-94141803D01*
X184549696Y-94171400D01*
X184738904Y-94171400D01*
X184854102Y-94153154D01*
X184923395Y-94162108D01*
X184976847Y-94207104D01*
X184997487Y-94273856D01*
X184997500Y-94275627D01*
X184997500Y-106902667D01*
X184977815Y-106969706D01*
X184925011Y-107015461D01*
X184855853Y-107025405D01*
X184854102Y-107025140D01*
X184775699Y-107012722D01*
X184738939Y-107006900D01*
X184549661Y-107006900D01*
X184527174Y-107010461D01*
X184362713Y-107036509D01*
X184182695Y-107095001D01*
X184014052Y-107180930D01*
X183977371Y-107207581D01*
X183860924Y-107292185D01*
X183860922Y-107292187D01*
X183860921Y-107292187D01*
X183727087Y-107426021D01*
X183727087Y-107426022D01*
X183727085Y-107426024D01*
X183714253Y-107443686D01*
X183615830Y-107579152D01*
X183529901Y-107747795D01*
X183492231Y-107863733D01*
X183452793Y-107921408D01*
X183388434Y-107948606D01*
X183319588Y-107936691D01*
X183268112Y-107889447D01*
X183256369Y-107863733D01*
X183218698Y-107747795D01*
X183132769Y-107579152D01*
X183132767Y-107579149D01*
X183021515Y-107426024D01*
X182887676Y-107292185D01*
X182734547Y-107180930D01*
X182565900Y-107095000D01*
X182449967Y-107057331D01*
X182392291Y-107017893D01*
X182365093Y-106953535D01*
X182377008Y-106884688D01*
X182424252Y-106833213D01*
X182449967Y-106821469D01*
X182461332Y-106817776D01*
X182565900Y-106783800D01*
X182734547Y-106697870D01*
X182887676Y-106586615D01*
X183021515Y-106452776D01*
X183132770Y-106299647D01*
X183218700Y-106131000D01*
X183277190Y-105950986D01*
X183306800Y-105764039D01*
X183306800Y-105574761D01*
X183281296Y-105413738D01*
X183277190Y-105387813D01*
X183218698Y-105207795D01*
X183146122Y-105065358D01*
X183132770Y-105039153D01*
X183021515Y-104886024D01*
X182887676Y-104752185D01*
X182734547Y-104640930D01*
X182565904Y-104555001D01*
X182385886Y-104496509D01*
X182224499Y-104470948D01*
X182198939Y-104466900D01*
X182009661Y-104466900D01*
X181966353Y-104473759D01*
X181876883Y-104487930D01*
X181807589Y-104478975D01*
X181754137Y-104433979D01*
X181733498Y-104367228D01*
X181752223Y-104299914D01*
X181769804Y-104277776D01*
X182949412Y-103098168D01*
X182949412Y-103098167D01*
X182949414Y-103098166D01*
X182980436Y-103044436D01*
X183031003Y-102996222D01*
X183099611Y-102983000D01*
X183107215Y-102983964D01*
X183135907Y-102988508D01*
X183283591Y-103011900D01*
X183283596Y-103011900D01*
X183465009Y-103011900D01*
X183563992Y-102996222D01*
X183644178Y-102983522D01*
X183816707Y-102927464D01*
X183978342Y-102845107D01*
X184125104Y-102738478D01*
X184253378Y-102610204D01*
X184360007Y-102463442D01*
X184442364Y-102301807D01*
X184498422Y-102129278D01*
X184516445Y-102015482D01*
X184526800Y-101950109D01*
X184526800Y-101768690D01*
X184509887Y-101661909D01*
X184498422Y-101589522D01*
X184470393Y-101503257D01*
X184442365Y-101416995D01*
X184442364Y-101416993D01*
X184360007Y-101255358D01*
X184253378Y-101108596D01*
X184125104Y-100980322D01*
X183978342Y-100873693D01*
X183950051Y-100859278D01*
X183816704Y-100791334D01*
X183644179Y-100735278D01*
X183496407Y-100711873D01*
X183433272Y-100681944D01*
X183396341Y-100622632D01*
X183397339Y-100552770D01*
X183435949Y-100494537D01*
X183496407Y-100466927D01*
X183562503Y-100456457D01*
X183644178Y-100443522D01*
X183816707Y-100387464D01*
X183978342Y-100305107D01*
X184125104Y-100198478D01*
X184253378Y-100070204D01*
X184360007Y-99923442D01*
X184442364Y-99761807D01*
X184498422Y-99589278D01*
X184513165Y-99496196D01*
X184526800Y-99410109D01*
X184526800Y-99228690D01*
X184508914Y-99115769D01*
X184498422Y-99049522D01*
X184462307Y-98938371D01*
X184442365Y-98876995D01*
X184440692Y-98873712D01*
X184360007Y-98715358D01*
X184253378Y-98568596D01*
X184125104Y-98440322D01*
X183978342Y-98333693D01*
X183950051Y-98319278D01*
X183816704Y-98251334D01*
X183644179Y-98195278D01*
X183465009Y-98166900D01*
X183465004Y-98166900D01*
X183283596Y-98166900D01*
X183283589Y-98166900D01*
X183207797Y-98178904D01*
X183138504Y-98169949D01*
X183085052Y-98124953D01*
X183064413Y-98058201D01*
X183064400Y-98056431D01*
X183064400Y-94187941D01*
X183084085Y-94120902D01*
X183100719Y-94100260D01*
X183169343Y-94031636D01*
X183386363Y-93814616D01*
X183386365Y-93814615D01*
X183493515Y-93707465D01*
X183512621Y-93674372D01*
X183521510Y-93664566D01*
X183540474Y-93652969D01*
X183556561Y-93637630D01*
X183569976Y-93634927D01*
X183581118Y-93628115D01*
X183601534Y-93628571D01*
X183623112Y-93624226D01*
X183634985Y-93625160D01*
X184120512Y-93139633D01*
X184131782Y-93181692D01*
G37*
%TD.AperFunction*%
%TA.AperFunction,Conductor*%
G36*
X146216791Y-95160720D02*
G01*
X146265313Y-95190693D01*
X149603781Y-98529161D01*
X149637266Y-98590484D01*
X149640100Y-98616842D01*
X149640100Y-101644357D01*
X149633861Y-101665602D01*
X149632282Y-101687689D01*
X149624209Y-101698472D01*
X149620415Y-101711396D01*
X149603680Y-101725896D01*
X149590411Y-101743623D01*
X149577790Y-101748330D01*
X149567611Y-101757151D01*
X149545694Y-101760302D01*
X149524947Y-101768041D01*
X149511785Y-101765178D01*
X149498453Y-101767095D01*
X149478311Y-101757896D01*
X149456674Y-101753190D01*
X149438947Y-101739919D01*
X149434897Y-101738070D01*
X149428420Y-101732039D01*
X149358278Y-101661898D01*
X149335065Y-101638685D01*
X149335062Y-101638683D01*
X148376483Y-100680104D01*
X147388919Y-99692539D01*
X147355434Y-99631216D01*
X147352600Y-99604858D01*
X147352600Y-99590755D01*
X147352599Y-99590753D01*
X147342789Y-99541435D01*
X147321837Y-99436103D01*
X147321835Y-99436098D01*
X147261497Y-99290427D01*
X147261490Y-99290414D01*
X147173889Y-99159311D01*
X147173886Y-99159307D01*
X147062392Y-99047813D01*
X147062388Y-99047810D01*
X146931285Y-98960209D01*
X146931272Y-98960202D01*
X146785601Y-98899864D01*
X146785589Y-98899861D01*
X146630945Y-98869100D01*
X146630942Y-98869100D01*
X146473258Y-98869100D01*
X146473255Y-98869100D01*
X146318610Y-98899861D01*
X146318598Y-98899864D01*
X146172927Y-98960202D01*
X146172914Y-98960209D01*
X146041811Y-99047810D01*
X146041807Y-99047813D01*
X145960481Y-99129140D01*
X145899158Y-99162625D01*
X145829466Y-99157641D01*
X145773533Y-99115769D01*
X145749116Y-99050305D01*
X145748800Y-99041459D01*
X145748800Y-96409371D01*
X145768485Y-96342332D01*
X145803906Y-96306271D01*
X145844289Y-96279289D01*
X145955789Y-96167789D01*
X146043394Y-96036679D01*
X146103737Y-95890997D01*
X146134500Y-95736342D01*
X146134500Y-95578658D01*
X146134500Y-95578655D01*
X146134499Y-95578653D01*
X146103738Y-95424010D01*
X146103737Y-95424003D01*
X146063070Y-95325825D01*
X146055602Y-95256357D01*
X146086877Y-95193878D01*
X146146966Y-95158226D01*
X146216791Y-95160720D01*
G37*
%TD.AperFunction*%
%TA.AperFunction,Conductor*%
G36*
X184928342Y-86586591D02*
G01*
X184952804Y-86605584D01*
X184961181Y-86613961D01*
X184994666Y-86675284D01*
X184997500Y-86701642D01*
X184997500Y-91663172D01*
X184977815Y-91730211D01*
X184925011Y-91775966D01*
X184855853Y-91785910D01*
X184854103Y-91785645D01*
X184738906Y-91767400D01*
X184549696Y-91767400D01*
X184362830Y-91796996D01*
X184182887Y-91855464D01*
X184014310Y-91941359D01*
X183988538Y-91960084D01*
X183988537Y-91960085D01*
X184474065Y-92445612D01*
X184432008Y-92456882D01*
X184306592Y-92529290D01*
X184204190Y-92631692D01*
X184131782Y-92757108D01*
X184120512Y-92799165D01*
X183634985Y-92313637D01*
X183623111Y-92314572D01*
X183554734Y-92300207D01*
X183505996Y-92252953D01*
X183493515Y-92231335D01*
X183386365Y-92124185D01*
X183386363Y-92124183D01*
X182842365Y-91580185D01*
X182776750Y-91542302D01*
X182711136Y-91504419D01*
X182634855Y-91483980D01*
X182564766Y-91465200D01*
X181643934Y-91465200D01*
X181497563Y-91504419D01*
X181366335Y-91580185D01*
X181366332Y-91580187D01*
X180715086Y-92231433D01*
X180713143Y-92233966D01*
X180710960Y-92235559D01*
X180709338Y-92237182D01*
X180709084Y-92236928D01*
X180656713Y-92275165D01*
X180586966Y-92279316D01*
X180526048Y-92245101D01*
X180514457Y-92231365D01*
X180481515Y-92186024D01*
X180347676Y-92052185D01*
X180194547Y-91940930D01*
X180025904Y-91855001D01*
X179845886Y-91796509D01*
X179684499Y-91770948D01*
X179658939Y-91766900D01*
X179469661Y-91766900D01*
X179447174Y-91770461D01*
X179282713Y-91796509D01*
X179102695Y-91855001D01*
X178934052Y-91940930D01*
X178887995Y-91974393D01*
X178780924Y-92052185D01*
X178780922Y-92052187D01*
X178780921Y-92052187D01*
X178647087Y-92186021D01*
X178647087Y-92186022D01*
X178647085Y-92186024D01*
X178604163Y-92245101D01*
X178535830Y-92339152D01*
X178449901Y-92507795D01*
X178412231Y-92623733D01*
X178372793Y-92681408D01*
X178308434Y-92708606D01*
X178239588Y-92696691D01*
X178188112Y-92649447D01*
X178176369Y-92623733D01*
X178162127Y-92579900D01*
X178138700Y-92507800D01*
X178138698Y-92507797D01*
X178138698Y-92507795D01*
X178053200Y-92339997D01*
X178052770Y-92339153D01*
X177941515Y-92186024D01*
X177807676Y-92052185D01*
X177654547Y-91940930D01*
X177485904Y-91855001D01*
X177305886Y-91796509D01*
X177144499Y-91770948D01*
X177118939Y-91766900D01*
X176929661Y-91766900D01*
X176907174Y-91770461D01*
X176742713Y-91796509D01*
X176562692Y-91855002D01*
X176510194Y-91881752D01*
X176507489Y-91882259D01*
X176505411Y-91884061D01*
X176473357Y-91888669D01*
X176441525Y-91894648D01*
X176438976Y-91893613D01*
X176436253Y-91894005D01*
X176406787Y-91880548D01*
X176376785Y-91868371D01*
X176375200Y-91866123D01*
X176372697Y-91864980D01*
X176355181Y-91837725D01*
X176336528Y-91811264D01*
X176335955Y-91807808D01*
X176334923Y-91806202D01*
X176329900Y-91771267D01*
X176329900Y-91535342D01*
X176349585Y-91468303D01*
X176366219Y-91447661D01*
X180389562Y-87424318D01*
X180390780Y-87425536D01*
X180439263Y-87390131D01*
X180509008Y-87385972D01*
X180519533Y-87388886D01*
X180683757Y-87442246D01*
X180893713Y-87475500D01*
X180893714Y-87475500D01*
X181106286Y-87475500D01*
X181106287Y-87475500D01*
X181316243Y-87442246D01*
X181518412Y-87376557D01*
X181707816Y-87280051D01*
X181742721Y-87254691D01*
X181879786Y-87155109D01*
X181879788Y-87155106D01*
X181879792Y-87155104D01*
X182030104Y-87004792D01*
X182149683Y-86840204D01*
X182205011Y-86797540D01*
X182274624Y-86791561D01*
X182336420Y-86824166D01*
X182350313Y-86840199D01*
X182436213Y-86958431D01*
X182469896Y-87004792D01*
X182620213Y-87155109D01*
X182792179Y-87280048D01*
X182792181Y-87280049D01*
X182792184Y-87280051D01*
X182981588Y-87376557D01*
X183183757Y-87442246D01*
X183393713Y-87475500D01*
X183393714Y-87475500D01*
X183606286Y-87475500D01*
X183606287Y-87475500D01*
X183816243Y-87442246D01*
X184018412Y-87376557D01*
X184207816Y-87280051D01*
X184242721Y-87254691D01*
X184379786Y-87155109D01*
X184379788Y-87155106D01*
X184379792Y-87155104D01*
X184530104Y-87004792D01*
X184530106Y-87004788D01*
X184530109Y-87004786D01*
X184655048Y-86832820D01*
X184655047Y-86832820D01*
X184655051Y-86832816D01*
X184748058Y-86650280D01*
X184753769Y-86639071D01*
X184755359Y-86639881D01*
X184794351Y-86591445D01*
X184860634Y-86569346D01*
X184928342Y-86586591D01*
G37*
%TD.AperFunction*%
%TA.AperFunction,Conductor*%
G36*
X179501103Y-85336438D02*
G01*
X179523192Y-85338018D01*
X179533975Y-85346090D01*
X179546897Y-85349885D01*
X179561396Y-85366618D01*
X179579125Y-85379890D01*
X179583832Y-85392510D01*
X179592652Y-85402689D01*
X179595803Y-85424606D01*
X179603542Y-85445354D01*
X179600679Y-85458514D01*
X179602596Y-85471847D01*
X179593396Y-85491990D01*
X179588690Y-85513627D01*
X179575421Y-85531352D01*
X179573571Y-85535403D01*
X179567539Y-85541881D01*
X179462787Y-85646632D01*
X179462785Y-85646635D01*
X179387019Y-85777863D01*
X179347800Y-85924234D01*
X179347800Y-86786958D01*
X179328115Y-86853997D01*
X179311481Y-86874639D01*
X175293887Y-90892232D01*
X175293885Y-90892235D01*
X175218119Y-91023463D01*
X175178900Y-91169834D01*
X175178900Y-91771369D01*
X175159215Y-91838408D01*
X175106411Y-91884163D01*
X175037253Y-91894107D01*
X174998606Y-91881854D01*
X174945907Y-91855002D01*
X174765886Y-91796509D01*
X174604499Y-91770948D01*
X174578939Y-91766900D01*
X174389661Y-91766900D01*
X174370947Y-91769863D01*
X174301654Y-91760909D01*
X174248203Y-91715913D01*
X174227563Y-91649162D01*
X174246288Y-91581848D01*
X174263869Y-91559710D01*
X175805745Y-90017834D01*
X177761515Y-88062065D01*
X177837281Y-87930835D01*
X177876500Y-87784467D01*
X177876500Y-87632934D01*
X177876500Y-85829042D01*
X177896185Y-85762003D01*
X177912819Y-85741361D01*
X178287661Y-85366519D01*
X178348984Y-85333034D01*
X178375342Y-85330200D01*
X179479858Y-85330200D01*
X179501103Y-85336438D01*
G37*
%TD.AperFunction*%
%TA.AperFunction,Conductor*%
G36*
X184911916Y-74270185D02*
G01*
X184932558Y-74286819D01*
X187213181Y-76567441D01*
X187246666Y-76628764D01*
X187249500Y-76655122D01*
X187249500Y-126344877D01*
X187229815Y-126411916D01*
X187213181Y-126432558D01*
X184932558Y-128713181D01*
X184871235Y-128746666D01*
X184844877Y-128749500D01*
X102655122Y-128749500D01*
X102588083Y-128729815D01*
X102567441Y-128713181D01*
X100286819Y-126432558D01*
X100253334Y-126371235D01*
X100250500Y-126344877D01*
X100250500Y-121174983D01*
X104399500Y-121174983D01*
X104399500Y-122775001D01*
X104399501Y-122775018D01*
X104410000Y-122877796D01*
X104410001Y-122877799D01*
X104465185Y-123044331D01*
X104465187Y-123044336D01*
X104489232Y-123083319D01*
X104557288Y-123193656D01*
X104681344Y-123317712D01*
X104830666Y-123409814D01*
X104997203Y-123464999D01*
X105099991Y-123475500D01*
X106400008Y-123475499D01*
X106502797Y-123464999D01*
X106669334Y-123409814D01*
X106818656Y-123317712D01*
X106942712Y-123193656D01*
X107034814Y-123044334D01*
X107034814Y-123044331D01*
X107038178Y-123038879D01*
X107090126Y-122992154D01*
X107159088Y-122980931D01*
X107223170Y-123008774D01*
X107231398Y-123016294D01*
X107370213Y-123155109D01*
X107542179Y-123280048D01*
X107542181Y-123280049D01*
X107542184Y-123280051D01*
X107731588Y-123376557D01*
X107933757Y-123442246D01*
X108143713Y-123475500D01*
X108143714Y-123475500D01*
X108356286Y-123475500D01*
X108356287Y-123475500D01*
X108566243Y-123442246D01*
X108768412Y-123376557D01*
X108957816Y-123280051D01*
X109019733Y-123235066D01*
X109129786Y-123155109D01*
X109129788Y-123155106D01*
X109129792Y-123155104D01*
X109280104Y-123004792D01*
X109280106Y-123004788D01*
X109280109Y-123004786D01*
X109405048Y-122832820D01*
X109405047Y-122832820D01*
X109405051Y-122832816D01*
X109501557Y-122643412D01*
X109567246Y-122441243D01*
X109600500Y-122231287D01*
X109600500Y-121718713D01*
X109567246Y-121508757D01*
X109501557Y-121306588D01*
X109434501Y-121174983D01*
X113399500Y-121174983D01*
X113399500Y-122775001D01*
X113399501Y-122775018D01*
X113410000Y-122877796D01*
X113410001Y-122877799D01*
X113465185Y-123044331D01*
X113465187Y-123044336D01*
X113489232Y-123083319D01*
X113557288Y-123193656D01*
X113681344Y-123317712D01*
X113830666Y-123409814D01*
X113997203Y-123464999D01*
X114099991Y-123475500D01*
X115400008Y-123475499D01*
X115502797Y-123464999D01*
X115669334Y-123409814D01*
X115818656Y-123317712D01*
X115942712Y-123193656D01*
X116034814Y-123044334D01*
X116034814Y-123044331D01*
X116038178Y-123038879D01*
X116090126Y-122992154D01*
X116159088Y-122980931D01*
X116223170Y-123008774D01*
X116231398Y-123016294D01*
X116370213Y-123155109D01*
X116542179Y-123280048D01*
X116542181Y-123280049D01*
X116542184Y-123280051D01*
X116731588Y-123376557D01*
X116933757Y-123442246D01*
X117143713Y-123475500D01*
X117143714Y-123475500D01*
X117356286Y-123475500D01*
X117356287Y-123475500D01*
X117566243Y-123442246D01*
X117768412Y-123376557D01*
X117957816Y-123280051D01*
X118019733Y-123235066D01*
X118129786Y-123155109D01*
X118129788Y-123155106D01*
X118129792Y-123155104D01*
X118280104Y-123004792D01*
X118280106Y-123004788D01*
X118280109Y-123004786D01*
X118405048Y-122832820D01*
X118405047Y-122832820D01*
X118405051Y-122832816D01*
X118501557Y-122643412D01*
X118567246Y-122441243D01*
X118596681Y-122255400D01*
X120149500Y-122255400D01*
X120149500Y-122584600D01*
X120155293Y-122643414D01*
X120181765Y-122912201D01*
X120181768Y-122912218D01*
X120245984Y-123235066D01*
X120245987Y-123235077D01*
X120341552Y-123550112D01*
X120426627Y-123755500D01*
X120467531Y-123854251D01*
X120515030Y-123943117D01*
X120622707Y-124144567D01*
X120622718Y-124144585D01*
X120805601Y-124418289D01*
X120805611Y-124418303D01*
X121014453Y-124672777D01*
X121247222Y-124905546D01*
X121247227Y-124905550D01*
X121247228Y-124905551D01*
X121501702Y-125114393D01*
X121775421Y-125297286D01*
X122065749Y-125452469D01*
X122369889Y-125578448D01*
X122684913Y-125674010D01*
X122684919Y-125674011D01*
X122684922Y-125674012D01*
X122684933Y-125674015D01*
X122865361Y-125709903D01*
X123007787Y-125738233D01*
X123335400Y-125770500D01*
X123335403Y-125770500D01*
X123664597Y-125770500D01*
X123664600Y-125770500D01*
X123992213Y-125738233D01*
X124169760Y-125702916D01*
X124315066Y-125674015D01*
X124315077Y-125674012D01*
X124315077Y-125674011D01*
X124315087Y-125674010D01*
X124630111Y-125578448D01*
X124934251Y-125452469D01*
X125224579Y-125297286D01*
X125498298Y-125114393D01*
X125752772Y-124905551D01*
X125985551Y-124672772D01*
X126194393Y-124418298D01*
X126377286Y-124144579D01*
X126532469Y-123854251D01*
X126658448Y-123550111D01*
X126754010Y-123235087D01*
X126754012Y-123235077D01*
X126754015Y-123235066D01*
X126796925Y-123019336D01*
X126818233Y-122912213D01*
X126850500Y-122584600D01*
X126850500Y-122255400D01*
X126818233Y-121927787D01*
X126789903Y-121785361D01*
X126754015Y-121604933D01*
X126754012Y-121604922D01*
X126754011Y-121604919D01*
X126754010Y-121604913D01*
X126658448Y-121289889D01*
X126654402Y-121280122D01*
X126639559Y-121244286D01*
X126621208Y-121199983D01*
X128399500Y-121199983D01*
X128399500Y-122750001D01*
X128399501Y-122750018D01*
X128410000Y-122852796D01*
X128410001Y-122852799D01*
X128465185Y-123019331D01*
X128465187Y-123019336D01*
X128500069Y-123075888D01*
X128557288Y-123168656D01*
X128681344Y-123292712D01*
X128830666Y-123384814D01*
X128997203Y-123439999D01*
X129099991Y-123450500D01*
X130400008Y-123450499D01*
X130502797Y-123439999D01*
X130669334Y-123384814D01*
X130818656Y-123292712D01*
X130942712Y-123168656D01*
X131034814Y-123019334D01*
X131034814Y-123019331D01*
X131038178Y-123013879D01*
X131090126Y-122967154D01*
X131159088Y-122955931D01*
X131223170Y-122983774D01*
X131231398Y-122991294D01*
X131370213Y-123130109D01*
X131542179Y-123255048D01*
X131542181Y-123255049D01*
X131542184Y-123255051D01*
X131731588Y-123351557D01*
X131933757Y-123417246D01*
X132143713Y-123450500D01*
X132143714Y-123450500D01*
X132356286Y-123450500D01*
X132356287Y-123450500D01*
X132566243Y-123417246D01*
X132768412Y-123351557D01*
X132957816Y-123255051D01*
X133005931Y-123220094D01*
X133129786Y-123130109D01*
X133129788Y-123130106D01*
X133129792Y-123130104D01*
X133280104Y-122979792D01*
X133399683Y-122815204D01*
X133455011Y-122772540D01*
X133524624Y-122766561D01*
X133586420Y-122799166D01*
X133600313Y-122815199D01*
X133710714Y-122967154D01*
X133719896Y-122979792D01*
X133870213Y-123130109D01*
X134042179Y-123255048D01*
X134042181Y-123255049D01*
X134042184Y-123255051D01*
X134231588Y-123351557D01*
X134433757Y-123417246D01*
X134643713Y-123450500D01*
X134643714Y-123450500D01*
X134856286Y-123450500D01*
X134856287Y-123450500D01*
X135066243Y-123417246D01*
X135268412Y-123351557D01*
X135457816Y-123255051D01*
X135505931Y-123220094D01*
X135629786Y-123130109D01*
X135629788Y-123130106D01*
X135629792Y-123130104D01*
X135780104Y-122979792D01*
X135899683Y-122815204D01*
X135955011Y-122772540D01*
X136024624Y-122766561D01*
X136086420Y-122799166D01*
X136100313Y-122815199D01*
X136210714Y-122967154D01*
X136219896Y-122979792D01*
X136370213Y-123130109D01*
X136542179Y-123255048D01*
X136542181Y-123255049D01*
X136542184Y-123255051D01*
X136731588Y-123351557D01*
X136933757Y-123417246D01*
X137143713Y-123450500D01*
X137143714Y-123450500D01*
X137356286Y-123450500D01*
X137356287Y-123450500D01*
X137566243Y-123417246D01*
X137768412Y-123351557D01*
X137957816Y-123255051D01*
X138005931Y-123220094D01*
X138129786Y-123130109D01*
X138129788Y-123130106D01*
X138129792Y-123130104D01*
X138280104Y-122979792D01*
X138280106Y-122979788D01*
X138280109Y-122979786D01*
X138405048Y-122807820D01*
X138405047Y-122807820D01*
X138405051Y-122807816D01*
X138501557Y-122618412D01*
X138567246Y-122416243D01*
X138600500Y-122206287D01*
X138600500Y-121743713D01*
X138567246Y-121533757D01*
X138501557Y-121331588D01*
X138405051Y-121142184D01*
X138405049Y-121142181D01*
X138405048Y-121142179D01*
X138280109Y-120970213D01*
X138129786Y-120819890D01*
X137957820Y-120694951D01*
X137768414Y-120598444D01*
X137768413Y-120598443D01*
X137768412Y-120598443D01*
X137566243Y-120532754D01*
X137566241Y-120532753D01*
X137566239Y-120532753D01*
X137368052Y-120501363D01*
X137304917Y-120471434D01*
X137267986Y-120412122D01*
X137268984Y-120342260D01*
X137299767Y-120291211D01*
X144386121Y-113204858D01*
X144447442Y-113171375D01*
X144517134Y-113176359D01*
X144573067Y-113218231D01*
X144597484Y-113283695D01*
X144597800Y-113292541D01*
X144597800Y-120382393D01*
X144578115Y-120449432D01*
X144525311Y-120495187D01*
X144461197Y-120505751D01*
X144400010Y-120499500D01*
X143099998Y-120499500D01*
X143099981Y-120499501D01*
X142997203Y-120510000D01*
X142997200Y-120510001D01*
X142830668Y-120565185D01*
X142830663Y-120565187D01*
X142681342Y-120657289D01*
X142557289Y-120781342D01*
X142465187Y-120930663D01*
X142465185Y-120930668D01*
X142453083Y-120967190D01*
X142410001Y-121097203D01*
X142410001Y-121097204D01*
X142410000Y-121097204D01*
X142399500Y-121199983D01*
X142399500Y-122750001D01*
X142399501Y-122750018D01*
X142410000Y-122852796D01*
X142410001Y-122852799D01*
X142465185Y-123019331D01*
X142465187Y-123019336D01*
X142500069Y-123075888D01*
X142557288Y-123168656D01*
X142681344Y-123292712D01*
X142830666Y-123384814D01*
X142997203Y-123439999D01*
X143099991Y-123450500D01*
X144400008Y-123450499D01*
X144502797Y-123439999D01*
X144669334Y-123384814D01*
X144818656Y-123292712D01*
X144942712Y-123168656D01*
X145034814Y-123019334D01*
X145034814Y-123019331D01*
X145038178Y-123013879D01*
X145090126Y-122967154D01*
X145159088Y-122955931D01*
X145223170Y-122983774D01*
X145231398Y-122991294D01*
X145370213Y-123130109D01*
X145542179Y-123255048D01*
X145542181Y-123255049D01*
X145542184Y-123255051D01*
X145731588Y-123351557D01*
X145933757Y-123417246D01*
X146143713Y-123450500D01*
X146143714Y-123450500D01*
X146356286Y-123450500D01*
X146356287Y-123450500D01*
X146566243Y-123417246D01*
X146768412Y-123351557D01*
X146957816Y-123255051D01*
X147005931Y-123220094D01*
X147129786Y-123130109D01*
X147129788Y-123130106D01*
X147129792Y-123130104D01*
X147280104Y-122979792D01*
X147399683Y-122815204D01*
X147455011Y-122772540D01*
X147524624Y-122766561D01*
X147586420Y-122799166D01*
X147600313Y-122815199D01*
X147710714Y-122967154D01*
X147719896Y-122979792D01*
X147870213Y-123130109D01*
X148042179Y-123255048D01*
X148042181Y-123255049D01*
X148042184Y-123255051D01*
X148231588Y-123351557D01*
X148433757Y-123417246D01*
X148643713Y-123450500D01*
X148643714Y-123450500D01*
X148856286Y-123450500D01*
X148856287Y-123450500D01*
X149066243Y-123417246D01*
X149268412Y-123351557D01*
X149457816Y-123255051D01*
X149505931Y-123220094D01*
X149629786Y-123130109D01*
X149629788Y-123130106D01*
X149629792Y-123130104D01*
X149780104Y-122979792D01*
X149899683Y-122815204D01*
X149955011Y-122772540D01*
X150024624Y-122766561D01*
X150086420Y-122799166D01*
X150100313Y-122815199D01*
X150210714Y-122967154D01*
X150219896Y-122979792D01*
X150370213Y-123130109D01*
X150542179Y-123255048D01*
X150542181Y-123255049D01*
X150542184Y-123255051D01*
X150731588Y-123351557D01*
X150933757Y-123417246D01*
X151143713Y-123450500D01*
X151143714Y-123450500D01*
X151356286Y-123450500D01*
X151356287Y-123450500D01*
X151566243Y-123417246D01*
X151768412Y-123351557D01*
X151957816Y-123255051D01*
X152005931Y-123220094D01*
X152129786Y-123130109D01*
X152129788Y-123130106D01*
X152129792Y-123130104D01*
X152280104Y-122979792D01*
X152294709Y-122959688D01*
X152350037Y-122917021D01*
X152419650Y-122911040D01*
X152481446Y-122943644D01*
X152482710Y-122944890D01*
X153071185Y-123533365D01*
X153178335Y-123640515D01*
X153228502Y-123669479D01*
X153309565Y-123716281D01*
X153455933Y-123755500D01*
X153455934Y-123755500D01*
X153455935Y-123755500D01*
X158697664Y-123755500D01*
X158697666Y-123755500D01*
X158844035Y-123716281D01*
X158975265Y-123640515D01*
X159362201Y-123253577D01*
X159423522Y-123220094D01*
X159493213Y-123225078D01*
X159522765Y-123240942D01*
X159542184Y-123255051D01*
X159731588Y-123351557D01*
X159933757Y-123417246D01*
X160143713Y-123450500D01*
X160143714Y-123450500D01*
X160356286Y-123450500D01*
X160356287Y-123450500D01*
X160566243Y-123417246D01*
X160768412Y-123351557D01*
X160957816Y-123255051D01*
X161005931Y-123220094D01*
X161129786Y-123130109D01*
X161129788Y-123130106D01*
X161129792Y-123130104D01*
X161176577Y-123083319D01*
X161237900Y-123049834D01*
X161307592Y-123054818D01*
X161351939Y-123083319D01*
X161826485Y-123557865D01*
X161933635Y-123665015D01*
X162022428Y-123716280D01*
X162022430Y-123716281D01*
X162022431Y-123716282D01*
X162064859Y-123740778D01*
X162064860Y-123740778D01*
X162064865Y-123740781D01*
X162211233Y-123780000D01*
X162211234Y-123780000D01*
X162211235Y-123780000D01*
X165800164Y-123780000D01*
X165800166Y-123780000D01*
X165946535Y-123740781D01*
X166077765Y-123665015D01*
X168575943Y-121166835D01*
X168637266Y-121133351D01*
X168706958Y-121138335D01*
X168762891Y-121180207D01*
X168787308Y-121245671D01*
X168778185Y-121301970D01*
X168750052Y-121369887D01*
X168654487Y-121684922D01*
X168654484Y-121684933D01*
X168590268Y-122007781D01*
X168590265Y-122007798D01*
X168558000Y-122335403D01*
X168558000Y-122664596D01*
X168590265Y-122992201D01*
X168590268Y-122992218D01*
X168654484Y-123315066D01*
X168654487Y-123315077D01*
X168750052Y-123630112D01*
X168876028Y-123934244D01*
X168876035Y-123934258D01*
X169031207Y-124224567D01*
X169031218Y-124224585D01*
X169214101Y-124498289D01*
X169214111Y-124498303D01*
X169422953Y-124752777D01*
X169655722Y-124985546D01*
X169655727Y-124985550D01*
X169655728Y-124985551D01*
X169910202Y-125194393D01*
X170183921Y-125377286D01*
X170474249Y-125532469D01*
X170778389Y-125658448D01*
X171093413Y-125754010D01*
X171093419Y-125754011D01*
X171093422Y-125754012D01*
X171093433Y-125754015D01*
X171273861Y-125789903D01*
X171416287Y-125818233D01*
X171743900Y-125850500D01*
X171743903Y-125850500D01*
X172073097Y-125850500D01*
X172073100Y-125850500D01*
X172400713Y-125818233D01*
X172578260Y-125782916D01*
X172723566Y-125754015D01*
X172723577Y-125754012D01*
X172723577Y-125754011D01*
X172723587Y-125754010D01*
X173038611Y-125658448D01*
X173342751Y-125532469D01*
X173633079Y-125377286D01*
X173906798Y-125194393D01*
X174161272Y-124985551D01*
X174394051Y-124752772D01*
X174602893Y-124498298D01*
X174785786Y-124224579D01*
X174940969Y-123934251D01*
X175066948Y-123630111D01*
X175162510Y-123315087D01*
X175162512Y-123315077D01*
X175162515Y-123315066D01*
X175214280Y-123054818D01*
X175226733Y-122992213D01*
X175259000Y-122664600D01*
X175259000Y-122335400D01*
X175226733Y-122007787D01*
X175198403Y-121865361D01*
X175162515Y-121684933D01*
X175162512Y-121684922D01*
X175162511Y-121684919D01*
X175162510Y-121684913D01*
X175066948Y-121369889D01*
X174940969Y-121065749D01*
X174785786Y-120775421D01*
X174602893Y-120501702D01*
X174394051Y-120247228D01*
X174394050Y-120247227D01*
X174394046Y-120247222D01*
X174161277Y-120014453D01*
X173906803Y-119805611D01*
X173906802Y-119805610D01*
X173906798Y-119805607D01*
X173633079Y-119622714D01*
X173633074Y-119622711D01*
X173633067Y-119622707D01*
X173342758Y-119467535D01*
X173342751Y-119467531D01*
X173342744Y-119467528D01*
X173038612Y-119341552D01*
X172723577Y-119245987D01*
X172723566Y-119245984D01*
X172400718Y-119181768D01*
X172400713Y-119181767D01*
X172400711Y-119181766D01*
X172400701Y-119181765D01*
X172160022Y-119158061D01*
X172073100Y-119149500D01*
X171743900Y-119149500D01*
X171664040Y-119157365D01*
X171416298Y-119181765D01*
X171416281Y-119181768D01*
X171093433Y-119245984D01*
X171093422Y-119245987D01*
X170778383Y-119341553D01*
X170710468Y-119369685D01*
X170640999Y-119377154D01*
X170578520Y-119345878D01*
X170542868Y-119285789D01*
X170545362Y-119215964D01*
X170575333Y-119167445D01*
X174944814Y-114797966D01*
X175020581Y-114666735D01*
X175059800Y-114520367D01*
X175059800Y-114368834D01*
X175059800Y-109340827D01*
X175079485Y-109273788D01*
X175110914Y-109240509D01*
X175114544Y-109237871D01*
X175114547Y-109237870D01*
X175267676Y-109126615D01*
X175401515Y-108992776D01*
X175512770Y-108839647D01*
X175598700Y-108671000D01*
X175636369Y-108555067D01*
X175675807Y-108497391D01*
X175740165Y-108470193D01*
X175809012Y-108482108D01*
X175860487Y-108529352D01*
X175872231Y-108555067D01*
X175909900Y-108671000D01*
X175995830Y-108839647D01*
X176107085Y-108992776D01*
X176240924Y-109126615D01*
X176394053Y-109237870D01*
X176448800Y-109265765D01*
X176562695Y-109323798D01*
X176562697Y-109323798D01*
X176562700Y-109323800D01*
X176615104Y-109340827D01*
X176742713Y-109382290D01*
X176814494Y-109393659D01*
X176929661Y-109411900D01*
X176929662Y-109411900D01*
X177118938Y-109411900D01*
X177118939Y-109411900D01*
X177305886Y-109382290D01*
X177485900Y-109323800D01*
X177654547Y-109237870D01*
X177807676Y-109126615D01*
X177941515Y-108992776D01*
X178052770Y-108839647D01*
X178138700Y-108671000D01*
X178176369Y-108555067D01*
X178215807Y-108497391D01*
X178280165Y-108470193D01*
X178349012Y-108482108D01*
X178400487Y-108529352D01*
X178412231Y-108555067D01*
X178449900Y-108671000D01*
X178535830Y-108839647D01*
X178647085Y-108992776D01*
X178780924Y-109126615D01*
X178934053Y-109237870D01*
X178988800Y-109265765D01*
X179102695Y-109323798D01*
X179102697Y-109323798D01*
X179102700Y-109323800D01*
X179155104Y-109340827D01*
X179282713Y-109382290D01*
X179354494Y-109393659D01*
X179469661Y-109411900D01*
X179469662Y-109411900D01*
X179658938Y-109411900D01*
X179658939Y-109411900D01*
X179845886Y-109382290D01*
X180025900Y-109323800D01*
X180194547Y-109237870D01*
X180347676Y-109126615D01*
X180481515Y-108992776D01*
X180592770Y-108839647D01*
X180678700Y-108671000D01*
X180716369Y-108555067D01*
X180755807Y-108497391D01*
X180820165Y-108470193D01*
X180889012Y-108482108D01*
X180940487Y-108529352D01*
X180952231Y-108555067D01*
X180989900Y-108671000D01*
X181075830Y-108839647D01*
X181187085Y-108992776D01*
X181320924Y-109126615D01*
X181474053Y-109237870D01*
X181528800Y-109265765D01*
X181642695Y-109323798D01*
X181642697Y-109323798D01*
X181642700Y-109323800D01*
X181695104Y-109340827D01*
X181822713Y-109382290D01*
X181894494Y-109393659D01*
X182009661Y-109411900D01*
X182009662Y-109411900D01*
X182198938Y-109411900D01*
X182198939Y-109411900D01*
X182385886Y-109382290D01*
X182565900Y-109323800D01*
X182734547Y-109237870D01*
X182887676Y-109126615D01*
X183021515Y-108992776D01*
X183132770Y-108839647D01*
X183218700Y-108671000D01*
X183256369Y-108555067D01*
X183295807Y-108497391D01*
X183360165Y-108470193D01*
X183429012Y-108482108D01*
X183480487Y-108529352D01*
X183492231Y-108555067D01*
X183529900Y-108671000D01*
X183615830Y-108839647D01*
X183727085Y-108992776D01*
X183860924Y-109126615D01*
X184014053Y-109237870D01*
X184068800Y-109265765D01*
X184182695Y-109323798D01*
X184182697Y-109323798D01*
X184182700Y-109323800D01*
X184235104Y-109340827D01*
X184362713Y-109382290D01*
X184434494Y-109393659D01*
X184549661Y-109411900D01*
X184549662Y-109411900D01*
X184738937Y-109411900D01*
X184738939Y-109411900D01*
X184854103Y-109393659D01*
X184923395Y-109402613D01*
X184976847Y-109447609D01*
X184997487Y-109514361D01*
X184997500Y-109516132D01*
X184997500Y-110291258D01*
X184977815Y-110358297D01*
X184961181Y-110378939D01*
X183645439Y-111694681D01*
X183584116Y-111728166D01*
X183557758Y-111731000D01*
X183543655Y-111731000D01*
X183389010Y-111761761D01*
X183388998Y-111761764D01*
X183243327Y-111822102D01*
X183243314Y-111822109D01*
X183112211Y-111909710D01*
X183112207Y-111909713D01*
X183000713Y-112021207D01*
X183000710Y-112021211D01*
X182913109Y-112152314D01*
X182913102Y-112152327D01*
X182852764Y-112297998D01*
X182852761Y-112298010D01*
X182822000Y-112452653D01*
X182822000Y-112610346D01*
X182852761Y-112764989D01*
X182852764Y-112765001D01*
X182913102Y-112910672D01*
X182913109Y-112910685D01*
X183000710Y-113041788D01*
X183000712Y-113041791D01*
X183010678Y-113051756D01*
X183044165Y-113113078D01*
X183047000Y-113139440D01*
X183047000Y-119062758D01*
X183027315Y-119129797D01*
X183010681Y-119150439D01*
X181723588Y-120437531D01*
X181723490Y-120437629D01*
X181723335Y-120437785D01*
X181616185Y-120544935D01*
X181614653Y-120547587D01*
X181606909Y-120555412D01*
X181582881Y-120568692D01*
X181560707Y-120584878D01*
X181552741Y-120585351D01*
X181545758Y-120589211D01*
X181518364Y-120587392D01*
X181490960Y-120589020D01*
X181480462Y-120586112D01*
X181316240Y-120532753D01*
X181120240Y-120501710D01*
X181106287Y-120499500D01*
X180893713Y-120499500D01*
X180879760Y-120501710D01*
X180683760Y-120532753D01*
X180481585Y-120598444D01*
X180292179Y-120694951D01*
X180120215Y-120819889D01*
X179981398Y-120958706D01*
X179920075Y-120992190D01*
X179850383Y-120987206D01*
X179794450Y-120945334D01*
X179788178Y-120936120D01*
X179692712Y-120781344D01*
X179568657Y-120657289D01*
X179568656Y-120657288D01*
X179464185Y-120592850D01*
X179419336Y-120565187D01*
X179419331Y-120565185D01*
X179378159Y-120551542D01*
X179252797Y-120510001D01*
X179252795Y-120510000D01*
X179150010Y-120499500D01*
X177849998Y-120499500D01*
X177849981Y-120499501D01*
X177747203Y-120510000D01*
X177747200Y-120510001D01*
X177580668Y-120565185D01*
X177580663Y-120565187D01*
X177431342Y-120657289D01*
X177307289Y-120781342D01*
X177215187Y-120930663D01*
X177215185Y-120930668D01*
X177203083Y-120967190D01*
X177160001Y-121097203D01*
X177160001Y-121097204D01*
X177160000Y-121097204D01*
X177149500Y-121199983D01*
X177149500Y-122750001D01*
X177149501Y-122750018D01*
X177160000Y-122852796D01*
X177160001Y-122852799D01*
X177215185Y-123019331D01*
X177215187Y-123019336D01*
X177250069Y-123075888D01*
X177307288Y-123168656D01*
X177431344Y-123292712D01*
X177580666Y-123384814D01*
X177747203Y-123439999D01*
X177849991Y-123450500D01*
X179150008Y-123450499D01*
X179252797Y-123439999D01*
X179419334Y-123384814D01*
X179568656Y-123292712D01*
X179692712Y-123168656D01*
X179784814Y-123019334D01*
X179784814Y-123019331D01*
X179788178Y-123013879D01*
X179840126Y-122967154D01*
X179909088Y-122955931D01*
X179973170Y-122983774D01*
X179981398Y-122991294D01*
X180120213Y-123130109D01*
X180292179Y-123255048D01*
X180292181Y-123255049D01*
X180292184Y-123255051D01*
X180481588Y-123351557D01*
X180683757Y-123417246D01*
X180893713Y-123450500D01*
X180893714Y-123450500D01*
X181106286Y-123450500D01*
X181106287Y-123450500D01*
X181316243Y-123417246D01*
X181518412Y-123351557D01*
X181707816Y-123255051D01*
X181755931Y-123220094D01*
X181879786Y-123130109D01*
X181879788Y-123130106D01*
X181879792Y-123130104D01*
X182030104Y-122979792D01*
X182149991Y-122814779D01*
X182205320Y-122772115D01*
X182274933Y-122766136D01*
X182336729Y-122798741D01*
X182350627Y-122814781D01*
X182470272Y-122979459D01*
X182470276Y-122979464D01*
X182620535Y-123129723D01*
X182620540Y-123129727D01*
X182792442Y-123254620D01*
X182981782Y-123351095D01*
X183183871Y-123416757D01*
X183250000Y-123427231D01*
X183250000Y-122379145D01*
X183316657Y-122417630D01*
X183437465Y-122450000D01*
X183562535Y-122450000D01*
X183683343Y-122417630D01*
X183750000Y-122379145D01*
X183750000Y-123427230D01*
X183816126Y-123416757D01*
X183816129Y-123416757D01*
X184018217Y-123351095D01*
X184207557Y-123254620D01*
X184379459Y-123129727D01*
X184379464Y-123129723D01*
X184529723Y-122979464D01*
X184529727Y-122979459D01*
X184654620Y-122807557D01*
X184751095Y-122618217D01*
X184816757Y-122416130D01*
X184816757Y-122416127D01*
X184847030Y-122225000D01*
X183904146Y-122225000D01*
X183942630Y-122158343D01*
X183975000Y-122037535D01*
X183975000Y-121912465D01*
X183942630Y-121791657D01*
X183904146Y-121725000D01*
X184847030Y-121725000D01*
X184816757Y-121533872D01*
X184816757Y-121533869D01*
X184751095Y-121331782D01*
X184654620Y-121142442D01*
X184529727Y-120970540D01*
X184529723Y-120970535D01*
X184379464Y-120820276D01*
X184379459Y-120820272D01*
X184207557Y-120695379D01*
X184018215Y-120598903D01*
X183816124Y-120533241D01*
X183750000Y-120522768D01*
X183750000Y-121570854D01*
X183683343Y-121532370D01*
X183562535Y-121500000D01*
X183437465Y-121500000D01*
X183316657Y-121532370D01*
X183250000Y-121570854D01*
X183250000Y-120590242D01*
X183258644Y-120560801D01*
X183265168Y-120530815D01*
X183268922Y-120525799D01*
X183269685Y-120523203D01*
X183286319Y-120502561D01*
X184083012Y-119705868D01*
X184083014Y-119705866D01*
X184085745Y-119701137D01*
X184158781Y-119574635D01*
X184160790Y-119567137D01*
X184198000Y-119428267D01*
X184198000Y-119276734D01*
X184198000Y-113139440D01*
X184217685Y-113072401D01*
X184234322Y-113051756D01*
X184244287Y-113041791D01*
X184244289Y-113041789D01*
X184331894Y-112910679D01*
X184392237Y-112764997D01*
X184423000Y-112610342D01*
X184423000Y-112596242D01*
X184442685Y-112529203D01*
X184459319Y-112508561D01*
X185239714Y-111728166D01*
X186033515Y-110934365D01*
X186103573Y-110813021D01*
X186109281Y-110803135D01*
X186148500Y-110656766D01*
X186148500Y-86336134D01*
X186109281Y-86189765D01*
X186033515Y-86058535D01*
X185926365Y-85951385D01*
X183961065Y-83986085D01*
X183895450Y-83948202D01*
X183829836Y-83910319D01*
X183756650Y-83890709D01*
X183683466Y-83871100D01*
X177629166Y-83871100D01*
X177477633Y-83871100D01*
X177331263Y-83910319D01*
X177200035Y-83986085D01*
X177200032Y-83986087D01*
X176697938Y-84488181D01*
X176636615Y-84521666D01*
X176610257Y-84524500D01*
X175349998Y-84524500D01*
X175349981Y-84524501D01*
X175247203Y-84535000D01*
X175247200Y-84535001D01*
X175080668Y-84590185D01*
X175080663Y-84590187D01*
X174931342Y-84682289D01*
X174807289Y-84806342D01*
X174715187Y-84955663D01*
X174715185Y-84955668D01*
X174713350Y-84961206D01*
X174660001Y-85122203D01*
X174660001Y-85122204D01*
X174660000Y-85122204D01*
X174649500Y-85224983D01*
X174649500Y-86775001D01*
X174649501Y-86775018D01*
X174660000Y-86877796D01*
X174660001Y-86877799D01*
X174707729Y-87021831D01*
X174715186Y-87044334D01*
X174807288Y-87193656D01*
X174931344Y-87317712D01*
X175080666Y-87409814D01*
X175247203Y-87464999D01*
X175349991Y-87475500D01*
X176420958Y-87475499D01*
X176487997Y-87495183D01*
X176533752Y-87547987D01*
X176543696Y-87617146D01*
X176514671Y-87680702D01*
X176508639Y-87687180D01*
X172754735Y-91441085D01*
X172647587Y-91548232D01*
X172647585Y-91548235D01*
X172576746Y-91670932D01*
X172571819Y-91679465D01*
X172563786Y-91709446D01*
X172549083Y-91764318D01*
X172512718Y-91823978D01*
X172449871Y-91854507D01*
X172390990Y-91850155D01*
X172225888Y-91796510D01*
X172096178Y-91775966D01*
X172038939Y-91766900D01*
X171849661Y-91766900D01*
X171827174Y-91770461D01*
X171662713Y-91796509D01*
X171482695Y-91855001D01*
X171314052Y-91940930D01*
X171267995Y-91974393D01*
X171160924Y-92052185D01*
X171160922Y-92052187D01*
X171160921Y-92052187D01*
X171027087Y-92186021D01*
X171027087Y-92186022D01*
X171027085Y-92186024D01*
X170984163Y-92245101D01*
X170915830Y-92339152D01*
X170829901Y-92507795D01*
X170792231Y-92623733D01*
X170752793Y-92681408D01*
X170688434Y-92708606D01*
X170619588Y-92696691D01*
X170568112Y-92649447D01*
X170556369Y-92623733D01*
X170542127Y-92579900D01*
X170518700Y-92507800D01*
X170518698Y-92507797D01*
X170518698Y-92507795D01*
X170433200Y-92339997D01*
X170432770Y-92339153D01*
X170321515Y-92186024D01*
X170187676Y-92052185D01*
X170034547Y-91940930D01*
X169865904Y-91855001D01*
X169685886Y-91796509D01*
X169524499Y-91770948D01*
X169498939Y-91766900D01*
X169309661Y-91766900D01*
X169287174Y-91770461D01*
X169122713Y-91796509D01*
X168942695Y-91855001D01*
X168774052Y-91940930D01*
X168727995Y-91974393D01*
X168620924Y-92052185D01*
X168620922Y-92052187D01*
X168620921Y-92052187D01*
X168487087Y-92186021D01*
X168487087Y-92186022D01*
X168487085Y-92186024D01*
X168444163Y-92245101D01*
X168375830Y-92339152D01*
X168289901Y-92507795D01*
X168252231Y-92623733D01*
X168212793Y-92681408D01*
X168148434Y-92708606D01*
X168079588Y-92696691D01*
X168028112Y-92649447D01*
X168016369Y-92623733D01*
X168002127Y-92579900D01*
X167978700Y-92507800D01*
X167978698Y-92507797D01*
X167978698Y-92507795D01*
X167893200Y-92339997D01*
X167892770Y-92339153D01*
X167781515Y-92186024D01*
X167647676Y-92052185D01*
X167494547Y-91940930D01*
X167325904Y-91855001D01*
X167145886Y-91796509D01*
X166984499Y-91770948D01*
X166958939Y-91766900D01*
X166769661Y-91766900D01*
X166747174Y-91770461D01*
X166582713Y-91796509D01*
X166402695Y-91855001D01*
X166234052Y-91940930D01*
X166187995Y-91974393D01*
X166080924Y-92052185D01*
X166080922Y-92052187D01*
X166080921Y-92052187D01*
X165947087Y-92186021D01*
X165947087Y-92186022D01*
X165947085Y-92186024D01*
X165904163Y-92245101D01*
X165835830Y-92339152D01*
X165749901Y-92507795D01*
X165712231Y-92623733D01*
X165672793Y-92681408D01*
X165608434Y-92708606D01*
X165539588Y-92696691D01*
X165488112Y-92649447D01*
X165476369Y-92623733D01*
X165462127Y-92579900D01*
X165438700Y-92507800D01*
X165438698Y-92507797D01*
X165438698Y-92507795D01*
X165353200Y-92339997D01*
X165352770Y-92339153D01*
X165241515Y-92186024D01*
X165107676Y-92052185D01*
X164954547Y-91940930D01*
X164785904Y-91855001D01*
X164605886Y-91796509D01*
X164444499Y-91770948D01*
X164418939Y-91766900D01*
X164229661Y-91766900D01*
X164207174Y-91770461D01*
X164042713Y-91796509D01*
X163862695Y-91855001D01*
X163694052Y-91940930D01*
X163647995Y-91974393D01*
X163540924Y-92052185D01*
X163540922Y-92052187D01*
X163540921Y-92052187D01*
X163407087Y-92186021D01*
X163407087Y-92186022D01*
X163407085Y-92186024D01*
X163364163Y-92245101D01*
X163295830Y-92339152D01*
X163209901Y-92507795D01*
X163172231Y-92623733D01*
X163132793Y-92681408D01*
X163068434Y-92708606D01*
X162999588Y-92696691D01*
X162948112Y-92649447D01*
X162936369Y-92623733D01*
X162922127Y-92579900D01*
X162898700Y-92507800D01*
X162898698Y-92507797D01*
X162898698Y-92507795D01*
X162813200Y-92339997D01*
X162812770Y-92339153D01*
X162701515Y-92186024D01*
X162567676Y-92052185D01*
X162414547Y-91940930D01*
X162245904Y-91855001D01*
X162065886Y-91796509D01*
X161904499Y-91770948D01*
X161878939Y-91766900D01*
X161689661Y-91766900D01*
X161667174Y-91770461D01*
X161502713Y-91796509D01*
X161322695Y-91855001D01*
X161154052Y-91940930D01*
X161107995Y-91974393D01*
X161000924Y-92052185D01*
X161000922Y-92052187D01*
X161000921Y-92052187D01*
X160867087Y-92186021D01*
X160867087Y-92186022D01*
X160867085Y-92186024D01*
X160824163Y-92245101D01*
X160755830Y-92339152D01*
X160669901Y-92507795D01*
X160632231Y-92623733D01*
X160592793Y-92681408D01*
X160528434Y-92708606D01*
X160459588Y-92696691D01*
X160408112Y-92649447D01*
X160396369Y-92623733D01*
X160382127Y-92579900D01*
X160358700Y-92507800D01*
X160358698Y-92507797D01*
X160358698Y-92507795D01*
X160273200Y-92339997D01*
X160272770Y-92339153D01*
X160161515Y-92186024D01*
X160027676Y-92052185D01*
X159874547Y-91940930D01*
X159705904Y-91855001D01*
X159525886Y-91796509D01*
X159364499Y-91770948D01*
X159338939Y-91766900D01*
X159149661Y-91766900D01*
X159127174Y-91770461D01*
X158962713Y-91796509D01*
X158782695Y-91855001D01*
X158614052Y-91940930D01*
X158567995Y-91974393D01*
X158460924Y-92052185D01*
X158460922Y-92052187D01*
X158460921Y-92052187D01*
X158459881Y-92053228D01*
X158459388Y-92053496D01*
X158457220Y-92055349D01*
X158456830Y-92054893D01*
X158398558Y-92086713D01*
X158328866Y-92081729D01*
X158272933Y-92039857D01*
X158248516Y-91974393D01*
X158248200Y-91965547D01*
X158248200Y-88318742D01*
X158267885Y-88251703D01*
X158284519Y-88231061D01*
X158584745Y-87930835D01*
X158960515Y-87555065D01*
X159036281Y-87423835D01*
X159039487Y-87411868D01*
X159075849Y-87352207D01*
X159102965Y-87333474D01*
X159207816Y-87280051D01*
X159379792Y-87155104D01*
X159530104Y-87004792D01*
X159649991Y-86839779D01*
X159705320Y-86797115D01*
X159774933Y-86791136D01*
X159836729Y-86823741D01*
X159850627Y-86839781D01*
X159970272Y-87004459D01*
X159970276Y-87004464D01*
X160120535Y-87154723D01*
X160120540Y-87154727D01*
X160292442Y-87279620D01*
X160481782Y-87376095D01*
X160683871Y-87441757D01*
X160750000Y-87452231D01*
X160750000Y-86404145D01*
X160816657Y-86442630D01*
X160937465Y-86475000D01*
X161062535Y-86475000D01*
X161183343Y-86442630D01*
X161250000Y-86404145D01*
X161250000Y-87452230D01*
X161316126Y-87441757D01*
X161316129Y-87441757D01*
X161518217Y-87376095D01*
X161707557Y-87279620D01*
X161879459Y-87154727D01*
X161879464Y-87154723D01*
X162029723Y-87004464D01*
X162029727Y-87004459D01*
X162154620Y-86832557D01*
X162251095Y-86643217D01*
X162316757Y-86441130D01*
X162316757Y-86441127D01*
X162333503Y-86335400D01*
X165149500Y-86335400D01*
X165149500Y-86664600D01*
X165158158Y-86752508D01*
X165181765Y-86992201D01*
X165181768Y-86992218D01*
X165245984Y-87315066D01*
X165245987Y-87315077D01*
X165341552Y-87630112D01*
X165467528Y-87934244D01*
X165467535Y-87934258D01*
X165622707Y-88224567D01*
X165622718Y-88224585D01*
X165805601Y-88498289D01*
X165805611Y-88498303D01*
X166014453Y-88752777D01*
X166247222Y-88985546D01*
X166247227Y-88985550D01*
X166247228Y-88985551D01*
X166501702Y-89194393D01*
X166775421Y-89377286D01*
X167065749Y-89532469D01*
X167369889Y-89658448D01*
X167684913Y-89754010D01*
X167684919Y-89754011D01*
X167684922Y-89754012D01*
X167684933Y-89754015D01*
X167865361Y-89789903D01*
X168007787Y-89818233D01*
X168335400Y-89850500D01*
X168335403Y-89850500D01*
X168664597Y-89850500D01*
X168664600Y-89850500D01*
X168992213Y-89818233D01*
X169169760Y-89782916D01*
X169315066Y-89754015D01*
X169315077Y-89754012D01*
X169315077Y-89754011D01*
X169315087Y-89754010D01*
X169630111Y-89658448D01*
X169934251Y-89532469D01*
X170224579Y-89377286D01*
X170498298Y-89194393D01*
X170752772Y-88985551D01*
X170985551Y-88752772D01*
X171194393Y-88498298D01*
X171377286Y-88224579D01*
X171532469Y-87934251D01*
X171658448Y-87630111D01*
X171754010Y-87315087D01*
X171754012Y-87315077D01*
X171754015Y-87315066D01*
X171790308Y-87132604D01*
X171818233Y-86992213D01*
X171850500Y-86664600D01*
X171850500Y-86335400D01*
X171818233Y-86007787D01*
X171782679Y-85829042D01*
X171754015Y-85684933D01*
X171754012Y-85684922D01*
X171754011Y-85684919D01*
X171754010Y-85684913D01*
X171658448Y-85369889D01*
X171532469Y-85065749D01*
X171377286Y-84775421D01*
X171194393Y-84501702D01*
X170985551Y-84247228D01*
X170985550Y-84247227D01*
X170985546Y-84247222D01*
X170752777Y-84014453D01*
X170498303Y-83805611D01*
X170498302Y-83805610D01*
X170498298Y-83805607D01*
X170224579Y-83622714D01*
X170224574Y-83622711D01*
X170224567Y-83622707D01*
X169934258Y-83467535D01*
X169934251Y-83467531D01*
X169934244Y-83467528D01*
X169630112Y-83341552D01*
X169315077Y-83245987D01*
X169315066Y-83245984D01*
X168992218Y-83181768D01*
X168992213Y-83181767D01*
X168992211Y-83181766D01*
X168992201Y-83181765D01*
X168751522Y-83158061D01*
X168664600Y-83149500D01*
X168335400Y-83149500D01*
X168255540Y-83157365D01*
X168007798Y-83181765D01*
X168007781Y-83181768D01*
X167684933Y-83245984D01*
X167684922Y-83245987D01*
X167369887Y-83341552D01*
X167065755Y-83467528D01*
X167065741Y-83467535D01*
X166775432Y-83622707D01*
X166775414Y-83622718D01*
X166501710Y-83805601D01*
X166501696Y-83805611D01*
X166247222Y-84014453D01*
X166014453Y-84247222D01*
X165805611Y-84501696D01*
X165805601Y-84501710D01*
X165622718Y-84775414D01*
X165622707Y-84775432D01*
X165467535Y-85065741D01*
X165467528Y-85065755D01*
X165341552Y-85369887D01*
X165245987Y-85684922D01*
X165245984Y-85684933D01*
X165181768Y-86007781D01*
X165181765Y-86007798D01*
X165166750Y-86160257D01*
X165149500Y-86335400D01*
X162333503Y-86335400D01*
X162337058Y-86312958D01*
X162337058Y-86312957D01*
X162347030Y-86250000D01*
X161404146Y-86250000D01*
X161442630Y-86183343D01*
X161475000Y-86062535D01*
X161475000Y-85937465D01*
X161442630Y-85816657D01*
X161404146Y-85750000D01*
X162347030Y-85750000D01*
X162316757Y-85558872D01*
X162316757Y-85558869D01*
X162251095Y-85356782D01*
X162154620Y-85167442D01*
X162029727Y-84995540D01*
X162029723Y-84995535D01*
X161879464Y-84845276D01*
X161879459Y-84845272D01*
X161707557Y-84720379D01*
X161518215Y-84623903D01*
X161316124Y-84558241D01*
X161250000Y-84547768D01*
X161250000Y-85595854D01*
X161183343Y-85557370D01*
X161062535Y-85525000D01*
X160937465Y-85525000D01*
X160816657Y-85557370D01*
X160750000Y-85595854D01*
X160750000Y-84547768D01*
X160749999Y-84547768D01*
X160683875Y-84558241D01*
X160481784Y-84623903D01*
X160292442Y-84720379D01*
X160120540Y-84845272D01*
X160120535Y-84845276D01*
X159970276Y-84995535D01*
X159970272Y-84995540D01*
X159850627Y-85160218D01*
X159795297Y-85202884D01*
X159725684Y-85208863D01*
X159663889Y-85176257D01*
X159649991Y-85160218D01*
X159530109Y-84995214D01*
X159530105Y-84995209D01*
X159379786Y-84844890D01*
X159207820Y-84719951D01*
X159018414Y-84623444D01*
X159018413Y-84623443D01*
X159018412Y-84623443D01*
X158816243Y-84557754D01*
X158816241Y-84557753D01*
X158816240Y-84557753D01*
X158654957Y-84532208D01*
X158606287Y-84524500D01*
X158393713Y-84524500D01*
X158345042Y-84532208D01*
X158183760Y-84557753D01*
X157981585Y-84623444D01*
X157792179Y-84719951D01*
X157620215Y-84844889D01*
X157481398Y-84983706D01*
X157420075Y-85017190D01*
X157350383Y-85012206D01*
X157294450Y-84970334D01*
X157288178Y-84961120D01*
X157192712Y-84806344D01*
X157068657Y-84682289D01*
X157068656Y-84682288D01*
X156919334Y-84590186D01*
X156752797Y-84535001D01*
X156752795Y-84535000D01*
X156650010Y-84524500D01*
X155349998Y-84524500D01*
X155349981Y-84524501D01*
X155247203Y-84535000D01*
X155247200Y-84535001D01*
X155080668Y-84590185D01*
X155080663Y-84590187D01*
X154931342Y-84682289D01*
X154807289Y-84806342D01*
X154715187Y-84955663D01*
X154715185Y-84955668D01*
X154713350Y-84961206D01*
X154660001Y-85122203D01*
X154660001Y-85122204D01*
X154660000Y-85122204D01*
X154649500Y-85224983D01*
X154649500Y-86160257D01*
X154629815Y-86227296D01*
X154613181Y-86247938D01*
X152533635Y-88327485D01*
X152426487Y-88434632D01*
X152426485Y-88434635D01*
X152350719Y-88565863D01*
X152311500Y-88712234D01*
X152311500Y-91767599D01*
X152291815Y-91834638D01*
X152239011Y-91880393D01*
X152169853Y-91890337D01*
X152131205Y-91878084D01*
X152085904Y-91855001D01*
X151905886Y-91796509D01*
X151744499Y-91770948D01*
X151718939Y-91766900D01*
X151529661Y-91766900D01*
X151507174Y-91770461D01*
X151342713Y-91796509D01*
X151162695Y-91855001D01*
X150994052Y-91940930D01*
X150947995Y-91974393D01*
X150840924Y-92052185D01*
X150840922Y-92052187D01*
X150840921Y-92052187D01*
X150707087Y-92186021D01*
X150707087Y-92186022D01*
X150707085Y-92186024D01*
X150664163Y-92245101D01*
X150595830Y-92339152D01*
X150509901Y-92507795D01*
X150451409Y-92687813D01*
X150421800Y-92874761D01*
X150421800Y-93064038D01*
X150451409Y-93250986D01*
X150469645Y-93307108D01*
X150509900Y-93431000D01*
X150509901Y-93431002D01*
X150509902Y-93431004D01*
X150522863Y-93456443D01*
X150535758Y-93525113D01*
X150509480Y-93589853D01*
X150452373Y-93630109D01*
X150382567Y-93633100D01*
X150324697Y-93600417D01*
X150127619Y-93403339D01*
X150094134Y-93342016D01*
X150091300Y-93315658D01*
X150091300Y-93301555D01*
X150091299Y-93301553D01*
X150083116Y-93260413D01*
X150060537Y-93146903D01*
X150026214Y-93064039D01*
X150000197Y-93001227D01*
X150000190Y-93001214D01*
X149912589Y-92870111D01*
X149912586Y-92870107D01*
X149801092Y-92758613D01*
X149801088Y-92758610D01*
X149669985Y-92671009D01*
X149669972Y-92671002D01*
X149524301Y-92610664D01*
X149524289Y-92610661D01*
X149369645Y-92579900D01*
X149369642Y-92579900D01*
X149211958Y-92579900D01*
X149211955Y-92579900D01*
X149057310Y-92610661D01*
X149057298Y-92610664D01*
X148911627Y-92671002D01*
X148911614Y-92671009D01*
X148780511Y-92758610D01*
X148780507Y-92758613D01*
X148669013Y-92870107D01*
X148669010Y-92870111D01*
X148581409Y-93001214D01*
X148581402Y-93001227D01*
X148521064Y-93146898D01*
X148521061Y-93146910D01*
X148490300Y-93301553D01*
X148490300Y-93459246D01*
X148521061Y-93613889D01*
X148521064Y-93613901D01*
X148581402Y-93759572D01*
X148581409Y-93759585D01*
X148669010Y-93890688D01*
X148669013Y-93890692D01*
X148780507Y-94002186D01*
X148780511Y-94002189D01*
X148911614Y-94089790D01*
X148911627Y-94089797D01*
X149042231Y-94143894D01*
X149057303Y-94150137D01*
X149211953Y-94180899D01*
X149211956Y-94180900D01*
X149211958Y-94180900D01*
X149226058Y-94180900D01*
X149293097Y-94200585D01*
X149313739Y-94217219D01*
X149933781Y-94837260D01*
X149967266Y-94898583D01*
X149970100Y-94924941D01*
X149970100Y-96968358D01*
X149950415Y-97035397D01*
X149897611Y-97081152D01*
X149828453Y-97091096D01*
X149764897Y-97062071D01*
X149758419Y-97056039D01*
X143475519Y-90773139D01*
X143442034Y-90711816D01*
X143439200Y-90685458D01*
X143439200Y-90671355D01*
X143439199Y-90671353D01*
X143408438Y-90516710D01*
X143408437Y-90516703D01*
X143408435Y-90516698D01*
X143348097Y-90371027D01*
X143348090Y-90371014D01*
X143260489Y-90239911D01*
X143260486Y-90239907D01*
X143148992Y-90128413D01*
X143148988Y-90128410D01*
X143017885Y-90040809D01*
X143017872Y-90040802D01*
X142872201Y-89980464D01*
X142872189Y-89980461D01*
X142717545Y-89949700D01*
X142717542Y-89949700D01*
X142559858Y-89949700D01*
X142559855Y-89949700D01*
X142405210Y-89980461D01*
X142405198Y-89980464D01*
X142259527Y-90040802D01*
X142259514Y-90040809D01*
X142219691Y-90067419D01*
X142153014Y-90088297D01*
X142085633Y-90069813D01*
X142038943Y-90017834D01*
X142026800Y-89964317D01*
X142026800Y-89338441D01*
X142046485Y-89271402D01*
X142063114Y-89250765D01*
X143802062Y-87511816D01*
X143863383Y-87478333D01*
X143889731Y-87475499D01*
X145150008Y-87475499D01*
X145160542Y-87474423D01*
X145200707Y-87470320D01*
X145252797Y-87464999D01*
X145419334Y-87409814D01*
X145568656Y-87317712D01*
X145692712Y-87193656D01*
X145784814Y-87044334D01*
X145784814Y-87044331D01*
X145788178Y-87038879D01*
X145840126Y-86992154D01*
X145909088Y-86980931D01*
X145973170Y-87008774D01*
X145981398Y-87016294D01*
X146120213Y-87155109D01*
X146292179Y-87280048D01*
X146292181Y-87280049D01*
X146292184Y-87280051D01*
X146481588Y-87376557D01*
X146683757Y-87442246D01*
X146893713Y-87475500D01*
X146893714Y-87475500D01*
X147106286Y-87475500D01*
X147106287Y-87475500D01*
X147316243Y-87442246D01*
X147518412Y-87376557D01*
X147707816Y-87280051D01*
X147742721Y-87254691D01*
X147879786Y-87155109D01*
X147879788Y-87155106D01*
X147879792Y-87155104D01*
X148030104Y-87004792D01*
X148149991Y-86839779D01*
X148205320Y-86797115D01*
X148274933Y-86791136D01*
X148336729Y-86823741D01*
X148350627Y-86839781D01*
X148470272Y-87004459D01*
X148470276Y-87004464D01*
X148620535Y-87154723D01*
X148620540Y-87154727D01*
X148792442Y-87279620D01*
X148981782Y-87376095D01*
X149183871Y-87441757D01*
X149250000Y-87452231D01*
X149250000Y-86404145D01*
X149316657Y-86442630D01*
X149437465Y-86475000D01*
X149562535Y-86475000D01*
X149683343Y-86442630D01*
X149750000Y-86404145D01*
X149750000Y-87452230D01*
X149816126Y-87441757D01*
X149816129Y-87441757D01*
X150018217Y-87376095D01*
X150207557Y-87279620D01*
X150379459Y-87154727D01*
X150379464Y-87154723D01*
X150529723Y-87004464D01*
X150529727Y-87004459D01*
X150654620Y-86832557D01*
X150751095Y-86643217D01*
X150816757Y-86441130D01*
X150816757Y-86441127D01*
X150847030Y-86250000D01*
X149904146Y-86250000D01*
X149942630Y-86183343D01*
X149975000Y-86062535D01*
X149975000Y-85937465D01*
X149942630Y-85816657D01*
X149904146Y-85750000D01*
X150847030Y-85750000D01*
X150816757Y-85558872D01*
X150816757Y-85558869D01*
X150751095Y-85356782D01*
X150654620Y-85167442D01*
X150529727Y-84995540D01*
X150529723Y-84995535D01*
X150379464Y-84845276D01*
X150379459Y-84845272D01*
X150207557Y-84720379D01*
X150018215Y-84623903D01*
X149816124Y-84558241D01*
X149750000Y-84547768D01*
X149750000Y-85595854D01*
X149683343Y-85557370D01*
X149562535Y-85525000D01*
X149437465Y-85525000D01*
X149316657Y-85557370D01*
X149250000Y-85595854D01*
X149250000Y-84547768D01*
X149249999Y-84547768D01*
X149183875Y-84558241D01*
X148981784Y-84623903D01*
X148792442Y-84720379D01*
X148620540Y-84845272D01*
X148620535Y-84845276D01*
X148470276Y-84995535D01*
X148470272Y-84995540D01*
X148350627Y-85160218D01*
X148295297Y-85202884D01*
X148225684Y-85208863D01*
X148163889Y-85176257D01*
X148149991Y-85160218D01*
X148030109Y-84995214D01*
X148030105Y-84995209D01*
X147879786Y-84844890D01*
X147707820Y-84719951D01*
X147518414Y-84623444D01*
X147518413Y-84623443D01*
X147518412Y-84623443D01*
X147316243Y-84557754D01*
X147316241Y-84557753D01*
X147316240Y-84557753D01*
X147154957Y-84532208D01*
X147106287Y-84524500D01*
X146893713Y-84524500D01*
X146845042Y-84532208D01*
X146683760Y-84557753D01*
X146481585Y-84623444D01*
X146292179Y-84719951D01*
X146120215Y-84844889D01*
X145981398Y-84983706D01*
X145920075Y-85017190D01*
X145850383Y-85012206D01*
X145794450Y-84970334D01*
X145788178Y-84961120D01*
X145692712Y-84806344D01*
X145568657Y-84682289D01*
X145568656Y-84682288D01*
X145419334Y-84590186D01*
X145252797Y-84535001D01*
X145252795Y-84535000D01*
X145150010Y-84524500D01*
X143849998Y-84524500D01*
X143849981Y-84524501D01*
X143747203Y-84535000D01*
X143747200Y-84535001D01*
X143580668Y-84590185D01*
X143580663Y-84590187D01*
X143431342Y-84682289D01*
X143307289Y-84806342D01*
X143215187Y-84955663D01*
X143215185Y-84955668D01*
X143213350Y-84961206D01*
X143160001Y-85122203D01*
X143160001Y-85122204D01*
X143160000Y-85122204D01*
X143149500Y-85224983D01*
X143149500Y-86485257D01*
X143129815Y-86552296D01*
X143113181Y-86572938D01*
X141097935Y-88588185D01*
X140990787Y-88695332D01*
X140990785Y-88695335D01*
X140915019Y-88826563D01*
X140875800Y-88972934D01*
X140875800Y-91022659D01*
X140856115Y-91089698D01*
X140839481Y-91110340D01*
X140829513Y-91120307D01*
X140829510Y-91120311D01*
X140741909Y-91251414D01*
X140741902Y-91251427D01*
X140681564Y-91397098D01*
X140681561Y-91397110D01*
X140650800Y-91551753D01*
X140650800Y-91709446D01*
X140681561Y-91864089D01*
X140681564Y-91864101D01*
X140741902Y-92009772D01*
X140741909Y-92009785D01*
X140829510Y-92140888D01*
X140829513Y-92140892D01*
X140941007Y-92252386D01*
X140941011Y-92252389D01*
X141072114Y-92339990D01*
X141072127Y-92339997D01*
X141217798Y-92400335D01*
X141217803Y-92400337D01*
X141313639Y-92419400D01*
X141372453Y-92431099D01*
X141372456Y-92431100D01*
X141372458Y-92431100D01*
X141530144Y-92431100D01*
X141530145Y-92431099D01*
X141684797Y-92400337D01*
X141830479Y-92339994D01*
X141961589Y-92252389D01*
X142073089Y-92140889D01*
X142160694Y-92009779D01*
X142221037Y-91864097D01*
X142251800Y-91709442D01*
X142251800Y-91640517D01*
X142257301Y-91621782D01*
X142257848Y-91602262D01*
X142266943Y-91588945D01*
X142271485Y-91573478D01*
X142286240Y-91560692D01*
X142297255Y-91544566D01*
X142312104Y-91538281D01*
X142324289Y-91527723D01*
X142343616Y-91524943D01*
X142361599Y-91517333D01*
X142388821Y-91518444D01*
X142393447Y-91517779D01*
X142396879Y-91518322D01*
X142404462Y-91519630D01*
X142405203Y-91519937D01*
X142559858Y-91550700D01*
X142584573Y-91550700D01*
X142595037Y-91552505D01*
X142617253Y-91563413D01*
X142640997Y-91570385D01*
X142655880Y-91582378D01*
X142657755Y-91583299D01*
X142658448Y-91584448D01*
X142661639Y-91587019D01*
X144908103Y-93833483D01*
X144941588Y-93894806D01*
X144936604Y-93964498D01*
X144894732Y-94020431D01*
X144875927Y-94031143D01*
X144876191Y-94031636D01*
X144870814Y-94034509D01*
X144739711Y-94122110D01*
X144739707Y-94122113D01*
X144628213Y-94233607D01*
X144628210Y-94233611D01*
X144540609Y-94364714D01*
X144540602Y-94364727D01*
X144480264Y-94510398D01*
X144480261Y-94510410D01*
X144449500Y-94665053D01*
X144449500Y-94679158D01*
X144429815Y-94746197D01*
X144413181Y-94766839D01*
X143415587Y-95764432D01*
X143415585Y-95764435D01*
X143339819Y-95895663D01*
X143300600Y-96042034D01*
X143300600Y-111656697D01*
X143291161Y-111704149D01*
X143267363Y-111761601D01*
X143267360Y-111761611D01*
X143236600Y-111916253D01*
X143236600Y-112073946D01*
X143267361Y-112228589D01*
X143267364Y-112228601D01*
X143327702Y-112374272D01*
X143327709Y-112374285D01*
X143375804Y-112446264D01*
X143396682Y-112512942D01*
X143378197Y-112580322D01*
X143360383Y-112602836D01*
X135473335Y-120489885D01*
X135473334Y-120489886D01*
X135394874Y-120568344D01*
X135333551Y-120601829D01*
X135268876Y-120598593D01*
X135066240Y-120532753D01*
X134870240Y-120501710D01*
X134856287Y-120499500D01*
X134643713Y-120499500D01*
X134629760Y-120501710D01*
X134433760Y-120532753D01*
X134231585Y-120598444D01*
X134082495Y-120674409D01*
X134013825Y-120687305D01*
X133949085Y-120661028D01*
X133908828Y-120603922D01*
X133902200Y-120563924D01*
X133902200Y-112811853D01*
X139285200Y-112811853D01*
X139285200Y-112969546D01*
X139315961Y-113124189D01*
X139315964Y-113124201D01*
X139376302Y-113269872D01*
X139376309Y-113269885D01*
X139463910Y-113400988D01*
X139463913Y-113400992D01*
X139575407Y-113512486D01*
X139575411Y-113512489D01*
X139706514Y-113600090D01*
X139706527Y-113600097D01*
X139852198Y-113660435D01*
X139852203Y-113660437D01*
X139998809Y-113689599D01*
X140006853Y-113691199D01*
X140006856Y-113691200D01*
X140006858Y-113691200D01*
X140164544Y-113691200D01*
X140164545Y-113691199D01*
X140319197Y-113660437D01*
X140464879Y-113600094D01*
X140595989Y-113512489D01*
X140707489Y-113400989D01*
X140795094Y-113269879D01*
X140855437Y-113124197D01*
X140886200Y-112969542D01*
X140886200Y-112811858D01*
X140886200Y-112811855D01*
X140886199Y-112811853D01*
X140885881Y-112810253D01*
X140855437Y-112657203D01*
X140853879Y-112653441D01*
X140795097Y-112511527D01*
X140795090Y-112511514D01*
X140707489Y-112380411D01*
X140707486Y-112380407D01*
X140697519Y-112370440D01*
X140664034Y-112309117D01*
X140661200Y-112282759D01*
X140661200Y-102484242D01*
X140680885Y-102417203D01*
X140697519Y-102396561D01*
X141847361Y-101246719D01*
X141908684Y-101213234D01*
X141935042Y-101210400D01*
X141949144Y-101210400D01*
X141949145Y-101210399D01*
X142103797Y-101179637D01*
X142249479Y-101119294D01*
X142380589Y-101031689D01*
X142492089Y-100920189D01*
X142579694Y-100789079D01*
X142640037Y-100643397D01*
X142670800Y-100488742D01*
X142670800Y-100331058D01*
X142670800Y-100331055D01*
X142670799Y-100331053D01*
X142644427Y-100198475D01*
X142640037Y-100176403D01*
X142607226Y-100097189D01*
X142579697Y-100030727D01*
X142579690Y-100030714D01*
X142492089Y-99899611D01*
X142492086Y-99899607D01*
X142380592Y-99788113D01*
X142380588Y-99788110D01*
X142249485Y-99700509D01*
X142249472Y-99700502D01*
X142103801Y-99640164D01*
X142103789Y-99640161D01*
X141949145Y-99609400D01*
X141949142Y-99609400D01*
X141791458Y-99609400D01*
X141791455Y-99609400D01*
X141636810Y-99640161D01*
X141636798Y-99640164D01*
X141491127Y-99700502D01*
X141491114Y-99700509D01*
X141360011Y-99788110D01*
X141360007Y-99788113D01*
X141248513Y-99899607D01*
X141248510Y-99899611D01*
X141160909Y-100030714D01*
X141160902Y-100030727D01*
X141100564Y-100176398D01*
X141100561Y-100176410D01*
X141069800Y-100331053D01*
X141069800Y-100345158D01*
X141050115Y-100412197D01*
X141033481Y-100432839D01*
X139625187Y-101841132D01*
X139625185Y-101841135D01*
X139549419Y-101972363D01*
X139510200Y-102118734D01*
X139510200Y-112282759D01*
X139490515Y-112349798D01*
X139473881Y-112370440D01*
X139463913Y-112380407D01*
X139463910Y-112380411D01*
X139376309Y-112511514D01*
X139376302Y-112511527D01*
X139315964Y-112657198D01*
X139315961Y-112657210D01*
X139285200Y-112811853D01*
X133902200Y-112811853D01*
X133902200Y-102880942D01*
X133921885Y-102813903D01*
X133938519Y-102793261D01*
X136419561Y-100312219D01*
X136480884Y-100278734D01*
X136507242Y-100275900D01*
X136521344Y-100275900D01*
X136521345Y-100275899D01*
X136675997Y-100245137D01*
X136821679Y-100184794D01*
X136952789Y-100097189D01*
X137064289Y-99985689D01*
X137151894Y-99854579D01*
X137212237Y-99708897D01*
X137243000Y-99554242D01*
X137243000Y-99396558D01*
X137243000Y-99396555D01*
X137242999Y-99396553D01*
X137234266Y-99352650D01*
X137212237Y-99241903D01*
X137196080Y-99202896D01*
X137151897Y-99096227D01*
X137151890Y-99096214D01*
X137064289Y-98965111D01*
X137064286Y-98965107D01*
X136952792Y-98853613D01*
X136952788Y-98853610D01*
X136821685Y-98766009D01*
X136821672Y-98766002D01*
X136676001Y-98705664D01*
X136675989Y-98705661D01*
X136521345Y-98674900D01*
X136521342Y-98674900D01*
X136363658Y-98674900D01*
X136363655Y-98674900D01*
X136209010Y-98705661D01*
X136208998Y-98705664D01*
X136063327Y-98766002D01*
X136063314Y-98766009D01*
X135932211Y-98853610D01*
X135932207Y-98853613D01*
X135820713Y-98965107D01*
X135820710Y-98965111D01*
X135733109Y-99096214D01*
X135733102Y-99096227D01*
X135672764Y-99241898D01*
X135672761Y-99241910D01*
X135642000Y-99396553D01*
X135642000Y-99410658D01*
X135622315Y-99477697D01*
X135605681Y-99498339D01*
X132866187Y-102237832D01*
X132866185Y-102237835D01*
X132790419Y-102369063D01*
X132751200Y-102515434D01*
X132751200Y-120422178D01*
X132731515Y-120489217D01*
X132678711Y-120534972D01*
X132609553Y-120544916D01*
X132588883Y-120540109D01*
X132566251Y-120532755D01*
X132566244Y-120532754D01*
X132397471Y-120506023D01*
X132356287Y-120499500D01*
X132143713Y-120499500D01*
X132129760Y-120501710D01*
X131933760Y-120532753D01*
X131731585Y-120598444D01*
X131542179Y-120694951D01*
X131370215Y-120819889D01*
X131231398Y-120958706D01*
X131170075Y-120992190D01*
X131100383Y-120987206D01*
X131044450Y-120945334D01*
X131038178Y-120936120D01*
X130942712Y-120781344D01*
X130818657Y-120657289D01*
X130818656Y-120657288D01*
X130714185Y-120592850D01*
X130669336Y-120565187D01*
X130669331Y-120565185D01*
X130628159Y-120551542D01*
X130502797Y-120510001D01*
X130502795Y-120510000D01*
X130400010Y-120499500D01*
X129099998Y-120499500D01*
X129099981Y-120499501D01*
X128997203Y-120510000D01*
X128997200Y-120510001D01*
X128830668Y-120565185D01*
X128830663Y-120565187D01*
X128681342Y-120657289D01*
X128557289Y-120781342D01*
X128465187Y-120930663D01*
X128465185Y-120930668D01*
X128453083Y-120967190D01*
X128410001Y-121097203D01*
X128410001Y-121097204D01*
X128410000Y-121097204D01*
X128399500Y-121199983D01*
X126621208Y-121199983D01*
X126568279Y-121072203D01*
X126532469Y-120985749D01*
X126377286Y-120695421D01*
X126194393Y-120421702D01*
X125985551Y-120167228D01*
X125985550Y-120167227D01*
X125985546Y-120167222D01*
X125752777Y-119934453D01*
X125498303Y-119725611D01*
X125498302Y-119725610D01*
X125498298Y-119725607D01*
X125224579Y-119542714D01*
X125224574Y-119542711D01*
X125224567Y-119542707D01*
X124993479Y-119419189D01*
X124934251Y-119387531D01*
X124833692Y-119345878D01*
X124630112Y-119261552D01*
X124315077Y-119165987D01*
X124315066Y-119165984D01*
X123992218Y-119101768D01*
X123992213Y-119101767D01*
X123992211Y-119101766D01*
X123992201Y-119101765D01*
X123751522Y-119078061D01*
X123664600Y-119069500D01*
X123335400Y-119069500D01*
X123255540Y-119077365D01*
X123007798Y-119101765D01*
X123007781Y-119101768D01*
X122684933Y-119165984D01*
X122684922Y-119165987D01*
X122369887Y-119261552D01*
X122065755Y-119387528D01*
X122065741Y-119387535D01*
X121775432Y-119542707D01*
X121775414Y-119542718D01*
X121501710Y-119725601D01*
X121501696Y-119725611D01*
X121247222Y-119934453D01*
X121014453Y-120167222D01*
X120805611Y-120421696D01*
X120805601Y-120421710D01*
X120622718Y-120695414D01*
X120622707Y-120695432D01*
X120467535Y-120985741D01*
X120467528Y-120985755D01*
X120341552Y-121289887D01*
X120245987Y-121604922D01*
X120245984Y-121604933D01*
X120181768Y-121927781D01*
X120181765Y-121927798D01*
X120167740Y-122070201D01*
X120149500Y-122255400D01*
X118596681Y-122255400D01*
X118600500Y-122231287D01*
X118600500Y-121718713D01*
X118567246Y-121508757D01*
X118501557Y-121306588D01*
X118405051Y-121117184D01*
X118405049Y-121117181D01*
X118405048Y-121117179D01*
X118280109Y-120945213D01*
X118129786Y-120794890D01*
X117957820Y-120669951D01*
X117768414Y-120573444D01*
X117768413Y-120573443D01*
X117768412Y-120573443D01*
X117566243Y-120507754D01*
X117566241Y-120507753D01*
X117566240Y-120507753D01*
X117404957Y-120482208D01*
X117356287Y-120474500D01*
X117143713Y-120474500D01*
X117095042Y-120482208D01*
X116933760Y-120507753D01*
X116834179Y-120540109D01*
X116745635Y-120568879D01*
X116731585Y-120573444D01*
X116542179Y-120669951D01*
X116370215Y-120794889D01*
X116231398Y-120933706D01*
X116170075Y-120967190D01*
X116100383Y-120962206D01*
X116044450Y-120920334D01*
X116038178Y-120911120D01*
X115954485Y-120775432D01*
X115942712Y-120756344D01*
X115818656Y-120632288D01*
X115704741Y-120562025D01*
X115669336Y-120540187D01*
X115669331Y-120540185D01*
X115646909Y-120532755D01*
X115502797Y-120485001D01*
X115502795Y-120485000D01*
X115400010Y-120474500D01*
X114099998Y-120474500D01*
X114099981Y-120474501D01*
X113997203Y-120485000D01*
X113997200Y-120485001D01*
X113830668Y-120540185D01*
X113830663Y-120540187D01*
X113681342Y-120632289D01*
X113557289Y-120756342D01*
X113465187Y-120905663D01*
X113465185Y-120905668D01*
X113443689Y-120970540D01*
X113410001Y-121072203D01*
X113410001Y-121072204D01*
X113410000Y-121072204D01*
X113399500Y-121174983D01*
X109434501Y-121174983D01*
X109405051Y-121117184D01*
X109405049Y-121117181D01*
X109405048Y-121117179D01*
X109280109Y-120945213D01*
X109129786Y-120794890D01*
X108957820Y-120669951D01*
X108768414Y-120573444D01*
X108768413Y-120573443D01*
X108768412Y-120573443D01*
X108566243Y-120507754D01*
X108566241Y-120507753D01*
X108566240Y-120507753D01*
X108404957Y-120482208D01*
X108356287Y-120474500D01*
X108143713Y-120474500D01*
X108095042Y-120482208D01*
X107933760Y-120507753D01*
X107834179Y-120540109D01*
X107745635Y-120568879D01*
X107731585Y-120573444D01*
X107542179Y-120669951D01*
X107370215Y-120794889D01*
X107231398Y-120933706D01*
X107170075Y-120967190D01*
X107100383Y-120962206D01*
X107044450Y-120920334D01*
X107038178Y-120911120D01*
X106954485Y-120775432D01*
X106942712Y-120756344D01*
X106818656Y-120632288D01*
X106704741Y-120562025D01*
X106669336Y-120540187D01*
X106669331Y-120540185D01*
X106646909Y-120532755D01*
X106502797Y-120485001D01*
X106502794Y-120485000D01*
X106439097Y-120478493D01*
X106374405Y-120452097D01*
X106334254Y-120394916D01*
X106327700Y-120355135D01*
X106327700Y-87572588D01*
X106347385Y-87505549D01*
X106400189Y-87459794D01*
X106439097Y-87449230D01*
X106504997Y-87442499D01*
X106671534Y-87387314D01*
X106820856Y-87295212D01*
X106944912Y-87171156D01*
X107037014Y-87021834D01*
X107037014Y-87021831D01*
X107040378Y-87016379D01*
X107092326Y-86969654D01*
X107161288Y-86958431D01*
X107225370Y-86986274D01*
X107233598Y-86993794D01*
X107372413Y-87132609D01*
X107544379Y-87257548D01*
X107544381Y-87257549D01*
X107544384Y-87257551D01*
X107733788Y-87354057D01*
X107935957Y-87419746D01*
X108145913Y-87453000D01*
X108145914Y-87453000D01*
X108358486Y-87453000D01*
X108358487Y-87453000D01*
X108568443Y-87419746D01*
X108770612Y-87354057D01*
X108960016Y-87257551D01*
X108981989Y-87241586D01*
X109131986Y-87132609D01*
X109131988Y-87132606D01*
X109131992Y-87132604D01*
X109282304Y-86982292D01*
X109401883Y-86817704D01*
X109457211Y-86775040D01*
X109526824Y-86769061D01*
X109588620Y-86801666D01*
X109602513Y-86817699D01*
X109646178Y-86877799D01*
X109722096Y-86982292D01*
X109872413Y-87132609D01*
X110044379Y-87257548D01*
X110044381Y-87257549D01*
X110044384Y-87257551D01*
X110233788Y-87354057D01*
X110435957Y-87419746D01*
X110645913Y-87453000D01*
X110645914Y-87453000D01*
X110858486Y-87453000D01*
X110858487Y-87453000D01*
X111068443Y-87419746D01*
X111270612Y-87354057D01*
X111460016Y-87257551D01*
X111481989Y-87241586D01*
X111631986Y-87132609D01*
X111631988Y-87132606D01*
X111631992Y-87132604D01*
X111782304Y-86982292D01*
X111901883Y-86817704D01*
X111957211Y-86775040D01*
X112026824Y-86769061D01*
X112088620Y-86801666D01*
X112102513Y-86817699D01*
X112146178Y-86877799D01*
X112222096Y-86982292D01*
X112372413Y-87132609D01*
X112544379Y-87257548D01*
X112544381Y-87257549D01*
X112544384Y-87257551D01*
X112733788Y-87354057D01*
X112935957Y-87419746D01*
X113145913Y-87453000D01*
X113145914Y-87453000D01*
X113358486Y-87453000D01*
X113358487Y-87453000D01*
X113568443Y-87419746D01*
X113770612Y-87354057D01*
X113960016Y-87257551D01*
X113981989Y-87241586D01*
X114131986Y-87132609D01*
X114131988Y-87132606D01*
X114131992Y-87132604D01*
X114282304Y-86982292D01*
X114282306Y-86982288D01*
X114282309Y-86982286D01*
X114407248Y-86810320D01*
X114407247Y-86810320D01*
X114407251Y-86810316D01*
X114503757Y-86620912D01*
X114569446Y-86418743D01*
X114602700Y-86208787D01*
X114602700Y-85746213D01*
X114569446Y-85536257D01*
X114503757Y-85334088D01*
X114501776Y-85330200D01*
X114475246Y-85278130D01*
X114475245Y-85278129D01*
X114448165Y-85224983D01*
X120649500Y-85224983D01*
X120649500Y-86775001D01*
X120649501Y-86775018D01*
X120660000Y-86877796D01*
X120660001Y-86877799D01*
X120707729Y-87021831D01*
X120715186Y-87044334D01*
X120807288Y-87193656D01*
X120931344Y-87317712D01*
X121080666Y-87409814D01*
X121247203Y-87464999D01*
X121349991Y-87475500D01*
X122650008Y-87475499D01*
X122660542Y-87474423D01*
X122700707Y-87470320D01*
X122752797Y-87464999D01*
X122919334Y-87409814D01*
X123068656Y-87317712D01*
X123192712Y-87193656D01*
X123284814Y-87044334D01*
X123339999Y-86877797D01*
X123350500Y-86775009D01*
X123350499Y-85768713D01*
X125649500Y-85768713D01*
X125649500Y-86231286D01*
X125682735Y-86441127D01*
X125682754Y-86441243D01*
X125741132Y-86620912D01*
X125748444Y-86643414D01*
X125844951Y-86832820D01*
X125969890Y-87004786D01*
X126120213Y-87155109D01*
X126292179Y-87280048D01*
X126292181Y-87280049D01*
X126292184Y-87280051D01*
X126481588Y-87376557D01*
X126683757Y-87442246D01*
X126893713Y-87475500D01*
X126893714Y-87475500D01*
X127106286Y-87475500D01*
X127106287Y-87475500D01*
X127316243Y-87442246D01*
X127518412Y-87376557D01*
X127707816Y-87280051D01*
X127742721Y-87254691D01*
X127879786Y-87155109D01*
X127879788Y-87155106D01*
X127879792Y-87155104D01*
X128030104Y-87004792D01*
X128149683Y-86840204D01*
X128205011Y-86797540D01*
X128274624Y-86791561D01*
X128336420Y-86824166D01*
X128350313Y-86840199D01*
X128436213Y-86958431D01*
X128469896Y-87004792D01*
X128620213Y-87155109D01*
X128792179Y-87280048D01*
X128792181Y-87280049D01*
X128792184Y-87280051D01*
X128981588Y-87376557D01*
X129183757Y-87442246D01*
X129393713Y-87475500D01*
X129393714Y-87475500D01*
X129606286Y-87475500D01*
X129606287Y-87475500D01*
X129816243Y-87442246D01*
X130018412Y-87376557D01*
X130207816Y-87280051D01*
X130242721Y-87254691D01*
X130379786Y-87155109D01*
X130379788Y-87155106D01*
X130379792Y-87155104D01*
X130530104Y-87004792D01*
X130530106Y-87004788D01*
X130530109Y-87004786D01*
X130655048Y-86832820D01*
X130655047Y-86832820D01*
X130655051Y-86832816D01*
X130751557Y-86643412D01*
X130817246Y-86441243D01*
X130817265Y-86441127D01*
X130833894Y-86336134D01*
X130834010Y-86335400D01*
X133649500Y-86335400D01*
X133649500Y-86664600D01*
X133658158Y-86752508D01*
X133681765Y-86992201D01*
X133681768Y-86992218D01*
X133745984Y-87315066D01*
X133745987Y-87315077D01*
X133841552Y-87630112D01*
X133967528Y-87934244D01*
X133967535Y-87934258D01*
X134122707Y-88224567D01*
X134122718Y-88224585D01*
X134305601Y-88498289D01*
X134305611Y-88498303D01*
X134514453Y-88752777D01*
X134747222Y-88985546D01*
X134747227Y-88985550D01*
X134747228Y-88985551D01*
X135001702Y-89194393D01*
X135275421Y-89377286D01*
X135565749Y-89532469D01*
X135869889Y-89658448D01*
X136184913Y-89754010D01*
X136184919Y-89754011D01*
X136184922Y-89754012D01*
X136184933Y-89754015D01*
X136365361Y-89789903D01*
X136507787Y-89818233D01*
X136835400Y-89850500D01*
X136835403Y-89850500D01*
X137164597Y-89850500D01*
X137164600Y-89850500D01*
X137492213Y-89818233D01*
X137669760Y-89782916D01*
X137815066Y-89754015D01*
X137815077Y-89754012D01*
X137815077Y-89754011D01*
X137815087Y-89754010D01*
X138130111Y-89658448D01*
X138434251Y-89532469D01*
X138724579Y-89377286D01*
X138998298Y-89194393D01*
X139252772Y-88985551D01*
X139485551Y-88752772D01*
X139694393Y-88498298D01*
X139877286Y-88224579D01*
X140032469Y-87934251D01*
X140158448Y-87630111D01*
X140254010Y-87315087D01*
X140254012Y-87315077D01*
X140254015Y-87315066D01*
X140290308Y-87132604D01*
X140318233Y-86992213D01*
X140350500Y-86664600D01*
X140350500Y-86335400D01*
X140318233Y-86007787D01*
X140282679Y-85829042D01*
X140254015Y-85684933D01*
X140254012Y-85684922D01*
X140254011Y-85684919D01*
X140254010Y-85684913D01*
X140158448Y-85369889D01*
X140032469Y-85065749D01*
X139877286Y-84775421D01*
X139694393Y-84501702D01*
X139485551Y-84247228D01*
X139485550Y-84247227D01*
X139485546Y-84247222D01*
X139252777Y-84014453D01*
X138998303Y-83805611D01*
X138998302Y-83805610D01*
X138998298Y-83805607D01*
X138724579Y-83622714D01*
X138724574Y-83622711D01*
X138724567Y-83622707D01*
X138434258Y-83467535D01*
X138434251Y-83467531D01*
X138434244Y-83467528D01*
X138130112Y-83341552D01*
X137815077Y-83245987D01*
X137815066Y-83245984D01*
X137492218Y-83181768D01*
X137492213Y-83181767D01*
X137492211Y-83181766D01*
X137492201Y-83181765D01*
X137251522Y-83158061D01*
X137164600Y-83149500D01*
X136835400Y-83149500D01*
X136755540Y-83157365D01*
X136507798Y-83181765D01*
X136507781Y-83181768D01*
X136184933Y-83245984D01*
X136184922Y-83245987D01*
X135869887Y-83341552D01*
X135565755Y-83467528D01*
X135565741Y-83467535D01*
X135275432Y-83622707D01*
X135275414Y-83622718D01*
X135001710Y-83805601D01*
X135001696Y-83805611D01*
X134747222Y-84014453D01*
X134514453Y-84247222D01*
X134305611Y-84501696D01*
X134305601Y-84501710D01*
X134122718Y-84775414D01*
X134122707Y-84775432D01*
X133967535Y-85065741D01*
X133967528Y-85065755D01*
X133841552Y-85369887D01*
X133745987Y-85684922D01*
X133745984Y-85684933D01*
X133681768Y-86007781D01*
X133681765Y-86007798D01*
X133666750Y-86160257D01*
X133649500Y-86335400D01*
X130834010Y-86335400D01*
X130850500Y-86231287D01*
X130850500Y-85768713D01*
X130817246Y-85558757D01*
X130751557Y-85356588D01*
X130655051Y-85167184D01*
X130655049Y-85167181D01*
X130655048Y-85167179D01*
X130530109Y-84995213D01*
X130379786Y-84844890D01*
X130207820Y-84719951D01*
X130018414Y-84623444D01*
X130018413Y-84623443D01*
X130018412Y-84623443D01*
X129816243Y-84557754D01*
X129816241Y-84557753D01*
X129816240Y-84557753D01*
X129654957Y-84532208D01*
X129606287Y-84524500D01*
X129393713Y-84524500D01*
X129345042Y-84532208D01*
X129183760Y-84557753D01*
X128981585Y-84623444D01*
X128792179Y-84719951D01*
X128620213Y-84844890D01*
X128469894Y-84995209D01*
X128469890Y-84995214D01*
X128350318Y-85159793D01*
X128294989Y-85202459D01*
X128225375Y-85208438D01*
X128163580Y-85175833D01*
X128149682Y-85159793D01*
X128030109Y-84995214D01*
X128030105Y-84995209D01*
X127879786Y-84844890D01*
X127707820Y-84719951D01*
X127518414Y-84623444D01*
X127518413Y-84623443D01*
X127518412Y-84623443D01*
X127316243Y-84557754D01*
X127316241Y-84557753D01*
X127316240Y-84557753D01*
X127154957Y-84532208D01*
X127106287Y-84524500D01*
X126893713Y-84524500D01*
X126845042Y-84532208D01*
X126683760Y-84557753D01*
X126481585Y-84623444D01*
X126292179Y-84719951D01*
X126120213Y-84844890D01*
X125969890Y-84995213D01*
X125844951Y-85167179D01*
X125748444Y-85356585D01*
X125682753Y-85558760D01*
X125649500Y-85768713D01*
X123350499Y-85768713D01*
X123350499Y-85224992D01*
X123348851Y-85208863D01*
X123339999Y-85122203D01*
X123339998Y-85122200D01*
X123284814Y-84955666D01*
X123192712Y-84806344D01*
X123068656Y-84682288D01*
X122919334Y-84590186D01*
X122752797Y-84535001D01*
X122752795Y-84535000D01*
X122650010Y-84524500D01*
X121349998Y-84524500D01*
X121349981Y-84524501D01*
X121247203Y-84535000D01*
X121247200Y-84535001D01*
X121080668Y-84590185D01*
X121080663Y-84590187D01*
X120931342Y-84682289D01*
X120807289Y-84806342D01*
X120715187Y-84955663D01*
X120715185Y-84955668D01*
X120713350Y-84961206D01*
X120660001Y-85122203D01*
X120660001Y-85122204D01*
X120660000Y-85122204D01*
X120649500Y-85224983D01*
X114448165Y-85224983D01*
X114436701Y-85202483D01*
X114407251Y-85144684D01*
X114399223Y-85133634D01*
X114282309Y-84972713D01*
X114131986Y-84822390D01*
X113960020Y-84697451D01*
X113770614Y-84600944D01*
X113770613Y-84600943D01*
X113770612Y-84600943D01*
X113568443Y-84535254D01*
X113568441Y-84535253D01*
X113568440Y-84535253D01*
X113407157Y-84509708D01*
X113358487Y-84502000D01*
X113145913Y-84502000D01*
X113097242Y-84509708D01*
X112935960Y-84535253D01*
X112935957Y-84535254D01*
X112766895Y-84590186D01*
X112733785Y-84600944D01*
X112544379Y-84697451D01*
X112372413Y-84822390D01*
X112222094Y-84972709D01*
X112222090Y-84972714D01*
X112102518Y-85137293D01*
X112047189Y-85179959D01*
X111977575Y-85185938D01*
X111915780Y-85153333D01*
X111901882Y-85137293D01*
X111782309Y-84972714D01*
X111782305Y-84972709D01*
X111631986Y-84822390D01*
X111460020Y-84697451D01*
X111270614Y-84600944D01*
X111270613Y-84600943D01*
X111270612Y-84600943D01*
X111068443Y-84535254D01*
X111068441Y-84535253D01*
X111068440Y-84535253D01*
X110907157Y-84509708D01*
X110858487Y-84502000D01*
X110645913Y-84502000D01*
X110597242Y-84509708D01*
X110435960Y-84535253D01*
X110435957Y-84535254D01*
X110266895Y-84590186D01*
X110233785Y-84600944D01*
X110044379Y-84697451D01*
X109872413Y-84822390D01*
X109722094Y-84972709D01*
X109722090Y-84972714D01*
X109602518Y-85137293D01*
X109547189Y-85179959D01*
X109477575Y-85185938D01*
X109415780Y-85153333D01*
X109401882Y-85137293D01*
X109282309Y-84972714D01*
X109282305Y-84972709D01*
X109131986Y-84822390D01*
X108960020Y-84697451D01*
X108770614Y-84600944D01*
X108770613Y-84600943D01*
X108770612Y-84600943D01*
X108568443Y-84535254D01*
X108568441Y-84535253D01*
X108568440Y-84535253D01*
X108407157Y-84509708D01*
X108358487Y-84502000D01*
X108145913Y-84502000D01*
X108097242Y-84509708D01*
X107935960Y-84535253D01*
X107935957Y-84535254D01*
X107766895Y-84590186D01*
X107733785Y-84600944D01*
X107544379Y-84697451D01*
X107372415Y-84822389D01*
X107233598Y-84961206D01*
X107172275Y-84994690D01*
X107102583Y-84989706D01*
X107046650Y-84947834D01*
X107040378Y-84938620D01*
X106944912Y-84783844D01*
X106820857Y-84659789D01*
X106820856Y-84659788D01*
X106671534Y-84567686D01*
X106504997Y-84512501D01*
X106504995Y-84512500D01*
X106402210Y-84502000D01*
X105102198Y-84502000D01*
X105102181Y-84502001D01*
X104999403Y-84512500D01*
X104999400Y-84512501D01*
X104832868Y-84567685D01*
X104832863Y-84567687D01*
X104683542Y-84659789D01*
X104559489Y-84783842D01*
X104467387Y-84933163D01*
X104467385Y-84933168D01*
X104458123Y-84961120D01*
X104412201Y-85099703D01*
X104412201Y-85099704D01*
X104412200Y-85099704D01*
X104401700Y-85202483D01*
X104401700Y-86752501D01*
X104401701Y-86752518D01*
X104412200Y-86855296D01*
X104412201Y-86855299D01*
X104457572Y-86992218D01*
X104467386Y-87021834D01*
X104559488Y-87171156D01*
X104683544Y-87295212D01*
X104832866Y-87387314D01*
X104999403Y-87442499D01*
X105065303Y-87449231D01*
X105129994Y-87475627D01*
X105170145Y-87532807D01*
X105176700Y-87572589D01*
X105176700Y-120354686D01*
X105157015Y-120421725D01*
X105104211Y-120467480D01*
X105065302Y-120478044D01*
X104997202Y-120485001D01*
X104997200Y-120485001D01*
X104830668Y-120540185D01*
X104830663Y-120540187D01*
X104681342Y-120632289D01*
X104557289Y-120756342D01*
X104465187Y-120905663D01*
X104465185Y-120905668D01*
X104443689Y-120970540D01*
X104410001Y-121072203D01*
X104410001Y-121072204D01*
X104410000Y-121072204D01*
X104399500Y-121174983D01*
X100250500Y-121174983D01*
X100250500Y-76655122D01*
X100270185Y-76588083D01*
X100286819Y-76567441D01*
X102567441Y-74286819D01*
X102628764Y-74253334D01*
X102655122Y-74250500D01*
X184844877Y-74250500D01*
X184911916Y-74270185D01*
G37*
%TD.AperFunction*%
%TD*%
M02*
