%TF.GenerationSoftware,KiCad,Pcbnew,9.0.5*%
%TF.CreationDate,2025-12-05T21:51:27-08:00*%
%TF.ProjectId,ArmRobotBoardTeensy,41726d52-6f62-46f7-9442-6f6172645465,rev?*%
%TF.SameCoordinates,Original*%
%TF.FileFunction,Copper,L2,Bot*%
%TF.FilePolarity,Positive*%
%FSLAX46Y46*%
G04 Gerber Fmt 4.6, Leading zero omitted, Abs format (unit mm)*
G04 Created by KiCad (PCBNEW 9.0.5) date 2025-12-05 21:51:27*
%MOMM*%
%LPD*%
G01*
G04 APERTURE LIST*
G04 Aperture macros list*
%AMRoundRect*
0 Rectangle with rounded corners*
0 $1 Rounding radius*
0 $2 $3 $4 $5 $6 $7 $8 $9 X,Y pos of 4 corners*
0 Add a 4 corners polygon primitive as box body*
4,1,4,$2,$3,$4,$5,$6,$7,$8,$9,$2,$3,0*
0 Add four circle primitives for the rounded corners*
1,1,$1+$1,$2,$3*
1,1,$1+$1,$4,$5*
1,1,$1+$1,$6,$7*
1,1,$1+$1,$8,$9*
0 Add four rect primitives between the rounded corners*
20,1,$1+$1,$2,$3,$4,$5,0*
20,1,$1+$1,$4,$5,$6,$7,0*
20,1,$1+$1,$6,$7,$8,$9,0*
20,1,$1+$1,$8,$9,$2,$3,0*%
G04 Aperture macros list end*
%TA.AperFunction,ComponentPad*%
%ADD10O,1.700000X1.950000*%
%TD*%
%TA.AperFunction,ComponentPad*%
%ADD11RoundRect,0.250000X-0.600000X-0.725000X0.600000X-0.725000X0.600000X0.725000X-0.600000X0.725000X0*%
%TD*%
%TA.AperFunction,ComponentPad*%
%ADD12O,1.700000X2.000000*%
%TD*%
%TA.AperFunction,ComponentPad*%
%ADD13RoundRect,0.250000X-0.600000X-0.750000X0.600000X-0.750000X0.600000X0.750000X-0.600000X0.750000X0*%
%TD*%
%TA.AperFunction,ComponentPad*%
%ADD14C,1.404000*%
%TD*%
%TA.AperFunction,ComponentPad*%
%ADD15C,1.304000*%
%TD*%
%TA.AperFunction,ComponentPad*%
%ADD16C,0.804000*%
%TD*%
%TA.AperFunction,ComponentPad*%
%ADD17C,5.700000*%
%TD*%
%TA.AperFunction,ViaPad*%
%ADD18C,0.600000*%
%TD*%
%TA.AperFunction,Conductor*%
%ADD19C,0.150000*%
%TD*%
G04 APERTURE END LIST*
D10*
%TO.P,J2,4,Pin_4*%
%TO.N,B*%
X129500000Y-86000000D03*
%TO.P,J2,3,Pin_3*%
%TO.N,A*%
X127000000Y-86000000D03*
%TO.P,J2,2,Pin_2*%
%TO.N,GND*%
X124500000Y-86000000D03*
D11*
%TO.P,J2,1,Pin_1*%
%TO.N,+3.3V*%
X122000000Y-86000000D03*
%TD*%
D12*
%TO.P,J7,2,Pin_2*%
%TO.N,Net-(J6-Pin_2)*%
X117250000Y-121975000D03*
D13*
%TO.P,J7,1,Pin_1*%
%TO.N,+3.3V*%
X114750000Y-121975000D03*
%TD*%
D14*
%TO.P,U1,1,GND*%
%TO.N,GND*%
X184644300Y-92969400D03*
%TO.P,U1,2,0_RX1_CRX2_CS1*%
%TO.N,PWM1EN*%
X182104300Y-92969400D03*
%TO.P,U1,3,1_TX1_CTX2_MISO1*%
%TO.N,RPWM1*%
X179564300Y-92969400D03*
%TO.P,U1,4,2_OUT2*%
%TO.N,A*%
X177024300Y-92969400D03*
%TO.P,U1,5,3_LRCLK2*%
%TO.N,LPWM1*%
X174484300Y-92969400D03*
%TO.P,U1,6,4_BCLK2*%
%TO.N,PWM2VT*%
X171944300Y-92969400D03*
%TO.P,U1,7,5_IN2*%
%TO.N,B*%
X169404300Y-92969400D03*
%TO.P,U1,8,6_OUT1D*%
%TO.N,PWM2EN*%
X166864300Y-92969400D03*
%TO.P,U1,9,7_RX2_OUT1A*%
%TO.N,RPWM2*%
X164324300Y-92969400D03*
%TO.P,U1,10,8_TX2_IN1*%
%TO.N,LPWM2*%
X161784300Y-92969400D03*
%TO.P,U1,11,9_OUT1C*%
%TO.N,SPIS*%
X159244300Y-92969400D03*
%TO.P,U1,12,10_CS_MQSR*%
%TO.N,CS*%
X156704300Y-92969400D03*
%TO.P,U1,13,11_MOSI_CTX1*%
%TO.N,unconnected-(U1-11_MOSI_CTX1-Pad13)*%
X154164300Y-92969400D03*
%TO.P,U1,14,12_MISO_MQSL*%
%TO.N,MISO*%
X151624300Y-92969400D03*
%TO.P,U1,15,VBAT*%
%TO.N,unconnected-(U1-VBAT-Pad15)*%
X151624300Y-95509400D03*
%TO.P,U1,16,3V3*%
%TO.N,+3.3V*%
X151624300Y-98049400D03*
%TO.P,U1,17,GND*%
%TO.N,unconnected-(U1-GND-Pad17)*%
X151624300Y-100589400D03*
%TO.P,U1,18,PROGRAM*%
%TO.N,unconnected-(U1-PROGRAM-Pad18)*%
X151624300Y-103129400D03*
%TO.P,U1,19,ON_OFF*%
%TO.N,unconnected-(U1-ON_OFF-Pad19)*%
X151624300Y-105669400D03*
%TO.P,U1,20,13_SCK_CRX1_LED*%
%TO.N,SCK*%
X151624300Y-108209400D03*
%TO.P,U1,21,14_A0_TX3_SPDIF_OUT*%
%TO.N,A0*%
X154164300Y-108209400D03*
%TO.P,U1,22,15_A1_RX3_SPDIF_IN*%
%TO.N,A1*%
X156704300Y-108209400D03*
%TO.P,U1,23,16_A2_RX4_SCL1*%
%TO.N,PWM1VT*%
X159244300Y-108209400D03*
%TO.P,U1,24,17_A3_TX4_SDA1*%
%TO.N,SOL*%
X161784300Y-108209400D03*
%TO.P,U1,25,18_A4_SDA0*%
%TO.N,SDA*%
X164324300Y-108209400D03*
%TO.P,U1,26,19_A5_SCL0*%
%TO.N,SCL*%
X166864300Y-108209400D03*
%TO.P,U1,27,20_A6_TX5_LRCLK1*%
%TO.N,PWM3VT*%
X169404300Y-108209400D03*
%TO.P,U1,28,21_A7_RX5_BCLK1*%
%TO.N,PWM3EN*%
X171944300Y-108209400D03*
%TO.P,U1,29,22_A8_CTX1*%
%TO.N,RPWM3*%
X174484300Y-108209400D03*
%TO.P,U1,30,23_A9_CRX1_MCLK1*%
%TO.N,LPWM3*%
X177024300Y-108209400D03*
%TO.P,U1,31,3V3*%
%TO.N,unconnected-(U1-3V3-Pad31)*%
X179564300Y-108209400D03*
%TO.P,U1,32,GND*%
%TO.N,unconnected-(U1-GND-Pad32)*%
X182104300Y-108209400D03*
%TO.P,U1,33,VIN*%
%TO.N,unconnected-(U1-VIN-Pad33)*%
X184644300Y-108209400D03*
%TO.P,U1,34,VUSB*%
%TO.N,unconnected-(U1-VUSB-Pad34)*%
X182104300Y-105669400D03*
D15*
%TO.P,U1,35,24_A10_TX6_SCL2*%
%TO.N,unconnected-(U1-24_A10_TX6_SCL2-Pad35)*%
X156704300Y-105669400D03*
%TO.P,U1,36,25_A11_RX6_SDA2*%
%TO.N,unconnected-(U1-25_A11_RX6_SDA2-Pad36)*%
X159244300Y-105669400D03*
%TO.P,U1,37,26_A12_MOSI1*%
%TO.N,unconnected-(U1-26_A12_MOSI1-Pad37)*%
X156704300Y-103129400D03*
%TO.P,U1,38,27_A13_SCK1*%
%TO.N,unconnected-(U1-27_A13_SCK1-Pad38)*%
X159244300Y-103129400D03*
%TO.P,U1,39,28_RX7*%
%TO.N,unconnected-(U1-28_RX7-Pad39)*%
X156704300Y-100589400D03*
%TO.P,U1,40,29_TX7*%
%TO.N,unconnected-(U1-29_TX7-Pad40)*%
X159244300Y-100589400D03*
%TO.P,U1,41,30_CRX3*%
%TO.N,unconnected-(U1-30_CRX3-Pad41)*%
X156704300Y-98049400D03*
%TO.P,U1,42,31_CTX3*%
%TO.N,unconnected-(U1-31_CTX3-Pad42)*%
X159244300Y-98049400D03*
%TO.P,U1,43,32_OUT1B*%
%TO.N,unconnected-(U1-32_OUT1B-Pad43)*%
X156704300Y-95509400D03*
%TO.P,U1,44,33_MCLK2*%
%TO.N,unconnected-(U1-33_MCLK2-Pad44)*%
X159244300Y-95509400D03*
D16*
%TO.P,U1,45,34_DAT1_MISO2*%
%TO.N,unconnected-(U1-34_DAT1_MISO2-Pad45)*%
X177505900Y-104089400D03*
%TO.P,U1,46,35_DAT0_MOSI2*%
%TO.N,unconnected-(U1-35_DAT0_MOSI2-Pad46)*%
X177505900Y-103089400D03*
%TO.P,U1,47,GND*%
%TO.N,unconnected-(U1-GND-Pad47)*%
X177505900Y-102089400D03*
%TO.P,U1,48,36_CLK_CS2*%
%TO.N,unconnected-(U1-36_CLK_CS2-Pad48)*%
X177505900Y-101089400D03*
%TO.P,U1,49,3V3*%
%TO.N,unconnected-(U1-3V3-Pad49)*%
X177505900Y-100089400D03*
%TO.P,U1,50,37_CMD_SCK2*%
%TO.N,unconnected-(U1-37_CMD_SCK2-Pad50)*%
X177505900Y-99089400D03*
%TO.P,U1,51,38_DAT3_RX5*%
%TO.N,unconnected-(U1-38_DAT3_RX5-Pad51)*%
X177505900Y-98089400D03*
%TO.P,U1,52,39_DAT2_TX5*%
%TO.N,unconnected-(U1-39_DAT2_TX5-Pad52)*%
X177505900Y-97089400D03*
D15*
%TO.P,U1,53,D-*%
%TO.N,unconnected-(U1-D--Pad53)*%
X183374300Y-101859400D03*
%TO.P,U1,54,D+*%
%TO.N,unconnected-(U1-D+-Pad54)*%
X183374300Y-99319400D03*
%TD*%
D11*
%TO.P,J8,1,Pin_1*%
%TO.N,PWM1EN*%
X129750000Y-121975000D03*
D10*
%TO.P,J8,2,Pin_2*%
%TO.N,RPWM1*%
X132250000Y-121975000D03*
%TO.P,J8,3,Pin_3*%
%TO.N,LPWM1*%
X134750000Y-121975000D03*
%TO.P,J8,4,Pin_4*%
%TO.N,PWM1VT*%
X137250000Y-121975000D03*
%TD*%
D13*
%TO.P,J6,1,Pin_1*%
%TO.N,+3.3V*%
X105750000Y-121975000D03*
D12*
%TO.P,J6,2,Pin_2*%
%TO.N,Net-(J6-Pin_2)*%
X108250000Y-121975000D03*
%TD*%
D11*
%TO.P,J5,1,Pin_1*%
%TO.N,+3.3V*%
X176000000Y-86000000D03*
D10*
%TO.P,J5,2,Pin_2*%
%TO.N,GND*%
X178500000Y-86000000D03*
%TO.P,J5,3,Pin_3*%
%TO.N,SCL*%
X181000000Y-86000000D03*
%TO.P,J5,4,Pin_4*%
%TO.N,SDA*%
X183500000Y-86000000D03*
%TD*%
D11*
%TO.P,J11,1,Pin_1*%
%TO.N,SIG*%
X178500000Y-121975000D03*
D10*
%TO.P,J11,2,Pin_2*%
%TO.N,+3.3V*%
X181000000Y-121975000D03*
%TO.P,J11,3,Pin_3*%
%TO.N,GND*%
X183500000Y-121975000D03*
%TD*%
D11*
%TO.P,J9,1,Pin_1*%
%TO.N,PWM2EN*%
X143750000Y-121975000D03*
D10*
%TO.P,J9,2,Pin_2*%
%TO.N,RPWM2*%
X146250000Y-121975000D03*
%TO.P,J9,3,Pin_3*%
%TO.N,LPWM2*%
X148750000Y-121975000D03*
%TO.P,J9,4,Pin_4*%
%TO.N,PWM2VT*%
X151250000Y-121975000D03*
%TD*%
D11*
%TO.P,J10,1,Pin_1*%
%TO.N,PWM3EN*%
X157750000Y-121975000D03*
D10*
%TO.P,J10,2,Pin_2*%
%TO.N,RPWM3*%
X160250000Y-121975000D03*
%TO.P,J10,3,Pin_3*%
%TO.N,LPWM3*%
X162750000Y-121975000D03*
%TO.P,J10,4,Pin_4*%
%TO.N,PWM3VT*%
X165250000Y-121975000D03*
%TD*%
D11*
%TO.P,J3,1,Pin_1*%
%TO.N,+3.3V*%
X144500000Y-86000000D03*
D10*
%TO.P,J3,2,Pin_2*%
%TO.N,A0*%
X147000000Y-86000000D03*
%TO.P,J3,3,Pin_3*%
%TO.N,GND*%
X149500000Y-86000000D03*
%TD*%
D17*
%TO.P,MH4,1,1*%
%TO.N,unconnected-(MH4-Pad1)*%
X171908500Y-122500000D03*
%TD*%
%TO.P,MH3,1,1*%
%TO.N,unconnected-(MH3-Pad1)*%
X123500000Y-122420000D03*
%TD*%
D11*
%TO.P,J1,1,Pin_1*%
%TO.N,+3.3V*%
X105752200Y-85977500D03*
D10*
%TO.P,J1,2,Pin_2*%
%TO.N,CS*%
X108252200Y-85977500D03*
%TO.P,J1,3,Pin_3*%
%TO.N,SCK*%
X110752200Y-85977500D03*
%TO.P,J1,4,Pin_4*%
%TO.N,MISO*%
X113252200Y-85977500D03*
%TO.P,J1,5,Pin_5*%
%TO.N,GND*%
X115752200Y-85977500D03*
%TD*%
D11*
%TO.P,J4,1,Pin_1*%
%TO.N,+3.3V*%
X156000000Y-86000000D03*
D10*
%TO.P,J4,2,Pin_2*%
%TO.N,A1*%
X158500000Y-86000000D03*
%TO.P,J4,3,Pin_3*%
%TO.N,GND*%
X161000000Y-86000000D03*
%TD*%
D17*
%TO.P,MH1,1,1*%
%TO.N,unconnected-(MH1-Pad1)*%
X137000000Y-86500000D03*
%TD*%
%TO.P,MH2,1,1*%
%TO.N,unconnected-(MH2-Pad1)*%
X168500000Y-86500000D03*
%TD*%
D18*
%TO.N,GND*%
X159500000Y-117749997D03*
X176000000Y-110500000D03*
X149324338Y-98358120D03*
X149861028Y-108048713D03*
X150000000Y-111000000D03*
X145000000Y-111000000D03*
X179000000Y-116500000D03*
X149858903Y-115733287D03*
X131176150Y-115707263D03*
X118470000Y-114500000D03*
X108500000Y-91500000D03*
X116000000Y-117500000D03*
X180000000Y-114500000D03*
X140906977Y-117423800D03*
X135923548Y-115732178D03*
X145255895Y-117316215D03*
X154500000Y-115000000D03*
%TO.N,Net-(J6-Pin_2)*%
X116080400Y-112687200D03*
%TO.N,Net-(D10-Pad2)*%
X163414600Y-116406400D03*
X159829700Y-124742000D03*
X107208500Y-124742000D03*
X106816100Y-114521200D03*
%TO.N,LPWM3A*%
X150000000Y-113644300D03*
X147447500Y-99518800D03*
%TO.N,RPWM3A*%
X147500000Y-113645900D03*
X143187300Y-99518800D03*
%TO.N,RPWM2A*%
X143094700Y-100936100D03*
X137217500Y-113386100D03*
%TO.N,LPWM2A*%
X143623000Y-105236500D03*
X140128800Y-113859900D03*
%TO.N,CS*%
X107208500Y-83622100D03*
X156719000Y-83632300D03*
%TO.N,SCK*%
X149188600Y-96734300D03*
%TO.N,SPIS*%
X161996900Y-112261400D03*
%TO.N,RPWM3*%
X170481200Y-118041600D03*
%TO.N,PWM3EN*%
X168264300Y-119088400D03*
%TO.N,RPWM2*%
X146149700Y-106161100D03*
X163038700Y-101707300D03*
%TO.N,PWM2VT*%
X156066100Y-121942500D03*
%TO.N,LPWM2*%
X142453600Y-104958700D03*
%TO.N,RPWM1*%
X136442500Y-92783700D03*
X133519100Y-107810300D03*
%TO.N,PWM1VT*%
X153398200Y-120946300D03*
%TO.N,LPWM1*%
X173578000Y-105264600D03*
X136442500Y-110215500D03*
%TO.N,PWM1EN*%
X162753100Y-95689000D03*
X159413600Y-114499200D03*
X131282100Y-117785700D03*
X160305400Y-112348300D03*
%TO.N,+3.3V*%
X139252400Y-101499600D03*
%TD*%
D19*
%TO.N,GND*%
X159000000Y-118249997D02*
X159000000Y-123500000D01*
X159500000Y-117749997D02*
X159000000Y-118249997D01*
%TO.N,LPWM3A*%
X148882900Y-113380800D02*
X148882900Y-100954200D01*
X150000000Y-113644300D02*
X148882900Y-113380800D01*
X148882900Y-100954200D02*
X147447500Y-99518800D01*
%TO.N,GND*%
X149858903Y-115733287D02*
X150000000Y-115592190D01*
%TO.N,Net-(J6-Pin_2)*%
X117250000Y-113856800D02*
X117250000Y-121975000D01*
X116080400Y-112687200D02*
X117250000Y-113856800D01*
%TO.N,Net-(D10-Pad2)*%
X161606200Y-122965500D02*
X159829700Y-124742000D01*
X161606200Y-118214800D02*
X161606200Y-122965500D01*
X163414600Y-116406400D02*
X161606200Y-118214800D01*
X107113800Y-114818900D02*
X106816100Y-114521200D01*
X107113800Y-124647300D02*
X107113800Y-114818900D01*
X107208500Y-124742000D02*
X107113800Y-124647300D01*
%TO.N,RPWM3A*%
X147500000Y-103831500D02*
X147500000Y-113645900D01*
X143187300Y-99518800D02*
X147500000Y-103831500D01*
%TO.N,RPWM2A*%
X137217500Y-106813300D02*
X137217500Y-113386100D01*
X143094700Y-100936100D02*
X137217500Y-106813300D01*
%TO.N,LPWM2A*%
X143623000Y-110365700D02*
X140128800Y-113859900D01*
X143623000Y-105236500D02*
X143623000Y-110365700D01*
%TO.N,CS*%
X107175500Y-83655100D02*
X107208500Y-83622100D01*
X107175500Y-85977500D02*
X107175500Y-83655100D01*
X157082700Y-92591000D02*
X156704300Y-92969400D01*
X157082700Y-83996000D02*
X157082700Y-92591000D01*
X156719000Y-83632300D02*
X157082700Y-83996000D01*
X108252200Y-85977500D02*
X107175500Y-85977500D01*
%TO.N,SCK*%
X150299500Y-106884600D02*
X151624300Y-108209400D01*
X150299500Y-97845200D02*
X150299500Y-106884600D01*
X149188600Y-96734300D02*
X150299500Y-97845200D01*
%TO.N,SPIS*%
X160173000Y-92040700D02*
X159244300Y-92969400D01*
X162223500Y-92040700D02*
X160173000Y-92040700D01*
X163291600Y-93108800D02*
X162223500Y-92040700D01*
X163291600Y-96571700D02*
X163291600Y-93108800D01*
X162501400Y-97361900D02*
X163291600Y-96571700D01*
X162501400Y-101925100D02*
X162501400Y-97361900D01*
X162713000Y-102136700D02*
X162501400Y-101925100D01*
X162713000Y-111545300D02*
X162713000Y-102136700D01*
X161996900Y-112261400D02*
X162713000Y-111545300D01*
%TO.N,PWM3VT*%
X165250000Y-121975000D02*
X166326700Y-121975000D01*
X166326700Y-111287000D02*
X169404300Y-108209400D01*
X166326700Y-121975000D02*
X166326700Y-111287000D01*
%TO.N,RPWM3*%
X174484300Y-114038500D02*
X174484300Y-108209400D01*
X170481200Y-118041600D02*
X174484300Y-114038500D01*
%TO.N,PWM3EN*%
X168264300Y-111889400D02*
X171944300Y-108209400D01*
X168264300Y-119088400D02*
X168264300Y-111889400D01*
%TO.N,LPWM3*%
X162750000Y-121975000D02*
X163826700Y-121975000D01*
X163826700Y-122244200D02*
X163826700Y-121975000D01*
X164776600Y-123194100D02*
X163826700Y-122244200D01*
X165714500Y-123194100D02*
X164776600Y-123194100D01*
X169954500Y-118954100D02*
X165714500Y-123194100D01*
X169954500Y-113448900D02*
X169954500Y-118954100D01*
X173555600Y-109847800D02*
X169954500Y-113448900D01*
X173555600Y-107824800D02*
X173555600Y-109847800D01*
X174099700Y-107280700D02*
X173555600Y-107824800D01*
X174869000Y-107280700D02*
X174099700Y-107280700D01*
X175797600Y-108209300D02*
X174869000Y-107280700D01*
X175797600Y-108209400D02*
X175797600Y-108209300D01*
X177024300Y-108209400D02*
X175797600Y-108209400D01*
%TO.N,RPWM2*%
X146250000Y-106261400D02*
X146250000Y-121975000D01*
X146149700Y-106161100D02*
X146250000Y-106261400D01*
X164324300Y-100421700D02*
X163038700Y-101707300D01*
X164324300Y-92969400D02*
X164324300Y-100421700D01*
%TO.N,PWM2VT*%
X156066100Y-120366500D02*
X156066100Y-121942500D01*
X168052600Y-108380000D02*
X156066100Y-120366500D01*
X168052600Y-108119900D02*
X168052600Y-108380000D01*
X171944300Y-104228200D02*
X168052600Y-108119900D01*
X171944300Y-92969400D02*
X171944300Y-104228200D01*
%TO.N,LPWM2*%
X148750000Y-121975000D02*
X147673300Y-121975000D01*
X161784300Y-94323400D02*
X161784300Y-92969400D01*
X159378300Y-96729400D02*
X161784300Y-94323400D01*
X159264900Y-96729400D02*
X159378300Y-96729400D01*
X158038100Y-97956200D02*
X159264900Y-96729400D01*
X158038100Y-112686900D02*
X158038100Y-97956200D01*
X149826700Y-120898300D02*
X158038100Y-112686900D01*
X149826700Y-121975000D02*
X149826700Y-120898300D01*
X148750000Y-121975000D02*
X149826700Y-121975000D01*
X142702500Y-104709800D02*
X142453600Y-104958700D01*
X145487300Y-104709800D02*
X142702500Y-104709800D01*
X146683700Y-105906200D02*
X145487300Y-104709800D01*
X146683700Y-119908700D02*
X146683700Y-105906200D01*
X147673300Y-120898300D02*
X146683700Y-119908700D01*
X147673300Y-121975000D02*
X147673300Y-120898300D01*
%TO.N,PWM2EN*%
X166864300Y-104171600D02*
X166864300Y-92969400D01*
X163246500Y-107789400D02*
X166864300Y-104171600D01*
X163246500Y-111892000D02*
X163246500Y-107789400D01*
X151952300Y-123186200D02*
X163246500Y-111892000D01*
X144961200Y-123186200D02*
X151952300Y-123186200D01*
X143750000Y-121975000D02*
X144961200Y-123186200D01*
%TO.N,RPWM1*%
X133519100Y-95707100D02*
X133519100Y-107810300D01*
X136442500Y-92783700D02*
X133519100Y-95707100D01*
X132250000Y-109079400D02*
X132250000Y-121975000D01*
X133519100Y-107810300D02*
X132250000Y-109079400D01*
%TO.N,PWM1VT*%
X153399300Y-118913000D02*
X153399300Y-120942000D01*
X159244300Y-113068000D02*
X153399300Y-118913000D01*
X159244300Y-108209400D02*
X159244300Y-113068000D01*
X153399300Y-120942000D02*
X153399300Y-120943600D01*
X153399300Y-120943600D02*
X153399300Y-120945200D01*
X153399300Y-120945200D02*
X153398200Y-120946300D01*
%TO.N,LPWM1*%
X174484300Y-104358300D02*
X173578000Y-105264600D01*
X174484300Y-92969400D02*
X174484300Y-104358300D01*
X134750000Y-111908000D02*
X134750000Y-121975000D01*
X136442500Y-110215500D02*
X134750000Y-111908000D01*
%TO.N,PWM1EN*%
X131282700Y-120442300D02*
X131282700Y-117789500D01*
X129750000Y-121975000D02*
X131282700Y-120442300D01*
X159413600Y-114235200D02*
X160305400Y-113343400D01*
X159413600Y-114499200D02*
X159413600Y-114235200D01*
X160305400Y-113343400D02*
X160305400Y-112348300D01*
X160305400Y-98136700D02*
X160305400Y-112348300D01*
X162753100Y-95689000D02*
X160305400Y-98136700D01*
X160305400Y-112348300D02*
X160305400Y-113343400D01*
X131282700Y-117789500D02*
X131282700Y-117787900D01*
X131282700Y-117787900D02*
X131282400Y-117787600D01*
X131282400Y-117787600D02*
X131282400Y-117786000D01*
X131282400Y-117786000D02*
X131282100Y-117785700D01*
%TO.N,SCL*%
X181000000Y-86000000D02*
X179923300Y-86000000D01*
X170674400Y-104399300D02*
X166864300Y-108209400D01*
X170674400Y-89324700D02*
X170674400Y-104399300D01*
X175213100Y-84786000D02*
X170674400Y-89324700D01*
X178978500Y-84786000D02*
X175213100Y-84786000D01*
X179923300Y-85730800D02*
X178978500Y-84786000D01*
X179923300Y-86000000D02*
X179923300Y-85730800D01*
%TO.N,SDA*%
X182423300Y-85714400D02*
X182423300Y-86000000D01*
X181168600Y-84459700D02*
X182423300Y-85714400D01*
X175093000Y-84459700D02*
X181168600Y-84459700D01*
X168134300Y-91418400D02*
X175093000Y-84459700D01*
X168134300Y-104399400D02*
X168134300Y-91418400D01*
X164324300Y-108209400D02*
X168134300Y-104399400D01*
X183500000Y-86000000D02*
X182423300Y-86000000D01*
%TO.N,A1*%
X158500000Y-86000000D02*
X158500000Y-87201700D01*
X157671200Y-107242500D02*
X156704300Y-108209400D01*
X157671200Y-88030500D02*
X157671200Y-107242500D01*
X158500000Y-87201700D02*
X157671200Y-88030500D01*
%TO.N,A0*%
X154164300Y-96637600D02*
X154164300Y-108209400D01*
X151766100Y-94239400D02*
X154164300Y-96637600D01*
X151504300Y-94239400D02*
X151766100Y-94239400D01*
X147000000Y-89735100D02*
X151504300Y-94239400D01*
X147000000Y-86000000D02*
X147000000Y-89735100D01*
%TO.N,+3.3V*%
X105752200Y-121972800D02*
X105752200Y-85977500D01*
X105750000Y-121975000D02*
X105752200Y-121972800D01*
X181000000Y-91000000D02*
X181000000Y-121975000D01*
X176000000Y-86000000D02*
X181000000Y-91000000D01*
X149782500Y-96207600D02*
X144500000Y-96207600D01*
X151624300Y-98049400D02*
X149782500Y-96207600D01*
X144500000Y-86000000D02*
X144500000Y-96207600D01*
X144500000Y-96252000D02*
X139252400Y-101499600D01*
X144500000Y-96207600D02*
X144500000Y-96252000D01*
%TO.N,GND*%
X154500000Y-115000000D02*
X153766713Y-115733287D01*
X153766713Y-115733287D02*
X149858903Y-115733287D01*
%TD*%
%TA.AperFunction,Conductor*%
%TO.N,GND*%
G36*
X165670534Y-111678460D02*
G01*
X165726467Y-111720332D01*
X165750884Y-111785796D01*
X165751200Y-111794642D01*
X165751200Y-120422178D01*
X165731515Y-120489217D01*
X165678711Y-120534972D01*
X165609553Y-120544916D01*
X165588883Y-120540109D01*
X165566251Y-120532755D01*
X165566244Y-120532754D01*
X165386239Y-120504244D01*
X165356287Y-120499500D01*
X165143713Y-120499500D01*
X165129760Y-120501710D01*
X164933760Y-120532753D01*
X164933757Y-120532754D01*
X164760494Y-120589051D01*
X164731585Y-120598444D01*
X164542179Y-120694951D01*
X164370213Y-120819890D01*
X164219894Y-120970209D01*
X164219890Y-120970214D01*
X164100318Y-121134793D01*
X164044989Y-121177459D01*
X163975375Y-121183438D01*
X163913580Y-121150833D01*
X163899682Y-121134793D01*
X163780109Y-120970214D01*
X163780105Y-120970209D01*
X163629786Y-120819890D01*
X163457820Y-120694951D01*
X163268414Y-120598444D01*
X163268413Y-120598443D01*
X163268412Y-120598443D01*
X163066243Y-120532754D01*
X163066241Y-120532753D01*
X163066240Y-120532753D01*
X162870240Y-120501710D01*
X162856287Y-120499500D01*
X162643713Y-120499500D01*
X162629760Y-120501710D01*
X162433759Y-120532753D01*
X162344018Y-120561912D01*
X162274177Y-120563907D01*
X162214344Y-120527826D01*
X162183516Y-120465125D01*
X162181700Y-120443981D01*
X162181700Y-118504542D01*
X162201385Y-118437503D01*
X162218019Y-118416861D01*
X163391661Y-117243219D01*
X163452984Y-117209734D01*
X163479342Y-117206900D01*
X163493444Y-117206900D01*
X163493445Y-117206899D01*
X163648097Y-117176137D01*
X163793779Y-117115794D01*
X163924889Y-117028189D01*
X164036389Y-116916689D01*
X164123994Y-116785579D01*
X164184337Y-116639897D01*
X164215100Y-116485242D01*
X164215100Y-116327558D01*
X164215100Y-116327555D01*
X164215099Y-116327553D01*
X164184338Y-116172910D01*
X164184337Y-116172903D01*
X164184335Y-116172898D01*
X164123997Y-116027227D01*
X164123990Y-116027214D01*
X164036389Y-115896111D01*
X164036386Y-115896107D01*
X163924892Y-115784613D01*
X163924888Y-115784610D01*
X163793785Y-115697009D01*
X163793772Y-115697002D01*
X163648101Y-115636664D01*
X163648089Y-115636661D01*
X163493445Y-115605900D01*
X163493442Y-115605900D01*
X163335758Y-115605900D01*
X163335755Y-115605900D01*
X163181110Y-115636661D01*
X163181098Y-115636664D01*
X163035427Y-115697002D01*
X163035414Y-115697009D01*
X162904311Y-115784610D01*
X162904307Y-115784613D01*
X162792813Y-115896107D01*
X162792810Y-115896111D01*
X162705209Y-116027214D01*
X162705202Y-116027227D01*
X162644864Y-116172898D01*
X162644861Y-116172910D01*
X162614100Y-116327553D01*
X162614100Y-116341658D01*
X162594415Y-116408697D01*
X162577781Y-116429339D01*
X161145687Y-117861432D01*
X161145685Y-117861435D01*
X161069919Y-117992663D01*
X161030700Y-118139034D01*
X161030700Y-120529735D01*
X161011015Y-120596774D01*
X160958211Y-120642529D01*
X160889053Y-120652473D01*
X160850406Y-120640220D01*
X160768417Y-120598445D01*
X160768414Y-120598444D01*
X160768412Y-120598443D01*
X160566243Y-120532754D01*
X160566241Y-120532753D01*
X160566240Y-120532753D01*
X160370240Y-120501710D01*
X160356287Y-120499500D01*
X160143713Y-120499500D01*
X160129760Y-120501710D01*
X159933760Y-120532753D01*
X159933757Y-120532754D01*
X159760494Y-120589051D01*
X159731585Y-120598444D01*
X159542179Y-120694951D01*
X159370215Y-120819889D01*
X159231398Y-120958706D01*
X159170075Y-120992190D01*
X159100383Y-120987206D01*
X159044450Y-120945334D01*
X159038178Y-120936120D01*
X158942712Y-120781344D01*
X158818657Y-120657289D01*
X158818656Y-120657288D01*
X158701260Y-120584878D01*
X158669336Y-120565187D01*
X158669331Y-120565185D01*
X158659454Y-120561912D01*
X158502797Y-120510001D01*
X158502795Y-120510000D01*
X158400010Y-120499500D01*
X157099998Y-120499500D01*
X157099980Y-120499501D01*
X157053556Y-120504244D01*
X156984863Y-120491474D01*
X156933979Y-120443593D01*
X156917059Y-120375803D01*
X156939476Y-120309626D01*
X156953268Y-120293211D01*
X165539519Y-111706961D01*
X165600842Y-111673476D01*
X165670534Y-111678460D01*
G37*
%TD.AperFunction*%
%TA.AperFunction,Conductor*%
G36*
X148347399Y-96802785D02*
G01*
X148393154Y-96855589D01*
X148401977Y-96882909D01*
X148418861Y-96967789D01*
X148418864Y-96967801D01*
X148479202Y-97113472D01*
X148479209Y-97113485D01*
X148566810Y-97244588D01*
X148566813Y-97244592D01*
X148678307Y-97356086D01*
X148678311Y-97356089D01*
X148809414Y-97443690D01*
X148809427Y-97443697D01*
X148955098Y-97504035D01*
X148955103Y-97504037D01*
X149056645Y-97524235D01*
X149109753Y-97534799D01*
X149109756Y-97534800D01*
X149109758Y-97534800D01*
X149123858Y-97534800D01*
X149190897Y-97554485D01*
X149211539Y-97571119D01*
X149687681Y-98047261D01*
X149721166Y-98108584D01*
X149724000Y-98134942D01*
X149724000Y-106808834D01*
X149724000Y-106960366D01*
X149739414Y-107017893D01*
X149763219Y-107106736D01*
X149785318Y-107145012D01*
X149838985Y-107237965D01*
X149838987Y-107237967D01*
X150417320Y-107816300D01*
X150450805Y-107877623D01*
X150452112Y-107923379D01*
X150421800Y-108114761D01*
X150421800Y-108304038D01*
X150451409Y-108490986D01*
X150509901Y-108671004D01*
X150557318Y-108764063D01*
X150595830Y-108839647D01*
X150707085Y-108992776D01*
X150840924Y-109126615D01*
X150994053Y-109237870D01*
X151046296Y-109264489D01*
X151162695Y-109323798D01*
X151162697Y-109323798D01*
X151162700Y-109323800D01*
X151215104Y-109340827D01*
X151342713Y-109382290D01*
X151414494Y-109393659D01*
X151529661Y-109411900D01*
X151529662Y-109411900D01*
X151718938Y-109411900D01*
X151718939Y-109411900D01*
X151905886Y-109382290D01*
X152085900Y-109323800D01*
X152254547Y-109237870D01*
X152407676Y-109126615D01*
X152541515Y-108992776D01*
X152652770Y-108839647D01*
X152738700Y-108671000D01*
X152776369Y-108555067D01*
X152815807Y-108497391D01*
X152880165Y-108470193D01*
X152949012Y-108482108D01*
X153000487Y-108529352D01*
X153012231Y-108555067D01*
X153049900Y-108671000D01*
X153135830Y-108839647D01*
X153247085Y-108992776D01*
X153380924Y-109126615D01*
X153534053Y-109237870D01*
X153586296Y-109264489D01*
X153702695Y-109323798D01*
X153702697Y-109323798D01*
X153702700Y-109323800D01*
X153755104Y-109340827D01*
X153882713Y-109382290D01*
X153954494Y-109393659D01*
X154069661Y-109411900D01*
X154069662Y-109411900D01*
X154258938Y-109411900D01*
X154258939Y-109411900D01*
X154445886Y-109382290D01*
X154625900Y-109323800D01*
X154794547Y-109237870D01*
X154947676Y-109126615D01*
X155081515Y-108992776D01*
X155192770Y-108839647D01*
X155278700Y-108671000D01*
X155316369Y-108555067D01*
X155355807Y-108497391D01*
X155420165Y-108470193D01*
X155489012Y-108482108D01*
X155540487Y-108529352D01*
X155552231Y-108555067D01*
X155589900Y-108671000D01*
X155675830Y-108839647D01*
X155787085Y-108992776D01*
X155920924Y-109126615D01*
X156074053Y-109237870D01*
X156126296Y-109264489D01*
X156242695Y-109323798D01*
X156242697Y-109323798D01*
X156242700Y-109323800D01*
X156295104Y-109340827D01*
X156422713Y-109382290D01*
X156494494Y-109393659D01*
X156609661Y-109411900D01*
X156609662Y-109411900D01*
X156798938Y-109411900D01*
X156798939Y-109411900D01*
X156985886Y-109382290D01*
X157165900Y-109323800D01*
X157165905Y-109323797D01*
X157165909Y-109323796D01*
X157282305Y-109264489D01*
X157350974Y-109251592D01*
X157415714Y-109277868D01*
X157455972Y-109334974D01*
X157462600Y-109374973D01*
X157462600Y-112397157D01*
X157442915Y-112464196D01*
X157426281Y-112484838D01*
X149360438Y-120550681D01*
X149359222Y-120549465D01*
X149310707Y-120584878D01*
X149240960Y-120589020D01*
X149230462Y-120586112D01*
X149066240Y-120532753D01*
X148870240Y-120501710D01*
X148856287Y-120499500D01*
X148643713Y-120499500D01*
X148629760Y-120501710D01*
X148433759Y-120532753D01*
X148269536Y-120586113D01*
X148199695Y-120588108D01*
X148139862Y-120552028D01*
X148134382Y-120545502D01*
X147295519Y-119706639D01*
X147262034Y-119645316D01*
X147259200Y-119618958D01*
X147259200Y-114565279D01*
X147278885Y-114498240D01*
X147331689Y-114452485D01*
X147400847Y-114442541D01*
X147407393Y-114443662D01*
X147421157Y-114446400D01*
X147421158Y-114446400D01*
X147578844Y-114446400D01*
X147578845Y-114446399D01*
X147733497Y-114415637D01*
X147879179Y-114355294D01*
X148010289Y-114267689D01*
X148121789Y-114156189D01*
X148209394Y-114025079D01*
X148269737Y-113879397D01*
X148273898Y-113858477D01*
X148277749Y-113851115D01*
X148278095Y-113842816D01*
X148293700Y-113820620D01*
X148306282Y-113796569D01*
X148313502Y-113792457D01*
X148318282Y-113785660D01*
X148343418Y-113775422D01*
X148366998Y-113761995D01*
X148375293Y-113762439D01*
X148382990Y-113759305D01*
X148409668Y-113764281D01*
X148436767Y-113765734D01*
X148445285Y-113770926D01*
X148451675Y-113772118D01*
X148480547Y-113792418D01*
X148480789Y-113792646D01*
X148483438Y-113795218D01*
X148529535Y-113841315D01*
X148529537Y-113841316D01*
X148535986Y-113846265D01*
X148535666Y-113846681D01*
X148536676Y-113847432D01*
X148536983Y-113847007D01*
X148543575Y-113851755D01*
X148543580Y-113851760D01*
X148583593Y-113873280D01*
X148601026Y-113882656D01*
X148602672Y-113883541D01*
X148660765Y-113917081D01*
X148669274Y-113919360D01*
X148677033Y-113923533D01*
X148677035Y-113923534D01*
X148677038Y-113923534D01*
X148677039Y-113923535D01*
X148740484Y-113938500D01*
X148744111Y-113939413D01*
X148807134Y-113956300D01*
X148807142Y-113956300D01*
X148815194Y-113957361D01*
X148815125Y-113957883D01*
X148829986Y-113959612D01*
X149278615Y-114065433D01*
X149339343Y-114099982D01*
X149353248Y-114117230D01*
X149378210Y-114154588D01*
X149378213Y-114154592D01*
X149489707Y-114266086D01*
X149489711Y-114266089D01*
X149620814Y-114353690D01*
X149620827Y-114353697D01*
X149712984Y-114391869D01*
X149766503Y-114414037D01*
X149909801Y-114442541D01*
X149921153Y-114444799D01*
X149921156Y-114444800D01*
X149921158Y-114444800D01*
X150078844Y-114444800D01*
X150078845Y-114444799D01*
X150233497Y-114414037D01*
X150379179Y-114353694D01*
X150510289Y-114266089D01*
X150621789Y-114154589D01*
X150709394Y-114023479D01*
X150714602Y-114010907D01*
X150735848Y-113959612D01*
X150769737Y-113877797D01*
X150800500Y-113723142D01*
X150800500Y-113565458D01*
X150800500Y-113565455D01*
X150800499Y-113565453D01*
X150785033Y-113487700D01*
X150769737Y-113410803D01*
X150763853Y-113396597D01*
X150709397Y-113265127D01*
X150709390Y-113265114D01*
X150621789Y-113134011D01*
X150621786Y-113134007D01*
X150510292Y-113022513D01*
X150510288Y-113022510D01*
X150379185Y-112934909D01*
X150379172Y-112934902D01*
X150233501Y-112874564D01*
X150233489Y-112874561D01*
X150078845Y-112843800D01*
X150078842Y-112843800D01*
X149921158Y-112843800D01*
X149921155Y-112843800D01*
X149766510Y-112874561D01*
X149766498Y-112874564D01*
X149629852Y-112931165D01*
X149560383Y-112938634D01*
X149497904Y-112907359D01*
X149462252Y-112847270D01*
X149458400Y-112816604D01*
X149458400Y-100878435D01*
X149458399Y-100878432D01*
X149458233Y-100877813D01*
X149457238Y-100874099D01*
X149419181Y-100732065D01*
X149343415Y-100600835D01*
X148284319Y-99541739D01*
X148250834Y-99480416D01*
X148248000Y-99454058D01*
X148248000Y-99439955D01*
X148247999Y-99439953D01*
X148231553Y-99357276D01*
X148217237Y-99285303D01*
X148193790Y-99228696D01*
X148156897Y-99139627D01*
X148156890Y-99139614D01*
X148069289Y-99008511D01*
X148069286Y-99008507D01*
X147957792Y-98897013D01*
X147957788Y-98897010D01*
X147826685Y-98809409D01*
X147826672Y-98809402D01*
X147681001Y-98749064D01*
X147680989Y-98749061D01*
X147526345Y-98718300D01*
X147526342Y-98718300D01*
X147368658Y-98718300D01*
X147368655Y-98718300D01*
X147214010Y-98749061D01*
X147213998Y-98749064D01*
X147068327Y-98809402D01*
X147068314Y-98809409D01*
X146937211Y-98897010D01*
X146937207Y-98897013D01*
X146825713Y-99008507D01*
X146825710Y-99008511D01*
X146738109Y-99139614D01*
X146738102Y-99139627D01*
X146677764Y-99285298D01*
X146677761Y-99285310D01*
X146647000Y-99439953D01*
X146647000Y-99597646D01*
X146677761Y-99752289D01*
X146677764Y-99752301D01*
X146738102Y-99897972D01*
X146738109Y-99897985D01*
X146825710Y-100029088D01*
X146825713Y-100029092D01*
X146937207Y-100140586D01*
X146937211Y-100140589D01*
X147068314Y-100228190D01*
X147068327Y-100228197D01*
X147212091Y-100287745D01*
X147214003Y-100288537D01*
X147343577Y-100314311D01*
X147368653Y-100319299D01*
X147368656Y-100319300D01*
X147368658Y-100319300D01*
X147382758Y-100319300D01*
X147449797Y-100338985D01*
X147470439Y-100355619D01*
X148271081Y-101156261D01*
X148304566Y-101217584D01*
X148307400Y-101243942D01*
X148307400Y-103679323D01*
X148287715Y-103746362D01*
X148234911Y-103792117D01*
X148165753Y-103802061D01*
X148102197Y-103773036D01*
X148064423Y-103714258D01*
X148063625Y-103711416D01*
X148050357Y-103661898D01*
X148036281Y-103609365D01*
X147960515Y-103478135D01*
X147853365Y-103370985D01*
X144024119Y-99541739D01*
X143990634Y-99480416D01*
X143987800Y-99454058D01*
X143987800Y-99439955D01*
X143987799Y-99439953D01*
X143971353Y-99357276D01*
X143957037Y-99285303D01*
X143933590Y-99228696D01*
X143896697Y-99139627D01*
X143896690Y-99139614D01*
X143809089Y-99008511D01*
X143809086Y-99008507D01*
X143697592Y-98897013D01*
X143697588Y-98897010D01*
X143566485Y-98809409D01*
X143566472Y-98809402D01*
X143420801Y-98749064D01*
X143420789Y-98749061D01*
X143266145Y-98718300D01*
X143266142Y-98718300D01*
X143146942Y-98718300D01*
X143079903Y-98698615D01*
X143034148Y-98645811D01*
X143024204Y-98576653D01*
X143053229Y-98513097D01*
X143059261Y-98506619D01*
X144746461Y-96819419D01*
X144807784Y-96785934D01*
X144834142Y-96783100D01*
X148280360Y-96783100D01*
X148347399Y-96802785D01*
G37*
%TD.AperFunction*%
%TA.AperFunction,Conductor*%
G36*
X184911916Y-74270185D02*
G01*
X184932558Y-74286819D01*
X187213181Y-76567441D01*
X187246666Y-76628764D01*
X187249500Y-76655122D01*
X187249500Y-126344877D01*
X187229815Y-126411916D01*
X187213181Y-126432558D01*
X184932558Y-128713181D01*
X184871235Y-128746666D01*
X184844877Y-128749500D01*
X102655122Y-128749500D01*
X102588083Y-128729815D01*
X102567441Y-128713181D01*
X100286819Y-126432558D01*
X100253334Y-126371235D01*
X100250500Y-126344877D01*
X100250500Y-121174983D01*
X104399500Y-121174983D01*
X104399500Y-122775001D01*
X104399501Y-122775018D01*
X104410000Y-122877796D01*
X104410001Y-122877799D01*
X104465185Y-123044331D01*
X104465187Y-123044336D01*
X104489232Y-123083319D01*
X104557288Y-123193656D01*
X104681344Y-123317712D01*
X104830666Y-123409814D01*
X104997203Y-123464999D01*
X105099991Y-123475500D01*
X106400008Y-123475499D01*
X106401688Y-123475327D01*
X106402050Y-123475394D01*
X106403164Y-123475338D01*
X106403177Y-123475604D01*
X106470380Y-123488090D01*
X106521269Y-123535966D01*
X106538300Y-123598684D01*
X106538300Y-124266547D01*
X106518615Y-124333586D01*
X106517402Y-124335438D01*
X106499109Y-124362814D01*
X106499102Y-124362827D01*
X106438764Y-124508498D01*
X106438761Y-124508510D01*
X106408000Y-124663153D01*
X106408000Y-124820846D01*
X106438761Y-124975489D01*
X106438764Y-124975501D01*
X106499102Y-125121172D01*
X106499109Y-125121185D01*
X106586710Y-125252288D01*
X106586713Y-125252292D01*
X106698207Y-125363786D01*
X106698211Y-125363789D01*
X106829314Y-125451390D01*
X106829327Y-125451397D01*
X106974998Y-125511735D01*
X106975003Y-125511737D01*
X107129653Y-125542499D01*
X107129656Y-125542500D01*
X107129658Y-125542500D01*
X107287344Y-125542500D01*
X107287345Y-125542499D01*
X107441997Y-125511737D01*
X107587679Y-125451394D01*
X107718789Y-125363789D01*
X107830289Y-125252289D01*
X107917894Y-125121179D01*
X107978237Y-124975497D01*
X108009000Y-124820842D01*
X108009000Y-124663158D01*
X108009000Y-124663155D01*
X108008999Y-124663153D01*
X107978238Y-124508510D01*
X107978237Y-124508503D01*
X107974006Y-124498289D01*
X107917897Y-124362827D01*
X107917890Y-124362814D01*
X107830289Y-124231711D01*
X107830286Y-124231707D01*
X107725619Y-124127040D01*
X107692134Y-124065717D01*
X107689300Y-124039359D01*
X107689300Y-123533487D01*
X107708985Y-123466448D01*
X107761789Y-123420693D01*
X107830947Y-123410749D01*
X107851601Y-123415551D01*
X107933757Y-123442246D01*
X108143713Y-123475500D01*
X108143714Y-123475500D01*
X108356286Y-123475500D01*
X108356287Y-123475500D01*
X108566243Y-123442246D01*
X108768412Y-123376557D01*
X108957816Y-123280051D01*
X109019733Y-123235066D01*
X109129786Y-123155109D01*
X109129788Y-123155106D01*
X109129792Y-123155104D01*
X109280104Y-123004792D01*
X109280106Y-123004788D01*
X109280109Y-123004786D01*
X109405048Y-122832820D01*
X109405047Y-122832820D01*
X109405051Y-122832816D01*
X109501557Y-122643412D01*
X109567246Y-122441243D01*
X109600500Y-122231287D01*
X109600500Y-121718713D01*
X109567246Y-121508757D01*
X109501557Y-121306588D01*
X109434501Y-121174983D01*
X113399500Y-121174983D01*
X113399500Y-122775001D01*
X113399501Y-122775018D01*
X113410000Y-122877796D01*
X113410001Y-122877799D01*
X113465185Y-123044331D01*
X113465187Y-123044336D01*
X113489232Y-123083319D01*
X113557288Y-123193656D01*
X113681344Y-123317712D01*
X113830666Y-123409814D01*
X113997203Y-123464999D01*
X114099991Y-123475500D01*
X115400008Y-123475499D01*
X115502797Y-123464999D01*
X115669334Y-123409814D01*
X115818656Y-123317712D01*
X115942712Y-123193656D01*
X116034814Y-123044334D01*
X116034814Y-123044331D01*
X116038178Y-123038879D01*
X116090126Y-122992154D01*
X116159088Y-122980931D01*
X116223170Y-123008774D01*
X116231398Y-123016294D01*
X116370213Y-123155109D01*
X116542179Y-123280048D01*
X116542181Y-123280049D01*
X116542184Y-123280051D01*
X116731588Y-123376557D01*
X116933757Y-123442246D01*
X117143713Y-123475500D01*
X117143714Y-123475500D01*
X117356286Y-123475500D01*
X117356287Y-123475500D01*
X117566243Y-123442246D01*
X117768412Y-123376557D01*
X117957816Y-123280051D01*
X118019733Y-123235066D01*
X118129786Y-123155109D01*
X118129788Y-123155106D01*
X118129792Y-123155104D01*
X118280104Y-123004792D01*
X118280106Y-123004788D01*
X118280109Y-123004786D01*
X118405048Y-122832820D01*
X118405047Y-122832820D01*
X118405051Y-122832816D01*
X118501557Y-122643412D01*
X118567246Y-122441243D01*
X118596681Y-122255400D01*
X120149500Y-122255400D01*
X120149500Y-122584600D01*
X120156128Y-122651894D01*
X120181765Y-122912201D01*
X120181768Y-122912218D01*
X120245984Y-123235066D01*
X120245987Y-123235077D01*
X120341552Y-123550112D01*
X120429195Y-123761700D01*
X120467531Y-123854251D01*
X120512652Y-123938666D01*
X120622707Y-124144567D01*
X120622711Y-124144574D01*
X120622714Y-124144579D01*
X120768538Y-124362821D01*
X120805601Y-124418289D01*
X120805611Y-124418303D01*
X121014453Y-124672777D01*
X121247222Y-124905546D01*
X121247227Y-124905550D01*
X121247228Y-124905551D01*
X121501702Y-125114393D01*
X121775421Y-125297286D01*
X122065749Y-125452469D01*
X122369889Y-125578448D01*
X122684913Y-125674010D01*
X122684919Y-125674011D01*
X122684922Y-125674012D01*
X122684933Y-125674015D01*
X122865361Y-125709903D01*
X123007787Y-125738233D01*
X123335400Y-125770500D01*
X123335403Y-125770500D01*
X123664597Y-125770500D01*
X123664600Y-125770500D01*
X123992213Y-125738233D01*
X124169760Y-125702916D01*
X124315066Y-125674015D01*
X124315077Y-125674012D01*
X124315077Y-125674011D01*
X124315087Y-125674010D01*
X124630111Y-125578448D01*
X124934251Y-125452469D01*
X125224579Y-125297286D01*
X125498298Y-125114393D01*
X125752772Y-124905551D01*
X125985551Y-124672772D01*
X126194393Y-124418298D01*
X126377286Y-124144579D01*
X126532469Y-123854251D01*
X126658448Y-123550111D01*
X126754010Y-123235087D01*
X126754012Y-123235077D01*
X126754015Y-123235066D01*
X126796925Y-123019336D01*
X126818233Y-122912213D01*
X126850500Y-122584600D01*
X126850500Y-122255400D01*
X126818233Y-121927787D01*
X126781619Y-121743713D01*
X126754015Y-121604933D01*
X126754012Y-121604922D01*
X126754011Y-121604919D01*
X126754010Y-121604913D01*
X126658448Y-121289889D01*
X126649097Y-121267314D01*
X126639559Y-121244286D01*
X126621208Y-121199983D01*
X128399500Y-121199983D01*
X128399500Y-122750001D01*
X128399501Y-122750018D01*
X128410000Y-122852796D01*
X128410001Y-122852799D01*
X128465185Y-123019331D01*
X128465187Y-123019336D01*
X128500069Y-123075888D01*
X128557288Y-123168656D01*
X128681344Y-123292712D01*
X128830666Y-123384814D01*
X128997203Y-123439999D01*
X129099991Y-123450500D01*
X130400008Y-123450499D01*
X130502797Y-123439999D01*
X130669334Y-123384814D01*
X130818656Y-123292712D01*
X130942712Y-123168656D01*
X131034814Y-123019334D01*
X131034814Y-123019331D01*
X131038178Y-123013879D01*
X131090126Y-122967154D01*
X131159088Y-122955931D01*
X131223170Y-122983774D01*
X131231398Y-122991294D01*
X131370213Y-123130109D01*
X131542179Y-123255048D01*
X131542181Y-123255049D01*
X131542184Y-123255051D01*
X131731588Y-123351557D01*
X131933757Y-123417246D01*
X132143713Y-123450500D01*
X132143714Y-123450500D01*
X132356286Y-123450500D01*
X132356287Y-123450500D01*
X132566243Y-123417246D01*
X132768412Y-123351557D01*
X132957816Y-123255051D01*
X132985323Y-123235066D01*
X133129786Y-123130109D01*
X133129788Y-123130106D01*
X133129792Y-123130104D01*
X133280104Y-122979792D01*
X133399683Y-122815204D01*
X133455011Y-122772540D01*
X133524624Y-122766561D01*
X133586420Y-122799166D01*
X133600313Y-122815199D01*
X133670801Y-122912218D01*
X133719896Y-122979792D01*
X133870213Y-123130109D01*
X134042179Y-123255048D01*
X134042181Y-123255049D01*
X134042184Y-123255051D01*
X134231588Y-123351557D01*
X134433757Y-123417246D01*
X134643713Y-123450500D01*
X134643714Y-123450500D01*
X134856286Y-123450500D01*
X134856287Y-123450500D01*
X135066243Y-123417246D01*
X135268412Y-123351557D01*
X135457816Y-123255051D01*
X135485323Y-123235066D01*
X135629786Y-123130109D01*
X135629788Y-123130106D01*
X135629792Y-123130104D01*
X135780104Y-122979792D01*
X135899683Y-122815204D01*
X135955011Y-122772540D01*
X136024624Y-122766561D01*
X136086420Y-122799166D01*
X136100313Y-122815199D01*
X136170801Y-122912218D01*
X136219896Y-122979792D01*
X136370213Y-123130109D01*
X136542179Y-123255048D01*
X136542181Y-123255049D01*
X136542184Y-123255051D01*
X136731588Y-123351557D01*
X136933757Y-123417246D01*
X137143713Y-123450500D01*
X137143714Y-123450500D01*
X137356286Y-123450500D01*
X137356287Y-123450500D01*
X137566243Y-123417246D01*
X137768412Y-123351557D01*
X137957816Y-123255051D01*
X137985323Y-123235066D01*
X138129786Y-123130109D01*
X138129788Y-123130106D01*
X138129792Y-123130104D01*
X138280104Y-122979792D01*
X138280106Y-122979788D01*
X138280109Y-122979786D01*
X138405048Y-122807820D01*
X138405047Y-122807820D01*
X138405051Y-122807816D01*
X138501557Y-122618412D01*
X138567246Y-122416243D01*
X138600500Y-122206287D01*
X138600500Y-121743713D01*
X138567246Y-121533757D01*
X138501557Y-121331588D01*
X138405051Y-121142184D01*
X138405049Y-121142181D01*
X138405048Y-121142179D01*
X138280109Y-120970213D01*
X138129786Y-120819890D01*
X137957820Y-120694951D01*
X137768414Y-120598444D01*
X137768413Y-120598443D01*
X137768412Y-120598443D01*
X137566243Y-120532754D01*
X137566241Y-120532753D01*
X137566240Y-120532753D01*
X137370240Y-120501710D01*
X137356287Y-120499500D01*
X137143713Y-120499500D01*
X137129760Y-120501710D01*
X136933760Y-120532753D01*
X136933757Y-120532754D01*
X136760494Y-120589051D01*
X136731585Y-120598444D01*
X136542179Y-120694951D01*
X136370213Y-120819890D01*
X136219894Y-120970209D01*
X136219890Y-120970214D01*
X136100318Y-121134793D01*
X136044989Y-121177459D01*
X135975375Y-121183438D01*
X135913580Y-121150833D01*
X135899682Y-121134793D01*
X135780109Y-120970214D01*
X135780105Y-120970209D01*
X135629786Y-120819890D01*
X135457817Y-120694949D01*
X135393204Y-120662026D01*
X135342408Y-120614051D01*
X135325500Y-120551542D01*
X135325500Y-112197742D01*
X135345185Y-112130703D01*
X135361819Y-112110061D01*
X136419561Y-111052319D01*
X136446488Y-111037615D01*
X136472307Y-111021023D01*
X136478507Y-111020131D01*
X136480884Y-111018834D01*
X136507242Y-111016000D01*
X136518000Y-111016000D01*
X136585039Y-111035685D01*
X136630794Y-111088489D01*
X136642000Y-111140000D01*
X136642000Y-112778159D01*
X136622315Y-112845198D01*
X136605681Y-112865840D01*
X136595713Y-112875807D01*
X136595710Y-112875811D01*
X136508109Y-113006914D01*
X136508102Y-113006927D01*
X136447764Y-113152598D01*
X136447761Y-113152610D01*
X136417000Y-113307253D01*
X136417000Y-113464946D01*
X136447761Y-113619589D01*
X136447764Y-113619601D01*
X136508102Y-113765272D01*
X136508109Y-113765285D01*
X136595710Y-113896388D01*
X136595713Y-113896392D01*
X136707207Y-114007886D01*
X136707211Y-114007889D01*
X136838314Y-114095490D01*
X136838327Y-114095497D01*
X136980990Y-114154589D01*
X136984003Y-114155837D01*
X137138653Y-114186599D01*
X137138656Y-114186600D01*
X137138658Y-114186600D01*
X137296344Y-114186600D01*
X137296345Y-114186599D01*
X137450997Y-114155837D01*
X137596679Y-114095494D01*
X137727789Y-114007889D01*
X137839289Y-113896389D01*
X137926894Y-113765279D01*
X137929369Y-113759305D01*
X137949804Y-113709968D01*
X137987237Y-113619597D01*
X138018000Y-113464942D01*
X138018000Y-113307258D01*
X138018000Y-113307255D01*
X138017999Y-113307253D01*
X138009698Y-113265523D01*
X137987237Y-113152603D01*
X137986367Y-113150502D01*
X137926897Y-113006927D01*
X137926890Y-113006914D01*
X137839289Y-112875811D01*
X137839286Y-112875807D01*
X137829319Y-112865840D01*
X137795834Y-112804517D01*
X137793000Y-112778159D01*
X137793000Y-107103042D01*
X137812685Y-107036003D01*
X137829319Y-107015361D01*
X143071761Y-101772919D01*
X143133084Y-101739434D01*
X143159442Y-101736600D01*
X143173544Y-101736600D01*
X143173545Y-101736599D01*
X143328197Y-101705837D01*
X143473879Y-101645494D01*
X143604989Y-101557889D01*
X143716489Y-101446389D01*
X143804094Y-101315279D01*
X143840218Y-101228065D01*
X143884057Y-101173665D01*
X143950350Y-101151599D01*
X144018050Y-101168877D01*
X144042459Y-101187839D01*
X146888181Y-104033561D01*
X146921666Y-104094884D01*
X146924500Y-104121242D01*
X146924500Y-105033758D01*
X146904815Y-105100797D01*
X146852011Y-105146552D01*
X146782853Y-105156496D01*
X146719297Y-105127471D01*
X146712819Y-105121439D01*
X145840667Y-104249287D01*
X145840665Y-104249285D01*
X145750909Y-104197464D01*
X145709436Y-104173519D01*
X145630740Y-104152433D01*
X145563066Y-104134300D01*
X142778267Y-104134300D01*
X142626734Y-104134300D01*
X142626732Y-104134300D01*
X142553303Y-104153975D01*
X142521211Y-104158200D01*
X142374755Y-104158200D01*
X142220110Y-104188961D01*
X142220098Y-104188964D01*
X142074427Y-104249302D01*
X142074414Y-104249309D01*
X141943311Y-104336910D01*
X141943307Y-104336913D01*
X141831813Y-104448407D01*
X141831810Y-104448411D01*
X141744209Y-104579514D01*
X141744202Y-104579527D01*
X141683864Y-104725198D01*
X141683861Y-104725210D01*
X141653100Y-104879853D01*
X141653100Y-105037546D01*
X141683861Y-105192189D01*
X141683864Y-105192201D01*
X141744202Y-105337872D01*
X141744209Y-105337885D01*
X141831810Y-105468988D01*
X141831813Y-105468992D01*
X141943307Y-105580486D01*
X141943311Y-105580489D01*
X142074414Y-105668090D01*
X142074427Y-105668097D01*
X142171584Y-105708340D01*
X142220103Y-105728437D01*
X142362471Y-105756756D01*
X142374753Y-105759199D01*
X142374756Y-105759200D01*
X142374758Y-105759200D01*
X142532444Y-105759200D01*
X142532445Y-105759199D01*
X142687097Y-105728437D01*
X142829498Y-105669452D01*
X142857074Y-105666488D01*
X142884087Y-105660220D01*
X142891323Y-105662805D01*
X142898967Y-105661984D01*
X142923768Y-105674398D01*
X142949883Y-105683730D01*
X142956810Y-105690938D01*
X142961446Y-105693259D01*
X142975182Y-105708340D01*
X142977731Y-105711649D01*
X143001211Y-105746789D01*
X143016847Y-105762425D01*
X143021732Y-105768766D01*
X143031607Y-105794166D01*
X143044665Y-105818078D01*
X143046103Y-105831451D01*
X143047050Y-105833887D01*
X143046602Y-105836091D01*
X143047500Y-105844440D01*
X143047500Y-110075958D01*
X143027815Y-110142997D01*
X143011181Y-110163639D01*
X140151739Y-113023081D01*
X140090416Y-113056566D01*
X140064058Y-113059400D01*
X140049955Y-113059400D01*
X139895310Y-113090161D01*
X139895298Y-113090164D01*
X139749627Y-113150502D01*
X139749614Y-113150509D01*
X139618511Y-113238110D01*
X139618507Y-113238113D01*
X139507013Y-113349607D01*
X139507010Y-113349611D01*
X139419409Y-113480714D01*
X139419402Y-113480727D01*
X139359064Y-113626398D01*
X139359061Y-113626410D01*
X139328300Y-113781053D01*
X139328300Y-113938746D01*
X139359061Y-114093389D01*
X139359064Y-114093401D01*
X139419402Y-114239072D01*
X139419409Y-114239085D01*
X139507010Y-114370188D01*
X139507013Y-114370192D01*
X139618507Y-114481686D01*
X139618511Y-114481689D01*
X139749614Y-114569290D01*
X139749627Y-114569297D01*
X139815942Y-114596765D01*
X139895303Y-114629637D01*
X140038943Y-114658209D01*
X140049953Y-114660399D01*
X140049956Y-114660400D01*
X140049958Y-114660400D01*
X140207644Y-114660400D01*
X140207645Y-114660399D01*
X140362297Y-114629637D01*
X140507979Y-114569294D01*
X140639089Y-114481689D01*
X140750589Y-114370189D01*
X140838194Y-114239079D01*
X140898537Y-114093397D01*
X140929300Y-113938742D01*
X140929300Y-113924642D01*
X140948985Y-113857603D01*
X140965619Y-113836961D01*
X142494566Y-112308014D01*
X144083515Y-110719065D01*
X144159281Y-110587835D01*
X144198500Y-110441467D01*
X144198500Y-110289934D01*
X144198500Y-105844440D01*
X144218185Y-105777401D01*
X144234822Y-105756756D01*
X144244787Y-105746791D01*
X144244789Y-105746789D01*
X144332394Y-105615679D01*
X144392737Y-105469997D01*
X144401029Y-105428309D01*
X144409623Y-105385109D01*
X144442008Y-105323198D01*
X144502724Y-105288623D01*
X144531240Y-105285300D01*
X145197558Y-105285300D01*
X145264597Y-105304985D01*
X145285239Y-105321619D01*
X145490607Y-105526987D01*
X145524092Y-105588310D01*
X145519108Y-105658002D01*
X145506029Y-105683558D01*
X145440308Y-105781916D01*
X145440302Y-105781927D01*
X145379964Y-105927598D01*
X145379961Y-105927610D01*
X145349200Y-106082253D01*
X145349200Y-106239946D01*
X145379961Y-106394589D01*
X145379964Y-106394601D01*
X145440302Y-106540272D01*
X145440309Y-106540285D01*
X145527909Y-106671387D01*
X145527910Y-106671388D01*
X145527911Y-106671389D01*
X145638182Y-106781660D01*
X145671666Y-106842981D01*
X145674500Y-106869340D01*
X145674500Y-120551542D01*
X145654815Y-120618581D01*
X145606796Y-120662026D01*
X145542182Y-120694949D01*
X145370215Y-120819889D01*
X145231398Y-120958706D01*
X145170075Y-120992190D01*
X145100383Y-120987206D01*
X145044450Y-120945334D01*
X145038178Y-120936120D01*
X144942712Y-120781344D01*
X144818657Y-120657289D01*
X144818656Y-120657288D01*
X144701260Y-120584878D01*
X144669336Y-120565187D01*
X144669331Y-120565185D01*
X144659454Y-120561912D01*
X144502797Y-120510001D01*
X144502795Y-120510000D01*
X144400010Y-120499500D01*
X143099998Y-120499500D01*
X143099981Y-120499501D01*
X142997203Y-120510000D01*
X142997200Y-120510001D01*
X142830668Y-120565185D01*
X142830663Y-120565187D01*
X142681342Y-120657289D01*
X142557289Y-120781342D01*
X142465187Y-120930663D01*
X142465185Y-120930668D01*
X142453083Y-120967190D01*
X142410001Y-121097203D01*
X142410001Y-121097204D01*
X142410000Y-121097204D01*
X142399500Y-121199983D01*
X142399500Y-122750001D01*
X142399501Y-122750018D01*
X142410000Y-122852796D01*
X142410001Y-122852799D01*
X142465185Y-123019331D01*
X142465187Y-123019336D01*
X142500069Y-123075888D01*
X142557288Y-123168656D01*
X142681344Y-123292712D01*
X142830666Y-123384814D01*
X142997203Y-123439999D01*
X143099991Y-123450500D01*
X144360257Y-123450499D01*
X144427296Y-123470184D01*
X144447938Y-123486818D01*
X144500685Y-123539565D01*
X144607835Y-123646715D01*
X144739065Y-123722481D01*
X144885433Y-123761700D01*
X144885434Y-123761700D01*
X144885435Y-123761700D01*
X152028064Y-123761700D01*
X152028066Y-123761700D01*
X152174435Y-123722481D01*
X152305665Y-123646715D01*
X155278919Y-120673461D01*
X155340242Y-120639976D01*
X155409934Y-120644960D01*
X155465867Y-120686832D01*
X155490284Y-120752296D01*
X155490600Y-120761142D01*
X155490600Y-121334559D01*
X155470915Y-121401598D01*
X155454281Y-121422240D01*
X155444313Y-121432207D01*
X155444310Y-121432211D01*
X155356709Y-121563314D01*
X155356702Y-121563327D01*
X155296364Y-121708998D01*
X155296361Y-121709010D01*
X155265600Y-121863653D01*
X155265600Y-122021346D01*
X155296361Y-122175989D01*
X155296364Y-122176001D01*
X155356702Y-122321672D01*
X155356709Y-122321685D01*
X155444310Y-122452788D01*
X155444313Y-122452792D01*
X155555807Y-122564286D01*
X155555811Y-122564289D01*
X155686914Y-122651890D01*
X155686927Y-122651897D01*
X155832598Y-122712235D01*
X155832603Y-122712237D01*
X155987253Y-122742999D01*
X155987256Y-122743000D01*
X155987258Y-122743000D01*
X156144944Y-122743000D01*
X156260032Y-122720107D01*
X156329624Y-122726334D01*
X156384801Y-122769197D01*
X156407582Y-122829120D01*
X156410001Y-122852798D01*
X156410001Y-122852799D01*
X156465185Y-123019331D01*
X156465187Y-123019336D01*
X156500069Y-123075888D01*
X156557288Y-123168656D01*
X156681344Y-123292712D01*
X156830666Y-123384814D01*
X156997203Y-123439999D01*
X157099991Y-123450500D01*
X158400008Y-123450499D01*
X158502797Y-123439999D01*
X158669334Y-123384814D01*
X158818656Y-123292712D01*
X158942712Y-123168656D01*
X159034814Y-123019334D01*
X159034814Y-123019331D01*
X159038178Y-123013879D01*
X159090126Y-122967154D01*
X159159088Y-122955931D01*
X159223170Y-122983774D01*
X159231398Y-122991294D01*
X159370213Y-123130109D01*
X159542179Y-123255048D01*
X159542181Y-123255049D01*
X159542184Y-123255051D01*
X159731588Y-123351557D01*
X159933757Y-123417246D01*
X160044583Y-123434799D01*
X160107717Y-123464728D01*
X160144649Y-123524039D01*
X160143651Y-123593902D01*
X160112866Y-123644953D01*
X159852639Y-123905181D01*
X159791316Y-123938666D01*
X159764958Y-123941500D01*
X159750855Y-123941500D01*
X159596210Y-123972261D01*
X159596198Y-123972264D01*
X159450527Y-124032602D01*
X159450514Y-124032609D01*
X159319411Y-124120210D01*
X159319407Y-124120213D01*
X159207913Y-124231707D01*
X159207910Y-124231711D01*
X159120309Y-124362814D01*
X159120302Y-124362827D01*
X159059964Y-124508498D01*
X159059961Y-124508510D01*
X159029200Y-124663153D01*
X159029200Y-124820846D01*
X159059961Y-124975489D01*
X159059964Y-124975501D01*
X159120302Y-125121172D01*
X159120309Y-125121185D01*
X159207910Y-125252288D01*
X159207913Y-125252292D01*
X159319407Y-125363786D01*
X159319411Y-125363789D01*
X159450514Y-125451390D01*
X159450527Y-125451397D01*
X159596198Y-125511735D01*
X159596203Y-125511737D01*
X159750853Y-125542499D01*
X159750856Y-125542500D01*
X159750858Y-125542500D01*
X159908544Y-125542500D01*
X159908545Y-125542499D01*
X160063197Y-125511737D01*
X160208879Y-125451394D01*
X160339989Y-125363789D01*
X160451489Y-125252289D01*
X160539094Y-125121179D01*
X160599437Y-124975497D01*
X160630200Y-124820842D01*
X160630200Y-124806742D01*
X160649885Y-124739703D01*
X160666519Y-124719061D01*
X162037005Y-123348575D01*
X162098328Y-123315090D01*
X162168020Y-123320074D01*
X162180982Y-123325772D01*
X162231583Y-123351555D01*
X162231585Y-123351555D01*
X162231588Y-123351557D01*
X162433757Y-123417246D01*
X162643713Y-123450500D01*
X162643714Y-123450500D01*
X162856286Y-123450500D01*
X162856287Y-123450500D01*
X163066243Y-123417246D01*
X163268412Y-123351557D01*
X163457816Y-123255051D01*
X163485323Y-123235066D01*
X163629786Y-123130109D01*
X163629788Y-123130106D01*
X163629792Y-123130104D01*
X163676577Y-123083319D01*
X163737900Y-123049834D01*
X163807592Y-123054818D01*
X163851939Y-123083319D01*
X164316085Y-123547465D01*
X164423235Y-123654615D01*
X164540782Y-123722481D01*
X164554465Y-123730381D01*
X164700833Y-123769600D01*
X164700834Y-123769600D01*
X164700835Y-123769600D01*
X165790264Y-123769600D01*
X165790266Y-123769600D01*
X165936635Y-123730381D01*
X166067865Y-123654615D01*
X168590299Y-121132179D01*
X168651620Y-121098696D01*
X168721312Y-121103680D01*
X168777245Y-121145552D01*
X168801662Y-121211016D01*
X168792539Y-121267314D01*
X168750053Y-121369883D01*
X168654487Y-121684922D01*
X168654484Y-121684933D01*
X168590268Y-122007781D01*
X168590265Y-122007798D01*
X168570716Y-122206287D01*
X168559352Y-122321679D01*
X168558000Y-122335403D01*
X168558000Y-122664596D01*
X168590265Y-122992201D01*
X168590268Y-122992218D01*
X168654484Y-123315066D01*
X168654487Y-123315077D01*
X168750052Y-123630112D01*
X168876028Y-123934244D01*
X168876035Y-123934258D01*
X169031207Y-124224567D01*
X169031218Y-124224585D01*
X169214101Y-124498289D01*
X169214111Y-124498303D01*
X169422953Y-124752777D01*
X169655722Y-124985546D01*
X169655727Y-124985550D01*
X169655728Y-124985551D01*
X169910202Y-125194393D01*
X170183921Y-125377286D01*
X170474249Y-125532469D01*
X170778389Y-125658448D01*
X171093413Y-125754010D01*
X171093419Y-125754011D01*
X171093422Y-125754012D01*
X171093433Y-125754015D01*
X171273861Y-125789903D01*
X171416287Y-125818233D01*
X171743900Y-125850500D01*
X171743903Y-125850500D01*
X172073097Y-125850500D01*
X172073100Y-125850500D01*
X172400713Y-125818233D01*
X172578260Y-125782916D01*
X172723566Y-125754015D01*
X172723577Y-125754012D01*
X172723577Y-125754011D01*
X172723587Y-125754010D01*
X173038611Y-125658448D01*
X173342751Y-125532469D01*
X173633079Y-125377286D01*
X173906798Y-125194393D01*
X174161272Y-124985551D01*
X174394051Y-124752772D01*
X174602893Y-124498298D01*
X174785786Y-124224579D01*
X174940969Y-123934251D01*
X175066948Y-123630111D01*
X175162510Y-123315087D01*
X175162512Y-123315077D01*
X175162515Y-123315066D01*
X175214280Y-123054818D01*
X175226733Y-122992213D01*
X175259000Y-122664600D01*
X175259000Y-122335400D01*
X175226733Y-122007787D01*
X175198063Y-121863653D01*
X175162515Y-121684933D01*
X175162512Y-121684922D01*
X175162511Y-121684919D01*
X175162510Y-121684913D01*
X175066948Y-121369889D01*
X174940969Y-121065749D01*
X174785786Y-120775421D01*
X174602893Y-120501702D01*
X174394051Y-120247228D01*
X174394050Y-120247227D01*
X174394046Y-120247222D01*
X174161277Y-120014453D01*
X173906803Y-119805611D01*
X173906802Y-119805610D01*
X173906798Y-119805607D01*
X173633079Y-119622714D01*
X173633074Y-119622711D01*
X173633067Y-119622707D01*
X173342852Y-119467585D01*
X173342751Y-119467531D01*
X173222608Y-119417766D01*
X173038612Y-119341552D01*
X172723577Y-119245987D01*
X172723566Y-119245984D01*
X172400718Y-119181768D01*
X172400713Y-119181767D01*
X172400711Y-119181766D01*
X172400701Y-119181765D01*
X172160022Y-119158061D01*
X172073100Y-119149500D01*
X171743900Y-119149500D01*
X171664040Y-119157365D01*
X171416298Y-119181765D01*
X171416281Y-119181768D01*
X171093433Y-119245984D01*
X171093422Y-119245987D01*
X170778383Y-119341553D01*
X170612421Y-119410297D01*
X170542952Y-119417766D01*
X170480473Y-119386491D01*
X170444821Y-119326401D01*
X170447315Y-119256576D01*
X170457580Y-119233740D01*
X170490781Y-119176235D01*
X170530000Y-119029866D01*
X170530000Y-118949839D01*
X170549685Y-118882800D01*
X170602489Y-118837045D01*
X170629800Y-118828224D01*
X170714697Y-118811337D01*
X170860379Y-118750994D01*
X170991489Y-118663389D01*
X171102989Y-118551889D01*
X171190594Y-118420779D01*
X171250937Y-118275097D01*
X171281700Y-118120442D01*
X171281700Y-118106342D01*
X171301385Y-118039303D01*
X171318019Y-118018661D01*
X174944811Y-114391869D01*
X174944814Y-114391866D01*
X174957330Y-114370189D01*
X175020581Y-114260635D01*
X175039220Y-114191073D01*
X175059800Y-114114267D01*
X175059800Y-113962734D01*
X175059800Y-109340827D01*
X175079485Y-109273788D01*
X175110914Y-109240509D01*
X175114544Y-109237871D01*
X175114547Y-109237870D01*
X175267676Y-109126615D01*
X175401515Y-108992776D01*
X175512770Y-108839647D01*
X175516838Y-108831662D01*
X175564804Y-108780865D01*
X175632624Y-108764063D01*
X175659408Y-108768173D01*
X175721834Y-108784900D01*
X175892873Y-108784900D01*
X175959912Y-108804585D01*
X175993191Y-108836014D01*
X175995828Y-108839644D01*
X175995830Y-108839647D01*
X176107085Y-108992776D01*
X176240924Y-109126615D01*
X176394053Y-109237870D01*
X176446296Y-109264489D01*
X176562695Y-109323798D01*
X176562697Y-109323798D01*
X176562700Y-109323800D01*
X176615104Y-109340827D01*
X176742713Y-109382290D01*
X176814494Y-109393659D01*
X176929661Y-109411900D01*
X176929662Y-109411900D01*
X177118938Y-109411900D01*
X177118939Y-109411900D01*
X177305886Y-109382290D01*
X177485900Y-109323800D01*
X177654547Y-109237870D01*
X177807676Y-109126615D01*
X177941515Y-108992776D01*
X178052770Y-108839647D01*
X178138700Y-108671000D01*
X178176369Y-108555067D01*
X178215807Y-108497391D01*
X178280165Y-108470193D01*
X178349012Y-108482108D01*
X178400487Y-108529352D01*
X178412231Y-108555067D01*
X178449900Y-108671000D01*
X178535830Y-108839647D01*
X178647085Y-108992776D01*
X178780924Y-109126615D01*
X178934053Y-109237870D01*
X178986296Y-109264489D01*
X179102695Y-109323798D01*
X179102697Y-109323798D01*
X179102700Y-109323800D01*
X179155104Y-109340827D01*
X179282713Y-109382290D01*
X179354494Y-109393659D01*
X179469661Y-109411900D01*
X179469662Y-109411900D01*
X179658938Y-109411900D01*
X179658939Y-109411900D01*
X179845886Y-109382290D01*
X180025900Y-109323800D01*
X180194547Y-109237870D01*
X180227614Y-109213844D01*
X180293420Y-109190365D01*
X180361474Y-109206190D01*
X180410169Y-109256296D01*
X180424500Y-109314163D01*
X180424500Y-120551542D01*
X180404815Y-120618581D01*
X180356796Y-120662026D01*
X180292182Y-120694949D01*
X180120215Y-120819889D01*
X179981398Y-120958706D01*
X179920075Y-120992190D01*
X179850383Y-120987206D01*
X179794450Y-120945334D01*
X179788178Y-120936120D01*
X179692712Y-120781344D01*
X179568657Y-120657289D01*
X179568656Y-120657288D01*
X179451260Y-120584878D01*
X179419336Y-120565187D01*
X179419331Y-120565185D01*
X179409454Y-120561912D01*
X179252797Y-120510001D01*
X179252795Y-120510000D01*
X179150010Y-120499500D01*
X177849998Y-120499500D01*
X177849981Y-120499501D01*
X177747203Y-120510000D01*
X177747200Y-120510001D01*
X177580668Y-120565185D01*
X177580663Y-120565187D01*
X177431342Y-120657289D01*
X177307289Y-120781342D01*
X177215187Y-120930663D01*
X177215185Y-120930668D01*
X177203083Y-120967190D01*
X177160001Y-121097203D01*
X177160001Y-121097204D01*
X177160000Y-121097204D01*
X177149500Y-121199983D01*
X177149500Y-122750001D01*
X177149501Y-122750018D01*
X177160000Y-122852796D01*
X177160001Y-122852799D01*
X177215185Y-123019331D01*
X177215187Y-123019336D01*
X177250069Y-123075888D01*
X177307288Y-123168656D01*
X177431344Y-123292712D01*
X177580666Y-123384814D01*
X177747203Y-123439999D01*
X177849991Y-123450500D01*
X179150008Y-123450499D01*
X179252797Y-123439999D01*
X179419334Y-123384814D01*
X179568656Y-123292712D01*
X179692712Y-123168656D01*
X179784814Y-123019334D01*
X179784814Y-123019331D01*
X179788178Y-123013879D01*
X179840126Y-122967154D01*
X179909088Y-122955931D01*
X179973170Y-122983774D01*
X179981398Y-122991294D01*
X180120213Y-123130109D01*
X180292179Y-123255048D01*
X180292181Y-123255049D01*
X180292184Y-123255051D01*
X180481588Y-123351557D01*
X180683757Y-123417246D01*
X180893713Y-123450500D01*
X180893714Y-123450500D01*
X181106286Y-123450500D01*
X181106287Y-123450500D01*
X181316243Y-123417246D01*
X181518412Y-123351557D01*
X181707816Y-123255051D01*
X181735323Y-123235066D01*
X181879786Y-123130109D01*
X181879788Y-123130106D01*
X181879792Y-123130104D01*
X182030104Y-122979792D01*
X182149991Y-122814779D01*
X182205320Y-122772115D01*
X182274933Y-122766136D01*
X182336729Y-122798741D01*
X182350627Y-122814781D01*
X182470272Y-122979459D01*
X182470276Y-122979464D01*
X182620535Y-123129723D01*
X182620540Y-123129727D01*
X182792442Y-123254620D01*
X182981782Y-123351095D01*
X183183871Y-123416757D01*
X183250000Y-123427231D01*
X183250000Y-122379145D01*
X183316657Y-122417630D01*
X183437465Y-122450000D01*
X183562535Y-122450000D01*
X183683343Y-122417630D01*
X183750000Y-122379145D01*
X183750000Y-123427230D01*
X183816126Y-123416757D01*
X183816129Y-123416757D01*
X184018217Y-123351095D01*
X184207557Y-123254620D01*
X184379459Y-123129727D01*
X184379464Y-123129723D01*
X184529723Y-122979464D01*
X184529727Y-122979459D01*
X184654620Y-122807557D01*
X184751095Y-122618217D01*
X184816757Y-122416130D01*
X184816757Y-122416127D01*
X184847030Y-122225000D01*
X183904146Y-122225000D01*
X183942630Y-122158343D01*
X183975000Y-122037535D01*
X183975000Y-121912465D01*
X183942630Y-121791657D01*
X183904146Y-121725000D01*
X184847030Y-121725000D01*
X184816757Y-121533872D01*
X184816757Y-121533869D01*
X184751095Y-121331782D01*
X184654620Y-121142442D01*
X184529727Y-120970540D01*
X184529723Y-120970535D01*
X184379464Y-120820276D01*
X184379459Y-120820272D01*
X184207557Y-120695379D01*
X184018215Y-120598903D01*
X183816124Y-120533241D01*
X183750000Y-120522768D01*
X183750000Y-121570854D01*
X183683343Y-121532370D01*
X183562535Y-121500000D01*
X183437465Y-121500000D01*
X183316657Y-121532370D01*
X183250000Y-121570854D01*
X183250000Y-120522768D01*
X183249999Y-120522768D01*
X183183875Y-120533241D01*
X182981784Y-120598903D01*
X182792442Y-120695379D01*
X182620540Y-120820272D01*
X182620535Y-120820276D01*
X182470276Y-120970535D01*
X182470272Y-120970540D01*
X182350627Y-121135218D01*
X182295297Y-121177884D01*
X182225684Y-121183863D01*
X182163889Y-121151257D01*
X182149991Y-121135218D01*
X182030109Y-120970214D01*
X182030105Y-120970209D01*
X181879786Y-120819890D01*
X181707817Y-120694949D01*
X181643204Y-120662026D01*
X181592408Y-120614051D01*
X181575500Y-120551542D01*
X181575500Y-109472636D01*
X181595185Y-109405597D01*
X181647989Y-109359842D01*
X181717147Y-109349898D01*
X181737805Y-109354701D01*
X181822714Y-109382290D01*
X182009661Y-109411900D01*
X182009662Y-109411900D01*
X182198938Y-109411900D01*
X182198939Y-109411900D01*
X182385886Y-109382290D01*
X182565900Y-109323800D01*
X182734547Y-109237870D01*
X182887676Y-109126615D01*
X183021515Y-108992776D01*
X183132770Y-108839647D01*
X183218700Y-108671000D01*
X183256369Y-108555067D01*
X183295807Y-108497391D01*
X183360165Y-108470193D01*
X183429012Y-108482108D01*
X183480487Y-108529352D01*
X183492231Y-108555067D01*
X183529900Y-108671000D01*
X183615830Y-108839647D01*
X183727085Y-108992776D01*
X183860924Y-109126615D01*
X184014053Y-109237870D01*
X184066296Y-109264489D01*
X184182695Y-109323798D01*
X184182697Y-109323798D01*
X184182700Y-109323800D01*
X184235104Y-109340827D01*
X184362713Y-109382290D01*
X184434494Y-109393659D01*
X184549661Y-109411900D01*
X184549662Y-109411900D01*
X184738938Y-109411900D01*
X184738939Y-109411900D01*
X184925886Y-109382290D01*
X185105900Y-109323800D01*
X185274547Y-109237870D01*
X185427676Y-109126615D01*
X185561515Y-108992776D01*
X185672770Y-108839647D01*
X185758700Y-108671000D01*
X185817190Y-108490986D01*
X185846800Y-108304039D01*
X185846800Y-108114761D01*
X185817190Y-107927814D01*
X185804625Y-107889144D01*
X185758698Y-107747795D01*
X185672769Y-107579152D01*
X185561515Y-107426024D01*
X185427676Y-107292185D01*
X185274547Y-107180930D01*
X185256383Y-107171675D01*
X185105904Y-107095001D01*
X184925886Y-107036509D01*
X184764499Y-107010948D01*
X184738939Y-107006900D01*
X184549661Y-107006900D01*
X184527174Y-107010461D01*
X184362713Y-107036509D01*
X184182695Y-107095001D01*
X184014052Y-107180930D01*
X183963815Y-107217430D01*
X183860924Y-107292185D01*
X183860922Y-107292187D01*
X183860921Y-107292187D01*
X183727087Y-107426021D01*
X183727087Y-107426022D01*
X183727085Y-107426024D01*
X183684318Y-107484888D01*
X183615830Y-107579152D01*
X183529901Y-107747795D01*
X183492231Y-107863733D01*
X183452793Y-107921408D01*
X183388434Y-107948606D01*
X183319588Y-107936691D01*
X183268112Y-107889447D01*
X183256369Y-107863733D01*
X183218698Y-107747795D01*
X183132769Y-107579152D01*
X183021515Y-107426024D01*
X182887676Y-107292185D01*
X182734547Y-107180930D01*
X182565900Y-107095000D01*
X182449967Y-107057331D01*
X182392291Y-107017893D01*
X182365093Y-106953535D01*
X182377008Y-106884688D01*
X182424252Y-106833213D01*
X182449967Y-106821469D01*
X182480343Y-106811599D01*
X182565900Y-106783800D01*
X182734547Y-106697870D01*
X182887676Y-106586615D01*
X183021515Y-106452776D01*
X183132770Y-106299647D01*
X183218700Y-106131000D01*
X183277190Y-105950986D01*
X183306800Y-105764039D01*
X183306800Y-105574761D01*
X183290207Y-105469997D01*
X183277190Y-105387813D01*
X183218698Y-105207795D01*
X183146122Y-105065358D01*
X183132770Y-105039153D01*
X183021515Y-104886024D01*
X182887676Y-104752185D01*
X182734547Y-104640930D01*
X182700031Y-104623343D01*
X182565904Y-104555001D01*
X182385886Y-104496509D01*
X182224499Y-104470948D01*
X182198939Y-104466900D01*
X182009661Y-104466900D01*
X181947345Y-104476770D01*
X181822712Y-104496510D01*
X181822705Y-104496511D01*
X181737817Y-104524093D01*
X181667976Y-104526088D01*
X181608143Y-104490007D01*
X181577316Y-104427306D01*
X181575500Y-104406162D01*
X181575500Y-99228690D01*
X182221800Y-99228690D01*
X182221800Y-99410109D01*
X182250178Y-99589279D01*
X182306234Y-99761804D01*
X182339020Y-99826149D01*
X182388593Y-99923442D01*
X182495222Y-100070204D01*
X182623496Y-100198478D01*
X182770258Y-100305107D01*
X182850384Y-100345933D01*
X182931895Y-100387465D01*
X183018157Y-100415493D01*
X183104422Y-100443522D01*
X183170725Y-100454023D01*
X183252192Y-100466927D01*
X183315327Y-100496856D01*
X183352258Y-100556168D01*
X183351260Y-100626030D01*
X183312650Y-100684263D01*
X183252192Y-100711873D01*
X183104420Y-100735278D01*
X182931895Y-100791334D01*
X182770257Y-100873693D01*
X182702778Y-100922720D01*
X182623496Y-100980322D01*
X182623494Y-100980324D01*
X182623493Y-100980324D01*
X182495224Y-101108593D01*
X182495224Y-101108594D01*
X182495222Y-101108596D01*
X182460591Y-101156261D01*
X182388593Y-101255357D01*
X182306234Y-101416995D01*
X182250178Y-101589520D01*
X182221800Y-101768690D01*
X182221800Y-101950109D01*
X182250178Y-102129279D01*
X182306234Y-102301804D01*
X182375924Y-102438577D01*
X182388593Y-102463442D01*
X182495222Y-102610204D01*
X182623496Y-102738478D01*
X182770258Y-102845107D01*
X182931893Y-102927464D01*
X182931895Y-102927465D01*
X183018157Y-102955493D01*
X183104422Y-102983522D01*
X183187405Y-102996665D01*
X183283591Y-103011900D01*
X183283596Y-103011900D01*
X183465009Y-103011900D01*
X183551868Y-102998142D01*
X183644178Y-102983522D01*
X183816707Y-102927464D01*
X183978342Y-102845107D01*
X184125104Y-102738478D01*
X184253378Y-102610204D01*
X184360007Y-102463442D01*
X184442364Y-102301807D01*
X184498422Y-102129278D01*
X184515510Y-102021390D01*
X184526800Y-101950109D01*
X184526800Y-101768690D01*
X184509887Y-101661909D01*
X184498422Y-101589522D01*
X184461751Y-101476661D01*
X184442365Y-101416995D01*
X184419834Y-101372776D01*
X184360007Y-101255358D01*
X184253378Y-101108596D01*
X184125104Y-100980322D01*
X183978342Y-100873693D01*
X183950051Y-100859278D01*
X183816704Y-100791334D01*
X183644179Y-100735278D01*
X183496407Y-100711873D01*
X183433272Y-100681944D01*
X183396341Y-100622632D01*
X183397339Y-100552770D01*
X183435949Y-100494537D01*
X183496407Y-100466927D01*
X183562503Y-100456457D01*
X183644178Y-100443522D01*
X183816707Y-100387464D01*
X183978342Y-100305107D01*
X184125104Y-100198478D01*
X184253378Y-100070204D01*
X184360007Y-99923442D01*
X184442364Y-99761807D01*
X184498422Y-99589278D01*
X184515664Y-99480416D01*
X184526800Y-99410109D01*
X184526800Y-99228690D01*
X184508538Y-99113392D01*
X184498422Y-99049522D01*
X184470393Y-98963257D01*
X184442365Y-98876995D01*
X184403239Y-98800206D01*
X184360007Y-98715358D01*
X184253378Y-98568596D01*
X184125104Y-98440322D01*
X183978342Y-98333693D01*
X183950051Y-98319278D01*
X183816704Y-98251334D01*
X183644179Y-98195278D01*
X183465009Y-98166900D01*
X183465004Y-98166900D01*
X183283596Y-98166900D01*
X183283591Y-98166900D01*
X183104420Y-98195278D01*
X182931895Y-98251334D01*
X182770257Y-98333693D01*
X182686524Y-98394529D01*
X182623496Y-98440322D01*
X182623494Y-98440324D01*
X182623493Y-98440324D01*
X182495224Y-98568593D01*
X182495224Y-98568594D01*
X182495222Y-98568596D01*
X182481712Y-98587191D01*
X182388593Y-98715357D01*
X182306234Y-98876995D01*
X182250178Y-99049520D01*
X182221800Y-99228690D01*
X181575500Y-99228690D01*
X181575500Y-94232636D01*
X181595185Y-94165597D01*
X181647989Y-94119842D01*
X181717147Y-94109898D01*
X181737805Y-94114701D01*
X181822714Y-94142290D01*
X182009661Y-94171900D01*
X182009662Y-94171900D01*
X182198938Y-94171900D01*
X182198939Y-94171900D01*
X182385886Y-94142290D01*
X182565900Y-94083800D01*
X182734547Y-93997870D01*
X182887676Y-93886615D01*
X183021515Y-93752776D01*
X183132770Y-93599647D01*
X183218700Y-93431000D01*
X183256631Y-93314257D01*
X183296068Y-93256584D01*
X183360427Y-93229385D01*
X183429273Y-93241300D01*
X183480749Y-93288544D01*
X183492493Y-93314258D01*
X183530364Y-93430812D01*
X183616257Y-93599385D01*
X183634985Y-93625160D01*
X184120512Y-93139633D01*
X184131782Y-93181692D01*
X184204190Y-93307108D01*
X184306592Y-93409510D01*
X184432008Y-93481918D01*
X184474065Y-93493187D01*
X183988537Y-93978714D01*
X184014308Y-93997439D01*
X184014312Y-93997441D01*
X184182887Y-94083335D01*
X184362830Y-94141803D01*
X184549696Y-94171400D01*
X184738904Y-94171400D01*
X184925769Y-94141803D01*
X185105712Y-94083335D01*
X185274287Y-93997441D01*
X185300060Y-93978713D01*
X185300061Y-93978713D01*
X184814535Y-93493187D01*
X184856592Y-93481918D01*
X184982008Y-93409510D01*
X185084410Y-93307108D01*
X185156818Y-93181692D01*
X185168087Y-93139635D01*
X185653613Y-93625161D01*
X185653613Y-93625160D01*
X185672341Y-93599387D01*
X185758235Y-93430812D01*
X185816703Y-93250869D01*
X185846300Y-93064004D01*
X185846300Y-92874795D01*
X185816703Y-92687930D01*
X185758235Y-92507987D01*
X185672341Y-92339412D01*
X185672339Y-92339408D01*
X185653614Y-92313638D01*
X185653614Y-92313637D01*
X185168087Y-92799164D01*
X185156818Y-92757108D01*
X185084410Y-92631692D01*
X184982008Y-92529290D01*
X184856592Y-92456882D01*
X184814534Y-92445612D01*
X185300060Y-91960085D01*
X185300060Y-91960084D01*
X185274285Y-91941357D01*
X185105712Y-91855464D01*
X184925769Y-91796996D01*
X184738904Y-91767400D01*
X184549696Y-91767400D01*
X184362830Y-91796996D01*
X184182887Y-91855464D01*
X184014310Y-91941359D01*
X183988538Y-91960084D01*
X183988537Y-91960085D01*
X184474065Y-92445612D01*
X184432008Y-92456882D01*
X184306592Y-92529290D01*
X184204190Y-92631692D01*
X184131782Y-92757108D01*
X184120512Y-92799165D01*
X183634985Y-92313637D01*
X183634984Y-92313638D01*
X183616259Y-92339410D01*
X183530364Y-92507988D01*
X183492493Y-92624541D01*
X183453054Y-92682216D01*
X183388695Y-92709414D01*
X183319849Y-92697499D01*
X183268374Y-92650254D01*
X183256631Y-92624540D01*
X183253806Y-92615846D01*
X183218700Y-92507800D01*
X183132770Y-92339153D01*
X183021515Y-92186024D01*
X182887676Y-92052185D01*
X182734547Y-91940930D01*
X182716383Y-91931675D01*
X182565904Y-91855001D01*
X182385886Y-91796509D01*
X182224499Y-91770948D01*
X182198939Y-91766900D01*
X182009661Y-91766900D01*
X181947345Y-91776770D01*
X181822712Y-91796510D01*
X181822705Y-91796511D01*
X181737817Y-91824093D01*
X181667976Y-91826088D01*
X181608143Y-91790007D01*
X181577316Y-91727306D01*
X181575500Y-91706162D01*
X181575500Y-90924236D01*
X181575500Y-90924234D01*
X181536281Y-90777865D01*
X181460515Y-90646635D01*
X181353365Y-90539485D01*
X177386818Y-86572938D01*
X177353333Y-86511615D01*
X177350499Y-86485257D01*
X177350499Y-85485500D01*
X177370184Y-85418461D01*
X177422988Y-85372706D01*
X177474499Y-85361500D01*
X178688758Y-85361500D01*
X178755797Y-85381185D01*
X178776439Y-85397819D01*
X179311481Y-85932861D01*
X179344966Y-85994184D01*
X179347800Y-86020542D01*
X179347800Y-86075765D01*
X179387019Y-86222136D01*
X179403107Y-86250000D01*
X179462785Y-86353365D01*
X179569935Y-86460515D01*
X179674983Y-86521165D01*
X179675290Y-86521342D01*
X179723506Y-86571909D01*
X179731220Y-86590409D01*
X179748442Y-86643412D01*
X179844951Y-86832820D01*
X179969890Y-87004786D01*
X180120213Y-87155109D01*
X180292179Y-87280048D01*
X180292181Y-87280049D01*
X180292184Y-87280051D01*
X180481588Y-87376557D01*
X180683757Y-87442246D01*
X180893713Y-87475500D01*
X180893714Y-87475500D01*
X181106286Y-87475500D01*
X181106287Y-87475500D01*
X181316243Y-87442246D01*
X181518412Y-87376557D01*
X181707816Y-87280051D01*
X181777229Y-87229620D01*
X181879786Y-87155109D01*
X181879788Y-87155106D01*
X181879792Y-87155104D01*
X182030104Y-87004792D01*
X182149683Y-86840204D01*
X182205011Y-86797540D01*
X182274624Y-86791561D01*
X182336420Y-86824166D01*
X182350313Y-86840199D01*
X182436213Y-86958431D01*
X182469896Y-87004792D01*
X182620213Y-87155109D01*
X182792179Y-87280048D01*
X182792181Y-87280049D01*
X182792184Y-87280051D01*
X182981588Y-87376557D01*
X183183757Y-87442246D01*
X183393713Y-87475500D01*
X183393714Y-87475500D01*
X183606286Y-87475500D01*
X183606287Y-87475500D01*
X183816243Y-87442246D01*
X184018412Y-87376557D01*
X184207816Y-87280051D01*
X184277229Y-87229620D01*
X184379786Y-87155109D01*
X184379788Y-87155106D01*
X184379792Y-87155104D01*
X184530104Y-87004792D01*
X184530106Y-87004788D01*
X184530109Y-87004786D01*
X184655048Y-86832820D01*
X184655047Y-86832820D01*
X184655051Y-86832816D01*
X184751557Y-86643412D01*
X184817246Y-86441243D01*
X184850500Y-86231287D01*
X184850500Y-85768713D01*
X184817246Y-85558757D01*
X184751557Y-85356588D01*
X184655051Y-85167184D01*
X184655049Y-85167181D01*
X184655048Y-85167179D01*
X184530109Y-84995213D01*
X184379786Y-84844890D01*
X184207820Y-84719951D01*
X184018414Y-84623444D01*
X184018413Y-84623443D01*
X184018412Y-84623443D01*
X183816243Y-84557754D01*
X183816241Y-84557753D01*
X183816240Y-84557753D01*
X183654957Y-84532208D01*
X183606287Y-84524500D01*
X183393713Y-84524500D01*
X183345042Y-84532208D01*
X183183760Y-84557753D01*
X182981585Y-84623444D01*
X182792179Y-84719951D01*
X182620213Y-84844890D01*
X182620209Y-84844894D01*
X182581623Y-84883481D01*
X182520300Y-84916966D01*
X182450608Y-84911982D01*
X182406261Y-84883481D01*
X181521967Y-83999187D01*
X181521965Y-83999185D01*
X181456350Y-83961302D01*
X181390736Y-83923419D01*
X181317550Y-83903809D01*
X181244366Y-83884200D01*
X175168767Y-83884200D01*
X175017234Y-83884200D01*
X174870863Y-83923419D01*
X174739635Y-83999185D01*
X174739632Y-83999187D01*
X172062181Y-86676638D01*
X172000858Y-86710123D01*
X171931166Y-86705139D01*
X171875233Y-86663267D01*
X171850816Y-86597803D01*
X171850500Y-86588957D01*
X171850500Y-86335403D01*
X171848289Y-86312959D01*
X171818233Y-86007787D01*
X171789903Y-85865361D01*
X171754015Y-85684933D01*
X171754012Y-85684922D01*
X171754011Y-85684919D01*
X171754010Y-85684913D01*
X171658448Y-85369889D01*
X171532469Y-85065749D01*
X171377286Y-84775421D01*
X171194393Y-84501702D01*
X170985551Y-84247228D01*
X170985550Y-84247227D01*
X170985546Y-84247222D01*
X170752777Y-84014453D01*
X170498303Y-83805611D01*
X170498302Y-83805610D01*
X170498298Y-83805607D01*
X170224579Y-83622714D01*
X170224574Y-83622711D01*
X170224567Y-83622707D01*
X169934258Y-83467535D01*
X169934251Y-83467531D01*
X169934244Y-83467528D01*
X169630112Y-83341552D01*
X169315077Y-83245987D01*
X169315066Y-83245984D01*
X168992218Y-83181768D01*
X168992213Y-83181767D01*
X168992211Y-83181766D01*
X168992201Y-83181765D01*
X168751522Y-83158061D01*
X168664600Y-83149500D01*
X168335400Y-83149500D01*
X168255540Y-83157365D01*
X168007798Y-83181765D01*
X168007781Y-83181768D01*
X167684933Y-83245984D01*
X167684922Y-83245987D01*
X167369887Y-83341552D01*
X167065755Y-83467528D01*
X167065741Y-83467535D01*
X166775432Y-83622707D01*
X166775414Y-83622718D01*
X166501710Y-83805601D01*
X166501696Y-83805611D01*
X166247222Y-84014453D01*
X166014453Y-84247222D01*
X165805611Y-84501696D01*
X165805601Y-84501710D01*
X165622718Y-84775414D01*
X165622707Y-84775432D01*
X165467535Y-85065741D01*
X165467528Y-85065755D01*
X165341552Y-85369887D01*
X165245987Y-85684922D01*
X165245984Y-85684933D01*
X165181768Y-86007781D01*
X165181765Y-86007798D01*
X165159754Y-86231285D01*
X165149500Y-86335400D01*
X165149500Y-86664600D01*
X165158158Y-86752508D01*
X165181765Y-86992201D01*
X165181768Y-86992218D01*
X165245984Y-87315066D01*
X165245987Y-87315077D01*
X165341552Y-87630112D01*
X165467528Y-87934244D01*
X165467535Y-87934258D01*
X165622707Y-88224567D01*
X165622718Y-88224585D01*
X165805601Y-88498289D01*
X165805611Y-88498303D01*
X166014453Y-88752777D01*
X166247222Y-88985546D01*
X166247227Y-88985550D01*
X166247228Y-88985551D01*
X166501702Y-89194393D01*
X166775421Y-89377286D01*
X167065749Y-89532469D01*
X167369889Y-89658448D01*
X167684913Y-89754010D01*
X167684919Y-89754011D01*
X167684922Y-89754012D01*
X167684933Y-89754015D01*
X167865361Y-89789903D01*
X168007787Y-89818233D01*
X168335400Y-89850500D01*
X168335403Y-89850500D01*
X168588957Y-89850500D01*
X168655996Y-89870185D01*
X168701751Y-89922989D01*
X168711695Y-89992147D01*
X168682670Y-90055703D01*
X168676638Y-90062181D01*
X167780935Y-90957885D01*
X167673787Y-91065032D01*
X167673785Y-91065035D01*
X167598019Y-91196263D01*
X167558800Y-91342634D01*
X167558800Y-91771318D01*
X167539115Y-91838357D01*
X167486311Y-91884112D01*
X167417153Y-91894056D01*
X167378506Y-91881803D01*
X167325907Y-91855002D01*
X167145886Y-91796509D01*
X166984499Y-91770948D01*
X166958939Y-91766900D01*
X166769661Y-91766900D01*
X166747174Y-91770461D01*
X166582713Y-91796509D01*
X166402695Y-91855001D01*
X166234052Y-91940930D01*
X166183815Y-91977430D01*
X166080924Y-92052185D01*
X166080922Y-92052187D01*
X166080921Y-92052187D01*
X165947087Y-92186021D01*
X165947087Y-92186022D01*
X165947085Y-92186024D01*
X165947083Y-92186027D01*
X165835830Y-92339152D01*
X165749901Y-92507795D01*
X165712231Y-92623733D01*
X165672793Y-92681408D01*
X165608434Y-92708606D01*
X165539588Y-92696691D01*
X165488112Y-92649447D01*
X165476369Y-92623733D01*
X165452480Y-92550210D01*
X165438700Y-92507800D01*
X165438698Y-92507797D01*
X165438698Y-92507795D01*
X165370208Y-92373377D01*
X165352770Y-92339153D01*
X165241515Y-92186024D01*
X165107676Y-92052185D01*
X164954547Y-91940930D01*
X164936383Y-91931675D01*
X164785904Y-91855001D01*
X164605886Y-91796509D01*
X164444499Y-91770948D01*
X164418939Y-91766900D01*
X164229661Y-91766900D01*
X164207174Y-91770461D01*
X164042713Y-91796509D01*
X163862695Y-91855001D01*
X163694052Y-91940930D01*
X163643815Y-91977430D01*
X163540924Y-92052185D01*
X163540922Y-92052187D01*
X163540921Y-92052187D01*
X163407087Y-92186021D01*
X163407082Y-92186027D01*
X163397999Y-92198529D01*
X163342668Y-92241193D01*
X163273054Y-92247171D01*
X163211260Y-92214563D01*
X163210002Y-92213322D01*
X162576867Y-91580187D01*
X162576865Y-91580185D01*
X162511250Y-91542302D01*
X162445636Y-91504419D01*
X162372450Y-91484809D01*
X162299266Y-91465200D01*
X160248766Y-91465200D01*
X160097233Y-91465200D01*
X159950863Y-91504419D01*
X159819635Y-91580185D01*
X159819632Y-91580187D01*
X159637399Y-91762420D01*
X159576076Y-91795905D01*
X159530320Y-91797212D01*
X159406758Y-91777641D01*
X159338939Y-91766900D01*
X159149661Y-91766900D01*
X159127174Y-91770461D01*
X158962713Y-91796509D01*
X158782695Y-91855001D01*
X158614052Y-91940930D01*
X158563815Y-91977430D01*
X158460924Y-92052185D01*
X158460922Y-92052187D01*
X158460921Y-92052187D01*
X158458381Y-92054728D01*
X158397058Y-92088213D01*
X158327366Y-92083229D01*
X158271433Y-92041357D01*
X158247016Y-91975893D01*
X158246700Y-91967047D01*
X158246700Y-88320240D01*
X158266385Y-88253201D01*
X158283015Y-88232563D01*
X158843155Y-87672422D01*
X158843160Y-87672419D01*
X158853363Y-87662215D01*
X158853365Y-87662215D01*
X158960515Y-87555065D01*
X159036281Y-87423835D01*
X159039487Y-87411868D01*
X159075849Y-87352207D01*
X159102965Y-87333474D01*
X159207816Y-87280051D01*
X159379792Y-87155104D01*
X159530104Y-87004792D01*
X159649991Y-86839779D01*
X159705320Y-86797115D01*
X159774933Y-86791136D01*
X159836729Y-86823741D01*
X159850627Y-86839781D01*
X159970272Y-87004459D01*
X159970276Y-87004464D01*
X160120535Y-87154723D01*
X160120540Y-87154727D01*
X160292442Y-87279620D01*
X160481782Y-87376095D01*
X160683871Y-87441757D01*
X160750000Y-87452231D01*
X160750000Y-86404145D01*
X160816657Y-86442630D01*
X160937465Y-86475000D01*
X161062535Y-86475000D01*
X161183343Y-86442630D01*
X161250000Y-86404145D01*
X161250000Y-87452230D01*
X161316126Y-87441757D01*
X161316129Y-87441757D01*
X161518217Y-87376095D01*
X161707557Y-87279620D01*
X161879459Y-87154727D01*
X161879464Y-87154723D01*
X162029723Y-87004464D01*
X162029727Y-87004459D01*
X162154620Y-86832557D01*
X162251095Y-86643217D01*
X162316757Y-86441130D01*
X162316757Y-86441127D01*
X162347030Y-86250000D01*
X161404146Y-86250000D01*
X161442630Y-86183343D01*
X161475000Y-86062535D01*
X161475000Y-85937465D01*
X161442630Y-85816657D01*
X161404146Y-85750000D01*
X162347030Y-85750000D01*
X162316757Y-85558872D01*
X162316757Y-85558869D01*
X162251095Y-85356782D01*
X162154620Y-85167442D01*
X162029727Y-84995540D01*
X162029723Y-84995535D01*
X161879464Y-84845276D01*
X161879459Y-84845272D01*
X161707557Y-84720379D01*
X161518215Y-84623903D01*
X161316124Y-84558241D01*
X161250000Y-84547768D01*
X161250000Y-85595854D01*
X161183343Y-85557370D01*
X161062535Y-85525000D01*
X160937465Y-85525000D01*
X160816657Y-85557370D01*
X160750000Y-85595854D01*
X160750000Y-84547768D01*
X160749999Y-84547768D01*
X160683875Y-84558241D01*
X160481784Y-84623903D01*
X160292442Y-84720379D01*
X160120540Y-84845272D01*
X160120535Y-84845276D01*
X159970276Y-84995535D01*
X159970272Y-84995540D01*
X159850627Y-85160218D01*
X159795297Y-85202884D01*
X159725684Y-85208863D01*
X159663889Y-85176257D01*
X159649991Y-85160218D01*
X159530109Y-84995214D01*
X159530105Y-84995209D01*
X159379786Y-84844890D01*
X159207820Y-84719951D01*
X159018414Y-84623444D01*
X159018413Y-84623443D01*
X159018412Y-84623443D01*
X158816243Y-84557754D01*
X158816241Y-84557753D01*
X158816240Y-84557753D01*
X158654957Y-84532208D01*
X158606287Y-84524500D01*
X158393713Y-84524500D01*
X158345042Y-84532208D01*
X158183760Y-84557753D01*
X157981585Y-84623444D01*
X157838495Y-84696352D01*
X157769825Y-84709248D01*
X157705085Y-84682971D01*
X157664828Y-84625865D01*
X157658200Y-84585867D01*
X157658200Y-83920236D01*
X157658200Y-83920234D01*
X157643615Y-83865801D01*
X157640569Y-83854434D01*
X157618981Y-83773865D01*
X157580992Y-83708066D01*
X157539151Y-83635596D01*
X157541021Y-83634516D01*
X157519929Y-83579941D01*
X157519500Y-83569636D01*
X157519500Y-83553455D01*
X157519499Y-83553453D01*
X157488738Y-83398810D01*
X157488737Y-83398803D01*
X157465023Y-83341552D01*
X157428397Y-83253127D01*
X157428390Y-83253114D01*
X157340789Y-83122011D01*
X157340786Y-83122007D01*
X157229292Y-83010513D01*
X157229288Y-83010510D01*
X157098185Y-82922909D01*
X157098172Y-82922902D01*
X156952501Y-82862564D01*
X156952489Y-82862561D01*
X156797845Y-82831800D01*
X156797842Y-82831800D01*
X156640158Y-82831800D01*
X156640155Y-82831800D01*
X156485510Y-82862561D01*
X156485498Y-82862564D01*
X156339827Y-82922902D01*
X156339814Y-82922909D01*
X156208711Y-83010510D01*
X156208707Y-83010513D01*
X156097213Y-83122007D01*
X156097210Y-83122011D01*
X156009609Y-83253114D01*
X156009602Y-83253127D01*
X155949264Y-83398798D01*
X155949261Y-83398810D01*
X155918500Y-83553453D01*
X155918500Y-83711146D01*
X155949261Y-83865789D01*
X155949264Y-83865801D01*
X156009602Y-84011472D01*
X156009609Y-84011485D01*
X156097210Y-84142588D01*
X156097213Y-84142592D01*
X156208707Y-84254086D01*
X156208711Y-84254089D01*
X156273527Y-84297398D01*
X156318332Y-84351010D01*
X156327039Y-84420335D01*
X156296885Y-84483362D01*
X156237442Y-84520082D01*
X156204636Y-84524500D01*
X155349998Y-84524500D01*
X155349981Y-84524501D01*
X155247203Y-84535000D01*
X155247200Y-84535001D01*
X155080668Y-84590185D01*
X155080663Y-84590187D01*
X154931342Y-84682289D01*
X154807289Y-84806342D01*
X154715187Y-84955663D01*
X154715185Y-84955668D01*
X154710325Y-84970334D01*
X154660001Y-85122203D01*
X154660001Y-85122204D01*
X154660000Y-85122204D01*
X154649500Y-85224983D01*
X154649500Y-86775001D01*
X154649501Y-86775018D01*
X154660000Y-86877796D01*
X154660001Y-86877799D01*
X154707729Y-87021831D01*
X154715186Y-87044334D01*
X154807288Y-87193656D01*
X154931344Y-87317712D01*
X155080666Y-87409814D01*
X155247203Y-87464999D01*
X155349991Y-87475500D01*
X156383200Y-87475499D01*
X156450239Y-87495183D01*
X156495994Y-87547987D01*
X156507200Y-87599499D01*
X156507200Y-91678967D01*
X156487515Y-91746006D01*
X156434711Y-91791761D01*
X156421519Y-91796898D01*
X156242695Y-91855001D01*
X156074052Y-91940930D01*
X156023815Y-91977430D01*
X155920924Y-92052185D01*
X155920922Y-92052187D01*
X155920921Y-92052187D01*
X155787087Y-92186021D01*
X155787087Y-92186022D01*
X155787085Y-92186024D01*
X155787083Y-92186027D01*
X155675830Y-92339152D01*
X155589901Y-92507795D01*
X155552231Y-92623733D01*
X155512793Y-92681408D01*
X155448434Y-92708606D01*
X155379588Y-92696691D01*
X155328112Y-92649447D01*
X155316369Y-92623733D01*
X155292480Y-92550210D01*
X155278700Y-92507800D01*
X155278698Y-92507797D01*
X155278698Y-92507795D01*
X155210208Y-92373377D01*
X155192770Y-92339153D01*
X155081515Y-92186024D01*
X154947676Y-92052185D01*
X154794547Y-91940930D01*
X154776383Y-91931675D01*
X154625904Y-91855001D01*
X154445886Y-91796509D01*
X154284499Y-91770948D01*
X154258939Y-91766900D01*
X154069661Y-91766900D01*
X154047174Y-91770461D01*
X153882713Y-91796509D01*
X153702695Y-91855001D01*
X153534052Y-91940930D01*
X153483815Y-91977430D01*
X153380924Y-92052185D01*
X153380922Y-92052187D01*
X153380921Y-92052187D01*
X153247087Y-92186021D01*
X153247087Y-92186022D01*
X153247085Y-92186024D01*
X153247083Y-92186027D01*
X153135830Y-92339152D01*
X153049901Y-92507795D01*
X153012231Y-92623733D01*
X152972793Y-92681408D01*
X152908434Y-92708606D01*
X152839588Y-92696691D01*
X152788112Y-92649447D01*
X152776369Y-92623733D01*
X152752480Y-92550210D01*
X152738700Y-92507800D01*
X152738698Y-92507797D01*
X152738698Y-92507795D01*
X152670208Y-92373377D01*
X152652770Y-92339153D01*
X152541515Y-92186024D01*
X152407676Y-92052185D01*
X152254547Y-91940930D01*
X152236383Y-91931675D01*
X152085904Y-91855001D01*
X151905886Y-91796509D01*
X151744499Y-91770948D01*
X151718939Y-91766900D01*
X151529661Y-91766900D01*
X151507174Y-91770461D01*
X151342713Y-91796509D01*
X151162695Y-91855001D01*
X150994052Y-91940930D01*
X150943815Y-91977430D01*
X150840924Y-92052185D01*
X150840922Y-92052187D01*
X150840921Y-92052187D01*
X150707086Y-92186022D01*
X150606306Y-92324733D01*
X150550975Y-92367398D01*
X150481362Y-92373377D01*
X150419567Y-92340771D01*
X150418307Y-92339528D01*
X149036664Y-90957885D01*
X147611819Y-89533039D01*
X147578334Y-89471716D01*
X147575500Y-89445358D01*
X147575500Y-87423456D01*
X147595185Y-87356417D01*
X147643205Y-87312971D01*
X147707816Y-87280051D01*
X147777229Y-87229620D01*
X147879786Y-87155109D01*
X147879788Y-87155106D01*
X147879792Y-87155104D01*
X148030104Y-87004792D01*
X148149991Y-86839779D01*
X148205320Y-86797115D01*
X148274933Y-86791136D01*
X148336729Y-86823741D01*
X148350627Y-86839781D01*
X148470272Y-87004459D01*
X148470276Y-87004464D01*
X148620535Y-87154723D01*
X148620540Y-87154727D01*
X148792442Y-87279620D01*
X148981782Y-87376095D01*
X149183871Y-87441757D01*
X149250000Y-87452231D01*
X149250000Y-86404145D01*
X149316657Y-86442630D01*
X149437465Y-86475000D01*
X149562535Y-86475000D01*
X149683343Y-86442630D01*
X149750000Y-86404145D01*
X149750000Y-87452230D01*
X149816126Y-87441757D01*
X149816129Y-87441757D01*
X150018217Y-87376095D01*
X150207557Y-87279620D01*
X150379459Y-87154727D01*
X150379464Y-87154723D01*
X150529723Y-87004464D01*
X150529727Y-87004459D01*
X150654620Y-86832557D01*
X150751095Y-86643217D01*
X150816757Y-86441130D01*
X150816757Y-86441127D01*
X150847030Y-86250000D01*
X149904146Y-86250000D01*
X149942630Y-86183343D01*
X149975000Y-86062535D01*
X149975000Y-85937465D01*
X149942630Y-85816657D01*
X149904146Y-85750000D01*
X150847030Y-85750000D01*
X150816757Y-85558872D01*
X150816757Y-85558869D01*
X150751095Y-85356782D01*
X150654620Y-85167442D01*
X150529727Y-84995540D01*
X150529723Y-84995535D01*
X150379464Y-84845276D01*
X150379459Y-84845272D01*
X150207557Y-84720379D01*
X150018215Y-84623903D01*
X149816124Y-84558241D01*
X149750000Y-84547768D01*
X149750000Y-85595854D01*
X149683343Y-85557370D01*
X149562535Y-85525000D01*
X149437465Y-85525000D01*
X149316657Y-85557370D01*
X149250000Y-85595854D01*
X149250000Y-84547768D01*
X149249999Y-84547768D01*
X149183875Y-84558241D01*
X148981784Y-84623903D01*
X148792442Y-84720379D01*
X148620540Y-84845272D01*
X148620535Y-84845276D01*
X148470276Y-84995535D01*
X148470272Y-84995540D01*
X148350627Y-85160218D01*
X148295297Y-85202884D01*
X148225684Y-85208863D01*
X148163889Y-85176257D01*
X148149991Y-85160218D01*
X148030109Y-84995214D01*
X148030105Y-84995209D01*
X147879786Y-84844890D01*
X147707820Y-84719951D01*
X147518414Y-84623444D01*
X147518413Y-84623443D01*
X147518412Y-84623443D01*
X147316243Y-84557754D01*
X147316241Y-84557753D01*
X147316240Y-84557753D01*
X147154957Y-84532208D01*
X147106287Y-84524500D01*
X146893713Y-84524500D01*
X146845042Y-84532208D01*
X146683760Y-84557753D01*
X146481585Y-84623444D01*
X146292179Y-84719951D01*
X146120215Y-84844889D01*
X145981398Y-84983706D01*
X145920075Y-85017190D01*
X145850383Y-85012206D01*
X145794450Y-84970334D01*
X145788178Y-84961120D01*
X145692712Y-84806344D01*
X145568657Y-84682289D01*
X145568656Y-84682288D01*
X145436774Y-84600943D01*
X145419336Y-84590187D01*
X145419331Y-84590185D01*
X145406300Y-84585867D01*
X145252797Y-84535001D01*
X145252795Y-84535000D01*
X145150010Y-84524500D01*
X143849998Y-84524500D01*
X143849981Y-84524501D01*
X143747203Y-84535000D01*
X143747200Y-84535001D01*
X143580668Y-84590185D01*
X143580663Y-84590187D01*
X143431342Y-84682289D01*
X143307289Y-84806342D01*
X143215187Y-84955663D01*
X143215185Y-84955668D01*
X143210325Y-84970334D01*
X143160001Y-85122203D01*
X143160001Y-85122204D01*
X143160000Y-85122204D01*
X143149500Y-85224983D01*
X143149500Y-86775001D01*
X143149501Y-86775018D01*
X143160000Y-86877796D01*
X143160001Y-86877799D01*
X143207729Y-87021831D01*
X143215186Y-87044334D01*
X143307288Y-87193656D01*
X143431344Y-87317712D01*
X143580666Y-87409814D01*
X143747203Y-87464999D01*
X143813103Y-87471731D01*
X143877794Y-87498127D01*
X143917945Y-87555307D01*
X143924500Y-87595089D01*
X143924500Y-95962258D01*
X143904815Y-96029297D01*
X143888181Y-96049939D01*
X139275339Y-100662781D01*
X139214016Y-100696266D01*
X139187658Y-100699100D01*
X139173555Y-100699100D01*
X139018910Y-100729861D01*
X139018898Y-100729864D01*
X138873227Y-100790202D01*
X138873214Y-100790209D01*
X138742111Y-100877810D01*
X138742107Y-100877813D01*
X138630613Y-100989307D01*
X138630610Y-100989311D01*
X138543009Y-101120414D01*
X138543002Y-101120427D01*
X138482664Y-101266098D01*
X138482661Y-101266110D01*
X138451900Y-101420753D01*
X138451900Y-101578446D01*
X138482661Y-101733089D01*
X138482664Y-101733101D01*
X138543002Y-101878772D01*
X138543009Y-101878785D01*
X138630610Y-102009888D01*
X138630613Y-102009892D01*
X138742107Y-102121386D01*
X138742111Y-102121389D01*
X138873214Y-102208990D01*
X138873227Y-102208997D01*
X138972996Y-102250322D01*
X139018903Y-102269337D01*
X139173553Y-102300099D01*
X139173556Y-102300100D01*
X139173558Y-102300100D01*
X139331244Y-102300100D01*
X139331245Y-102300099D01*
X139485897Y-102269337D01*
X139598566Y-102222667D01*
X139631572Y-102208997D01*
X139631572Y-102208996D01*
X139631579Y-102208994D01*
X139762689Y-102121389D01*
X139874189Y-102009889D01*
X139961794Y-101878779D01*
X140022137Y-101733097D01*
X140052900Y-101578442D01*
X140052900Y-101564342D01*
X140072585Y-101497303D01*
X140089219Y-101476661D01*
X142175119Y-99390761D01*
X142236442Y-99357276D01*
X142306134Y-99362260D01*
X142362067Y-99404132D01*
X142386484Y-99469596D01*
X142386800Y-99478442D01*
X142386800Y-99597646D01*
X142417561Y-99752289D01*
X142417564Y-99752301D01*
X142477902Y-99897972D01*
X142477909Y-99897985D01*
X142565510Y-100029088D01*
X142565513Y-100029092D01*
X142637218Y-100100797D01*
X142670703Y-100162120D01*
X142665719Y-100231812D01*
X142623847Y-100287745D01*
X142618430Y-100291579D01*
X142584409Y-100314311D01*
X142472913Y-100425807D01*
X142472910Y-100425811D01*
X142385309Y-100556914D01*
X142385302Y-100556927D01*
X142324964Y-100702598D01*
X142324961Y-100702610D01*
X142294200Y-100857253D01*
X142294200Y-100871358D01*
X142274515Y-100938397D01*
X142257881Y-100959039D01*
X136756987Y-106459932D01*
X136756985Y-106459935D01*
X136681219Y-106591163D01*
X136642000Y-106737534D01*
X136642000Y-109291000D01*
X136622315Y-109358039D01*
X136569511Y-109403794D01*
X136518000Y-109415000D01*
X136363655Y-109415000D01*
X136209010Y-109445761D01*
X136208998Y-109445764D01*
X136063327Y-109506102D01*
X136063314Y-109506109D01*
X135932211Y-109593710D01*
X135932207Y-109593713D01*
X135820713Y-109705207D01*
X135820710Y-109705211D01*
X135733109Y-109836314D01*
X135733102Y-109836327D01*
X135672764Y-109981998D01*
X135672761Y-109982010D01*
X135642000Y-110136653D01*
X135642000Y-110150758D01*
X135622315Y-110217797D01*
X135605681Y-110238439D01*
X134289487Y-111554632D01*
X134289485Y-111554635D01*
X134213719Y-111685863D01*
X134174500Y-111832234D01*
X134174500Y-120551542D01*
X134154815Y-120618581D01*
X134106796Y-120662026D01*
X134042182Y-120694949D01*
X133870213Y-120819890D01*
X133719894Y-120970209D01*
X133719890Y-120970214D01*
X133600318Y-121134793D01*
X133544989Y-121177459D01*
X133475375Y-121183438D01*
X133413580Y-121150833D01*
X133399682Y-121134793D01*
X133280109Y-120970214D01*
X133280105Y-120970209D01*
X133129786Y-120819890D01*
X132957817Y-120694949D01*
X132893204Y-120662026D01*
X132842408Y-120614051D01*
X132825500Y-120551542D01*
X132825500Y-109369142D01*
X132845185Y-109302103D01*
X132861819Y-109281461D01*
X133496161Y-108647119D01*
X133557484Y-108613634D01*
X133583842Y-108610800D01*
X133597944Y-108610800D01*
X133597945Y-108610799D01*
X133752597Y-108580037D01*
X133898279Y-108519694D01*
X134029389Y-108432089D01*
X134140889Y-108320589D01*
X134228494Y-108189479D01*
X134288837Y-108043797D01*
X134319600Y-107889142D01*
X134319600Y-107731458D01*
X134319600Y-107731455D01*
X134319599Y-107731453D01*
X134288837Y-107576803D01*
X134288835Y-107576798D01*
X134228497Y-107431127D01*
X134228490Y-107431114D01*
X134140889Y-107300011D01*
X134140886Y-107300007D01*
X134130919Y-107290040D01*
X134097434Y-107228717D01*
X134094600Y-107202359D01*
X134094600Y-95996842D01*
X134114285Y-95929803D01*
X134130919Y-95909161D01*
X136419561Y-93620519D01*
X136480884Y-93587034D01*
X136507242Y-93584200D01*
X136521344Y-93584200D01*
X136521345Y-93584199D01*
X136675997Y-93553437D01*
X136821679Y-93493094D01*
X136952789Y-93405489D01*
X137064289Y-93293989D01*
X137151894Y-93162879D01*
X137212237Y-93017197D01*
X137243000Y-92862542D01*
X137243000Y-92704858D01*
X137243000Y-92704855D01*
X137242999Y-92704853D01*
X137238335Y-92681408D01*
X137212237Y-92550203D01*
X137173633Y-92457003D01*
X137151897Y-92404527D01*
X137151890Y-92404514D01*
X137064289Y-92273411D01*
X137064286Y-92273407D01*
X136952792Y-92161913D01*
X136952788Y-92161910D01*
X136821685Y-92074309D01*
X136821672Y-92074302D01*
X136676001Y-92013964D01*
X136675989Y-92013961D01*
X136521345Y-91983200D01*
X136521342Y-91983200D01*
X136363658Y-91983200D01*
X136363655Y-91983200D01*
X136209010Y-92013961D01*
X136208998Y-92013964D01*
X136063327Y-92074302D01*
X136063314Y-92074309D01*
X135932211Y-92161910D01*
X135932207Y-92161913D01*
X135820713Y-92273407D01*
X135820710Y-92273411D01*
X135733109Y-92404514D01*
X135733102Y-92404527D01*
X135672764Y-92550198D01*
X135672761Y-92550210D01*
X135642000Y-92704853D01*
X135642000Y-92718958D01*
X135622315Y-92785997D01*
X135605681Y-92806639D01*
X133058587Y-95353732D01*
X133058585Y-95353735D01*
X132982819Y-95484963D01*
X132943600Y-95631334D01*
X132943600Y-107202359D01*
X132923915Y-107269398D01*
X132907281Y-107290040D01*
X132897313Y-107300007D01*
X132897310Y-107300011D01*
X132809709Y-107431114D01*
X132809702Y-107431127D01*
X132749364Y-107576798D01*
X132749361Y-107576810D01*
X132718600Y-107731453D01*
X132718600Y-107745558D01*
X132698915Y-107812597D01*
X132682281Y-107833239D01*
X131789487Y-108726032D01*
X131789485Y-108726035D01*
X131713719Y-108857263D01*
X131674500Y-109003634D01*
X131674500Y-116896971D01*
X131654815Y-116964010D01*
X131602011Y-117009765D01*
X131532853Y-117019709D01*
X131519393Y-117016717D01*
X131360945Y-116985200D01*
X131360942Y-116985200D01*
X131203258Y-116985200D01*
X131203255Y-116985200D01*
X131048610Y-117015961D01*
X131048598Y-117015964D01*
X130902927Y-117076302D01*
X130902914Y-117076309D01*
X130771811Y-117163910D01*
X130771807Y-117163913D01*
X130660313Y-117275407D01*
X130660310Y-117275411D01*
X130572709Y-117406514D01*
X130572702Y-117406527D01*
X130512364Y-117552198D01*
X130512361Y-117552210D01*
X130481600Y-117706853D01*
X130481600Y-117864546D01*
X130512361Y-118019189D01*
X130512364Y-118019201D01*
X130572702Y-118164872D01*
X130572709Y-118164885D01*
X130660310Y-118295988D01*
X130660312Y-118295991D01*
X130670878Y-118306556D01*
X130704365Y-118367878D01*
X130707200Y-118394240D01*
X130707200Y-120152557D01*
X130687515Y-120219596D01*
X130670881Y-120240238D01*
X130447938Y-120463181D01*
X130386615Y-120496666D01*
X130360257Y-120499500D01*
X129099998Y-120499500D01*
X129099981Y-120499501D01*
X128997203Y-120510000D01*
X128997200Y-120510001D01*
X128830668Y-120565185D01*
X128830663Y-120565187D01*
X128681342Y-120657289D01*
X128557289Y-120781342D01*
X128465187Y-120930663D01*
X128465185Y-120930668D01*
X128453083Y-120967190D01*
X128410001Y-121097203D01*
X128410001Y-121097204D01*
X128410000Y-121097204D01*
X128399500Y-121199983D01*
X126621208Y-121199983D01*
X126579253Y-121098696D01*
X126532469Y-120985749D01*
X126377286Y-120695421D01*
X126194393Y-120421702D01*
X125985551Y-120167228D01*
X125985550Y-120167227D01*
X125985546Y-120167222D01*
X125752777Y-119934453D01*
X125498303Y-119725611D01*
X125498302Y-119725610D01*
X125498298Y-119725607D01*
X125224579Y-119542714D01*
X125224574Y-119542711D01*
X125224567Y-119542707D01*
X124934258Y-119387535D01*
X124934251Y-119387531D01*
X124931740Y-119386491D01*
X124630112Y-119261552D01*
X124315077Y-119165987D01*
X124315066Y-119165984D01*
X123992218Y-119101768D01*
X123992213Y-119101767D01*
X123992211Y-119101766D01*
X123992201Y-119101765D01*
X123751522Y-119078061D01*
X123664600Y-119069500D01*
X123335400Y-119069500D01*
X123255540Y-119077365D01*
X123007798Y-119101765D01*
X123007781Y-119101768D01*
X122684933Y-119165984D01*
X122684922Y-119165987D01*
X122369887Y-119261552D01*
X122065755Y-119387528D01*
X122065741Y-119387535D01*
X121775432Y-119542707D01*
X121775414Y-119542718D01*
X121501710Y-119725601D01*
X121501696Y-119725611D01*
X121247222Y-119934453D01*
X121014453Y-120167222D01*
X120805611Y-120421696D01*
X120805601Y-120421710D01*
X120622718Y-120695414D01*
X120622707Y-120695432D01*
X120467535Y-120985741D01*
X120467528Y-120985755D01*
X120341552Y-121289887D01*
X120245987Y-121604922D01*
X120245984Y-121604933D01*
X120181768Y-121927781D01*
X120181765Y-121927798D01*
X120159059Y-122158343D01*
X120149500Y-122255400D01*
X118596681Y-122255400D01*
X118600500Y-122231287D01*
X118600500Y-121718713D01*
X118567246Y-121508757D01*
X118501557Y-121306588D01*
X118405051Y-121117184D01*
X118405049Y-121117181D01*
X118405048Y-121117179D01*
X118280109Y-120945213D01*
X118129786Y-120794890D01*
X117957817Y-120669949D01*
X117893204Y-120637026D01*
X117842408Y-120589051D01*
X117825500Y-120526542D01*
X117825500Y-113781036D01*
X117825500Y-113781034D01*
X117806458Y-113709969D01*
X117786281Y-113634665D01*
X117777238Y-113619002D01*
X117710515Y-113503435D01*
X117603365Y-113396285D01*
X117603364Y-113396284D01*
X117599034Y-113391954D01*
X117599023Y-113391944D01*
X116917219Y-112710139D01*
X116883734Y-112648816D01*
X116880900Y-112622458D01*
X116880900Y-112608355D01*
X116880899Y-112608353D01*
X116850138Y-112453710D01*
X116850137Y-112453703D01*
X116826715Y-112397157D01*
X116789797Y-112308027D01*
X116789790Y-112308014D01*
X116702189Y-112176911D01*
X116702186Y-112176907D01*
X116590692Y-112065413D01*
X116590688Y-112065410D01*
X116459585Y-111977809D01*
X116459572Y-111977802D01*
X116313901Y-111917464D01*
X116313889Y-111917461D01*
X116159245Y-111886700D01*
X116159242Y-111886700D01*
X116001558Y-111886700D01*
X116001555Y-111886700D01*
X115846910Y-111917461D01*
X115846898Y-111917464D01*
X115701227Y-111977802D01*
X115701214Y-111977809D01*
X115570111Y-112065410D01*
X115570107Y-112065413D01*
X115458613Y-112176907D01*
X115458610Y-112176911D01*
X115371009Y-112308014D01*
X115371002Y-112308027D01*
X115310664Y-112453698D01*
X115310661Y-112453710D01*
X115279900Y-112608353D01*
X115279900Y-112766046D01*
X115310661Y-112920689D01*
X115310664Y-112920701D01*
X115371002Y-113066372D01*
X115371009Y-113066385D01*
X115458610Y-113197488D01*
X115458613Y-113197492D01*
X115570107Y-113308986D01*
X115570111Y-113308989D01*
X115701214Y-113396590D01*
X115701227Y-113396597D01*
X115836691Y-113452707D01*
X115846903Y-113456937D01*
X115966503Y-113480727D01*
X116001553Y-113487699D01*
X116001556Y-113487700D01*
X116001558Y-113487700D01*
X116015658Y-113487700D01*
X116082697Y-113507385D01*
X116103339Y-113524019D01*
X116638181Y-114058860D01*
X116671666Y-114120183D01*
X116674500Y-114146541D01*
X116674500Y-120526542D01*
X116654815Y-120593581D01*
X116606796Y-120637026D01*
X116542182Y-120669949D01*
X116370215Y-120794889D01*
X116231398Y-120933706D01*
X116170075Y-120967190D01*
X116100383Y-120962206D01*
X116044450Y-120920334D01*
X116038178Y-120911120D01*
X115954485Y-120775432D01*
X115942712Y-120756344D01*
X115818656Y-120632288D01*
X115713003Y-120567121D01*
X115669336Y-120540187D01*
X115669331Y-120540185D01*
X115646909Y-120532755D01*
X115502797Y-120485001D01*
X115502795Y-120485000D01*
X115400010Y-120474500D01*
X114099998Y-120474500D01*
X114099981Y-120474501D01*
X113997203Y-120485000D01*
X113997200Y-120485001D01*
X113830668Y-120540185D01*
X113830663Y-120540187D01*
X113681342Y-120632289D01*
X113557289Y-120756342D01*
X113465187Y-120905663D01*
X113465185Y-120905668D01*
X113443689Y-120970540D01*
X113410001Y-121072203D01*
X113410001Y-121072204D01*
X113410000Y-121072204D01*
X113399500Y-121174983D01*
X109434501Y-121174983D01*
X109405051Y-121117184D01*
X109405049Y-121117181D01*
X109405048Y-121117179D01*
X109280109Y-120945213D01*
X109129786Y-120794890D01*
X108957820Y-120669951D01*
X108768414Y-120573444D01*
X108768413Y-120573443D01*
X108768412Y-120573443D01*
X108566243Y-120507754D01*
X108566241Y-120507753D01*
X108566240Y-120507753D01*
X108389844Y-120479815D01*
X108356287Y-120474500D01*
X108143713Y-120474500D01*
X108110156Y-120479815D01*
X107933759Y-120507753D01*
X107933755Y-120507754D01*
X107851617Y-120534442D01*
X107781776Y-120536437D01*
X107721943Y-120500356D01*
X107691116Y-120437655D01*
X107689300Y-120416511D01*
X107689300Y-114743133D01*
X107687378Y-114735962D01*
X107687377Y-114735961D01*
X107686503Y-114732697D01*
X107650081Y-114596765D01*
X107637388Y-114574781D01*
X107630941Y-114563615D01*
X107626931Y-114551367D01*
X107626677Y-114543164D01*
X107616600Y-114505548D01*
X107616600Y-114442355D01*
X107616599Y-114442353D01*
X107610967Y-114414038D01*
X107585837Y-114287703D01*
X107565699Y-114239085D01*
X107525497Y-114142027D01*
X107525490Y-114142014D01*
X107437889Y-114010911D01*
X107437886Y-114010907D01*
X107326392Y-113899413D01*
X107326388Y-113899410D01*
X107195285Y-113811809D01*
X107195272Y-113811802D01*
X107049601Y-113751464D01*
X107049589Y-113751461D01*
X106894945Y-113720700D01*
X106894942Y-113720700D01*
X106737258Y-113720700D01*
X106737255Y-113720700D01*
X106582610Y-113751461D01*
X106582603Y-113751463D01*
X106499151Y-113786029D01*
X106429682Y-113793497D01*
X106367203Y-113762221D01*
X106331551Y-113702131D01*
X106327700Y-113671467D01*
X106327700Y-87572588D01*
X106347385Y-87505549D01*
X106400189Y-87459794D01*
X106439097Y-87449230D01*
X106504997Y-87442499D01*
X106671534Y-87387314D01*
X106820856Y-87295212D01*
X106944912Y-87171156D01*
X107037014Y-87021834D01*
X107037014Y-87021831D01*
X107040378Y-87016379D01*
X107092326Y-86969654D01*
X107161288Y-86958431D01*
X107225370Y-86986274D01*
X107233598Y-86993794D01*
X107372413Y-87132609D01*
X107544379Y-87257548D01*
X107544381Y-87257549D01*
X107544384Y-87257551D01*
X107733788Y-87354057D01*
X107935957Y-87419746D01*
X108145913Y-87453000D01*
X108145914Y-87453000D01*
X108358486Y-87453000D01*
X108358487Y-87453000D01*
X108568443Y-87419746D01*
X108770612Y-87354057D01*
X108960016Y-87257551D01*
X108998460Y-87229620D01*
X109131986Y-87132609D01*
X109131988Y-87132606D01*
X109131992Y-87132604D01*
X109282304Y-86982292D01*
X109401883Y-86817704D01*
X109457211Y-86775040D01*
X109526824Y-86769061D01*
X109588620Y-86801666D01*
X109602513Y-86817699D01*
X109704760Y-86958431D01*
X109722096Y-86982292D01*
X109872413Y-87132609D01*
X110044379Y-87257548D01*
X110044381Y-87257549D01*
X110044384Y-87257551D01*
X110233788Y-87354057D01*
X110435957Y-87419746D01*
X110645913Y-87453000D01*
X110645914Y-87453000D01*
X110858486Y-87453000D01*
X110858487Y-87453000D01*
X111068443Y-87419746D01*
X111270612Y-87354057D01*
X111460016Y-87257551D01*
X111498460Y-87229620D01*
X111631986Y-87132609D01*
X111631988Y-87132606D01*
X111631992Y-87132604D01*
X111782304Y-86982292D01*
X111901883Y-86817704D01*
X111957211Y-86775040D01*
X112026824Y-86769061D01*
X112088620Y-86801666D01*
X112102513Y-86817699D01*
X112204760Y-86958431D01*
X112222096Y-86982292D01*
X112372413Y-87132609D01*
X112544379Y-87257548D01*
X112544381Y-87257549D01*
X112544384Y-87257551D01*
X112733788Y-87354057D01*
X112935957Y-87419746D01*
X113145913Y-87453000D01*
X113145914Y-87453000D01*
X113358486Y-87453000D01*
X113358487Y-87453000D01*
X113568443Y-87419746D01*
X113770612Y-87354057D01*
X113960016Y-87257551D01*
X113998460Y-87229620D01*
X114131986Y-87132609D01*
X114131988Y-87132606D01*
X114131992Y-87132604D01*
X114282304Y-86982292D01*
X114282306Y-86982288D01*
X114282309Y-86982286D01*
X114407248Y-86810320D01*
X114407247Y-86810320D01*
X114407251Y-86810316D01*
X114503757Y-86620912D01*
X114569446Y-86418743D01*
X114602700Y-86208787D01*
X114602700Y-85746213D01*
X114569446Y-85536257D01*
X114503757Y-85334088D01*
X114502200Y-85331032D01*
X114475246Y-85278130D01*
X114475245Y-85278129D01*
X114448165Y-85224983D01*
X120649500Y-85224983D01*
X120649500Y-86775001D01*
X120649501Y-86775018D01*
X120660000Y-86877796D01*
X120660001Y-86877799D01*
X120707729Y-87021831D01*
X120715186Y-87044334D01*
X120807288Y-87193656D01*
X120931344Y-87317712D01*
X121080666Y-87409814D01*
X121247203Y-87464999D01*
X121349991Y-87475500D01*
X122650008Y-87475499D01*
X122752797Y-87464999D01*
X122919334Y-87409814D01*
X123068656Y-87317712D01*
X123192712Y-87193656D01*
X123284814Y-87044334D01*
X123339999Y-86877797D01*
X123350500Y-86775009D01*
X123350499Y-85768713D01*
X125649500Y-85768713D01*
X125649500Y-86231286D01*
X125682735Y-86441127D01*
X125682754Y-86441243D01*
X125741132Y-86620912D01*
X125748444Y-86643414D01*
X125844951Y-86832820D01*
X125969890Y-87004786D01*
X126120213Y-87155109D01*
X126292179Y-87280048D01*
X126292181Y-87280049D01*
X126292184Y-87280051D01*
X126481588Y-87376557D01*
X126683757Y-87442246D01*
X126893713Y-87475500D01*
X126893714Y-87475500D01*
X127106286Y-87475500D01*
X127106287Y-87475500D01*
X127316243Y-87442246D01*
X127518412Y-87376557D01*
X127707816Y-87280051D01*
X127777229Y-87229620D01*
X127879786Y-87155109D01*
X127879788Y-87155106D01*
X127879792Y-87155104D01*
X128030104Y-87004792D01*
X128149683Y-86840204D01*
X128205011Y-86797540D01*
X128274624Y-86791561D01*
X128336420Y-86824166D01*
X128350313Y-86840199D01*
X128436213Y-86958431D01*
X128469896Y-87004792D01*
X128620213Y-87155109D01*
X128792179Y-87280048D01*
X128792181Y-87280049D01*
X128792184Y-87280051D01*
X128981588Y-87376557D01*
X129183757Y-87442246D01*
X129393713Y-87475500D01*
X129393714Y-87475500D01*
X129606286Y-87475500D01*
X129606287Y-87475500D01*
X129816243Y-87442246D01*
X130018412Y-87376557D01*
X130207816Y-87280051D01*
X130277229Y-87229620D01*
X130379786Y-87155109D01*
X130379788Y-87155106D01*
X130379792Y-87155104D01*
X130530104Y-87004792D01*
X130530106Y-87004788D01*
X130530109Y-87004786D01*
X130655048Y-86832820D01*
X130655047Y-86832820D01*
X130655051Y-86832816D01*
X130751557Y-86643412D01*
X130817246Y-86441243D01*
X130817265Y-86441127D01*
X130831164Y-86353367D01*
X130834010Y-86335400D01*
X133649500Y-86335400D01*
X133649500Y-86664600D01*
X133658158Y-86752508D01*
X133681765Y-86992201D01*
X133681768Y-86992218D01*
X133745984Y-87315066D01*
X133745987Y-87315077D01*
X133841552Y-87630112D01*
X133967528Y-87934244D01*
X133967535Y-87934258D01*
X134122707Y-88224567D01*
X134122718Y-88224585D01*
X134305601Y-88498289D01*
X134305611Y-88498303D01*
X134514453Y-88752777D01*
X134747222Y-88985546D01*
X134747227Y-88985550D01*
X134747228Y-88985551D01*
X135001702Y-89194393D01*
X135275421Y-89377286D01*
X135565749Y-89532469D01*
X135869889Y-89658448D01*
X136184913Y-89754010D01*
X136184919Y-89754011D01*
X136184922Y-89754012D01*
X136184933Y-89754015D01*
X136365361Y-89789903D01*
X136507787Y-89818233D01*
X136835400Y-89850500D01*
X136835403Y-89850500D01*
X137164597Y-89850500D01*
X137164600Y-89850500D01*
X137492213Y-89818233D01*
X137669760Y-89782916D01*
X137815066Y-89754015D01*
X137815077Y-89754012D01*
X137815077Y-89754011D01*
X137815087Y-89754010D01*
X138130111Y-89658448D01*
X138434251Y-89532469D01*
X138724579Y-89377286D01*
X138998298Y-89194393D01*
X139252772Y-88985551D01*
X139485551Y-88752772D01*
X139694393Y-88498298D01*
X139877286Y-88224579D01*
X140032469Y-87934251D01*
X140158448Y-87630111D01*
X140254010Y-87315087D01*
X140254012Y-87315077D01*
X140254015Y-87315066D01*
X140290308Y-87132604D01*
X140318233Y-86992213D01*
X140350500Y-86664600D01*
X140350500Y-86335400D01*
X140318233Y-86007787D01*
X140289903Y-85865361D01*
X140254015Y-85684933D01*
X140254012Y-85684922D01*
X140254011Y-85684919D01*
X140254010Y-85684913D01*
X140158448Y-85369889D01*
X140032469Y-85065749D01*
X139877286Y-84775421D01*
X139694393Y-84501702D01*
X139485551Y-84247228D01*
X139485550Y-84247227D01*
X139485546Y-84247222D01*
X139252777Y-84014453D01*
X138998303Y-83805611D01*
X138998302Y-83805610D01*
X138998298Y-83805607D01*
X138724579Y-83622714D01*
X138724574Y-83622711D01*
X138724567Y-83622707D01*
X138434258Y-83467535D01*
X138434251Y-83467531D01*
X138434244Y-83467528D01*
X138130112Y-83341552D01*
X137815077Y-83245987D01*
X137815066Y-83245984D01*
X137492218Y-83181768D01*
X137492213Y-83181767D01*
X137492211Y-83181766D01*
X137492201Y-83181765D01*
X137251522Y-83158061D01*
X137164600Y-83149500D01*
X136835400Y-83149500D01*
X136755540Y-83157365D01*
X136507798Y-83181765D01*
X136507781Y-83181768D01*
X136184933Y-83245984D01*
X136184922Y-83245987D01*
X135869887Y-83341552D01*
X135565755Y-83467528D01*
X135565741Y-83467535D01*
X135275432Y-83622707D01*
X135275414Y-83622718D01*
X135001710Y-83805601D01*
X135001696Y-83805611D01*
X134747222Y-84014453D01*
X134514453Y-84247222D01*
X134305611Y-84501696D01*
X134305601Y-84501710D01*
X134122718Y-84775414D01*
X134122707Y-84775432D01*
X133967535Y-85065741D01*
X133967528Y-85065755D01*
X133841552Y-85369887D01*
X133745987Y-85684922D01*
X133745984Y-85684933D01*
X133681768Y-86007781D01*
X133681765Y-86007798D01*
X133659754Y-86231285D01*
X133649500Y-86335400D01*
X130834010Y-86335400D01*
X130850500Y-86231287D01*
X130850500Y-85768713D01*
X130817246Y-85558757D01*
X130751557Y-85356588D01*
X130655051Y-85167184D01*
X130655049Y-85167181D01*
X130655048Y-85167179D01*
X130530109Y-84995213D01*
X130379786Y-84844890D01*
X130207820Y-84719951D01*
X130018414Y-84623444D01*
X130018413Y-84623443D01*
X130018412Y-84623443D01*
X129816243Y-84557754D01*
X129816241Y-84557753D01*
X129816240Y-84557753D01*
X129654957Y-84532208D01*
X129606287Y-84524500D01*
X129393713Y-84524500D01*
X129345042Y-84532208D01*
X129183760Y-84557753D01*
X128981585Y-84623444D01*
X128792179Y-84719951D01*
X128620213Y-84844890D01*
X128469894Y-84995209D01*
X128469890Y-84995214D01*
X128350318Y-85159793D01*
X128294989Y-85202459D01*
X128225375Y-85208438D01*
X128163580Y-85175833D01*
X128149682Y-85159793D01*
X128030109Y-84995214D01*
X128030105Y-84995209D01*
X127879786Y-84844890D01*
X127707820Y-84719951D01*
X127518414Y-84623444D01*
X127518413Y-84623443D01*
X127518412Y-84623443D01*
X127316243Y-84557754D01*
X127316241Y-84557753D01*
X127316240Y-84557753D01*
X127154957Y-84532208D01*
X127106287Y-84524500D01*
X126893713Y-84524500D01*
X126845042Y-84532208D01*
X126683760Y-84557753D01*
X126481585Y-84623444D01*
X126292179Y-84719951D01*
X126120213Y-84844890D01*
X125969890Y-84995213D01*
X125844951Y-85167179D01*
X125748444Y-85356585D01*
X125682753Y-85558760D01*
X125649500Y-85768713D01*
X123350499Y-85768713D01*
X123350499Y-85224992D01*
X123348851Y-85208863D01*
X123339999Y-85122203D01*
X123339998Y-85122200D01*
X123284814Y-84955666D01*
X123192712Y-84806344D01*
X123068656Y-84682288D01*
X122936774Y-84600943D01*
X122919336Y-84590187D01*
X122919331Y-84590185D01*
X122906300Y-84585867D01*
X122752797Y-84535001D01*
X122752795Y-84535000D01*
X122650010Y-84524500D01*
X121349998Y-84524500D01*
X121349981Y-84524501D01*
X121247203Y-84535000D01*
X121247200Y-84535001D01*
X121080668Y-84590185D01*
X121080663Y-84590187D01*
X120931342Y-84682289D01*
X120807289Y-84806342D01*
X120715187Y-84955663D01*
X120715185Y-84955668D01*
X120710325Y-84970334D01*
X120660001Y-85122203D01*
X120660001Y-85122204D01*
X120660000Y-85122204D01*
X120649500Y-85224983D01*
X114448165Y-85224983D01*
X114436701Y-85202483D01*
X114407251Y-85144684D01*
X114399223Y-85133634D01*
X114282309Y-84972713D01*
X114131986Y-84822390D01*
X113960020Y-84697451D01*
X113770614Y-84600944D01*
X113770613Y-84600943D01*
X113770612Y-84600943D01*
X113568443Y-84535254D01*
X113568441Y-84535253D01*
X113568440Y-84535253D01*
X113397954Y-84508251D01*
X113358487Y-84502000D01*
X113145913Y-84502000D01*
X113106446Y-84508251D01*
X112935960Y-84535253D01*
X112935957Y-84535254D01*
X112766895Y-84590186D01*
X112733785Y-84600944D01*
X112544379Y-84697451D01*
X112372413Y-84822390D01*
X112222094Y-84972709D01*
X112222090Y-84972714D01*
X112102518Y-85137293D01*
X112047189Y-85179959D01*
X111977575Y-85185938D01*
X111915780Y-85153333D01*
X111901882Y-85137293D01*
X111782309Y-84972714D01*
X111782305Y-84972709D01*
X111631986Y-84822390D01*
X111460020Y-84697451D01*
X111270614Y-84600944D01*
X111270613Y-84600943D01*
X111270612Y-84600943D01*
X111068443Y-84535254D01*
X111068441Y-84535253D01*
X111068440Y-84535253D01*
X110897954Y-84508251D01*
X110858487Y-84502000D01*
X110645913Y-84502000D01*
X110606446Y-84508251D01*
X110435960Y-84535253D01*
X110435957Y-84535254D01*
X110266895Y-84590186D01*
X110233785Y-84600944D01*
X110044379Y-84697451D01*
X109872413Y-84822390D01*
X109722094Y-84972709D01*
X109722090Y-84972714D01*
X109602518Y-85137293D01*
X109547189Y-85179959D01*
X109477575Y-85185938D01*
X109415780Y-85153333D01*
X109401882Y-85137293D01*
X109282309Y-84972714D01*
X109282305Y-84972709D01*
X109131986Y-84822390D01*
X108960020Y-84697451D01*
X108770614Y-84600944D01*
X108770613Y-84600943D01*
X108770612Y-84600943D01*
X108568443Y-84535254D01*
X108568441Y-84535253D01*
X108568440Y-84535253D01*
X108397954Y-84508251D01*
X108358487Y-84502000D01*
X108145913Y-84502000D01*
X108106446Y-84508251D01*
X107935955Y-84535254D01*
X107935948Y-84535255D01*
X107913317Y-84542609D01*
X107885198Y-84543412D01*
X107857353Y-84547416D01*
X107850741Y-84544396D01*
X107843476Y-84544604D01*
X107819387Y-84530077D01*
X107793797Y-84518391D01*
X107789866Y-84512275D01*
X107783644Y-84508523D01*
X107771233Y-84483280D01*
X107756023Y-84459613D01*
X107754546Y-84449340D01*
X107752816Y-84445822D01*
X107751000Y-84424678D01*
X107751000Y-84263040D01*
X107770685Y-84196001D01*
X107787320Y-84175358D01*
X107830286Y-84132392D01*
X107830289Y-84132389D01*
X107917894Y-84001279D01*
X107978237Y-83855597D01*
X108009000Y-83700942D01*
X108009000Y-83543258D01*
X108009000Y-83543255D01*
X108008999Y-83543253D01*
X107978237Y-83388603D01*
X107958748Y-83341552D01*
X107917897Y-83242927D01*
X107917890Y-83242914D01*
X107830289Y-83111811D01*
X107830286Y-83111807D01*
X107718792Y-83000313D01*
X107718788Y-83000310D01*
X107587685Y-82912709D01*
X107587672Y-82912702D01*
X107442001Y-82852364D01*
X107441989Y-82852361D01*
X107287345Y-82821600D01*
X107287342Y-82821600D01*
X107129658Y-82821600D01*
X107129655Y-82821600D01*
X106975010Y-82852361D01*
X106974998Y-82852364D01*
X106829327Y-82912702D01*
X106829314Y-82912709D01*
X106698211Y-83000310D01*
X106698207Y-83000313D01*
X106586713Y-83111807D01*
X106586710Y-83111811D01*
X106499109Y-83242914D01*
X106499102Y-83242927D01*
X106438764Y-83388598D01*
X106438761Y-83388610D01*
X106408000Y-83543253D01*
X106408000Y-83700946D01*
X106438761Y-83855589D01*
X106438764Y-83855601D01*
X106499102Y-84001272D01*
X106499109Y-84001284D01*
X106579102Y-84121001D01*
X106584752Y-84139047D01*
X106594977Y-84154957D01*
X106599428Y-84185916D01*
X106599980Y-84187678D01*
X106600000Y-84189892D01*
X106600000Y-84384893D01*
X106580315Y-84451932D01*
X106527511Y-84497687D01*
X106463397Y-84508251D01*
X106402210Y-84502000D01*
X105102198Y-84502000D01*
X105102181Y-84502001D01*
X104999403Y-84512500D01*
X104999400Y-84512501D01*
X104832868Y-84567685D01*
X104832863Y-84567687D01*
X104683542Y-84659789D01*
X104559489Y-84783842D01*
X104467387Y-84933163D01*
X104467385Y-84933168D01*
X104458123Y-84961120D01*
X104412201Y-85099703D01*
X104412201Y-85099704D01*
X104412200Y-85099704D01*
X104401700Y-85202483D01*
X104401700Y-86752501D01*
X104401701Y-86752518D01*
X104412200Y-86855296D01*
X104412201Y-86855299D01*
X104457572Y-86992218D01*
X104467386Y-87021834D01*
X104559488Y-87171156D01*
X104683544Y-87295212D01*
X104832866Y-87387314D01*
X104999403Y-87442499D01*
X105065303Y-87449231D01*
X105129994Y-87475627D01*
X105170145Y-87532807D01*
X105176700Y-87572589D01*
X105176700Y-120354686D01*
X105157015Y-120421725D01*
X105104211Y-120467480D01*
X105065302Y-120478044D01*
X104997202Y-120485001D01*
X104997200Y-120485001D01*
X104830668Y-120540185D01*
X104830663Y-120540187D01*
X104681342Y-120632289D01*
X104557289Y-120756342D01*
X104465187Y-120905663D01*
X104465185Y-120905668D01*
X104443689Y-120970540D01*
X104410001Y-121072203D01*
X104410001Y-121072204D01*
X104410000Y-121072204D01*
X104399500Y-121174983D01*
X100250500Y-121174983D01*
X100250500Y-76655122D01*
X100270185Y-76588083D01*
X100286819Y-76567441D01*
X102567441Y-74286819D01*
X102628764Y-74253334D01*
X102655122Y-74250500D01*
X184844877Y-74250500D01*
X184911916Y-74270185D01*
G37*
%TD.AperFunction*%
%TD*%
M02*
