M48
; DRILL file {KiCad 9.0.6} date 2025-12-12T19:08:40-0800
; FORMAT={-:-/ absolute / inch / decimal}
; #@! TF.CreationDate,2025-12-12T19:08:40-08:00
; #@! TF.GenerationSoftware,Kicad,Pcbnew,9.0.6
; #@! TF.FileFunction,Plated,1,2,PTH
FMAT,2
INCH
; #@! TA.AperFunction,Plated,PTH,ViaDrill
T1C0.0118
; #@! TA.AperFunction,Plated,PTH,ComponentDrill
T2C0.0197
; #@! TA.AperFunction,Plated,PTH,ComponentDrill
T3C0.0374
; #@! TA.AperFunction,Plated,PTH,ComponentDrill
T4C0.0394
; #@! TA.AperFunction,Plated,PTH,ComponentDrill
T5C0.0433
; #@! TA.AperFunction,Plated,PTH,ComponentDrill
T6C0.1260
%
G90
G05
T1
X4.3047Y-3.6113
X4.451Y-4.1104
X4.5702Y-4.5791
X4.6812Y-4.6382
X4.6829Y-4.4708
X5.1136Y-4.5467
X5.1239Y-4.4145
X5.1686Y-4.6045
X5.1713Y-4.7205
X5.2559Y-4.7205
X5.2562Y-3.9956
X5.3484Y-4.7205
X5.3547Y-4.4958
X5.3558Y-4.5762
X5.3718Y-3.996
X5.4475Y-4.4159
X5.5154Y-4.5071
X5.5351Y-4.6159
X5.5849Y-3.7912
X5.5899Y-3.7378
X5.6019Y-3.5026
X5.6544Y-3.7337
X5.6654Y-3.9538
X5.6728Y-4.3379
X5.6975Y-4.1903
X5.717Y-3.5702
X5.7202Y-4.5473
X5.7264Y-4.7205
X5.7274Y-4.5998
X5.7349Y-4.3616
X5.7407Y-4.4759
X5.7611Y-3.7587
X5.7953Y-4.7205
X5.8188Y-4.1903
X5.8621Y-3.9177
X5.93Y-4.6047
X6.018Y-4.4635
X6.018Y-4.312
X6.1477Y-4.5643
X6.1572Y-4.4155
X6.2022Y-3.6202
X6.2185Y-4.6693
X6.2542Y-4.5057
X6.2771Y-4.5791
X6.2814Y-4.678
X6.2894Y-4.6201
X6.3628Y-4.6512
X6.376Y-4.6988
X6.3767Y-3.7569
X6.4249Y-4.5108
X6.4665Y-4.6004
X6.5522Y-4.5576
X6.6445Y-4.3106
X6.7815Y-4.4262
X6.9311Y-4.3524
X6.9764Y-3.5098
X6.9945Y-4.5829
X7.0059Y-4.3524
X7.0492Y-3.5098
X7.0657Y-4.481
T2
X6.9884Y-3.8224
X6.9884Y-3.8618
X6.9884Y-3.9012
X6.9884Y-3.9405
X6.9884Y-3.9799
X6.9884Y-4.0193
X6.9884Y-4.0586
X6.9884Y-4.098
T3
X4.1635Y-3.3849
X4.2619Y-3.3849
X4.3603Y-3.3849
X4.4587Y-3.3849
X4.5572Y-3.3849
X4.8031Y-3.3858
X4.9016Y-3.3858
X5.0Y-3.3858
X5.0984Y-3.3858
X5.1083Y-4.8022
X5.2067Y-4.8022
X5.3051Y-4.8022
X5.4035Y-4.8022
X5.6594Y-4.8022
X5.689Y-3.3858
X5.7579Y-4.8022
X5.7874Y-3.3858
X5.8563Y-4.8022
X5.8858Y-3.3858
X5.9547Y-4.8022
X6.1417Y-3.3858
X6.2106Y-4.8022
X6.2402Y-3.3858
X6.3091Y-4.8022
X6.3386Y-3.3858
X6.4075Y-4.8022
X6.5059Y-4.8022
X6.9291Y-3.3858
X7.0276Y-3.3858
X7.0276Y-4.8022
X7.126Y-3.3858
X7.126Y-4.8022
X7.2244Y-3.3858
X7.2244Y-4.8022
T4
X4.1634Y-4.8022
X4.2618Y-4.8022
X4.5177Y-4.8022
X4.6161Y-4.8022
X6.1695Y-3.7602
X6.1695Y-3.8602
X6.1695Y-3.9602
X6.1695Y-4.0602
X6.1695Y-4.1602
X6.2695Y-3.7602
X6.2695Y-3.8602
X6.2695Y-3.9602
X6.2695Y-4.0602
X6.2695Y-4.1602
X7.2195Y-3.9102
X7.2195Y-4.0102
T5
X5.9695Y-3.6602
X5.9695Y-3.7602
X5.9695Y-3.8602
X5.9695Y-3.9602
X5.9695Y-4.0602
X5.9695Y-4.1602
X5.9695Y-4.2602
X6.0695Y-3.6602
X6.0695Y-4.2602
X6.1695Y-3.6602
X6.1695Y-4.2602
X6.2695Y-3.6602
X6.2695Y-4.2602
X6.3695Y-3.6602
X6.3695Y-4.2602
X6.4695Y-3.6602
X6.4695Y-4.2602
X6.5695Y-3.6602
X6.5695Y-4.2602
X6.6695Y-3.6602
X6.6695Y-4.2602
X6.7695Y-3.6602
X6.7695Y-4.2602
X6.8695Y-3.6602
X6.8695Y-4.2602
X6.9695Y-3.6602
X6.9695Y-4.2602
X7.0695Y-3.6602
X7.0695Y-4.2602
X7.1695Y-3.6602
X7.1695Y-4.1602
X7.1695Y-4.2602
X7.2695Y-3.6602
X7.2695Y-4.2602
T6
X4.8622Y-4.8197
X5.3937Y-3.4055
X6.6339Y-3.4055
X6.7681Y-4.8228
M30
