%TF.GenerationSoftware,KiCad,Pcbnew,9.0.6*%
%TF.CreationDate,2025-12-12T19:08:40-08:00*%
%TF.ProjectId,ArmRobotBoardTeensy,41726d52-6f62-46f7-9442-6f6172645465,rev?*%
%TF.SameCoordinates,Original*%
%TF.FileFunction,Soldermask,Top*%
%TF.FilePolarity,Negative*%
%FSLAX46Y46*%
G04 Gerber Fmt 4.6, Leading zero omitted, Abs format (unit mm)*
G04 Created by KiCad (PCBNEW 9.0.6) date 2025-12-12 19:08:40*
%MOMM*%
%LPD*%
G01*
G04 APERTURE LIST*
G04 Aperture macros list*
%AMRoundRect*
0 Rectangle with rounded corners*
0 $1 Rounding radius*
0 $2 $3 $4 $5 $6 $7 $8 $9 X,Y pos of 4 corners*
0 Add a 4 corners polygon primitive as box body*
4,1,4,$2,$3,$4,$5,$6,$7,$8,$9,$2,$3,0*
0 Add four circle primitives for the rounded corners*
1,1,$1+$1,$2,$3*
1,1,$1+$1,$4,$5*
1,1,$1+$1,$6,$7*
1,1,$1+$1,$8,$9*
0 Add four rect primitives between the rounded corners*
20,1,$1+$1,$2,$3,$4,$5,0*
20,1,$1+$1,$4,$5,$6,$7,0*
20,1,$1+$1,$6,$7,$8,$9,0*
20,1,$1+$1,$8,$9,$2,$3,0*%
G04 Aperture macros list end*
%ADD10R,0.558800X1.981200*%
%ADD11RoundRect,0.102000X-0.430000X-0.490000X0.430000X-0.490000X0.430000X0.490000X-0.430000X0.490000X0*%
%ADD12R,0.653199X0.549999*%
%ADD13RoundRect,0.250000X-0.600000X-0.750000X0.600000X-0.750000X0.600000X0.750000X-0.600000X0.750000X0*%
%ADD14O,1.700000X2.000000*%
%ADD15RoundRect,0.250000X-0.600000X-0.725000X0.600000X-0.725000X0.600000X0.725000X-0.600000X0.725000X0*%
%ADD16O,1.700000X1.950000*%
%ADD17R,0.838200X1.143000*%
%ADD18R,0.812800X0.889000*%
%ADD19R,0.406400X0.990600*%
%ADD20RoundRect,0.102000X0.430000X0.490000X-0.430000X0.490000X-0.430000X-0.490000X0.430000X-0.490000X0*%
%ADD21C,1.404000*%
%ADD22C,1.304000*%
%ADD23C,0.804000*%
%ADD24C,5.700000*%
%ADD25R,0.558800X1.320800*%
%ADD26R,1.981200X0.558800*%
%ADD27RoundRect,0.102000X-0.395000X-0.465000X0.395000X-0.465000X0.395000X0.465000X-0.395000X0.465000X0*%
G04 APERTURE END LIST*
D10*
%TO.C,U4*%
X140880000Y-108000000D03*
X142150000Y-108000000D03*
X143420000Y-108000000D03*
X144690000Y-108000000D03*
X145960000Y-108000000D03*
X147230000Y-108000000D03*
X148500000Y-108000000D03*
X148500000Y-103072400D03*
X147230000Y-103072400D03*
X145960000Y-103072400D03*
X144690000Y-103072400D03*
X143420000Y-103072400D03*
X142150000Y-103072400D03*
X140880000Y-103072400D03*
%TD*%
D11*
%TO.C,R3*%
X132671900Y-114500000D03*
X134201900Y-114500000D03*
%TD*%
D12*
%TO.C,C2*%
X178098401Y-114500000D03*
X178901599Y-114500000D03*
%TD*%
D13*
%TO.C,J7*%
X114750000Y-121975000D03*
D14*
X117250000Y-121975000D03*
%TD*%
D15*
%TO.C,J8*%
X129750000Y-121975000D03*
D16*
X132250000Y-121975000D03*
X134750000Y-121975000D03*
X137250000Y-121975000D03*
%TD*%
D11*
%TO.C,R6*%
X146735000Y-114500000D03*
X148265000Y-114500000D03*
%TD*%
%TO.C,R8*%
X142369000Y-114484900D03*
X143899000Y-114484900D03*
%TD*%
D17*
%TO.C,D10*%
X165209300Y-117000000D03*
X167088900Y-117000000D03*
%TD*%
D13*
%TO.C,J6*%
X105750000Y-121975000D03*
D14*
X108250000Y-121975000D03*
%TD*%
D18*
%TO.C,C1*%
X165204600Y-112000000D03*
X166500000Y-112000000D03*
%TD*%
D15*
%TO.C,J5*%
X176000000Y-86000000D03*
D16*
X178500000Y-86000000D03*
X181000000Y-86000000D03*
X183500000Y-86000000D03*
%TD*%
D11*
%TO.C,R13*%
X108235000Y-114500000D03*
X109765000Y-114500000D03*
%TD*%
D19*
%TO.C,D6*%
X146649100Y-117000000D03*
X148350900Y-117000000D03*
%TD*%
D17*
%TO.C,D8*%
X142209300Y-117000000D03*
X144088900Y-117000000D03*
%TD*%
D15*
%TO.C,J11*%
X178500000Y-121975000D03*
D16*
X181000000Y-121975000D03*
X183500000Y-121975000D03*
%TD*%
D11*
%TO.C,R11*%
X156235000Y-114500000D03*
X157765000Y-114500000D03*
%TD*%
D15*
%TO.C,J9*%
X143750000Y-121975000D03*
D16*
X146250000Y-121975000D03*
X148750000Y-121975000D03*
X151250000Y-121975000D03*
%TD*%
D20*
%TO.C,R12*%
X105265000Y-114500000D03*
X103735000Y-114500000D03*
%TD*%
D15*
%TO.C,J10*%
X157750000Y-121975000D03*
D16*
X160250000Y-121975000D03*
X162750000Y-121975000D03*
X165250000Y-121975000D03*
%TD*%
D10*
%TO.C,U3*%
X140880000Y-98000000D03*
X142150000Y-98000000D03*
X143420000Y-98000000D03*
X144690000Y-98000000D03*
X145960000Y-98000000D03*
X147230000Y-98000000D03*
X148500000Y-98000000D03*
X148500000Y-93072400D03*
X147230000Y-93072400D03*
X145960000Y-93072400D03*
X144690000Y-93072400D03*
X143420000Y-93072400D03*
X142150000Y-93072400D03*
X140880000Y-93072400D03*
%TD*%
D11*
%TO.C,R14*%
X118470000Y-114500000D03*
X120000000Y-114500000D03*
%TD*%
D19*
%TO.C,D7*%
X151298200Y-117000000D03*
X153000000Y-117000000D03*
%TD*%
D11*
%TO.C,R7*%
X151235000Y-114500000D03*
X152765000Y-114500000D03*
%TD*%
D15*
%TO.C,J3*%
X144500000Y-86000000D03*
D16*
X147000000Y-86000000D03*
X149500000Y-86000000D03*
%TD*%
D21*
%TO.C,U1*%
X184644300Y-92969400D03*
X182104300Y-92969400D03*
X179564300Y-92969400D03*
X177024300Y-92969400D03*
X174484300Y-92969400D03*
X171944300Y-92969400D03*
X169404300Y-92969400D03*
X166864300Y-92969400D03*
X164324300Y-92969400D03*
X161784300Y-92969400D03*
X159244300Y-92969400D03*
X156704300Y-92969400D03*
X154164300Y-92969400D03*
X151624300Y-92969400D03*
X151624300Y-95509400D03*
X151624300Y-98049400D03*
X151624300Y-100589400D03*
X151624300Y-103129400D03*
X151624300Y-105669400D03*
X151624300Y-108209400D03*
X154164300Y-108209400D03*
X156704300Y-108209400D03*
X159244300Y-108209400D03*
X161784300Y-108209400D03*
X164324300Y-108209400D03*
X166864300Y-108209400D03*
X169404300Y-108209400D03*
X171944300Y-108209400D03*
X174484300Y-108209400D03*
X177024300Y-108209400D03*
X179564300Y-108209400D03*
X182104300Y-108209400D03*
X184644300Y-108209400D03*
X182104300Y-105669400D03*
D22*
X156704300Y-105669400D03*
X159244300Y-105669400D03*
X156704300Y-103129400D03*
X159244300Y-103129400D03*
X156704300Y-100589400D03*
X159244300Y-100589400D03*
X156704300Y-98049400D03*
X159244300Y-98049400D03*
X156704300Y-95509400D03*
X159244300Y-95509400D03*
D23*
X177505900Y-104089400D03*
X177505900Y-103089400D03*
X177505900Y-102089400D03*
X177505900Y-101089400D03*
X177505900Y-100089400D03*
X177505900Y-99089400D03*
X177505900Y-98089400D03*
X177505900Y-97089400D03*
D22*
X183374300Y-101859400D03*
X183374300Y-99319400D03*
%TD*%
D17*
%TO.C,D11*%
X156060200Y-117000000D03*
X157939800Y-117000000D03*
%TD*%
D24*
%TO.C,MH4*%
X171908500Y-122500000D03*
%TD*%
%TO.C,MH3*%
X123500000Y-122420000D03*
%TD*%
D19*
%TO.C,D9*%
X160709300Y-117000000D03*
X162411100Y-117000000D03*
%TD*%
D15*
%TO.C,J1*%
X105752200Y-85977500D03*
D16*
X108252200Y-85977500D03*
X110752200Y-85977500D03*
X113252200Y-85977500D03*
X115752200Y-85977500D03*
%TD*%
D19*
%TO.C,D1*%
X110209300Y-91500000D03*
X111911100Y-91500000D03*
%TD*%
D25*
%TO.C,Q1*%
X113000000Y-116000000D03*
X114905000Y-116000000D03*
X113952500Y-113968000D03*
%TD*%
D11*
%TO.C,R4*%
X137470000Y-114500000D03*
X139000000Y-114500000D03*
%TD*%
D17*
%TO.C,D5*%
X128209300Y-117000000D03*
X130088900Y-117000000D03*
%TD*%
D11*
%TO.C,R15*%
X183735000Y-114500000D03*
X185265000Y-114500000D03*
%TD*%
D15*
%TO.C,J4*%
X156000000Y-86000000D03*
D16*
X158500000Y-86000000D03*
X161000000Y-86000000D03*
%TD*%
D15*
%TO.C,J2*%
X122000000Y-86000000D03*
D16*
X124500000Y-86000000D03*
X127000000Y-86000000D03*
X129500000Y-86000000D03*
%TD*%
D26*
%TO.C,U2*%
X170572400Y-112190000D03*
X170572400Y-113460000D03*
X170572400Y-114730000D03*
X170572400Y-116000000D03*
X175500000Y-116000000D03*
X175500000Y-114730000D03*
X175500000Y-113460000D03*
X175500000Y-112190000D03*
%TD*%
D11*
%TO.C,R5*%
X128470000Y-114500000D03*
X130000000Y-114500000D03*
%TD*%
%TO.C,R1*%
X114000000Y-91500000D03*
X115530000Y-91500000D03*
%TD*%
D24*
%TO.C,MH1*%
X137000000Y-86500000D03*
%TD*%
D11*
%TO.C,R10*%
X165235000Y-114500000D03*
X166765000Y-114500000D03*
%TD*%
%TO.C,R2*%
X183735000Y-117000000D03*
X185265000Y-117000000D03*
%TD*%
D24*
%TO.C,MH2*%
X168500000Y-86500000D03*
%TD*%
D19*
%TO.C,D4*%
X137298200Y-117000000D03*
X139000000Y-117000000D03*
%TD*%
%TO.C,D2*%
X180298200Y-117000000D03*
X182000000Y-117000000D03*
%TD*%
D11*
%TO.C,R9*%
X160735000Y-114500000D03*
X162265000Y-114500000D03*
%TD*%
D19*
%TO.C,D3*%
X132709300Y-117000000D03*
X134411100Y-117000000D03*
%TD*%
D27*
%TO.C,R16*%
X183680000Y-111500000D03*
X185320000Y-111500000D03*
%TD*%
M02*
