M48
; DRILL file {KiCad 9.0.6} date 2025-12-16T18:46:23-0800
; FORMAT={-:-/ absolute / inch / decimal}
; #@! TF.CreationDate,2025-12-16T18:46:23-08:00
; #@! TF.GenerationSoftware,Kicad,Pcbnew,9.0.6
; #@! TF.FileFunction,Plated,1,2,PTH
FMAT,2
INCH
; #@! TA.AperFunction,Plated,PTH,ViaDrill
T1C0.0118
; #@! TA.AperFunction,Plated,PTH,ComponentDrill
T2C0.0197
; #@! TA.AperFunction,Plated,PTH,ComponentDrill
T3C0.0374
; #@! TA.AperFunction,Plated,PTH,ComponentDrill
T4C0.0394
; #@! TA.AperFunction,Plated,PTH,ComponentDrill
T5C0.0433
; #@! TA.AperFunction,Plated,PTH,ComponentDrill
T6C0.1260
%
G90
G05
T1
X4.2208Y-3.6529
X4.4885Y-4.565
X4.5709Y-4.4679
X4.9913Y-4.5991
X5.2567Y-3.6529
X5.2706Y-4.4737
X5.3056Y-3.5492
X5.3406Y-4.6024
X5.3661Y-4.6673
X5.4811Y-4.4445
X5.4824Y-3.6548
X5.502Y-4.6673
X5.5038Y-4.2684
X5.5792Y-3.7874
X5.6524Y-3.7984
X5.7001Y-3.9296
X5.7171Y-3.7612
X5.7421Y-4.3642
X5.7441Y-3.9803
X5.7551Y-3.918
X5.7874Y-4.4717
X5.8051Y-4.5531
X5.8316Y-3.7777
X5.8681Y-4.3642
X5.8746Y-3.5996
X5.9084Y-4.601
X5.9098Y-3.7031
X5.9158Y-4.2445
X5.9291Y-4.6673
X6.004Y-4.4445
X6.0091Y-4.291
X6.0413Y-4.6673
X6.0785Y-4.493
X6.1339Y-4.5581
X6.1748Y-4.3496
X6.249Y-4.7486
X6.287Y-4.4973
X6.3223Y-4.5555
X6.3858Y-4.6673
X6.4014Y-4.5614
X6.4076Y-4.3421
X6.4587Y-4.6654
X6.4915Y-4.554
X6.5295Y-4.3484
X6.5636Y-4.7169
X6.618Y-4.8616
X6.6354Y-4.4447
X6.7303Y-4.3484
X6.7815Y-4.4262
X6.9626Y-4.3484
X6.9945Y-4.5975
X7.063Y-4.3484
X7.1984Y-4.4903
T2
X6.9884Y-3.8224
X6.9884Y-3.8618
X6.9884Y-3.9012
X6.9884Y-3.9405
X6.9884Y-3.9799
X6.9884Y-4.0193
X6.9884Y-4.0586
X6.9884Y-4.098
T3
X4.1635Y-3.3849
X4.2619Y-3.3849
X4.3603Y-3.3849
X4.4587Y-3.3849
X4.5572Y-3.3849
X4.8031Y-3.3858
X4.9016Y-3.3858
X5.0Y-3.3858
X5.0984Y-3.3858
X5.1083Y-4.8022
X5.2067Y-4.8022
X5.3051Y-4.8022
X5.4035Y-4.8022
X5.6594Y-4.8022
X5.689Y-3.3858
X5.7579Y-4.8022
X5.7874Y-3.3858
X5.8563Y-4.8022
X5.8858Y-3.3858
X5.9547Y-4.8022
X6.1417Y-3.3858
X6.2106Y-4.8022
X6.2402Y-3.3858
X6.3091Y-4.8022
X6.3386Y-3.3858
X6.4075Y-4.8022
X6.5059Y-4.8022
X6.9291Y-3.3858
X7.0276Y-3.3858
X7.0276Y-4.8022
X7.126Y-3.3858
X7.126Y-4.8022
X7.2244Y-3.3858
X7.2244Y-4.8022
T4
X4.1634Y-4.8022
X4.2618Y-4.8022
X4.5177Y-4.8022
X4.6161Y-4.8022
X6.1695Y-3.7602
X6.1695Y-3.8602
X6.1695Y-3.9602
X6.1695Y-4.0602
X6.1695Y-4.1602
X6.2695Y-3.7602
X6.2695Y-3.8602
X6.2695Y-3.9602
X6.2695Y-4.0602
X6.2695Y-4.1602
X7.2195Y-3.9102
X7.2195Y-4.0102
T5
X5.9695Y-3.6602
X5.9695Y-3.7602
X5.9695Y-3.8602
X5.9695Y-3.9602
X5.9695Y-4.0602
X5.9695Y-4.1602
X5.9695Y-4.2602
X6.0695Y-3.6602
X6.0695Y-4.2602
X6.1695Y-3.6602
X6.1695Y-4.2602
X6.2695Y-3.6602
X6.2695Y-4.2602
X6.3695Y-3.6602
X6.3695Y-4.2602
X6.4695Y-3.6602
X6.4695Y-4.2602
X6.5695Y-3.6602
X6.5695Y-4.2602
X6.6695Y-3.6602
X6.6695Y-4.2602
X6.7695Y-3.6602
X6.7695Y-4.2602
X6.8695Y-3.6602
X6.8695Y-4.2602
X6.9695Y-3.6602
X6.9695Y-4.2602
X7.0695Y-3.6602
X7.0695Y-4.2602
X7.1695Y-3.6602
X7.1695Y-4.1602
X7.1695Y-4.2602
X7.2695Y-3.6602
X7.2695Y-4.2602
T6
X4.8622Y-4.8197
X5.3937Y-3.4055
X6.6339Y-3.4055
X6.7681Y-4.8228
M30
