%TF.GenerationSoftware,KiCad,Pcbnew,9.0.5*%
%TF.CreationDate,2025-12-05T21:51:27-08:00*%
%TF.ProjectId,ArmRobotBoardTeensy,41726d52-6f62-46f7-9442-6f6172645465,rev?*%
%TF.SameCoordinates,Original*%
%TF.FileFunction,Copper,L1,Top*%
%TF.FilePolarity,Positive*%
%FSLAX46Y46*%
G04 Gerber Fmt 4.6, Leading zero omitted, Abs format (unit mm)*
G04 Created by KiCad (PCBNEW 9.0.5) date 2025-12-05 21:51:27*
%MOMM*%
%LPD*%
G01*
G04 APERTURE LIST*
G04 Aperture macros list*
%AMRoundRect*
0 Rectangle with rounded corners*
0 $1 Rounding radius*
0 $2 $3 $4 $5 $6 $7 $8 $9 X,Y pos of 4 corners*
0 Add a 4 corners polygon primitive as box body*
4,1,4,$2,$3,$4,$5,$6,$7,$8,$9,$2,$3,0*
0 Add four circle primitives for the rounded corners*
1,1,$1+$1,$2,$3*
1,1,$1+$1,$4,$5*
1,1,$1+$1,$6,$7*
1,1,$1+$1,$8,$9*
0 Add four rect primitives between the rounded corners*
20,1,$1+$1,$2,$3,$4,$5,0*
20,1,$1+$1,$4,$5,$6,$7,0*
20,1,$1+$1,$6,$7,$8,$9,0*
20,1,$1+$1,$8,$9,$2,$3,0*%
G04 Aperture macros list end*
%TA.AperFunction,ComponentPad*%
%ADD10O,1.700000X1.950000*%
%TD*%
%TA.AperFunction,ComponentPad*%
%ADD11RoundRect,0.250000X-0.600000X-0.725000X0.600000X-0.725000X0.600000X0.725000X-0.600000X0.725000X0*%
%TD*%
%TA.AperFunction,ComponentPad*%
%ADD12O,1.700000X2.000000*%
%TD*%
%TA.AperFunction,ComponentPad*%
%ADD13RoundRect,0.250000X-0.600000X-0.750000X0.600000X-0.750000X0.600000X0.750000X-0.600000X0.750000X0*%
%TD*%
%TA.AperFunction,ComponentPad*%
%ADD14C,1.404000*%
%TD*%
%TA.AperFunction,ComponentPad*%
%ADD15C,1.304000*%
%TD*%
%TA.AperFunction,ComponentPad*%
%ADD16C,0.804000*%
%TD*%
%TA.AperFunction,SMDPad,CuDef*%
%ADD17R,0.558800X1.981200*%
%TD*%
%TA.AperFunction,SMDPad,CuDef*%
%ADD18R,0.860000X0.980000*%
%TD*%
%TA.AperFunction,SMDPad,CuDef*%
%ADD19R,0.653199X0.549999*%
%TD*%
%TA.AperFunction,SMDPad,CuDef*%
%ADD20R,0.838200X1.143000*%
%TD*%
%TA.AperFunction,SMDPad,CuDef*%
%ADD21R,0.812800X0.889000*%
%TD*%
%TA.AperFunction,SMDPad,CuDef*%
%ADD22R,0.406400X0.990600*%
%TD*%
%TA.AperFunction,ComponentPad*%
%ADD23C,5.700000*%
%TD*%
%TA.AperFunction,SMDPad,CuDef*%
%ADD24R,0.558800X1.320800*%
%TD*%
%TA.AperFunction,SMDPad,CuDef*%
%ADD25R,1.981200X0.558800*%
%TD*%
%TA.AperFunction,SMDPad,CuDef*%
%ADD26R,0.790000X0.930000*%
%TD*%
%TA.AperFunction,ViaPad*%
%ADD27C,0.600000*%
%TD*%
%TA.AperFunction,Conductor*%
%ADD28C,0.150000*%
%TD*%
G04 APERTURE END LIST*
D10*
%TO.P,J2,4,Pin_4*%
%TO.N,B*%
X129500000Y-86000000D03*
%TO.P,J2,3,Pin_3*%
%TO.N,A*%
X127000000Y-86000000D03*
%TO.P,J2,2,Pin_2*%
%TO.N,GND*%
X124500000Y-86000000D03*
D11*
%TO.P,J2,1,Pin_1*%
%TO.N,+3.3V*%
X122000000Y-86000000D03*
%TD*%
D12*
%TO.P,J7,2,Pin_2*%
%TO.N,Net-(J6-Pin_2)*%
X117250000Y-121975000D03*
D13*
%TO.P,J7,1,Pin_1*%
%TO.N,+3.3V*%
X114750000Y-121975000D03*
%TD*%
D14*
%TO.P,U1,1,GND*%
%TO.N,GND*%
X184644300Y-92969400D03*
%TO.P,U1,2,0_RX1_CRX2_CS1*%
%TO.N,PWM1EN*%
X182104300Y-92969400D03*
%TO.P,U1,3,1_TX1_CTX2_MISO1*%
%TO.N,RPWM1*%
X179564300Y-92969400D03*
%TO.P,U1,4,2_OUT2*%
%TO.N,A*%
X177024300Y-92969400D03*
%TO.P,U1,5,3_LRCLK2*%
%TO.N,LPWM1*%
X174484300Y-92969400D03*
%TO.P,U1,6,4_BCLK2*%
%TO.N,PWM2VT*%
X171944300Y-92969400D03*
%TO.P,U1,7,5_IN2*%
%TO.N,B*%
X169404300Y-92969400D03*
%TO.P,U1,8,6_OUT1D*%
%TO.N,PWM2EN*%
X166864300Y-92969400D03*
%TO.P,U1,9,7_RX2_OUT1A*%
%TO.N,RPWM2*%
X164324300Y-92969400D03*
%TO.P,U1,10,8_TX2_IN1*%
%TO.N,LPWM2*%
X161784300Y-92969400D03*
%TO.P,U1,11,9_OUT1C*%
%TO.N,SPIS*%
X159244300Y-92969400D03*
%TO.P,U1,12,10_CS_MQSR*%
%TO.N,CS*%
X156704300Y-92969400D03*
%TO.P,U1,13,11_MOSI_CTX1*%
%TO.N,unconnected-(U1-11_MOSI_CTX1-Pad13)*%
X154164300Y-92969400D03*
%TO.P,U1,14,12_MISO_MQSL*%
%TO.N,MISO*%
X151624300Y-92969400D03*
%TO.P,U1,15,VBAT*%
%TO.N,unconnected-(U1-VBAT-Pad15)*%
X151624300Y-95509400D03*
%TO.P,U1,16,3V3*%
%TO.N,+3.3V*%
X151624300Y-98049400D03*
%TO.P,U1,17,GND*%
%TO.N,unconnected-(U1-GND-Pad17)*%
X151624300Y-100589400D03*
%TO.P,U1,18,PROGRAM*%
%TO.N,unconnected-(U1-PROGRAM-Pad18)*%
X151624300Y-103129400D03*
%TO.P,U1,19,ON_OFF*%
%TO.N,unconnected-(U1-ON_OFF-Pad19)*%
X151624300Y-105669400D03*
%TO.P,U1,20,13_SCK_CRX1_LED*%
%TO.N,SCK*%
X151624300Y-108209400D03*
%TO.P,U1,21,14_A0_TX3_SPDIF_OUT*%
%TO.N,A0*%
X154164300Y-108209400D03*
%TO.P,U1,22,15_A1_RX3_SPDIF_IN*%
%TO.N,A1*%
X156704300Y-108209400D03*
%TO.P,U1,23,16_A2_RX4_SCL1*%
%TO.N,PWM1VT*%
X159244300Y-108209400D03*
%TO.P,U1,24,17_A3_TX4_SDA1*%
%TO.N,SOL*%
X161784300Y-108209400D03*
%TO.P,U1,25,18_A4_SDA0*%
%TO.N,SDA*%
X164324300Y-108209400D03*
%TO.P,U1,26,19_A5_SCL0*%
%TO.N,SCL*%
X166864300Y-108209400D03*
%TO.P,U1,27,20_A6_TX5_LRCLK1*%
%TO.N,PWM3VT*%
X169404300Y-108209400D03*
%TO.P,U1,28,21_A7_RX5_BCLK1*%
%TO.N,PWM3EN*%
X171944300Y-108209400D03*
%TO.P,U1,29,22_A8_CTX1*%
%TO.N,RPWM3*%
X174484300Y-108209400D03*
%TO.P,U1,30,23_A9_CRX1_MCLK1*%
%TO.N,LPWM3*%
X177024300Y-108209400D03*
%TO.P,U1,31,3V3*%
%TO.N,unconnected-(U1-3V3-Pad31)*%
X179564300Y-108209400D03*
%TO.P,U1,32,GND*%
%TO.N,unconnected-(U1-GND-Pad32)*%
X182104300Y-108209400D03*
%TO.P,U1,33,VIN*%
%TO.N,unconnected-(U1-VIN-Pad33)*%
X184644300Y-108209400D03*
%TO.P,U1,34,VUSB*%
%TO.N,unconnected-(U1-VUSB-Pad34)*%
X182104300Y-105669400D03*
D15*
%TO.P,U1,35,24_A10_TX6_SCL2*%
%TO.N,unconnected-(U1-24_A10_TX6_SCL2-Pad35)*%
X156704300Y-105669400D03*
%TO.P,U1,36,25_A11_RX6_SDA2*%
%TO.N,unconnected-(U1-25_A11_RX6_SDA2-Pad36)*%
X159244300Y-105669400D03*
%TO.P,U1,37,26_A12_MOSI1*%
%TO.N,unconnected-(U1-26_A12_MOSI1-Pad37)*%
X156704300Y-103129400D03*
%TO.P,U1,38,27_A13_SCK1*%
%TO.N,unconnected-(U1-27_A13_SCK1-Pad38)*%
X159244300Y-103129400D03*
%TO.P,U1,39,28_RX7*%
%TO.N,unconnected-(U1-28_RX7-Pad39)*%
X156704300Y-100589400D03*
%TO.P,U1,40,29_TX7*%
%TO.N,unconnected-(U1-29_TX7-Pad40)*%
X159244300Y-100589400D03*
%TO.P,U1,41,30_CRX3*%
%TO.N,unconnected-(U1-30_CRX3-Pad41)*%
X156704300Y-98049400D03*
%TO.P,U1,42,31_CTX3*%
%TO.N,unconnected-(U1-31_CTX3-Pad42)*%
X159244300Y-98049400D03*
%TO.P,U1,43,32_OUT1B*%
%TO.N,unconnected-(U1-32_OUT1B-Pad43)*%
X156704300Y-95509400D03*
%TO.P,U1,44,33_MCLK2*%
%TO.N,unconnected-(U1-33_MCLK2-Pad44)*%
X159244300Y-95509400D03*
D16*
%TO.P,U1,45,34_DAT1_MISO2*%
%TO.N,unconnected-(U1-34_DAT1_MISO2-Pad45)*%
X177505900Y-104089400D03*
%TO.P,U1,46,35_DAT0_MOSI2*%
%TO.N,unconnected-(U1-35_DAT0_MOSI2-Pad46)*%
X177505900Y-103089400D03*
%TO.P,U1,47,GND*%
%TO.N,unconnected-(U1-GND-Pad47)*%
X177505900Y-102089400D03*
%TO.P,U1,48,36_CLK_CS2*%
%TO.N,unconnected-(U1-36_CLK_CS2-Pad48)*%
X177505900Y-101089400D03*
%TO.P,U1,49,3V3*%
%TO.N,unconnected-(U1-3V3-Pad49)*%
X177505900Y-100089400D03*
%TO.P,U1,50,37_CMD_SCK2*%
%TO.N,unconnected-(U1-37_CMD_SCK2-Pad50)*%
X177505900Y-99089400D03*
%TO.P,U1,51,38_DAT3_RX5*%
%TO.N,unconnected-(U1-38_DAT3_RX5-Pad51)*%
X177505900Y-98089400D03*
%TO.P,U1,52,39_DAT2_TX5*%
%TO.N,unconnected-(U1-39_DAT2_TX5-Pad52)*%
X177505900Y-97089400D03*
D15*
%TO.P,U1,53,D-*%
%TO.N,unconnected-(U1-D--Pad53)*%
X183374300Y-101859400D03*
%TO.P,U1,54,D+*%
%TO.N,unconnected-(U1-D+-Pad54)*%
X183374300Y-99319400D03*
%TD*%
D17*
%TO.P,U4,1,1A*%
%TO.N,BLINK*%
X140880000Y-108000000D03*
%TO.P,U4,2,1B*%
%TO.N,RPWM1*%
X142150000Y-108000000D03*
%TO.P,U4,3,1Y*%
%TO.N,RPWM1A*%
X143420000Y-108000000D03*
%TO.P,U4,4,2A*%
%TO.N,BLINK*%
X144690000Y-108000000D03*
%TO.P,U4,5,2B*%
%TO.N,LPWM1*%
X145960000Y-108000000D03*
%TO.P,U4,6,2Y*%
%TO.N,LPWM1A*%
X147230000Y-108000000D03*
%TO.P,U4,7,GND*%
%TO.N,GND*%
X148500000Y-108000000D03*
%TO.P,U4,8,3Y*%
%TO.N,RPWM2A*%
X148500000Y-103072400D03*
%TO.P,U4,9,3A*%
%TO.N,BLINK*%
X147230000Y-103072400D03*
%TO.P,U4,10,3B*%
%TO.N,RPWM2*%
X145960000Y-103072400D03*
%TO.P,U4,11,4Y*%
%TO.N,LPWM2A*%
X144690000Y-103072400D03*
%TO.P,U4,12,4A*%
%TO.N,BLINK*%
X143420000Y-103072400D03*
%TO.P,U4,13,4B*%
%TO.N,LPWM2*%
X142150000Y-103072400D03*
%TO.P,U4,14,VCC*%
%TO.N,+3.3V*%
X140880000Y-103072400D03*
%TD*%
D18*
%TO.P,R3,1*%
%TO.N,Net-(D3-Pad2)*%
X132671900Y-114500000D03*
%TO.P,R3,2*%
%TO.N,RPWM2A*%
X134201900Y-114500000D03*
%TD*%
D19*
%TO.P,C2,1*%
%TO.N,Net-(555TIMER1-CONT)*%
X178098401Y-114500000D03*
%TO.P,C2,2*%
%TO.N,GND*%
X178901599Y-114500000D03*
%TD*%
D11*
%TO.P,J8,1,Pin_1*%
%TO.N,PWM1EN*%
X129750000Y-121975000D03*
D10*
%TO.P,J8,2,Pin_2*%
%TO.N,RPWM1*%
X132250000Y-121975000D03*
%TO.P,J8,3,Pin_3*%
%TO.N,LPWM1*%
X134750000Y-121975000D03*
%TO.P,J8,4,Pin_4*%
%TO.N,PWM1VT*%
X137250000Y-121975000D03*
%TD*%
D18*
%TO.P,R6,1*%
%TO.N,Net-(D6-Pad2)*%
X146735000Y-114500000D03*
%TO.P,R6,2*%
%TO.N,RPWM3A*%
X148265000Y-114500000D03*
%TD*%
%TO.P,R8,1*%
%TO.N,Net-(J6-Pin_2)*%
X142369000Y-114484900D03*
%TO.P,R8,2*%
%TO.N,PWM1EN*%
X143899000Y-114484900D03*
%TD*%
D20*
%TO.P,D10,1*%
%TO.N,GND*%
X165209300Y-117000000D03*
%TO.P,D10,2*%
%TO.N,Net-(D10-Pad2)*%
X167088900Y-117000000D03*
%TD*%
D13*
%TO.P,J6,1,Pin_1*%
%TO.N,+3.3V*%
X105750000Y-121975000D03*
D12*
%TO.P,J6,2,Pin_2*%
%TO.N,Net-(J6-Pin_2)*%
X108250000Y-121975000D03*
%TD*%
D21*
%TO.P,C1,1*%
%TO.N,/NODE_A*%
X165204600Y-112000000D03*
%TO.P,C1,2*%
%TO.N,GND*%
X166500000Y-112000000D03*
%TD*%
D11*
%TO.P,J5,1,Pin_1*%
%TO.N,+3.3V*%
X176000000Y-86000000D03*
D10*
%TO.P,J5,2,Pin_2*%
%TO.N,GND*%
X178500000Y-86000000D03*
%TO.P,J5,3,Pin_3*%
%TO.N,SCL*%
X181000000Y-86000000D03*
%TO.P,J5,4,Pin_4*%
%TO.N,SDA*%
X183500000Y-86000000D03*
%TD*%
D18*
%TO.P,R13,1*%
%TO.N,Net-(D11-Pad2)*%
X108235000Y-114500000D03*
%TO.P,R13,2*%
%TO.N,PWM3EN*%
X109765000Y-114500000D03*
%TD*%
D22*
%TO.P,D6,1*%
%TO.N,GND*%
X146649100Y-117000000D03*
%TO.P,D6,2*%
%TO.N,Net-(D6-Pad2)*%
X148350900Y-117000000D03*
%TD*%
D20*
%TO.P,D8,1*%
%TO.N,GND*%
X142209300Y-117000000D03*
%TO.P,D8,2*%
%TO.N,Net-(D8-Pad2)*%
X144088900Y-117000000D03*
%TD*%
D11*
%TO.P,J11,1,Pin_1*%
%TO.N,SIG*%
X178500000Y-121975000D03*
D10*
%TO.P,J11,2,Pin_2*%
%TO.N,+3.3V*%
X181000000Y-121975000D03*
%TO.P,J11,3,Pin_3*%
%TO.N,GND*%
X183500000Y-121975000D03*
%TD*%
D18*
%TO.P,R11,1*%
%TO.N,Net-(D9-Pad2)*%
X156235000Y-114500000D03*
%TO.P,R11,2*%
%TO.N,SIG*%
X157765000Y-114500000D03*
%TD*%
D11*
%TO.P,J9,1,Pin_1*%
%TO.N,PWM2EN*%
X143750000Y-121975000D03*
D10*
%TO.P,J9,2,Pin_2*%
%TO.N,RPWM2*%
X146250000Y-121975000D03*
%TO.P,J9,3,Pin_3*%
%TO.N,LPWM2*%
X148750000Y-121975000D03*
%TO.P,J9,4,Pin_4*%
%TO.N,PWM2VT*%
X151250000Y-121975000D03*
%TD*%
D18*
%TO.P,R12,1*%
%TO.N,Net-(D10-Pad2)*%
X105265000Y-114500000D03*
%TO.P,R12,2*%
%TO.N,PWM2EN*%
X103735000Y-114500000D03*
%TD*%
D11*
%TO.P,J10,1,Pin_1*%
%TO.N,PWM3EN*%
X157750000Y-121975000D03*
D10*
%TO.P,J10,2,Pin_2*%
%TO.N,RPWM3*%
X160250000Y-121975000D03*
%TO.P,J10,3,Pin_3*%
%TO.N,LPWM3*%
X162750000Y-121975000D03*
%TO.P,J10,4,Pin_4*%
%TO.N,PWM3VT*%
X165250000Y-121975000D03*
%TD*%
D17*
%TO.P,U3,1,1A*%
%TO.N,BLINK*%
X140880000Y-98000000D03*
%TO.P,U3,2,1B*%
%TO.N,RPWM3*%
X142150000Y-98000000D03*
%TO.P,U3,3,1Y*%
%TO.N,RPWM3A*%
X143420000Y-98000000D03*
%TO.P,U3,4,2A*%
%TO.N,BLINK*%
X144690000Y-98000000D03*
%TO.P,U3,5,2B*%
%TO.N,LPWM3*%
X145960000Y-98000000D03*
%TO.P,U3,6,2Y*%
%TO.N,LPWM3A*%
X147230000Y-98000000D03*
%TO.P,U3,7,GND*%
%TO.N,GND*%
X148500000Y-98000000D03*
%TO.P,U3,8,3Y*%
%TO.N,unconnected-(GATE2-3Y-Pad8)*%
X148500000Y-93072400D03*
%TO.P,U3,9,3A*%
%TO.N,unconnected-(GATE2-3A-Pad9)*%
X147230000Y-93072400D03*
%TO.P,U3,10,3B*%
%TO.N,unconnected-(GATE2-3B-Pad10)*%
X145960000Y-93072400D03*
%TO.P,U3,11,4Y*%
%TO.N,unconnected-(GATE2-4Y-Pad11)*%
X144690000Y-93072400D03*
%TO.P,U3,12,4A*%
%TO.N,unconnected-(GATE2-4A-Pad12)*%
X143420000Y-93072400D03*
%TO.P,U3,13,4B*%
%TO.N,unconnected-(GATE2-4B-Pad13)*%
X142150000Y-93072400D03*
%TO.P,U3,14,VCC*%
%TO.N,+3.3V*%
X140880000Y-93072400D03*
%TD*%
D18*
%TO.P,R14,1*%
%TO.N,GND*%
X118470000Y-114500000D03*
%TO.P,R14,2*%
%TO.N,Net-(Q1-BASE)*%
X120000000Y-114500000D03*
%TD*%
D22*
%TO.P,D7,1*%
%TO.N,GND*%
X151298200Y-117000000D03*
%TO.P,D7,2*%
%TO.N,Net-(D7-Pad2)*%
X153000000Y-117000000D03*
%TD*%
D18*
%TO.P,R7,1*%
%TO.N,Net-(D7-Pad2)*%
X151235000Y-114500000D03*
%TO.P,R7,2*%
%TO.N,LPWM3A*%
X152765000Y-114500000D03*
%TD*%
D11*
%TO.P,J3,1,Pin_1*%
%TO.N,+3.3V*%
X144500000Y-86000000D03*
D10*
%TO.P,J3,2,Pin_2*%
%TO.N,A0*%
X147000000Y-86000000D03*
%TO.P,J3,3,Pin_3*%
%TO.N,GND*%
X149500000Y-86000000D03*
%TD*%
D20*
%TO.P,D11,1*%
%TO.N,GND*%
X156060200Y-117000000D03*
%TO.P,D11,2*%
%TO.N,Net-(D11-Pad2)*%
X157939800Y-117000000D03*
%TD*%
D23*
%TO.P,MH4,1,1*%
%TO.N,unconnected-(MH4-Pad1)*%
X171908500Y-122500000D03*
%TD*%
%TO.P,MH3,1,1*%
%TO.N,unconnected-(MH3-Pad1)*%
X123500000Y-122420000D03*
%TD*%
D11*
%TO.P,J1,1,Pin_1*%
%TO.N,+3.3V*%
X105752200Y-85977500D03*
D10*
%TO.P,J1,2,Pin_2*%
%TO.N,CS*%
X108252200Y-85977500D03*
%TO.P,J1,3,Pin_3*%
%TO.N,SCK*%
X110752200Y-85977500D03*
%TO.P,J1,4,Pin_4*%
%TO.N,MISO*%
X113252200Y-85977500D03*
%TO.P,J1,5,Pin_5*%
%TO.N,GND*%
X115752200Y-85977500D03*
%TD*%
D22*
%TO.P,D1,1*%
%TO.N,GND*%
X110209300Y-91500000D03*
%TO.P,D1,2*%
%TO.N,Net-(D1-Pad2)*%
X111911100Y-91500000D03*
%TD*%
D24*
%TO.P,Q1,1,BASE*%
%TO.N,Net-(Q1-BASE)*%
X113000000Y-116000000D03*
%TO.P,Q1,2,EMITTER*%
%TO.N,GND*%
X114905000Y-116000000D03*
%TO.P,Q1,3,COLLECTOR*%
%TO.N,PWM1EN*%
X113952500Y-113968000D03*
%TD*%
D18*
%TO.P,R4,1*%
%TO.N,Net-(D4-Pad2)*%
X137470000Y-114500000D03*
%TO.P,R4,2*%
%TO.N,LPWM2A*%
X139000000Y-114500000D03*
%TD*%
D20*
%TO.P,D5,1*%
%TO.N,Net-(D5-Pad1)*%
X128209300Y-117000000D03*
%TO.P,D5,2*%
%TO.N,PWM1EN*%
X130088900Y-117000000D03*
%TD*%
D18*
%TO.P,R15,1*%
%TO.N,/NODE_B*%
X183735000Y-114500000D03*
%TO.P,R15,2*%
%TO.N,+3.3V*%
X185265000Y-114500000D03*
%TD*%
D11*
%TO.P,J4,1,Pin_1*%
%TO.N,+3.3V*%
X156000000Y-86000000D03*
D10*
%TO.P,J4,2,Pin_2*%
%TO.N,A1*%
X158500000Y-86000000D03*
%TO.P,J4,3,Pin_3*%
%TO.N,GND*%
X161000000Y-86000000D03*
%TD*%
D25*
%TO.P,U2,1,GND*%
%TO.N,GND*%
X170572400Y-112190000D03*
%TO.P,U2,2,TRIG*%
%TO.N,/NODE_A*%
X170572400Y-113460000D03*
%TO.P,U2,3,OUT*%
%TO.N,BLINK*%
X170572400Y-114730000D03*
%TO.P,U2,4,RESET*%
%TO.N,+3.3V*%
X170572400Y-116000000D03*
%TO.P,U2,5,CONT*%
%TO.N,Net-(555TIMER1-CONT)*%
X175500000Y-116000000D03*
%TO.P,U2,6,THRES*%
%TO.N,/NODE_A*%
X175500000Y-114730000D03*
%TO.P,U2,7,DISCH*%
%TO.N,/NODE_B*%
X175500000Y-113460000D03*
%TO.P,U2,8,VDD*%
%TO.N,+3.3V*%
X175500000Y-112190000D03*
%TD*%
D18*
%TO.P,R5,1*%
%TO.N,Net-(D5-Pad1)*%
X128470000Y-114500000D03*
%TO.P,R5,2*%
%TO.N,GND*%
X130000000Y-114500000D03*
%TD*%
%TO.P,R1,1*%
%TO.N,Net-(D1-Pad2)*%
X114000000Y-91500000D03*
%TO.P,R1,2*%
%TO.N,RPWM1A*%
X115530000Y-91500000D03*
%TD*%
D23*
%TO.P,MH1,1,1*%
%TO.N,unconnected-(MH1-Pad1)*%
X137000000Y-86500000D03*
%TD*%
D18*
%TO.P,R10,1*%
%TO.N,Net-(D8-Pad2)*%
X165235000Y-114500000D03*
%TO.P,R10,2*%
%TO.N,SPIS*%
X166765000Y-114500000D03*
%TD*%
%TO.P,R2,1*%
%TO.N,Net-(D2-Pad2)*%
X183735000Y-117000000D03*
%TO.P,R2,2*%
%TO.N,LPWM1A*%
X185265000Y-117000000D03*
%TD*%
D23*
%TO.P,MH2,1,1*%
%TO.N,unconnected-(MH2-Pad1)*%
X168500000Y-86500000D03*
%TD*%
D22*
%TO.P,D4,1*%
%TO.N,GND*%
X137298200Y-117000000D03*
%TO.P,D4,2*%
%TO.N,Net-(D4-Pad2)*%
X139000000Y-117000000D03*
%TD*%
%TO.P,D2,1*%
%TO.N,GND*%
X180298200Y-117000000D03*
%TO.P,D2,2*%
%TO.N,Net-(D2-Pad2)*%
X182000000Y-117000000D03*
%TD*%
D18*
%TO.P,R9,1*%
%TO.N,PWM1EN*%
X160735000Y-114500000D03*
%TO.P,R9,2*%
X162265000Y-114500000D03*
%TD*%
D22*
%TO.P,D3,1*%
%TO.N,GND*%
X132709300Y-117000000D03*
%TO.P,D3,2*%
%TO.N,Net-(D3-Pad2)*%
X134411100Y-117000000D03*
%TD*%
D26*
%TO.P,R16,1*%
%TO.N,/NODE_A*%
X183680000Y-111500000D03*
%TO.P,R16,2*%
%TO.N,/NODE_B*%
X185320000Y-111500000D03*
%TD*%
D22*
%TO.P,D9,1*%
%TO.N,GND*%
X160709300Y-117000000D03*
%TO.P,D9,2*%
%TO.N,Net-(D9-Pad2)*%
X162411100Y-117000000D03*
%TD*%
D27*
%TO.N,GND*%
X159500000Y-117749997D03*
X176000000Y-110500000D03*
X149324338Y-98358120D03*
X149861028Y-108048713D03*
X150000000Y-111000000D03*
X145000000Y-111000000D03*
X179000000Y-116500000D03*
X149858903Y-115733287D03*
X131176150Y-115707263D03*
X118470000Y-114500000D03*
X108500000Y-91500000D03*
X116000000Y-117500000D03*
X180000000Y-114500000D03*
X140906977Y-117423800D03*
X135923548Y-115732178D03*
X145255895Y-117316215D03*
X154500000Y-115000000D03*
%TO.N,Net-(J6-Pin_2)*%
X116080400Y-112687200D03*
%TO.N,Net-(D10-Pad2)*%
X163414600Y-116406400D03*
X159829700Y-124742000D03*
X107208500Y-124742000D03*
X106816100Y-114521200D03*
%TO.N,LPWM3A*%
X150000000Y-113644300D03*
X147447500Y-99518800D03*
%TO.N,RPWM3A*%
X147500000Y-113645900D03*
X143187300Y-99518800D03*
%TO.N,RPWM2A*%
X143094700Y-100936100D03*
X137217500Y-113386100D03*
%TO.N,LPWM2A*%
X143623000Y-105236500D03*
X140128800Y-113859900D03*
%TO.N,CS*%
X107208500Y-83622100D03*
X156719000Y-83632300D03*
%TO.N,SCK*%
X149188600Y-96734300D03*
%TO.N,SPIS*%
X161996900Y-112261400D03*
%TO.N,RPWM3*%
X170481200Y-118041600D03*
%TO.N,PWM3EN*%
X168264300Y-119088400D03*
%TO.N,RPWM2*%
X146149700Y-106161100D03*
X163038700Y-101707300D03*
%TO.N,PWM2VT*%
X156066100Y-121942500D03*
%TO.N,LPWM2*%
X142453600Y-104958700D03*
%TO.N,RPWM1*%
X136442500Y-92783700D03*
X133519100Y-107810300D03*
%TO.N,PWM1VT*%
X153398200Y-120946300D03*
%TO.N,LPWM1*%
X173578000Y-105264600D03*
X136442500Y-110215500D03*
%TO.N,PWM1EN*%
X162753100Y-95689000D03*
X159413600Y-114499200D03*
X131282100Y-117785700D03*
X160305400Y-112348300D03*
%TO.N,+3.3V*%
X139252400Y-101499600D03*
%TD*%
D28*
%TO.N,GND*%
X160249997Y-117000000D02*
X159500000Y-117749997D01*
X160709300Y-117000000D02*
X160249997Y-117000000D01*
X167500000Y-112190000D02*
X170572400Y-112190000D01*
X170572400Y-110927600D02*
X171000000Y-110500000D01*
X170572400Y-112190000D02*
X170572400Y-110927600D01*
X171000000Y-110500000D02*
X176000000Y-110500000D01*
X148500000Y-98000000D02*
X148966218Y-98000000D01*
X148966218Y-98000000D02*
X149324338Y-98358120D01*
X148500000Y-108000000D02*
X149812315Y-108000000D01*
X149812315Y-108000000D02*
X149861028Y-108048713D01*
X163000000Y-118500000D02*
X161000000Y-118500000D01*
X165209300Y-117000000D02*
X164500000Y-117000000D01*
X160709300Y-118209300D02*
X160709300Y-117000000D01*
X164500000Y-117000000D02*
X163000000Y-118500000D01*
X161000000Y-118500000D02*
X160709300Y-118209300D01*
X145000000Y-111000000D02*
X150000000Y-111000000D01*
X166500000Y-112000000D02*
X167000000Y-112000000D01*
X167000000Y-112000000D02*
X167190000Y-112190000D01*
X167190000Y-112190000D02*
X167500000Y-112190000D01*
%TO.N,+3.3V*%
X178000000Y-116506100D02*
X179000000Y-115500000D01*
X179000000Y-115500000D02*
X184239200Y-115500000D01*
X184239200Y-115500000D02*
X185265000Y-114500000D01*
%TO.N,GND*%
X179000000Y-116500000D02*
X179500000Y-117000000D01*
X179500000Y-117000000D02*
X180298200Y-117000000D01*
%TO.N,+3.3V*%
X181000000Y-121975000D02*
X179923300Y-121975000D01*
X179746500Y-118252600D02*
X178000000Y-116506100D01*
X179923300Y-121975000D02*
X179746500Y-121798200D01*
X179746500Y-121798200D02*
X179746500Y-118252600D01*
X171789700Y-116000000D02*
X172295800Y-116506100D01*
X172295800Y-116506100D02*
X178000000Y-116506100D01*
X170572400Y-116000000D02*
X171789700Y-116000000D01*
%TO.N,GND*%
X180000000Y-114500000D02*
X178901599Y-114500000D01*
%TO.N,LPWM3A*%
X150000000Y-113644300D02*
X151909300Y-113644300D01*
X151909300Y-113644300D02*
X152765000Y-114500000D01*
%TO.N,GND*%
X154500000Y-115000000D02*
X155000000Y-115000000D01*
X155000000Y-115000000D02*
X155000000Y-115939800D01*
X149858903Y-116358903D02*
X150500000Y-117000000D01*
X149858903Y-115733287D02*
X149858903Y-116358903D01*
X150500000Y-117000000D02*
X151298200Y-117000000D01*
X145255895Y-117316215D02*
X145572110Y-117000000D01*
X145572110Y-117000000D02*
X146649100Y-117000000D01*
X140906977Y-117423800D02*
X141785500Y-117423800D01*
X141785500Y-117423800D02*
X142209300Y-117000000D01*
X135923548Y-115732178D02*
X136030378Y-115732178D01*
X136030378Y-115732178D02*
X137298200Y-117000000D01*
X131176150Y-115707263D02*
X131416563Y-115707263D01*
X131416563Y-115707263D02*
X132709300Y-117000000D01*
X130000000Y-114500000D02*
X131176150Y-115676150D01*
X131176150Y-115676150D02*
X131176150Y-115707263D01*
X108500000Y-91500000D02*
X110209300Y-91500000D01*
X114905000Y-116000000D02*
X114905000Y-116405000D01*
X114905000Y-116405000D02*
X116000000Y-117500000D01*
%TO.N,Net-(J6-Pin_2)*%
X116173300Y-122601800D02*
X116173300Y-121975000D01*
X115570700Y-123204400D02*
X116173300Y-122601800D01*
X110556100Y-123204400D02*
X115570700Y-123204400D01*
X109326700Y-121975000D02*
X110556100Y-123204400D01*
X108250000Y-121975000D02*
X109326700Y-121975000D01*
X116905500Y-121975000D02*
X116173300Y-121975000D01*
X116905500Y-121975000D02*
X117250000Y-121975000D01*
X139914600Y-112687200D02*
X116080400Y-112687200D01*
X141712300Y-114484900D02*
X139914600Y-112687200D01*
X142369000Y-114484900D02*
X141712300Y-114484900D01*
%TO.N,Net-(D5-Pad1)*%
X128209300Y-115477400D02*
X128209300Y-117000000D01*
X128470000Y-115216700D02*
X128209300Y-115477400D01*
X128470000Y-114500000D02*
X128470000Y-115216700D01*
%TO.N,Net-(D3-Pad2)*%
X133328600Y-115156700D02*
X133328600Y-114500000D01*
X134411100Y-116239200D02*
X133328600Y-115156700D01*
X134411100Y-117000000D02*
X134411100Y-116239200D01*
X132671900Y-114500000D02*
X133328600Y-114500000D01*
%TO.N,Net-(Q1-BASE)*%
X119343300Y-114910400D02*
X119343300Y-114500000D01*
X119001400Y-115252300D02*
X119343300Y-114910400D01*
X116624300Y-115252300D02*
X119001400Y-115252300D01*
X116449100Y-115077100D02*
X116624300Y-115252300D01*
X114429000Y-115077100D02*
X116449100Y-115077100D01*
X113506100Y-116000000D02*
X114429000Y-115077100D01*
X113000000Y-116000000D02*
X113506100Y-116000000D01*
X120000000Y-114500000D02*
X119343300Y-114500000D01*
%TO.N,Net-(D11-Pad2)*%
X112089500Y-118354500D02*
X108235000Y-114500000D01*
X157383500Y-118354500D02*
X112089500Y-118354500D01*
X157939800Y-117798200D02*
X157383500Y-118354500D01*
X157939800Y-117000000D02*
X157939800Y-117798200D01*
%TO.N,Net-(D10-Pad2)*%
X163619200Y-116201800D02*
X163414600Y-116406400D01*
X167088900Y-116201800D02*
X163619200Y-116201800D01*
X108005800Y-125539300D02*
X107208500Y-124742000D01*
X159032400Y-125539300D02*
X108005800Y-125539300D01*
X159829700Y-124742000D02*
X159032400Y-125539300D01*
X105942900Y-114521200D02*
X105921700Y-114500000D01*
X106816100Y-114521200D02*
X105942900Y-114521200D01*
X105265000Y-114500000D02*
X105921700Y-114500000D01*
X167088900Y-117000000D02*
X167088900Y-116201800D01*
%TO.N,Net-(D9-Pad2)*%
X156891700Y-114910400D02*
X156891700Y-114500000D01*
X158083500Y-116102200D02*
X156891700Y-114910400D01*
X162235300Y-116102200D02*
X158083500Y-116102200D01*
X162411100Y-116278000D02*
X162235300Y-116102200D01*
X162411100Y-117000000D02*
X162411100Y-116278000D01*
X156235000Y-114500000D02*
X156891700Y-114500000D01*
%TO.N,Net-(D8-Pad2)*%
X144088900Y-117000000D02*
X144734700Y-117000000D01*
X144734700Y-115170900D02*
X144734700Y-117000000D01*
X146802100Y-113103500D02*
X144734700Y-115170900D01*
X163181800Y-113103500D02*
X146802100Y-113103500D01*
X164578300Y-114500000D02*
X163181800Y-113103500D01*
X165235000Y-114500000D02*
X164578300Y-114500000D01*
%TO.N,Net-(D7-Pad2)*%
X153000000Y-116265000D02*
X153000000Y-117000000D01*
X151891700Y-115156700D02*
X153000000Y-116265000D01*
X151891700Y-114500000D02*
X151891700Y-115156700D01*
X151235000Y-114500000D02*
X151891700Y-114500000D01*
%TO.N,Net-(D6-Pad2)*%
X148350900Y-116115900D02*
X146735000Y-114500000D01*
X148350900Y-117000000D02*
X148350900Y-116115900D01*
%TO.N,Net-(D4-Pad2)*%
X139000000Y-116030000D02*
X139000000Y-117000000D01*
X138126700Y-115156700D02*
X139000000Y-116030000D01*
X138126700Y-114500000D02*
X138126700Y-115156700D01*
X137470000Y-114500000D02*
X138126700Y-114500000D01*
%TO.N,Net-(D2-Pad2)*%
X182000000Y-117000000D02*
X183735000Y-117000000D01*
%TO.N,/NODE_B*%
X185320000Y-111500000D02*
X184698300Y-111500000D01*
X183735000Y-114500000D02*
X184391700Y-114500000D01*
X175500000Y-113460000D02*
X176717300Y-113460000D01*
X184391700Y-113460000D02*
X176717300Y-113460000D01*
X184391700Y-111806600D02*
X184391700Y-113460000D01*
X184698300Y-111500000D02*
X184391700Y-111806600D01*
X184391700Y-113460000D02*
X184391700Y-114500000D01*
%TO.N,LPWM3A*%
X147230000Y-99301300D02*
X147230000Y-98000000D01*
X147447500Y-99518800D02*
X147230000Y-99301300D01*
%TO.N,RPWM3A*%
X143420000Y-99286100D02*
X143420000Y-98000000D01*
X143187300Y-99518800D02*
X143420000Y-99286100D01*
X148265000Y-114500000D02*
X147608300Y-114500000D01*
X147608300Y-113754200D02*
X147500000Y-113645900D01*
X147608300Y-114500000D02*
X147608300Y-113754200D01*
%TO.N,RPWM2A*%
X146782700Y-100936100D02*
X143094700Y-100936100D01*
X148500000Y-102653400D02*
X146782700Y-100936100D01*
X148500000Y-103072400D02*
X148500000Y-102653400D01*
X135972500Y-113386100D02*
X134858600Y-114500000D01*
X137217500Y-113386100D02*
X135972500Y-113386100D01*
X134201900Y-114500000D02*
X134858600Y-114500000D01*
%TO.N,RPWM1A*%
X142772100Y-106134800D02*
X143420000Y-106782700D01*
X130821500Y-106134800D02*
X142772100Y-106134800D01*
X116186700Y-91500000D02*
X130821500Y-106134800D01*
X115530000Y-91500000D02*
X116186700Y-91500000D01*
X143420000Y-108000000D02*
X143420000Y-106782700D01*
%TO.N,LPWM2A*%
X144569800Y-104289700D02*
X143623000Y-105236500D01*
X144690000Y-104289700D02*
X144569800Y-104289700D01*
X139656700Y-114332000D02*
X139656700Y-114500000D01*
X140128800Y-113859900D02*
X139656700Y-114332000D01*
X139000000Y-114500000D02*
X139656700Y-114500000D01*
X144690000Y-103072400D02*
X144690000Y-104289700D01*
%TO.N,BLINK*%
X140880000Y-96782700D02*
X144690000Y-96782700D01*
X144690000Y-97391300D02*
X144690000Y-96782700D01*
X144690000Y-97391300D02*
X144690000Y-98000000D01*
X144690000Y-108000000D02*
X144690000Y-106782700D01*
X143420000Y-103681000D02*
X143420000Y-104289700D01*
X143420000Y-103681000D02*
X143420000Y-103072400D01*
X143420000Y-103072400D02*
X143420000Y-101855100D01*
X147230000Y-103072400D02*
X147230000Y-101855100D01*
X140880000Y-97391300D02*
X140880000Y-96782700D01*
X140880000Y-97391300D02*
X140880000Y-98000000D01*
X144690000Y-108000000D02*
X144690000Y-109215600D01*
X144424400Y-106782700D02*
X144690000Y-106782700D01*
X143096300Y-105454600D02*
X144424400Y-106782700D01*
X143096300Y-104613400D02*
X143096300Y-105454600D01*
X143420000Y-104289700D02*
X143096300Y-104613400D01*
X143420000Y-101855100D02*
X147230000Y-101855100D01*
X143268900Y-101855100D02*
X143420000Y-101855100D01*
X140880000Y-99466200D02*
X143268900Y-101855100D01*
X140880000Y-98000000D02*
X140880000Y-99466200D01*
X140880000Y-108000000D02*
X140880000Y-109088400D01*
X141008900Y-109217300D02*
X140880000Y-109088400D01*
X144688300Y-109217300D02*
X141008900Y-109217300D01*
X144690000Y-109215600D02*
X144688300Y-109217300D01*
X136770500Y-109088400D02*
X140880000Y-109088400D01*
X135876100Y-109982800D02*
X136770500Y-109088400D01*
X135876100Y-110431500D02*
X135876100Y-109982800D01*
X137043900Y-111599300D02*
X135876100Y-110431500D01*
X162757200Y-111599300D02*
X137043900Y-111599300D01*
X164571100Y-113413200D02*
X162757200Y-111599300D01*
X167378400Y-113413200D02*
X164571100Y-113413200D01*
X168695200Y-114730000D02*
X167378400Y-113413200D01*
X170572400Y-114730000D02*
X168695200Y-114730000D01*
%TO.N,Net-(555TIMER1-CONT)*%
X177100100Y-116000000D02*
X175500000Y-116000000D01*
X178098400Y-115001700D02*
X177100100Y-116000000D01*
X178098400Y-114500000D02*
X178098400Y-115001700D01*
%TO.N,/NODE_A*%
X173059700Y-114730000D02*
X175500000Y-114730000D01*
X171789700Y-113460000D02*
X173059700Y-114730000D01*
X165204600Y-112000000D02*
X165204600Y-112671200D01*
X171181100Y-113460000D02*
X170572400Y-113460000D01*
X183680000Y-111500000D02*
X183058300Y-111500000D01*
X171181100Y-113460000D02*
X171789700Y-113460000D01*
X171789700Y-113460000D02*
X171789700Y-112953900D01*
X181604400Y-112953900D02*
X183058300Y-111500000D01*
X171789700Y-112953900D02*
X181604400Y-112953900D01*
X165487300Y-112953900D02*
X165204600Y-112671200D01*
X171789700Y-112953900D02*
X165487300Y-112953900D01*
%TO.N,CS*%
X156453100Y-83366400D02*
X156719000Y-83632300D01*
X107464200Y-83366400D02*
X156453100Y-83366400D01*
X107208500Y-83622100D02*
X107464200Y-83366400D01*
%TO.N,SCK*%
X110752200Y-85977500D02*
X111828900Y-85977500D01*
X111828900Y-86246700D02*
X111828900Y-85977500D01*
X121621800Y-96039600D02*
X111828900Y-86246700D01*
X148493900Y-96039600D02*
X121621800Y-96039600D01*
X149188600Y-96734300D02*
X148493900Y-96039600D01*
%TO.N,MISO*%
X113252200Y-85977500D02*
X114328900Y-85977500D01*
X114328900Y-86246700D02*
X114328900Y-85977500D01*
X119322300Y-91240100D02*
X114328900Y-86246700D01*
X149895000Y-91240100D02*
X119322300Y-91240100D01*
X151624300Y-92969400D02*
X149895000Y-91240100D01*
%TO.N,SPIS*%
X162878500Y-112261400D02*
X161996900Y-112261400D01*
X164391100Y-113774000D02*
X162878500Y-112261400D01*
X165792700Y-113774000D02*
X164391100Y-113774000D01*
X166108300Y-114089600D02*
X165792700Y-113774000D01*
X166108300Y-114500000D02*
X166108300Y-114089600D01*
X166765000Y-114500000D02*
X166108300Y-114500000D01*
%TO.N,Net-(D1-Pad2)*%
X114000000Y-91500000D02*
X111911100Y-91500000D01*
%TO.N,SIG*%
X157765000Y-114500000D02*
X158421700Y-114500000D01*
X159180700Y-115259000D02*
X158421700Y-114500000D01*
X167600600Y-115259000D02*
X159180700Y-115259000D01*
X169856500Y-117514900D02*
X167600600Y-115259000D01*
X174039900Y-117514900D02*
X169856500Y-117514900D01*
X178500000Y-121975000D02*
X174039900Y-117514900D01*
%TO.N,B*%
X129500000Y-86000000D02*
X130576700Y-86000000D01*
X134461700Y-89885000D02*
X130576700Y-86000000D01*
X166319900Y-89885000D02*
X134461700Y-89885000D01*
X169404300Y-92969400D02*
X166319900Y-89885000D01*
%TO.N,A*%
X127000000Y-86000000D02*
X128076700Y-86000000D01*
X128076700Y-86285600D02*
X128076700Y-86000000D01*
X132459800Y-90668700D02*
X128076700Y-86285600D01*
X163358400Y-90668700D02*
X132459800Y-90668700D01*
X165594400Y-92904700D02*
X163358400Y-90668700D01*
X165594400Y-93027900D02*
X165594400Y-92904700D01*
X166484700Y-93918200D02*
X165594400Y-93027900D01*
X176075500Y-93918200D02*
X166484700Y-93918200D01*
X177024300Y-92969400D02*
X176075500Y-93918200D01*
%TO.N,RPWM3*%
X164990900Y-118041600D02*
X170481200Y-118041600D01*
X161326700Y-121705800D02*
X164990900Y-118041600D01*
X161326700Y-121975000D02*
X161326700Y-121705800D01*
X160250000Y-121975000D02*
X161326700Y-121975000D01*
X142150000Y-99228700D02*
X142150000Y-98000000D01*
X143276000Y-100354700D02*
X142150000Y-99228700D01*
X146672900Y-100354700D02*
X143276000Y-100354700D01*
X147873100Y-101554900D02*
X146672900Y-100354700D01*
X162443100Y-101554900D02*
X147873100Y-101554900D01*
X162817500Y-101180500D02*
X162443100Y-101554900D01*
X170238800Y-101180500D02*
X162817500Y-101180500D01*
X174484300Y-105426000D02*
X170238800Y-101180500D01*
X174484300Y-108209400D02*
X174484300Y-105426000D01*
%TO.N,PWM3EN*%
X158959600Y-123184600D02*
X157750000Y-121975000D01*
X163243100Y-123184600D02*
X158959600Y-123184600D01*
X164000000Y-122427700D02*
X163243100Y-123184600D01*
X164000000Y-121497900D02*
X164000000Y-122427700D01*
X166409500Y-119088400D02*
X164000000Y-121497900D01*
X168264300Y-119088400D02*
X166409500Y-119088400D01*
X109765000Y-114500000D02*
X109108300Y-114500000D01*
X109108300Y-114089600D02*
X109108300Y-114500000D01*
X108801700Y-113783000D02*
X109108300Y-114089600D01*
X103168600Y-113783000D02*
X108801700Y-113783000D01*
X103078300Y-113873300D02*
X103168600Y-113783000D01*
X103078300Y-115136800D02*
X103078300Y-113873300D01*
X107257900Y-119316400D02*
X103078300Y-115136800D01*
X133808500Y-119316400D02*
X107257900Y-119316400D01*
X136000000Y-121507900D02*
X133808500Y-119316400D01*
X136000000Y-122450500D02*
X136000000Y-121507900D01*
X137053500Y-123504000D02*
X136000000Y-122450500D01*
X156221000Y-123504000D02*
X137053500Y-123504000D01*
X157750000Y-121975000D02*
X156221000Y-123504000D01*
%TO.N,LPWM3*%
X146793900Y-100051200D02*
X145960000Y-99217300D01*
X148645900Y-100051200D02*
X146793900Y-100051200D01*
X149067200Y-99629900D02*
X148645900Y-100051200D01*
X169205100Y-99629900D02*
X149067200Y-99629900D01*
X177024300Y-107449100D02*
X169205100Y-99629900D01*
X177024300Y-108209400D02*
X177024300Y-107449100D01*
X145960000Y-98000000D02*
X145960000Y-99217300D01*
%TO.N,RPWM2*%
X145960000Y-103072400D02*
X145960000Y-104289700D01*
X145960000Y-104289700D02*
X146149700Y-104479400D01*
X146149700Y-104479400D02*
X146149700Y-106161100D01*
X160266600Y-104479400D02*
X163038700Y-101707300D01*
X146149700Y-104479400D02*
X160266600Y-104479400D01*
%TO.N,PWM2VT*%
X152359200Y-121942500D02*
X152326700Y-121975000D01*
X156066100Y-121942500D02*
X152359200Y-121942500D01*
X151250000Y-121975000D02*
X152326700Y-121975000D01*
%TO.N,LPWM2*%
X142150000Y-103072400D02*
X142150000Y-104289700D01*
X142453600Y-104593300D02*
X142150000Y-104289700D01*
X142453600Y-104958700D02*
X142453600Y-104593300D01*
%TO.N,PWM2EN*%
X103735000Y-114500000D02*
X104391700Y-114500000D01*
X104391700Y-114910400D02*
X104391700Y-114500000D01*
X108256500Y-118775200D02*
X104391700Y-114910400D01*
X140550200Y-118775200D02*
X108256500Y-118775200D01*
X143750000Y-121975000D02*
X140550200Y-118775200D01*
%TO.N,RPWM1*%
X137371100Y-91855100D02*
X136442500Y-92783700D01*
X149129200Y-91855100D02*
X137371100Y-91855100D01*
X151513500Y-94239400D02*
X149129200Y-91855100D01*
X178294300Y-94239400D02*
X151513500Y-94239400D01*
X179564300Y-92969400D02*
X178294300Y-94239400D01*
X134546700Y-106782700D02*
X133519100Y-107810300D01*
X142150000Y-106782700D02*
X134546700Y-106782700D01*
X142150000Y-108000000D02*
X142150000Y-106782700D01*
%TO.N,PWM1VT*%
X137250000Y-121975000D02*
X138326700Y-121975000D01*
X139545900Y-123194200D02*
X138326700Y-121975000D01*
X146715200Y-123194200D02*
X139545900Y-123194200D01*
X147500000Y-122409400D02*
X146715200Y-123194200D01*
X147500000Y-121489900D02*
X147500000Y-122409400D01*
X148217600Y-120772300D02*
X147500000Y-121489900D01*
X153224200Y-120772300D02*
X148217600Y-120772300D01*
X153398200Y-120946300D02*
X153224200Y-120772300D01*
%TO.N,LPWM1*%
X172059900Y-106782700D02*
X145960000Y-106782700D01*
X173578000Y-105264600D02*
X172059900Y-106782700D01*
X145960000Y-107391300D02*
X145960000Y-106782700D01*
X145960000Y-107391300D02*
X145960000Y-108000000D01*
X144961800Y-110215500D02*
X136442500Y-110215500D01*
X145960000Y-109217300D02*
X144961800Y-110215500D01*
X145960000Y-108000000D02*
X145960000Y-109217300D01*
%TO.N,PWM1EN*%
X162265000Y-114500000D02*
X160735000Y-114500000D01*
X130088900Y-117000000D02*
X130734700Y-117000000D01*
X143570700Y-114484900D02*
X143242300Y-114484900D01*
X179384700Y-95689000D02*
X162753100Y-95689000D01*
X182104300Y-92969400D02*
X179384700Y-95689000D01*
X160077500Y-114499200D02*
X160078300Y-114500000D01*
X159413600Y-114499200D02*
X160077500Y-114499200D01*
X160735000Y-114500000D02*
X160078300Y-114500000D01*
X131282700Y-117548000D02*
X131282700Y-117789500D01*
X130734700Y-117000000D02*
X131282700Y-117548000D01*
X131221600Y-117850600D02*
X131282700Y-117789500D01*
X126825600Y-117850600D02*
X131221600Y-117850600D01*
X122756300Y-113781300D02*
X126825600Y-117850600D01*
X114645300Y-113781300D02*
X122756300Y-113781300D01*
X114458600Y-113968000D02*
X114645300Y-113781300D01*
X113952500Y-113968000D02*
X114458600Y-113968000D01*
X143570700Y-114484900D02*
X143899000Y-114484900D01*
X146692300Y-112348300D02*
X144555700Y-114484900D01*
X160305400Y-112348300D02*
X146692300Y-112348300D01*
X143899000Y-114484900D02*
X144555700Y-114484900D01*
X131282700Y-117789500D02*
X131282700Y-117787900D01*
X131282700Y-117787900D02*
X131282400Y-117787600D01*
X131282400Y-117787600D02*
X131282400Y-117786000D01*
X131282400Y-117786000D02*
X131282100Y-117785700D01*
X131342200Y-117849000D02*
X131282700Y-117789500D01*
X139176100Y-117849000D02*
X131342200Y-117849000D01*
X141696600Y-115328500D02*
X139176100Y-117849000D01*
X142809100Y-115328500D02*
X141696600Y-115328500D01*
X143242300Y-114895300D02*
X142809100Y-115328500D01*
X143242300Y-114484900D02*
X143242300Y-114895300D01*
%TO.N,+3.3V*%
X147864600Y-94289700D02*
X151624300Y-98049400D01*
X140880000Y-94289700D02*
X147864600Y-94289700D01*
X140880000Y-93072400D02*
X140880000Y-94289700D01*
X113507900Y-120732900D02*
X114750000Y-121975000D01*
X106992100Y-120732900D02*
X113507900Y-120732900D01*
X105750000Y-121975000D02*
X106992100Y-120732900D01*
X145745300Y-84754700D02*
X144500000Y-86000000D01*
X154754700Y-84754700D02*
X145745300Y-84754700D01*
X156000000Y-86000000D02*
X154754700Y-84754700D01*
X158608200Y-83391800D02*
X156000000Y-86000000D01*
X173391800Y-83391800D02*
X158608200Y-83391800D01*
X176000000Y-86000000D02*
X173391800Y-83391800D01*
X120704000Y-84704000D02*
X122000000Y-86000000D01*
X107025700Y-84704000D02*
X120704000Y-84704000D01*
X105752200Y-85977500D02*
X107025700Y-84704000D01*
X140524500Y-101499600D02*
X140880000Y-101855100D01*
X139252400Y-101499600D02*
X140524500Y-101499600D01*
X140880000Y-103072400D02*
X140880000Y-101855100D01*
X175500000Y-112190000D02*
X176717300Y-112190000D01*
X185265000Y-114500000D02*
X185921700Y-114500000D01*
X185989000Y-114432700D02*
X185921700Y-114500000D01*
X185989000Y-110972500D02*
X185989000Y-114432700D01*
X185809400Y-110792900D02*
X185989000Y-110972500D01*
X178114400Y-110792900D02*
X185809400Y-110792900D01*
X176717300Y-112190000D02*
X178114400Y-110792900D01*
X140923300Y-89576700D02*
X144500000Y-86000000D01*
X135725600Y-89576700D02*
X140923300Y-89576700D01*
X130924100Y-84775200D02*
X135725600Y-89576700D01*
X123224800Y-84775200D02*
X130924100Y-84775200D01*
X122000000Y-86000000D02*
X123224800Y-84775200D01*
%TO.N,LPWM1A*%
X185921700Y-117000000D02*
X186334000Y-116587700D01*
X186334000Y-116587700D02*
X186334000Y-110882000D01*
X185265000Y-117000000D02*
X185921700Y-117000000D01*
X186334000Y-110882000D02*
X184669300Y-109217300D01*
X184669300Y-109217300D02*
X147230000Y-109217300D01*
X147230000Y-108000000D02*
X147230000Y-109217300D01*
%TO.N,GND*%
X155000000Y-115939800D02*
X156060200Y-117000000D01*
%TD*%
M02*
