%TF.GenerationSoftware,KiCad,Pcbnew,9.0.6*%
%TF.CreationDate,2026-01-31T10:20:15-08:00*%
%TF.ProjectId,ArmRobotBoardTeensy,41726d52-6f62-46f7-9442-6f6172645465,rev?*%
%TF.SameCoordinates,Original*%
%TF.FileFunction,Soldermask,Bot*%
%TF.FilePolarity,Negative*%
%FSLAX46Y46*%
G04 Gerber Fmt 4.6, Leading zero omitted, Abs format (unit mm)*
G04 Created by KiCad (PCBNEW 9.0.6) date 2026-01-31 10:20:15*
%MOMM*%
%LPD*%
G01*
G04 APERTURE LIST*
G04 Aperture macros list*
%AMRoundRect*
0 Rectangle with rounded corners*
0 $1 Rounding radius*
0 $2 $3 $4 $5 $6 $7 $8 $9 X,Y pos of 4 corners*
0 Add a 4 corners polygon primitive as box body*
4,1,4,$2,$3,$4,$5,$6,$7,$8,$9,$2,$3,0*
0 Add four circle primitives for the rounded corners*
1,1,$1+$1,$2,$3*
1,1,$1+$1,$4,$5*
1,1,$1+$1,$6,$7*
1,1,$1+$1,$8,$9*
0 Add four rect primitives between the rounded corners*
20,1,$1+$1,$2,$3,$4,$5,0*
20,1,$1+$1,$4,$5,$6,$7,0*
20,1,$1+$1,$6,$7,$8,$9,0*
20,1,$1+$1,$8,$9,$2,$3,0*%
G04 Aperture macros list end*
%ADD10RoundRect,0.250000X-0.600000X-0.750000X0.600000X-0.750000X0.600000X0.750000X-0.600000X0.750000X0*%
%ADD11O,1.700000X2.000000*%
%ADD12RoundRect,0.250000X-0.600000X-0.725000X0.600000X-0.725000X0.600000X0.725000X-0.600000X0.725000X0*%
%ADD13O,1.700000X1.950000*%
%ADD14C,1.404000*%
%ADD15C,1.304000*%
%ADD16C,0.804000*%
%ADD17C,5.700000*%
G04 APERTURE END LIST*
D10*
%TO.C,J7*%
X114750000Y-121975000D03*
D11*
X117250000Y-121975000D03*
%TD*%
D12*
%TO.C,J8*%
X129750000Y-121975000D03*
D13*
X132250000Y-121975000D03*
X134750000Y-121975000D03*
X137250000Y-121975000D03*
%TD*%
D10*
%TO.C,J6*%
X105750000Y-121975000D03*
D11*
X108250000Y-121975000D03*
%TD*%
D12*
%TO.C,J5*%
X176000000Y-86000000D03*
D13*
X178500000Y-86000000D03*
X181000000Y-86000000D03*
X183500000Y-86000000D03*
%TD*%
D12*
%TO.C,J11*%
X178500000Y-121975000D03*
D13*
X181000000Y-121975000D03*
X183500000Y-121975000D03*
%TD*%
D12*
%TO.C,J9*%
X143750000Y-121975000D03*
D13*
X146250000Y-121975000D03*
X148750000Y-121975000D03*
X151250000Y-121975000D03*
%TD*%
D12*
%TO.C,J10*%
X157750000Y-121975000D03*
D13*
X160250000Y-121975000D03*
X162750000Y-121975000D03*
X165250000Y-121975000D03*
%TD*%
D12*
%TO.C,J3*%
X144500000Y-86000000D03*
D13*
X147000000Y-86000000D03*
X149500000Y-86000000D03*
%TD*%
D14*
%TO.C,U1*%
X184644300Y-92969400D03*
X182104300Y-92969400D03*
X179564300Y-92969400D03*
X177024300Y-92969400D03*
X174484300Y-92969400D03*
X171944300Y-92969400D03*
X169404300Y-92969400D03*
X166864300Y-92969400D03*
X164324300Y-92969400D03*
X161784300Y-92969400D03*
X159244300Y-92969400D03*
X156704300Y-92969400D03*
X154164300Y-92969400D03*
X151624300Y-92969400D03*
X151624300Y-95509400D03*
X151624300Y-98049400D03*
X151624300Y-100589400D03*
X151624300Y-103129400D03*
X151624300Y-105669400D03*
X151624300Y-108209400D03*
X154164300Y-108209400D03*
X156704300Y-108209400D03*
X159244300Y-108209400D03*
X161784300Y-108209400D03*
X164324300Y-108209400D03*
X166864300Y-108209400D03*
X169404300Y-108209400D03*
X171944300Y-108209400D03*
X174484300Y-108209400D03*
X177024300Y-108209400D03*
X179564300Y-108209400D03*
X182104300Y-108209400D03*
X184644300Y-108209400D03*
X182104300Y-105669400D03*
D15*
X156704300Y-105669400D03*
X159244300Y-105669400D03*
X156704300Y-103129400D03*
X159244300Y-103129400D03*
X156704300Y-100589400D03*
X159244300Y-100589400D03*
X156704300Y-98049400D03*
X159244300Y-98049400D03*
X156704300Y-95509400D03*
X159244300Y-95509400D03*
D16*
X177505900Y-104089400D03*
X177505900Y-103089400D03*
X177505900Y-102089400D03*
X177505900Y-101089400D03*
X177505900Y-100089400D03*
X177505900Y-99089400D03*
X177505900Y-98089400D03*
X177505900Y-97089400D03*
D15*
X183374300Y-101859400D03*
X183374300Y-99319400D03*
%TD*%
D17*
%TO.C,MH4*%
X171908500Y-122500000D03*
%TD*%
%TO.C,MH3*%
X123500000Y-122420000D03*
%TD*%
D12*
%TO.C,J1*%
X105752200Y-85977500D03*
D13*
X108252200Y-85977500D03*
X110752200Y-85977500D03*
X113252200Y-85977500D03*
X115752200Y-85977500D03*
%TD*%
D12*
%TO.C,J4*%
X156000000Y-86000000D03*
D13*
X158500000Y-86000000D03*
X161000000Y-86000000D03*
%TD*%
D12*
%TO.C,J2*%
X122000000Y-86000000D03*
D13*
X124500000Y-86000000D03*
X127000000Y-86000000D03*
X129500000Y-86000000D03*
%TD*%
D17*
%TO.C,MH1*%
X137000000Y-86500000D03*
%TD*%
%TO.C,MH2*%
X168500000Y-86500000D03*
%TD*%
M02*
